<?xml version="1.0" encoding="UTF-8"?>
<svg id="Layer_2" data-name="Layer 2" xmlns="http://www.w3.org/2000/svg" viewBox="0 0 176.69 230.32">
  <defs>
    <style>
      .cls-1 {
        fill: #231f20;
      }
    </style>
  </defs>
  <g id="Layer_1-2" data-name="Layer 1">
    <path class="cls-1" d="M139.27,26.77l-4.69,8.75c-1.54,2.86-3.26,5.69-4.6,8.65-1.41,3.12-.8,6.2,1.5,8.71,1.74,1.89,4.27,3.18,6.78,3.64,5.46,1.02,10.74-.81,14.92-4.34,2.1-1.77,3.84-3.97,5.35-6.26,1.36-2.08,2.4-4.33,3.7-6.45.95-1.55,2.28-3.53,3.95-4.14,1.47-.54,2.69.26,3.42,1.49.96,1.62,1.34,3.72,1.53,5.55.28,2.8.5,5.62.55,8.44.1,5.39-.52,10.91-3.56,15.5-2.67,4.03-6.86,6.76-11.16,8.8-9.83,4.65-21.09,5.52-30.48,11.25-5.03,3.07-9.01,7.42-12.63,12.01-4.03,5.11-7.93,10.33-11.88,15.5-8.03,10.5-16.06,21-24.09,31.5-3.99,5.22-7.98,10.44-11.97,15.65-3.67,4.79-7.17,9.61-8.12,15.73s.08,12.11.28,18.19c.18,5.27-.61,10.38-3.05,15.1-4.73,9.17-14.05,15.07-24.4,15.28-2.65.05-5.23-.26-7.79-.93l1.49,3.67c.54-.87,2.41-1.16,3.33-1.57,1.39-.61,2.67-1.55,3.65-2.71,2.07-2.45,3.16-5.51,3.88-8.6,1.42-6.11,2.49-14.94-5-17.49-3.21-1.09-6.91-.15-9.75,1.49-3.13,1.8-5.39,4.71-7.93,7.2-1.03,1-2.59,2.72-4.09,2.93-.89.12-1.4-.99-1.74-1.77-1.05-2.46-1.5-5.31-1.64-7.95-.58-11.03,4.91-22.44,14.14-28.64,2.47-1.66,5.11-2.88,7.96-3.73,3.92-1.17,7.85-2.04,11.55-3.86,6.54-3.2,12.18-8.33,17.21-13.52,9.88-10.22,17.62-22.22,25.58-33.93,3.92-5.76,7.89-11.49,12.26-16.92,2.2-2.73,4.49-5.37,6.9-7.92s4.82-5.05,6.5-8.08c1.83-3.3,2.44-6.93,1.53-10.62s-2.58-6.89-3.52-10.44c-1.77-6.66-2.2-13.61-1.44-20.46.75-6.73,2.8-13.39,5.98-19.37,3.07-5.79,7.22-11.46,12.95-14.85,1.36-.81,2.78-1.46,4.3-1.92.41-.12.83-.22,1.25-.33.12-.03.25-.06.38-.08-.03,0-.38.06-.11.01.08-.01.22.02.29-.02.25-.12.11.2,0-.03.03.06-.46-.21-.3-.11-.36-.24-.68-.71-.76-.92.04.12-.09-.65-.05-.15.04.46.06-.18,0-.04-.08.23-.11.49-.18.72-.28.98-.66,1.92-1.01,2.88-1.34,3.73-3.36,11.02,1.72,12.81,1.6.56,3.45.58,5.13.62,2.08.05,4.15,0,6.23-.03.97-.01,1.93-.02,2.9,0,.39,0,.77.02,1.16.04.2.01.4.03.61.04.12,0,.72.1.28.03s.34.11.48.12c.43.02-.39-.22-.19-.1.03.02-.34-.3-.43-.42-.37-.54-.45-1.3-.38-1.81-.02.13.11-.26.1-.26-.08.09-.2.47-.23.53-.24.57-.45,1.14-.64,1.73-.14.45-.27.91-.43,1.35-.07.21-.15.43-.24.64.16-.37-.11.19-.16.29-.69,1.31-1.68,2.37-2.72,3.4-2.29,2.27,1.25,5.81,3.54,3.54,2.14-2.12,3.74-4.38,4.64-7.26.36-1.14.71-1.72.96-2.66.31-1.19-.16-2.37-1.11-3.1-1.31-1-3.18-1.02-4.75-1.08-2.02-.07-4.05,0-6.07.02s-4.03,0-6.04-.14c-.52-.04.08.02-.04,0-.18-.03-.37-.06-.55-.1-.14-.03-.28-.07-.42-.1-.13-.03-.6-.24-.18-.04s.01,0-.08-.07c.4.27.28.23.59.6-.13-.15.08.08.03.07l.06.13c-.04-.13-.08-.26-.12-.4-.03-.12-.16-.83-.13-.55-.27-2.28.57-4.55,1.42-6.87.64-1.77,1.64-3.88,1.06-5.8-.89-2.92-4.13-2.68-6.49-2.02-3.53.99-6.7,2.84-9.54,5.12-5.47,4.4-9.59,10.6-12.5,16.93-6.09,13.27-7.35,28.73-3.06,42.73.53,1.73,1.18,3.41,1.83,5.1.69,1.78,1.42,3.64,1.43,5.58,0,3.13-1.9,5.89-3.85,8.18-2.33,2.73-4.89,5.25-7.23,7.98s-4.65,5.65-6.85,8.58c-8.62,11.47-15.96,23.86-24.79,35.18-4.41,5.66-9.2,11.06-14.59,15.81-2.78,2.45-5.71,4.73-8.96,6.55-3.59,2.01-7.46,2.93-11.38,4.05-12.25,3.51-21.54,13.38-25.05,25.56-1.7,5.9-1.95,12.25-.47,18.22.76,3.05,1.97,6.66,5.14,7.94,3.9,1.57,7.65-1.74,10.22-4.3,2.36-2.35,4.53-5.32,7.68-6.67,2.3-.99,5.5-1.24,6.74,1.41s.39,5.86-.16,8.48-1.26,5.85-3.26,7.9c-.87.9-1.9,1.31-3.06,1.74-1.74.65-3.26,1.44-4.27,3.07-.85,1.37-.03,3.27,1.49,3.67,10.95,2.88,23.05-.05,31.27-7.89,3.84-3.66,6.72-8.24,8.49-13.22,1.96-5.51,2-11.26,1.58-17.02s-1.26-12.1.99-17.71c1.06-2.64,2.75-5.02,4.45-7.28,1.93-2.59,3.91-5.13,5.87-7.7,8.18-10.7,16.36-21.4,24.55-32.1,4.04-5.28,8.08-10.57,12.12-15.85,3.67-4.79,7.18-9.8,11.37-14.17,3.97-4.14,8.65-7.05,14.02-9.03s10.9-3.22,16.28-5.03c10.07-3.4,19.86-9.22,22.94-20.07,1.6-5.62,1.37-11.58.9-17.34-.38-4.6-.79-10.19-4.83-13.19-1.92-1.42-4.54-1.84-6.81-1.06-2.43.84-4.22,2.72-5.7,4.75s-2.54,4.37-3.83,6.55-2.87,4.35-4.79,6.13c-3.34,3.1-8.42,5.03-12.86,3.13-1.75-.75-4.01-2.48-3.16-4.61.57-1.41,1.45-2.76,2.17-4.1l2.35-4.38,4.69-8.75c1.52-2.84-2.79-5.36-4.32-2.52h0Z"/>
  </g>
</svg>