<?xml version="1.0" encoding="UTF-8"?>
<svg id="Layer_2" data-name="Layer 2" xmlns="http://www.w3.org/2000/svg" viewBox="0 0 263.64 142.73">
  <defs>
    <style>
      .cls-1 {
        fill: #231f20;
      }
    </style>
  </defs>
  <g id="Layer_1-2" data-name="Layer 1">
    <path class="cls-1" d="M259.69,11.48C240.81,2.47,219.58-1.42,198.73.46c-10.48.95-21.23,3.02-30.8,7.54-8.84,4.17-16.04,10.98-21.93,18.68-12.49,16.34-18.44,36.46-30.03,53.35-10.6,15.44-26.01,27.19-43.03,34.76-19.47,8.66-41.19,11.55-62.35,10.47-2.7-.14-5.4-.34-8.09-.6-1.35-.13-2.5,1.24-2.5,2.5,0,1.46,1.15,2.37,2.5,2.5,21.67,2.09,44,.26,64.56-7.17,17.68-6.38,34.08-16.88,46.43-31.14,6.73-7.78,11.93-16.58,16.55-25.73,4.63-9.18,8.81-18.61,14.16-27.41,4.73-7.79,10.44-15.32,17.81-20.82,8.21-6.12,18.04-9.03,28.02-10.78,20.15-3.54,41.25-1.28,60.28,6.19,2.33.91,4.61,1.92,6.86,2.99,1.22.58,2.7.34,3.42-.9.64-1.09.33-2.84-.9-3.42h0Z"/>
    <path class="cls-1" d="M259.69,23.75c-18.88-9.01-40.11-12.9-60.96-11.02-10.48.95-21.23,3.02-30.8,7.54-8.84,4.17-16.04,10.98-21.93,18.68-12.49,16.34-18.44,36.46-30.03,53.35-10.6,15.44-26.01,27.19-43.03,34.76-19.47,8.66-41.19,11.55-62.35,10.47-2.7-.14-5.4-.34-8.09-.6-1.35-.13-2.5,1.24-2.5,2.5,0,1.46,1.15,2.37,2.5,2.5,21.67,2.09,44,.26,64.56-7.17,17.68-6.38,34.08-16.88,46.43-31.14,6.73-7.78,11.93-16.58,16.55-25.73,4.63-9.18,8.81-18.61,14.16-27.41,4.73-7.79,10.44-15.32,17.81-20.82,8.21-6.12,18.04-9.03,28.02-10.78,20.15-3.54,41.25-1.28,60.28,6.19,2.33.91,4.61,1.92,6.86,2.99,1.22.58,2.7.34,3.42-.9.64-1.09.33-2.84-.9-3.42h0Z"/>
    <path class="cls-1" d="M262.92,49.38c-14.16-11.74-31.24-19.82-49.33-23.19-9.47-1.76-19.4-2.53-28.98-1.23s-17.44,5.07-24.77,10.52c-15.29,11.36-25.31,27.85-39.07,40.78-13.19,12.39-30.12,20.08-47.85,23.25-19.53,3.49-39.78,1.21-58.64-4.57-2.39-.73-4.75-1.52-7.1-2.36-1.27-.45-2.74.51-3.08,1.75-.38,1.39.47,2.62,1.75,3.08,18.93,6.76,39.35,10.19,59.44,8.18,18.02-1.8,35.82-7.88,50.46-18.67,7.71-5.68,14.24-12.59,20.45-19.85,6.08-7.1,11.92-14.44,18.71-20.89,6.18-5.87,13.24-11.16,21.34-14.06,9.04-3.24,18.92-3.18,28.36-2.2,17.82,1.85,35.11,8.57,49.64,19.03,1.76,1.27,3.47,2.6,5.14,3.99,1.04.86,2.52,1.02,3.54,0,.89-.89,1.04-2.67,0-3.54h0Z"/>
  </g>
</svg>