<?xml version="1.0" encoding="UTF-8"?>
<svg id="Layer_2" data-name="Layer 2" xmlns="http://www.w3.org/2000/svg" viewBox="0 0 228.64 186.19">
  <defs>
    <style>
      .cls-1 {
        fill: #231f20;
      }
    </style>
  </defs>
  <g id="Layer_1-2" data-name="Layer 1">
    <path class="cls-1" d="M44.33,41.41c-1.31,19.26.83,38.51.35,57.78-.39,15.41-2.7,31.21-9.71,45.1-3.34,6.62-7.71,12.66-13.25,17.62-4.21,3.76-13.19,8.04-15.59.16-.99-3.27-1.15-6.97-1.12-10.37.02-2.99.35-6.4,2.3-8.82,4.73-5.9,13.3-.97,17.69,2.77,5.67,4.83,11.16,11.23,12.74,18.69,1.24,5.87-1.14,12.83-6.61,15.79-1.22.66-2.59,1.03-3.95,1.05-.08,0-.44-.05-.5,0h-.17c.2.09.39.18.59.27.08-.04-.1-.53-.13-.64-.19-.79-.29-1.56-.31-2.37-.11-3.4,1.02-6.65,2.83-9.49,4.15-6.48,11.45-9.6,18.84-10.62,8.84-1.22,17.78.26,26.59.93s16.86.29,24.97-2.38c14.44-4.76,26.74-15.1,34.78-27.9,9.04-14.38,12.89-31.56,13.11-48.41s-2.81-34.92-12.56-49.15c-4.4-6.41-10.02-12.04-16.72-16.03-7.49-4.46-15.96-6.26-24.56-6.96-14.47-1.19-30.57-.98-43.67,6.08-3.12,1.68-6.04,3.82-8.54,6.33-1.31,1.32-2.8,2.82-3.55,4.54-.97,2.24-.23,4.38,1.35,6.1,4.57,4.98,11.5,8.2,18,9.66,13.14,2.94,28.57-.46,37.8-10.74,4.69-5.22,7.95-12.77,6.32-19.85S92.71-.86,85.46.16s-12.89,7.21-13.93,14.61c-1.09,7.77,2.23,15.25,8.06,20.35,6.43,5.62,14.65,8.04,23.01,8.89,9.16.93,18.76.57,27.76-1.41,8.47-1.86,16.43-5.39,24.65-8.08,7.35-2.4,15.8-4.7,23.49-2.51,3.27.93,6.08,2.85,7.92,5.74,1.94,3.04,2.88,6.57,3.72,10.05,1.62,6.64,3.35,13.26,5.02,19.88,2.36,9.34,5.12,21,14.55,25.71,5.07,2.53,10.88,2.77,16.42,2.18,1.34-.14,2.5-1.05,2.5-2.5,0-1.24-1.15-2.64-2.5-2.5-1.61.17-3.23.28-4.85.27-.7,0-1.41-.02-2.11-.07-.64-.04-1.41-.12-1.7-.17-1.25-.19-2.49-.48-3.69-.89-.26-.09-.52-.19-.78-.29-.27-.11.02.01.06.03-.14-.06-.28-.12-.42-.19-.51-.24-1.01-.5-1.49-.79-.44-.26-.87-.55-1.28-.85-.23-.17.04.04.07.06-.11-.09-.23-.18-.34-.27-.22-.19-.44-.38-.65-.57-.37-.35-.73-.71-1.07-1.08-.17-.19-.34-.38-.5-.58-.07-.08-.14-.17-.21-.26-.45-.54.16.22-.09-.11-.66-.89-1.25-1.83-1.79-2.8-.27-.49-.52-.99-.77-1.49-.12-.26-.24-.52-.36-.78-.07-.15-.13-.3-.2-.45-.17-.38.12.3-.04-.1-2.18-5.22-3.44-10.8-4.79-16.27-.8-3.22-1.6-6.44-2.48-9.64-.99-3.61-1.68-7.3-2.78-10.88s-2.65-7.05-5.17-9.87-6.09-4.71-9.79-5.59c-8.07-1.92-16.65.02-24.38,2.48-8.17,2.6-16.05,6.12-24.42,8.1-8.82,2.09-18.27,2.38-27.28,1.5-7.73-.75-15.66-3.17-21.21-8.87-4.63-4.76-6.93-12-4.16-18.32,1.27-2.88,3.54-5.21,6.55-6.22,2.71-.91,5.81-.97,8.38.37,5.91,3.07,5.34,10.6,2.8,15.76-5.85,11.88-20.7,16.71-33.14,15.14-6.2-.78-12.39-3.23-17.18-7.28-.62-.52-1.27-1.05-1.8-1.66-.43-.49-.41-.53,0-1.1.97-1.36,2.25-2.58,3.48-3.7,2.46-2.21,5.3-3.96,8.3-5.36,6.26-2.92,13.3-4.14,20.15-4.61,7.73-.53,15.71-.35,23.4.71s15.43,3.77,21.85,8.68c5.94,4.55,10.7,10.58,14.18,17.18,7.91,15.03,9.48,33.19,7.89,49.86s-6.85,31.9-17.3,44.16c-9.31,10.92-22.52,19.19-37.02,20.57-17.58,1.67-36.31-5.84-52.91,2.94-6.44,3.4-11.82,9.83-13.08,17.11-.32,1.82-.43,3.64-.21,5.47s.53,4.01,2.03,5.31c1.59,1.38,4.05,1.09,5.97.71,1.6-.31,3.18-.98,4.56-1.84,5.82-3.64,9.27-11,8.69-17.8-.7-8.17-5.47-15.14-11.05-20.86-5.06-5.19-12.35-10.98-20.11-10.15-3.84.41-7.18,2.42-9.27,5.68-1.93,3-2.5,6.73-2.58,10.24s.18,7.57,1,11.14c.89,3.85,3.15,7.26,6.97,8.67,7.32,2.7,14.96-3.03,19.78-7.93,10.77-10.95,16.75-25.73,19.58-40.63,3.34-17.57,2.36-35.47,1.8-53.24-.29-9.26-.45-18.53.18-27.77.09-1.35-1.21-2.5-2.5-2.5-1.43,0-2.41,1.15-2.5,2.5h0Z"/>
  </g>
</svg>