<?xml version="1.0" encoding="UTF-8"?>
<svg id="Layer_2" data-name="Layer 2" xmlns="http://www.w3.org/2000/svg" viewBox="0 0 85.12 184.88">
  <defs>
    <style>
      .cls-1 {
        fill: #231f20;
      }
    </style>
  </defs>
  <g id="Layer_1-2" data-name="Layer 1">
    <g>
      <path class="cls-1" d="M16.15,43.59c7.37-1.74,15.28-3.06,22.88-2.59,3,.19,6.06.95,8.45,2.86,2.11,1.68,3.71,4.06,4.64,6.57,2.35,6.35.99,13.12-1.4,19.26-2.61,6.72-6.43,12.99-10.4,18.98-3.95,5.96-8.22,11.7-12.32,17.55s-8.53,11.77-8.34,18.97c.09,3.34,1.21,6.62,3.52,9.07s5.43,3.71,8.57,4.38c5.75,1.24,12.25,1.25,17.62-1.38,2.56-1.25,4.83-3.35,6.09-5.93,1.54-3.14,1.78-6.62,1.76-10.07-.04-7.14.51-14,2.54-20.89s5.52-13.47,9.6-19.6,8.35-11.75,11.45-18.26,4.96-13.36,4.06-20.43c-.84-6.62-3.81-12.69-7.84-17.94s-9.03-9.86-14.45-13.77S51.01,3.24,44.45,1.61c-3.65-.91-7.42-1.29-11.17-1.44s-7.43-.29-11.1-.02c-3.47.26-6.93,1.09-9.82,3.11-2.35,1.64-4.25,3.77-5.78,6.19C3.55,14.28,1.99,20,.74,25.51c-.77,3.41-1.27,7.03.21,10.33,1.24,2.78,3.71,4.58,6.51,5.58,2.65.95,5.6,1.12,8.39,1.04,3.21-.09,3.22-5.09,0-5-4.44.13-10.77-.48-10.87-6.18-.05-2.84.84-5.71,1.57-8.43.67-2.5,1.43-5.03,2.5-7.39,2.15-4.75,5.39-8.82,10.71-9.96,3.3-.71,6.85-.46,10.2-.41,3.56.05,7.15.17,10.66.81,12.25,2.24,23.39,10.28,31.25,19.7,3.76,4.51,6.74,9.79,7.86,15.6,1.2,6.26-.38,12.71-3.02,18.39-2.92,6.26-7.02,11.84-10.88,17.53s-7.39,11.85-9.76,18.5-3.62,13.53-3.83,20.48c-.16,5.22,1.24,12.3-3.68,15.84-4,2.88-9.86,2.88-14.52,2.05-2.65-.47-5.41-1.28-7.31-3.28s-2.3-4.87-1.98-7.47c.38-3.12,1.94-5.99,3.59-8.61,1.82-2.89,3.82-5.68,5.79-8.46,3.96-5.59,8.02-11.11,11.74-16.86s7.17-11.86,9.68-18.31,3.74-13.21,2.05-19.81c-1.45-5.66-5.13-11.01-10.59-13.41-6.48-2.85-14.17-1.94-20.99-1.06-3.77.49-7.5,1.16-11.2,2.03-3.13.74-1.81,5.56,1.33,4.82h0Z"/>
      <path class="cls-1" d="M40.56,155.78c-6.3-1.88-13.43-1.45-18.56,3.01-4.71,4.09-6.1,10.68-3.2,16.22,3.05,5.85,9.61,8.65,15.83,9.58,3.45.52,7.17.49,10.21-1.46s4.15-4.73,4.55-8.09c.44-3.72.83-7.72-.29-11.35s-3.41-6.29-6.83-7.62c-1.26-.49-2.74.54-3.08,1.75-.39,1.41.48,2.59,1.75,3.08,4.48,1.74,4.01,8.24,3.67,12-.18,2.01-.22,4.3-1.93,5.67-1.82,1.46-4.39,1.48-6.59,1.21-4.42-.54-9.51-2.17-12.18-6-2.37-3.41-2.16-7.53.71-10.58,3.78-4.01,9.65-4.09,14.61-2.6,3.09.92,4.41-3.9,1.33-4.82h0Z"/>
    </g>
  </g>
</svg>