<?xml version="1.0" encoding="UTF-8"?>
<svg id="Layer_2" data-name="Layer 2" xmlns="http://www.w3.org/2000/svg" viewBox="0 0 204.73 72.56">
  <defs>
    <style>
      .cls-1 {
        fill: #231f20;
      }
    </style>
  </defs>
  <g id="Layer_1-2" data-name="Layer 1">
    <g>
      <path class="cls-1" d="M.1,25.52l-.04,24.46c0,4.13-.12,8.27-.02,12.4.09,3.47,1.93,5.77,5.13,6.96,2.91,1.09,6.16,1.04,9.23,1.03,3.98-.01,7.96-.03,11.94-.04,8.12-.03,16.25-.05,24.37-.08,16.08-.05,32.16-.11,48.24-.16,16.26-.05,32.47.44,48.71,1.23,18.17.89,36.38,1.77,54.56.82,1.23-.06,2.66-1.1,2.5-2.5-1.62-14.56-2.11-29.23-1.47-43.87.14-3.22-4.86-3.21-5,0-.64,14.64-.15,29.31,1.47,43.87l2.5-2.5c-31.6,1.65-63.2-1.98-94.81-2.06-31.61-.08-63.23.49-94.84.29-1.4,0-2.81-.05-4.18-.33-1.11-.22-2.4-.58-2.99-1.25-.73-.83-.36-3.48-.36-4.83v-6.49c.02-8.99.04-17.97.05-26.96,0-3.22-5-3.22-5,0H.1Z"/>
      <path class="cls-1" d="M23.99,24.99c-.26-3.57-.31-7.16-.11-10.74.1-1.79.26-3.57.48-5.35.09-.75.2-1.49.32-2.24.1-.64.13-1.79.47-2.24l-.9.9c-.5.29.54.05.77.05l1.73-.03c1.07-.02,2.14-.04,3.21-.06,1.97-.04,3.95-.08,5.92-.11s4.11-.08,6.17-.12c1.46-.03,2.98-.13,4.41.25,3.1.83,2.29,4.84,2.27,7.31-.03,4.04-.07,8.08-.1,12.12-.03,3.22,4.97,3.22,5,0,.04-5.17.21-10.35.12-15.52-.04-2.33-.47-4.67-2.07-6.46s-3.76-2.37-5.97-2.62-4.59-.07-6.87-.02c-2.63.05-5.27.1-7.9.15-1.32.03-2.63.05-3.95.08s-2.73-.11-4,.17c-3.01.65-3.05,4.05-3.39,6.53-.83,5.96-1.07,11.96-.62,17.96.1,1.35,1.08,2.5,2.5,2.5,1.28,0,2.6-1.15,2.5-2.5h0Z"/>
      <path class="cls-1" d="M68.04,24.99c-.26-3.57-.31-7.16-.11-10.74.1-1.79.26-3.57.48-5.35.09-.75.2-1.49.32-2.24.1-.64.13-1.79.47-2.24l-.9.9c-.5.29.54.05.77.05l1.73-.03c1.07-.02,2.14-.04,3.21-.06,1.97-.04,3.95-.08,5.92-.11s4.11-.08,6.17-.12c1.46-.03,2.98-.13,4.41.25,3.1.83,2.29,4.84,2.27,7.31-.03,4.04-.07,8.08-.1,12.12-.03,3.22,4.97,3.22,5,0,.04-5.17.21-10.35.12-15.52-.04-2.33-.47-4.67-2.07-6.46s-3.76-2.37-5.97-2.62-4.59-.07-6.87-.02c-2.63.05-5.27.1-7.9.15-1.32.03-2.63.05-3.95.08s-2.73-.11-4,.17c-3.01.65-3.05,4.05-3.39,6.53-.83,5.96-1.07,11.96-.62,17.96.1,1.35,1.08,2.5,2.5,2.5,1.28,0,2.6-1.15,2.5-2.5h0Z"/>
      <path class="cls-1" d="M113.4,24.99c-.26-3.57-.31-7.16-.11-10.74.1-1.79.26-3.57.48-5.35.09-.75.2-1.49.32-2.24.1-.64.13-1.79.47-2.24l-.9.9c-.5.29.54.05.77.05l1.73-.03c1.07-.02,2.14-.04,3.21-.06,1.97-.04,3.95-.08,5.92-.11s4.11-.08,6.17-.12c1.46-.03,2.98-.13,4.41.25,3.1.83,2.29,4.84,2.27,7.31-.03,4.04-.07,8.08-.1,12.12-.03,3.22,4.97,3.22,5,0,.04-5.17.21-10.35.12-15.52-.04-2.33-.47-4.67-2.07-6.46s-3.76-2.37-5.97-2.62-4.59-.07-6.87-.02c-2.63.05-5.27.1-7.9.15-1.32.03-2.63.05-3.95.08s-2.73-.11-4,.17c-3.01.65-3.05,4.05-3.39,6.53-.83,5.96-1.07,11.96-.62,17.96.1,1.35,1.08,2.5,2.5,2.5,1.28,0,2.6-1.15,2.5-2.5h0Z"/>
      <path class="cls-1" d="M156.24,24.99c-.26-3.57-.31-7.16-.11-10.74.1-1.79.26-3.57.48-5.35.09-.75.2-1.49.32-2.24.1-.64.13-1.79.47-2.24l-.9.9c-.5.29.54.05.77.05l1.73-.03c1.07-.02,2.14-.04,3.21-.06,1.97-.04,3.95-.08,5.92-.11s4.11-.08,6.17-.12c1.46-.03,2.98-.13,4.41.25,3.1.83,2.29,4.84,2.27,7.31-.03,4.04-.07,8.08-.1,12.12-.03,3.22,4.97,3.22,5,0,.04-5.17.21-10.35.12-15.52-.04-2.33-.47-4.67-2.07-6.46s-3.76-2.37-5.97-2.62-4.59-.07-6.87-.02c-2.63.05-5.27.1-7.9.15-1.32.03-2.63.05-3.95.08s-2.73-.11-4,.17c-3.01.65-3.05,4.05-3.39,6.53-.83,5.96-1.07,11.96-.62,17.96.1,1.35,1.08,2.5,2.5,2.5,1.28,0,2.6-1.15,2.5-2.5h0Z"/>
      <path class="cls-1" d="M185.06,27.93c4.91.5,9.86.48,14.77-.06,1.3-.14,2.57-1.05,2.5-2.5-.06-1.23-1.11-2.65-2.5-2.5-4.91.54-9.86.56-14.77.06-1.31-.13-2.56,1.25-2.5,2.5.07,1.47,1.1,2.36,2.5,2.5h0Z"/>
      <path class="cls-1" d="M4.42,27.75h17.14c1.35,0,2.5-1.15,2.5-2.5s-1.14-2.5-2.5-2.5H4.42c-1.35,0-2.5,1.15-2.5,2.5s1.14,2.5,2.5,2.5h0Z"/>
      <path class="cls-1" d="M51.36,27.75h12.92c1.31,0,2.56-1.15,2.5-2.5s-1.1-2.5-2.5-2.5h-12.92c-1.31,0-2.56,1.15-2.5,2.5s1.1,2.5,2.5,2.5h0Z"/>
      <path class="cls-1" d="M94.88,28.62c5.63-.08,11.25-.16,16.88-.25,1.35-.02,2.5-1.13,2.5-2.5s-1.14-2.52-2.5-2.5c-5.63.08-11.25.16-16.88.25-1.35.02-2.5,1.13-2.5,2.5s1.14,2.52,2.5,2.5h0Z"/>
      <path class="cls-1" d="M139.71,27.64c4.48-.21,8.97-.25,13.46-.13,1.31.04,2.56-1.18,2.5-2.5s-1.1-2.46-2.5-2.5c-4.49-.12-8.97-.08-13.46.13-1.3.06-2.56,1.11-2.5,2.5.06,1.3,1.1,2.57,2.5,2.5h0Z"/>
    </g>
  </g>
</svg>