<?xml version="1.0" encoding="UTF-8"?>
<svg id="Layer_2" data-name="Layer 2" xmlns="http://www.w3.org/2000/svg" viewBox="0 0 311.06 195.76">
  <defs>
    <style>
      .cls-1 {
        fill: #231f20;
      }
    </style>
  </defs>
  <g id="Layer_1-2" data-name="Layer 1">
    <g>
      <path class="cls-1" d="M7.87,31.79c1.29,10.96,9.16,19.91,18.92,24.58,11.8,5.64,25.18,5.56,37.96,5.21,6.76-.18,13.55-.41,20.3.24s12.95,2.44,19.22,4.5,12.17,4.22,18.45,5.67c6.72,1.55,13.63,2.22,20.52,2.5,13.9.57,27.86.31,41.77.39s28.12.09,42.18.24c4.77.05,10.6.14,14.3,3.63s4.11,9.42,4.33,14.33c.62,14.03,1.18,28.07,1.77,42.1.29,6.8.44,13.61.93,20.4.45,6.36,1.41,12.69,3.94,18.58,2.22,5.15,5.73,9.83,10.46,12.92,5.06,3.3,11.27,4.3,17.21,3.99,3.06-.16,6.12-.64,9.12-1.28s1.81-5.49-1.33-4.82c-5.59,1.19-11.56,1.8-17.14.22-5.13-1.45-9.16-4.95-11.9-9.46-2.97-4.89-4.37-10.55-5-16.2-.74-6.59-.81-13.25-1.09-19.87-.58-13.83-1.16-27.65-1.74-41.48-.24-5.61-.05-11.66-2.13-16.97s-6.56-8.93-12.22-10.2-12.22-.9-18.24-.93c-6.82-.04-13.64-.08-20.46-.11-13.97-.08-27.94-.15-41.91-.23-6.7-.04-13.4-.09-20.08-.69s-12.81-1.88-19.04-3.79-12.18-4.17-18.39-5.9-13.07-2.71-19.78-2.9c-12.78-.37-25.76,1.45-38.42-.95-10.43-1.98-20.7-7.25-25.55-17.16-1-2.03-1.69-4.29-1.96-6.55-.16-1.34-1.04-2.5-2.5-2.5-1.23,0-2.66,1.15-2.5,2.5h0Z"/>
      <path class="cls-1" d="M245.48,34.01c-6.38-1.46-13.02-1.24-19.52-1.22s-12.83.1-19.25.15c-12.98.1-25.98.03-38.91-1.22-11.49-1.1-23.59-3.62-34.86.14-9.38,3.13-15.98,10.54-23.4,16.66-3.71,3.06-7.83,5.75-12.57,6.83-1.94.44-3.89.93-5.86,1.23-.48.07.61-.06-.25.03-.28.03-.56.06-.83.08-.57.05-1.14.08-1.71.09-1.56.05-3.12-.01-4.67-.09-3.22-.17-3.21,4.83,0,5,8.58.46,17.58-1.24,24.78-6.13,7.59-5.15,13.46-12.62,21.57-17.03,9.98-5.43,21.93-3.6,32.71-2.37,12.73,1.46,25.51,1.82,38.31,1.79,7.24-.02,14.48-.13,21.72-.17s14.47-.55,21.4,1.03c3.13.72,4.47-4.1,1.33-4.82h0Z"/>
      <path class="cls-1" d="M233.54,75.65c4.54.4,8.9-1.63,12.12-4.74,2.94-2.83,4.65-6.36,5.87-10.2,1.86-5.82,3.69-12.66,1.86-18.71-1.19-3.94-4.04-6.7-7.92-8-3.06-1.02-4.37,3.8-1.33,4.82,1.09.37,2.14.99,2.87,1.75.63.65,1.19,1.65,1.48,2.52.47,1.43.53,2.13.58,3.48s-.04,2.8-.23,4.18c.05-.33-.1.62-.11.69-.05.31-.11.63-.17.94-.14.7-.29,1.4-.46,2.1-.3,1.25-.65,2.5-1.03,3.73-.84,2.75-1.75,5.42-3.59,7.69-2.47,3.04-5.95,5.1-9.95,4.74-1.35-.12-2.5,1.23-2.5,2.5,0,1.45,1.15,2.38,2.5,2.5h0Z"/>
      <path class="cls-1" d="M251.9,37.83c-.28-11.81-.13-23.62.45-35.42.16-3.22-4.84-3.21-5,0-.58,11.8-.73,23.61-.45,35.42.08,3.21,5.08,3.22,5,0h0Z"/>
      <path class="cls-1" d="M250.57,57.45c4.29,1.63,8.95,1.77,13.49,1.63,4.96-.16,9.91-.48,14.87-.76,9.9-.56,19.82-1.04,29.73-.44,3.21.2,3.2-4.8,0-5-9.74-.59-19.5-.14-29.24.41-4.82.27-9.64.57-14.46.75-4.43.17-8.86.18-13.06-1.42-1.26-.48-2.74.53-3.08,1.75-.39,1.41.48,2.59,1.75,3.08h0Z"/>
      <path class="cls-1" d="M129.91,68.89c-5.76,2.4-8.83,7.72-10.45,13.53-.94,3.34-1.4,6.8-1.85,10.24-.5,3.84-.84,7.7-1.07,11.57-.93,15.87.07,31.77-.17,47.65-.09,6.31.06,13.18-2.45,19.11-2.64,6.22-8.79,8.99-14.69,11.43-13.57,5.61-28.27,7.93-42.89,8.31-18.04.47-35.99-1.91-53.83-4.27-1.34-.18-2.5,1.28-2.5,2.5,0,1.5,1.16,2.32,2.5,2.5,30.6,4.05,62.7,8.09,92.58-2.16,3.46-1.19,6.86-2.57,10.17-4.12s6.57-3.27,9.11-5.9c4.61-4.76,6.08-11.43,6.63-17.82.64-7.53.45-15.17.35-22.72-.1-7.95-.29-15.9-.18-23.84.12-8.81.59-17.67,2.07-26.37.89-5.21,2.52-12.52,8-14.81,1.25-.52,2.14-1.66,1.75-3.08-.32-1.18-1.82-2.27-3.08-1.75h0Z"/>
    </g>
  </g>
</svg>