<?xml version="1.0" encoding="UTF-8"?>
<svg id="Layer_2" data-name="Layer 2" xmlns="http://www.w3.org/2000/svg" viewBox="0 0 187.87 226.48">
  <defs>
    <style>
      .cls-1 {
        fill: #231f20;
      }
    </style>
  </defs>
  <g id="Layer_1-2" data-name="Layer 1">
    <g>
      <path class="cls-1" d="M43.33,68.99c-.1-2.75-3.26-3.56-5.1-1.77-.73.72-1.03,1.75-1.4,2.69-.43,1.08-.84,2.17-1.23,3.26-1.47,4.17-2.66,8.43-3.73,12.71-2.1,8.41-3.74,16.93-6.32,25.22-2.33,7.49-5.44,14.83-10.17,21.15-1.15,1.53-2.42,3.01-3.78,4.35-1.1,1.08-2.43,2.21-4.01,2.42-1.13.15-2.56-.24-2.62-1.47,0-.16.08-.5.1-.52.46-.39,1.28-.13,1.77.06,1.79.69,3.12,2.29,4.8,3.2,1.76.95,3.79,1.42,5.79,1.28,4.2-.3,7.87-2.57,10.46-5.83,5.01-6.31,7.11-14.69,8.9-22.39s3.2-15.62,6.77-22.71c.29-.58,1.22-2.93,1.94-2.99.4-.03.91.74,1.13,1.04.52.76.85,1.61,1.16,2.48,1.39,3.91,1.94,8,2.13,12.12.4,8.84-.35,17.61.84,26.42.51,3.81.92,8.3,3.25,11.51,2.45,3.37,6.66,4.51,10.6,3.31s6.71-4.36,8.65-7.84,3.32-7.09,4.42-10.79c2.14-7.19,2.95-14.84,2.42-22.33s-2.39-15.06-5.51-22.04c-1.52-3.39-3.36-6.64-5.5-9.67-2.34-3.31-5.03-6.53-8.64-8.52-3.36-1.85-7.33-2.71-11.16-2.37-1.87.17-3.7.53-5.44,1.22-1.83.72-3.95,1.66-4.97,3.46-1.11,1.96-.65,4.09.13,6.07.85,2.15,1.7,4.29,2.55,6.43,1.49,3.75,2.98,7.49,5.52,10.68s6.51,5.52,10.34,6.98c2.01.77,4.38.94,6.27-.22,1.64-1,2.77-2.82,2.7-4.76-.17-4.83-5.9-4.82-9.36-4.38-4.1.52-8.44,2.54-9.64,6.85-1.13,4.04,1.44,8.16,4.91,10.11,3.87,2.17,8.62,2.25,12.93,2.75,4.59.53,9.26,1.38,13.88,1.41s8.71-1.48,13.12-1.92,8.82-.25,13.14.6c1.32.26,2.7-.38,3.08-1.75.34-1.23-.41-2.81-1.75-3.08-4.21-.83-8.51-1.18-12.8-.91-2.2.14-4.4.43-6.57.85-1.94.37-3.87.89-5.84,1.1-4.24.45-8.62-.41-12.83-.91-3.96-.46-8.21-.56-12.04-1.72-2.32-.71-5.89-3.29-3.98-6.07.82-1.2,2.19-1.79,3.56-2.12,1.47-.36,3.33-.62,4.8-.4.12.02.6.14.58.17-.03.04-.18-.48-.15-.46.09.06-.33.4-.54.46-1.4.42-3.5-1.05-4.67-1.68-3.29-1.76-5.62-4-7.37-7.31s-3.01-6.98-4.4-10.49c-.36-.9-.75-1.79-1.05-2.71-.09-.3-.18-.57-.21-.88,0-.04.07-.41-.02-.19-.1.23.16-.15.23-.2,1.34-.83,2.77-1.39,4.31-1.74,3.01-.67,6.33-.36,9.15.89,3.17,1.4,5.57,4.02,7.57,6.78,8.13,11.23,11.74,25.28,10.63,39.05-.54,6.68-2.27,13.37-5.19,19.41-1.38,2.85-3.22,6.21-6.41,7.29-1.21.41-2.62.56-3.83.02-1.28-.57-2.02-1.88-2.46-3.16-1.23-3.61-1.62-7.64-1.93-11.41-.35-4.12-.33-8.25-.27-12.38.1-7.86.24-16.05-2.58-23.52-1.25-3.31-3.98-7.55-8.19-6.37-3.63,1.02-5.2,5.6-6.51,8.72-2.91,6.95-4.26,14.4-6,21.7-.86,3.62-1.82,7.22-3.12,10.71-1.19,3.21-2.68,6.6-4.99,9.17-2.1,2.33-5.32,4.18-8.54,3.2-1.65-.51-2.94-1.86-4.35-2.81-1.55-1.05-3.48-1.79-5.37-1.64-3.98.32-6.33,4.19-4.9,7.9s6.05,5.08,9.69,3.73,6.18-4.35,8.45-7.24,4.34-6.09,6.06-9.43c7.33-14.24,9.29-30.25,13.63-45.48.53-1.86,1.1-3.71,1.72-5.55.32-.95.66-1.9,1.01-2.84.19-.51.38-1.01.58-1.52.08-.21.2-.43.26-.65.29-1.09.53.46-1.11.41l-1.77-.73.11.09-.73-1.77v.18c.12,3.21,5.12,3.22,5.01,0h0Z"/>
      <path class="cls-1" d="M103.58,108.03c6.32-2.49,11.18,7.29,7.46,11.98-1.57,1.98-4.48,2.69-6.84,2.01-2.64-.76-4.63-3.15-5.41-5.72-1.17-3.85.22-7.81,2.52-10.93l-4.57-.6c1.64,8.28-1.05,16.39-3.24,24.31-2.32,8.41-4.79,16.77-7.4,25.09-.97,3.08,3.86,4.39,4.82,1.33,2.71-8.63,5.27-17.32,7.67-26.04,1.14-4.15,2.37-8.3,3.08-12.55.76-4.52.78-8.97-.11-13.47-.46-2.33-3.42-2.16-4.57-.6-2.97,4.03-4.42,9.34-3.17,14.27,1.12,4.39,4.4,8.19,8.72,9.62,4.04,1.34,9.06.12,11.92-3.07,3.43-3.83,3.36-9.39,1.37-13.88-2.24-5.07-8.07-8.76-13.59-6.58-1.26.5-2.13,1.67-1.75,3.08.33,1.2,1.81,2.24,3.08,1.75h0Z"/>
      <path class="cls-1" d="M125.49,110.15c.67-.88,1.45-1.7,2.26-2.45.25-.23.7-.81,1-.87-.52.1.41.24.5.26,1.39.42,2.61,1.3,3.54,2.41,2.48,2.96,1.78,6.6.61,9.98-.39,1.12-.94,2.65-2.17,3.05-1.69.54-3.35-.96-4.29-2.16-2.17-2.76-2.96-6.51-2.2-9.91.69-3.13-4.03-4.46-4.82-1.33-1.91,7.6-3.83,15.22-6.36,22.65-2.43,7.13-5.48,14.02-9.06,20.64-1.53,2.83,2.78,5.36,4.32,2.52,3.71-6.85,6.87-14.01,9.41-21.38s4.57-15.34,6.52-23.1l-4.82-1.33c-.97,4.35-.32,9,2.05,12.81s7.28,7.36,11.94,4.87c3.84-2.05,5.29-7.74,5.59-11.73.32-4.31-1.79-8.39-5.21-10.94-1.84-1.37-4.63-2.67-6.96-2.07-1.26.33-2.34,1.39-3.26,2.26-1.07,1.01-2,2.14-2.89,3.31-.82,1.08-.17,2.8.9,3.42,1.28.75,2.6.18,3.42-.9h0Z"/>
      <path class="cls-1" d="M152.89,67.87c-1.47.96-1.73,2.34-2.09,3.94s-.73,3.23-1.1,4.85c-.73,3.23-1.46,6.47-2.19,9.7-1.43,6.3-2.85,12.61-4.28,18.91-1.45,6.4-3.16,12.79-4.34,19.24-.55,2.98.15,5.84,2.98,7.36,2.34,1.26,5.28,1.53,7.89,1.5,5.82-.05,11.44-2.16,15.88-5.91,3.86-3.26,7.05-8.14,7.98-13.15.3-1.63.2-3.28-.78-4.67s-2.63-2.18-4.32-1.83c-2.58.54-4.65,3.35-5.98,5.45-2.73,4.29-3.96,9.75-3.86,14.8.06,2.99.75,5.99,2.7,8.33s5.09,3.37,8.1,3.49c6.41.26,12.85-2.61,17.68-6.65,1.04-.87.9-2.64,0-3.54-1.03-1.03-2.5-.87-3.54,0-4.45,3.73-18.05,9.65-19.77.32-.68-3.67.15-8.01,1.55-11.43.72-1.76,1.74-3.45,3.05-4.83.18-.19.88-.67.96-.93.11-.35-.78-.23-.67-.37-.03.04,0,.84-.02.99-.12.58-.32,1.17-.51,1.73-2.71,7.96-10.5,13.28-18.86,13.2-1.5-.02-4.18.04-5.38-1.08-.42-.39-.33-.9-.25-1.46.2-1.33.59-2.66.89-3.97,1.19-5.25,2.38-10.51,3.57-15.76,1.32-5.82,2.63-11.64,3.95-17.46.68-2.99,1.35-5.98,2.03-8.97.33-1.45.66-2.91.99-4.36.25-1.09.42-3.14.94-3.87l-.9.9.24-.16c2.69-1.75.18-6.08-2.52-4.32h0Z"/>
      <g>
        <path class="cls-1" d="M34.41,6.62c-1.05,7.31-2.11,14.64-3.83,21.82-.88,3.66-1.93,7.28-3.23,10.81-1.18,3.21-2.72,6.6-1.78,10.09.83,3.07,3.58,5.8,6.94,5.54,3.06-.24,5.13-2.63,6.28-5.29,1.42-3.29,2.05-6.98,2.67-10.49.66-3.7,1.14-7.43,1.57-11.16.87-7.5,2.69-17-3.74-22.68-2.4-2.12-5.95,1.4-3.54,3.54,4.54,4.01,3.18,10.96,2.6,16.27-.71,6.48-1.52,12.96-3.12,19.29-.43,1.69-.96,4.47-2.56,5.37-.47.26-.86.26-1.38-.19-.68-.58-.96-1.46-1.01-2.32-.08-1.4.45-2.8.92-4.09.58-1.59,1.21-3.17,1.75-4.78,1-2.97,1.84-5.99,2.55-9.05,1.66-7.04,2.69-14.21,3.72-21.37.19-1.33-.33-2.69-1.75-3.08-1.17-.32-2.88.4-3.08,1.75h0Z"/>
        <path class="cls-1" d="M26.52,5.01l30.22,3.86c1.34.17,2.5-1.27,2.5-2.5,0-1.49-1.15-2.33-2.5-2.5L26.52.01c-1.34-.17-2.5,1.27-2.5,2.5,0,1.49,1.15,2.33,2.5,2.5h0Z"/>
        <path class="cls-1" d="M52.85,24.33c-2,1.09-2.91,3.09-3.63,5.15-.77,2.21-1.48,4.44-2.17,6.67-1.43,4.62-2.74,9.27-3.93,13.96-.79,3.12,4.03,4.45,4.82,1.33,1.07-4.23,2.24-8.44,3.51-12.62.64-2.09,1.3-4.17,1.99-6.24.4-1.2.71-3.27,1.92-3.93,2.82-1.55.3-5.87-2.52-4.32h0Z"/>
        <path class="cls-1" d="M60.79,24.77c-2.29,4.03-3.44,8.27-4.28,12.79-.79,4.28-2.08,8.21-4.42,11.91-1.72,2.73,2.6,5.24,4.32,2.52,2.35-3.73,3.9-7.84,4.74-12.16s1.7-8.58,3.95-12.53c1.6-2.8-2.72-5.32-4.32-2.52h0Z"/>
        <path class="cls-1" d="M45.27,42.31c2.58,1.71,5.48,3,8.47,3.78s6.77,1.44,9.82.07c1.2-.54,1.57-2.37.9-3.42-.8-1.24-2.14-1.47-3.42-.9.29-.13-.53.12-.65.13.4-.05-.43,0-.52,0-.67,0-1.34-.06-2.01-.14-.86-.1.45.08-.41-.06-.36-.06-.71-.12-1.07-.19-.62-.13-1.23-.27-1.84-.45-2.51-.71-4.49-1.63-6.76-3.13-1.09-.72-2.81-.25-3.42.9-.66,1.25-.27,2.65.9,3.42h0Z"/>
        <path class="cls-1" d="M75.06,30.2c-2.45-1.3-4.05.73-5.37,2.49-.99,1.32-1.85,2.74-2.58,4.22-1.54,3.17-2.48,6.52-2.82,10.02-.21,2.09-.14,4.59,2.3,5.31.96.28,2,.03,2.96-.14.76-.13,1.51-.27,2.25-.49,1.69-.5,3.38-1.33,4.57-2.67s1.94-2.98,2.37-4.71c1.06-4.28.98-8.84.36-13.18-.19-1.34-1.89-2.07-3.08-1.75-1.44.4-1.94,1.73-1.75,3.08.47,3.33.45,6.95-.3,10.24-.08.37-.18.73-.29,1.09-.13.42-.13.43-.26.7-.36.72-.52,1-1.09,1.48-.2.17-1.04.62-1.33.71-.73.24-1.47.42-2.22.57-.33.06-.84.05-1.13.19.73-.1,1.24.38,1.53,1.46,0-.18,0-.37.01-.55.03-.7.1-1.52.17-2.02.24-1.58.63-3.14,1.16-4.65.48-1.37,1.1-2.68,1.89-4.02.41-.69.85-1.36,1.32-2.01.21-.29.34-.45.53-.68.13-.15.26-.31.39-.46-.22.12-.21.12.04,0l-1.26.34h.19c-.42-.12-.84-.24-1.26-.35l.17.09c1.19.63,2.72.3,3.42-.9.66-1.13.3-2.79-.9-3.42h0Z"/>
        <path class="cls-1" d="M82.68,36.66c-.55,6.62-2.38,13.04-4.18,19.4l4.82,1.33c1.11-4.82,2.35-9.61,3.73-14.36,1.31-4.49,2.58-9.06,4.88-13.16h-4.32c.88,1.23.47,3.48.35,4.91-.15,1.68-.54,3.34-1.06,4.95s-1.35,3.14-2.06,4.72c-.81,1.81-1.57,4.23.64,5.4,1.71.9,3.66-.16,5.38-.48,1.22-.23,1.6.6,1.77,1.75.24,1.72-.04,3.47.24,5.2s1.04,3.32,2.37,4.38c1.05.84,2.51,1.03,3.54,0,.87-.87,1.06-2.69,0-3.54-1.24-.99-1.1-2.55-1.1-4.01,0-1.93-.09-3.88-1.03-5.63-.87-1.63-2.38-2.83-4.22-3.13-1.11-.18-2.21-.03-3.29.25-.78.2-1.58.58-2.39.55l1.26.34-.21-.11,1.15,1.49-.08-.25v1.33c.25-1.5,1.24-2.89,1.84-4.27.76-1.76,1.37-3.56,1.75-5.44s.59-3.65.61-5.48-.02-3.89-1.13-5.45c-1.05-1.47-3.33-1.76-4.32,0-2.43,4.34-3.86,9.14-5.25,13.89s-2.72,9.84-3.87,14.82c-.72,3.13,3.94,4.44,4.82,1.33,1.93-6.81,3.77-13.65,4.36-20.73.11-1.35-1.23-2.5-2.5-2.5-1.45,0-2.39,1.15-2.5,2.5h0Z"/>
        <path class="cls-1" d="M100.61,57.12c1.93-7.98,2.15-16.79,6.85-23.81l-4.57-.6c.51,3.04.68,6.14.56,9.23-.13,3.25-.79,6.4-1.17,9.62-.34,2.84-.52,6.57,1.33,8.97s4.94,2.3,7.66,1.88c1.34-.21,2.07-1.88,1.75-3.08-.39-1.42-1.74-1.95-3.08-1.75-.62.1-1.68.33-2.25-.02-.38-.23-.45-1.1-.52-1.58-.36-2.65.27-5.37.67-7.98.85-5.56.81-11.08-.12-16.63-.38-2.29-3.49-2.21-4.57-.6-4.97,7.44-5.31,16.56-7.35,25-.76,3.13,4.06,4.46,4.82,1.33h0Z"/>
        <path class="cls-1" d="M113,61.96c1.52-.25,2.89-1.02,4.24-1.74s2.69-1.49,3.92-2.42c2.41-1.82,4.11-4.13,5.17-6.96s1.55-6.11.93-9.02c-.31-1.47-1.02-3.28-2.62-3.72-1.76-.48-3.12.71-4.15,1.96-1.82,2.21-3,4.82-3.75,7.57s-1.43,5.98-1.29,8.9,1.29,6.26,3.68,8.21c2.26,1.84,5.55,2.04,8.35,1.79,6.23-.56,11.81-3.75,15.45-8.83.79-1.1.19-2.78-.9-3.42-1.26-.74-2.63-.2-3.42.9-1.77,2.47-4.42,4.42-7.28,5.44-1.42.51-2.9.86-4.41.95-1.37.08-3.3.21-4.5-.58s-1.84-2.83-1.96-4.23c-.16-1.82.21-3.7.56-5.47.33-1.67.74-3.38,1.42-4.95.49-1.14,1.46-3.19,2.52-3.69l-1.26.34.28.02-1.77-.73c-.08-.18-.07-.16.02.06.09.27.16.54.22.81.06.34.07.68.07,1.03,0,.88-.08,1.77-.25,2.63-.32,1.64-.85,3.19-1.75,4.6s-2.22,2.4-3.6,3.26c-1.58.98-3.38,2.18-5.23,2.48-1.33.22-2.08,1.87-1.75,3.08.39,1.42,1.74,1.96,3.08,1.75h0Z"/>
      </g>
      <path class="cls-1" d="M120.04,158.3c3.91.84,7.86-.19,11.63-1.26,3.21-.9,6.55-2.22,8.88-4.7s3.55-5.62,3.06-8.88c-.23-1.57-.9-3.42-2.37-4.24-2.12-1.19-4.17.21-5.84,1.47-2.86,2.14-5.69,4.58-7.65,7.6s-2.38,6.82-2.28,10.45c.2,7.53.02,14.88-1.48,22.3-.73,3.64-1.7,7.23-2.9,10.75-1.1,3.23-2.3,6.51-4.15,9.4-1.61,2.52-3.93,4.66-6.93,5.29-.66.14-1.35.18-2.02.11-.3-.03-.57-.11-.86-.17-.52-.11-.43-.28-.29-.07-.58-.88-.1-2.45.34-3.27.59-1.09,1.63-1.68,2.75-2.13,1.8-.73,3.71-1.33,5.58-1.85,3.25-.91,6.65-1.37,9.85-.03,2.73,1.15,5.07,3.07,7.72,4.36,3.09,1.51,6.44,2.18,9.82,1.18,7.96-2.37,11.88-10.99,14.59-18.12,2.97-7.81,4.39-16.22,4.25-24.56h-5c.2,9.42.23,18.84.08,28.25-.04,2.76,4.33,3.47,4.91.66,1.16-5.63,2.32-11.26,3.48-16.88l1.71-8.32.86-4.16c.21-1.03.25-2.67.84-3.45l-.9.9h-.1c-.81-.2-1.62-.42-2.43-.63,4.53,3.95,4.92,10.27,5.07,15.88.08,3.12-.19,6.73.93,9.7s4.33,5.52,7.63,4.24c1.26-.49,2.13-1.68,1.75-3.08-.33-1.2-1.81-2.24-3.08-1.75-2.73,1.06-2.22-8.7-2.26-10.07-.14-4.53-.62-9.03-2.57-13.18-.87-1.86-2.11-3.65-3.65-5.02-2.39-2.13-4.92-.21-5.5,2.45-1.08,4.96-2.05,9.95-3.08,14.93-1.18,5.71-2.35,11.42-3.53,17.13l4.91.66c.15-9.42.12-18.84-.08-28.25-.07-3.21-5.06-3.23-5,0,.12,7.19-.98,14.3-3.3,21.11-1.09,3.19-2.43,6.3-4.07,9.24s-3.53,5.53-6.5,7.01c-5.61,2.79-10.43-2.54-15.24-4.64-3.48-1.52-7.07-1.68-10.78-1-3.37.62-6.97,1.72-10.04,3.24s-5.02,4.56-5.18,7.98c-.06,1.45.25,3.09,1.07,4.3,1.11,1.64,3.03,2.18,4.89,2.38,7.13.77,12.59-5.1,15.37-10.99,3.1-6.58,5.14-13.76,6.35-20.92.6-3.58,1.02-7.19,1.2-10.81s-.04-7.3-.07-10.97c-.01-1.81.06-3.66.73-5.37.62-1.58,1.75-2.87,2.91-4.06,1.3-1.33,2.7-2.58,4.2-3.67.31-.23.84-.47,1.09-.77.74-.34.43-.53-.91-.57.06.12.1.25.13.38.04.62.2,1.1.09,1.75-.49,3.04-3.28,4.95-5.98,5.94-1.7.62-3.47,1.07-5.23,1.49-1.99.48-4.06.96-6.11.52-3.14-.67-4.48,4.15-1.33,4.82h0Z"/>
      <g>
        <path class="cls-1" d="M44.49,187.64c-1.18-2.29-4.01-2.29-6.06-1.32-1.89.9-3.55,2.37-4.85,4-3.1,3.88-4.41,8.67-5.16,13.5-.43,2.72-.68,5.44-.01,8.15.57,2.28,1.72,4.43,2.91,6.45s2.67,3.94,4.66,5.31c1.8,1.24,4,1.94,6.14,2.29,2.4.4,4.88.66,7.3.27,1.13-.18,2.25-.56,3.2-1.22.51-.35.91-.71,1.29-1.18.21-.25.4-.51.57-.78l.16-.29c.32-.48.2-.42-.36.16h-1.33c.5.15,1.01.7,1.47.97.65.37,1.37.72,2.09.93,1.72.51,3.43.28,5-.54,2.46-1.29,4.69-3.35,6.44-5.49,3.78-4.62,6.02-10.2,7.07-16.05.58-3.24.9-6.55.97-9.84s-.96-6.15-3-8.75c-3.36-4.29-8.6-6.74-13.98-7.16-3.38-.26-6.49.63-8.68,3.31-.87,1.07-1.57,2.33-2.59,3.28-1.08,1-2.53,1.34-3.91,1.72-3.1.85-1.78,5.68,1.33,4.82,2.23-.61,4.42-1.37,6.12-3.01,1.29-1.25,2.1-2.91,3.38-4.17s3.42-1.11,5.09-.88,3.44.8,4.97,1.61c3.3,1.76,6.29,4.85,6.27,8.78-.03,4.66-.6,9.41-1.98,13.88-1.18,3.83-3.11,7.49-5.91,10.39-.65.67-1.34,1.32-2.08,1.9-.65.5-1.55,1.31-2.37,1.46-.74.14-1.47-.35-2.07-.73-1.16-.72-2.18-1.56-3.64-1.25-1.25.26-1.97,1.09-2.62,2.14-.33.53-.6.77-1.23.97-1.6.49-3.54.22-5.17,0-1.88-.25-3.86-.72-5.41-1.86s-2.55-2.92-3.47-4.59c-1.23-2.23-2.12-4.41-2.04-7s.64-5.34,1.34-7.88c.62-2.22,1.49-4.4,2.91-6.24.64-.83,1.42-1.62,2.27-2.22.42-.3.87-.52,1.31-.78-.17.1.28-.09.26-.05-.15.34-1.63-1.9-.9-.49,1.47,2.86,5.79.33,4.32-2.52h0Z"/>
        <path class="cls-1" d="M48.6,186.38c.43-3.92.59-7.99,1.46-11.83.76-3.33,2.34-6.39,4.64-8.91,2.17-2.37-1.36-5.92-3.54-3.54-2.78,3.05-4.85,6.73-5.84,10.75-1.08,4.38-1.24,9.06-1.73,13.53-.15,1.34,1.25,2.5,2.5,2.5,1.47,0,2.35-1.15,2.5-2.5h0Z"/>
        <path class="cls-1" d="M47.42,183.86c.3-3.81-.04-7.67-.98-11.37-.86-3.38-2.23-7.65-5.32-9.65-3.63-2.35-7.5.94-8.79,4.29s-.45,7.04,1.14,10.13c1.94,3.77,4.85,7.2,7.68,10.32.91,1,2.61.92,3.54,0,1-1,.91-2.53,0-3.54-2.49-2.75-4.97-5.71-6.73-9-1.23-2.29-2.01-5.44-.23-7.42.2-.23.37-.29.58-.47-.02.01.44-.08.09-.11.14.01.61.56.86.91,1.02,1.4,1.58,3.12,2.06,4.76,1.07,3.64,1.4,7.38,1.1,11.16-.11,1.35,1.23,2.5,2.5,2.5,1.44,0,2.39-1.15,2.5-2.5h0Z"/>
        <path class="cls-1" d="M51.5,182.13c1.53-4.07,3.43-7.94,6.43-11.14,2.79-2.98,6.11-5.5,9.45-7.84.21-.15.42-.32.65-.42.42-.19.06-.05,0-.05.21.02.8.45,1.04.61.78.51,1.33,1.3,2.07,1.82.68.47.72-1.81,0-1.37-.16.1-.32.32-.46.45-.36.35-.72.69-1.09,1.02-.82.74-1.66,1.46-2.54,2.13-3.32,2.54-6.99,4.63-10.74,6.45-4.24,2.06-8.96,3.48-12.42,6.82-2.32,2.24,1.22,5.77,3.54,3.54,1.7-1.64,3.87-2.65,6.01-3.59,2.27-1,4.53-1.99,6.74-3.12,4.52-2.3,8.83-5.04,12.63-8.4,1.9-1.69,4.38-3.83,2.61-6.56-1.3-1.99-3.94-4.14-6.29-4.68-2.75-.63-4.97,1.52-7,3.03s-4.07,3.09-5.93,4.83c-4.54,4.24-7.34,9.37-9.51,15.13-.48,1.26.53,2.74,1.75,3.08,1.4.39,2.6-.48,3.08-1.75h0Z"/>
      </g>
    </g>
  </g>
</svg>