<?xml version="1.0" encoding="UTF-8"?>
<svg id="Layer_2" data-name="Layer 2" xmlns="http://www.w3.org/2000/svg" viewBox="0 0 223.75 322.41">
  <defs>
    <style>
      .cls-1 {
        fill: #231f20;
      }
    </style>
  </defs>
  <g id="Layer_1-2" data-name="Layer 1">
    <g>
      <path class="cls-1" d="M75.1,133.22c3.3-2.72,6.62-5.43,9.95-8.11s6.46-5.41,9.88-7.79c1.21-.84,2.51-1.59,4.02-1.25s2.9,1.52,4.03,2.6c2.81,2.69,5.36,5.7,7.76,8.75,2.77,3.52,5.27,7.26,7.55,11.11.83,1.41,2.77,1.62,3.93.51,6.78-6.51,11.59-14.98,13.67-24.15l-4.91-.66c.57,8.26,1.15,16.58.25,24.84-.83,7.6-3.06,14.99-4.96,22.37-1.93,7.45-3.62,15.08-3.56,22.82,0,1.37.25,2.88-.88,3.86s-2.56,1.67-3.56,2.87-1.72,2.71-2.77,3.91c-.97,1.12-2.28,1.81-3.69,2.21-6.44,1.85-13.91-.47-19.74-3.25-6.8-3.24-13.15-7.63-19.02-12.32-2.94-2.35-6.02-4.77-8.49-7.62-2.24-2.58-3.09-5.81-3.39-9.15-.73-8.11-.3-16.36.37-24.46.63-7.64,1.4-15.32,2.64-22.89,1.15-7.06,2.79-14.18,5.84-20.68.76-1.62,1.6-3.2,2.52-4.74l-4.66-1.26c-.46,15.39-.09,30.79,1.13,46.14.11,1.35,1.07,2.5,2.5,2.5,1.27,0,2.61-1.15,2.5-2.5-1.22-15.35-1.59-30.75-1.13-46.14.08-2.52-3.42-3.34-4.66-1.26-8.13,13.64-9.64,29.98-11.19,45.45-.86,8.63-1.44,17.32-1.09,26,.16,3.98.42,8.05,2,11.75s4.38,6.29,7.29,8.83c6.19,5.4,12.88,10.39,20.03,14.45,6.76,3.84,14.32,6.81,22.2,6.74,3.6-.03,7.33-.76,10.22-3.01,1.49-1.16,2.48-2.68,3.5-4.25.85-1.3,1.88-2.01,3.11-2.92,1.61-1.19,2.86-2.67,3.22-4.7s.15-4.02.23-6.03c.16-3.94.77-7.82,1.59-11.67,1.68-7.91,4.19-15.62,5.75-23.55,1.69-8.58,1.81-17.21,1.32-25.92-.12-2.13-.27-4.27-.42-6.4-.18-2.67-4.25-3.57-4.91-.66-1.9,8.38-6.18,15.99-12.38,21.95l3.93.51c-4.43-7.51-9.78-14.83-16.09-20.87-2.98-2.86-6.99-5.21-11.21-3.66-2.14.79-3.87,2.23-5.64,3.62s-3.68,2.9-5.51,4.36c-4.23,3.37-8.43,6.78-12.6,10.22-1.04.86-.89,2.64,0,3.54,1.03,1.03,2.49.86,3.54,0h0Z"/>
      <path class="cls-1" d="M90.56,116.53l-.5,2.46h4.82c-.33-1.79-.66-3.58-1-5.37l-3.67,2.82,3.9,2.65c1.23.83,3.44.06,3.67-1.49.29-1.93.82-3.79,1.58-5.6l-4.18,1.1c.68.53,1.09,1.02,1.31,1.85.67,2.55,4,2.18,4.82,0-.02.06.37-.91.4-.82.09.37-1.37-.07-.47.31l-1.1-.64c-.19-.15-.02-.74-.07-.01-.03.43.02.9.03,1.34.02.89.04,1.78.06,2.67.05,2.24,2.66,3.2,4.27,1.77,2.09-1.86,4.18-3.72,6.26-5.58l-4.18-2.43c-.95,2.83-2.06,5.59-3.36,8.28-1.09,2.28,1.12,4.56,3.42,3.42,1.23-.61,2.37-1.32,3.45-2.16l-3.67-2.82c-.62,2.34-1.25,4.68-1.87,7.03-.69,2.6,2.33,3.91,4.18,2.43,1.98-1.58,3.63-3.5,4.97-5.66l-4.32-2.52c-1.63,3.3-3.27,6.61-4.9,9.91l4.57,1.93c1.07-3.42-1.35-6.17-3.97-7.96-1.04-.71-1.98-1.37-2.77-2.36-.92-1.15-1.69-2.43-2.72-3.49s-2.43-2.03-4-2.19c-1.89-.2-2.93.79-4.31,1.85-1.58,1.21-4.17,1.28-5.39-.49-.64-.92-1.7-1.46-2.82-1.15-.99.27-1.94,1.33-1.84,2.41.57,6.08-.45,12.18-3.16,17.67h4.32c-1-1.53-1.68-3.26-1.79-5.1-.05-.84-.04-1.69.09-2.52.1-.62.36-2.01.71-2.29l-1.1.64.28-.06h-1.33l.3.1-1.1-.64c1.21,1.07,2.01,3.45,2.54,5,.4,1.17,1.47,1.98,2.74,1.79s2.01-1.18,2.17-2.46c.2-1.56.4-3.11.6-4.67.09-.7.17-1.4.27-2.1.03-.25.1-.51.12-.76l.09-.35c-.46.62-1,.83-1.64.63l-.9-.9-.05-.16c.26,1.06,1.33,1.84,2.41,1.84,1.19,0,1.99-.8,2.41-1.84.46-1.12.91-2.25,1.37-3.37l-4.18,1.1c1.07,1.26,2.14,2.53,3.21,3.79s3.11.73,3.93-.51c.63-.95,1.26-1.91,1.89-2.86l-4.57-.6c.79,2.4,1.57,4.8,2.36,7.2.6,1.82,3.66,2.72,4.57.6,1.09-2.52,2.12-5.06,3.1-7.63l-4.18,1.1c1.91,1.81,2.72,4.18,2.47,6.78-.27,2.81,4.28,3.38,4.91.66.82-3.5,1.65-7.25,4.44-9.74l-4.27-1.77c.31,4.26.38,8.54.21,12.81-.05,1.23.99,2.31,2.17,2.46,1.32.16,2.26-.6,2.74-1.79,1.21-3,2.42-6.01,3.63-9.01l-4.57.6c1.44,3.36-.49,7.54-1.77,10.63-.83,2,1.97,4,3.67,2.82,2.49-1.72,4.56-3.85,6.14-6.44l-4.66-1.26c-.2,2.06.01,4.12.58,6.11s2.75,2.25,4.18,1.1c1.81-1.45,3.62-2.9,5.43-4.36h-3.54c-.22-.23,0-.12-.17.16-.35.59-.7,1.15-1.08,1.72-1.07,1.6-1.54,3.17-1.24,5.09.21,1.34,1.88,2.07,3.08,1.75,1.42-.39,1.95-1.74,1.75-3.08-.01.3.02.23.11-.21.09-.17.19-.33.29-.5.22-.36.46-.7.7-1.05.48-.71.89-1.44,1.16-2.27.6-1.83.33-3.77-1.05-5.16-1.03-1.04-2.48-.84-3.54,0-1.81,1.45-3.62,2.9-5.43,4.36l4.18,1.1c-.45-1.6-.56-3.13-.4-4.78.26-2.59-3.46-3.23-4.66-1.26-1.12,1.83-2.58,3.42-4.35,4.65l3.67,2.82c1.95-4.71,3.37-9.59,1.27-14.49-.38-.89-1.62-1.32-2.49-1.19-1.06.16-1.69.83-2.08,1.79l-3.63,9.01,4.91.66c.16-4.27.09-8.54-.21-12.81-.16-2.2-2.6-3.25-4.27-1.77-3.44,3.06-4.72,7.61-5.73,11.94l4.91.66c.36-3.82-1.16-7.68-3.93-10.31-1.45-1.38-3.52-.64-4.18,1.1-.82,2.16-1.68,4.31-2.59,6.44l4.57.6c-.79-2.4-1.57-4.8-2.36-7.2-.69-2.09-3.37-2.42-4.57-.6-.63.95-1.26,1.91-1.89,2.86l3.93-.51c-1.07-1.26-2.14-2.53-3.21-3.79-1.35-1.59-3.54-.46-4.18,1.1-.46,1.12-.91,2.25-1.37,3.37h4.82c-.38-1.51-1.78-2.53-3.33-2.55-1.76-.02-3.1,1.21-3.66,2.81-.49,1.39-.51,3.02-.7,4.47-.21,1.63-.42,3.27-.63,4.9l4.91-.66c-.79-2.3-1.8-4.86-3.39-6.74-.93-1.1-2.38-1.63-3.75-1.02-1.29.57-1.85,1.82-2.29,3.08-1.55,4.39-.83,9.52,1.7,13.4.95,1.47,3.44,1.78,4.32,0,3.09-6.25,4.49-13.23,3.84-20.19l-4.66,1.26c1.62,2.35,4.12,3.76,7,3.86,1.43.05,2.86-.33,4.15-.94.66-.31,1.24-.72,1.8-1.18.23-.19.53-.38.71-.62.05-.07.11-.12.18-.15.2-.09.04-.07-.45.06.02-.12,1.07.78,1.09.8.38.39.72.81,1.04,1.25.77,1.03,1.49,2.12,2.39,3.04,1.01,1.03,2.25,1.74,3.41,2.58.65.48,1.62,1.19,1.34,2.08-.84,2.66,3.3,4.49,4.57,1.93,1.63-3.3,3.27-6.61,4.9-9.91,1.42-2.87-2.6-5.28-4.32-2.52-1.12,1.8-2.53,3.32-4.18,4.64l4.18,2.43c.62-2.34,1.25-4.68,1.87-7.03.51-1.9-1.85-4.23-3.67-2.82-1.08.84-2.23,1.55-3.45,2.16l3.42,3.42c1.48-3.08,2.77-6.24,3.86-9.48.85-2.52-2.44-3.98-4.18-2.43-2.09,1.86-4.18,3.72-6.26,5.58l4.27,1.77c-.05-2.51.59-6.41-1.99-7.92-1.24-.72-2.88-.63-4.1.07-1.39.8-2.04,2.25-2.57,3.68h4.82c-.42-1.59-1.29-3.05-2.59-4.06-1.59-1.24-3.4-.74-4.18,1.1s-1.28,3.66-1.58,5.6l3.67-1.49-3.9-2.65c-1.97-1.34-4.04.86-3.67,2.82.33,1.79.66,3.58,1,5.37.45,2.4,4.35,2.37,4.82,0l.5-2.46c.27-1.32-.38-2.7-1.75-3.08-1.23-.34-2.81.42-3.08,1.75h0Z"/>
      <path class="cls-1" d="M82.91,154.12c.07-.03.23-.05.29-.1-.4.04-.5.05-.3.05.14,0,.1,0-.11-.03-.41-.08-.05,0,.04.02.39.11.07.07-.08-.06.15.13.41.21.58.31.22.13.43.26.64.4.94.59,1.98,1.07,3.07,1.26,2.33.4,4.83.05,6.78-1.37.54-.39.96-.83,1.15-1.49.16-.6.09-1.4-.25-1.93-.67-1.05-2.29-1.72-3.42-.9-.19.14-.39.27-.59.39-.09.05-.18.1-.28.15-.07.04-.41.18-.06.04.39-.16-.09.03-.14.04-.1.03-.2.06-.3.09-.2.06-.41.1-.61.14-.45.09.44-.03.12-.01-.1,0-.21.02-.31.02-.21,0-.42,0-.63,0-.09,0-.31-.07-.39-.03.08-.04.56.1.2.02-.23-.05-.46-.1-.69-.17-.1-.03-.2-.07-.3-.1-.3-.08.44.22.16.07-.21-.11-.42-.21-.63-.33-.41-.24-.8-.51-1.21-.74-1.21-.66-2.71-1.1-4.05-.57-.63.25-1.14.55-1.49,1.15-.31.54-.45,1.33-.25,1.93.38,1.18,1.77,2.26,3.08,1.75h0Z"/>
      <path class="cls-1" d="M105.83,154.75l-.73-.19c.19.13.21.14.06.03-.24-.21.07.09.11.13.21.2.41.39.63.58.55.46,1.12.91,1.72,1.3,1.08.7,2.29,1.24,3.51,1.63,2.49.8,5.17.87,7.71.3,1.28-.28,2.15-1.84,1.75-3.08-.43-1.34-1.71-2.05-3.08-1.75-.28.06-.56.11-.84.16-.35.06.46-.03.1-.02-.13,0-.25.02-.38.03-.57.04-1.14.04-1.71,0-.13,0-.25-.03-.38-.03-.36-.02.61.11,0,0-.25-.04-.5-.09-.75-.14-.56-.12-1.11-.29-1.64-.49-.08-.03-.3-.07-.35-.14.08.09.38.18.07.02-.26-.13-.51-.25-.76-.39s-.49-.28-.73-.44c-.13-.08-.57-.29-.62-.43l.2.16c-.07-.06-.15-.12-.22-.18-.1-.08-.19-.16-.29-.25-.22-.19-.41-.4-.63-.59-.84-.74-1.64-1.11-2.76-1.24-1.3-.15-2.56,1.26-2.5,2.5.07,1.48,1.1,2.34,2.5,2.5h0Z"/>
      <path class="cls-1" d="M75.56,171.82c.31.11.07-.03-.08-.04.13.01.3.15.41.21.22.12.43.25.63.39.05.04.38.23.38.27,0-.06-.37-.3-.06-.05.19.16.39.32.57.48.89.77,1.77,1.54,2.69,2.27,2,1.58,4.09,3.02,6.3,4.29,1.13.65,2.79.3,3.42-.9s.31-2.73-.9-3.42c-1.06-.61-2.09-1.25-3.1-1.93-.52-.35-1.03-.71-1.53-1.08-.11-.08-.22-.17-.33-.25-.18-.13-.35-.27-.07-.05-.25-.19-.49-.39-.74-.58-2.01-1.63-3.78-3.51-6.26-4.42-1.23-.45-2.79.5-3.08,1.75-.32,1.41.43,2.59,1.75,3.08h0Z"/>
      <path class="cls-1" d="M81.47,154.94c.19,3.31,1.53,6.9,4.33,8.87,1.54,1.08,3.78,1.25,5.36.15,1.48-1.04,2.33-2.64,2.71-4.37.41-1.86.39-3.74.31-5.63-.06-1.3-1.11-2.56-2.5-2.5-1.31.06-2.56,1.1-2.5,2.5s.11,2.77-.07,4.14l.09-.66c-.1.71-.26,1.42-.53,2.09l.25-.6c-.08.19-.17.37-.27.55-.05.09-.1.17-.16.26-.13.19-.31.25.14-.17-.1.1-.53.49-.16.21s.06-.05-.03,0c-.1.06-.2.11-.31.15l.6-.25c-.15.05-.3.09-.46.12l.66-.09c-.21.02-.41.02-.62,0l.66.09c-.21-.04-.4-.09-.59-.17l.6.25c-.15-.07-.3-.14-.45-.23-.02-.01-.22-.13-.21-.14s.47.4.2.15c-.13-.12-.26-.24-.38-.37-.06-.06-.12-.13-.18-.2-.28-.31.27.39.11.15-.44-.63-.82-1.29-1.12-2l.25.6c-.36-.87-.61-1.77-.74-2.7l.09.66c-.04-.28-.06-.56-.08-.84-.07-1.3-1.1-2.56-2.5-2.5-1.29.06-2.58,1.1-2.5,2.5h0Z"/>
      <path class="cls-1" d="M106.46,154.94c.18,1.45.03,2.92.19,4.37.19,1.74.68,3.3,1.8,4.67.58.71,1.38,1.29,2.27,1.53,1.34.37,2.53-.21,3.54-1.06,1.14-.95,2.2-2.01,3.02-3.26,1.09-1.65,1.54-3.77,1.02-5.7-.34-1.26-1.8-2.16-3.08-1.75s-2.11,1.72-1.75,3.08c.05.18.08.35.11.53l-.09-.66c.03.32.03.63,0,.95l.09-.66c-.06.46-.18.89-.36,1.32l.25-.6c-.18.41-.39.79-.64,1.15-.11.15-.35.37.09-.11-.06.07-.12.15-.18.22-.15.18-.31.35-.48.52-.3.31-.61.6-.93.88-.18.16-.35.32-.53.47-.06.05-.13.11-.19.16.48-.44.3-.23.09-.12l.6-.25c-.07.03-.15.06-.23.07l.66-.09c-.08.02-.16.02-.24.01l.66.09c-.13-.02-.23-.05-.35-.1l.6.25c-.07-.04-.14-.1-.22-.12.41.16.38.31.17.11-.19-.18-.46-.64-.06,0-.2-.32-.39-.62-.54-.97l.25.6c-.22-.55-.35-1.12-.43-1.71l.09.66c-.18-1.49-.02-3-.21-4.5-.09-.69-.22-1.26-.73-1.77-.43-.43-1.15-.76-1.77-.73s-1.32.24-1.77.73c-.42.45-.81,1.13-.73,1.77h0Z"/>
      <path class="cls-1" d="M91.77,96.31c2.07-4.31,3.35-8.82,3.91-13.56.15-1.3-1.26-2.56-2.5-2.5-1.49.07-2.34,1.1-2.5,2.5-.02.15-.04.3-.05.45.04-.29.04-.29,0,0-.03.22-.07.45-.1.67-.08.52-.18,1.04-.29,1.55-.2.99-.45,1.98-.73,2.96s-.6,1.94-.96,2.89c-.08.21-.16.42-.25.63-.06.14-.11.28-.17.42.11-.25.1-.24-.01.03-.21.48-.43.96-.66,1.44-.57,1.18-.36,2.75.9,3.42,1.12.59,2.82.36,3.42-.9h0Z"/>
      <path class="cls-1" d="M41.89,15.32l3.01-5.85,1.43-2.79.79-1.53c.12-.23.25-.46.36-.7.18-.4-.04.11-.21.19l-1.26.34-.32-.05-1.1-.64c-.29-.63-.38-.78-.28-.45.04.12.07.24.11.37.07.25.14.49.21.74.12.41.24.81.4,1.21.46,1.17,1.06,2.45,2.21,3.07.89.48,2.03.45,2.88-.11.57-.37.93-.89,1.31-1.44.3-.43.32-.47.75-.94.32-.36.66-.7,1.02-1.02.05-.04.43-.45.5-.43-.06.08-.13.13-.22.14-.25.08-.51.08-.77,0l-.57-.31c.17.19.2.21.08.08-.16-.22.21.4.25.48.06.12.21.53.1.21.08.24.16.48.22.72s.11.49.16.74c.09.43,0-.04.03.22.19,1.97.03,3.95.16,5.92.09,1.3,1.09,2.56,2.5,2.5,1.28-.06,2.6-1.1,2.5-2.5-.25-3.59.38-7.42-1.55-10.68-1.23-2.07-3.61-3.08-5.75-1.6-.81.56-1.55,1.25-2.21,1.98-.31.34-.59.7-.87,1.06-.17.22-.35.45-.51.67l-.15.21c-.28.39-.18.31.31-.26l1.26-.34h-.19c.42.13.84.24,1.26.35.28.15.57.73.21.11-.02-.04-.24-.44-.15-.26.1.22-.13-.35-.15-.41-.05-.16-.1-.32-.15-.49-.25-.82-.4-1.72-.85-2.46-.81-1.36-2.54-1.76-3.92-1.07-.96.48-1.47,1.38-1.94,2.3l-5.23,10.18c-.6,1.16-.34,2.77.9,3.42,1.14.6,2.78.35,3.42-.9h0Z"/>
      <path class="cls-1" d="M64.94,2.04c-4.38,2.11-7.61,6.96-7.58,11.87,0,1.34.3,2.8,1.04,3.93,1,1.53,2.8,2.8,4.71,2.18,1.53-.5,2.52-1.83,3.46-3.06.76-1,1.42-2.07,1.96-3.2,1.31-2.75,2.04-5.69,2.1-8.74h-5c-.03,3.95.47,7.93,1.49,11.75.34,1.26,1.8,2.16,3.08,1.75s2.11-1.72,1.75-3.08c-.24-.9-.45-1.81-.63-2.73-.08-.42-.16-.83-.23-1.25-.04-.25-.08-.5-.12-.76l-.04-.25c.03.2.03.21,0,.03-.19-1.82-.32-3.63-.3-5.46.01-1.31-1.16-2.56-2.5-2.5s-2.48,1.1-2.5,2.5c0,.48-.03.96-.08,1.43-.01.11-.02.22-.03.33,0,.04-.06.4-.01.11s-.01.07-.02.11c-.03.18-.06.36-.1.54-.19.94-.45,1.87-.78,2.76-.05.14-.3.75-.12.33-.09.2-.18.4-.27.6-.22.47-.46.92-.73,1.37-.24.41-.5.82-.78,1.21-.06.08-.4.55-.26.37.17-.22-.06.07-.08.09-.12.14-.23.28-.36.42-.14.16-.29.33-.44.49-.07.07-.15.15-.22.22.13-.13.35-.12.01-.03.27-.07,1.38-.42,1.51.08-.01-.04-.17-.17-.2-.2-.23-.18.17.32.04.06-.05-.11-.12-.23-.19-.33-.15-.22.05.13.06.16-.05-.19-.12-.36-.16-.55-.02-.09-.03-.19-.06-.29-.07-.3.04.19.02.18-.06-.02-.03-.7-.03-.79,0-.2.02-.39.03-.59.02-.36-.08-.02-.02.08-.02-.04.04-.25.05-.29.08-.45.2-.9.34-1.33.06-.19.14-.37.2-.56.08-.27-.06.12-.07.14.04-.09.08-.18.12-.27.19-.42.41-.82.65-1.21.14-.22.28-.44.44-.66.06-.08.12-.16.18-.24-.12.16-.2.25-.02.04.33-.37.66-.73,1.02-1.06.07-.07.15-.13.22-.2.05-.04.48-.4.2-.18-.24.19.02-.01.06-.04.11-.08.21-.15.32-.22.44-.29.9-.55,1.37-.78,1.18-.57,1.59-2.35.9-3.42-.78-1.21-2.16-1.51-3.42-.9h0Z"/>
      <path class="cls-1" d="M82.63,2.04c-2.64-.57-5.31.08-7.34,1.87-1.32,1.16-1.54,2.77-.93,4.34.42,1.09.95,2.1,1.6,3.07.57.85,1.18,1.66,1.75,2.5.25.37.49.74.71,1.12.13.22.25.44.36.66.06.12.33.87.14.29-.06-.78.22-1.38.84-1.79.38-.14.44-.18.18-.11.77-.17.03-.04-.18-.04-.62,0-1.23,0-1.85,0-1.23,0-2.47,0-3.7,0-1.31,0-2.56,1.15-2.5,2.5s1.1,2.5,2.5,2.5c1.23,0,2.47,0,3.7,0,1.14,0,2.39.11,3.5-.18,1.95-.52,2.92-2.55,2.25-4.41-.37-1.03-.93-2-1.53-2.91-.53-.79-1.1-1.56-1.64-2.34-.29-.42-.56-.84-.82-1.27-.13-.22-.25-.44-.36-.66-.06-.11-.11-.22-.16-.34-.11-.25-.1-.23.03.08-.15-.21-.13-.52-.25-.73.46.86-.89,2-.11,1.25.21-.18.19-.16-.06.04.1-.07.21-.14.31-.2.11-.07.82-.52.24-.16.2-.12.49-.17.71-.23.12-.03.24-.06.37-.08-.36.04-.39.04-.11.02.25,0,.5,0,.75-.01.28.02.25.01-.11-.03.12.02.25.04.37.07,1.28.27,2.76-.38,3.08-1.75.29-1.26-.38-2.78-1.75-3.08h0Z"/>
      <path class="cls-1" d="M87.69,7.38c-.07,1.14-.17,2.27-.3,3.4-.03.26-.06.52-.09.78-.04.31-.04.35-.01.12-.02.13-.04.26-.05.39-.08.56-.17,1.13-.26,1.69-.19,1.12-.41,2.24-.65,3.35-.11.51-.23,1.02-.36,1.53-.06.26-.13.51-.19.76-.04.17-.09.34-.13.51-.08.27-.07.24.03-.1l.9-.9.32-.12h1.33l.34.14.9.9-.06-.11.25,1.93.02-.13c.18-1.29-.31-2.75-1.75-3.08-1.18-.27-2.88.36-3.08,1.75-.11.79-.12,1.4.27,2.11.34.63.97,1.06,1.64,1.29,1.29.43,2.68-.28,3.34-1.4.43-.73.57-1.66.76-2.47s.37-1.62.54-2.44c.66-3.26,1.09-6.58,1.31-9.9.09-1.31-1.21-2.56-2.5-2.5-1.43.06-2.41,1.1-2.5,2.5h0Z"/>
      <path class="cls-1" d="M81.87,9.34c5.7,1.74,11.39,3.48,17.09,5.22,2.73.83,5.59,1.57,8.32.34,2.39-1.07,4.01-3.51,3.47-6.16s-2.97-4.46-5.6-3.86c-2.48.58-4.14,3.05-5.4,5.09-2.14,3.46-4.59,9.82-.09,12.64,2.25,1.41,5.44.86,7.83.06,2.61-.87,4.71-2.45,5.63-5.11.4-1.16-.36-2.51-1.45-2.95-1.21-.49-2.39-.03-3.12,1.02-1.09,1.57-1.91,3.27-2.56,5.08l4.82,1.33c.3-2.06.79-4.07,1.5-6.03.64-1.77,1.71-3.29,2.46-4.99.29-.35.31-.42.05-.23-.12.11-.27.15-.44.11,0-.06.48.27.57.35.32.31.55.73.62,1.17.18,1.08-.71,1.96-1.77,1.97-2.3.02-3.65,3.62-1.26,4.66,3.83,1.67,6.97,4.37,9.08,7.99,1.62,2.78,5.94.27,4.32-2.52-2.5-4.3-6.31-7.79-10.87-9.79l-1.26,4.66c3.08-.03,6-2.18,6.63-5.27s-.93-6.37-3.77-7.68c-1.7-.78-3.66-.67-5.08.62-1.17,1.07-1.95,2.76-2.63,4.16-1.46,3-2.47,6.18-2.96,9.49s3.72,4.42,4.82,1.33c.5-1.39,1.21-2.67,2.05-3.88l-4.57-1.93c-.42,1.21-2.12,1.67-3.3,1.94-.72.17-1.86.5-2.58.28-.03,0-.23-.11-.06-.03.08.17.05.12-.1-.15.06.17.04.11-.05-.19-.33-1.22.44-2.98,1.12-4.28.47-.89.99-1.75,1.58-2.55.18-.24,1.3-1.28,1.26-1.48-.16.02-.31-.04-.43-.19-.02-.15.04-.08.15.22.02-.03.31-.36-.06.17-.23.33-.78.52-1.17.59-1.01.19-2.05-.12-3.02-.39-1.25-.35-2.49-.76-3.74-1.14-4.9-1.5-9.81-3-14.71-4.49-3.08-.94-4.4,3.88-1.33,4.82h0Z"/>
      <path class="cls-1" d="M145.29,12.95c.45,1.26.15,2.63-.14,4.01-.32,1.53-.77,3.04-1.36,4.48-.55,1.37-1.25,2.74-1.83,4.12-.29.69-.56,1.38-.76,2.09-.12.41-.22.82-.3,1.24-.03.18-.06.35-.09.53-.07.29-.07.29,0,0l.9-.9.78-.2,1.26.34-.15-.07.9.9-.1-.13c-.81-1.08-2.16-1.63-3.42-.9-1.06.62-1.71,2.33-.9,3.42.9,1.2,2.25,1.82,3.71,1.18,1.21-.54,1.7-1.62,1.93-2.84.37-1.97,1.25-3.7,2.06-5.52.91-2.02,1.67-4.09,2.14-6.26s.95-4.66.18-6.83c-.45-1.27-1.7-2.12-3.08-1.75-1.23.34-2.2,1.8-1.75,3.08h0Z"/>
      <path class="cls-1" d="M138.32,14.56c3.2.18,6.4.28,9.61.29,1.54,0,3.08,0,4.61-.04.77-.02,1.54-.04,2.31-.07.34-.01.83.06,1.15-.02.18,0,.2,0,.08.02-.59-.23-.81-.74-.65-1.5-.21,1.33.34,2.69,1.75,3.08,1.19.33,2.87-.4,3.08-1.75.4-2.57-1.23-4.53-3.8-4.81-1.91-.2-3.92.05-5.84.07-4.1.05-8.21-.05-12.3-.29-1.35-.08-2.5,1.2-2.5,2.5,0,1.42,1.15,2.42,2.5,2.5h0Z"/>
      <path class="cls-1" d="M156.46,13.11c-.05,7.33-4.5,13.77-5.97,20.81-.28,1.32.39,2.7,1.75,3.08,1.29.35,2.74-.43,3.08-1.75.5-1.96,1.26-3.76,2.32-5.48,1.7-2.75-2.63-5.26-4.32-2.52-1.27,2.06-2.23,4.32-2.83,6.67l4.82,1.33c1.58-7.55,6.1-14.25,6.15-22.14.02-3.22-4.98-3.22-5,0h0Z"/>
      <path class="cls-1" d="M163.91,11.76c.79,1.55.39,3.7.24,5.37-.17,2-.47,3.99-.86,5.96-.82,4.08-2.06,8.1-3.74,11.91l2.82-1.15-.03-.06.9.9-.18-.31c-1.63-2.77-5.95-.26-4.32,2.52.54.91,1.28,1.49,2.3,1.76.97.26,2.38-.15,2.82-1.15,1.99-4.5,3.52-9.17,4.42-14.01.45-2.41.76-4.85.94-7.3s.13-4.76-1-6.97c-1.47-2.86-5.78-.34-4.32,2.52h0Z"/>
      <path class="cls-1" d="M155.78,28.83c4.39,1.11,8.91.95,13.39.72,1.3-.07,2.56-1.1,2.5-2.5-.06-1.3-1.1-2.57-2.5-2.5-2.09.11-4.19.22-6.29.17-1.05-.02-2.08-.1-3.12-.2-.55-.05.31.06-.29-.04-.24-.04-.47-.07-.71-.12-.55-.1-1.1-.22-1.65-.36-1.27-.32-2.77.41-3.08,1.75s.39,2.73,1.75,3.08h0Z"/>
      <path class="cls-1" d="M180.49,13.61c-3.41-.87-6.09,1.56-7.26,4.55-.51,1.28-.82,2.65-1.23,3.96-.47,1.47-.97,2.94-1.42,4.42-.85,2.83-1.66,6.01-1.31,8.98.23,1.93,1.59,3.07,3.5,3.21,1.63.12,3.29.04,4.91-.06,1.35-.08,2.5-1.09,2.5-2.5,0-1.29-1.15-2.58-2.5-2.5-1.19.07-2.38.11-3.57.1-.25,0-.55-.05-.79-.01h-.4c.42.33.83.67,1.25,1.01.04.25.06.25.04,0,0-.12,0-.24,0-.37,0-.24,0-.49.02-.73.1-2.1.67-4.15,1.28-6.15s1.34-4.08,1.94-6.15c.23-.79.4-1.61.86-2.3.13-.19.39-.43.5-.53.05-.04.41-.17.19-.12-.09.02.39.07.17.02,3.12.8,4.45-4.02,1.33-4.82h0Z"/>
      <path class="cls-1" d="M170.81,28.22c3.52,1.05,7.13.03,10.47-1.13,1.23-.43,2.18-1.73,1.75-3.08-.39-1.22-1.75-2.2-3.08-1.75-1.44.5-2.89.99-4.39,1.27-.16.03-.34.04-.5.08.68-.19.13-.02-.08,0-.36.03-.71.05-1.07.05-.19,0-.38,0-.57-.02-.08,0-.16-.01-.25-.02-.28-.03-.22-.02.18.03-.37-.11-.76-.15-1.13-.26-1.25-.37-2.78.45-3.08,1.75s.4,2.67,1.75,3.08h0Z"/>
      <path class="cls-1" d="M19.79,26.67c-1.98-1.54-5.49-4.35-8.01-2.55-1.25.89-1.35,2.33-1.48,3.74s-.23,2.9-.29,4.36c-.22,5.76.22,11.52,1.19,17.21.23,1.33,1.87,2.08,3.08,1.75,1.41-.39,1.97-1.74,1.75-3.08-.6-3.52-.94-7.07-1.04-10.63-.05-1.75-.04-3.5.03-5.24.03-.87.08-1.75.14-2.62.04-.51.08-1.02.12-1.52.02-.22.04-.44.06-.65-.05-.2-.14-.06-.28.43l-1.1.64.29-.07h-1.33c1.15.17,2.43,1.08,3.33,1.79,1.06.83,2.5,1.04,3.54,0,.86-.86,1.07-2.7,0-3.54h0Z"/>
      <path class="cls-1" d="M12.87,38.04c.27.11.54.22.81.33l-.6-.25c1.34.57,2.63,1.23,3.88,1.98.55.33,1.31.42,1.93.25.58-.16,1.21-.61,1.49-1.15.31-.58.46-1.28.25-1.93s-.58-1.15-1.15-1.49c-1.68-1.01-3.46-1.85-5.29-2.56-.57-.22-1.42-.04-1.93.25s-1.01.9-1.15,1.49c-.15.64-.11,1.36.25,1.93l.39.51c.31.31.68.52,1.1.64h0Z"/>
      <path class="cls-1" d="M24.47,36.65c-1.37,1.88-2.41,3.98-3.15,6.19s-1.47,5.17-.65,7.53c.44,1.28,1.18,2.33,2.29,3.11,1.19.84,3.04,1.12,4.31.3s1.7-2.26,2.1-3.64c.33-1.15.55-2.31.71-3.49.38-2.82.26-5.62-.3-8.42-.26-1.28-1.85-2.14-3.08-1.75-1.36.44-2.02,1.7-1.75,3.08.07.33.12.65.18.98.1.58,0-.22.04.32.06.58.11,1.15.13,1.74.04,1.16,0,2.32-.15,3.47.06-.48-.08.48-.1.56-.04.24-.09.49-.14.73-.12.57-.27,1.13-.43,1.69-.08.28-.17.55-.27.83-.21.61-.08.11.18-.14.41-.42.86-.56,1.35-.42-.23-.07-.25-.07-.06,0,.18.08.17.07-.04-.04.25.21.27.23.06.04-.32-.46.16.37-.09-.09-.07-.11-.13-.22-.19-.34.12.3.13.33.04.06-.02-.11-.15-.66-.1-.27-.05-.33-.03-.68-.01-1.02,0-.02.1-.8.03-.35.05-.32.11-.64.18-.95.12-.54.25-1.08.41-1.62s.35-1.06.55-1.58c.18-.49-.13.24.12-.28.13-.29.27-.58.41-.86.5-1,1.09-1.94,1.75-2.84.77-1.06.21-2.83-.9-3.42-1.3-.69-2.6-.24-3.42.9h0Z"/>
      <path class="cls-1" d="M31.43,38.66c.42,3.55.5,7.13.23,10.7h5c-.54-4.67-.66-9.36-.37-14.05l-3.76,2.16c.87.61,1.5,1.07,2.27,1.94.42.48.74,1.24.79,1.76-.02.31-.01.37.02.16l-.06.25c-.07.26-.15.51-.25.76.12-.31-.18.41-.17.4-.16.36-.32.72-.46,1.09-.44,1.16-.58,2.47-.19,3.66.42,1.25,1.32,2.17,2.22,3.1.83.85,1.64,1.76,2.52,2.56.99.9,2.17,1.55,3.54,1.48,1.65-.09,2.89-1.12,3.44-2.64.46-1.27-.51-2.74-1.75-3.08-1.39-.38-2.62.47-3.08,1.75.36-1,.83-1.05,1.58-.91l-.21-.13c.14.11.14.11.01,0-.16-.14-.31-.29-.45-.45-.77-.78-1.53-1.57-2.3-2.35-.14-.14-.27-.28-.41-.42,0,0-.43-.47-.3-.33.16.19-.25-.35-.04-.03-.19-.29.09-.24-.04,0s.08-.34.1-.4c.02-.06.22-.62.15-.44.08-.2.46-1.07.6-1.41.83-2.09.56-4.34-.53-6.28s-2.78-3.16-4.49-4.37-3.66.43-3.76,2.16c-.29,4.69-.16,9.39.37,14.05.15,1.34,1.04,2.5,2.5,2.5s2.4-1.15,2.5-2.5c.26-3.57.18-7.14-.23-10.7-.16-1.34-1.04-2.5-2.5-2.5-1.23,0-2.66,1.15-2.5,2.5h0Z"/>
      <path class="cls-1" d="M46.23,34.78c-1.75,2.87-2.44,6.13-2.78,9.43-.31,3.05-.66,6.58,1.36,9.15,2.13,2.71,5.77,2.75,8.86,2.1s6.24-2.32,7.71-5.41c1.77-3.72,1.19-7.73-.51-11.36-.78-1.68-3.5-1.58-4.32,0-1.94,3.77-2.89,8.16-2.09,12.37.73,3.81,4.09,7.54,8.27,7.04,1.34-.16,2.5-1.03,2.5-2.5,0-1.23-1.15-2.66-2.5-2.5-1.01.12-1.57-.03-2.32-.8-.63-.64-1.06-1.87-1.18-2.84-.34-2.8.36-5.76,1.63-8.24h-4.32c.59,1.26.96,2.65.95,4.05-.01,1.11-.3,2.29-1.03,3.29-1.23,1.71-4.57,2.49-6.46,2.27-.92-.1-1.39-.39-1.62-1.28-.13-.48-.16-.96-.16-1.65,0-.73.05-1.46.1-2.19.2-2.92.68-5.86,2.22-8.4,1.68-2.76-2.65-5.27-4.32-2.52h0Z"/>
      <path class="cls-1" d="M69.28,56.48c.04.42.05.83.04,1.25,0,.19-.02.37-.03.56,0,.07-.07.55,0,.08.06-.43,0-.08,0,.01-.07.41-.16.82-.28,1.22-.06.2-.12.4-.19.6-.03.09-.06.17-.1.26-.03.09-.2.49-.03.09s-.08.16-.14.27c-.09.19-.19.37-.3.55-.2.35-.52.69-.69,1.05.03-.07.35-.43.13-.18-.07.09-.15.18-.22.27-.12.14-.25.28-.38.41-.31.32-.64.61-.98.89-.47.37-.73,1.2-.73,1.77,0,.61.27,1.35.73,1.77s1.1.76,1.77.73c.7-.03,1.22-.3,1.77-.73,3.16-2.53,4.98-6.84,4.63-10.87-.06-.67-.24-1.27-.73-1.77-.43-.43-1.15-.76-1.77-.73-1.26.06-2.62,1.1-2.5,2.5h0Z"/>
      <path class="cls-1" d="M91.6,41.82c1.23,1.83,3.1,4.18,5.34,4.76,1.19.31,2.4.1,3.46-.51.84-.48,1.49-1.18,2.17-1.6l-3.67-1.49c-.09-.36-.16.43-.19.52-.11.36-.22.71-.34,1.06-.28.82-.58,1.63-.92,2.43-.64,1.51-1.37,2.98-2.11,4.45-1.25,2.48-2.47,5.57-4.73,7.32-1.07.82-1.64,2.15-.9,3.42.61,1.05,2.34,1.73,3.42.9,3.19-2.46,4.92-5.91,6.7-9.44.93-1.85,1.81-3.73,2.59-5.65s1.83-4.21,1.3-6.32c-.39-1.53-2.32-2.34-3.67-1.49-.59.37-1.11.82-1.65,1.24-.28.22-.17.05-.4.29-.27.15-.31.18-.12.08.11-.04.23-.03.34.02.28.08.25.04-.11-.14-.07-.04-.12-.08-.18-.14-.27-.21-.52-.46-.77-.7-.47-.47-.88-.95-1.25-1.5-.75-1.12-2.2-1.61-3.42-.9-1.11.65-1.65,2.29-.9,3.42h0Z"/>
      <path class="cls-1" d="M108.93,42.5c-2.76.83-4.97,3.54-6.32,5.97s-2.18,5.31-2.14,8.12c.05,3.1,1.74,6.25,5.18,6.34,1.5.04,3.1-.73,3.84-2.07s1.18-3.02,1.53-4.52c.4-1.71.66-3.49.72-5.24.03-.83-.03-1.68-.21-2.49-.1-.46-.28-.92-.5-1.33-.07-.13-.14-.26-.22-.38-.14-.21-.68-1.12-.36-.5l.34,1.26c-.03-.68.01-1.32-.36-1.94-.47-.79-1.38-1.46-2.35-1.42-2.02.09-3.3,2.25-2.25,4.04.61,1.04,1.71,1.33,2.82,1.15h.08c1.3-.22,2.13-1.9,1.75-3.09-.46-1.41-1.69-1.97-3.08-1.75h-.08c.94.39,1.88.78,2.82,1.16l-.04-.07.34,1.26v-.1c-.11.42-.23.84-.34,1.26l.04-.09-1.49,1.15.09-.03-1.93-.25.12.06-.9-.9-.12-.43c-.07-.46-.12-.57-.13-.33-.04.06,0,.22,0,.29.03.5.17.99.42,1.42.58.99.42.57.28.34.06.09.11.19.17.28.15.23-.03-.04-.04-.09.03.14.07.3.11.44-.12-.39,0,.05.01.25,0,.23,0,.46,0,.69-.02.62-.07,1.24-.14,1.86,0-.01-.06.43-.03.21s-.04.22-.03.21c-.05.27-.09.54-.14.81-.12.63-.27,1.25-.44,1.86-.15.53-.31,1.05-.49,1.57-.09.26-.19.51-.28.77-.04.12-.22.29-.06.16.04-.03.44-.51.13-.22.13-.12.26-.17.4-.26.42-.26-.03.04,0,0-.14.31-.15-.34,0,.01l.16-.03h-.17s-.06,0-.09,0c-.14,0-.11,0,.08.01.04.05.24.07,0-.03,0,0,.45.2.2.09-.11-.05-.31-.27-.1-.04.33.36-.21-.3.03.01.17.22-.03-.06-.05-.1-.22-.39.03.25-.08-.19-.06-.21-.1-.43-.15-.64.1.47,0-.15,0-.33-.01-.5.02-1,.06-1.49s-.05.21.04-.27c.05-.27.1-.54.16-.81.12-.5.26-.99.43-1.47.08-.22.16-.44.25-.66-.16.38.13-.26.18-.37.26-.53.55-1.04.88-1.54.15-.23.31-.46.47-.68s0,0-.03.04c.1-.12.2-.24.3-.36.36-.42.75-.81,1.15-1.18.12-.11.23-.21.36-.31-.2.17-.08.05.06-.04.1-.06.2-.12.3-.18.33-.19-.5.14.16-.06,1.25-.38,2.17-1.77,1.75-3.08s-1.73-2.15-3.08-1.75h0Z"/>
      <path class="cls-1" d="M115.92,45.03c-.31,2.53-.57,5.07-.76,7.61-.17,2.21-.19,4.87,1.68,6.43,1.37,1.14,2.95,1.29,4.65,1.03,1.26-.2,2.51-.51,3.65-1.08,2.27-1.14,3.51-3.51,4.22-5.84.44-1.46.7-2.96.9-4.47.13-1.04,0-2.1-.8-2.88-1-.96-2.81-1.16-3.78,0-.84,1-1.05,2.57,0,3.54.93.85,2.64,1.07,3.54,0l.07-.08-1.77.73h.09c-.59-.24-1.18-.48-1.77-.73-.31-1.4-.48-1.76-.52-1.06-.04.3-.04.32,0,.05-.04.32-.1.63-.15.95-.11.63-.25,1.26-.42,1.88-.12.47-.26.93-.42,1.38-.05.15-.22.91-.11.3-.04.22-.24.49-.35.68s-.24.47-.41.64c.48-.46-.13.11-.22.2-.07.07-.14.13-.21.19-.14.12-.09.08.13-.11-.05.09-.88.46-.35.24-.54.22-1.13.35-1.7.47-.28.06-.56.12-.85.17.6-.09-.17-.03-.29-.01-.19,0-.14,0,.15.03-.27-.08-.27-.07.01.04-.23-.14-.19-.1.12.12-.08-.07-.15-.14-.21-.22.23.31.27.35.13.12-.12-.24-.1-.18.06.16,0,0-.19-.63-.16-.64.04.39.05.44.02.16-.01-.11-.02-.23-.02-.34,0-.17,0-.34,0-.52,0-.55.06-1.1.1-1.64.19-2.5.45-5,.75-7.49.16-1.3-1.26-2.56-2.5-2.5-1.49.07-2.33,1.1-2.5,2.5h0Z"/>
      <path class="cls-1" d="M139.04,52.33c.03.59.03,1.18,0,1.78-.02.34-.05.67-.09,1.01.06-.46-.04.25-.06.34-.21,1.22-.52,2.41-.86,3.6-.67,2.35-1.44,4.67-1.85,7.09-.22,1.28.34,2.75,1.75,3.08,1.21.28,2.84-.37,3.08-1.75.86-5.09,3.31-9.87,3.04-15.13-.07-1.3-1.1-2.56-2.5-2.5-1.3.06-2.57,1.1-2.5,2.5h0Z"/>
      <path class="cls-1" d="M151.39,52.28c-1.09,7.06-2.18,14.12-3.27,21.18-.21,1.33.34,2.69,1.75,3.08,1.18.33,2.87-.4,3.08-1.75,1.09-7.06,2.18-14.12,3.27-21.18.21-1.33-.34-2.69-1.75-3.08-1.18-.33-2.87.4-3.08,1.75h0Z"/>
      <path class="cls-1" d="M142.71,60.12l-1.49-.94-1.93,4.57c1.09.4,2.19.84,3.31,1.14.72.19,1.46.31,2.2.38s1.5-.01,2.27-.13c.58-.09,1.21-.67,1.49-1.15.31-.54.45-1.33.25-1.93s-.57-1.19-1.15-1.49l-.6-.25c-.44-.12-.89-.12-1.33,0l-.12.02.66-.09c-.59.08-1.19.06-1.78-.02l.66.09c-1.58-.23-3.06-.85-4.55-1.4-.55-.2-1.44-.06-1.93.25s-.81.68-1.02,1.2c-.49,1.16-.04,2.45,1.02,3.12l1.49.94c1.11.7,2.81.27,3.42-.9.65-1.23.28-2.67-.9-3.42h0Z"/>
      <path class="cls-1" d="M164.53,58.92c-1.04-1.19-2.9-1.54-4.35-.99-1.67.64-2.61,2-3.22,3.61-.49,1.3-.76,2.69-1.01,4.05-.24,1.29-.47,2.59-.56,3.9-.09,1.24-.01,2.58.4,3.76.55,1.56,1.56,3.28,3.34,3.52,1.58.21,3.12-1,4.19-2.04.91-.89,1.69-1.98,2.24-3.12,1.46-2.99,1.74-6.29,1.68-9.57h-5c.32,4.48.64,8.96.97,13.44.09,1.3,1.08,2.56,2.5,2.5,1.27-.06,2.6-1.1,2.5-2.5-.32-4.48-.64-8.96-.97-13.44-.09-1.3-1.08-2.56-2.5-2.5-1.33.06-2.52,1.1-2.5,2.5.04,2.5-.04,4.32-.8,6.59-.23.69.21-.4-.1.26-.1.21-.2.42-.31.62-.13.24-.27.47-.41.69-.06.09-.53.7-.22.33-.29.35-.62.67-.95.98-.4.37.22-.1-.21.17-.13.09-.25.17-.39.24-.25.15-.27.15-.05,0h1.33c.33.06.58.22.76.48-.08-.12-.16-.24-.23-.37-.13-.26-.13-.26-.02,0-.05-.14-.1-.27-.13-.41-.03-.12-.17-1-.11-.42-.02-.22-.04-.45-.04-.67-.01-.61.03-1.23.11-1.84-.06.56.06-.38.08-.48.05-.29.1-.58.15-.87.25-1.4.51-2.8.97-4.15.04-.11.07-.22.12-.33-.11.24-.1.23.03-.03.07-.13.15-.26.23-.39-.16.21-.14.21.05,0-.11.12-.24.2-.41.24.28-.07.25-.07-.09,0-.2,0-.37-.07-.53-.18-.24-.23-.27-.24-.08-.03.86.99,2.66.95,3.54,0,.97-1.05.92-2.48,0-3.54h0Z"/>
      <path class="cls-1" d="M170.43,63.46c.09.1.16.22.22.33-.12-.29-.13-.3-.05-.03.05.28.06.27,0-.05.01.14.02.28.02.42.01.6,0,1.19,0,1.79,0,1.33-.02,2.66-.02,3.98-.01,2.49-.38,5.46,1.13,7.63.93,1.33,2.69,1.69,3.93.51,3.82-3.67,6.65-8.29,8.24-13.34.39-1.25-.46-2.78-1.75-3.08-1.36-.31-2.65.41-3.08,1.75-.19.59-.38,1.17-.61,1.75-.03.08-.39.94-.18.47-.09.21-.19.42-.28.63-.5,1.08-1.07,2.14-1.7,3.15-.3.49-.62.97-.96,1.44-.18.25-.36.5-.55.75.29-.39-.19.24-.25.31-.75.93-1.57,1.8-2.43,2.63l3.93.51c-.09-.13-.4-.86-.24-.35-.09-.28-.15-.55-.2-.84.1.57,0-.13,0-.21-.02-.29-.02-.59-.02-.88,0-1.31.01-2.62.02-3.93s.02-2.66.02-3.98-.06-2.77-.88-3.88c-.78-1.05-2.2-1.68-3.42-.9-1.03.67-1.73,2.3-.9,3.42h0Z"/>
      <path class="cls-1" d="M193.3,61.28c-2.92-.09-5.27,1.9-6.98,4.07s-3.03,4.65-3.79,7.34c-.7,2.46-1.31,5.72-.31,8.16,1.16,2.84,4.52,3.83,7.17,2.48,1.2-.61,1.55-2.3.9-3.42-.71-1.22-2.21-1.51-3.42-.9.38-.19-.13-.04.13-.03.36.01-.31-.02-.3-.02.43.05.04-.06.04-.04.23.11.27.12.11.03-.12-.08-.12-.07-.01.01.2.14-.17-.28.06.09-.18-.3-.03.03-.08-.22-.09-.42-.02.51-.04-.27,0-.18,0-.36,0-.54.02-1.76.31-3.29.95-5.1.47-1.34,1.42-3.08,2.36-4.29.43-.55,1.11-1.33,1.75-1.82-.21.16.24-.15.3-.19.04-.03.52-.3.26-.18.16-.07.35-.12.52-.16-.32.08.35,0,.42,0,1.35.04,2.5-1.18,2.5-2.5,0-1.39-1.15-2.46-2.5-2.5h0Z"/>
      <path class="cls-1" d="M183.39,72.36c1.57.68,3.12,1.42,4.63,2.22.59.31,1.27.43,1.93.25.58-.16,1.21-.61,1.49-1.15.31-.58.46-1.28.25-1.93-.2-.6-.57-1.19-1.15-1.49-1.52-.79-3.06-1.53-4.63-2.22-.29-.18-.6-.28-.93-.3-.33-.07-.66-.06-1,.04-.58.16-1.21.61-1.49,1.15-.31.58-.46,1.28-.25,1.93.19.58.57,1.24,1.15,1.49h0Z"/>
      <path class="cls-1" d="M161.81,115.46c-.2-2.92.82-5.99,1.39-8.84.62-3.1,1.24-6.2,1.86-9.3l-4.57.6c4.31,7.2,4.36,16.22,9.5,23.02,1.22,1.62,3.97,1.66,4.57-.6,1.67-6.34,2.98-12.76,3.91-19.24.19-1.33-.33-2.69-1.75-3.08-1.17-.32-2.88.4-3.08,1.75-.94,6.48-2.24,12.91-3.91,19.24l4.57-.6c-5.1-6.75-5.19-15.83-9.5-23.02-1.04-1.74-4.13-1.58-4.57.6-.65,3.25-1.3,6.49-1.95,9.74s-1.7,6.51-1.48,9.72c.09,1.35,1.08,2.5,2.5,2.5,1.28,0,2.59-1.15,2.5-2.5h0Z"/>
      <path class="cls-1" d="M189.95,101.6c-1.32-.6-2.64-.5-3.69.55-.75.75-1.23,1.84-1.75,2.76-.9,1.59-1.77,3.21-2.5,4.9-.84,1.94-1.64,3.93-1.75,6.07-.1,1.92.59,3.71,1.79,5.18,2.37,2.91,6.55,3.63,9.96,2.35,1.85-.7,3.76-1.83,4.75-3.61s.91-3.77.95-5.67c.05-2.29.28-4.77-.8-6.87-.93-1.82-2.71-3.01-4.4-4.04-1.15-.7-2.75-.25-3.42.9s-.26,2.72.9,3.42c1.03.63,1.75.97,2.43,1.89-.18-.25.14.28.17.36-.17-.36.11.49.1.43.07.47.04,1.28.04,1.86,0,1.43-.03,2.85-.1,4.28-.01.26-.15.85-.26,1.04-.15.25-.04.08,0,.03-.08.1-.18.19-.28.28-.05.05-.16.15-.45.34-.52.33-.91.54-1.37.69-.56.18-1.12.31-1.47.3-.71-.02-.8.01-1.41-.17-.12-.04-.24-.07-.35-.12.05.02.29.14.03,0s-.51-.28-.74-.44c.28.19-.25-.23-.34-.32s-.17-.18-.25-.27c.03.04.18.26.02.02-.14-.2-.26-.41-.37-.63-.13-.26,0,0,.02.04-.06-.19-.13-.39-.16-.59s.01-.86.05-1.07c.14-.71.37-1.41.62-2.09.49-1.37,1.13-2.67,1.81-3.96.35-.67.72-1.33,1.09-1.99.21-.38.43-.75.64-1.12.08-.14.16-.28.24-.42.05-.09.11-.19.16-.28.26-.41.03-.26-.71.47l-1.93-.25.18.08c1.23.56,2.69.35,3.42-.9.63-1.07.34-2.86-.9-3.42h0Z"/>
      <path class="cls-1" d="M209.09,109.22c-1.31,11.61-3.57,23.09-6.69,34.35-.86,3.11,3.96,4.43,4.82,1.33,3.23-11.69,5.5-23.62,6.86-35.68.15-1.34-1.26-2.5-2.5-2.5-1.48,0-2.35,1.15-2.5,2.5h0Z"/>
      <path class="cls-1" d="M199.94,108.02c6.81,2.73,14.23.95,21.31,1.67,1.35.14,2.5-1.25,2.5-2.5,0-1.47-1.15-2.36-2.5-2.5-6.63-.68-13.63,1.06-19.98-1.49-1.25-.5-2.75.55-3.08,1.75-.39,1.43.49,2.57,1.75,3.08h0Z"/>
      <path class="cls-1" d="M60.04,173.4c-16.27,4.98-32.79,11.38-43.13,25.64-5.11,7.05-8.4,15.31-10.8,23.63-2.68,9.29-4.4,18.87-5.35,28.5-.54,5.54-.8,11.12-.76,16.69.02,2.71.11,5.41.26,8.11.16,2.85.26,5.81,1.2,8.53.44,1.27,1.71,2.12,3.08,1.75,1.24-.34,2.19-1.79,1.75-3.08-.76-2.18-.86-4.44-1-6.72s-.24-4.77-.27-7.16c-.07-4.7.06-9.39.4-14.08.68-9.37,2.21-18.66,4.57-27.75,2.07-8.01,4.83-15.92,9.26-22.96,4.28-6.82,10.17-12.18,17.11-16.21,7.81-4.54,16.42-7.44,25.02-10.08,3.07-.94,1.76-5.77-1.33-4.82h0Z"/>
      <path class="cls-1" d="M125.45,179.45c6.8,1.61,13.05,5.05,17.95,10.05,2.54,2.59,4.74,5.59,6.15,8.95s2.09,7.2,2.59,10.88c2.28,16.93,3.73,34.03,4.51,51.1.44,9.6.56,19.22.17,28.82-.13,3.22,4.87,3.21,5,0,.72-17.68-.29-35.37-1.8-52.98-.76-8.88-1.68-17.75-2.83-26.59-.54-4.1-1.13-8.25-2.64-12.12s-3.56-7.04-6.18-10.03c-5.6-6.41-13.32-10.93-21.59-12.88-3.13-.74-4.46,4.08-1.33,4.82h0Z"/>
      <path class="cls-1" d="M71.6,184.58c-1.72,2.97-3.6,5.78-5.89,8.25-.6.65-.79.84-1.49,1.21-.4.21-.46.23-.85.38-.45.18-.91.35-1.36.52-1.84.71-3.69,1.42-5.53,2.12-1.26.48-2.13,1.68-1.75,3.08.33,1.2,1.81,2.23,3.08,1.75,1.95-.75,3.89-1.49,5.84-2.24s3.89-1.5,5.42-3.08c2.68-2.78,4.92-6.13,6.85-9.46.68-1.17.27-2.74-.9-3.42s-2.74-.28-3.42.9h0Z"/>
      <path class="cls-1" d="M56.8,197.92c-4.18,1.74-8.38,3.46-12.31,5.71-3.23,1.85-6.27,4.03-9.1,6.44-5.59,4.76-10.32,10.6-13.88,17.02-3.74,6.76-6.11,14.11-7.1,21.76-.61,4.68-.74,9.4-.73,14.12,0,2.35.03,4.69.07,7.04.03,2.18-.28,4.77.51,6.84,1.51,3.97,7.1,4.84,10.77,4.27,4.12-.64,7.22-3.33,9.27-6.85,2.18-3.76,3.94-7.95,4.56-12.27s.26-8.9.82-13.33,2.56-7.68,4.87-11.15c2.07-3.09,4.42-6.03,7.32-8.4,1.32-1.08,2.82-2,4.38-2.7,1.47-.66,3.39-1.35,4.97-.72,2.77,1.1,3.59,5.11,3.96,7.68.64,4.54.27,9.19-.13,13.73s-.79,9.16-1.43,13.7-1.68,9.06-2.87,13.54-2,9.11-1.97,13.85c.01,2.35.15,4.71.3,7.06.19,3.2,5.2,3.22,5,0-.27-4.51-.62-9.14.13-13.63s2.23-8.69,3.14-13.09,1.52-9.15,1.99-13.76.96-9.09,1.13-13.64c.25-6.71-.11-18.09-8.23-20.36-3.99-1.12-8.44.91-11.69,3.13s-5.88,5.06-8.24,8.17-4.75,6.71-6.23,10.48c-1.6,4.08-1.62,8.56-1.73,12.88s-.56,8.21-2.26,12.13c-1.38,3.17-3.06,7.13-6.61,8.31-1.41.47-2.92.58-4.36.21-.65-.16-1.63-.42-2.1-.92-.29-.31-.18-1.63-.19-2.26-.08-4.61-.18-9.23-.09-13.85.16-8.11,1.22-16.05,4.29-23.6,5.46-13.43,16.06-24.09,29.15-30.14,1.97-.91,3.96-1.74,5.96-2.57,1.25-.52,2.14-1.66,1.75-3.08-.32-1.18-1.82-2.27-3.08-1.75h0Z"/>
      <path class="cls-1" d="M119.39,194.06c5.11,3.82,11.58,4.79,17.06,7.87,4.83,2.71,8.26,7.15,10.59,12.09,5.82,12.35,3.79,26.58,3.86,39.76.03,6.18.48,12.48-.47,18.62-.44,2.85-1.14,5.72-2.41,8.32-.54,1.11-1.14,2.41-1.99,3.33-.51.55-1.05.12-1.56-.49-.87-1.05-.96-2.7-1.16-4-.28-1.81-.72-3.36-1.5-5.02-.67-1.44-.57-2.58-.24-4.13.39-1.8.76-3.6,1.06-5.42,1.11-6.86,1.48-13.83.99-20.77s-1.78-14.12-3.92-20.89c-.96-3.04-1.94-6.52-4.34-8.78s-6.18-3.02-8.98-.97c-2.62,1.92-3.99,5.4-5,8.37s-1.59,6.3-1.95,9.52c-.73,6.44-.49,12.98-1.5,19.4-.57,3.58-1.45,7.1-2.16,10.65s-1.17,7.1-1.39,10.7c-.45,7.33-.28,14.66-1.67,21.9-.68,3.51-1.6,6.98-2.77,10.37-.95,2.77-2.02,5.53-3.64,7.98-1.39,2.11-3.3,3.84-5.8,4.4-1.85.41-4.09.09-5.31-1.5-.83-1.07-1.11-2.5-1.46-3.77-.43-1.56-.9-3.11-1.7-4.53-1.46-2.6-3.96-4.59-7.02-4.71s-6.04,1.91-6.59,5.04c-.25,1.44.05,2.96-.31,4.36-.33,1.26-1.24,2.38-2.26,3.15-2.29,1.74-5.43,2.2-8.22,2.41-2.24.16-4.76.15-6.83-.82-2.3-1.09-2.97-3.3-2.39-5.75.79-3.28,2.59-6.25,3.71-9.42s1.82-6.57,2.21-9.98c.15-1.34-1.26-2.5-2.5-2.5-1.48,0-2.35,1.15-2.5,2.5-.4,3.54-1.33,7.06-2.67,10.36s-2.98,6.16-3.38,9.61.92,6.64,3.67,8.68c2.27,1.68,5.19,2.26,7.95,2.38,6.14.27,13.98-1.24,17.16-7.14.79-1.47,1.17-3.04,1.21-4.71.02-1.03-.27-2.48.6-2.96.57-.31,1.37-.28,2.04.06,1.15.59,1.87,1.89,2.32,3.05,1.15,2.95,1.39,6.13,3.69,8.53,2.02,2.09,5.09,3,7.94,2.77,6.58-.53,10.68-5.82,13.11-11.49,2.89-6.76,4.66-13.95,5.5-21.24s.33-15.18,1.46-22.68c.54-3.58,1.41-7.11,2.14-10.65s1.22-7.21,1.47-10.87c.46-6.59.31-13.33,2.05-19.75.38-1.41.84-2.81,1.45-4.14.51-1.11,1.12-2.71,2.16-3.46,2.44-1.76,4.26,2.81,4.81,4.37,2.37,6.7,3.9,13.72,4.51,20.79s.39,14.26-.78,21.26c-.58,3.47-2.21,7.43-1.11,10.92.5,1.59,1.35,2.92,1.67,4.58s.44,3.36,1.08,4.96c1.17,2.91,4.34,5.49,7.63,4.6s4.99-4.97,6.16-7.79c2.47-5.96,2.84-12.57,2.84-18.95,0-7.08,0-14.14.11-21.22s-.03-14.55-1.82-21.58c-1.5-5.91-4.16-11.59-8.19-16.2-1.93-2.21-4.24-4.14-6.78-5.62-2.91-1.7-6.14-2.8-9.28-3.97-2.87-1.07-5.67-2.26-8.14-4.11-1.08-.81-2.79-.18-3.42.9-.75,1.28-.19,2.61.9,3.42h0Z"/>
      <path class="cls-1" d="M1.82,285.9c6.78,5.15,15.01,8.73,23.47,5.66,3.39-1.23,6.86-3.45,10.56-3.55,2.02-.05,3.79.8,5.61,1.56,1.99.83,4,1.35,6.15,1.57,4.52.47,9.21-.69,13.04-3.11,2.71-1.71.21-6.04-2.52-4.32-2.99,1.89-6.4,2.73-9.92,2.48-3.97-.28-7.26-2.8-11.21-3.15-7.46-.65-13.38,6.03-20.96,4.49-4.36-.88-8.19-3.3-11.69-5.95-1.08-.82-2.8-.17-3.42.9-.75,1.28-.18,2.6.9,3.42h0Z"/>
      <path class="cls-1" d="M113,285.31c2.96,3.32,6.18,6.48,10.68,7.46s8.9.06,13.35.52,8.85,2.34,13.45,2.62c4.06.25,8.27-.76,11.24-3.67,2.3-2.26-1.24-5.79-3.54-3.54s-5.78,2.51-8.82,2.11c-4.17-.55-8.13-2.1-12.34-2.52-3.84-.38-7.8.44-11.61-.26s-6.37-3.44-8.89-6.26c-2.15-2.41-5.67,1.14-3.54,3.54h0Z"/>
      <path class="cls-1" d="M87.29,198.13c1.21,2.46,2.46,4.9,3.92,7.21,1.36,2.15,3.08,4.49,5.7,5.13,2.92.71,5.37-.94,7.41-2.84s3.76-4.06,5.24-6.38c.72-1.14.24-2.76-.9-3.42-1.21-.7-2.69-.25-3.42.9-1.12,1.76-2.4,3.35-3.88,4.82-.69.68-1.3,1.29-2.02,1.73-.2.12-.41.26-.62.34.32-.12-.49.09-.08.03-.17.03-.38.02-.55,0,.51.07-.41-.17.03,0-.73-.29-1.16-.78-1.72-1.52-.34-.44-1.04-1.58-1.48-2.31-1.21-2.02-2.27-4.11-3.31-6.21-.6-1.21-2.31-1.54-3.42-.9-1.23.72-1.5,2.21-.9,3.42h0Z"/>
      <path class="cls-1" d="M65.24,204.45l3.85.21c.64.03,1.28.08,1.92.1,1.02.04.33.07.19-.1l-.64-1.1c.4-1.12.35-1.35-.13-.71-.21.23-.42.46-.64.69-.37.4-.74.8-1.11,1.21-.79.86-1.59,1.72-2.38,2.59-1.13,1.23-.88,3.9,1.1,4.18,5.17.73,10.22-.21,15.34-1.01s10.11-1.58,15.17-2.38l-1.93-4.57c-4.37,2.52-9.48,3.3-14.09,5.28-5.02,2.15-8.51,5.93-11.86,10.11-1.26,1.57-.59,4.34,1.77,4.27,5.73-.18,11.43-.7,17.1-1.49,2.46-.34,2.31-4.35,0-4.82-5.44-1.12-9.9,2.24-13.67,5.74-1.29,1.19-.73,3.02.51,3.93,2.41,1.77,6.09.12,8.64-.56,2.92-.77,5.83-1.57,8.71-2.47,5.79-1.8,11.49-4.01,16.79-6.99,2.43-1.37.81-5.46-1.93-4.57-4.03,1.31-7.09,4.37-8.37,8.41-.73,2.29,1.83,3.62,3.67,2.82.84-.36,1.59-.93,2.2-1.6l-4.18-1.1c.37,1.52,1.37,2.82,2.77,3.52s3.21.14,3.67-1.49c1.7-5.97,2.44-12.2,2.15-18.4l-3.16,2.41c.61.19,1.04.54,1.57,1.09.59.61,1.04,1.22,1.55,1.88,1.24,1.61,2.55,3.23,4.46,4.07,1.79.79,3.6-.14,3.76-2.16.26-3.3,1.16-6.54,2.62-9.5l-4.57-.6c2.1,5.82,4.25,11.71,7.73,16.88,1.12,1.66,4.09,1.64,4.57-.6.86-3.99,2.11-7.89,3.82-11.59l-2.82,1.15c1.78.65,3.27,2.01,4.78,3.11,1.67,1.22,3.55,2.24,5.62,2.56s3.78-.38,5.77-1.03c.04-.01.65-.2.68-.21-.09.02-.41-.39-.25-.17.54.77.75,2.15,1.06,3.03.73,2.1,1.47,4.2,2.2,6.3.66,1.89,1.54,4.02,1.3,6.06-.03.23-.1.46-.16.7-.09.37-.35.32-.05.16-.7.38-1.94.13-2.7.14-2.41.03-4.82.05-7.23.08l.66,4.91c1.91-.39,3.94-.15,5.74.61.8.33,1.59.8,2.27,1.33.62.49,1.68,1.32,1.83,2.11v-1.33l-.02.05.9-.9c-1.35,1.04-3.23,1.38-4.74,2.14-1.59.81-3,2.01-3.84,3.61-.88,1.68-1.12,3.67-.31,5.42.37.81,1.25,1.39,1.59,2.16.13.31-.06.86-.15,1.22-.44,1.72-.97,3.43-.52,5.22.38,1.53,1.58,2.69,1.93,4.18.31,1.3.24,2.8.51,4.17.35,1.71,1.22,3.05,2.65,4.04,1.11.77,2.78.21,3.42-.9.73-1.24.22-2.65-.9-3.42-.05-.03-.12-.17-.16-.26-.06-.12-.1-.33-.17-.65-.11-.53-.13-1.24-.19-1.89-.17-1.86-.55-3.46-1.5-5.08-.33-.56-.76-1.09-.78-1.74-.03-.73.3-1.48.49-2.17.5-1.9.64-3.89-.54-5.58-.3-.43-1.12-1.11-1.19-1.52-.07-.44.27-.99.54-1.33,1.01-1.28,3.02-1.73,4.47-2.33,1.06-.44,2.16-.87,2.82-1.87.72-1.08.76-2.39.2-3.55-.8-1.69-2.34-3.06-3.83-4.14-3.4-2.46-7.76-3.25-11.83-2.41-2.79.57-2.12,4.94.66,4.91,2.09-.02,4.18-.04,6.27-.07s4.31.23,6.11-.81c3.74-2.16,2.95-7.41,1.88-10.83-.61-1.95-1.33-3.87-2.01-5.81s-1.27-3.99-2.1-5.9-2.46-2.95-4.47-2.86c-1.72.07-3.15,1.23-4.82,1.35-1.79.13-3.54-1.24-4.89-2.25-1.8-1.34-3.51-2.6-5.64-3.37-.95-.35-2.39.21-2.82,1.15-1.9,4.11-3.38,8.36-4.33,12.79l4.57-.6c-3.26-4.82-5.27-10.24-7.23-15.68-.67-1.85-3.54-2.68-4.57-.6-1.87,3.8-2.97,7.8-3.31,12.03l3.76-2.16c-1.67-.73-2.67-2.32-3.81-3.77-1.33-1.7-2.85-3.11-4.95-3.77-1.5-.47-3.24.82-3.16,2.41.26,5.79-.39,11.5-1.98,17.07l3.67-1.49c-.37-.19-.37-.12-.47-.54-.43-1.78-2.92-2.48-4.18-1.1-.38.41-.68.6-1.19.82l3.67,2.82c.74-2.32,2.57-4.16,4.88-4.91l-1.93-4.57c-4.67,2.63-9.64,4.59-14.73,6.21-2.52.8-5.05,1.53-7.6,2.22-1.31.35-2.62.7-3.94,1.04-.66.17-1.31.35-1.97.51-.24.06-.49.14-.73.16-.11,0,.5.32-.12-.13l.51,3.93c2.25-2.09,5.43-5.14,8.81-4.45v-4.82c-5.23.73-10.5,1.15-15.77,1.31l1.77,4.27c3.11-3.88,6.25-7.53,11-9.38s9.58-2.72,13.93-5.23c1.07-.62,1.52-2,1.02-3.12-.54-1.22-1.68-1.65-2.95-1.45-4.73.74-9.47,1.48-14.2,2.23-4.43.7-9.14,1.8-13.64,1.16l1.1,4.18c1.27-1.38,2.54-2.76,3.82-4.14s2.5-2.89,1.6-4.8c-.8-1.71-2.52-2.06-4.24-2.17-1.92-.11-3.85-.21-5.77-.31-3.22-.18-3.21,4.83,0,5h0Z"/>
      <path class="cls-1" d="M61.57,208.93c.13,2.33-.11,4.82-1.14,6.96-.81,1.69-3.44,1.1-4.98.96-4.32-.39-8.67-2.12-12.1-4.79-1.06-.83-2.5-1.04-3.54,0-.95.95-.96,2.58,0,3.54,1.92,1.89,3.84,3.79,5.76,5.68l1.1-4.18c-4.76,1.79-9.47,3.71-14.12,5.76-1.44.63-1.62,2.94-.51,3.93,3.55,3.13,7.21,6.12,10.95,9l.6-4.57c-2.46.63-5.04.15-7.52-.12-2.64-.29-5.35-.38-7.87.59-1.65.63-2.6,2.8-1.1,4.18.94.87,1.88,1.73,2.82,2.6l1.41,1.3.71.65c.4.44.46.44.18,0v-1.33l-.09.29.64-1.1c-.76.9-2.17,1.5-3.21,2.03-1.14.58-2.31,1.04-3.53,1.41-2.59.79-5.22,1.1-7.93.99-.98-.04-1.93.66-2.28,1.54-.41,1.02-.13,1.9.52,2.73,3.61,4.65,6.1,10.1,7.44,15.82l2.41-3.16c-2.47.05-4.93-.38-7.19-1.41-1.13-.51-2.27-1.15-3.23-1.93s-1.2-1.49-1.18-2.75c.04-2.88.32-5.79.71-8.64.19-1.44.43-2.87.7-4.3.15-.79.31-1.58.48-2.37.07-.32.14-.63.21-.94.05-.24.11-.47.16-.71.15-.48,0-.36-.48.38l-1.26.34.29.02-1.26-.34c.61.31,1.43,1.21,2.02,1.78.71.68,1.4,1.38,2.07,2.09,1.35,1.44,2.64,2.95,3.83,4.53.68.9,1.67,1.47,2.82,1.15.99-.27,1.94-1.33,1.84-2.41-.58-6.18-1.52-12.31-2.85-18.37l-3.08,3.08,5.41,1.64c1.18.36,2.88-.43,3.08-1.75.51-3.35,1.01-6.7,1.52-10.05l-2.41,1.84c.43,0,.92.62,1.22.91.77.74,1.54,1.49,2.31,2.24,1.54,1.49,3.08,2.98,4.62,4.48s4.19.39,4.27-1.77c.19-4.98-.22-9.95-1.15-14.84l-2.41,3.16c.42.02.86.25,1.49.65.7.44,1.35.95,2.06,1.37,1.84,1.1,3.98,1.52,5.97.53s3.07-3.11,3.75-5.14c.84-2.48,1.26-5.11,1.38-7.72l-4.66,1.26c1.81,2.83,3.38,5.8,4.6,8.93.41,1.04,1.23,1.84,2.41,1.84,1.03,0,2.21-.77,2.41-1.84.69-3.75.53-7.54-.68-11.17l-4.57,1.93c1.83,4.32,3.08,9.01,3.61,13.67.14,1.21.23,2.42.29,3.64.02.42-.22,1.91.32.79.13-.23.21-.29.27-.17-.3.03-.6.03-.9.02-2.36-.08-4.59-1.14-6.97-1.2-4.28-.12-8.45,2.1-10.91,5.56-.73,1.03-1.37,2.25-1.05,3.54s1.34,1.99,2.24,2.79c1.95,1.72,3.91,3.44,5.86,5.16l1.1-4.18c-2.18.68-4.36,1.35-6.54,2.03-1.09.34-2.18.68-3.27,1.01-1,.31-2.07.55-2.94,1.16-2.11,1.51-1.49,3.9-.56,5.89s1.93,4.05,2.89,6.08l2.16-3.76c-2.41.18-4.89.44-6.89,1.93-1.77,1.31-2.97,3.35-2.76,5.61.17,1.83,1.1,3.35,2.16,4.8.46.63.94,1.26,1.32,1.95.23.41.21.37.28.66.04.18.03.37.05.27l1.75-1.75c-2.78.82-8.48,1.1-8.4-3.2l-3.76,2.16c2.65,1.71,5.3,3.41,7.95,5.12,2.47,1.59,4.94,3.53,7.59,4.81,1.39.67,2.98.89,4.37.08,1.19-.69,1.82-1.87,2.37-3.08,1.17-2.57,2.08-5.24,2.72-8,2.49-10.76,1.33-21.87,2.54-32.76.64-5.73,2.07-11.42,5.08-16.39l-4.57-.6c2.04,6.26,4.64,12.33,7.77,18.11.52.97,1.78,1.43,2.82,1.15,1.14-.31,1.71-1.3,1.84-2.41.56-4.79,1.94-9.53,3.99-13.89l-4.57-.6c2.56,7.43,5.56,14.7,8.97,21.78.89,1.84,4.23,1.5,4.57-.6.59-3.67-3.66-4.52-5.76-2.11-1.87,2.14-3.48,4.53-4.86,7.01-.68,1.22-.26,2.68.9,3.42,6.61,4.24,14.43,5.55,22.06,6.7v-4.82c-2.56.7-5.19-1.25-7.53-2.01-2.74-.89-6.05-.12-6.79,3.01-.34,1.42.11,2.88,1.22,3.82,1.37,1.15,3.22.97,4.73.21,2.33-1.17,4.35-3.3,5.56-5.59.74-1.4,1.31-3,.45-4.5-.8-1.39-2.41-1.91-3.94-1.58-2.57.56-4.73,3.08-6.52,4.86-2.07,2.05-3.95,4.28-5.69,6.61-.78,1.04-1.64,2.11-2.2,3.29-.79,1.69-.2,3.44,1.28,4.49,1.09.77,2.34,1.25,3.37,2.14.5.44,1.04.92,1.44,1.46.1.14.17.45.31.51.02.04.05.08.08.11.05-.18.15-.33.32-.42,0,0-8.63,3.48-9.41,3.79-1.65.65-2.6,2.78-1.1,4.18.66.62,1.33,1.24,1.99,1.86.3.28.6.56.9.85l.36.34c.35.41.38.37.09-.14l.34-1.26c-.13.29-.86.64-1.22.88-.68.45-1.37.9-2.05,1.35-1.19.78-2.43,1.64-2.82,3.1-.32,1.21-.06,2.44.63,3.48.32.48.73.9,1.09,1.35.08.1.29.22.11.13.32.17-.16.31.04-.57h4.82c-1.6-5.79-3.21-11.59-4.81-17.38l-2.41,3.16c4.8.38,9.6.82,14.4,1.14,2.26.15,4.51-.53,5.4-2.81.68-1.76.51-3.95.29-5.79-.95-8.01-5.59-14.7-8.15-22.2-1.24-3.63-1.54-8.69-5.52-10.51-1.6-.73-3.87.1-3.76,2.16.22,4.27.44,8.53.66,12.8.11,2.13.22,4.27.33,6.4.05.98.1,1.97.15,2.95.03.49.05.98.08,1.48l.05.98c-.01.45.02.37.11-.23l.9-.9-.21.14,1.26-.34c-1.36.07-2.4.01-3.52.99-.72.63-1.24,1.47-1.74,2.27-1.18,1.87-2.14,3.85-2.31,6.09-.16,2.06.53,4.19,2.01,5.65s3.39,2.08,5.29,2.61l-.6-4.57c-3.2,2.06-3.15,7.06.09,9.12,3.56,2.27,8.13-.39,9.1-4.17l-4.18,1.1c.98,1.01,1.96,2.01,2.95,3.02,2.25,2.31,5.79-1.23,3.54-3.54-.98-1.01-1.96-2.01-2.95-3.02-1.3-1.33-3.71-.71-4.18,1.1-.12.45-.27.79-.68,1.08-.38.26-.71.29-.85.25-.15-.04.08.27-.11-.12-.1-.21-.11-.26-.12-.33-.03-.18,0,.02.02-.3,0,.14.22-.09-.1.11,1.78-1.15,1.53-3.97-.6-4.57-1.07-.3-2.7-.6-3.34-1.63s-.25-2.39.19-3.37c.38-.83.89-1.62,1.39-2.38.06-.09.48-.65.48-.67l-.86.19c.36.09.72.11,1.09.07,2.26-.14,3.01-2.22,2.92-4.17-.36-8.04-.83-16.08-1.25-24.12l-3.76,2.16c1.01.46,1.41,1.29,1.76,2.37.49,1.51.79,3.07,1.28,4.58,1.07,3.3,2.56,6.44,4.01,9.58s2.78,6.05,3.61,9.27c.39,1.5.64,3,.68,4.54.01.53-.24,1.54-.08,2.01s.19-.44.27-.33c-.05-.07-.89-.02-1.03-.03-4.8-.32-9.6-.76-14.4-1.14-1.64-.13-2.82,1.7-2.41,3.16,1.6,5.79,3.21,11.59,4.81,17.38.64,2.3,4.28,2.46,4.82,0,.43-1.93-.43-3.21-1.61-4.63-.17-.2-.18-.34-.24-.2-.09.22-.03.89-.19.8.17.1,2.52-1.66,2.75-1.81,1.9-1.25,4.07-2.67,3.18-5.32-.68-2.04-3.12-3.65-4.63-5.07l-1.1,4.18c2.47-.97,4.94-1.94,7.41-2.91,2.09-.82,4.42-1.52,5.17-3.91s-.71-4.54-2.22-6.13c-.81-.85-1.73-1.59-2.69-2.25-.45-.31-.92-.59-1.4-.85-.21-.11-.43-.22-.64-.33-.56-.38-.45-.13.33.74l-.34,1.26c.59-1.36,1.68-2.64,2.59-3.81s1.85-2.27,2.84-3.34,2.12-2.21,3.25-3.24c.54-.49,1.09-.97,1.64-1.45-.13.11.72-.58.67-.51h-.02c.81-.17.41-.4-1.21-.71l-.34-1.26c.14,1.09-1.71,2.83-2.5,3.47-.25.2-.5.38-.77.55-.16.11-.33.2-.5.29-.23.1-.22.12.04.04.86.28,1.28.74,1.26,1.39l-.23.39c-.15.41-.37-.01.2.19,3.51,1.25,6.96,3.23,10.8,2.18,2.21-.61,2.55-4.44,0-4.82-7.19-1.08-14.63-2.2-20.86-6.2l.9,3.42c.71-1.28,1.48-2.52,2.32-3.72.34-.48.69-.96,1.06-1.43.21-.27.54-.54.7-.85l.28-.33c-.96.23-1.18.35-.67.36l-1.26-.34.15.07-.9-.9.07.13-.25-1.93-.03.19,4.57-.6c-3.23-6.69-6.05-13.56-8.47-20.58-.64-1.85-3.58-2.69-4.57-.6-2.46,5.23-4,10.68-4.68,16.42l4.66-1.26c-2.93-5.42-5.35-11.06-7.26-16.92-.66-2.03-3.43-2.49-4.57-.6-5.3,8.76-6.12,19.19-6.38,29.19-.13,5.13-.18,10.27-.76,15.37-.29,2.52-.75,5.02-1.41,7.47-.3,1.11-.65,2.22-1.05,3.3-.2.55-.41,1.09-.65,1.62-.07.16-.84,1.45-.78,1.58.09.2.75-.05.68-.24-.03-.07-.64-.35-.79-.44-.71-.44-1.39-.9-2.09-1.35-1.39-.9-2.79-1.8-4.18-2.7-2.79-1.8-5.58-3.59-8.37-5.39-1.64-1.05-3.73.34-3.76,2.16-.06,3.13,1.84,6.02,4.56,7.51,3.13,1.71,6.85,1.49,10.17.51.78-.23,1.6-.9,1.75-1.75.57-3.33-1.36-5.35-3.01-7.96-.33-.51-.56-.89-.63-1.32-.02-.1-.07-.09-.04-.24.07-.3.1-.4.29-.66.92-1.25,3.04-1.27,4.42-1.37,1.97-.15,3-1.99,2.16-3.76-.69-1.45-1.38-2.9-2.07-4.34-.16-.34-.7-2.07-1.03-2.17-.05-.31-.17-.13-.35.54-.52.63-.48.79.14.48.36,0,.84-.26,1.17-.36,3.19-.99,6.39-1.98,9.58-2.97,1.69-.52,2.58-2.88,1.1-4.18-1.28-1.13-2.56-2.26-3.84-3.38-1.15-1.01-2.58-1.98-3.52-3.18l.64,1.1.04.03-.34,1.26c1.25-2.61,4.12-4.3,6.99-4.34,3.58-.04,8.4,2.98,11.5-.1,1.51-1.49,1.2-3.77,1.07-5.69-.15-2.19-.44-4.38-.83-6.54-.76-4.12-2.04-8.07-3.67-11.92-1.1-2.6-5.45-.75-4.57,1.93s1.21,5.64.68,8.51h4.82c-1.38-3.54-3.05-6.93-5.1-10.13-1.36-2.12-4.54-1.23-4.66,1.26-.09,1.96-.42,3.86-.99,5.73-.22.73-.46,1.61-.95,2.23-.26.33-.52.48-.65.49-.09,0-.21-.01-.55-.16.31.13-.5-.31-.44-.27-.57-.34-1.11-.74-1.67-1.11-1.35-.9-2.76-1.52-4.41-1.59-1.74-.07-2.7,1.65-2.41,3.16.85,4.46,1.14,8.98.97,13.51l4.27-1.77c-1.89-1.84-3.79-3.67-5.68-5.51-1.72-1.66-3.41-3.61-6-3.58-.99.01-2.25.76-2.41,1.84-.51,3.35-1.01,6.7-1.52,10.05l3.08-1.75c-1.8-.55-3.6-1.1-5.41-1.64-1.91-.58-3.47,1.28-3.08,3.08,1.23,5.62,2.13,11.31,2.67,17.04l4.66-1.26c-2.35-3.14-4.93-6.08-7.84-8.72-1.49-1.35-3.61-2.8-5.43-.99-1.35,1.34-1.49,3.87-1.83,5.65-.79,4.09-1.32,8.25-1.57,12.41-.11,1.89-.29,3.87.4,5.68.74,1.91,2.31,3.2,3.97,4.3,3.56,2.35,7.87,3.51,12.12,3.43,1.67-.03,2.79-1.57,2.41-3.16-1.56-6.61-4.57-12.68-8.73-18.03l-1.77,4.27c5.11.21,10.25-1.01,14.73-3.48,2.13-1.17,5.5-3.1,3.89-6.03-.63-1.15-1.96-2.06-2.91-2.94-1.06-.97-2.12-1.95-3.18-2.92l-1.1,4.18c2.4-.92,4.88-.6,7.37-.31,2.7.31,5.35.53,8.02-.15,2.3-.59,2.19-3.34.6-4.57-3.41-2.62-6.72-5.38-9.94-8.22l-.51,3.93c4.26-1.87,8.57-3.62,12.92-5.25,1.7-.64,2.54-2.76,1.1-4.18-1.92-1.89-3.84-3.79-5.76-5.68l-3.54,3.54c4.88,3.8,10.68,6.07,16.89,6.34,3.11.13,6.3-.3,7.93-3.31s2.12-6.44,1.93-9.7-5.18-3.22-5,0h0Z"/>
      <path class="cls-1" d="M113.63,283.91c1.85-.46,3.67-1.2,5.28-2.23,1.44-.92,3.23-2.18,4.11-3.69.63-1.08.53-2.4-.19-3.4-.62-.86-1.62-1.31-2.51-1.83-1.98-1.14-3.96-2.29-5.94-3.43l-.6,4.57c3.1-.84,6.58-2.41,7.25-5.92.34-1.77-.19-3.47-1.09-4.99-.69-1.16-1.73-2.24-2.19-3.52-.54-1.51.59-3.19,1.21-4.52.87-1.88,1.66-3.81,2.33-5.78,1.31-3.81,2.16-7.74,2.67-11.74.58-4.51.59-9.07.07-13.59l-3.76,2.16c.87.38,1.49.82,1.96,1.65,1.32,2.28,4.45,1.09,4.66-1.26.38-4.27.12-8.53-.67-12.75-.51-2.75-5.13-2.15-4.91.66.55,7.01,2.13,13.87,4.82,20.36l4.57-1.93c-2.91-5.54-4.9-11.47-6.01-17.63l-4.82,1.33c2.38,6.56.4,13.44-.96,20-1.39,6.75-2.15,13.8.96,20.2,1.12,2.31,4.64,1.09,4.66-1.26.05-7.92.1-15.84.15-23.77l-4.91.66c.76,3.14,1.52,6.29,2.28,9.43.38,1.57.76,3.14,1.14,4.72.12.49.35,1.04.27,1.55-.1.59-.68,1.24-.98,1.74-3.13,5.07-4.97,10.84-5.51,16.76-.22,2.45-.82,6.44,1.52,8.08,1.45,1.02,3.42.64,4.38-.87.76-1.2.97-2.87,1.19-4.24,1.03-6.51,1.44-13.17,2.01-19.73.65-7.44,1.21-14.9,1.68-22.35.06-.97-.68-1.94-1.54-2.28-1.01-.41-1.91-.14-2.73.52-4.36,3.46-6.48,9-7.22,14.37-.47,3.37-.51,6.76-.57,10.15-.03,1.71-.07,3.42-.21,5.13-.05.69-.1,1.4-.21,2.08-.05.29-.22.66-.24.95,0-.01,0-.11,0-.11l3.03.39c-.31-.33-.32-1.39-.37-1.83-.12-1.08-.17-2.18-.17-3.27,0-1.96.17-3.93.5-5.86.74-4.29,2.05-8.46,3.48-12.56,2.79-8.01,5.91-15.97,6.29-24.54.13-2.94-4.03-3.23-4.91-.66-3.66,10.64-6.53,21.53-8.6,32.58h4.82c-1.63-8.89-1.46-17.98-1.31-26.98.04-2.31-3.66-3.63-4.66-1.26l-7.65,18.13,4.66,1.26-.32-13.33c-.07-2.8-4.12-3.41-4.91-.66-.74,2.57-1.12,5.24-1.17,7.92-.05,2.94,3.99,3.23,4.91.66,1.59-4.44,2.14-9.24,1.55-13.93-.15-1.23-.83-2.3-2.17-2.46-1.24-.15-2.38.57-2.74,1.79-1.06,3.54-1.13,7.22-.31,10.81.45,1.95,3.7,2.6,4.57.6,2.11-4.84,4.15-9.71,6.11-14.61l-4.91-.66c-.01,2.92-.04,5.85-.04,8.78s.16,5.62,1.21,8.22c.42,1.04,1.22,1.84,2.41,1.84,1.02,0,2.23-.77,2.41-1.84.8-4.81,1.46-10-1.25-14.36-1.15-1.85-3.93-1.47-4.57.6-1.5,4.84-2.94,9.7-4.31,14.58s-3.21,9.69-2.89,14.63c.21,3.26,4.67,3.17,5,0,.56-5.39.56-10.8-.02-16.19-.31-2.87-3.83-3.32-4.91-.66-1.74,4.3-2.98,8.76-3.69,13.34l4.91.66c-.45-5.6-1.81-10.93-4.07-16.07-.85-1.93-4.2-1.43-4.57.6-1.02,5.61-1.8,11.27-2.35,16.95l4.91-.66c-.65-4.59-2.05-8.97-4.03-13.16-.79-1.66-3.51-1.6-4.32,0-2.08,4.13-3.54,8.51-4.22,13.09l4.18-1.1c-2.98-3.12-5.74-6.42-8.25-9.93-.84-1.18-2.82-1.86-3.93-.51-.92,1.14-1.6,2.29-2.07,3.68l4.18-1.1c-2.4-2.48-4.68-5.09-6.76-7.84l-.9,3.42.25-.15-1.26.34.29.03-1.26-.34c.33.17.62.91.83,1.26.41.69.8,1.39,1.16,2.11.67,1.31,1.23,2.64,1.73,4.02.74,2.07,3.33,2.43,4.57.6,1.88-2.8,3.37-5.8,4.56-8.95l-1.75,1.75c5.69-1.04,11.36-2.15,17.02-3.33.95-.2,1.68-1.16,1.79-2.08.13-1.08-.36-1.85-1.19-2.49-2.11-1.63-4.66.11-6.48,1.31-2.13,1.4-4.19,2.91-6.2,4.48-3.85,3.02-7.43,6.37-10.72,10-1.33,1.47-.53,4.47,1.77,4.27,5.25-.46,9.79-3.04,12.89-7.3,1.5-2.06-1.4-4.7-3.42-3.42-5.05,3.19-8.77,8.08-10.48,13.81-.58,1.95,1.28,3.42,3.08,3.08s3.24-1.65,4.36-3.11c.47-.61.88-1.28,1.38-1.87.19-.23.41-.49.65-.68s.95-.31.5-.37l-1.49-3.67c-.93,2.03-1.86,4.06-2.79,6.09-.88,1.92-1.99,3.87-2.64,5.88-.51,1.61-.51,3.58.69,4.89,1.46,1.58,3.73,1.4,5.35.22,3.04-2.21,5.69-5.32,8.12-8.17,2.6-3.05,4.99-6.28,7.14-9.66l-4.32-2.52c-4.39,8.86-6.94,18.46-7.51,28.34-.06,1.02.81,2.21,1.84,2.41,2.85.57,4.11-1.6,4.95-3.93s1.62-4.66,2.35-7.02c1.44-4.64,2.67-9.33,3.72-14.07l-4.91-.66c-.01,3.56-.03,7.12-.04,10.68-.01,3.07-.86,7.34,2.09,9.31,1.06.71,2.86.27,3.42-.9,3.81-7.9,7.63-15.8,11.44-23.7l-4.57-1.93c-.88,4.22-1.12,8.52-.59,12.8.12,1.01.53,1.88,1.54,2.28.84.34,2.11.27,2.73-.52,2.33-2.97,2.88-6.39,3.22-10.06h-5c.22,3.9.44,7.79.66,11.69.08,1.44.34,3.02.12,4.45-.2,1.27-.96,1.45-2.16,1.5-5.17.21-10.41-3.1-12.27-7.97l-3.08,3.08c3.76.91,7.51,1.83,11.27,2.74.2.05,1.37.4,1.41.34l-.78-1.48c-.06.23-.12.46-.2.68-.18.46-.46.93-.76,1.32-.73.93-1.78,1.64-2.92,1.96-2.88.81-5.7-1.12-8-2.63-3.12-2.05-6.27-3.96-9.62-5.6-2.93-1.43-5.09,2.42-2.52,4.32.72.53,1.26,1.58,1.21,2.44-.06.92-.71,1.22-1.62,1.66-2.31,1.13-5.01,1.76-6.43,4.3-.56,1-.38,2.21.39,3.03,2.66,2.83,7.07-1.1,9.23-2.84,2.56-2.07,4.72-4.61,6.49-7.38,1.28-2-1.38-4.96-3.42-3.42-3.44,2.59-6.38,5.68-8.66,9.35-1.87,3.01-5.35,8.67-1.34,11.38l-1.15-2.82c-.82,2.55-1.84,5-3.11,7.36-.11.21-1.06,1.59-.98,1.74l.8-.37-.48-.13c-.32-.19-.83-.22-1.19-.32-1.5-.4-3.01-.81-4.51-1.21l.6,4.57c6.39-3.93,14.61-.48,21.4.27,3.99.44,8.01.41,12.01.13,3.77-.27,7.7-1.05,11.46-.33,3.12.59,4.46-3.92,1.33-4.82-9.45-2.72-16.77-10.13-26.44-12.37l1.1,4.18c4.06-4.99,7.82-10.2,11.23-15.65l-4.66-1.26c-.44,4.18-.09,8.46,1.04,12.52.98,3.56,3.27,8.55,7.89,6.74,3.26-1.28,6.05-4.48,7.84-7.39,1.93-3.15,2.98-6.75,3.12-10.43h-5c.93,7.4,1.87,14.8,2.8,22.2l4.91-.66c-1.55-4.71-3.1-9.42-4.65-14.14-.72-2.2-1.87-4.54-4.59-4.38-2.37.14-4,2.6-5.28,4.34s-2.32,3.74-3.15,5.79c-.15.36-1.01,2.16-.83,2.42-.21-.31,1.16-.15.52-.45-.19-.09-.56,0-.78,0-.59-.01-1.17-.05-1.76-.09-3.7-.3-7.42-1.33-10.77-2.94-4.08-1.97-7.65-4.71-10.6-8.15l-3.03,3.93c8.05,4.92,16.63,8.96,25.55,12.05,1.07.37,2.15.73,3.23,1.07s2.3.81,3.5.66c3.11-.39,3.14-3.47,2.68-5.87-.42-2.19-1.23-4.33-2.29-6.29s-2.44-4.18-4.81-4.63c-2.53-.49-5.31,1.02-7.58,1.97-2.67,1.11-5.28,2.34-7.83,3.71-1.1.59-1.68,2.36-.9,3.42,2.84,3.84,7.58,4.32,11.94,3.23,3.24-.81,8.4-3.5,11.26-.47l1.1-4.18c-3.54,1.12-7.14,2.04-10.79,2.72-1.66.31-3.33.61-5.01.77-.67.07-2.82.35-3.14-.31l.34,1.26-.03.11c1.03-3.06-3.8-4.37-4.82-1.33-.89,2.63,1.7,4.57,3.96,5.1s4.38.11,6.53-.2c4.85-.7,9.62-1.82,14.29-3.3,1.82-.57,2.42-2.78,1.1-4.18-3.18-3.38-8.09-3.15-12.2-1.97-2.09.6-4.2,1.5-6.4,1.53-1.28.02-2.99-.19-3.82-1.31l-.9,3.42c1.94-1.04,3.91-2.02,5.93-2.9.95-.42,1.92-.81,2.89-1.18.79-.3,2.04-1,2.91-1,.14,0,.27-.01.08-.1.33.16.64.8.82,1.08.53.82,1.01,1.68,1.39,2.58.36.83.63,1.69.86,2.56.11.41.2.81.28,1.23.05.27.1.55.14.83,0,.2.02.12.07-.25l.9-.9c.37-.25,1.08.06.16-.22-.29-.09-.58-.18-.87-.27-.65-.2-1.3-.41-1.94-.62-1.29-.43-2.58-.87-3.85-1.34-2.56-.94-5.1-1.96-7.59-3.08-5.04-2.25-9.92-4.84-14.63-7.71-2.54-1.55-4.81,1.85-3.03,3.93,5.16,6.01,12.41,10.27,20.17,11.88,2,.41,4.06.68,6.1.75,2.5.09,4.49-.52,5.41-3.04.65-1.78,1.23-3.47,2.19-5.11.48-.82,1-1.62,1.59-2.37.3-.38.61-.74.93-1.1.07-.08.57-.56.56-.59-.01-.05-1.37-.18-1.37-.19-.07.12.48,1.37.52,1.49.2.62.41,1.24.61,1.85.43,1.31.86,2.63,1.3,3.94.86,2.63,1.73,5.25,2.59,7.88.39,1.18,1.48,1.98,2.74,1.79,1.1-.17,2.33-1.21,2.17-2.46-.93-7.4-1.87-14.8-2.8-22.2-.17-1.34-1.03-2.5-2.5-2.5s-2.45,1.15-2.5,2.5c-.19,4.99-2.82,9.96-7.02,12.73-.19.13-.6.48-.82.49.06,0,.17-.06.23-.01-.21-.15-.45-.65-.57-.9-.61-1.26-.93-2.75-1.24-4.11-.7-3.17-.8-6.41-.47-9.63.27-2.61-3.45-3.19-4.66-1.26-3.19,5.09-6.66,9.98-10.45,14.64-1.11,1.37-.89,3.72,1.1,4.18,9.61,2.22,16.98,9.65,26.44,12.37l1.33-4.82c-4.29-.82-8.49-.15-12.79.15s-8.35.33-12.48-.18c-7.83-.97-16.1-4.06-23.45.47-1.8,1.11-1.52,4,.6,4.57,1.9.51,3.8,1.03,5.7,1.53,2.37.62,4.13.18,5.43-1.99,1.9-3.15,3.36-6.6,4.48-10.1.35-1.11-.25-2.22-1.15-2.82.41,1.08.61,1.36.59.83-.01-.16,0-.2.01-.12.14-.26.22-.7.33-.98.22-.55.47-1.09.73-1.62.68-1.39,1.48-2.73,2.36-4.01,1.63-2.35,3.69-4.48,5.97-6.2l-3.42-3.42c-1.22,1.92-2.67,3.64-4.34,5.19-.78.72-1.59,1.39-2.46,2-.44.31-.89.6-1.34.88-.28.18-.57.34-.86.51-.12.07-.23.13-.35.2-.41.19-.21.2.58,0l1.1.64-.19-.2.39,3.03c.27-.48.5-.66,1.15-1.01.59-.31,1.01-.45,1.63-.7,1.71-.68,3.38-1.41,4.56-2.89,2.81-3.52,1-8.22-2.28-10.64l-2.52,4.32c2.13,1.04,4.21,2.16,6.23,3.4,1.87,1.15,3.65,2.45,5.55,3.54,3.82,2.17,8.29,3.07,12.25.69,2.72-1.64,7.56-7.57,3.59-10.35-.98-.68-2.22-.85-3.36-1.13s-2.35-.57-3.52-.86c-2.43-.59-4.85-1.18-7.28-1.77-1.7-.41-3.79,1.2-3.08,3.08,2.66,6.99,9.82,12.16,17.45,11.62,2.18-.15,4.28-.81,5.58-2.67,1.15-1.64,1.32-3.73,1.24-5.67-.2-4.76-.53-9.52-.8-14.28-.18-3.25-4.71-3.18-5,0-.2,2.15-.36,4.75-1.75,6.52l4.27,1.77c-.47-3.83-.38-7.69.41-11.47.25-1.21-.25-2.47-1.45-2.95-1.07-.43-2.57-.12-3.12,1.02-3.81,7.9-7.63,15.8-11.44,23.7l3.42-.9c.06.04.41.51.39.53.05-.05-.02-.8-.03-.91,0-.73,0-1.46,0-2.18,0-1.46.01-2.91.02-4.37.01-2.91.02-5.82.03-8.74.01-2.76-4.29-3.47-4.91-.66-.86,3.89-1.84,7.74-2.96,11.56-.54,1.83-1.11,3.66-1.71,5.47-.3.91-.61,1.81-.92,2.71-.18.53-.36,1.06-.56,1.57-.05.12-.09.25-.12.39-.31.48-.19.44.37-.12h1.33l-.29-.06,1.84,2.41c.52-8.96,2.84-17.78,6.83-25.82,1.42-2.87-2.58-5.26-4.32-2.52-3.19,5-6.91,9.61-11.14,13.78-.52.51-1.05,1.02-1.58,1.51-.19.18-1.14.8-1.15,1.07l1.53.9c.01.18.01.17.01-.01.05-.07.02-.18.06-.38.11-.45.41-1.03.67-1.6,1.45-3.16,2.89-6.32,4.34-9.48.58-1.27.26-3.43-1.49-3.67-2.48-.34-4.53.57-6.14,2.49-.96,1.14-1.83,3.24-3.4,3.55l3.08,3.08c1.33-4.47,4.24-8.32,8.18-10.82l-3.42-3.42c-1.98,2.71-5.24,4.53-8.57,4.82l1.77,4.27c2.79-3.09,5.8-5.98,9.01-8.63,1.53-1.26,3.1-2.46,4.72-3.59.84-.59,1.68-1.16,2.54-1.72.34-.22,1.06-.5,1.29-.82.39-.56.39.23-.23-.24l.6-4.57c-4.77,1-9.55,1.94-14.34,2.84-1.2.22-2.87.23-3.78,1.14-.75.75-.98,2.05-1.41,3-.92,2.05-2.03,4-3.29,5.86l4.57.6c-.83-2.33-1.84-4.61-3.06-6.76s-3.15-5.2-6.03-3.5c-1.06.63-1.72,2.34-.9,3.42,2.35,3.1,4.84,6.06,7.55,8.86,1.37,1.42,3.59.62,4.18-1.1.18-.52.43-1.04.78-1.47l-3.93-.51c2.75,3.86,5.75,7.52,9.03,10.95,1.19,1.25,3.89.79,4.18-1.1.62-4.14,1.83-8.15,3.72-11.9h-4.32c1.79,3.78,2.94,7.83,3.53,11.96.17,1.21,1.65,1.95,2.74,1.79,1.3-.2,2.04-1.18,2.17-2.46.51-5.24,1.24-10.44,2.18-15.62l-4.57.6c1.87,4.27,3.01,8.9,3.38,13.55.1,1.24.87,2.3,2.17,2.46,1.11.13,2.55-.55,2.74-1.79.71-4.58,1.94-9.05,3.69-13.34l-4.91-.66c.58,5.39.59,10.8.02,16.19h5c-.15-2.31.31-4.5.89-6.72.62-2.36,1.28-4.7,1.95-7.05,1.34-4.72,2.73-9.42,4.18-14.11l-4.57.6c1.95,3.14,1.33,7.05.75,10.5h4.82c-.95-2.38-1.03-4.82-1.03-7.35,0-2.77.02-5.55.04-8.32,0-1.23-.95-2.31-2.17-2.46-1.32-.16-2.27.6-2.74,1.79-1.8,4.5-3.67,8.97-5.6,13.42l4.57.6c-.63-2.73-.5-5.47.31-8.15l-4.91-.66c.54,4.31.09,8.51-1.37,12.6l4.91.66c.03-2.26.36-4.41.99-6.59l-4.91-.66.32,13.33c.03,1.1.76,2.11,1.84,2.41.97.27,2.4-.15,2.82-1.15l7.65-18.13-4.66-1.26c-.16,9.47-.23,18.96,1.49,28.31.44,2.39,4.38,2.38,4.82,0,2.07-11.06,4.94-21.95,8.6-32.58l-4.91-.66c-.38,8.88-4.11,17.13-6.87,25.45-1.44,4.34-2.61,8.76-3.14,13.31-.25,2.17-.33,4.36-.17,6.54s.32,4.59,1.92,6.3c.78.83,2.07.9,3.03.39,2.99-1.58,2.86-5.8,3.01-8.7.18-3.5.08-7.02.33-10.52.37-5.25,1.81-10.73,6.11-14.14l-4.27-1.77c-.48,7.54-1.04,15.07-1.71,22.6-.33,3.72-.68,7.44-1.05,11.16-.18,1.79-.36,3.58-.56,5.37-.09.84-.2,1.68-.36,2.52-.09.45-.18.9-.3,1.34l-.12.44c-.19.58-.17.59.06.03l1.1-.64-.26.06h1.33l-.24-.07,1.1.64c.26.22.03.62.07-.02.03-.43-.02-.87-.02-1.3,0-.87.04-1.73.11-2.6.13-1.65.41-3.29.79-4.9.78-3.25,2.02-6.34,3.73-9.21.92-1.54,2.03-3.02,2.02-4.9s-.71-3.81-1.15-5.62c-.91-3.77-1.82-7.55-2.73-11.32-.67-2.77-4.89-2.13-4.91.66-.05,7.92-.1,15.84-.15,23.77l4.66-1.26c-2.79-5.74-1.29-12.55,0-18.48,1.46-6.7,2.91-13.86.5-20.53-1.1-3.04-5.39-1.84-4.82,1.33,1.18,6.57,3.41,12.91,6.51,18.82,1.29,2.45,5.67.72,4.57-1.93-2.52-6.07-4.13-12.48-4.65-19.03l-4.91.66c.7,3.77.83,7.6.49,11.42l4.66-1.26c-.87-1.5-2.16-2.75-3.76-3.44-1.51-.65-4.01.05-3.76,2.16,1.07,9.26-.16,18.76-3.84,27.36-.96,2.23-2.31,4.38-2.54,6.84-.21,2.16.69,4.06,1.87,5.8.49.72,1.06,1.43,1.42,2.22.18.4.33.69.21,1.03-.42,1.19-2.57,1.67-3.69,1.97-2.07.56-2.46,3.49-.6,4.57,1.27.74,2.55,1.47,3.82,2.21.57.33,1.13.65,1.7.98.53.31,1.31.6,1.73,1.04l-.64-1.1.09.31v-1.33l-.1.31.64-1.1c-1.68,2.13-4.19,3.48-6.79,4.13-3.12.77-1.8,5.6,1.33,4.82h0Z"/>
      <path class="cls-1" d="M79.27,197.15c-1.87,1.49-3.96,2.71-6.12,3.73l3.76,2.16c-.35-3.08-.46-6.18-.33-9.28.05-1.23-.99-2.32-2.17-2.46-1.33-.16-2.25.61-2.74,1.79-1.43,3.45-1.92,9.17,2.5,10.73,4.78,1.69,6.59-4.76,8.02-7.93h-4.32c.72,1.18,1.43,2.35,2.15,3.53s1.32,2.5,2.26,3.45,2.29,1.45,3.61,1.07,2.44-1.75,2.34-3.19l-3.76,2.16.22.14-.9-.9c-.27-.39.59-1.22.21-1.58-.03-.03-.91.23-.88.23-.59.14-1.19.23-1.79.29-1.36.14-2.72.2-4.08.37-2.99.38-5.67,1.43-8.4,2.67-5.17,2.35-10.35,3.95-16.06,4.08l2.41,3.16c1.3-4.19,3.17-8.11,5.58-11.77l-3.93.51c.35.39.4,1.06.51,1.56.18.75.37,1.43.7,2.14.66,1.42,1.9,2.66,3.49,2.93,1.27.21,2.77-.32,3.08-1.75.27-1.26.4-2.68.9-3.86l-.64,1.1-.08.04-1.26.34h.29c-.42-.1-.84-.21-1.26-.33.7.33,1.26.75,2.05.89.86.16,1.76-.02,2.54-.42,1.45-.76,2.36-2.15,3.19-3.5,1.74-2.83,3.09-5.92,4.05-9.1l-3.08,1.75c.7.28,1.16.89,1.51,1.53l3.93-3.03c-1.85-2.06-4.33-4.18-7.28-4.1-3.21.09-5.06,2.79-6.95,5-4.21,4.92-8.41,9.85-12.62,14.77-.88,1.03-1.01,2.53,0,3.54.9.9,2.65,1.03,3.54,0,3.57-4.18,7.14-8.35,10.7-12.53.85-1,1.7-1.99,2.56-2.99.7-.82,1.39-1.9,2.27-2.53,1.44-1.03,3.41,1.46,4.24,2.38,1.95,2.16,5.26-.6,3.93-3.03-1.02-1.86-2.56-3.04-4.5-3.82-1.28-.52-2.72.57-3.08,1.75-.5,1.64-1.09,3.24-1.84,4.79-.39.8-.81,1.59-1.25,2.36-.22.38-.45.76-.69,1.14-.16.25-.59.67-.67.96-.1.35-.52.11.15.22.91.15-.32-.39-.48-.44-1.04-.38-2.14-.27-3.02.43-1.51,1.2-1.6,3.64-1.97,5.39l3.08-1.75c-.58-.1-.01.26-.16,0-.11-.19-.09-.11-.19-.32-.22-.43-.28-.97-.39-1.44-.32-1.36-.82-2.53-1.76-3.58-1.13-1.26-3.09-.77-3.93.51-2.63,4.01-4.66,8.39-6.08,12.97-.48,1.53.82,3.2,2.41,3.16,3.67-.08,7.35-.62,10.86-1.66s6.48-2.71,9.77-3.98c1.53-.59,3.1-1.04,4.73-1.21,1.8-.18,3.62-.25,5.41-.56s3.63-.82,4.61-2.39c1.06-1.71.4-3.75-1.18-4.81s-3.89.31-3.76,2.16l.02.25.34-1.26,1.11-.68,1.26.34c-.5-.23-1.25-1.9-1.61-2.5-.72-1.18-1.43-2.35-2.15-3.53-.89-1.47-3.51-1.79-4.32,0-.57,1.28-1.15,2.55-1.72,3.83-.24.54-.47,1.09-.77,1.6-.25.43-.72.73.42.32.33-.12.19.4.04-.09-.02-.05-.06-.09-.07-.13-.17-.44-.2-.83-.17-1.29.06-1.1.48-2.18.9-3.2l-4.91-.66c-.13,3.1-.02,6.2.33,9.28.22,1.95,1.93,3.02,3.76,2.16,2.57-1.21,4.91-2.74,7.13-4.51,1.06-.84.88-2.66,0-3.54-1.04-1.04-2.47-.84-3.54,0h0Z"/>
      <path class="cls-1" d="M77.91,207.14c-3.1,2.95-6.4,5.66-9.91,8.1l3.67,1.49c-.65-3.12-.26-6.23.92-9.18l-3.08,1.75c.82.29,1.58,1.06,2.15,1.9.8,1.18,1.42,2.47,2.1,3.72.73,1.34,1.55,2.65,2.59,3.77.5.54,1.09,1.09,1.72,1.47,1.14.69,2.33.38,3.41-.26,1.49-.88,2.2-2.4,3.52-3.42.12-.09.54-.26.63-.34.64-.54-.1.63-.15-.16.03.42,1.09,1.32,1.49,1.54,1.03.57,2.3.57,3.33,0,.35-.19.66-.47.94-.75.26-.26.52-.86.77-.98.81-.38,2.03.98,2.66,1.6,1.07,1.05,3.21.98,3.93-.51.88-1.83,1.93-3.54,3.17-5.14l-3.93.51c2.43,2.47,5.56,7.18,9.45,4.54,2.77-1.88,4.63-5.27,5.2-8.51.43-2.41-2.25-4.21-4.18-2.43-2.18,2.01-4.36,4.03-6.61,5.97-2.09,1.81-4.21,3.7-6.58,5.15-1.01.62-2.05,1.14-3.21,1.38-.32.07-2.05.12-1.91-.15.03-.06.26.4.22.4.02,0,.15-.55.19-.66.22-.68.46-1.34.7-2.01.53-1.52,1.06-3.05,1.58-4.57l-4.18,1.1c5.25,4.32,13.57,3.16,17.19-2.72l-3.93.51c2.21,1.84,2.07,5.13,2.67,7.72.68,2.93,2.41,6.48,5.65,7.21,3.72.83,5.7-4.45,6.36-7.23.79-3.31.71-6.75.46-10.12l-4.91.66c1.09,5.05,2.5,10.03,4.22,14.91.8,2.28,4.09,2.47,4.82,0,1.87-6.32,3.32-12.76,4.34-19.27l-4.18,1.1c2.42,2.91,4.68,5.93,6.78,9.07,1.43,2.13,4.44,1.22,4.66-1.26l.77-8.7-4.66,1.26c3.32,4.54,7.73,7.87,12.24,11.15,1,.72,2.54.27,3.23-.64.77-1.02.66-2.34-.2-3.28-1.52-1.68-3.04-3.37-4.57-5.05-1.35-1.49-3.59-.56-4.18,1.1-1.39,3.95-1.01,8.18.76,11.93,1.25,2.64,5.21.73,4.57-1.93-.55-2.29-1.74-4.34-3.44-5.97l-2.43,4.18c4.02.75,9.21,1.55,11.84,5.08l3.93-3.03c-1.31-1.42-2.62-2.85-3.93-4.27-1.4-1.52-3.52-.52-4.18,1.1-1.88,4.65-3.34,9.45-4.36,14.36l4.18-1.1c-2.06-2.11-3.41-4.85-3.67-7.81l-4.27,1.77c1.9,1.5,2.72,3.61,3.44,5.85.83,2.56,1.57,5.19,3.01,7.5.93,1.49,3.46,1.76,4.32,0,.24-.49.48-.99.72-1.48l-4.66-1.26c.1,4.3.19,8.6.29,12.9.05,2.15.1,4.3.15,6.45.04,1.77.12,3.7,1.46,5.04,1.46,1.46,3.79,1.39,5.26-.02,1.35-1.29,1.79-3.38,2.32-5.1,1.22-3.99,2.09-8.07,2.65-12.2l-4.91-.66c.25,2.31.49,4.62.74,6.94.34,3.15,4.86,3.28,5,0,.24-5.57.35-11.14.3-16.72-.04-5.06.38-10.78-1.61-15.54-.39-.94-.99-1.66-2.08-1.79-.93-.11-2.04.29-2.49,1.19-1.4,2.8-1.07,5.6-.9,8.61.1,1.79-.01,3.87-1.67,4.6l3.76,2.16c.15-2.61-.19-5.23-1.01-7.71-.87-2.65-4.85-2.22-4.91.66-.16,7.3-.33,14.59-.49,21.89-.08,3.68-.07,7.33.51,10.98s1.62,6.98,3,10.29l3.08-3.08c-1.1-.17-2-.52-2.82-1.29l-3.03,3.93c.99.42,1.75,1,2.09,2.05l3.08-3.08c-1.07-.44-2.36-1.14-3.09-2.06l.64,1.1v.07c-.1.42-.22.84-.33,1.26.43-.98,1.19-1.85,1.75-2.77.6-.98,1.16-1.98,1.67-3.01,1.06-2.11,1.96-4.32,2.67-6.57,1.4-4.45,2.05-9.15,1.95-13.81-.07-3.22-4.89-3.21-5,0-.13,3.73-.06,7.59,1.95,10.87.84,1.38,2.76,1.65,3.93.51,1.68-1.66,1.54-3.91,1.05-6.05-.58-2.5-1.17-4.99-1.76-7.49-1.15-4.9-2.18-9.86-3.6-14.69-.61-2.08-1.24-4.34-2.48-6.15-.66-.96-1.44-1.68-2.38-2.36-.69-.49-1.58-.87-2.13-1.54-.99-1.21-.81-3.37-1.03-4.83-.31-2.08-1.19-3.93-2.84-5.28-3.92-3.22-9.34-6.17-14.56-5.56-1.03.12-2.19.68-2.41,1.84-.65,3.45.89,6.98,3.98,8.74,1.47.84,3.1,1.12,4.78.94.67-.07,1.34-.19,2.02-.24.3-.02.66.04.95-.01-.17-.02-.11,0,.2.07-.17,0-.3-.1-.38-.29.81,1.08,2.16,1.63,3.42.9,1.06-.62,1.71-2.34.9-3.42-1.03-1.37-2.26-2.11-3.99-2.24-1.28-.1-2.51.24-3.78.3-1.76.09-3.63-1.56-3.28-3.41l-2.41,1.84c3.97-.47,7.44,1.64,10.59,3.8,1.26.87,1.76,1.72,1.97,3.24.26,1.85.31,3.66,1.12,5.39s2.34,2.75,3.89,3.78c1.38.91,1.91,2.33,2.41,3.84,1.37,4.11,2.27,8.37,3.26,12.58.59,2.5,1.17,4.99,1.76,7.49.3,1.29.61,2.58.91,3.86.07.29.32,1.39.29,1.43l3.93.51c-1.53-2.51-1.36-5.52-1.26-8.35h-5c.12,5.72-.98,11.48-3.38,16.69-.6,1.3-1.27,2.57-2,3.8s-1.86,2.38-2.23,3.73c-.92,3.34,3.59,5.37,6.02,6.37,1.77.73,3.62-1.4,3.08-3.08-.71-2.2-2.22-4.12-4.38-5.04-1.15-.49-2.42-.43-3.23.64-.72.97-.73,2.41.2,3.28,1.4,1.33,3.1,2.27,5.02,2.58,1.62.26,3.89-1.11,3.08-3.08-1.35-3.23-2.39-6.59-2.96-10.05s-.44-6.93-.36-10.38c.16-7.13.32-14.26.48-21.4l-4.91.66c.69,2.11.96,4.17.83,6.38-.12,2.08,2.17,2.86,3.76,2.16,2.71-1.19,3.84-4.15,4.11-6.91.25-2.56-.94-5.71.25-8.1l-4.57-.6c.9,2.14,1.18,4.35,1.27,6.65.11,2.68.14,5.38.16,8.06.04,5.41-.07,10.82-.3,16.22h5c-.25-2.31-.49-4.62-.74-6.94-.13-1.24-.85-2.3-2.17-2.46-1.1-.13-2.57.54-2.74,1.79-.44,3.27-1.08,6.51-1.94,9.7-.41,1.52-.84,3.03-1.36,4.51-.03.09-.24.51-.22.6-.1.07-.12.13-.06.16l1.13-.2c1.18.16.67.95.67.32,0-.28-.04-.2-.05-.37-.28-3.32-.16-6.74-.23-10.07s-.16-6.95-.24-10.42c-.05-2.34-3.52-3.59-4.66-1.26-.24.49-.48.99-.72,1.48h4.32c-2.86-4.6-2.69-10.78-7.23-14.36-.81-.64-1.72-.96-2.73-.52-.84.37-1.62,1.29-1.54,2.28.38,4.31,2.1,8.24,5.13,11.34,1.26,1.29,3.79.76,4.18-1.1,1.03-4.91,2.48-9.71,4.36-14.36l-4.18,1.1c1.31,1.42,2.62,2.85,3.93,4.27,1.88,2.05,5.65-.72,3.93-3.03-3.58-4.79-9.21-6.33-14.83-7.38-2.31-.43-4.37,2.33-2.43,4.18,1.12,1.06,1.8,2.26,2.16,3.76l4.57-1.93c-1.21-2.57-1.19-5.44-.26-8.08l-4.18,1.1,4.57,5.05,3.03-3.93c-3.77-2.74-7.67-5.56-10.45-9.36-1.49-2.03-4.43-1.29-4.66,1.26l-.77,8.7,4.66-1.26c-2.34-3.49-4.87-6.85-7.57-10.08-1.14-1.37-3.9-.7-4.18,1.1-1.02,6.51-2.47,12.95-4.34,19.27h4.82c-1.72-4.88-3.13-9.85-4.22-14.91-.59-2.72-5.12-2.17-4.91.66.18,2.38.32,4.82.01,7.2-.14,1.1-.4,2.21-.79,3.25-.23.62-.78,2.07-1.34,2.32l1.26-.34c.42.19.49.22.22.07-.15-.08-.3-.17-.44-.27-.15-.12-.37-.38-.47-.53-.2-.28-.4-.68-.54-.99-.55-1.25-.74-2.68-.96-4.01-.47-2.86-1.24-5.87-3.57-7.8-1.24-1.03-3.02-.96-3.93.51-1.85,3.01-6.63,3.93-9.33,1.71-1.49-1.22-3.53-.78-4.18,1.1s-1.27,3.65-1.9,5.48-1.16,3.53-.19,5.28c1.68,3.02,5.79,3.05,8.65,2.04,3.43-1.22,6.27-3.65,9.03-5.96s5.63-4.95,8.39-7.49l-4.18-2.43c-.34,1.94-1.12,3.7-2.52,5.12-.19.19-.38.37-.57.54-.43.22-.16.28.8.18.04-.12-1.16-1.17-1.29-1.3-.91-.92-1.81-1.85-2.72-2.77-1.24-1.27-2.97-.73-3.93.51-1.24,1.61-2.29,3.31-3.17,5.14l3.93-.51c-1.66-1.62-3.63-3.22-6.09-3.12-1.25.05-2.48.45-3.41,1.3-.25.23-1.02.91-1.01,1.22,0-.09,2.04.25,2.07.18.06-.13-.6-.81-.68-.89-1.67-1.8-4.27-1.74-6.3-.58-.88.5-1.59,1.22-2.25,1.98-.47.54-1.03,1.47-1.75,1.73l1.93.25c-1.73-1.23-2.75-3.84-3.88-5.84-1.42-2.52-3.2-4.62-5.99-5.6-1.37-.49-2.6.57-3.08,1.75-1.51,3.77-1.75,7.87-.92,11.84.31,1.5,2.39,2.38,3.67,1.49,3.86-2.68,7.52-5.64,10.92-8.88,2.34-2.22-1.2-5.75-3.54-3.54h0Z"/>
      <path class="cls-1" d="M30.58,228.52l-.56,12.87c-.06,1.35,1.19,2.5,2.5,2.5,1.47,0,2.36-1.15,2.5-2.5.94-9.03,1.88-18.07,2.82-27.1.29-2.81-4.28-3.38-4.91-.66-2.25,9.61-4.5,19.22-6.74,28.83-.66,2.83,2.97,4.24,4.57,1.93l2.49-3.61,1.11-1.6c.21-.31.57-.65.69-1,.15-.43.31-.03-.18.06h-1.33c-.32-.3-.33-.29-.01.03.19.21.38.43.57.64.37.43.74.87,1.1,1.32.66.84,1.28,1.73,1.86,2.63,1.24,1.92,2.3,3.95,3.2,6.06.43,1,1.86,1.41,2.82,1.15,1.14-.31,1.71-1.3,1.84-2.41.32-2.77.42-5.54.29-8.33s-4.08-3.42-4.91-.66-1.47,5.47-1.93,8.26c-.23,1.38-.42,2.78-.57,4.17-.08.7-.14,1.41-.2,2.11-.02.2-.11.84-.06.92.01.02.12-.19.05-.14l1.1-.64c.59-.19.54.02-.06-.37-.27-.17-.47-.33-.71-.55l-1.77,4.27c.5.01.71.6.83,1.01s.14.86.14,1.31c0,.3,0,.6-.03.9-.06.6-.04.59.07-.01l.9-.9c.3-.22.41.02-.04-.11-.36-.11-.76-.12-1.13-.18-.75-.12-1.5-.25-2.25-.41-1.47-.3-2.98-.67-4.36-1.27-1.99-.86-3.86-2.21-4.92-4.14-1.18-2.15-1.07-4.8-.47-7.1.37-1.41.91-2.75,1.54-4.05.3-.61.61-1.22.94-1.82.27-.51.6-1.4.97-1.79l-1.1.64.27-.11h-1.33l.32.08-1.1-.64c.44.41.74,1.38.94,1.95.31.86.56,1.75.74,2.65.34,1.72.32,3.49.11,5.23l2.5-2.5c.94.11.68.39.41-.42-.23-.68-.37-1.41-.5-2.12-.27-1.42-.35-2.87-.31-4.32.06-2.81.68-5.65,1.83-8.22l-4.66-1.26c.06,4.3-.32,8.59-1.23,12.8-.43,1.98-1.06,4.05-.38,6.06s2.63,3.64,4.81,3.42c1.34-.14,2.5-1.05,2.5-2.5,0-1.25-1.15-2.64-2.5-2.5-.77.08-.06.08-.07.05,0-.03-.05-.09-.03-.13.08-.16-.02-.63,0-.83.04-.36.15-.72.23-1.08.37-1.65.7-3.3.95-4.97.51-3.42.76-6.86.72-10.32-.03-2.3-3.59-3.63-4.66-1.26-1.77,3.93-2.7,8.16-2.49,12.48.18,3.75.72,9.58,5.38,10.11,1.45.16,2.35-1.29,2.5-2.5.3-2.46.13-4.97-.47-7.38-.52-2.11-1.54-5.9-3.89-6.62-3.09-.94-4.43,2.72-5.52,4.89-1.15,2.3-2.17,4.73-2.59,7.28-.8,4.93.51,9.87,4.51,13.07s9.13,4.44,13.97,4.77c3.81.26,4.19-3.73,3.77-6.57-.45-3.04-2.65-5.57-5.84-5.66-2.09-.06-3.39,2.83-1.77,4.27s4.07,3.21,6.23,1.95c1.94-1.13,1.87-3.46,2.04-5.42.37-4.25,1.24-8.43,2.47-12.51l-4.91-.66c.12,2.78.02,5.56-.29,8.33l4.66-1.26c-1.79-4.18-4.29-8.4-7.5-11.66-2.09-2.11-4.57-1.52-6.2.73-1.52,2.1-2.96,4.27-4.43,6.41l4.57,1.93,6.74-28.83-4.91-.66c-.94,9.03-1.88,18.07-2.82,27.1h5l.56-12.87c.14-3.22-4.86-3.21-5,0h0Z"/>
      <path class="cls-1" d="M140.46,261.9c-1.67-1.76-1.34-4.45-.37-6.48,1.32-2.74,4.19-4.94,4.11-8.21-.04-1.64-.81-2.99-1.36-4.48-.5-1.36-.85-2.8-1.03-4.24-.4-3.15-.2-6.37-.02-9.54h-5c-.06,8.62-.12,17.24-.18,25.87-.02,2.25,2.7,3.18,4.27,1.77,2.86-2.58,4.12-6.36,4.98-10.01,1-4.24,1.4-8.6.29-12.86-1.02-3.92-3.08-7.5-5.19-10.91-1.01-1.63-2.08-3.39-3.86-4.26-1.92-.94-4.34-.5-5.55,1.36-1.1,1.69-.89,3.97.05,5.68.45.83,1.11,1.52,1.78,2.18.49.49,1.22,1.01,1.47,1.68l4.18-2.43c-3.09-2.43-6.18-4.87-9.27-7.3l.39,3.03c1.02-1.9,2.68-2.96,4.79-3.28l-2.43-4.18c-1.41,1.18-3.36,1.59-4.86,2.67s-2.69,2.37-3.61,3.92c-1.85,3.12-2.37,7.01-1.27,10.48.49,1.55,2.22,2.31,3.67,1.49,2.65-1.48,4.29-4.01,5.67-6.62,1.17-2.22,2.25-4.86,4.32-6.22,2.68-1.75.18-6.09-2.52-4.32s-4.13,4.2-5.52,6.87c-1.18,2.26-2.27,4.74-4.47,5.97l3.67,1.49c-.78-2.46-.36-5.09,1.13-7.21,1.79-2.53,5.02-3.07,7.32-5,.84-.7.91-2.13.39-3.03-.6-1.03-1.71-1.32-2.82-1.15-3.29.49-6.22,2.66-7.78,5.58-.47.88-.49,2.34.39,3.03,3.09,2.43,6.18,4.87,9.27,7.3.89.7,1.99,1,3.03.39.9-.52,1.53-1.8,1.15-2.82-.7-1.88-1.97-2.95-3.26-4.4-.33-.38-.45-.68-.61-1.06,0,.17,0,.09,0-.22,0,.06,0,.11-.05.16-.04.01-1.06.68-1.02.34.02-.15.73.61.66.54.26.29.45.59.66.92.52.81,1.02,1.63,1.51,2.45,1.01,1.67,1.98,3.39,2.75,5.19,1.55,3.66,1.86,7.45,1.13,11.35-.64,3.38-1.43,7.27-4.09,9.67l4.27,1.77c.06-8.62.12-17.24.18-25.87.02-3.24-4.82-3.19-5,0-.19,3.4-.34,6.8.1,10.19.22,1.67.54,3.32,1.12,4.91.42,1.14,1.57,2.69,1,3.91-.61,1.31-1.76,2.4-2.52,3.63-.88,1.43-1.61,3.04-1.95,4.69-.68,3.28.04,6.68,2.37,9.15s5.75-1.2,3.54-3.54h0Z"/>
      <path class="cls-1" d="M56.04,221.93c-3.25,2.56-6.23,5.44-8.87,8.63-1.28,1.55-2.82,3.19-3.18,5.23s.64,3.6,1.91,5.06c.2.23.42.44.6.68.01.02.34.33.21.33-.04-.13-.02-.27.04-.4l-.07.13c-.2,0-1.05,1.05-1.21,1.21-1.41,1.38-3.78,3-4.32,4.98-.6,2.17,1.11,3.98,1.56,6,.4,1.76.1,3.5-.56,5.15l4.91.66c.19-4.01.38-8.05,0-12.06s-1.37-7.66-1.84-11.53c-.77-6.39.7-12.74,4.17-18.17,1.85-2.9,4.27-5.46,7.11-7.42l-3.42-3.42c-2.86,5.34-6.07,10.48-9.62,15.4h4.32c-1.46-2.23-3.36-4.86-3.09-7.68.19-2.06,1.68-4.05,3.63-4.76l-3.08-1.75c.61,2.78.35,5.76-.82,8.36l3.42-.9c-2.1-1.25-3.54-3.49-3.57-5.96-.03-2.17,1.19-5.29,3.41-6.13.69-.26,1.5-.11,2.21-.1s1.46-.02,2.19-.09c1.55-.16,3.08-.44,4.55-.93,3.08-1.02,5.86-2.7,8.2-4.95.89-.85.95-2.34.2-3.28-.7-.88-2.22-1.41-3.23-.64-2.51,1.91-5.05,3.81-7.65,5.59-2.31,1.57-4.63,2.82-7.37,3.46-2.9.67-5.9.87-8.74,1.78s-5.14,2.35-7.38,4.16c-2.1,1.69-3.94,3.68-5.74,5.68-1.91,2.13-3.82,4.32-5.28,6.79-2.92,4.93-3.84,11.33-.25,16.18,3.86,5.22,10.98,6.68,16.6,3.38,2.77-1.63.26-5.95-2.52-4.32-3.5,2.06-8.08,1.16-10.28-2.35-2.55-4.08-.48-8.83,2.08-12.35,1.38-1.89,3-3.62,4.59-5.34s3.24-3.41,5.15-4.75c2.01-1.42,4.12-2.31,6.52-2.84s5-.78,7.45-1.43c5.79-1.55,10.67-5.77,15.35-9.33l-3.03-3.93c-2.4,2.3-5.42,3.8-8.7,4.34-1.81.3-3.64-.05-5.43.26s-3.46,1.47-4.68,2.83c-5.12,5.72-3.76,14.66,2.83,18.59,1.07.64,2.87.33,3.42-.9,1.76-3.9,2.24-8.02,1.33-12.22-.27-1.24-1.85-2.19-3.08-1.75-3.59,1.32-6.46,4.36-7.13,8.2-.74,4.3,1.33,8.09,3.61,11.58,1.09,1.67,3.21,1.54,4.32,0,3.55-4.91,6.76-10.06,9.62-15.4,1.1-2.05-1.25-4.93-3.42-3.42-5.86,4.06-10.19,9.91-12.41,16.69-1.07,3.27-1.62,6.78-1.55,10.22.08,4.11,1.09,8.12,1.74,12.15.77,4.77.53,9.62.31,14.43-.06,1.23.99,2.32,2.17,2.46,1.32.16,2.27-.6,2.74-1.79.77-1.93,1.06-4.06.83-6.13-.12-1.05-.31-2.08-.68-3.07-.27-.72-1.15-1.92-1.06-2.63l-.34,1.26c.52-1.12,2.05-2.16,2.96-3.05,1.09-1.06,2.34-2.12,2.81-3.62.4-1.3.16-2.69-.54-3.85-.52-.86-1.52-1.71-1.93-2.44-.21-.37.06.4-.14-.31.1.34-.13.31.1.01.37-.47.67-1.03,1.05-1.51.91-1.16,1.88-2.28,2.89-3.36,2.06-2.22,4.3-4.26,6.68-6.13,1.06-.84.88-2.66,0-3.54-1.05-1.05-2.47-.84-3.54,0h0Z"/>
      <path class="cls-1" d="M60.22,304.96c3.39,2.51,8.01,3.21,12,1.86,1.84-.62,3.64-1.75,5.6-1.92s4.1.74,6.06,1.21c2.34.56,4.51.52,6.87.14,2.16-.35,3.89-.58,5.98.21,4.54,1.71,9.02,1.68,13.79,1.3,1.35-.11,2.5-1.07,2.5-2.5,0-1.27-1.15-2.61-2.5-2.5-2.27.18-4.56.36-6.84.23-2.06-.12-3.89-.72-5.82-1.42-2.31-.84-4.51-.77-6.9-.39-1.98.31-3.77.6-5.75.12s-4.04-1.2-6.16-1.36-4.1.42-6.04,1.23c-1.75.73-3.43,1.41-5.35,1.34-1.82-.07-3.47-.78-4.92-1.86-1.09-.8-2.79-.18-3.42.9-.74,1.27-.19,2.61.9,3.42h0Z"/>
      <path class="cls-1" d="M108.89,288.39c-.19,2.87-.51,5.72-.99,8.55l4.91.66c-.17-5.98-.22-11.96-.15-17.94.04-3.24-4.79-3.18-5,0-.08,1.16.08,2.33.45,3.43.78,2.31,4.1,2.44,4.82,0,1.58-5.35,2.47-10.88,2.68-16.46.11-2.75-4.48-3.49-4.91-.66-.93,6.08-1.86,12.34-4.72,17.86h4.32c-1.9-3.03-3.5-6.22-4.74-9.58-1.01-2.76-4.55-2.11-4.91.66l-.35,2.67h5c.23-5.76-.53-11.56-2.24-17.07-.69-2.24-4.27-2.51-4.82,0-1.26,5.73-2.38,11.5-3.34,17.29l4.57-.6c-1.52-3.27-3.04-6.55-4.55-9.82-.87-1.87-4.23-1.48-4.57.6-.46,2.84-1.03,5.67-1.69,8.47h4.82c-1.08-3.84-2.16-7.68-3.24-11.51-.56-2.01-3.54-2.53-4.57-.6-1.29,2.42-2.01,4.97-2.22,7.71l4.66-1.26c-.44-.67-.88-1.33-1.31-2-1.22-1.86-3.85-1.46-4.57.6-1.42,4.04-2.3,8.19-2.77,12.44h5c-.17-3.9-.8-7.76-1.93-11.5-.67-2.22-4.32-2.53-4.82,0-1.26,6.39-2.38,12.81-3.34,19.25l4.57-.6c-2.02-3.16-3.85-6.44-5.49-9.82-.66-1.37-2.94-1.69-3.93-.51-1.78,2.15-3.13,4.43-4.16,7.02l4.18-1.1c-1.23-1.1-1.97-2.34-2.33-3.94-.56-2.45-4.18-2.31-4.82,0-.41,1.47-.22,2.95.57,4.26,1.01,1.68,3.28,1.55,4.32,0,1.55-2.31,3.1-4.62,4.64-6.93l-4.57-.6c.86,2.5,1.12,5.04,1.05,7.68-.03,1.28-.13,2.56-.26,3.83-.07.68-.15,1.35-.23,2.02-.06.48,0,1.19-.27,1.6l.9-.9s.07.05.11.04c-.22,0-.43.02-.65.05-.67.07-1.22.19-1.82.49-.82.41-1.5,1.03-2.01,1.79-1.13,1.67-1.19,3.77-.25,5.54s3.28,1.42,4.32,0c4.37-5.99,6.58-13.46,6.25-20.86-.11-2.55-3.26-3.3-4.66-1.26-2.62,3.83-5.05,7.78-7.24,11.87-1.07,2-2.08,4.45-.22,6.38,1.73,1.8,4.35,1.03,6.04-.37,2.98-2.47,5.36-6.13,6.99-9.61,1.79-3.82,2.83-7.84,3.14-12.04.1-1.35-1.22-2.5-2.5-2.5-1.48,0-2.34,1.15-2.5,2.5-.88,7.52-1.76,15.04-2.64,22.56-.32,2.77,4.46,3.45,4.91.66,1.05-6.48,2.34-12.91,3.88-19.29l-4.91-.66c.77,5.9,1.55,11.79,2.32,17.69.18,1.34,1.02,2.5,2.5,2.5,1.35,0,2.51-1.14,2.5-2.5-.05-5.37-.11-10.78,1.16-16.03l-4.91-.66c.59,7.37,1.18,14.74,1.77,22.12.11,1.35,1.07,2.5,2.5,2.5,1.33,0,2.53-1.14,2.5-2.5-.17-8.38.77-16.7,2.83-24.83l-4.57.6c.59,1.17.54,2.55.55,3.82.02,1.91.02,3.81.03,5.72,0,3.73,0,7.46-.03,11.18h5c-.03-6.47.47-12.93,1.58-19.31l-3.67,1.49.26.18-.9-.9c.27.35.16.8.19,1.28.04.83.08,1.65.12,2.48.08,1.65.17,3.3.25,4.95.17,3.3.33,6.61.5,9.91.14,2.71,4.22,3.52,4.91.66,1.66-6.85,2.08-13.91,2.45-20.93h-5c.15,6.42.29,12.84.44,19.26.03,1.35,1.13,2.5,2.5,2.5,1.49,0,2.33-1.15,2.5-2.5.56-4.55,1.12-9.1,1.68-13.65h-5c-.41,3.97-.06,7.97.97,11.83.28,1.06,1.32,1.84,2.41,1.84,1.18,0,2-.8,2.41-1.84,1.43-3.59,2.07-7.48,1.89-11.35-.14-3.2-5-3.24-5,0,0,6.09,0,12.18-.01,18.28,0,2.76,4.28,3.47,4.91.66,1.69-7.57,2.04-15.34,2.33-23.06l-4.91.66c.61,3.57,1.21,7.14,1.82,10.71.51,3.02.57,7.21,4.45,7.57,1,.09,2.23-.84,2.41-1.84,1.11-6.18,1.21-12.34.36-18.55-.17-1.21-1.66-1.95-2.74-1.79-1.23.18-2.15,1.18-2.17,2.46-.07,4.91-.15,9.82-.22,14.73-.04,2.89,4.06,3.3,4.91.66.99-3.07,1.09-6.24.46-9.39-.48-2.38-4.34-2.39-4.82,0-.98,4.89-.93,9.82.19,14.69.55,2.4,4.24,2.36,4.82,0,.86-3.52,1.2-7.15.93-10.76-.24-3.24-4.67-3.18-5,0-.4,3.93.35,7.76,1.94,11.35.39.89,1.61,1.33,2.49,1.19,1.06-.16,1.69-.83,2.08-1.79.44-1.08.62-2.22.62-3.38l-4.91.66c.63,1.61,1.01,3.23,1.06,4.96l1.84-2.41c-2.26.39-5.24.89-6.9-1.03l-2.43,4.18c4.4,1,8.74.52,12.86-1.26l-3.67-2.82c-.22.67-3.3,1.03-3.9,1.16-1.96.41-4.06.73-6.03.23s-3.68-1.67-5.64-2.19c-2.11-.56-4.32-.55-6.49-.58-1.66-.02-3.43-.04-4.99-.68-1.65-.68-2.37-2.37-3.91-3.2-2.25-1.21-4.43-.04-6.38,1.14-2.06,1.25-4.13,2.5-6.19,3.75-1.13.68-1.62,2.26-.9,3.42,2.76,4.42,8.27,3.9,12.39,1.94,2.26-1.08,4.3-2.31,6.79-2.82,2.35-.49,4.79-.46,7.18-.45,5.35,0,10.43-.33,15.37-2.56,4.32-1.95,9.16-5.54,8.89-10.84-.14-2.64-1.6-4.95-3.96-6.17-2.1-1.09-4.47-1.42-6.77-1.82-2.46-.43-5-.84-7.33-1.79s-4.19-2.57-6.08-4.11c-2.21-1.79-4.41-3.59-6.62-5.38-1.07-.87-2.14-1.74-3.21-2.61-.21-.17-1.12-1.16-1.35-1.17l-.13,1.36.24-.2c.25-.14.47-.36.7-.54,3.8-2.84,7.8-5.52,9.54-10.15,1.05-2.8,1.16-5.96,1.2-8.93.04-2.8-.52-5.59-2.64-7.58-1.87-1.76-4.35-2.64-6.78-3.31-1.88-.51-4.53-.96-5.8-2.62-.82-1.07-2.15-1.64-3.42-.9-1.06.62-1.72,2.34-.9,3.42,1.44,1.9,3.2,3.05,5.42,3.9,1.87.72,3.88,1.04,5.75,1.77,1.43.57,2.82,1.41,3.21,2.99.26,1.03.17,2.14.14,3.19-.04,1.22-.07,2.45-.23,3.66-.27,2.06-.96,3.99-2.35,5.55-1.29,1.46-2.85,2.63-4.41,3.78-1.79,1.32-4.43,2.67-4.39,5.21.04,2.73,3.07,4.43,4.94,5.95,2.02,1.64,4.03,3.28,6.05,4.92s3.96,3.36,6.12,4.77c4.1,2.68,8.89,3.18,13.57,4.11,1.41.28,3.74.57,4.35,2.11.68,1.71-.65,3.43-1.85,4.48-3.23,2.85-7.96,4.18-12.17,4.43-5.36.31-10.96-.47-16.11,1.42-2.35.86-4.42,2.39-6.8,3.15-1.35.43-3.41.63-4.23-.68l-.9,3.42c2.06-1.25,4.13-2.5,6.19-3.75.25-.15,1.46-.66,1.56-.91.22-.04.24-.07.05-.1-.3-.22-.29-.18.04.1.52.67,1.13,1.3,1.8,1.82,3.62,2.89,8.18,2.29,12.49,2.59,2.2.16,3.98,1.13,5.99,1.95,2.14.87,4.45,1.12,6.75.89s4.47-.6,6.57-1.28,3.71-1.82,4.41-3.93c.31-.94-.14-2.06-.9-2.63-.87-.65-1.81-.61-2.78-.2-2.82,1.22-6.03,1.44-9.01.76-2.51-.57-4.06,2.29-2.43,4.18,2.93,3.4,7.77,3.01,11.76,2.32,1.04-.18,1.87-1.4,1.84-2.41-.07-2.16-.45-4.28-1.24-6.29-.45-1.16-1.43-1.99-2.74-1.79-1.21.18-2.17,1.19-2.17,2.46,0,.76-.16,1.35-.44,2.05l4.57-.6c-1.23-2.78-1.57-5.82-1.26-8.83h-5c.24,3.19,0,6.32-.76,9.43h4.82c-.91-3.95-.99-8.05-.19-12.03h-4.82c.46,2.28.25,4.53-.46,6.73l4.91.66c.07-4.91.15-9.82.22-14.73l-4.91.66c.72,5.26.58,10.68-.36,15.9l2.41-1.84c.87.08,1.27,1.12,1.03,0-.15-.72-.25-1.46-.37-2.19l-.7-4.14c-.47-2.76-.94-5.52-1.41-8.28s-4.81-2.04-4.91.66c-.27,7.28-.55,14.6-2.15,21.73l4.91.66c0-6.09,0-12.18.01-18.28h-5c.16,3.47-.43,6.79-1.71,10.02h4.82c-.92-3.45-1.16-6.94-.79-10.5.14-1.35-1.25-2.5-2.5-2.5-1.49,0-2.33,1.15-2.5,2.5-.56,4.55-1.12,9.1-1.68,13.65h5c-.15-6.42-.29-12.84-.44-19.26-.07-3.23-4.83-3.2-5,0-.35,6.58-.72,13.17-2.27,19.6l4.91.66c-.19-3.88-.39-7.76-.58-11.64-.1-1.9-.19-3.8-.29-5.7-.1-2.01-.28-3.64-2.02-4.89-1.24-.89-3.41-.01-3.67,1.49-1.19,6.82-1.8,13.72-1.76,20.64.02,3.22,4.98,3.22,5,0,.03-4.06.04-8.12.02-12.18-.01-3.66.44-7.7-1.26-11.07-.98-1.93-4.06-1.42-4.57.6-2.17,8.54-3.19,17.35-3.01,26.16h5c-.59-7.37-1.18-14.74-1.77-22.12-.21-2.66-4.21-3.57-4.91-.66-1.37,5.69-1.39,11.54-1.33,17.36h5c-.77-5.9-1.55-11.79-2.32-17.69-.16-1.23-.83-2.3-2.17-2.46-1.19-.14-2.45.56-2.74,1.79-1.54,6.38-2.83,12.81-3.88,19.29l4.91.66c.88-7.52,1.76-15.04,2.64-22.56h-5c-.26,3.61-1.25,7.19-2.89,10.41-.83,1.62-1.79,3.2-2.91,4.63-.55.7-1.15,1.37-1.76,2.02-.25.26-.81.62-.96.94-.09.19-.13-.04.04.03l1.1.64c.47.37-.11,1.14.43.1.32-.62.66-1.23.99-1.84.67-1.22,1.36-2.43,2.08-3.62,1.42-2.39,2.93-4.73,4.5-7.03l-4.66-1.26c.3,6.62-1.67,12.99-5.57,18.34h4.32c.15.28.05-.13,0-.03.15-.29-.08-.23.25-.38-.27.13-.09.04.17.07.51.06,1.1-.12,1.58-.29,2.64-.93,2.53-4.04,2.8-6.36.54-4.66.69-9.46-.85-13.97-.71-2.08-3.35-2.42-4.57-.6-1.55,2.31-3.1,4.62-4.64,6.93h4.32c-.41-.68-.14-.14-.07-.4h-4.82c.54,2.37,1.81,4.53,3.62,6.15,1.5,1.34,3.47.67,4.18-1.1s1.69-3.38,2.87-4.82l-3.93-.51c1.63,3.38,3.46,6.65,5.49,9.82,1.04,1.62,4.23,1.68,4.57-.6.97-6.44,2.08-12.86,3.34-19.25h-4.82c1,3.32,1.6,6.7,1.75,10.17.06,1.35,1.11,2.5,2.5,2.5,1.48,0,2.35-1.15,2.5-2.5.42-3.79,1.33-7.51,2.6-11.11l-4.57.6c.44.67.88,1.33,1.31,2,1.4,2.13,4.47,1.22,4.66-1.26.14-1.82.67-3.57,1.53-5.18l-4.57-.6c1.08,3.84,2.16,7.68,3.24,11.51.65,2.31,4.24,2.45,4.82,0,.66-2.8,1.23-5.63,1.69-8.47l-4.57.6c1.52,3.27,3.04,6.55,4.55,9.82.87,1.88,4.22,1.48,4.57-.6.97-5.79,2.08-11.55,3.34-17.29h-4.82c1.58,5.12,2.27,10.38,2.06,15.74-.05,1.35,1.19,2.5,2.5,2.5,1.5,0,2.32-1.15,2.5-2.5l.35-2.67-4.91.66c1.38,3.77,3.11,7.38,5.24,10.78.95,1.51,3.42,1.73,4.32,0,3.08-5.95,4.22-12.5,5.23-19.05l-4.91-.66c-.2,5.14-1.04,10.19-2.5,15.13h4.82c-.25-.73-.32-1.32-.27-2.1h-5c-.07,5.98-.03,11.96.15,17.94.04,1.24.92,2.31,2.17,2.46,1.13.13,2.53-.55,2.74-1.79.55-3.27.95-6.57,1.17-9.88.09-1.35-1.21-2.5-2.5-2.5-1.43,0-2.41,1.15-2.5,2.5h0Z"/>
    </g>
  </g>
</svg>