<?xml version="1.0" encoding="UTF-8"?>
<svg id="Layer_2" data-name="Layer 2" xmlns="http://www.w3.org/2000/svg" viewBox="0 0 56.8 61.69">
  <defs>
    <style>
      .cls-1 {
        fill: #1a1a1a;
      }
    </style>
  </defs>
  <g id="Layer_1-2" data-name="Layer 1">
    <g>
      <path class="cls-1" d="M40.89,5.73c3.01-1.58,6.96-2.24,9.68.29,2.42,2.26,1.75,6,2.37,8.95.32,1.51,1,2.88,1.55,4.31.68,1.77.92,3.48.71,5.36-.42,3.81-1.26,7.6-1.91,11.38-.31,1.8-.62,3.6-.92,5.39-.28,1.66-.51,3.43-1.34,4.92-1.5,2.7-4.85,3.61-7.25,5.3s-4.47,3.9-6.78,5.77c-1.16.94-2.42,1.83-3.79,2.42-1.91.82-3.71-.27-5.59-.71-3.29-.78-6.69-.96-10.05-.74-1.58.1-3.15.29-4.71.53-1.71.27-3.44.78-5.18.79-4.22.03-4.51-4.26-4.8-7.45-.15-1.63-.61-3.21-.76-4.83-.17-1.8.52-3.23,1.39-4.74,1.34-2.3,2.23-4.48,1.42-7.15-.75-2.48-2.46-4.56-3.17-7.05-.4-1.39-.34-2.7.41-3.97s1.74-2.24,2.01-3.7-.31-2.75-.17-4.14c.16-1.72,2.4-2.99,3.48-4.18s2.27-2.58,2.56-4.24c.31-1.77.26-3.24,1.58-4.64,2.9-3.09,7.17-2.16,10.65-.81,1.78.69,3.47.99,5.38.96.88-.02,1.76-.1,2.64-.07,1.09.05,2.09.38,3.13.71,1.37.45,2.61,1.01,3.93,1.55,1.11.45,2.26.16,3.38-.13.93-.25.54-1.69-.4-1.45-1.38.36-2.05.36-3.28-.25-1.45-.72-3.12-1.2-4.68-1.61-1.71-.46-3.41-.25-5.16-.25-2.04,0-3.71-.61-5.59-1.32-3.1-1.18-6.82-1.47-9.7.46-1.18.79-2.16,1.88-2.73,3.19-.68,1.55-.29,3.34-1.18,4.8-.97,1.6-2.39,2.91-3.78,4.15-1.22,1.08-1.82,2.26-1.72,3.92.05.79.24,1.58.24,2.38,0,1.01-.41,1.8-.96,2.6-.81,1.17-1.59,2.26-1.75,3.72-.29,2.79,1.36,5.26,2.56,7.64.64,1.27,1.26,2.69,1.19,4.14-.08,1.73-1.13,3.17-1.94,4.63-.73,1.31-1.27,2.67-1.26,4.2.02,1.92.65,3.8.81,5.71.24,2.85.45,6.29,3.18,7.96,2.94,1.81,7.15.08,10.28-.31,3.88-.48,7.87-.52,11.71.29,1.64.35,3.31,1.2,4.98,1.28s3.19-.87,4.48-1.72c2.71-1.78,4.9-4.19,7.42-6.21s5.89-2.98,8-5.42c2.29-2.65,2.41-6.68,2.98-9.97.7-4.06,1.44-8.11,2.08-12.18.28-1.77.46-3.56.08-5.33s-1.23-3.25-1.79-4.9c-1.07-3.13-.27-6.79-2.08-9.69-1.66-2.66-4.94-3.75-7.95-3.38-1.64.21-3.17.78-4.62,1.54-.86.45-.1,1.74.76,1.3h0Z"/>
      <path class="cls-1" d="M38.73,6.29c2.34,1.17,3.23,4.05,5.75,5.02,1.29.5,2.74-.11,3.97.48.66.32,1.22.84,1.78,1.3.66.54,1.31,1.08,1.97,1.62.74.61,1.81-.45,1.06-1.06-1.19-.98-2.35-2.1-3.66-2.93-.57-.36-1.19-.59-1.87-.65-.75-.07-1.52.12-2.26-.02-1.26-.24-2.18-1.33-2.96-2.26-.88-1.07-1.76-2.15-3.02-2.79-.86-.43-1.62.86-.76,1.3h0Z"/>
      <path class="cls-1" d="M3.54,22.73c1.77.25,2.26,2.15,2.34,3.67.11,1.85.16,3.45.85,5.2.35.89.66,1.76.42,2.72s-.8,1.76-1.31,2.56c-1.08,1.71-2.26,3.36-3.53,4.94-.6.75.46,1.82,1.06,1.06,1.46-1.83,2.84-3.73,4.06-5.72.57-.92,1.11-1.89,1.26-2.98s-.13-2.01-.52-2.98c-.44-1.11-.71-2.15-.75-3.35-.04-1.04-.02-2.11-.26-3.13-.39-1.6-1.5-3.19-3.23-3.43-.94-.13-1.35,1.31-.4,1.45h0Z"/>
      <path class="cls-1" d="M42.65,52.29c-2.01.01-4.13-.17-6.12.14-1.76.28-2.91,1.4-4.35,2.33-.91.58-1.93.96-3.01,1.03-.92.06-1.81-.2-2.73-.17-2.04.05-4.17,1.2-6.07,1.89-.9.33-.51,1.78.4,1.45,1.07-.39,2.14-.78,3.21-1.17.95-.34,1.84-.7,2.87-.66,1.87.08,3.39.26,5.15-.56,1.6-.74,2.79-2.28,4.57-2.63,1.94-.39,4.11-.14,6.08-.15.96,0,.97-1.51,0-1.5h0Z"/>
      <path class="cls-1" d="M31.7,15.93c1.42.66,2.8,1.63,3.71,2.93.33.47.19.65,0,1.11-.11.27-.16.53-.14.83.05.64.45,1.2.96,1.57.59.43,1.31.61,1.93.98s1.2.95,1.6,1.59c.86,1.38.97,3.13.29,4.61-.29.64-.76,1.54-1.56,1.02-.64-.42-.96-1.21-1.51-1.73-1.27-1.21-2.71-.7-4.18-.2s-3.24.95-4.6,0-1.25-2.9-.92-4.35c.21-.94.51-1.85.67-2.8s.08-1.91.32-2.83c.41-1.58,1.9-2.73,3.5-2.8.96-.05.97-1.55,0-1.5-1.68.08-3.2.91-4.18,2.28-1.18,1.66-.87,3.74-1.34,5.64s-1.04,3.75-.38,5.61c.59,1.64,2.05,2.6,3.75,2.77.96.1,1.94-.07,2.86-.34s2.35-1.15,3.25-.59c.69.43,1.03,1.33,1.65,1.86.68.58,1.58.89,2.43.5,1.53-.7,2.16-2.97,2.19-4.49.04-1.79-.74-3.56-2.05-4.76-.76-.69-1.63-1-2.51-1.48-.21-.11-.53-.27-.61-.51-.09-.28.06-.42.17-.67.19-.41.24-.84.12-1.28-.26-.92-1.16-1.77-1.84-2.39-.84-.76-1.79-1.39-2.82-1.87-.87-.41-1.63.89-.76,1.3h0Z"/>
      <path class="cls-1" d="M18.21,34.94c.7-.08,1.52-.22,2.21.05.88.35.8.98.84,1.78.07,1.43,1.08,1.74,2.12,2.43s1.7,2.03,1,3.18-2.49.87-3.66,1.16c-1.38.34-2.58,1.32-3.65,2.2s-1.92,2.03-3.1,2.71c-.53.3-1.41.6-1.86.02-.39-.51-.28-1.44-.14-2.01.35-1.33,1.66-2.02,2.03-3.32.23-.82.08-1.68.09-2.51s.17-1.74.46-2.57c.45-1.3,1.65-3.57,3.35-3.25.94.18,1.35-1.27.4-1.45-3.81-.72-5.71,4.41-5.71,7.4,0,1.12.19,1.94-.61,2.84-.57.65-1.07,1.28-1.35,2.12-.46,1.34-.47,3.4.89,4.25,1.52.94,3.31-.13,4.45-1.15,1.39-1.25,2.67-2.67,4.36-3.53,1.55-.79,3.5-.18,4.84-1.5,1.06-1.05,1.24-2.72.61-4.03-.37-.79-1.01-1.44-1.75-1.9-.33-.2-.85-.33-1.1-.63-.31-.36-.15-.93-.19-1.38-.21-2.31-2.71-2.6-4.54-2.39-.95.11-.96,1.61,0,1.5h0Z"/>
      <path class="cls-1" d="M48,27.78c1.6,2.36,1.83,5.37.37,7.86-.66,1.12-1.8,1.84-2.41,2.97s-.57,2.41-.41,3.62c.18,1.31.62,2.91-.16,4.12s-2.49.76-3.13-.39c-.75-1.35-.3-2.99.29-4.31.63-1.41,1.43-2.75,2.15-4.12.45-.85-.84-1.61-1.3-.76-1.27,2.39-3.24,5.11-3.01,7.95.17,2.14,1.88,4.23,4.21,3.83,2.73-.46,2.86-3.6,2.54-5.76-.23-1.58-.43-3.03.77-4.26.92-.94,1.71-1.88,2.23-3.1,1.19-2.77.84-5.94-.85-8.42-.54-.79-1.84-.04-1.3.76h0Z"/>
      <path class="cls-1" d="M35.96,37.52c-.18-.07.03.04.06.05.04.03.03.02-.03-.03.02.02.04.04.07.06.05.05.1.1.14.15-.08-.1-.02-.02.02.04.02.04.09.2.03.03.02.06.04.11.06.17.02.08.03.16.02.03,0,.06,0,.12,0,.18,0,.04,0,.08,0,.12.01-.09.02-.11,0-.05-.02.04-.04.12-.05.17-.02.05-.01.04.01-.04-.02.04-.04.08-.06.12-.02.03-.14.17-.04.06-.05.05-.09.1-.14.14-.01.01-.18.14-.06.05-.12.09-.25.16-.38.23-.06.03-.12.06-.19.09-.05.02-.04.02.02,0-.04.02-.08.03-.13.05-.15.06-.3.1-.46.14-.08.02-.16.04-.24.05.12-.02-.09,0-.12,0-.02,0-.24-.01-.11,0-.09-.01-.18-.04-.26-.07-.05-.02-.04-.02.02,0-.03-.01-.06-.03-.1-.05-.07-.04-.15-.08-.22-.12-.12-.07-.25-.13-.38-.19-.4-.18-.78-.25-1.22-.16-.38.08-.64.55-.52.92.13.41.51.61.92.52-.09,0-.09,0,0,0,.09,0,.09,0,0,0,.03,0,.28.1.14.04.15.07.29.15.44.23.41.22.83.36,1.3.35.83,0,1.72-.35,2.37-.85s1.03-1.27.91-2.11-.66-1.47-1.43-1.79c-.36-.15-.84.16-.92.52-.1.44.13.76.52.92h0Z"/>
      <path class="cls-1" d="M43.16,15.75c.82.51,1.65,1.15,2.54,1.51s1.96-.03,2.87-.27c.44-.11.88-.23,1.33-.34.28-.07.67-.17.95-.04s.36.53.42.82c.09.46.12.92.26,1.37.3.91,1.75.52,1.45-.4s-.19-1.87-.83-2.64-1.66-.78-2.57-.58-1.92.61-2.89.71c-.5.05-.89-.3-1.3-.54l-1.46-.9c-.82-.51-1.58.79-.76,1.3h0Z"/>
      <path class="cls-1" d="M31.84,8.57c.93.79,2.12.85,3.25.49.26-.08.52-.19.77-.29.07-.03.18-.04.13-.05.08.02.2.16.26.21.4.33.81.68,1.12,1.11.64.89.64,2.07.84,3.11.22,1.17.64,2.3,1.19,3.35.45.85,1.74.1,1.3-.76-.55-1.05-.91-2.17-1.1-3.34s-.3-2.28-1.01-3.23c-.34-.46-.74-.85-1.17-1.21s-.88-.78-1.51-.73c-.95.08-2.08,1.07-3,.29-.31-.26-.76-.3-1.06,0-.27.27-.31.8,0,1.06h0Z"/>
      <path class="cls-1" d="M23.08,7.52c-1.12-2.1-3.81-2.61-5.99-2.25-1.05.18-2.07.68-2.62,1.62s-.53,2.04-.33,3.06c.11.6.47,1.28.15,1.86-.27.48-.83.88-1.24,1.24-1.02.87-2.16,1.41-3.33,2.04-2.38,1.28-2.55,3.68-2.27,6.12.11.95,1.61.96,1.5,0-.12-1.05-.28-2.18.06-3.21s1.2-1.48,2.14-1.95,1.76-.98,2.56-1.61c.71-.56,1.55-1.23,1.98-2.05.85-1.63-1.33-4.22.74-5.35,1.6-.87,4.47-.43,5.36,1.24.45.85,1.75.1,1.3-.76h0Z"/>
      <path class="cls-1" d="M23.01,14.31c.28-.33.55-.62.98-.74l-.58-.08c.88.4.75,2.18.61,2.92-.21,1.08-.71,2.09-1.14,3.1-.88,2.09-1.39,4.33-1.29,6.61.08,1.65.28,4.34,2.05,5.07.97.4,2.06.57,3.11.68s2.71.03,3.05,1.34c.24.94,1.68.54,1.45-.4-.66-2.62-3.7-2.2-5.74-2.64-.93-.2-1.57-.34-1.91-1.29-.26-.71-.39-1.48-.46-2.23-.13-1.42,0-2.84.34-4.22.6-2.43,2.31-4.72,2.14-7.31-.06-.91-.34-2.11-1.1-2.72-.91-.73-1.95.15-2.55.85s.43,1.8,1.06,1.06h0Z"/>
      <path class="cls-1" d="M15.16,20.57c1.09,1.31,2.01,3.06,2.03,4.8s-1.35,2.86-2.56,3.85-2.6,1.77-3.79,2.79c-1.07.91-1.25,1.99-1.36,3.33-.14,1.67-.27,3.37-.83,4.97s-1.53,2.89-2.33,4.31c-1.28,2.29-2.1,5.19-.48,7.53.55.79,1.85.04,1.3-.76-2.09-3.01.82-6.32,2.19-8.94.72-1.38,1.15-2.84,1.37-4.39.24-1.7-.1-3.97,1.36-5.11,2.15-1.68,5.25-3.16,6.33-5.85s-.55-5.64-2.17-7.59c-.62-.74-1.67.32-1.06,1.06h0Z"/>
      <path class="cls-1" d="M37.76,48.91c.6-1.98-.43-4.84-2.54-5.53-2.54-.82-4.45,2.46-5.84,4-.51.57-1.05,1.2-1.72,1.58-.72.39-1.51.31-2.29.25-1.42-.12-2.83-.28-4.24-.1-2.92.37-5.27,2.44-7.62,4.05-.79.54-.04,1.84.76,1.3,1.88-1.29,3.85-3.06,6.08-3.68s4.71.4,7.01-.11c2.09-.47,3.48-2.69,4.8-4.2.76-.87,1.97-2.39,3.18-1.29.91.83,1.34,2.16.98,3.33-.28.93,1.16,1.32,1.45.4h0Z"/>
    </g>
  </g>
</svg>