<?xml version="1.0" encoding="UTF-8"?>
<svg id="Layer_2" data-name="Layer 2" xmlns="http://www.w3.org/2000/svg" viewBox="0 0 77.14 68.76">
  <defs>
    <style>
      .cls-1 {
        fill: #1a1a1a;
      }
    </style>
  </defs>
  <g id="Layer_1-2" data-name="Layer 1">
    <g>
      <path class="cls-1" d="M36.31.69c-1.47-.87-3.11-.86-4.69-.29-.76.27-1.48.64-2.17,1.05-.92.56-1.83,1.5-2.9,1.71-1.02.2-2.2-.1-3.22-.22-1.14-.13-2.28-.27-3.42-.39-1.74-.17-3.57-.22-5.21.48s-2.86,2.11-3.97,3.51c-1.27,1.59-2.53,3.19-3.64,4.9-2.29,3.55-3.28,7.47-3.97,11.6-.34,2.07-.71,4.14-.84,6.23s.45,4.42-.7,6.37c-.94,1.6-1.69,3.05-1.56,4.97.12,1.77.8,3.45,1.81,4.9,1.14,1.63,2.6,3,4.07,4.32,1.22,1.09,2.56,2.24,4.22,2.56.83.16,1.48-.04,2.29-.14.71-.08,1.26-.13,1.64.55.3.54.56,1.11.84,1.66,1.02,2.04,2.05,4.07,3.07,6.11.76,1.52,1.42,3.72,3.04,4.55s3.93.58,5.67.68c2.14.13,4.86-.15,6.8.85,1.72.88,3.32,1.65,5.26,1.93,1.7.25,3.44.19,5.12-.18.84-.19,1.65-.46,2.43-.8.42-.19.83-.4,1.24-.62.75-.39,1.18-.31,1.99.05,1.48.66,3.13,1.04,4.65.25.86-.45,1.48-1.22,2.28-1.75s1.78-.85,2.74-1.08c1.69-.41,3.44-.59,5.04-1.29,1.81-.79,3.15-2.22,4.73-3.35,1.49-1.05,3.31-1.58,4.64-2.86,1.13-1.08,1.79-2.57,2.15-4.07.41-1.75.46-3.57.52-5.36.07-2.27.14-4.54.11-6.81s-.16-4.69-.47-7.02c-.14-1.04-.39-2.1-.2-3.15s.77-1.85,1.13-2.79c1.36-3.59-1.82-6.43-4.09-8.76-2.58-2.65-5.38-5.26-8.75-6.88-.77-.37-1.56-.69-2.37-.94-.91-.28-1.93-.37-2.78-.82-.79-.42-1.3-1.21-2.06-1.69s-1.61-.52-2.49-.59c-1.98-.15-3.12-1.91-4.89-2.67-2.02-.86-4.13-1.53-6.19-2.27s-4.22-1.53-6.34-2.3c-.91-.33-1.3,1.12-.4,1.45,3.9,1.41,7.82,2.77,11.69,4.24.96.36,1.76.79,2.54,1.46.56.49,1.11.99,1.81,1.27s1.44.27,2.19.35c1.21.12,1.74.78,2.6,1.51,1.23,1.02,2.84,1.14,4.3,1.63,1.68.57,3.24,1.46,4.69,2.49,2.84,2.02,5.46,4.65,7.73,7.29,1.43,1.66,2.09,3.28,1.14,5.36-.72,1.57-1.15,2.84-.93,4.59.54,4.3.71,8.52.6,12.86-.09,3.23.32,7.71-2.05,10.3-1.24,1.35-3.12,1.84-4.58,2.88s-2.69,2.37-4.3,3.16c-2.93,1.43-6.37.98-8.99,3.17-.93.78-1.65,1.49-2.96,1.38-.97-.08-1.7-.6-2.59-.92-1.56-.57-2.79.64-4.19,1.17-3.51,1.32-7.28.91-10.53-.87-1.65-.9-3.25-.99-5.1-1.1-2.05-.12-4.11-.21-6.17-.37-1.19-.09-2.02-.32-2.64-1.42-.48-.86-.9-1.77-1.34-2.65-.95-1.89-1.9-3.78-2.85-5.67-.6-1.19-1.15-3.21-2.59-3.65-.7-.21-1.42,0-2.11.14-1.06.21-1.92.02-2.85-.52-1.55-.91-2.93-2.33-4.18-3.62-1.36-1.39-2.59-3-3.07-4.92-.53-2.09.12-3.63,1.16-5.4.92-1.56.93-3.01.87-4.78-.15-4,.66-8.24,1.58-12.13s2.88-7.3,5.38-10.51c1.1-1.41,2.19-3.08,3.7-4.09,1.63-1.1,3.63-1.02,5.5-.84s3.95.59,5.92.65c1.81.05,2.93-1.08,4.39-1.97,1.6-.97,3.58-1.81,5.34-.77.83.5,1.59-.8.76-1.3h0Z"/>
      <path class="cls-1" d="M39.34,5.71c-1.94-.78-4.02-1.54-6.13-1.02-2.24.55-3.03,2.9-5.19,3.5-2.28.64-4.64-.14-6.94-.08-1.99.05-3.82.75-5.39,1.98-3.19,2.51-5.02,6.64-4.93,10.67.03,1.19.34,2.38.25,3.57-.08,1.05-.51,2.04-.97,2.97-.79,1.59-1.78,3.15-2.02,4.94-.2,1.54.21,3.3,2.07,3.32s3.42-1.28,4.42-2.75c1.23-1.8,2.11-4.05,2.67-6.15.26-.99.43-2,.52-3.02.11-1.33,0-2.77.49-4.03.39-.99,1.38-2.07,2.54-1.82,1.05.23,1.61,1.38,2.11,2.22.95,1.6,2.1,2.94,3.71,3.93,2.78,1.71,7.93,2.99,10.52.3.72-.75,1.16-1.7,1.68-2.59.61-1.04,1.4-1.88,2.34-2.63,1.64-1.32,3.95-2.36,5.1-4.19,1.21-1.93-.14-3.46-1.49-4.81-1.02-1.01-2.04-2.04-3.06-3.04-.75-.74-1.52-1.4-2.63-1.31-.96.07-.96,1.57,0,1.5,1.03-.08,1.92,1.23,2.59,1.89.79.79,1.59,1.58,2.38,2.37.73.73,1.62,1.58.92,2.65-.53.82-1.47,1.41-2.25,1.97-1.38.99-2.85,1.92-3.99,3.19s-1.58,2.96-2.77,4.06c-1.43,1.32-3.91,1.01-5.64.56s-3.4-1.31-4.66-2.61c-1.76-1.83-2.87-6.01-6.24-4.82-3.67,1.3-2.77,6.02-3.39,8.97-.42,2-1.2,3.95-2.18,5.74-.49.89-1.08,1.77-1.94,2.34-.93.61-2.38.95-2.36-.56.02-1.76,1.12-3.35,1.88-4.88.7-1.4,1.24-2.84,1.18-4.42-.07-2.02-.42-3.84.06-5.85.44-1.89,1.33-3.67,2.6-5.14,1.52-1.75,3.54-2.97,5.9-3.03,2.14-.05,4.24.52,6.39.21.82-.12,1.63-.35,2.36-.77.93-.54,1.44-1.4,2.22-2.1,1.97-1.77,4.77-.65,6.89.21.9.36,1.28-1.09.4-1.45h0Z"/>
      <path class="cls-1" d="M51.38,14.01c2.75,1.57,5.55,3.15,7.8,5.41.88.88,1.63,2.13,2.87,2.52,1.37.43,2.86-.1,4.27.3s2.68,1.3,3.35,2.62.7,2.96.9,4.44c.16,1.21.42,2.44,1.1,3.48.78,1.2,2.21,1.99,2.72,3.35.33.9,1.78.51,1.45-.4-.5-1.35-1.54-2.14-2.47-3.19-1.1-1.25-1.26-2.89-1.44-4.48-.32-2.79-1.1-5.35-3.78-6.71-1.16-.59-2.46-.89-3.77-.85-1.03.03-1.86.22-2.67-.55-.52-.5-.95-1.09-1.46-1.6-2.34-2.35-5.25-4.01-8.1-5.64-.84-.48-1.6.82-.76,1.3h0Z"/>
      <path class="cls-1" d="M5.56,37.83c-.43,2.2,1.23,4.3,3.55,4.06,1.28-.13,1.92-1.04,2.9-1.73s2.3-.87,3.44-1.27c2.3-.81,3.52-2.54,4.37-4.74.79-2.04,1.34-4.56,3.49-5.62.87-.43.11-1.72-.76-1.3-1.67.82-2.61,2.44-3.29,4.1-.71,1.76-1.13,3.85-2.58,5.19s-3.78,1.23-5.43,2.34c-.86.58-1.49,1.62-2.64,1.54s-1.82-1.13-1.61-2.18c.18-.94-1.26-1.35-1.45-.4h0Z"/>
      <path class="cls-1" d="M33.25,31.11c-1.47-1.56-3.94-.14-5.37.78s-3.08,2.77-2.61,4.69c.22.9,1.01,1.7,1.69,2.27.74.62,1.68,1.03,2.29,1.8s.94,1.67,1.65,2.32,1.71,1.04,2.68.74c.92-.29.53-1.74-.4-1.45-1.37.43-2.16-1.77-2.81-2.59-.93-1.17-2.4-1.67-3.32-2.87s.26-2.67,1.26-3.4c.58-.43,1.24-.75,1.89-1.06.57-.27,1.45-.74,1.98-.17.66.7,1.72-.36,1.06-1.06h0Z"/>
      <path class="cls-1" d="M9.92,46.25c1.06,1.82,3.1,1.76,4.94,1.98,1.11.13,2.1.58,2.67,1.59.51.91.57,2,.93,2.97.33.89.87,1.47,1.55,2.11.89.83,1.36,1.78,1.58,2.98.34,1.87.94,3.72,3.19,3.76,1.79.02,3.81-.87,4.9-2.3s1.45-3.96.76-5.58c-.38-.9-1.16-1.54-1.79-2.26-.78-.89-1.45-1.87-2.03-2.91-.9-1.6-1.76-3.38-3.53-4.15-1.16-.5-2.51-.58-3.74-.78-1.36-.22-2.73-.51-4.11-.63-1.1-.09-1.88.18-2.8.73s-2.07.21-2.49,1.49c-.3.92,1.15,1.31,1.45.4.07-.2.95-.19,1.15-.26.33-.11.58-.32.87-.49.86-.53,1.74-.4,2.69-.25,1.95.31,4.1.41,5.98,1.01,1.65.52,2.39,2.15,3.17,3.56.89,1.6,2.01,2.93,3.22,4.29.71.8.77,1.51.71,2.53-.06.96-.22,1.89-.89,2.62-.98,1.06-3.86,2.35-4.8.7-.42-.75-.38-1.71-.59-2.53-.19-.71-.51-1.4-.94-2s-1.03-1.03-1.53-1.58c-.63-.71-.77-1.65-1-2.54-.41-1.57-1.24-2.93-2.79-3.58s-4.44.07-5.44-1.65c-.49-.83-1.78-.08-1.3.76h0Z"/>
      <path class="cls-1" d="M32.12,66.18c1.19.03,2.55.19,3.7-.18.62-.2,1.16-.5,1.82-.57s1.27,0,1.9-.06c2.37-.22,3.5-2.15,5.25-3.46.88-.66,1.72-1.3,2.12-2.37.36-.99.28-2.11-.14-3.06-.94-2.14-3.28-3.15-5.51-3.2-.66-.02-1.33.02-2,.03s-1.45.13-2.11,0c-.71-.14-1.43-.53-2.1-.8-.77-.31-1.54-.61-2.31-.92-.9-.36-1.29,1.09-.4,1.45,1.11.44,2.22.89,3.34,1.33.45.18.89.38,1.37.44.56.08,1.14.02,1.71,0,2.06-.05,4.36-.32,5.95,1.28.64.64,1.02,1.52.91,2.43-.14,1.07-.97,1.62-1.77,2.22-1.42,1.07-2.54,2.96-4.44,3.13-1.24.11-2.35.02-3.53.5s-2.5.33-3.76.31c-.97-.02-.97,1.48,0,1.5h0Z"/>
      <path class="cls-1" d="M60.26,24.9c-1.12-.54-2.14-1.23-3-2.14-.92-.96-1.46-2.23-2.44-3.13-.78-.71-1.72-1.26-2.52-1.94s-1.83-.68-2.84-.46c-2.5.53-3.96,2.13-5.67,3.86-1.44,1.45-3.66,2.1-4.53,4.07-.25.57-.33,1.15-.51,1.74-.2.66-.55,1.12-.99,1.64-.59.69-1.3,1.57-1.06,2.56s1.2.94,2.02.89c1.2-.06,3.35-1.11,4.13-.04.54.74.84,1.34,1.77,1.67,1.02.36,2.09.22,3.13,0,1.43-.29,2.42-.29,3.82.14,1.1.34,2.18.57,3.31.21.47-.15.91-.4,1.29-.71.58-.47.84-1.17,1.39-1.66,1-.9,2.74-.46,3.89-1.05,2.41-1.23.2-4.36-1.02-5.54-.69-.67-1.75.39-1.06,1.06s1.43,1.42,1.59,2.38c.2,1.21-2.11,1.08-2.94,1.3-.72.19-1.27.48-1.76,1.06-.75.9-1.32,1.85-2.65,1.86-.94,0-1.83-.48-2.73-.68s-1.81-.16-2.74.02-1.89.52-2.82.26c-1.02-.29-1.06-1.27-1.76-1.91-.51-.46-1.14-.58-1.8-.49-.42.06-.83.2-1.24.31-.51.14-1.54.54-2.03.31-.33-.15-.21.05-.13-.32.04-.2.33-.43.45-.57.27-.31.56-.6.79-.95.52-.8.59-1.71.9-2.59.59-1.69,2.51-2.3,3.77-3.38,1.64-1.39,2.67-3.1,4.83-3.8.67-.22,1.49-.47,2.11-.08.39.24.69.61,1.06.88,1.05.77,1.84,1.36,2.59,2.45,1.19,1.76,2.72,3.14,4.64,4.07.86.42,1.63-.87.76-1.3h0Z"/>
      <path class="cls-1" d="M43.1,36c-1.59-.14-3.35-.17-4.55,1.07-1.06,1.09-.95,2.48-.22,3.71.52.87,1.21,1.53.64,2.58-.43.79-1.17,1.42-1.66,2.19-.75,1.19-1.09,2.53.21,3.47s3.21.9,4.66.66c1.93-.33,3.32-1.49,5.05-2.27,1.12-.51,2.42-.64,3.33.34.67.72.95,1.8,1.18,2.73.36,1.46.34,3.42,1.68,4.38,1.45,1.04,3.71.92,5.31.33.98-.36,1.77-.95,2.62-1.53,1.02-.68,2.11-1.13,3.3-1.42.94-.22.54-1.67-.4-1.45s-1.92.57-2.8,1.04-1.56,1.09-2.39,1.55c-1.11.61-2.45.88-3.7.64s-1.53-.97-1.77-2.13c-.35-1.69-.64-3.56-1.75-4.95s-2.77-1.73-4.42-1.21c-2.08.65-3.61,2.27-5.85,2.53-.82.1-2.31.19-3.03-.37-1.05-.82.74-2.46,1.31-3.19,1.01-1.29,1.1-2.57.23-3.97-.51-.82-1.28-1.67-.48-2.6s2.39-.72,3.49-.63c.96.09.96-1.41,0-1.5h0Z"/>
      <path class="cls-1" d="M14.04,7.28c-1.79,1.31-3.17,3.05-3.99,5.12-.42,1.05-.49,2.23-.95,3.26s-1.46,1.8-2.35,2.5c-.32.25-.26.8,0,1.06.31.32.74.25,1.06,0,.87-.68,1.74-1.39,2.34-2.34.63-1,.73-2.18,1.07-3.29.61-1.99,1.89-3.78,3.57-5.01.77-.56.02-1.87-.76-1.3h0Z"/>
      <path class="cls-1" d="M58.48,35.34c-.14,1.24-2.16,1.57-3.06,1.97-1.04.46-2.61,1.21-2.98,2.39-.18.59-.04,1.21.28,1.72.35.55,1.02.95,1.25,1.57.2.55.09,1.19.21,1.77.14.65.51,1.23,1.1,1.57,1.04.61,2.3.4,3.21-.33.21-.17.4-.36.57-.57.1-.12.27-.3.32-.45.11-.35.1.11-.13-.07.44.34,1.48.21,1.98.15,1.33-.16,2.61-.39,3.47-1.52s1.33-2.58,1.5-3.9c.21-1.66-.95-2.49-2.15-3.38-1.29-.97-2.83-1.75-4.5-1.53-.4.05-.75.31-.75.75,0,.36.35.8.75.75,1.24-.16,2.31.32,3.31,1.01.43.3.86.63,1.26.97.46.39.68.71.58,1.33-.16,1.06-.59,2.41-1.31,3.23-.64.73-2.07.87-2.99.84-.49-.02-.97-.3-1.46-.19-.55.13-.7.61-1,1.01-.46.61-1.61,1.19-2.16.35-.27-.42-.18-1.04-.23-1.51-.06-.57-.23-1.06-.58-1.52-.29-.38-.69-.68-.95-1.08-.35-.54.05-.83.49-1.13,1.07-.74,2.25-1.08,3.42-1.61,1.1-.5,1.91-1.36,2.05-2.58.11-.96-1.39-.95-1.5,0h0Z"/>
      <path class="cls-1" d="M49.09,63.79c.5-.48,1.04-.57,1.55-.09.44.41.88.77,1.52.66s1.15-.69,1.62-1.07c.6-.5,1.2-1,1.84-1.45.56-.39,1.15-.75,1.79-.98.81-.29,1.63-.31,2.48-.36,1.34-.09,2.77-.41,3.56-1.61s.35-2.58-1-3.04-2.84-.3-4.16.21-2.42,1.26-3.68,1.78c-.58.24-1.19.43-1.82.45-.81.03-1.54-.13-2.32.21s-1.42.92-2.02,1.47c-.53.49-1.16,1.06-1.33,1.79-.15.63.11,1.37.7,1.68.72.38,1.4-.01,1.96-.48.74-.62-.32-1.68-1.06-1.06-.28.23-.21.26,0-.05.13-.2.33-.37.5-.54.45-.45.94-.88,1.47-1.22.93-.6,2.2-.21,3.26-.46,1.99-.47,3.6-1.88,5.57-2.41.57-.15,3.26-.41,2.73.72s-2.06,1.03-3.05,1.09c-2.28.14-4,1.16-5.74,2.58-.25.2-.5.41-.75.62-.13.11-.61.62-.76.61-.17,0-.36-.3-.47-.41-.2-.17-.4-.32-.65-.41-.99-.4-2.07,0-2.8.72s.37,1.74,1.06,1.06h0Z"/>
      <path class="cls-1" d="M72.41,37.92c-.96,2.01-2.52,4.01-2.03,6.38.12.58.42,1.1.6,1.67.19.61.23,1.23.19,1.87-.08,1.24-.48,2.44-.76,3.64-.19.82-.51,1.99.37,2.54s1.77-.29,2.19-1.03c.61-1.05,1.27-2.12,1.75-3.23s.43-2.26.37-3.46c-.08-1.48-.15-2.95-.23-4.43-.07-1.26-.08-2.53-.69-3.67-.45-.85-1.75-.1-1.3.76.57,1.08.46,2.47.52,3.65.07,1.28.13,2.56.2,3.84.03.6.09,1.2,0,1.79-.08.64-.38,1.18-.68,1.73s-.62,1.11-.92,1.66c-.11.19-.34.5-.4.71-.2.16-.18.27.08.32.02-.13.05-.26.08-.4.47-2.23,1.39-4.56.62-6.83-.21-.61-.54-1.17-.59-1.83-.04-.52.07-1.03.22-1.52.38-1.21,1.15-2.27,1.69-3.41.41-.87-.88-1.63-1.3-.76h0Z"/>
      <path class="cls-1" d="M57.81,12.16c1.04.77,1.07,2.48,1.81,3.51.37.51.88.96,1.5,1.13.8.22,1.55-.06,2.34.28,1.58.68,3.12,1.44,4.67,2.16,1.46.67,2.76,1.65,4.32,2.08.93.25,1.33-1.19.4-1.45-1.5-.41-2.79-1.38-4.19-2.03-1.55-.72-3.09-1.47-4.66-2.15-.73-.32-1.32-.29-2.1-.3-.73,0-1.11-.55-1.4-1.17-.58-1.25-.77-2.48-1.94-3.35-.78-.58-1.52.72-.76,1.3h0Z"/>
    </g>
  </g>
</svg>