<?xml version="1.0" encoding="UTF-8"?>
<svg id="Layer_2" data-name="Layer 2" xmlns="http://www.w3.org/2000/svg" viewBox="0 0 95.73 79.14">
  <defs>
    <style>
      .cls-1 {
        fill: #1a1a1a;
      }
    </style>
  </defs>
  <g id="Layer_1-2" data-name="Layer 1">
    <g>
      <path class="cls-1" d="M26.9,9.34c-4.35-1.49-8.76.98-12.08,3.71-3.68,3.03-7.48,6.64-9.82,10.84s-3.36,9.1-4.13,13.86c-.73,4.48-1.81,9.5.72,13.62,1.12,1.83,2.71,3.31,3.95,5.05s1.72,3.72,1.87,5.91c.25,3.74.59,7.86,4.86,9.04,2.07.57,4.27.32,6.4.41,2.83.12,5.62.66,8.36,1.33,2.59.64,5.63,1.12,7.98,2.44,1.03.58,1.81,1.47,2.76,2.15s1.96,1.08,3.07,1.28c2.16.39,4.36,0,6.46-.52,1.36-.33,2.72-.72,4.12-.83,1.53-.11,2.77.36,4.23.71,2.39.58,5.05-.37,7.36-.94,2.53-.64,5.04-1.38,7.51-2.22s4.74-1.73,7.06-2.72c2.14-.92,4.55-1.79,6.38-3.24s1.94-3.13,1.9-5.26c-.02-1.27.2-2.2,1.23-2.99.72-.55,1.54-.94,2.24-1.51,1.66-1.36,1.76-3.24,1.27-5.21-.32-1.26-.72-2.47-.69-3.79s.43-2.74.95-4.01c1.81-4.49,5.56-8.7,4.8-13.86-.32-2.14-1.54-3.88-2.93-5.47s-2.84-3.24-3.89-5.19c-1.86-3.46-3.16-7.48-6.51-9.85-.86-.61-1.84-1.03-2.92-.98-1.31.07-2.41.65-3.75.34-2.33-.53-4.33-2.42-6.26-3.72-4.24-2.85-8.81-5.38-13.57-7.26-2.09-.82-3.81-.55-5.7.61-2.15,1.33-4.13,2.2-6.7,2.33s-4.9-.17-7.34-.31c-2.01-.11-4.31-.32-5.58,1.58-.83,1.25-1.39,5.54-3.61,4.64-.89-.36-1.28,1.09-.4,1.45,1.57.63,3.05-.5,3.83-1.83.45-.77.63-1.65.95-2.46.6-1.51,1.51-1.95,3.13-1.94,4.29.04,8.79,1.09,12.97-.33.95-.32,1.83-.78,2.67-1.31.98-.62,2.02-1.43,3.22-1.49s2.34.58,3.36,1.02c1.16.51,2.32,1.05,3.46,1.62,2.14,1.07,4.23,2.24,6.27,3.5s3.83,2.66,5.79,3.91c1.62,1.03,3.47,1.85,5.43,1.53,1.48-.24,2.44-.65,3.83.28.9.6,1.67,1.43,2.31,2.3,2.25,3.09,3.26,6.89,5.61,9.92,1.3,1.67,2.95,3.09,4,4.95,1.28,2.26,1.02,4.79.17,7.15-1.55,4.34-5,8.07-5.11,12.87-.02,1.08.18,2.12.46,3.15.31,1.17.89,2.64.28,3.81-.79,1.52-2.87,1.94-3.92,3.26-1.38,1.74-.4,3.74-.97,5.67-.61,2.06-3.38,2.96-5.13,3.77-4.61,2.13-9.4,3.88-14.29,5.23-2.36.65-4.97,1.56-7.43,1.67-1.32.06-2.47-.57-3.75-.8-1.04-.18-2.08-.15-3.12,0-2.39.33-4.68,1.24-7.1,1.39-1.12.07-2.27,0-3.34-.37-1.19-.41-2.03-1.26-2.98-2.04-1.79-1.48-3.98-2.02-6.17-2.63-2.49-.68-4.99-1.34-7.53-1.77-2.4-.41-4.78-.55-7.22-.56-2.04,0-4.45-.05-5.87-1.77-1.23-1.49-1.26-3.62-1.37-5.45s-.22-3.64-.95-5.33c-1.59-3.71-5.46-5.95-6.29-10.06-.5-2.5-.08-5.1.3-7.58.35-2.27.71-4.54,1.22-6.79,1.06-4.75,2.83-9.16,6.09-12.83,3.1-3.48,6.6-6.86,10.79-8.97,2.15-1.08,4.06-1.49,6.38-.69.92.31,1.31-1.13.4-1.45h0Z"/>
      <path class="cls-1" d="M26.91,10.95c1.6,1.4,3.91-.1,5.44-.95,1.05-.58,2.07-1.21,3.18-1.68,1.37-.58,2.6-.57,4.05-.61,2.39-.07,4.92-1.49,7.08-2.41,1.34-.57,2.66-1.17,3.94-1.85s2.59-1.71,4.13-1.61c.96.06.96-1.44,0-1.5-2.3-.15-4.35,1.58-6.32,2.54-2.42,1.17-4.99,2.32-7.56,3.11-1.19.36-2.42.1-3.64.29-1.01.16-1.95.51-2.87.95-1,.47-1.95,1.05-2.92,1.58-.71.39-2.69,1.76-3.45,1.09s-1.79.42-1.06,1.06h0Z"/>
      <path class="cls-1" d="M7.07,58.33c.96.85,2.09,1.1,3.35,1.11,1.7.01,3.08.05,4.64.81,1.44.69,2.17,1.81,3.18,2.97.94,1.08,2.11,1.96,3.4,2.57,2.7,1.27,5.8,1.04,8.3,2.83,1.21.87,2.26,2.07,2.89,3.43.41.89.45,1.92,1.12,2.69s1.7-.34,1.06-1.06c-.34-.39-.38-1.07-.54-1.54-.17-.53-.42-1.03-.7-1.5-.64-1.08-1.49-2.05-2.46-2.84s-1.98-1.35-3.11-1.76c-1.56-.56-3.24-.65-4.82-1.16s-2.87-1.38-3.93-2.56c-.88-.97-1.56-2.1-2.67-2.84s-2.61-1.34-3.98-1.51c-1.51-.19-3.41.41-4.66-.7-.72-.64-1.78.42-1.06,1.06h0Z"/>
      <path class="cls-1" d="M74.8,13.16c1.37.85,2.91,1.82,3.09,3.57.16,1.55-.52,3.06-.48,4.61.07,3.09,3.06,3.72,5.25,5.15,1.33.87,2.5,1.94,3.28,3.35.72,1.3,1.11,2.75,1.67,4.12.49,1.19,1.09,2.28,1.97,3.23.62.67,1.27,1.25,1.61,2.13.32.81.34,1.68.36,2.54.02.96,1.52.97,1.5,0-.03-1.55-.23-3.06-1.16-4.35s-2.03-2.15-2.69-3.61-1.07-3.04-1.8-4.49c-.68-1.36-1.67-2.48-2.86-3.42s-2.56-1.67-3.92-2.38c-.93-.49-1.6-.97-1.71-2.08-.09-.9.17-1.81.31-2.69.23-1.39.33-2.79-.39-4.06s-2.05-2.16-3.29-2.93c-.82-.51-1.58.78-.76,1.3h0Z"/>
      <path class="cls-1" d="M29.18,17.81c-.64-1.05-2.42-.99-3.48-.9-1.79.16-2.72,1.54-3.65,2.94-1.17,1.77-2.07,3.74-2.12,5.89-.03,1.4.16,2.7-.52,4-.51.98-1.33,1.79-2.13,2.54-1.51,1.4-3.22,2.69-4.15,4.59-.7,1.43-1.06,3.65.4,4.76s4.1-.01,5.53-.73c.38-.19,1.16-.86,1.6-.85.67.01.62.8.72,1.25.22.93.72,1.74,1.37,2.42,1.54,1.61,3.72,2.7,5.58,3.89s3.86,2.93,6.17,3.23c1.96.26,4.04-.13,5.76-1.12,1.83-1.05,2.64-2.57,3.56-4.38,1.14-2.25,3.45-2.08,5.55-2.78,1.74-.58,3.26-1.76,4.2-3.34s1.23-3.65.66-5.47c-.61-1.94-1.92-2.89-3.46-4.07-2.23-1.71-.5-4.64-2.03-6.74-.62-.86-1.59-1.35-2.55-1.76-1.29-.55-2.62-1.09-4-1.39-1.18-.26-2.37-.32-3.56-.09-1.4.26-2.98,1.08-4.41.67-1.17-.33-1.82-1.49-2.87-2.04-.7-.36-1.73.07-2.18-.53-.57-.76-1.87-.02-1.3.76.34.45.69.91,1.27,1.06s1.07-.15,1.63.14c.75.39,1.28,1.14,2,1.59s1.56.65,2.42.61c2.22-.09,4.1-1.2,6.37-.77,1,.19,1.96.54,2.91.91,1.07.41,2.56.85,3.18,1.91.86,1.5,0,3.49.7,5.09s2.59,2.17,3.64,3.55c1.24,1.63,1.34,3.88.36,5.66s-2.7,2.69-4.61,3.12c-1.53.34-3.18.61-4.33,1.79-1.24,1.28-1.47,3.16-2.81,4.39s-3.36,1.88-5.23,1.81c-2.32-.08-4.23-1.76-6.11-2.97-1.78-1.14-3.84-2.18-5.35-3.67-.72-.71-.98-1.4-1.2-2.36-.15-.65-.3-1.27-.9-1.66-1.46-.95-3.42.88-4.74,1.33-.99.34-2.78.99-3.05-.46-.2-1.05.37-2.17.97-3,1.25-1.74,3.11-2.9,4.51-4.49s1.96-3.15,1.93-5.18c-.04-2.66.72-4.7,2.24-6.87.56-.81,1.09-1.6,2.13-1.7.32-.03,1.86-.16,2.06.16.5.82,1.8.07,1.3-.76h0Z"/>
      <path class="cls-1" d="M48.59,24.71c1.17.57,2.48,1.2,3.14,2.39s.72,2.5,1.57,3.54c.45.55,1.1.86,1.59,1.37.55.57.85,1.39,1.09,2.13.52,1.6.7,3.26.15,4.87-.32.91,1.13,1.31,1.45.4.58-1.67.48-3.47,0-5.15-.22-.8-.51-1.63-.93-2.35-.45-.79-1.08-1.26-1.77-1.82-1.21-.97-1.18-2.69-1.97-3.94-.82-1.32-2.21-2.08-3.56-2.74-.86-.42-1.63.87-.76,1.3h0Z"/>
      <path class="cls-1" d="M36.75,50.85c.96.95,2.28.79,3.5.57,1.49-.28,2.78-.82,4-1.71s2.24-1.8,3.61-2.3c1.51-.56,3.13-.71,4.72-.85.95-.09.96-1.59,0-1.5-2.77.25-5.41.63-7.71,2.32-1.07.78-2.08,1.71-3.34,2.17-.89.32-2.91,1.04-3.71.25-.69-.68-1.75.38-1.06,1.06h0Z"/>
      <path class="cls-1" d="M52.22,70.15c1.95,3.79,6.8,3.48,10.36,2.76,2.3-.47,4.38-1.38,6.54-2.25,1.11-.44,2.19-.75,3.39-.8,1.07-.05,2.14.04,3.2-.2,1.62-.37,3.07-1.48,3.87-2.93.7-1.26.88-2.83-.66-3.5-1.84-.81-3.83.99-5.47,1.6-2.19.82-4.51,1.2-6.81,1.48-1.12.14-2.27.2-3.38.42s-2.08.84-3.11,1.39c-2.44,1.3-5.24.96-7.88.62-.95-.12-.95,1.38,0,1.5,2.15.27,4.37.53,6.5.01,1.06-.26,1.95-.75,2.89-1.28,1.19-.67,2.32-.87,3.67-1.02,2.23-.25,4.48-.51,6.66-1.1,1.04-.28,2.05-.63,3.04-1.07.53-.24,1.03-.53,1.55-.79.65-.33,1.42-.87,1.83-.05.47.94-.91,2.19-1.65,2.66-1.04.67-2.18.72-3.38.74-2.3.03-4.16.65-6.26,1.55-2.36,1.01-4.86,1.72-7.43,1.93-2.34.19-5-.13-6.18-2.44-.44-.86-1.74-.1-1.3.76h0Z"/>
      <path class="cls-1" d="M53.9,7.23c1.68.08,3.31.65,4.65,1.68,1.26.97,2.04,2.4,3.31,3.36s2.91,1.14,4.45,1.51,2.75,1.11,3.76,2.24,1.49,2.48,1.8,3.98c.09.44.11.47-.3.22-.33-.21-.62-.48-.9-.74-.53-.51-1-1.07-1.48-1.62-.93-1.05-1.92-2.01-3.24-2.54-1.57-.63-3.27-.63-4.91-.96-.98-.2-1.95-.49-2.53-1.37-.46-.7-.73-1.53-1.1-2.27-.85-1.67-1.94-3.2-3.2-4.58-.65-.72-1.71.35-1.06,1.06,1.35,1.49,2.47,3.16,3.31,4.99.77,1.69,1.56,2.88,3.43,3.43s3.98.34,5.78,1.19c1.58.75,2.56,2.32,3.76,3.53.81.82,2.62,2.46,3.68,1.08.85-1.11-.03-3.31-.56-4.4-.69-1.42-1.78-2.64-3.08-3.52-1.55-1.04-3.29-1.2-5.04-1.68-2.24-.61-3.15-2.69-4.86-4.05-1.62-1.28-3.58-1.96-5.64-2.06-.97-.05-.96,1.46,0,1.5h0Z"/>
      <path class="cls-1" d="M74.87,32.18c1.13.62,2.42.71,3.55,1.31.7.37,1.52.83,1.82,1.6.32.84.22,1.93.27,2.81.11,1.83.22,3.66.33,5.49s.38,3.6.3,5.37c-.01.32-.2,1.24-.7,1-.22-.1-.31-.62-.37-.82-.27-.93-.44-1.92-.56-2.88-.21-1.76-.05-3.45-.04-5.2,0-1.48-1.13-2.36-2.16-3.28-1.16-1.03-2.42-1.91-3.7-2.78-.78-.53-1.6-1.12-2.1-1.94-.23-.38-.4-.79-.46-1.23-.04-.26-.02-.48.01-.73.05-.36-.14-.2.05-.21.59-.05,1.57.85,2.1,1.11.65.32,1.31.51,2.04.48.96-.04.97-1.54,0-1.5-1.63.07-3.01-2.02-4.62-1.6-1.51.39-1.18,2.83-.71,3.87.81,1.79,2.56,2.76,4.11,3.84.88.61,1.71,1.28,2.49,2,.34.31.73.63,1.02.99.49.61.41,1.15.36,1.88-.15,2.15,0,4.33.45,6.44.27,1.33.84,3.62,2.72,3.06s1.56-2.91,1.47-4.41c-.14-2.37-.28-4.74-.42-7.12-.08-1.27-.12-2.54-.23-3.81-.09-1.01-.35-1.91-1.1-2.63-.69-.67-1.63-1.2-2.53-1.52s-1.79-.42-2.64-.89-1.6.83-.76,1.3h0Z"/>
      <path class="cls-1" d="M22.37,13.22c-.88-.11-1.78-.17-2.61.22s-1.37,1.08-1.97,1.69-1.24,1.2-1.7,1.91-.53,1.57-.46,2.42c.07.96.15,1.92.22,2.87.06.82.16,1.6-.51,2.19-.57.5-1.39.92-2.13,1.09-.62.14-1.67.04-1.7-.8-.04-.96-1.54-.97-1.5,0,.07,1.95,2.15,2.68,3.8,2.19s3.45-1.63,3.58-3.53c.07-.98-.1-2.02-.18-2.99s-.33-2.02.29-2.85,1.4-1.52,2.12-2.22c.35-.35.7-.65,1.22-.74s1.03,0,1.53.06c.96.12.95-1.38,0-1.5h0Z"/>
      <path class="cls-1" d="M11.23,48.73c.93,1.35,2.5,1.15,3.89.76,1.31-.37,2.8-.44,3.94.45.47.37.84.88,1,1.46.19.7.05,1.45-.06,2.15-.13.76-.24,1.51-.19,2.28.03.4.24,1.43-.33,1.6-.93.27-.53,1.72.4,1.45.72-.21,1.22-.81,1.39-1.53.2-.84-.04-1.7.05-2.55.17-1.69.7-3.34-.3-4.9-.9-1.39-2.46-2.12-4.08-2.17-.88-.03-1.71.19-2.55.42-.53.15-1.46.4-1.86-.16-.54-.79-1.84-.04-1.3.76h0Z"/>
      <path class="cls-1" d="M31.03,63.31c1.64.54,3.59,1.16,4.58,2.7,1.07,1.67.5,3.76,1.1,5.57.44,1.32,1.54,2.32,3,1.94,1.39-.37,2.3-1.64,2.69-2.96.51-1.75.06-3.53-.18-5.28-.26-1.89-.07-3.78.58-5.57s1.69-3.31,3.06-4.55c1.47-1.33,3.32-2.17,4.85-3.43.75-.61-.32-1.67-1.06-1.06-1.45,1.19-3.18,1.99-4.6,3.21-1.21,1.03-2.22,2.34-2.95,3.75s-1.19,2.89-1.39,4.44c-.21,1.7.04,3.32.29,5,.23,1.56.39,3.91-1.26,4.83-2.04,1.14-1.85-3.08-1.99-4.07-.48-3.53-3.21-4.95-6.31-5.97-.92-.3-1.31,1.14-.4,1.45h0Z"/>
      <path class="cls-1" d="M70.42,40.92c1.05,1.59,1.53,3.49,1.92,5.34.23,1.07.31,2.08.02,3.15-.23.85-.63,1.64-.8,2.51-.69,3.48,2.28,4.83,5.28,4.67,1.66-.08,2.76-1.32,4.19-2.03,1.52-.76,3.19-1.33,4.54-2.39,2.84-2.23,1.76-6.38,1.62-9.48-.09-1.99.41-3.96.16-5.94-.27-2.12-1.13-4.07-2.14-5.93-.46-.85-1.75-.09-1.3.76,1.04,1.93,1.97,4.01,2.02,6.24.04,1.95-.33,3.85-.19,5.82s.61,4.15-.07,5.99-3.05,2.54-4.65,3.28c-.81.38-1.62.77-2.35,1.28-.31.22-.64.55-.98.72-.58.28-1.44.23-2.07.19-.91-.05-2.02-.3-2.48-1.2-.54-1.05.07-2.32.42-3.33.61-1.77.56-3.35.14-5.17s-.92-3.66-1.96-5.24c-.53-.8-1.83-.05-1.3.76h0Z"/>
      <path class="cls-1" d="M80.98,60.74c-2.66-1.84-5.93-2.65-9.14-2.28-1.58.18-3,.69-4.44,1.34-1.09.49-2.37.95-2.54-.71-.11-1.02-.11-2.09.14-3.08.46-1.83,1.58-3.42,2.14-5.21s.68-3.64.51-5.47c-.37-3.86-2-7.4-3.63-10.88-.41-.87-1.7-.11-1.3.76,1.82,3.88,3.71,7.96,3.48,12.35-.11,2.24-1.02,4.06-1.91,6.06-.77,1.72-1.09,3.38-.96,5.26.09,1.27.39,2.46,1.77,2.84,1.66.45,3.19-.8,4.68-1.28,3.53-1.13,7.4-.49,10.43,1.61.8.55,1.55-.75.76-1.3h0Z"/>
      <path class="cls-1" d="M60.1,51.48c-1.27-.97-2.96.16-4.13.79-1.35.73-2.7,1.58-3.73,2.74-1.14,1.28-1.65,2.97-2.94,4.13-1.18,1.06-2.6,1.95-3.13,3.53-.42,1.25-.03,2.78,1.15,3.47,1.49.87,2.69-.34,3.85-1.13,1.44-.98,3.39-.72,5.03-.69.94.01,1.88.03,2.82.04.77,0,1.55-.05,2.09-.66,1.13-1.28.21-3.61-.18-5.01-.56-2-1.25-4.07-.92-6.16.15-.94-1.3-1.35-1.45-.4-.48,3.03.74,5.79,1.37,8.7.1.44.38,1.31.13,1.76-.27.5-1.5.27-1.98.26-1.54-.02-3.11-.12-4.65-.02-1.42.09-2.55.52-3.66,1.39-.38.29-.88.79-1.4.73s-.84-.69-.87-1.17c-.07-1.32,1.35-2.3,2.24-3.03,1.16-.95,1.89-2,2.63-3.29.78-1.37,1.85-2.37,3.19-3.2.61-.38,1.23-.71,1.87-1.04.53-.28,1.35-.85,1.92-.42.77.58,1.52-.72.76-1.3h0Z"/>
      <path class="cls-1" d="M35.94,13.4c.65.41.94,1.19,1.62,1.58.77.43,1.59.18,2.4.38.68.17,1.05.83,1.48,1.32.52.59,1.12,1,1.91,1.12.86.14,1.74.02,2.61.17.94.17,1.87.51,2.62,1.13.63.52,1.13,1.09,1.91,1.38.83.3,1.76.28,2.59.01,1.32-.43,3.14-1.54,2.94-3.16-.1-.81-.69-1.54-1.08-2.24-.54-.96-.85-1.99-1.23-3.02-.56-1.54-1.39-3.09-3-3.72-1.77-.69-2.94.3-4.23,1.38-1,.83-2.03,1.23-3.34,1-1.03-.18-2.01-.57-3.05-.68-1.63-.17-3.68.51-4.31,2.13-.35.9,1.1,1.29,1.45.4.24-.62,1.26-.92,1.86-1.03.8-.14,1.61.12,2.37.31,1.39.36,2.81.68,4.2.14.56-.22,1.05-.55,1.52-.92.61-.48,1.23-1.31,2.03-1.46,1.72-.32,2.66,1.72,3.12,3.01.53,1.5,1.12,2.83,1.91,4.21.25.43.44.74.09,1.18-.23.29-.62.52-.94.7-.77.42-1.71.67-2.54.26-.61-.29-1.04-.86-1.58-1.26-.57-.42-1.21-.73-1.88-.95-.58-.19-1.19-.3-1.81-.37-.73-.08-1.69.11-2.36-.21-1.15-.54-1.48-1.97-2.84-2.29-.69-.16-1.57.09-2.16-.32s-.88-1.09-1.5-1.49c-.82-.52-1.57.78-.76,1.3h0Z"/>
      <path class="cls-1" d="M13.7,41.65c.78,1.38,1.68,2.83,3.21,3.45,1.77.72,3.78.44,5.53,1.34,1.62.83,2.62,2.49,4.08,3.55s3.16,1.64,4.94,1.84c.96.11.95-1.39,0-1.5-1.66-.19-3.28-.86-4.57-1.94s-2.19-2.47-3.69-3.24-3.06-.93-4.66-1.17c-1.83-.28-2.68-1.56-3.54-3.08-.47-.84-1.77-.09-1.3.76h0Z"/>
      <path class="cls-1" d="M9.37,29.49c-1.35.9-2.57,1.98-3.6,3.24s-2.07,2.76-2.1,4.46c-.02,1.39.82,2.88,2.21,3.27,1.58.44,3.37-.69,4.33-1.88.58-.72.89-1.5,1-2.41.09-.74.05-1.77.84-2.12.37-.16.46-.71.27-1.03-.23-.38-.65-.43-1.03-.27-1.37.6-1.39,2.14-1.59,3.4s-1.18,2.25-2.33,2.73c-.52.22-1.09.27-1.54-.09-.39-.31-.62-.82-.67-1.31-.14-1.3.79-2.58,1.55-3.55.96-1.21,2.11-2.27,3.39-3.13.8-.53.05-1.83-.76-1.3h0Z"/>
      <path class="cls-1" d="M7.83,59.76c2.08.88,4.17,1.77,6.09,2.97s3.29,2.77,5.07,3.99,3.46,1.18,5.58,1.25c2.55.08,4.98,1.07,7.32,2.01.9.36,1.29-1.09.4-1.45-2.08-.83-4.19-1.66-6.43-1.95-1.12-.15-2.22-.03-3.35-.09-1.18-.07-2.2-.63-3.13-1.33-1.61-1.21-2.99-2.66-4.71-3.73-1.92-1.2-4.01-2.09-6.09-2.97-.88-.37-1.64.92-.76,1.3h0Z"/>
      <path class="cls-1" d="M76.78,13.57c1.69.75,3.19,1.87,4.31,3.36,1.18,1.58,1.56,3.52,2.64,5.14s2.57,3.07,3.26,5.02c.73,2.07.67,4.37.78,6.54.05.96,1.55.97,1.5,0-.12-2.24-.07-4.61-.78-6.76s-2.23-3.68-3.47-5.55c-1.16-1.74-1.58-3.79-2.89-5.47-1.22-1.56-2.79-2.78-4.6-3.57-.87-.39-1.64.91-.76,1.3h0Z"/>
      <path class="cls-1" d="M33.86,20.64c-2.11,1.07-4.64.18-6.82,1.08-1.93.8-2.65,2.67-2.91,4.61-.14,1.07-.16,2.19-.54,3.22-.43,1.18-1.43,1.95-2.42,2.65s-2.05.74-3.18,1.07-2.28.84-3.33,1.45c-.83.48-.08,1.78.76,1.3,1.14-.66,2.35-1.17,3.64-1.47,1.08-.26,1.95-.39,2.87-1.04,1.8-1.28,3.07-2.64,3.43-4.89.33-2.1.15-4.87,2.63-5.64,2.19-.68,4.5.05,6.63-1.03.86-.44.1-1.73-.76-1.3h0Z"/>
      <path class="cls-1" d="M20.83,39.48c.8-1.03,1.86-2.18,3.23-2.35.76-.09,1.08.33,1.24,1.02.17.75.18,1.53.27,2.29s.21,1.47.49,2.17c.3.75.72,1.43,1.14,2.12.79,1.31,1.64,2.61,2.75,3.67.7.67,1.76-.39,1.06-1.06-1.26-1.21-2.17-2.73-3.04-4.24-.45-.78-.76-1.56-.88-2.46s-.13-1.77-.29-2.64c-.14-.74-.43-1.49-1.05-1.95-.66-.48-1.49-.5-2.26-.34-1.55.33-2.78,1.49-3.71,2.7-.25.32-.31.75,0,1.06.26.26.81.32,1.06,0h0Z"/>
      <path class="cls-1" d="M47.76,29.56c.31,1.3-.28,2.6-1.16,3.55s-2.16,1.61-2.68,2.92c-.23.57-.29,1.2-.1,1.79s.67,1.01,1.04,1.51c1,1.34-.53,2.69-1.47,3.52-.73.64.34,1.69,1.06,1.06,1.12-.98,2.28-2.16,2.24-3.76-.01-.68-.28-1.27-.7-1.8-.51-.64-1.03-1.1-.59-1.96.33-.64.99-1.08,1.53-1.53s1.06-1,1.47-1.61c.81-1.21,1.14-2.66.81-4.08-.22-.94-1.67-.54-1.45.4h0Z"/>
      <path class="cls-1" d="M36.73,27.88c.79-.77,3.31-1.69,3.81-.17.27.8-.35,1.18-.67,1.81s-.22,1.29-.06,1.93.29,1.24.14,1.93-.41,1.3-.67,1.93-.49,1.21-.63,1.84c-.16.71-.1,1.37-.09,2.09.01.82-.45,1.19-1.21,1.39-.35.09-.89.27-1.12-.01-.21-.26-.25-.84-.28-1.15-.14-1.42-.39-2.63-1.6-3.54-1.09-.81-2.25-.72-3.53-.78-.66-.03-1.24-.18-1.42-.89-.13-.52-.1-1.59.3-1.98.42-.42,1.59-.19,2.17-.3.81-.16,1.61-.51,2.29-.98,1.4-.95,2.39-2.33,3.2-3.79.47-.85-.83-1.6-1.3-.76-.93,1.68-2.17,3.38-4.1,3.95-.84.25-1.73.05-2.56.31s-1.22.99-1.4,1.78c-.33,1.45-.16,3.21,1.37,3.88s3.27-.26,4.45,1.09c.63.72.55,1.59.67,2.48.11.72.35,1.8,1.05,2.19s2.03.04,2.73-.23,1.33-.79,1.61-1.5c.34-.86.02-1.75.16-2.63.13-.83.5-1.61.81-2.38.28-.69.53-1.39.63-2.13.06-.43.06-.85,0-1.29s-.35-.96-.33-1.41c.02-.51.48-.84.69-1.29.18-.38.27-.8.26-1.22-.01-.85-.44-1.65-1.12-2.14-1.52-1.09-4.07-.3-5.31.91-.69.67.37,1.73,1.06,1.06h0Z"/>
    </g>
  </g>
</svg>