<?xml version="1.0" encoding="UTF-8"?>
<svg id="Layer_2" data-name="Layer 2" xmlns="http://www.w3.org/2000/svg" viewBox="0 0 46.64 39.78">
  <defs>
    <style>
      .cls-1 {
        fill: #1a1a1a;
      }
    </style>
  </defs>
  <g id="Layer_1-2" data-name="Layer 1">
    <g>
      <path class="cls-1" d="M45.02,8.11s0,.02-.01.03c-.04,0-.07-.03-.11-.04h.03s.06,0,.09.01Z"/>
      <g>
        <path class="cls-1" d="M23.29,36.91c-.06,0-.12,0-.17-.01l-.1-.02c.09.02.18.03.27.03Z"/>
        <path class="cls-1" d="M23.66,36.88s-.06.03-.09.02t-.02.01s-.05.01-.07.01c-.18.01-.35.01-.52.01-.1,0-.2,0-.3-.01.21-.01.42-.01.63-.01h.05c.11,0,.21-.01.32-.03Z"/>
      </g>
      <path class="cls-1" d="M45.02,8.11s0,.02-.01.03c-.04,0-.07-.03-.11-.04h.03s.06,0,.09.01Z"/>
      <g>
        <path class="cls-1" d="M23.29,36.91c-.06,0-.12,0-.17-.01l-.1-.02c.09.02.18.03.27.03Z"/>
        <path class="cls-1" d="M23.66,36.88s-.06.03-.09.02c-.07.01-.15.01-.23.01.11,0,.21-.01.32-.03Z"/>
      </g>
      <g>
        <path class="cls-1" d="M46.28,35.07c.06.86.13,1.92-.45,2.79-.74,1.11-2.03,1.14-2.8,1.16-.19.01-.39.02-.6.04-.37.02-.73.05-1.1.05-.27,0-.53-.01-.79-.05-.59-.07-1.15-.2-1.7-.32-.23-.06-.47-.11-.7-.16-1.76-.36-3.34-.65-4.85-.89-3.36-.52-6.47-.78-9.52-.78h-.22s.01,0,.02-.01c.03.01.06,0,.09-.02-.11.02-.21.03-.32.03h-.05c-.09,0-.18-.01-.27-.03l.1.02s.11.01.17.01c-.21,0-.42,0-.63.01h0c-3.23.05-6.46.52-9.61,1.38-.54.15-1.08.34-1.62.52-1.1.37-2.24.76-3.46.89-.41.05-.84.07-1.29.07-1.35,0-2.67-.2-3.96-.4l-.16-.03c-.86-.13-1.36-.93-1.4-1.65l-.06-.99c-.01-.16,0-.31.03-.45-.04-.1-.07-.21-.09-.32C.05,30.39-.23,24.89.19,19.59c.06-.66.13-1.33.19-1.99.15-1.42.3-2.77.28-4.17-.02-.88-.05-3.55,2.39-4.93.52-.75,1.36-1.08,2.02-1.34l.28-.11c1.39-.56,2.82-.98,4.26-1.26,1.7-.32,3.2-.48,4.6-.48,1.61,0,3.05.22,4.29.65,1.56.56,2.73,1.6,3.86,2.61.52.46,1.02.9,1.54,1.28.23-.1.47-.19.72-.26.01,0,.1-.03.1-.03.25-.07.32-.1.38-.15.51-.43.89-1.15,1.29-1.91.26-.49.52-1,.84-1.46,1.81-2.59,4.79-3.98,7.41-5.19.42-.2.83-.39,1.23-.58.22-.1.45-.16.69-.17.01-.01.02-.01.03-.01.15-.05.31-.08.48-.09,1.01,0,1.8.8,1.8,1.75v1.02c.57-.28,1.16-.52,1.75-.72.18-.06.36-.09.54-.09.88,0,1.64.73,1.73,1.67.04.51.07,1.04.07,1.59.4.04.75.17,1.06.37,1.03.67,1.05,1.75,1,2.52-.03-.01-.06-.01-.09-.01h-.03s.07.03.11.04c.01,0,.01-.02.01-.03.46.01.88.2,1.18.51.31.33.46.78.44,1.25-.43,8.05-.88,16.37-.39,24.76v.11c0,.1.01.22.03.33Z"/>
        <path class="cls-1" d="M23.66,36.88s-.06.03-.09.02t-.02.01h-.21c.11,0,.21-.01.32-.03Z"/>
      </g>
      <path class="cls-1" d="M23.29,36.91c-.06,0-.12,0-.17-.01l-.1-.02c.09.02.18.03.27.03Z"/>
    </g>
  </g>
</svg>