<?xml version="1.0" encoding="UTF-8"?>
<svg id="Layer_2" data-name="Layer 2" xmlns="http://www.w3.org/2000/svg" viewBox="0 0 44.64 37.78">
  <defs>
    <style>
      .cls-1 {
        fill: #1a1a1a;
      }
    </style>
  </defs>
  <g id="Layer_1-2" data-name="Layer 1">
    <g>
      <path class="cls-1" d="M26.44,32.03c-.12.13-.26.25-.4.36l.15-.12c-.19.15-.4.27-.62.37l.18-.08c-.19.08-.39.14-.6.17l.2-.03s-.06,0-.09.01l.38,1.4c.63-.34,1.25-.7,1.86-1.09l-1.03-1.03-.02.03.12-.15c-.04.05-.09.1-.13.15-.13.15-.22.32-.22.53,0,.18.08.4.22.53s.33.23.53.22.4-.07.53-.22c.09-.11.18-.21.27-.33l.08-.18c.03-.1.04-.2.01-.3-.02-.16-.09-.32-.21-.43-.24-.22-.62-.3-.91-.12-.61.39-1.23.75-1.86,1.09-.28.15-.44.54-.34.85.04.12.1.24.19.33.11.13.36.24.53.22.46-.05.89-.17,1.3-.39.35-.19.67-.45.95-.74.13-.14.22-.33.22-.53,0-.18-.08-.4-.22-.53-.29-.27-.77-.3-1.06,0Z"/>
      <path class="cls-1" d="M36.49,5.35c1.21-.7,2.51-1.46,3.84-1.91l-.95-.72c.1,1.16.08,2.32-.01,3.48-.04.52.51.81.95.72.29-.06.58-.12.87-.16.32,0,.42.12.32.37.12.38-.09,1.08-.13,1.48-.08,1.07-.16,2.14-.22,3.22-.11,2.06-.18,4.13-.23,6.2-.09,4.22-.05,8.44-.02,12.66l.75-.75c-3.08-.31-6.26-.59-9.3.17s-5.44,3.29-8.83,3.13-5.48-3.02-8.67-3.78c-2.87-.68-5.92-.05-8.62,1-.84.33-1.45.56-2.08,1.22s-1.46,1.32-1.97,2.04c-.02.02-.35.25-.35.28-.03.33.49.51.61.27.11-.22-.03-.79-.02-1.05.02-.88.12-1.75.15-2.63.29-6.73,1.26-13.41,1.47-20.14,0-.3-.12-1.19.03-1.44.22-.37.89-.54,1.23-.68.83-.33,1.69-.61,2.55-.83,1.96-.5,3.98-.72,6.01-.63,1.88.08,3.41.53,4.87,1.73,1.22,1,2.32,2.17,3.7,2.95.84.47,1.6-.82.76-1.3-1.39-.78-2.47-1.98-3.7-2.96s-2.56-1.59-4.17-1.8c-3.32-.44-6.86.07-9.99,1.24-1.07.4-2.51.71-2.73,1.99-.15.86-.05,1.82-.09,2.69-.05,1.1-.12,2.19-.21,3.29-.29,3.7-.76,7.38-1.02,11.09-.18,2.6-.41,5.32-.37,7.93,0,.55-.01,1.35.53,1.67.72.43,1.49-.32,1.97-.76.67-.62,1.22-1.36,1.88-1.98,1.01-.93,2.85-1.33,4.18-1.63,1.75-.4,3.62-.52,5.37,0,1.89.55,3.24,1.97,4.98,2.81,3.38,1.63,6.68.87,9.77-.94,3.72-2.18,7.93-1.86,12.06-1.45.4.04.75-.38.75-.75-.04-5.21-.08-10.43.1-15.64.09-2.56.26-5.12.46-7.68.06-.7.16-1.51-.53-1.96s-1.81-.09-2.54.05l.95.72c.09-1.16.11-2.32.01-3.48-.04-.45-.45-.89-.95-.72-1.46.49-2.87,1.29-4.2,2.06-.84.48-.08,1.78.76,1.3h0Z"/>
      <path class="cls-1" d="M27.5,33.03c1.87-1.25,3.51-2.81,5.55-3.78s4.36-1.43,6.64-1.4c.97.01.97-1.49,0-1.5-2.41-.03-4.78.45-6.99,1.42s-3.96,2.63-5.96,3.96c-.8.53-.05,1.83.76,1.3h0Z"/>
      <path class="cls-1" d="M24.89,32.82l-.45.24c-.09.05-.16.11-.21.19-.07.07-.11.16-.13.26-.03.1-.04.2-.01.3,0,.1.03.19.09.28l.12.15c.09.09.2.16.33.19l.2.03c.14,0,.26-.03.38-.1l.45-.24c.09-.05.16-.11.21-.19.07-.07.11-.16.13-.26.03-.1.04-.2.01-.3,0-.1-.03-.19-.09-.28l-.12-.15c-.09-.09-.2-.16-.33-.19l-.2-.03c-.14,0-.26.03-.38.1h0Z"/>
      <path class="cls-1" d="M39.37,6.2c-.17,1.88-.48,3.74-.63,5.63-.14,1.75-.06,3.5.05,5.24s.24,3.48.25,5.23-.03,3.35.4,5c.25.93,1.69.54,1.45-.4-.43-1.63-.34-3.3-.35-4.97-.02-1.76-.17-3.51-.27-5.26s-.15-3.49,0-5.23.44-3.48.6-5.23c.09-.96-1.41-.96-1.5,0h0Z"/>
      <path class="cls-1" d="M21.91,34.36c1.98.92,4.78-1.36,6.19-2.57,1.06-.92,1.46-2.27,2.11-3.49,1.13-2.13,3.75-3.35,6.06-3.8.32-.06.55-.41.55-.72.01-6.28.03-12.57.04-18.85,0-.97-1.5-.97-1.5,0-.01,6.28-.03,12.57-.04,18.85l.55-.72c-1.78.35-3.77,1.23-5.23,2.32s-2.06,2.86-2.85,4.42c-.43.85-1.37,1.45-2.19,1.99-.55.36-2.2,1.61-2.93,1.27-.87-.4-1.63.89-.76,1.3h0Z"/>
      <path class="cls-1" d="M35.36.75c0,1.39,0,2.79,0,4.18,0,.39.35.77.75.75s.75-.33.75-.75c0-1.39,0-2.79,0-4.18,0-.39-.34-.77-.75-.75s-.75.33-.75.75h0Z"/>
      <path class="cls-1" d="M35.3.17c-2.93,1.41-6.33,2.69-8.26,5.45-.78,1.11-1.26,2.68-2.31,3.56-.26.22-.51.27-.84.37-.53.15-1.01.38-1.46.69-.81.57-.04,1.91.78,1.34.73-.51,1.63-.56,2.34-1.09,1.12-.83,1.68-2.25,2.38-3.41,1.76-2.92,5.2-4.16,8.14-5.57.9-.43.11-1.77-.78-1.34h0Z"/>
      <path class="cls-1" d="M22.09,10.91c-.17,7.46-.33,14.93-.55,22.39-.03.97,1.47.96,1.5,0,.21-7.46.37-14.92.55-22.39.02-.97-1.48-.97-1.5,0h0Z"/>
      <path class="cls-1" d="M22.42,33.42c-1.84.1-3.56-.47-5.3-.96s-3.37-.78-5.13-.74c-3.56.09-6.92,1.34-10.14,2.77-.88.39-.12,1.68.76,1.3,3.2-1.42,6.6-2.65,10.15-2.56,3.31.08,6.33,1.88,9.67,1.7.96-.05.97-1.55,0-1.5h0Z"/>
      <path class="cls-1" d="M2.55,8.37c-1.55.87-1.92,2.4-1.9,4.06.03,2.12-.3,4.15-.47,6.25-.43,5.37-.11,10.79.82,16.09.17.95,1.61.55,1.45-.4-.84-4.76-1.07-9.55-.84-14.38.09-1.96.52-3.9.57-5.86.04-1.55-.51-3.57,1.13-4.48.84-.47.09-1.77-.76-1.3h0Z"/>
      <path class="cls-1" d="M22.26,34.91c7.06-.6,14.15-.54,21.23-.47.39,0,.77-.35.75-.75-.45-8.3-.05-16.58.39-24.87.05-.96-1.45-.96-1.5,0-.44,8.29-.84,16.57-.39,24.87l.75-.75c-7.08-.07-14.17-.13-21.23.47-.95.08-.96,1.58,0,1.5h0Z"/>
      <path class="cls-1" d="M44.21,8.39c-.17-.14-.3-.22-.5-.29-.13-.05-.28-.06-.42-.07-.17-.02-.33,0-.5-.03l.2.03c-.07,0-.14-.03-.2-.05l.18.08s-.06-.03-.09-.04c-.16-.1-.39-.13-.58-.08-.17.05-.36.18-.45.34-.09.17-.14.38-.08.58s.17.34.34.45c.23.14.49.19.76.21.15.01.3,0,.45.02l-.2-.03c.07,0,.13.02.2.05l-.18-.08s.08.04.12.07l-.15-.12s.02.01.02.02c.15.13.32.22.53.22.18,0,.4-.08.53-.22s.23-.33.22-.53-.07-.4-.22-.53h0Z"/>
      <path class="cls-1" d="M42.74,33.69c.01.31.22,1.48.01,1.75-.06.08-.66.08-.98.09-2.06.11-3.89-.36-5.9-.74-3.63-.69-7.3-1.2-11-1.35s-7.38.11-10.98.85c-1.9.39-3.71.98-5.55,1.57-2.06.66-4.15.39-6.25.06l.55.72c-.02-.33-.04-.66-.06-.99-.06-.96-1.56-.97-1.5,0,.02.33.04.66.06.99.02.3.22.67.55.72,1.9.3,3.85.6,5.76.27,2.15-.37,4.22-1.33,6.37-1.8,4.38-.95,8.88-1.11,13.34-.76,2.24.18,4.47.48,6.69.86,2.02.35,4.13,1.06,6.17,1.16.95.05,2.84.19,3.67-.48s.57-2.03.53-2.94c-.04-.96-1.54-.97-1.5,0h0Z"/>
    </g>
  </g>
</svg>