<?xml version="1.0" encoding="UTF-8"?>
<svg id="Layer_2" data-name="Layer 2" xmlns="http://www.w3.org/2000/svg" viewBox="0 0 178.36 129.07">
  <defs>
    <style>
      .cls-1 {
        fill: #231f20;
      }
    </style>
  </defs>
  <g id="Layer_1-2" data-name="Layer 1">
    <path class="cls-1" d="M42.91,9.97c1.53,23.13-1.06,46.27-4.62,69.1-.89,5.71-2,11.41-2.79,17.13-.33,2.37-.25,4.89,1.42,6.78,1.78,2.01,4.48,2.21,6.95,1.67s4.58-1.57,6.98-2.05c2.54-.51,5.13-.64,7.71-.71,5.61-.16,11.23-.22,16.84-.2s11.5.19,17.22.67c2.76.23,5.51.54,8.25.95,1.44.22,2.96.64,4.42.32,1.37-.3,2.43-1.26,3.16-2.42,2.78-4.39,1.99-10.11,2.12-15.02.15-5.6,1.35-11.08,2.39-16.56s1.78-11.4,1.99-17.19.13-11.44.13-17.16,0-11.58,0-17.37c0-2.98,0-5.96,0-8.94,0-2.41.12-5.13-1.59-7.05-1.87-2.1-4.94-2.03-7.53-1.84-2.95.22-5.84.84-8.73,1.43-5.46,1.12-10.96,1.58-16.52,1.67s-11.26-.12-16.89-.16c-2.9-.02-5.79,0-8.68.13-2.5.11-5.09.19-7.53.78s-4.27,1.76-5.64,3.72c-.78,1.11-.2,2.78.9,3.42,1.25.73,2.64.21,3.42-.9.89-1.27,2.89-1.56,4.3-1.72,2.46-.29,4.97-.35,7.44-.4,5.39-.12,10.79.06,16.18.13s10.59.03,15.86-.52c2.7-.28,5.37-.69,8.03-1.23s5.06-1.12,7.64-1.33c1.18-.1,2.4-.16,3.58-.03.14.02.63.23.39.07-.21-.14.13.1.16.2.07.21.15.51.18.73.17,1.1.06,2.29.06,3.39,0,1.49,0,2.98,0,4.47,0,5.46,0,10.92,0,16.38,0,10.64.57,21.53-.94,32.1-.74,5.21-1.97,10.33-2.76,15.53-.41,2.73-.74,5.48-.82,8.25-.07,2.39.08,4.79-.07,7.18-.07,1.06-.21,2.08-.48,3.11-.16.59-.41,1.94-.95,2.33.15-.11.54.09-.27-.05-.21-.04-.43-.07-.64-.1-.64-.1-1.28-.2-1.92-.29-1.42-.21-2.85-.39-4.27-.56-5.3-.61-10.64-.91-15.98-1.03s-10.86-.07-16.29.01c-5.13.08-10.34,0-15.39,1.05-2.26.47-4.34,1.44-6.57,1.97-1.44.34-2.38.18-2.41-1.46-.04-2.3.64-4.69,1.01-6.95.45-2.68.89-5.37,1.31-8.05,3.44-21.56,6.24-43.36,5.65-65.24-.07-2.71-.2-5.42-.38-8.13-.09-1.35-1.09-2.5-2.5-2.5-1.28,0-2.59,1.15-2.5,2.5h0Z"/>
    <path class="cls-1" d="M64.77,27.85c1.58.76,3.15,1.55,4.74,2.28s3.22,1.08,4.85.13c1.18-.69,2-1.84,3.07-2.68s2.26-1.49,3.49-1.94c2.45-.88,5.28-1.24,7.81-.5,1.08.32,1.44.91,1.98,1.86.76,1.33,1.57,2.46,2.84,3.33,1.11.77,2.77.21,3.42-.9.73-1.24.22-2.65-.9-3.42-.78-.54-1.13-1.79-1.66-2.56-.93-1.37-2.1-2.32-3.64-2.9-2.78-1.05-6.08-.96-8.94-.37s-5.73,2.01-8.05,3.94c-.49.41-.94.85-1.39,1.3-.14.14-.37.43-.56.51.07-.03.44,0,.23-.11-1.54-.84-3.19-1.54-4.77-2.3-1.22-.59-2.7-.33-3.42.9-.64,1.09-.32,2.83.9,3.42h0Z"/>
    <path class="cls-1" d="M60.48,46.22l3.89,2.51c1.22.79,2.47,1.8,3.87,2.25,1.64.53,3.17-.07,4.67-.71,1.42-.6,2.83-1.21,4.25-1.82,2.64-1.13,5.27-2.5,8-3.38.87-.28,1.12-.05,1.8.54.94.8,1.78,1.66,2.82,2.34,2.7,1.77,5.21-2.56,2.52-4.32-1.85-1.21-3.06-3.14-5.38-3.6-1.55-.31-2.96.13-4.38.73s-2.88,1.23-4.33,1.85c-2.69,1.15-5.41,2.26-8.09,3.44-.56.25-.48.13-1.18-.32-.62-.39-1.23-.79-1.84-1.19l-4.1-2.64c-2.71-1.75-5.22,2.58-2.52,4.32h0Z"/>
    <path class="cls-1" d="M58.01,62.86c2.63,1.22,5.3,3.09,8.17,1.5,2.43-1.35,4.55-3.46,7.1-4.55l-1.26.34c-.49-.31-.49-.28-.02.1.23.21.47.41.7.62.47.41.93.83,1.4,1.24.85.75,1.7,1.61,2.84,1.89,1.49.35,2.6-.36,3.89-.95.79-.36,1.67-.58,2.53-.71,1.96-.28,4-.14,5.97-.02,1.55.1,3.38.18,4.58,1.28,2.37,2.16,5.92-1.36,3.54-3.54-2.6-2.37-5.97-2.65-9.33-2.81-1.68-.08-3.35-.1-5.01.11-.9.11-1.8.25-2.67.52-.77.23-2.13.56-2.68,1.14-.43.19-.23.25.59.17-.18-.16-.35-.31-.53-.47-.35-.31-.7-.62-1.05-.93-.7-.62-1.38-1.28-2.13-1.84-1.96-1.46-3.79-.63-5.6.57-1.57,1.03-3.13,2.07-4.71,3.1-.14.09-1.2.64-.6.5.46-.11-.25-.21-.56-.35l-2.64-1.23c-1.22-.57-2.69-.34-3.42.9-.63,1.08-.33,2.85.9,3.42h0Z"/>
    <path class="cls-1" d="M53.79,78.16c2.06.97,4.17,1.98,6.44,2.38,2.45.43,4.81.1,7.2-.5,4.54-1.14,8.99-2.61,13.36-4.3.91-.35,1.2-.51,2.06-.05.63.33,1.23.75,1.78,1.2,1.37,1.11,2.54,2.46,3.69,3.79,2.37,2.76,4.68,5.57,7.9,7.39,2.81,1.59,5.33-2.73,2.52-4.32-3.03-1.71-5.11-4.58-7.35-7.15s-5.58-6.22-9.26-6.27c-2.18-.03-4.43,1.28-6.46,1.99-2.25.79-4.52,1.51-6.81,2.15-2.13.6-4.39,1.38-6.63,1.29-2.08-.08-4.05-1.06-5.9-1.93-1.22-.58-2.7-.34-3.42.9-.64,1.09-.33,2.84.9,3.42h0Z"/>
    <path class="cls-1" d="M138.14,40.95c-9.85,6.24-19.36,12.98-28.54,20.17-1.06.83-.87,2.66,0,3.54,1.05,1.05,2.47.84,3.54,0,8.84-6.92,18.04-13.38,27.53-19.39,2.71-1.72.21-6.05-2.52-4.32h0Z"/>
    <path class="cls-1" d="M175.19,71.82c-21.33,7.7-40.01,20.76-57.83,34.52-1.34,1.04-2.67,2.08-4.01,3.12-.08.06-.48.29-.5.39,1.06.51,1.39.57.99.19-.12-.12-.23-.25-.34-.39-.52-.63-1.01-1.28-1.52-1.92-2.23-2.81-4.45-5.63-6.68-8.44-.84-1.06-2.66-.88-3.54,0-1.05,1.05-.84,2.47,0,3.54,2.02,2.56,4.05,5.12,6.07,7.67.86,1.09,1.67,2.38,2.71,3.31,1.41,1.26,3.23,1.34,4.82.36,1.15-.71,2.2-1.7,3.27-2.53,1.18-.92,2.36-1.83,3.54-2.73,2.3-1.76,4.61-3.5,6.94-5.22,9.4-6.94,19.12-13.5,29.45-18.99,5.8-3.08,11.78-5.8,17.96-8.04,1.27-.46,2.12-1.7,1.75-3.08-.34-1.23-1.8-2.21-3.08-1.75h0Z"/>
    <path class="cls-1" d="M177.02,71.51c-5.34-6.18-11.33-11.83-18.14-16.37-6.17-4.12-13.14-7.2-18.2-12.77-2.17-2.39-5.7,1.16-3.54,3.54,5.16,5.68,12.17,8.96,18.5,13.08,6.74,4.39,12.59,9.99,17.84,16.06.88,1.02,2.63.91,3.54,0,1.01-1.01.89-2.51,0-3.54h0Z"/>
    <path class="cls-1" d="M130.93,56.26c-2.21,1.2-4.28,2.61-6.25,4.18-1.17.93-2.8,2.03-2.79,3.69.02,1.96,1.87,2.86,3.28,3.85,1.08.76,2.16,1.53,3.23,2.29,1.21.86,2.36,1.81,3.92,1.79,1.48-.01,2.66-.93,3.82-1.73s2.84-1.63,3.41-2.99c.88-2.08-.76-3.68-1.95-5.19-.94-1.2-1.88-2.4-2.82-3.59-.81-1.03-2.7-.91-3.54,0-1.01,1.1-.87,2.43,0,3.54,1.1,1.4,2.19,2.8,3.29,4.19.13.17.26.33.39.5.12.15.1.13-.04-.05l.11.17c-.56-1.67,1.39-2.84.21-2.01-.17.12-.33.23-.5.35-.7.49-1.39.98-2.1,1.46-.14.1-.28.19-.43.28-.43.26-.14,0-.05.06-.24.06-.26.07-.06.03.09-.03.18-.03.27,0,.23.02.46.21.17,0-.7-.51-1.42-.99-2.12-1.49s-1.46-1.03-2.19-1.55c-.35-.25-.7-.49-1.04-.74-.21-.15-.42-.3-.63-.44l-.21-.15c-.37-.29-.3-.18.23.34l.34,1.26c.08.93-.81,1.48-.18.93.14-.13.29-.25.43-.38.29-.25.59-.49.88-.73.04-.03.52-.41.29-.23s.31-.23.29-.22c.31-.23.62-.45.93-.67,1.25-.88,2.56-1.68,3.9-2.41,1.15-.62,1.61-2.31.9-3.42-.75-1.17-2.19-1.56-3.42-.9h0Z"/>
    <path class="cls-1" d="M140.06,76.64c1.59.31,3.14.77,4.64,1.4l-.6-.25c.38.16.76.31,1.09.55l-.51-.39c.09.07.17.15.25.24l-.39-.51c.05.07.09.13.13.21l-.25-.6c.02.05.04.1.04.16l-.09-.66c0,.06.01.11,0,.17l.09-.66c0,.07-.02.13-.05.19l.25-.6c-.04.1-.09.17-.15.26l.39-.51c-.16.19-.34.34-.53.49l.51-.39c-.62.47-1.34.81-1.99,1.24-.45.3-.92.63-1.29,1.03-.56.6-.85,1.16-1.15,1.91-.22.56-.04,1.42.25,1.93s.9,1.01,1.49,1.15c.64.15,1.36.11,1.93-.25l.51-.39c.31-.31.52-.68.64-1.1l.03-.08-.25.6c.09-.2.19-.38.32-.55l-.39.51c.19-.23.4-.43.63-.61l-.51.39c.68-.51,1.46-.86,2.15-1.36.65-.47,1.27-.95,1.67-1.66.72-1.28.47-2.78-.48-3.85-.44-.5-1.03-.83-1.63-1.09-.67-.29-1.34-.57-2.03-.81-1.12-.4-2.26-.7-3.43-.93-.67-.13-1.32-.1-1.93.25-.52.3-1.01.9-1.15,1.49-.15.64-.11,1.36.25,1.93.34.52.86,1.03,1.49,1.15h0Z"/>
    <path class="cls-1" d="M117.36,75.32c.75,1.94,1.98,3.56,3.78,4.65.48.29,1.01.51,1.53.71.21.08.43.15.64.21l.2.05c.27.09.26.07-.03-.05.21.13.23.13.06,0-.15-.13-.15-.11,0,.04-.19-.25-.24-.3-.15-.14.09.16.06.1-.08-.18.04.12.07.23.09.35l-.04-.3c.09.13.01.52,0,.67,0,.12-.02.25-.03.37.03-.22.04-.23,0-.05-.05.43-.13.85-.17,1.28-.06.63-.03,1.2.07,1.83.14.89.51,1.77,1.04,2.5,1.3,1.77,3.3,2.95,5.54,2.87,1.31-.04,2.56-1.12,2.5-2.5s-1.1-2.54-2.5-2.5c-.09,0-.47-.05-.54-.01.34.05.41.06.22.02-.09-.02-.18-.04-.26-.07-.47-.11.38.25-.07-.02-.13-.08-.26-.16-.39-.23-.25-.12.32.32,0,0-.07-.07-.38-.28-.39-.39.18.25.22.3.11.15-.05-.07-.1-.15-.15-.23-.05-.08-.09-.16-.13-.24-.08-.17-.06-.1.07.19-.08-.09-.11-.32-.13-.43-.02-.09-.04-.18-.06-.27.04.34.06.4.04.18.03-.19.01-.41.02-.61.02-.59-.04.22.03-.31.15-1.15.28-2.17.01-3.32-.23-1.02-.82-1.95-1.64-2.58-.47-.37-.97-.6-1.55-.79-.19-.06-.39-.11-.59-.17-.09-.03-.73-.21-.12,0-.32-.1-.64-.32-.91-.5-.08-.05-.16-.11-.23-.16.23.18.27.21.13.1-.11-.11-.24-.21-.35-.32-.13-.13-.25-.29-.39-.42.39.39.03.03-.06-.1-.1-.16-.2-.32-.29-.49-.07-.13-.28-.67-.06-.1-.47-1.22-1.7-2.19-3.08-1.75-1.18.38-2.25,1.77-1.75,3.08h0Z"/>
    <path class="cls-1" d="M115.91,90.6c.3.12.6.25.89.37l-.6-.25c.95.4,1.9.82,2.84,1.26.81.38,1.63.74,2.34,1.29l-.51-.39c.28.22.53.45.75.73l-.39-.51c.14.18.26.37.35.58l-.25-.6c.06.15.1.29.13.44l-.09-.66c.02.16.02.31,0,.47l.09-.66c-.02.1-.04.19-.07.29-.37,1.25.45,2.78,1.75,3.08s2.68-.4,3.08-1.75c.75-2.52-1.07-4.69-3.13-5.87-.83-.47-1.72-.85-2.59-1.24-1.08-.49-2.17-.95-3.26-1.4-.56-.23-1.43-.04-1.93.25s-1.01.9-1.15,1.49c-.15.64-.11,1.36.25,1.93l.39.51c.31.31.68.52,1.1.64h0Z"/>
    <path class="cls-1" d="M42.67,57.34c-2.91-1.91-5.41-4.29-7.55-7.03-.85-1.09-2.65-.83-3.54,0-10.38,9.69-20.66,19.48-30.86,29.37-1.45,1.4-.59,3.55,1.1,4.18,2.25.84,3.62,3.11,4.72,5.16,1.35,2.5,2.44,5.15,4.04,7.5,4.13,6.05,10.31,10.45,16.04,14.86,6.16,4.75,12.48,9.28,18.96,13.59,1.58,1.05,3.16,2.13,4.78,3.12,1.74,1.07,3.61,1.41,5.42.29,1.6-.98,2.91-2.66,4.23-3.97,1.52-1.51,3.05-3.02,4.57-4.53,6.45-6.39,12.89-12.78,19.34-19.17,2.29-2.27-1.25-5.8-3.54-3.54-5.63,5.58-11.25,11.15-16.88,16.73-2.7,2.67-5.39,5.34-8.09,8.01-.35.35-.7.7-1.05,1.05-.22.22-.9.69-.99.98-.2.6-.38-.42.19.23-.21-.24-.82-.49-1.09-.66-1.61-1.02-3.2-2.07-4.78-3.13-6.21-4.14-12.27-8.48-18.18-13.03-5.33-4.1-11.43-8.3-15.09-14.07-3.33-5.25-4.87-11.86-11.29-14.25l1.1,4.18c10.19-9.89,20.48-19.68,30.86-29.37h-3.54c2.4,3.08,5.3,5.67,8.56,7.81,2.7,1.77,5.21-2.56,2.52-4.32h0Z"/>
    <path class="cls-1" d="M15.72,87.79c1.98.78,3.69-.67,4.64-2.25.38-.62.77-1.24,1.19-1.83.19-.27.36-.49.56-.73.13-.16.27-.32.4-.48.26-.26.28-.31.06-.14l-1.26.34c.07,0,.39-.03.15-.04.3,0,.65.09.94.13.47.06.94.12,1.41.13,1.02.02,2.09-.11,3.04-.48,1.9-.74,3.19-2.11,4.39-3.71,1.09-1.46,2.11-2.94,2.75-4.66.08-.22.15-.44.22-.66.02-.05.17-.47.1-.32-.02.04-.15.28-.04.07s-.27.18.08-.06c.9-.63,1.56-1.32,1.9-2.4.4-1.29-.48-2.73-1.75-3.08-1.34-.37-2.67.45-3.08,1.75.43-.59.53-.76.3-.52-.13.12-.09.1.1-.07-.19.15-.4.29-.6.44-.51.39-.93.83-1.26,1.4-.54.92-.66,1.91-1.14,2.76-.51.91-1.14,1.75-1.75,2.61-.16.23-.38.5-.72.86-.15.16-.31.32-.48.47-.41.37.14-.01-.35.24-.26.14-.55.29-1.03.35-.14.02-.96,0-1.32-.03s-1.1-.21-1.63-.22c-.82-.02-1.62.33-2.22.89-.88.82-1.61,1.9-2.29,2.89-.3.43-.58.86-.85,1.31-.05.09-.4.56-.41.68.02-.36,1.06-.53,1.25-.46-1.26-.49-2.74.54-3.08,1.75-.39,1.42.48,2.58,1.75,3.08h0Z"/>
    <path class="cls-1" d="M30.59,92.81c.36-.6.76-1.17,1.17-1.74.17-.23-.21.25.08-.1.12-.14.23-.29.35-.43.21-.25.43-.51.65-.76.49-.55.98-1.1,1.48-1.64.23-.25.46-.5.7-.74.13-.13.26-.27.4-.39.04-.04.5-.44.26-.24-.21.18.14-.1.18-.13.15-.11.3-.21.44-.31.41-.29.81-.59,1.21-.9.53-.42,1.03-.87,1.49-1.36,1.05-1.12,1.95-2.37,2.8-3.64.74-1.08.24-2.82-.9-3.42-1.27-.67-2.63-.26-3.42.9-.2.3-.4.59-.61.88-.08.12-.17.23-.25.35,0,0-.38.52-.19.26s-.16.2-.2.25c-.11.14-.23.27-.34.41-.21.24-.42.48-.65.71-.25.25-.51.5-.78.73-.05.04-.5.4-.25.21s-.28.19-.27.19c-.68.48-1.37.96-1.98,1.51-1.04.94-1.97,2.04-2.88,3.1-1.03,1.19-2,2.44-2.81,3.79-.67,1.12-.29,2.79.9,3.42s2.7.3,3.42-.9h0Z"/>
    <path class="cls-1" d="M46.09,113.91c1.96.54,3.9.53,5.68-.54.74-.45,1.42-1.02,2.06-1.61s1.29-1.21,1.68-1.99c.71-1.43.76-3.11,1.32-4.61.03-.07.22-.58.09-.24s.12-.25.15-.32c.15-.32.31-.63.49-.94.19-.34.39-.66.61-.98.11-.16.22-.32.33-.47.3-.43-.28.34.08-.1.43-.53.73-1.06.73-1.77,0-.61-.27-1.35-.73-1.77-.91-.84-2.66-1.09-3.54,0-1.91,2.37-3.21,5.05-3.76,8.05-.02.13-.09.84-.21.89.14-.28.16-.34.08-.18-.03.06-.06.11-.09.16-.09.24.3-.29-.01.02-.47.47-.96.91-1.47,1.34-.23.2.37-.25-.02,0-.16.1-.31.2-.47.29-.08.05-.55.2-.2.11s-.15.02-.22.05c-.49.16.46.04-.1,0-.07,0-.36.03-.41-.02.29.04.35.05.16.02-.1-.02-.2-.04-.3-.06-.2-.05-.4-.1-.6-.16-1.26-.35-2.78.43-3.08,1.75s.4,2.7,1.75,3.08h0Z"/>
  </g>
</svg>