<?xml version="1.0" encoding="UTF-8"?>
<svg id="Layer_2" data-name="Layer 2" xmlns="http://www.w3.org/2000/svg" viewBox="0 0 54.9 48.65">
  <defs>
    <style>
      .cls-1 {
        fill: #1a1a1a;
      }
    </style>
  </defs>
  <g id="Layer_1-2" data-name="Layer 1">
    <g>
      <path class="cls-1" d="M13.75,24.19c-1.4,2.09-2.99,4.27-5.33,5.38-1.85.88-4.49.82-5.98-.74-2.09-2.19-.47-5.98.61-8.28s2.49-4.57,4.08-6.62c3.09-3.97,6.91-7.35,10.99-10.29,1.09-.78,2.25-1.68,3.56-2.03,1.67-.45,2.9.31,4.04,1.46,1.68,1.7,3.27,3.37,5.26,4.72s4.19,2.37,6.52,2.91c2.73.63,5.55.59,8.28,1.3s5.17,1.7,6.33,4.55,1.4,5.75,1.23,8.66c-.32,5.69-2.42,11.73-5.12,16.72-1.26,2.32-3.17,4.61-5.9,5.13s-6.3-1.18-7.09-3.91c-.86-2.95,1.27-5.94.91-8.95-.3-2.52-2.21-3.94-4.49-4.66-5.28-1.65-12.9.12-16.55-5.06-.55-.78-1.85-.04-1.3.76,3.62,5.15,10.23,4.27,15.67,5.32,1.38.27,2.92.62,4.01,1.55,1.51,1.29,1.33,3.37.93,5.12-.61,2.69-1.56,5.49.18,7.98,1.47,2.1,4.25,3.46,6.8,3.45,2.73-.02,5.13-1.7,6.74-3.79,1.88-2.43,2.99-5.46,4.07-8.31,1.16-3.07,2.09-6.24,2.49-9.51.66-5.4.15-13.15-5.63-15.57-2.81-1.17-5.81-1.55-8.8-1.85-3.16-.32-6.06-1.43-8.67-3.23-1.16-.8-2.23-1.72-3.23-2.72s-1.81-2.07-2.95-2.84c-2.49-1.69-5.16-.48-7.38,1.07-4.72,3.28-9.09,7.17-12.55,11.77-1.91,2.55-3.55,5.36-4.65,8.35-1.02,2.76-1.52,6.35,1.13,8.37,1.87,1.43,4.56,1.59,6.71.72,2.83-1.15,4.74-3.7,6.39-6.15.54-.8-.76-1.55-1.3-.76h0Z"/>
      <path class="cls-1" d="M32.99,10.34c-.5,0-1.03,0-1.5.18s-.92.46-1.22.9c-.57.85-.3,1.98.34,2.7.28.31.65.55,1.03.72.52.23,1.07.39,1.64.28.9-.17,1.49-1.09,1.68-1.92.13-.56.13-1.22-.22-1.71s-.82-.72-1.35-.92c-.37-.14-.84.16-.92.52-.1.43.13.77.52.92.03.01.06.02.09.04.16.06-.12-.06-.02,0,.07.03.14.06.2.1.05.03.11.09.17.1-.09-.03-.1-.08-.04-.03.04.03.07.07.1.1.07.07-.03.02-.03-.04,0,0,.06.08.05.09,0,0-.04-.15-.01-.03.01.04.02.09.03.13.03.1,0-.14,0-.04,0,.04,0,.09,0,.13,0,.04,0,.07,0,.11,0,.14.02-.1,0,0-.03.14-.06.29-.11.43,0,0-.04.09-.03.09-.02-.02.07-.16,0-.02-.03.07-.07.13-.1.19-.02.03-.04.07-.07.1v.02c-.05.05-.05.05-.01,0l.03-.04s-.04.05-.06.07c-.02.02-.04.04-.07.07-.02.02-.05.04-.07.06.09-.11.1-.07.04-.04-.03.02-.05.03-.08.05-.02.01-.04.02-.06.03-.05.02-.03.01.08-.03-.02,0-.07.02-.09.03-.13.05.07-.01.06,0-.02.02-.13,0-.15,0s-.15-.02-.05,0c.12.02-.08-.02-.08-.02-.04,0-.08-.02-.12-.03-.08-.02-.16-.05-.24-.08-.03-.01-.07-.03-.1-.04.02,0,.16.07.04.01-.06-.03-.12-.06-.18-.09-.07-.04-.13-.08-.2-.12-.03-.02-.06-.04-.08-.06-.04-.03-.03-.02.05.04-.02-.02-.04-.03-.06-.05-.06-.05-.11-.1-.16-.16-.02-.02-.05-.06-.07-.08.02.01.09.14.03.03-.03-.06-.07-.11-.1-.17-.07-.13.02.04.01.04-.02,0-.04-.12-.05-.14,0-.03-.02-.06-.03-.1v-.05c-.02-.07-.02-.07-.01,0v.05s0-.05,0-.07c0-.03,0-.07,0-.1,0-.02.02-.12,0-.12.02.01-.04.19,0,.05,0-.03.02-.06.03-.09.04-.15-.08.13,0,0,.02-.03.03-.06.05-.09.08-.14-.11.1,0,0,.02-.02.05-.05.07-.07l.04-.03c.06-.05.05-.04-.03.02.01-.04.18-.11.22-.13.03-.01.07-.03.09-.04l-.08.04s.06-.02.1-.03c.08-.03.16-.05.25-.06.05-.01.1-.02.15-.03-.1,0-.07,0,.01,0,.21-.02.43-.02.64-.02.39,0,.77-.35.75-.75s-.33-.75-.75-.75h0Z"/>
      <path class="cls-1" d="M33.62,18.9c.97,0,.97-1.5,0-1.5s-.97,1.5,0,1.5h0Z"/>
      <path class="cls-1" d="M27.33,16.15c.97,0,.97-1.5,0-1.5s-.97,1.5,0,1.5h0Z"/>
      <path class="cls-1" d="M21.96,16.57c-.4,1.13-.9,2.23-1.48,3.28-.3.54-.62,1.06-.96,1.57s-.66,1.05-.46,1.68c.21.7.96,1.02,1.62.75.55-.23.96-.76,1.27-1.25s.53-1.03.77-1.55c.28-.59.55-1.18.83-1.77s.68-1.23.8-1.87c.17-.89-.52-1.71-1.44-1.51-.4.09-.63.55-.52.92.11.41.53.61.92.52-.26.03-.4-.05-.42-.24,0,.04,0,.07-.03.11-.06.08-.1.23-.15.33-.12.25-.23.5-.35.75-.27.57-.53,1.14-.8,1.71-.24.52-.47,1.05-.75,1.56-.1.19-.21.38-.34.55-.08.1-.23.2-.29.3s-.23,0,.09.1c-.19-.06.34.11.23.14,0,0,.08-.12.11-.17.14-.23.3-.44.44-.67.32-.5.62-1.01.9-1.53.57-1.07,1.06-2.18,1.46-3.33.14-.38-.15-.82-.52-.92-.41-.11-.79.14-.92.52h0Z"/>
      <path class="cls-1" d="M19.17,18.49c.91.44,1.83.86,2.77,1.25.38.16.77.3,1.14.48.15.07.31.15.43.26.03.03.11.13.14.14-.11-.04.33-.57.11-.38l.33-.19c.09-.03.16.04.08-.04-.03-.03-.13-.05-.17-.07-.09-.04-.19-.08-.28-.12-.25-.11-.5-.22-.74-.34-.5-.23-.98-.49-1.46-.74s-.94-.52-1.42-.77c-.24-.13-.5-.32-.76-.39-.35-.1-.69.09-.91.36-.33.39-.35.94-.15,1.39.21.48.65.75,1.13.91.44.15.89.23,1.32.39s.9.36,1.34.55c.47.2.95.4,1.43.56.46.15,1.05.38,1.51.17.3-.14.44-.4.58-.69.12-.26.28-.53.29-.82,0-.66-.62-.86-1.11-1.08-1-.45-2-.91-3-1.36-.48-.22-.96-.43-1.43-.65s-1.08-.63-1.64-.37c-.5.23-.79.97-.91,1.48-.13.58-.04,1.22.37,1.67s.94.5,1.48.6,1.08.27,1.59.51c.37.17.81.1,1.03-.27.19-.33.1-.85-.27-1.03-.78-.38-1.57-.57-2.41-.74-.23-.04-.34-.03-.35-.24,0-.14.05-.3.11-.43.03-.07.07-.14.1-.21.02-.04.14-.19.08-.14l-.33.19c-.22-.03-.24-.02-.07.05l.11.05c.13.06.27.12.4.18.23.1.46.21.69.31.48.22.96.44,1.44.66s.94.43,1.4.64c.24.11.48.22.72.33.14.06.28.13.42.19.06.03.12.05.18.08.17.1.17.07,0-.09l-.1-.38c0-.25-.04,0-.08.1-.02.05-.07.2-.1.23l.33-.19c.2.02.22.02.05-.01-.08-.02-.15-.04-.23-.06-.11-.03-.22-.06-.34-.1-.26-.08-.52-.18-.77-.28-.53-.21-1.04-.45-1.57-.66s-1.01-.38-1.53-.51c-.17-.04-.38-.07-.52-.18.05.04,0,.12,0-.02,0,.11.01.18-.12.26h-.76c1.05.58,2.1,1.18,3.18,1.7.55.27,1.1.51,1.67.74.3.12.57.21.89.11s.55-.37.62-.69c.29-1.2-1.13-1.85-2.01-2.2-1.07-.43-2.13-.9-3.17-1.41-.36-.18-.81-.1-1.03.27-.19.33-.1.85.27,1.03h0Z"/>
      <path class="cls-1" d="M35.36,23.65c-.09-.03-.19-.04-.28-.05-.07,0-.13,0-.2.01-.06,0-.12.01-.18.03-.09.03-.17.06-.25.11s-.15.1-.22.16c-.02.02-.05.04-.07.06-.06.07-.11.14-.16.21-.03.05-.06.11-.08.17s-.05.11-.07.18c-.02.09-.03.19-.04.29-.01.13.01.26.04.39,0,.04.02.07.03.1.03.09.06.18.12.26.11.16.2.25.36.36.02.01.04.03.06.04.08.04.16.07.24.1.02,0,.05.01.07.02.09.02.18.03.27.03.03,0,.05,0,.08,0,.09,0,.18-.02.27-.04s.16-.06.24-.1c.02-.01.05-.02.07-.04.07-.05.14-.1.21-.16.02-.02.04-.04.06-.06.07-.09.15-.18.2-.28s.1-.22.13-.34c.02-.09.03-.18.04-.27,0-.03,0-.06,0-.09,0-.09-.02-.19-.03-.28,0-.05-.03-.08-.05-.13s-.03-.09-.06-.13-.09-.12-.12-.16c-.03-.03-.06-.05-.09-.07-.04-.03-.07-.06-.11-.08-.03-.02-.06-.03-.1-.05-.09-.04-.18-.08-.28-.11s-.2-.04-.29-.04c-.07,0-.13,0-.2.02-.05,0-.1,0-.14.02-.08.02-.15.06-.22.09-.09.05-.16.11-.21.19-.07.07-.11.16-.13.26-.03.1-.04.2-.01.3,0,.1.03.19.09.28.1.16.26.3.45.34l.2.03c.14,0,.26-.03.38-.1h.01c-.06.02-.12.04-.18.07.02,0,.05-.02.07-.02l-.2.03s.08,0,.12,0l-.2-.03c.06,0,.11.03.17.05l-.18-.08s.09.04.13.07l-.15-.12s.01.01.02.02l-.12-.15s.02.02.02.04l-.08-.18s0,.04.01.06l-.03-.2c0,.06,0,.12,0,.18l.03-.2c0,.06-.03.13-.05.19l.08-.18s-.05.09-.07.13l.12-.15s-.07.07-.1.11l.15-.12s-.06.04-.1.06l.18-.08s-.08.03-.12.03l.2-.03s-.09,0-.13,0l.2.03s-.09-.02-.13-.04l.18.08s-.06-.03-.08-.05l.15.12s-.05-.04-.07-.07l.12.15s-.04-.06-.05-.09l.08.18c-.02-.05-.03-.11-.04-.16l.03.2c0-.06,0-.12,0-.18l-.03.2s.02-.1.04-.14l-.08.18s.04-.08.07-.12l-.12.15s.06-.06.09-.09l-.15.12s.06-.04.1-.06l-.18.08s.07-.02.11-.03l-.2.03s.07,0,.1,0l-.2-.03s.06.01.08.02c.1.03.2.04.3.01.1,0,.19-.03.28-.09.09-.05.16-.11.21-.19.07-.07.11-.16.13-.26.04-.19.03-.41-.08-.58l-.12-.15c-.09-.09-.2-.16-.33-.19h0Z"/>
      <path class="cls-1" d="M35.52,21.47c-1.27.04-2.45.7-3.16,1.76-.39.59-.6,1.29-.5,2s.42,1.28.86,1.79c.41.48.96.82,1.54,1.05s1.33.36,1.94.13c.65-.25,1.04-.91,1.39-1.48.38-.61.64-1.29.57-2.02-.08-.81-.43-1.53-.93-2.16s-1.24-.98-2.05-1.03c-.4-.02-.75.36-.75.75,0,.43.34.73.75.75.1,0,.32.05.42.1.22.11.29.17.45.35.26.3.48.7.57,1.09.05.18.07.36.04.59,0-.04-.06.2-.07.24-.03.09-.06.16-.11.25-.12.22-.25.43-.39.64s-.23.36-.39.51c-.07.06-.02.02-.01.01.05-.03-.05.02-.06.02.07-.01-.07,0-.07,0-.06,0-.12,0-.18,0-.15,0-.07,0-.04,0-.05,0-.1-.02-.15-.03-.12-.02-.23-.06-.34-.09-.3-.1-.63-.3-.87-.54-.26-.26-.47-.53-.58-.92s-.06-.71.16-1.09c.2-.35.49-.63.82-.84.1-.06.2-.12.31-.17.01,0,.13-.05.04-.02.06-.02.12-.04.19-.06.11-.03.23-.06.34-.08.02,0,.15-.02.03,0,.08,0,.16-.01.23-.01.4-.01.75-.33.75-.75s-.34-.76-.75-.75h0Z"/>
      <path class="cls-1" d="M19.82,8.02c-.32-.2-.76-.17-1.06.04-.16.11-.32.24-.45.39-.08.09-.16.19-.22.3s-.11.23-.13.36c-.01.09-.03.18-.03.26s.02.18.03.26c.02.12.07.24.14.34.11.15.22.27.39.37.09.05.18.09.28.13.23.1.45.16.7.17.55.01,1.09-.34,1.24-.88.04-.13.05-.27.05-.41,0-.2-.04-.41-.14-.59-.14-.24-.39-.41-.61-.56-.09-.05-.18-.08-.28-.09-.1-.02-.2-.02-.3.01-.17.05-.36.18-.45.34-.09.17-.14.38-.08.58l.08.18c.07.11.16.2.27.27.03.02.06.04.09.07l-.15-.12c.08.06.17.13.24.21l-.12-.15s.01.02.02.04l-.08-.18s.02.07.02.11l-.03-.2c0,.07.01.14,0,.21l.03-.2s-.02.09-.04.14l.08-.18s-.03.06-.05.08l.12-.15s-.05.05-.07.08l.15-.12s-.08.05-.12.07l.18-.08c-.05.02-.1.03-.16.04l.2-.03c-.06,0-.12,0-.18,0l.2.03c-.11-.02-.22-.05-.32-.09l.18.08c-.08-.03-.16-.07-.23-.12l.15.12s-.05-.04-.07-.07l.12.15s-.03-.05-.04-.08l.08.18s-.02-.06-.02-.09l.03.2s0-.09,0-.13l-.03.2s.02-.1.04-.14l-.08.18c.03-.06.06-.11.09-.16l-.12.15c.09-.11.19-.2.3-.29l-.15.12s.06-.04.09-.06l-.18.08s.05-.02.07-.02l-.2.03s.05,0,.07,0l-.2-.03s.03,0,.05.01l-.18-.08s.02.01.03.02c.16.1.4.13.58.08s.36-.18.45-.34c.09-.17.14-.38.08-.58s-.17-.34-.34-.45h0Z"/>
      <path class="cls-1" d="M19.73,6c-1.33-.1-2.46.85-3.05,1.97-.28.54-.61,1.21-.55,1.83s.51,1.35.97,1.77,1.15.7,1.75.86c.7.19,1.41.14,2.01-.3.51-.37.99-.76,1.33-1.29.37-.58.45-1.26.33-1.93-.13-.72-.45-1.45-1.03-1.91s-1.2-.93-1.97-.88c-.4.03-.75.33-.75.75,0,.38.34.78.75.75.05,0,.11,0,.16,0-.04,0-.1-.03.03.01.05.02.1.03.15.05-.02,0-.07-.03,0,0,.1.05.19.11.28.17.03.02.07.05.1.07,0,0,.18.13.11.08.08.06.15.12.22.19.04.04.08.07.12.12.06.07.02.02,0,0,.13.19.18.36.26.6.07.22.1.36.11.55,0,.12,0,.16-.02.24-.01.04-.1.27-.05.18-.17.35-.4.55-.75.83.06-.05-.11.08-.13.1-.08.06-.16.12-.24.17-.11.06-.28.07-.42.05-.42-.06-.84-.24-1.2-.45-.04-.03-.1-.06-.14-.09.04.03.03.03-.03-.04-.03-.04-.07-.08-.11-.12.01.01.05.06,0,0-.13-.18-.28-.39-.36-.59.01.03-.01-.06-.01-.06,0-.12-.02.07,0-.05,0-.04.02-.08.03-.12.07-.24.13-.38.22-.58.21-.45.42-.8.8-1.1-.03.02-.08.05.05-.03.06-.04.11-.07.17-.11.11-.06.16-.09.23-.11.27-.08.31-.09.6-.07.4.03.75-.37.75-.75,0-.43-.34-.72-.75-.75h0Z"/>
      <path class="cls-1" d="M46.91,21.56s-.12-.1-.16-.13h0c-.06-.03-.12-.06-.18-.08h-.01c-.07-.01-.13-.02-.2-.03,0,0-.02,0-.02,0-.1,0-.2.02-.29.05-.03,0-.07.02-.1.03-.09.03-.18.07-.26.12s-.16.1-.22.17c-.05.06-.1.12-.14.18-.01.02-.02.03-.03.05-.02.04-.07.15-.09.22-.02.08-.03.16-.03.24-.01.1.01.21.03.3.02.13.08.26.16.37.05.07.11.16.18.22s.16.13.23.19c.03.02.06.04.1.06.07.03.15.07.22.09,0,0,.02,0,.03,0,.07.01.16.03.23.03.18,0,.4-.05.54-.15.07-.05.16-.11.22-.18s.12-.15.18-.23c.02-.03.04-.06.05-.09.03-.07.06-.14.09-.21,0-.02.02-.05.02-.07.04-.18.04-.31,0-.49-.02-.1-.07-.2-.11-.28-.06-.12-.14-.23-.23-.33-.01-.01-.02-.03-.04-.04-.06-.05-.12-.1-.18-.14-.08-.06-.18-.09-.28-.12-.02,0-.04,0-.06-.01-.08-.01-.16-.03-.24-.03-.07,0-.15,0-.22.02-.07,0-.13.02-.2.03-.02,0-.04.01-.06.02-.08.03-.16.06-.23.1-.15.09-.3.23-.38.39-.1.18-.14.36-.15.57,0,.04,0,.07,0,.11.01.1.02.2.05.3.05.2.15.38.29.54.07.08.15.14.24.19.16.08.3.12.48.13.1,0,.2-.02.29-.06.09-.03.17-.08.24-.16.07-.07.12-.15.16-.24.05-.09.07-.19.06-.29,0-.19-.07-.4-.22-.53s-.33-.21-.53-.22c0,0-.02,0-.03,0l.2.03s-.04,0-.07-.02l.18.08s-.04-.02-.06-.04l.15.12s-.03-.03-.05-.05l.12.15s-.04-.06-.06-.1l.08.18c-.02-.06-.04-.12-.05-.18l.03.2c0-.06,0-.11,0-.17l-.03.2s.01-.08.03-.11l-.08.18s.03-.05.05-.08l-.12.15s.03-.03.05-.05l-.15.12s.05-.03.07-.04l-.18.08c.05-.02.11-.04.17-.04l-.2.03c.05,0,.11,0,.16,0l-.2-.03s.07.01.1.03l-.18-.08s.05.03.07.04l-.15-.12s.06.05.08.09l-.12-.15s.06.1.09.16l-.08-.18s.02.07.03.11l-.03-.2s0,.04,0,.06l.03-.2s-.01.06-.02.09l.08-.18c-.03.07-.06.13-.11.19l.12-.15s-.05.05-.07.07l.15-.12s-.04.03-.06.04l.18-.08s-.05.02-.07.02l.2-.03s-.04,0-.06,0l.2.03s-.05-.01-.07-.02l.18.08s-.08-.04-.12-.07l.15.12c-.05-.04-.1-.08-.14-.14l.12.15s-.05-.07-.06-.11l.08.18s-.02-.06-.03-.09l.03.2s0-.06,0-.1l-.03.2s.01-.05.02-.08l-.08.18s.02-.04.03-.06l-.12.15s.03-.04.05-.05l-.15.12s.06-.04.1-.06l-.18.08c.07-.03.14-.05.21-.06l-.2.03s.02,0,.02,0l-.2-.03h.01c-.06-.02-.12-.05-.18-.07h0c-.05-.03-.1-.07-.15-.11h0c.07.08.15.13.24.16.09.05.19.07.29.06.1,0,.2-.02.29-.06.09-.03.17-.08.24-.16.13-.14.23-.33.22-.53l-.03-.2c-.04-.13-.1-.24-.19-.33h0Z"/>
      <path class="cls-1" d="M43.3,23.01c-.05,0-.1.02-.14.04-.07.03-.16.06-.23.1s-.15.11-.21.16c-.16.13-.29.34-.34.54-.04.17-.04.32,0,.5,0,.01,0,.02,0,.04.02.06.05.14.08.19,0,.01.01.02.02.03.04.06.09.12.13.17.03.03.07.06.09.08s.06.05.1.07c.07.04.15.07.22.1.02,0,.04.01.06.02.09.01.17.03.26.03.08,0,.15,0,.23-.02.13-.02.2-.03.32-.1.13-.08.23-.18.31-.31.06-.1.1-.21.13-.31,0-.03.02-.05.02-.08.02-.09.03-.19.04-.28,0-.03,0-.05,0-.08,0-.08-.02-.17-.04-.25-.03-.1-.07-.21-.13-.3-.1-.15-.2-.25-.35-.35-.09-.06-.2-.11-.31-.13-.22-.04-.45-.05-.66.04-.1.04-.2.08-.29.14-.06.04-.14.1-.2.15s-.12.15-.17.2c-.06.09-.1.19-.14.29,0,.02-.01.05-.02.07-.02.09-.03.18-.03.26,0,.11.01.22.05.33.06.18.13.3.25.44.15.16.36.28.57.34.08.02.17.03.25.04s.18.03.27.03c.29,0,.56-.15.75-.35.14-.16.27-.34.32-.55.05-.2.04-.34,0-.54,0-.03-.01-.06-.02-.09-.03-.08-.06-.16-.1-.24-.11-.2-.26-.4-.47-.51-.17-.1-.31-.12-.51-.14-.12-.01-.24.01-.35.03-.22.04-.46.16-.62.33-.07.07-.12.15-.16.24-.05.09-.07.19-.06.29,0,.1.02.2.06.29.03.09.08.17.16.24.14.13.33.23.53.22s.4-.07.53-.22c.01-.01.03-.03.04-.04l-.15.12s.06-.04.09-.05l-.18.08c.05-.02.1-.03.16-.04l-.2.03s.1,0,.15,0l-.2-.03s.07.01.1.03l-.18-.08s.05.03.07.04l-.15-.12s.04.04.06.06l-.12-.15c.05.06.09.14.12.21l-.08-.18s.02.06.02.09l-.03-.2s0,.06,0,.1l.03-.2s-.02.07-.03.11l.08-.18s-.04.08-.07.11l.12-.15s-.07.08-.11.11l.15-.12s-.06.04-.09.05l.18-.08s-.03,0-.04.01l.2-.03c-.06,0-.12,0-.18-.01l.2.03c-.08-.01-.15-.03-.22-.06l.18.08s-.08-.04-.11-.07l.15.12s-.04-.04-.06-.06l.12.15s-.03-.05-.04-.07l.08.18s-.02-.06-.03-.1l.03.2s0-.07,0-.1l-.03.2s.02-.07.03-.11l-.08.18s.03-.06.05-.09l-.12.15s.06-.06.09-.09l-.15.12s.07-.05.11-.06l-.18.08s.09-.03.14-.04l-.2.03s.07,0,.11,0l-.2-.03s.06.01.09.02l-.18-.08s.05.03.07.04l-.15-.12s.04.04.06.06l-.12-.15s.03.05.05.08l-.08-.18s.02.06.03.09l-.03-.2s0,.08,0,.13l.03-.2c0,.06-.03.12-.05.17l.08-.18s-.03.07-.05.1l.12-.15h-.01c.05-.03.1-.07.15-.11,0,0-.02.01-.02.01l.18-.08s-.02,0-.03,0l.2-.03c-.06,0-.12,0-.18,0l.2.03s-.06-.01-.09-.02l.18.08s-.04-.02-.05-.03l.15.12s-.02-.02-.04-.04l.12.15s-.01-.02-.02-.03l.08.18s-.01-.03-.01-.05l.03.2s0-.04,0-.06l-.03.2s.01-.05.02-.08l-.08.18s.03-.06.05-.08l-.12.15s.05-.06.08-.08l-.15.12s.07-.05.12-.07l-.18.08s.09-.03.14-.04c.1-.02.18-.07.26-.13.08-.05.15-.12.19-.21.05-.09.08-.18.09-.28.02-.1.02-.2-.01-.3-.06-.18-.17-.36-.34-.45l-.18-.08c-.13-.04-.27-.04-.4,0h0Z"/>
      <path class="cls-1" d="M45.26,18.55c-.05,0-.1.02-.14.04-.07.03-.16.06-.23.1s-.15.11-.21.16c-.16.13-.29.34-.34.54-.04.17-.04.32,0,.5,0,.01,0,.02,0,.04.02.06.05.14.08.19,0,.01.01.02.02.03.04.06.09.12.13.17.03.03.07.06.09.08s.06.05.1.07c.07.04.15.07.22.1.02,0,.04.01.06.02.09.01.17.03.26.03.08,0,.15,0,.23-.02.13-.02.2-.03.32-.1.13-.08.23-.18.31-.31.06-.1.1-.21.13-.31,0-.03.02-.05.02-.08.02-.09.03-.19.04-.28,0-.03,0-.05,0-.08,0-.08-.02-.17-.04-.25-.03-.1-.07-.21-.13-.3-.1-.15-.2-.25-.35-.35-.09-.06-.2-.11-.31-.13-.22-.04-.45-.05-.66.04-.1.04-.2.08-.29.14-.06.04-.14.1-.2.15s-.12.15-.17.2c-.06.09-.1.19-.14.29,0,.02-.01.05-.02.07-.02.09-.03.18-.03.26,0,.11.01.22.05.33.06.18.13.3.25.44.15.16.36.28.57.34.08.02.17.03.25.04s.18.03.27.03c.29,0,.56-.15.75-.35.14-.16.27-.34.32-.55.05-.2.04-.34,0-.54,0-.03-.01-.06-.02-.09-.03-.08-.06-.16-.1-.24-.11-.2-.26-.4-.47-.51-.17-.1-.31-.12-.51-.14-.12-.01-.24.01-.35.03-.22.04-.46.16-.62.33-.07.07-.12.15-.16.24-.05.09-.07.19-.06.29,0,.1.02.2.06.29.03.09.08.17.16.24.14.13.33.23.53.22s.4-.07.53-.22c.01-.01.03-.03.04-.04l-.15.12s.06-.04.09-.05l-.18.08c.05-.02.1-.03.16-.04l-.2.03s.1,0,.15,0l-.2-.03s.07.01.1.03l-.18-.08s.05.03.07.04l-.15-.12s.04.04.06.06l-.12-.15c.05.06.09.14.12.21l-.08-.18s.02.06.02.09l-.03-.2s0,.06,0,.1l.03-.2s-.02.07-.03.11l.08-.18s-.04.08-.07.11l.12-.15s-.07.08-.11.11l.15-.12s-.06.04-.09.05l.18-.08s-.03,0-.04.01l.2-.03c-.06,0-.12,0-.18-.01l.2.03c-.08-.01-.15-.03-.22-.06l.18.08s-.08-.04-.11-.07l.15.12s-.04-.04-.06-.06l.12.15s-.03-.05-.04-.07l.08.18s-.02-.06-.03-.1l.03.2s0-.07,0-.1l-.03.2s.02-.07.03-.11l-.08.18s.03-.06.05-.09l-.12.15s.06-.06.09-.09l-.15.12s.07-.05.11-.06l-.18.08s.09-.03.14-.04l-.2.03s.07,0,.11,0l-.2-.03s.06.01.09.02l-.18-.08s.05.03.07.04l-.15-.12s.04.04.06.06l-.12-.15s.03.05.05.08l-.08-.18s.02.06.03.09l-.03-.2s0,.08,0,.13l.03-.2c0,.06-.03.12-.05.17l.08-.18s-.03.07-.05.1l.12-.15h-.01c.05-.03.1-.07.15-.11,0,0-.02.01-.02.01l.18-.08s-.02,0-.03,0l.2-.03c-.06,0-.12,0-.18,0l.2.03s-.06-.01-.09-.02l.18.08s-.04-.02-.05-.03l.15.12s-.02-.02-.04-.04l.12.15s-.01-.02-.02-.03l.08.18s-.01-.03-.01-.05l.03.2s0-.04,0-.06l-.03.2s.01-.05.02-.08l-.08.18s.03-.06.05-.08l-.12.15s.05-.06.08-.08l-.15.12s.07-.05.12-.07l-.18.08s.09-.03.14-.04c.1-.02.18-.07.26-.13.08-.05.15-.12.19-.21.05-.09.08-.18.09-.28.02-.1.02-.2-.01-.3-.06-.18-.17-.36-.34-.45l-.18-.08c-.13-.04-.27-.04-.4,0h0Z"/>
      <path class="cls-1" d="M41.83,19.79c-.1.05-.18.12-.26.18-.04.03-.07.06-.1.1-.1.12-.2.24-.26.39-.04.1-.1.21-.12.31-.04.18-.04.34,0,.53.02.1.06.2.12.28.11.16.19.24.35.35.18.13.42.17.64.19.06,0,.12,0,.18,0,.11-.01.23-.02.34-.05.22-.06.4-.21.52-.41.03-.05.06-.1.08-.15.05-.1.1-.2.12-.31.02-.08.03-.17.04-.25,0-.03,0-.06,0-.09-.02-.19-.04-.31-.13-.48-.02-.05-.05-.08-.09-.13-.09-.12-.12-.14-.25-.24-.18-.13-.41-.16-.62-.18-.05,0-.1,0-.16,0-.06,0-.11.01-.17.02-.06,0-.13.01-.19.03-.05.01-.1.04-.16.06-.05.02-.1.04-.15.06s-.09.06-.13.09c-.04.03-.09.07-.13.11-.19.21-.31.47-.3.75,0,.21.06.47.17.65.09.14.2.26.35.34.07.04.16.07.24.1.03,0,.05.01.08.02.22.04.44.07.66,0,.23-.07.41-.22.55-.42.03-.05.06-.1.08-.16.05-.11.1-.22.14-.34s.06-.25.07-.37c.02-.22-.05-.45-.15-.65-.03-.05-.06-.09-.1-.13s-.06-.09-.1-.13c-.14-.12-.26-.19-.44-.25-.1-.03-.2-.04-.3-.01-.1,0-.19.03-.28.09-.09.05-.16.11-.21.19-.07.07-.11.16-.13.26-.04.19-.03.41.08.58s.26.28.45.34c0,0,.02,0,.03,0l-.18-.08s.05.02.07.04l-.15-.12s.04.04.06.06l-.12-.15s.04.05.05.08l-.08-.18s.03.08.03.12l-.03-.2s0,.09,0,.14l.03-.2c-.01.08-.04.15-.07.22l.08-.18c-.04.08-.07.17-.13.25l.12-.15s-.03.03-.04.05l.15-.12s-.02.02-.04.02l.18-.08s-.04.01-.06.02l.2-.03c-.05,0-.1,0-.15,0l.2.03c-.06,0-.12-.02-.17-.04l.18.08s-.05-.02-.07-.04l.15.12s-.02-.02-.03-.03l.12.15s-.02-.03-.03-.05l.08.18c-.02-.06-.04-.12-.04-.18l.03.2s0-.07,0-.11l-.03.2s.01-.05.02-.07l-.08.18s.03-.05.04-.08l-.12.15s.05-.05.07-.07l-.15.12s.07-.04.11-.06l-.18.08s.1-.03.15-.04l-.2.03c.1-.01.19-.01.29,0l-.2-.03s.08.02.12.03l-.18-.08s.04.02.06.04l-.15-.12s.03.03.04.04l-.12-.15s.02.03.03.05l-.08-.18s.02.06.02.09l-.03-.2s0,.07,0,.11l.03-.2c0,.05-.02.1-.04.15l.08-.18c-.03.07-.06.15-.11.21l.12-.15s-.01.01-.02.02l.15-.12s-.02.01-.03.01l.18-.08s-.06.01-.1.02l.2-.03c-.09.01-.19.02-.28,0l.2.03s-.09-.02-.13-.03l.18.08s-.06-.03-.09-.05l.15.12s-.05-.04-.07-.07l.12.15s-.03-.04-.03-.06l.08.18s-.01-.04-.02-.07l.03.2s0-.04,0-.06l-.03.2c0-.06.03-.12.05-.18l-.08.18c.03-.08.07-.15.12-.21l-.12.15s.08-.09.13-.13l-.15.12s.07-.05.1-.06c.09-.05.16-.11.21-.19.07-.07.11-.16.13-.26.03-.1.04-.2.01-.3,0-.1-.03-.19-.09-.28-.1-.16-.26-.3-.45-.34l-.2-.03c-.14,0-.26.03-.38.1h0Z"/>
    </g>
  </g>
</svg>