<?xml version="1.0" encoding="UTF-8"?>
<svg id="Layer_2" data-name="Layer 2" xmlns="http://www.w3.org/2000/svg" viewBox="0 0 56.9 50.65">
  <g id="Layer_1-2" data-name="Layer 1">
    <path d="M50.44,11.55c-2.91-1.21-5.96-1.6-9.09-1.92-2.94-.31-5.7-1.34-8.21-3.07-1.05-.73-2.09-1.6-3.09-2.6-.26-.27-.52-.54-.77-.82-.7-.75-1.41-1.53-2.32-2.14-.97-.66-2.04-1-3.17-1-1.62,0-3.32.66-5.34,2.07-5.25,3.66-9.55,7.69-12.78,11.99-2.11,2.83-3.73,5.72-4.79,8.61-1.55,4.23-1.04,7.6,1.46,9.51,1.23.94,2.84,1.46,4.54,1.46,1.08,0,2.17-.21,3.15-.61,2.35-.96,4.06-2.74,5.43-4.53,2.95,2.72,6.91,3.12,10.76,3.51,1.42.14,2.76.28,4.05.52,1.24.25,2.65.57,3.55,1.34.89.76,1.08,2.04.6,4.14-.06.28-.13.56-.2.85-.59,2.5-1.27,5.33.54,7.92,1.62,2.32,4.66,3.87,7.58,3.87h.04c2.75-.01,5.49-1.54,7.53-4.18,1.91-2.47,3.03-5.44,4.12-8.31l.1-.26c1.34-3.56,2.18-6.75,2.54-9.74.49-4,.86-13.65-6.23-16.61Z"/>
  </g>
</svg>