<?xml version="1.0" encoding="UTF-8"?>
<svg id="Layer_2" data-name="Layer 2" xmlns="http://www.w3.org/2000/svg" viewBox="0 0 41.77 48.34">
  <defs>
    <style>
      .cls-1 {
        fill: #1a1a1a;
      }
    </style>
  </defs>
  <g id="Layer_1-2" data-name="Layer 1">
    <g>
      <path class="cls-1" d="M38.34,8.61c-1.72-1.45-1.3-4.16-3.2-5.59-2.02-1.52-4.98-1.95-7.44-1.68-.62.07-1.24.28-1.86.19-.68-.1-1.04-.54-1.6-.9-.93-.59-1.98-.76-3.06-.53-2.7.58-4.99,2.95-7.1,4.58-.48.37-.94.76-1.43,1.1-.64.43-1.16.53-1.88.67-1.15.21-2.05.85-2.84,1.7-1.83,1.98-3.45,4.3-5,6.5S.24,19.32.07,22.15s.02,5.94.19,8.85c.04.63.11,1.23.31,1.83.22.67.25,1.02.06,1.7-.33,1.21-.51,2.28-.32,3.54.34,2.29,1.62,4.39,3.19,6.05.73.77,1.56,1.47,2.55,1.87.44.18.91.3,1.4.3.52,0,.88-.29,1.35-.38.65-.12.83.42,1.35.74.35.22.75.35,1.14.44.99.21,2.36.31,3.3-.13.38-.18.71-.64,1.09-.78.69-.26,1.1.48,1.56.85.95.78,2.04.77,3.22.84,2.89.18,6.02.72,8.91.35,2.35-.3,4.81-1.58,6.56-3.15.8-.72,1.47-1.61,1.85-2.62.51-1.35.52-2.81,1.04-4.16.95-2.47,2.77-4.65,2.96-7.38.1-1.4-.48-2.56-.77-3.89-.35-1.56.3-2.97.51-4.5s-.28-2.5-.9-3.85c-.78-1.71-.29-3.55-.26-5.34.04-2.14-.67-4.35-2.79-5.2-.9-.36-1.29,1.09-.4,1.45,2.25.9,1.64,4.17,1.54,6.01-.06,1.1-.03,2.22.37,3.27.52,1.39,1.2,2.31.9,3.85-.19.97-.51,1.92-.58,2.91-.08,1.13.28,2.13.61,3.19.73,2.38-.3,4.36-1.38,6.44-.45.86-.9,1.73-1.24,2.64-.46,1.21-.52,2.5-.9,3.74-.74,2.4-3.43,3.91-5.65,4.71-2.41.86-5.14.37-7.64.21-1.31-.08-2.74-.01-4.03-.26-1.05-.2-1.45-1.14-2.38-1.55-.62-.28-1.27-.19-1.85.16-.5.31-.78.7-1.4.82-.55.1-1.29.06-1.83-.05-.94-.2-1.34-1.14-2.23-1.38-.34-.09-.66-.03-.98.11-.74.31-1.21.54-2.01.18-1.95-.87-3.56-3.23-4.28-5.17-.37-1-.56-2.06-.44-3.12.12-1.01.78-1.95.57-2.97-.11-.54-.38-1.01-.48-1.56-.11-.61-.1-1.25-.12-1.87-.04-1.38-.09-2.75-.13-4.13-.08-2.68-.15-5.3,1.06-7.77,1.07-2.17,2.67-4.11,4.14-6.02.78-1.02,1.54-2.12,2.46-3.02.99-.97,1.98-.85,3.17-1.31s2.18-1.47,3.17-2.23c1.09-.84,2.16-1.72,3.29-2.51s2.62-1.75,4.03-1.24c1.01.37,1.66,1.36,2.8,1.46,1.31.11,2.64-.4,3.99-.31,1.47.09,3.12.46,4.36,1.29,1.91,1.29,1.47,4.11,3.23,5.59.73.62,1.8-.44,1.06-1.06h0Z"/>
      <path class="cls-1" d="M28.13,6.69c1.21-.48,2.52.28,3.48.99.49.36.95.8,1.26,1.32s.46,1.17.64,1.77.4,1.22.79,1.73c.34.45.76.81,1.18,1.18.35.31.76.65.88,1.11.17.64.01,1.25.35,1.87.47.85,1.76.09,1.3-.76-.16-.3-.09-.69-.12-1.02s-.11-.63-.24-.92c-.26-.56-.7-.99-1.16-1.39s-.95-.8-1.23-1.37c-.3-.62-.41-1.32-.64-1.97-.48-1.36-1.44-2.37-2.65-3.13s-2.8-1.44-4.24-.87c-.38.15-.64.5-.52.92.09.36.55.67.92.52h0Z"/>
      <path class="cls-1" d="M2.39,35.15c1.14-.05,1.59,1.08,1.62,2.05.03,1.08.02,2.17.94,2.92.79.64,1.83.81,2.61,1.47s1.27,1.7.86,2.74c-.15.38.16.82.52.92.42.12.78-.15.92-.52.48-1.23.12-2.62-.69-3.62-.41-.51-.94-.93-1.51-1.25-.51-.29-1.09-.46-1.59-.77s-.56-.83-.56-1.4c0-.63-.01-1.26-.22-1.87-.43-1.25-1.52-2.23-2.9-2.17-.96.04-.97,1.54,0,1.5h0Z"/>
      <path class="cls-1" d="M24.41,2.69c.69,1.88-1.94,2.39-3.21,2.6-1.56.25-2.95.7-4.17,1.72-.6.5-1.08,1.1-1.83,1.39-.86.33-1.7.14-2.58.17-1.7.05-3.46.84-5.08,1.32-.92.27-.53,1.72.4,1.45,1.03-.31,2.06-.61,3.09-.92.52-.16,1.04-.32,1.59-.35.48-.02.96.06,1.43.05.92-.02,1.84-.27,2.6-.8.7-.48,1.23-1.16,1.95-1.62,1.63-1.03,3.6-.8,5.32-1.58,1.45-.66,2.53-2.22,1.94-3.83-.33-.9-1.78-.51-1.45.4h0Z"/>
      <path class="cls-1" d="M11.19,11.72c-1.66.59-3.1,1.62-4.17,3.03-.53.69-1.06,1.52-1.14,2.4-.02.25-.01.5.04.75.03.16.2.43.17.59-.03.15-.33.4-.42.53-.13.17-.25.34-.37.52-.67,1.01-2.02,4.32.12,4.59.81.1,1.75-.26,2.46-.62.82-.42,1.49-1.04,2.05-1.77.25-.32.05-.84-.27-1.03-.38-.23-.78-.05-1.03.27-.4.52-.93.93-1.51,1.23-.29.15-.6.26-.92.33-.13.03-.26.06-.39.08-.08.01-.15.02-.23.02.18.18.25.21.22.07.05-.09-.01-.38,0-.5.02-.17.05-.33.1-.49.09-.31.21-.61.37-.89.34-.63.96-1.16,1.22-1.82.27-.69-.24-1.27-.06-1.94.16-.61.6-1.21.99-1.68.84-1.01,1.94-1.79,3.18-2.23.9-.32.51-1.77-.4-1.45h0Z"/>
      <path class="cls-1" d="M7.41,29.28l-.27,2.89c-.08.86-.08,1.58.68,2.13.27.2.59.33.8.6.2.25.32.57.42.88.23.7.36,1.42.67,2.09.29.63.75,1.19,1.39,1.49.38.17.77.23,1.16.35s.58.35.81.66c.43.6.86,1.16,1.55,1.5.72.36,1.45.43,2.23.32.4-.06.62-.57.52-.92-.11-.43-.52-.58-.92-.52-1.51.21-1.89-1.24-2.85-2.01-.56-.45-1.21-.43-1.83-.71-.54-.25-.77-.86-.94-1.39-.35-1.13-.54-2.36-1.53-3.14-.17-.13-.62-.3-.71-.48-.13-.25.04-.83.06-1.09l.25-2.65c.09-.96-1.41-.95-1.5,0h0Z"/>
      <path class="cls-1" d="M37.1,28.56c1.22,3.45-2.72,5.74-3.76,8.68-.3.84-.41,1.78-.32,2.66.05.49.22.94.3,1.42.11.64-.07.99-.48,1.49-.63.78-1.26,1.39-2.23,1.72-1.04.35-2.14.58-3.2.87-.93.25-.54,1.7.4,1.45,2.15-.58,4.32-.89,5.84-2.66.6-.7,1.31-1.47,1.28-2.46-.02-.54-.26-1.04-.36-1.57-.12-.64-.1-1.3.04-1.93.42-1.86,1.94-3.24,2.98-4.77,1.1-1.6,1.62-3.42.95-5.31-.32-.9-1.77-.51-1.45.4h0Z"/>
      <path class="cls-1" d="M27.16,11.51c1.14.84,2.41,2.16,2.77,3.57.32,1.25-.72,2.45.36,3.58s2.71.57,3.69,1.67c.92,1.04,1.66,2.64,1.17,4.03-.24.7-.81.97-1.39,1.37-.22.15-.43.31-.61.5-.14.15-.35.58-.55.62-.25.05-.82-.36-1.02-.52-.27-.2-.47-.45-.68-.72-.39-.51-.75-1.02-1.26-1.42-1.03-.78-2.31-.98-3.48-1.46-1.28-.52-2.31-1.63-2.53-3.03-.26-1.68.77-3.23,1.54-4.63.36-.65.7-1.32.95-2.02.17-.47.28-.94.35-1.43.02-.12.04-.24.05-.36.02-.16.03-.33.04-.49.02-.2.01-.22,0-.05l-.45.34c.21-.07.76-.17.91.06.54.79,1.84.04,1.3-.76-.66-.98-2.95-1.43-3.23.09-.19,1.05-.26,1.97-.74,2.96-.44.92-1.01,1.78-1.45,2.71-.75,1.58-1.12,3.29-.43,4.96.64,1.54,1.9,2.59,3.44,3.16.84.31,1.77.48,2.54.96s1.14,1.27,1.74,1.91c.54.57,1.36,1.05,2.13,1.2.93.18,1.32-.45,1.89-1.03.52-.52,1.24-.77,1.73-1.33.56-.64.8-1.48.85-2.31.1-1.71-.8-3.56-2.05-4.7-.83-.76-1.73-.7-2.74-1.01-1.32-.41-.42-1.77-.53-2.78-.21-2-2.02-3.83-3.55-4.96-.78-.57-1.53.73-.76,1.3h0Z"/>
      <path class="cls-1" d="M20.02,10.72c-1.31.54-2.66,1.43-3.63,2.47s-.92,2.19-.35,3.42c.12.26.47.74.44,1.03-.04.34-.47.66-.68.91-.49.58-.98,1.16-1.46,1.75-1.05,1.3-2.12,2.61-3.05,4-.75,1.12-1.27,2.59-.53,3.85.67,1.14,2.14,1.47,3.36,1.36,1.66-.14,3.08-1.04,4.65-1.48s3.28-.31,4.84.31c.9.35,1.29-1.1.4-1.45-2.52-.99-4.95-.65-7.39.35-1.17.48-2.87,1.26-4.11.56-1.49-.86.06-2.75.71-3.62.87-1.17,1.77-2.32,2.69-3.44.45-.54.91-1.08,1.37-1.62.34-.4.66-.74.7-1.29.08-1.08-1.27-2.19-.79-3.22.23-.5.81-.88,1.24-1.21.61-.48,1.25-.94,1.98-1.24.88-.36.49-1.82-.4-1.45h0Z"/>
      <path class="cls-1" d="M18.94,31.73c-1.12.77-2.88,2.08-2.5,3.65.18.73.66,1.45,1.06,2.08.19.3.4.6.65.85.09.09.2.17.3.25.1.09.22.16.34.21.03-.19.03-.22,0-.08-.06.73-.4,1.26.07,1.95.43.64,1.1.72,1.8.55s1.42-.43,1.94-.94c.61-.58.93-1.26,1.69-1.7.36-.21.75-.45,1.15-.56.45-.13.79-.01,1.22.13.71.23,1.41.4,2.08-.03.53-.33.7-.88.95-1.42.37-.78,1.1-1.21,1.67-1.82.97-1.04,1.42-2.71.16-3.73s-2.37.1-3.62.41c-.79.2-1.49-.41-2.16-.73-.72-.34-1.43-.48-2.22-.32-.48.1-.92.29-1.38.43-.55.17-1.06.15-1.62.2-.83.07-1.63.37-2.02,1.16-.43.86.86,1.62,1.3.76.29-.59,1.15-.41,1.7-.46.65-.06,1.23-.29,1.85-.48.58-.19,1.07-.24,1.64.01.49.22.93.52,1.42.72,1.08.45,1.99.18,3-.32.34-.17.84-.49,1.2-.2.56.45-.04,1.23-.38,1.58-.4.41-.87.74-1.24,1.17s-.56.88-.8,1.38c-.29.62-.67.39-1.23.2-.6-.2-1.17-.28-1.78-.13-1.06.26-2.26.98-2.94,1.83-.36.45-.63.93-1.18,1.16-.22.1-.53.22-.78.24-.57.05-.19.02-.16.06-.09-.13.04-.4.07-.53.16-.56.24-1.11-.23-1.56-.22-.21-.51-.28-.73-.49-.23-.22-.39-.5-.55-.77-.18-.3-.35-.6-.52-.91-.23-.44-.31-.69,0-1.11.41-.56,1-1.04,1.57-1.43.79-.54.04-1.84-.76-1.3h0Z"/>
      <path class="cls-1" d="M26.81,42.89c-.28-.33-.47-.74-.78-1.06s-.74-.55-1.18-.68c-.92-.26-1.86-.04-2.71.34-.79.36-1.59.86-2.14,1.54-.45.56-.73,1.38-1.31,1.8-.33.24-.49.65-.27,1.03.19.32.7.51,1.03.27.61-.44.98-1.03,1.38-1.66s.88-1.05,1.52-1.4c.58-.32,1.27-.64,1.95-.51.76.14,1,.86,1.45,1.39.26.31.79.27,1.06,0,.31-.31.26-.75,0-1.06h0Z"/>
    </g>
  </g>
</svg>