<?xml version="1.0" encoding="UTF-8"?>
<svg id="Layer_2" data-name="Layer 2" xmlns="http://www.w3.org/2000/svg" viewBox="0 0 46.52 38.62">
  <defs>
    <style>
      .cls-1 {
        fill: #1a1a1a;
      }
    </style>
  </defs>
  <g id="Layer_1-2" data-name="Layer 1">
    <g>
      <path class="cls-1" d="M19.66,2.18c-1.63-1.43-3.53-2.78-5.77-1.9-1.07.42-1.98,1.14-3.09,1.48s-2.3.51-3.28,1.23c-.72.53-1.18,1.21-1.34,2.1-.14.76-.26,1.26-.63,1.94-.29.55-.5,1.12-.67,1.72-.39,1.34-.69,2.45-1.61,3.55-.75.9-1.54,1.73-2.1,2.77-1.94,3.65-1.47,8.32,1.2,11.48.79.93,1.72,1.72,2.52,2.64s1.26,2.13,2.03,3.11c1.42,1.79,3.43,1.7,5.51,1.56,1.16-.08,2.23-.11,3.27.5.9.53,1.65.93,2.71,1.03.94.09,1.93-.06,2.86.14,1.24.27,1.25,1.38,2,2.18s1.53.7,2.49.67c1.27-.04,2.52.34,3.79.24,2.41-.18,4.53-2.13,6.45-3.42,1.19-.8,2.38-1.6,3.58-2.4.95-.64,2.09-1.23,2.77-2.18,1.36-1.91.67-4.24.57-6.38-.13-2.78,1.96-4.02,3.06-6.29,1-2.08.36-4.49-.18-6.61-.61-2.39-1.68-4.59-3.82-5.96-2.01-1.29-4.45-1.67-6.78-1.92-1.44-.15-2.88-.26-4.33-.39-1.55-.14-3.14-.18-4.61-.73-.62-.23-1.2-.55-1.88-.58-.73-.03-1.46.38-2.17.31-.49-.05-.82-.28-1.35-.26-.58.02-1.17.13-1.75.16-.96.05-.97,1.55,0,1.5.77-.04,1.53-.23,2.27-.06,1,.22,1.78-.1,2.78-.09,1.13,0,2.24.73,3.38.92s2.22.25,3.33.34c3.77.33,8.95.11,11.67,3.24,1.47,1.69,1.95,4.18,2.33,6.33.21,1.24.2,2.42-.45,3.53-.5.84-1.17,1.56-1.75,2.35-1.24,1.72-1.37,3.45-1.13,5.51.11.97.25,1.94.09,2.91-.23,1.35-1.15,1.95-2.21,2.67-2.05,1.38-4.11,2.75-6.16,4.13-.91.61-1.85,1.36-2.91,1.7-1.17.38-2.35.07-3.53-.03s-2.19.3-2.84-.9c-.36-.67-.75-1.25-1.44-1.62-1.47-.79-3.19-.18-4.72-.62-.85-.24-1.5-.9-2.34-1.19s-1.79-.3-2.68-.25-1.87.21-2.79.09c-1.37-.17-2-1.1-2.63-2.21-.99-1.73-2.36-2.95-3.67-4.42-1.44-1.61-2.21-3.65-2.22-5.82-.01-2.38.91-4.38,2.45-6.15.72-.83,1.41-1.64,1.81-2.67.46-1.17.59-2.41,1.21-3.52.25-.45.49-.85.6-1.37.16-.75.05-1.33.68-1.91.89-.83,2.26-.88,3.36-1.27s2.09-1.28,3.25-1.54c1.45-.33,2.75.82,3.75,1.71.72.63,1.79-.42,1.06-1.06h0Z"/>
      <path class="cls-1" d="M7.33,9.96c.91.84,2.23,1.02,3.35.49.56-.27,1.02-.71,1.38-1.21.18-.26.32-.54.43-.83.07-.18.11-.5.24-.64.16-.17.61-.25.82-.29.34-.07.69-.05,1.02-.11.65-.13,1.05-.61,1.44-1.11.71-.94,1.44-2.48,2.81-2.47.97,0,.97-1.5,0-1.5-1.26,0-2.27.76-3.02,1.72-.4.51-.73,1.08-1.15,1.57-.2.24-.29.32-.6.35s-.61.05-.91.11c-.53.11-1.18.33-1.56.74s-.39.97-.65,1.43c-.5.87-1.7,1.49-2.55.7-.71-.66-1.77.4-1.06,1.06h0Z"/>
      <path class="cls-1" d="M23.3,35.65c.31-.23.65-.37,1.05-.31.35.05.63.28.94.41.93.4,1.96,0,2.89-.21.5-.12.99-.23,1.49-.35.2-.05.59-.22.79-.19.1.02.16.08.28.14.35.18.73.22,1.12.23.33,0,.64-.07.92.14.32.25.84.05,1.03-.27.23-.38.05-.78-.27-1.03-.69-.53-1.53-.11-2.22-.48-.48-.25-.83-.28-1.35-.16-.59.14-1.19.28-1.78.42-.55.13-1.11.29-1.66.39-.52.1-.77-.12-1.23-.32-.89-.39-1.95-.29-2.74.29s-.03,1.86.76,1.3h0Z"/>
      <path class="cls-1" d="M37.26,5.23c.62.3,1.24.65,1.66,1.22.44.59.35,1.15.45,1.84.19,1.3,1.91,1.88,1.96,3.2.03.64-.06,1.28.1,1.91s.65,1.07.82,1.69c.09.33.19.67.21,1.02.02.32-.09.62-.06.93.07.72.85,1,1.42,1.27.87.4,1.63-.89.76-1.3-.18-.08-.36-.17-.54-.26-.11-.05-.21-.11-.32-.17l.16.4c.12-.02.06-.98.05-1.09-.07-.67-.23-1.47-.58-2.06-.15-.25-.36-.45-.46-.73-.1-.31-.08-.67-.08-.99.01-.64.03-1.25-.29-1.82s-.77-1.15-1.23-1.62c-.27-.27-.43-.39-.47-.8-.04-.34,0-.68-.09-1.02-.32-1.39-1.51-2.32-2.73-2.92-.86-.42-1.62.87-.76,1.3h0Z"/>
      <path class="cls-1" d="M7.59,30.33c-.51-1.29-.63-2.67-.23-4.02.36-1.22,1.17-2.32,1.14-3.64s-.95-2.06-1.64-3.07c-.76-1.11-1.11-2.4-1.08-3.73.02-.97-1.48-.97-1.5,0-.03,1.27.24,2.51.8,3.65.28.56.64,1.07,1.03,1.55.46.56.95,1.07.87,1.85-.14,1.33-1.05,2.49-1.26,3.84s-.07,2.7.42,3.96c.35.89,1.8.5,1.45-.4h0Z"/>
      <path class="cls-1" d="M15.25,28.51c.57-.46,1.39.34,1.77.69.52.48,1.03.94,1.66,1.28,1.21.66,2.61.94,3.98.78.69-.08,1.31-.31,1.96-.51.35-.11.74-.23,1.11-.18s.6.3.91.48c.66.39,1.44.3,2.17.44.81.16,1.56.46,2.27.87v-1.3c-1.72.74-3.63.84-5.48,1s-3.9.5-5.82.24c-.95-.13-.94,1.37,0,1.5,2.12.28,4.34-.11,6.46-.29,1.92-.17,3.8-.38,5.59-1.15.53-.23.44-1.04,0-1.3-.74-.43-1.53-.77-2.36-.97s-1.69-.13-2.44-.6c-1.58-.99-3.02.12-4.63.28-1.75.17-3.16-.58-4.41-1.73-1.08-1-2.51-1.65-3.8-.61-.75.6.31,1.66,1.06,1.06h0Z"/>
      <path class="cls-1" d="M14,15.24c.82-1.2,2.1-1.79,3.05-2.85.44-.49.67-1.07.98-1.64.46-.84,1.73-1.8,2.6-1.06.49.41.73,1.03,1.38,1.25s1.51.07,2.2.11c2.04.11,4.05.53,5.98,1.2.86.3,1.77.62,2.51,1.15.43.32.72.55.55,1.1-.2.64-1.02.71-1.65.78-1.98.21-3.91-.51-5.71-1.24-1.44-.59-3.02-1.52-4.64-1.36s-2.22,1.49-3.18,2.63c-1.15,1.38-2.78,2.32-4.54,2.69-.51.11-1.01.16-1.53.16-.45,0-.96.12-.96-.43,0-.81,2.06-1.79,2.67-2.22.79-.55.04-1.85-.76-1.3-1.46,1.02-4.01,2.06-3.32,4.28.52,1.71,3.17,1.22,4.47.92,1.93-.45,3.75-1.53,5.03-3.04.77-.91,1.26-2.27,2.65-2.21,1.18.06,2.44.8,3.51,1.24,2.18.9,4.52,1.7,6.91,1.3,1.7-.29,3.51-1.4,2.45-3.35-.96-1.75-3.56-2.44-5.33-2.95-1.18-.34-2.39-.57-3.61-.72-1.12-.14-2.88.16-3.69-.66-.77-.77-1.18-1.35-2.36-1.1-1.07.22-2.06.68-2.69,1.61-.35.52-.53,1.14-.9,1.64-.31.41-.71.71-1.12,1.02-.89.67-1.64,1.36-2.27,2.28-.54.8.76,1.55,1.3.76h0Z"/>
      <path class="cls-1" d="M18.45,19.39c-.6.26-1.17.57-1.72.93-.58.38-1.28.82-1.28,1.6s.58,1.2,1.02,1.72c.36.43.66.92.89,1.43.11.24.18.52.31.76.2.38.55.64.98.67.67.06,1.41-.24,1.93-.65s.86-1.07.87-1.74-.34-1.22-.42-1.84c-.1-.75.13-1.5-.33-2.17s-1.19-.91-1.96-.8c-.4.06-.62.57-.52.92.12.43.52.58.92.52-.07.01-.04-.01.03.01-.02,0-.09,0-.01,0,.04,0,.08.02.11.03-.1-.03.01,0,.03.02.09.04.16.11.2.19.03.07.03.34.02.49-.01.26-.01.52.01.78.06.54.23,1.02.37,1.55.1.35.05.57-.17.8-.1.11-.24.2-.37.26-.16.07-.49.09-.57.14-.12.07.2.12.21.11.01,0,0,0-.02-.05.02.09-.05-.15-.06-.18-.1-.25-.21-.51-.33-.75-.2-.4-.44-.78-.71-1.14-.16-.2-.32-.4-.49-.59-.13-.14-.32-.31-.41-.43.02.03-.04-.07-.02-.07.02,0-.04.19-.05.17s.11-.11.13-.12c.21-.17.45-.32.68-.47.48-.3.98-.57,1.5-.79.37-.16.46-.71.27-1.03-.22-.38-.65-.43-1.03-.27h0Z"/>
      <path class="cls-1" d="M26.62,7.36c1.01.81,2.24.86,3.49.87.62,0,1.26-.03,1.86-.2.28-.08.71-.19.93-.39.02-.01.23-.13.08-.14.08,0,.34.33.38.38.38.46.46,1.08.85,1.52.46.52,1.05.4,1.67.39s1.26.06,1.76.44c.36.27.68.83.47,1.29-.4.87.9,1.64,1.3.76.56-1.24.07-2.64-1.06-3.38-.59-.39-1.31-.54-2-.59-.25-.02-.81.12-1.01.02-.12-.06-.27-.56-.38-.76-.3-.53-.76-1.13-1.32-1.41-.77-.39-1.3.19-1.99.41-.64.21-1.34.18-2.01.16s-1.43,0-1.96-.42c-.75-.59-1.82.46-1.06,1.06h0Z"/>
      <path class="cls-1" d="M37.46,17.54c.36.44-.1,1.24-.33,1.64-.37.65-.78,1.29-.88,2.04s.15,1.38.52,1.99c.25.41.75.96.66,1.47s-.75.83-1.17,1.05c-.06.03-.18.11-.24.12-.04,0,.26.08-.04-.02-.13-.04-.28-.23-.37-.33-.21-.24-.37-.54-.48-.84-.47-1.25-.43-2.75.06-3.99.27-.7.72-1.29,1.29-1.78.3-.26.62-.49.9-.77.13-.13.25-.28.35-.43.06-.08.11-.16.16-.24.07-.13.15-.16.02-.14h-.4l-.16-.1c.71.65,1.78-.41,1.06-1.06-.36-.33-.85-.41-1.28-.14-.41.26-.53.77-.86,1.11-.68.67-1.42,1.17-1.95,1.99-1.01,1.58-1.24,3.65-.79,5.45.23.94.71,1.86,1.5,2.44.88.65,1.78.24,2.59-.31.73-.49,1.33-1.2,1.33-2.12s-.6-1.59-1.01-2.34c-.54-.99.3-1.82.71-2.68.49-1.02.62-2.13-.12-3.06-.26-.32-.79-.26-1.06,0-.31.31-.25.75,0,1.06h0Z"/>
      <path class="cls-1" d="M30.61,21.33c-.42,1.29-.4,2.73.1,4s1.57,2.34,2,3.71c.1.32.18.66.24.99s.05.67.15.98c.2.62.8,1.01,1.44,1.02s1.22-.34,1.73-.69c.6-.4,1.15-.86,1.65-1.38.67-.69-.39-1.75-1.06-1.06-.37.38-.77.74-1.21,1.05-.17.12-.91.72-1.14.57-.03-.02-.03-.27-.04-.36-.04-.29-.08-.58-.14-.87-.12-.56-.31-1.11-.55-1.63-.45-1-1.24-1.8-1.65-2.81s-.41-2.1-.07-3.13c.3-.92-1.15-1.31-1.45-.4h0Z"/>
      <path class="cls-1" d="M10.59,23.9c-.57,1.12-1.4,2.33-1.14,3.65.11.57.47,1,.9,1.37.09.08.18.15.26.24,0,0,.1.11.07.07s.04.07.05.08c.02.05.03.04,0,0l.02.09c0-.06,0,.07,0,.07,0,.03-.05.17-.09.24-.19.36-.09.81.27,1.03.34.2.84.09,1.03-.27.31-.6.42-1.3.06-1.91-.25-.43-.75-.72-1-1.05-.08-.11-.13-.26-.13-.45,0-.23.06-.48.17-.74.23-.56.55-1.1.82-1.64.18-.36.09-.81-.27-1.03-.33-.2-.84-.09-1.03.27h0Z"/>
      <path class="cls-1" d="M10.16,12.02c.02-.15-.02,0-.02.03,0,.07.05-.07-.02.04-.03.05-.06.1-.09.15-.04.06.06-.06-.03.04-.08.08-.16.16-.25.24.1-.08-.08.06-.09.06-.04.03-.08.06-.13.09-.47.31-.92.62-1.27,1.06-.64.82-.85,1.93-.58,2.93.1.38.54.65.92.52s.63-.52.52-.92c-.01-.05-.03-.1-.04-.16-.02-.07-.02-.13-.01-.02-.01-.11-.02-.22-.02-.32,0-.05,0-.11,0-.16,0-.04.03-.18,0-.03.02-.11.04-.21.07-.32.01-.04.02-.08.04-.12,0,0,.07-.18.03-.09s.04-.07.04-.09c.02-.05.05-.1.08-.14s.06-.09.09-.14c.07-.12-.04.03.02-.03.07-.08.14-.16.22-.24.14-.13.27-.21.49-.36.24-.16.48-.32.7-.51.46-.4.73-.91.8-1.51.05-.39-.38-.77-.75-.75-.45.02-.7.33-.75.75h0Z"/>
      <path class="cls-1" d="M26.83,18.25c-.51-.87-1.31-1.49-2.37-1.15-.47.15-.94.5-1.11.97-.18.52.06.94.21,1.42.29.94.22,1.86-.08,2.79s-.7,2.13-.16,3.1c.48.87,1.83,1.28,2.71.79.93-.52,1.05-1.57,1.13-2.52.03-.38.09-.71.38-.98.37-.36.78-.68,1.17-1.02.32-.28.63-.55.99-.77.45-.27,1-.46,1.35-.88,1-1.19-.72-2.08-1.62-2.46-.56-.23-1.12-.32-1.69-.07-.22.1-.41.23-.6.36-.1.07-.19.14-.3.19-.05.02-.1.04-.15.05.1,0,.08,0-.05-.04-.38-.13-.82.15-.92.52-.11.41.14.79.52.92.35.12.73.1,1.07-.03.37-.14.64-.41.98-.58.23-.11.42-.01.65.09.16.07.31.15.46.23.1.05.34.25.45.26l.08-.42v.02c-.07.01-.16.1-.22.13-.17.1-.34.18-.51.28-.37.21-.71.45-1.04.72-.57.46-1.14.94-1.67,1.45-.58.56-.75,1.27-.82,2.04-.03.33,0,1.24-.51,1.23-.78-.01-.62-.87-.48-1.39.21-.77.49-1.48.56-2.29.08-.84-.06-1.7-.36-2.49-.01-.03-.07-.21-.08-.22-.07-.03-.05.14-.06.13-.03-.03.26-.13.25-.13.29-.04.43.3.55.5.49.83,1.79.08,1.3-.76h0Z"/>
    </g>
  </g>
</svg>