<?xml version="1.0" encoding="UTF-8"?>
<svg id="Layer_2" data-name="Layer 2" xmlns="http://www.w3.org/2000/svg" viewBox="0 0 45.6 44.22">
  <defs>
    <style>
      .cls-1 {
        fill: #1a1a1a;
      }
    </style>
  </defs>
  <g id="Layer_1-2" data-name="Layer 1">
    <g>
      <path class="cls-1" d="M18.78,0c-4.48.44-8.69,2.96-12.37,5.41C3.65,7.26-.22,10.89,1.23,14.58c.82,2.07-.29,4.22-.47,6.32-.09,1.03.37,2.26.05,3.23C.46,25.2-.03,25.98,0,27.15c.05,2.08.77,4.43,1.6,6.32.71,1.63,1.86,3.16,3.48,3.97.35.17.82.23,1.14.43.42.26.5.63.74,1.02.3.49.72.89,1.33.88.65,0,.93-.3,1.59.03.58.29,1.15.63,1.72.94,1.15.62,2.28,1.28,3.44,1.88.9.46,1.45.48,2.41.31,1.18-.2,2.12.68,3.32.64s2.1-.28,3.25.15c.89.33,1.81.7,2.76.41.79-.24,1.26-.87,1.89-1.34.98-.75,2.38-.56,3.56-.66,1.91-.16,3.89-.49,5.54-1.54.63-.4,1.26-.89,1.57-1.58.38-.85.19-1.72.86-2.47.99-1.11,2.53-1.63,3.66-2.59,1.61-1.36,1.75-3.14,1.73-5.14-.04-2.92-.08-5.84-.12-8.76-.02-1.21.1-2.54-.31-3.71s-1.4-2.25-2.15-3.26c-1.1-1.49-2.5-3.52-4.59-2.38l1.13.65c.15-2.27-1.22-4.23-3.33-5.01l.52.92c.32-1.81-1.02-3.06-2.76-3.27-.57-.07-1.28.03-1.66-.42-.21-.25-.26-.7-.41-1-.31-.64-.78-1.15-1.51-1.3s-1.42.16-2.13.31c-1.06.23-1.64-.73-2.63-.98-1.15-.29-2.44-.19-3.61-.22-1.38-.05-2.76-.09-4.14-.14-.97-.03-.96,1.47,0,1.5,2.11.07,4.22.09,6.33.21.63.04,1.17.09,1.71.45.29.2.49.44.83.59.52.23,1.06.22,1.61.11.61-.11,1.51-.65,2.05-.14.41.4.46,1.26.82,1.73.33.43.74.65,1.27.73.88.13,3.05-.19,2.77,1.44-.07.43.11.77.52.92,1.5.55,2.33,2,2.23,3.56-.04.59.66.9,1.13.65.6-.33,1.25.2,1.62.62.39.44.72.95,1.07,1.42.65.87,1.5,1.76,1.86,2.79s.23,2.18.24,3.22c.02,1.14.03,2.27.05,3.41.03,2.08.1,4.16.08,6.24-.01,1.92-.75,2.9-2.32,3.89-1.02.64-2.14,1.22-2.9,2.19-.32.41-.57.87-.69,1.38-.09.35-.08.71-.2,1.06-.22.63-.74.97-1.31,1.29-1.64.92-3.59,1.1-5.44,1.2-.82.05-1.69.02-2.47.31-.65.24-1.1.68-1.61,1.12-.93.81-1.71.54-2.75.15-.83-.31-1.58-.46-2.46-.35-.6.07-1.23.25-1.82.11-.42-.1-.8-.37-1.2-.52-.86-.33-1.26.02-2.08.06-1.16.04-2.44-.98-3.43-1.52s-1.95-1.12-2.96-1.61c-.6-.29-1.09-.39-1.76-.33-.45.04-.29.16-.58-.19-.21-.25-.28-.6-.5-.85-.42-.47-.97-.58-1.54-.8-.82-.33-1.52-.9-2.07-1.59-1.28-1.58-1.75-3.68-2.21-5.61-.24-1.02-.48-2.1-.15-3.13.25-.78.75-1.45.79-2.3.04-.95-.27-1.85-.17-2.81s.38-1.9.56-2.85c.16-.83.27-1.67.16-2.51-.13-1.01-.76-1.85-.55-2.87.44-2.12,2.03-3.85,3.7-5.13,1.79-1.36,3.82-2.47,5.8-3.54,2.14-1.16,4.38-2.15,6.82-2.39.95-.09.96-1.59,0-1.5h0Z"/>
      <path class="cls-1" d="M15.92,4.95c-2.29,1.96-4.65,3.85-7.09,5.63-.77.56-2.01,1.15-2.34,2.13-.2.62.04,1.29.05,1.92.01.94-.27,1.54-.86,2.23-1.55,1.82-1.91,3.67-1.91,6.03,0,1.44-.02,2.81-.53,4.18-.39,1.06-.66,1.92-.16,2.98.41.87,1.71.11,1.3-.76-.43-.92.62-2.58.76-3.54.16-1.08.12-2.17.13-3.26.01-1.16.07-2.39.62-3.44.49-.91,1.37-1.52,1.81-2.47.19-.41.28-.85.32-1.3.05-.57-.27-1.42-.11-1.93.17-.58,1.04-1,1.49-1.33.55-.4,1.09-.8,1.63-1.21,2.03-1.53,4.01-3.13,5.95-4.79.73-.63-.33-1.69-1.06-1.06h0Z"/>
      <path class="cls-1" d="M13.94,16.29c.17.1.67.35.63.61-.02.12-.35.38-.43.47-.5.59-.91,1.25-1.06,2.01s-.09,1.6-.11,2.41-.26,1.54-.5,2.29c-.3.92,1.15,1.32,1.45.4s.53-1.81.55-2.77c.02-.86-.13-1.81.27-2.6.35-.69,1.13-1.17,1.28-1.95.2-.99-.58-1.7-1.34-2.17-.82-.51-1.57.78-.76,1.3h0Z"/>
      <path class="cls-1" d="M30.4,27.2c-.12.13-.24.25-.37.36-.02.02-.23.19-.1.09-.07.05-.14.1-.21.15-.14.09-.29.18-.45.26-.03.01-.28.12-.12.06-.07.03-.14.06-.21.08-.15.05-.31.1-.47.13-.09.02-.18.04-.27.05-.09.01-.1.02-.02,0-.05,0-.1.01-.15.02-.44.05-.88.08-1.32.16-.39.07-.64.56-.52.92.13.41.51.6.92.52.05,0,.1-.02.15-.03s.11-.02.02,0c.11-.02.22-.03.34-.04.2-.02.4-.04.6-.06.43-.05.84-.13,1.25-.29.76-.29,1.45-.73,2-1.34.26-.29.31-.78,0-1.06-.29-.26-.78-.31-1.06,0h0Z"/>
      <path class="cls-1" d="M21.42,8.05c.32.37.78.41,1.23.46.34.04.72.11,1.07.23.17.06.32.12.48.2.13.07.32.2.37.23.29.24.44.41.59.74.04.08.01.02,0,0,.01.04.03.08.04.12s.02.08.03.12c0,0,.03.13.02.06,0-.06.02.18,0,.12,0-.05,0,.04-.02.05l.07-.12-.06.06c-.1.04-.25.14-.38.19-.08.04-.01,0,0,0-.04.01-.07.03-.11.04-.08.03-.17.06-.26.08-.15.04-.3.07-.45.1-.02,0-.15.02-.03,0-.04,0-.08,0-.11.01-.09,0-.18.01-.27.01-.15,0-.31,0-.46-.01-.03,0-.22-.03-.11,0-.09-.01-.18-.03-.27-.05-.19-.04-.37-.09-.55-.16-.15-.05-.19-.07-.38-.17-.38-.2-.54-.33-.82-.62s-.78-.28-1.06,0-.28.77,0,1.06c1.21,1.25,3.08,1.73,4.76,1.32.92-.23,2.04-.76,2-1.86-.03-1-.69-1.87-1.47-2.42-.45-.32-1-.53-1.53-.66-.3-.07-.6-.12-.91-.15-.12-.01-.24-.02-.36-.04.12.02-.01-.01-.03-.01l-.07-.02c.15.11.19.12.1.03-.27-.31-.79-.27-1.06,0-.3.3-.27.75,0,1.06h0Z"/>
      <path class="cls-1" d="M38.78,20.28c-.84.91-1.66,1.88-2.33,2.92-.56.86-.89,1.84-.5,2.84.33.85,1.08,1.48,1.87,1.89.69.36,2.12.55,2.47,1.33.5,1.13-1.42,2.16-2.09,2.74-.88.76-1.54,1.66-2.19,2.62-1.46,2.15-4.6,2.33-6.97,2.09-.96-.09-.95,1.41,0,1.5,2.28.22,5.21.01,7.08-1.46.98-.78,1.49-1.99,2.33-2.91s2.02-1.52,2.76-2.52c.6-.8.88-1.9.36-2.82s-1.46-1.24-2.36-1.59-2.22-.99-1.9-2.14c.18-.64.72-1.26,1.11-1.77.44-.58.92-1.13,1.41-1.67.65-.71-.41-1.77-1.06-1.06h0Z"/>
      <path class="cls-1" d="M23.43,35.25c-1.1-.35-2.32-.31-3.39.13-.56.23-1.23.54-1.51,1.1-.23.47-.24,1.2-.07,1.69.25.71.9.99,1.62.95.61-.03,1.21-.04,1.82.03.65.07,1.28.17,1.92-.02.59-.17,1.14-.52,1.51-1.02,1.07-1.46-.77-2.76-1.97-3.23-.38-.15-.82.16-.92.52-.12.43.15.77.52.92.32.13.65.33.91.56.13.12.2.2.28.34-.02-.03,0-.04,0-.07-.02.07-.02.08-.06.12-.22.21-.47.36-.8.44-.35.08-.82,0-1.23-.05-.45-.05-.9-.08-1.35-.07-.22,0-.45.02-.67.03-.06,0-.2,0-.21,0,.05,0-.06-.01-.07-.02.02.03.11.08.14.11-.05-.04-.05-.13-.04-.2,0-.09,0-.18,0-.28,0-.04.03-.17,0-.09-.03.07.08-.05.02,0,.08-.05.15-.1.23-.15.14-.08.32-.17.45-.22.81-.32,1.64-.34,2.46-.07.39.12.82-.14.92-.52.11-.4-.14-.8-.52-.92h0Z"/>
      <path class="cls-1" d="M14.84,37.57c-.53-.43-.9-1-1.35-1.5-.49-.55-1.11-.97-1.83-1.17s-1.43-.18-2.13.02c-.26.08-.43.14-.66.02-.27-.14-.48-.39-.69-.61-.66-.71-1.72.35-1.06,1.06.5.53,1.07,1.03,1.82,1.11.67.07,1.28-.32,1.96-.23,1.39.17,1.89,1.58,2.87,2.36.32.25.75.31,1.06,0,.26-.26.32-.81,0-1.06h0Z"/>
      <path class="cls-1" d="M31.08,16c-.34-.28-.68-.53-1.09-.69s-.91-.15-1.34,0c-.74.25-1.43.72-2.02,1.21s-1.06,1.1-1.33,1.82c-.21.55,0,1.19.6,1.35.4.1.82.02,1.23,0,.11,0,.21,0,.32,0,.15,0,.08,0,.04,0,.06.01.12.04.19.05.08.02-.01,0-.03-.01.05.03.09.06.14.08.07.03,0-.01-.02-.02.04.03.08.07.12.11.06.06.12.13.18.2s0,0-.02-.02c.03.05.06.09.1.14.11.16.2.33.29.49.19.34.69.48,1.03.27s.47-.66.27-1.03c-.32-.58-.71-1.21-1.33-1.51-.37-.19-.78-.26-1.19-.24-.19,0-.38.04-.57.05-.08,0-.16.01-.24.01-.05,0-.11,0-.16,0,.05,0,.09.02.14.04l.27.27.04.36s.02-.06.03-.09c0-.01.06-.14.03-.07-.03.08.04-.09.05-.1.02-.04.04-.08.07-.12.06-.1.12-.2.19-.29.03-.04.06-.07.01-.01.04-.04.08-.09.11-.13.14-.16.3-.31.46-.44.05-.04.09-.08.14-.11-.06.05-.02.01.02-.01.1-.07.19-.14.3-.21.37-.24.77-.49,1.12-.58.21-.06-.05,0,.08-.01.03,0,.19.01.07,0,.05,0,.09.02.14.03.13.03-.01-.02.05.02.1.05.19.11.28.17.04.03.08.06.12.09-.1-.08.08.06.08.06.3.25.77.32,1.06,0,.25-.27.33-.8,0-1.06h0Z"/>
      <path class="cls-1" d="M33.78,10.31c.53.25.95.67,1.07,1.26.13.63-.03,1.29.05,1.93.19,1.57,1.48,2.1,2.87,2.35,2.51.45,6.09,1.49,6.27,4.6.05.96,1.56.97,1.5,0-.19-3.35-3.3-5.15-6.25-5.82-.73-.16-1.53-.21-2.23-.48s-.71-.87-.68-1.55c.02-.74,0-1.44-.34-2.11s-.86-1.17-1.51-1.47c-.87-.41-1.63.88-.76,1.3h0Z"/>
      <path class="cls-1" d="M35.53,18.76c-.38.22-.74.46-1.08.74s-.63.64-.73,1.07-.09.88-.11,1.31-.05.86-.07,1.29c-.02.39.36.77.75.75.42-.02.73-.33.75-.75.02-.37.04-.74.06-1.11.01-.2.02-.39.03-.59,0-.1.01-.2.02-.29,0-.02.02-.26,0-.16s.03-.12.04-.15c-.04.08-.04.09,0,.01.02-.03.04-.07.06-.1-.09.15.04-.04.08-.07.05-.05.11-.09.16-.14.04-.03.03-.03-.03.03.04-.03.08-.06.11-.08.08-.06.15-.11.23-.16.16-.11.32-.2.48-.3.34-.2.49-.69.27-1.03s-.66-.48-1.03-.27h0Z"/>
      <path class="cls-1" d="M17.61,26.04c-1.31.62-2.89.38-4.29.57-.81.11-1.55.38-2.29.71-.64.29-1.78.61-1.78,1.48,0,.42.3.76.55,1.07s.5.57.83.77c.31.18.68.31,1.04.31.19,0,.39-.02.57-.08.06-.02.57-.21.58-.3,0,.11-.42-.19-.14.04.06.05.24.11.28.13.2.07.41.09.61.05.14-.03.28-.09.4-.17.57-.35.02-.12.02-.2,0,.08.3.25.37.29.15.1.32.18.48.24.38.14.8.16,1.19.09.8-.14,1.42-.75,1.77-1.46.18-.37.33-.77.42-1.18.07-.34.03-.8.24-1.09.24-.32.05-.84-.27-1.03-.38-.22-.78-.06-1.03.27-.29.38-.29.83-.36,1.28-.07.42-.2.84-.42,1.2-.17.28-.39.51-.73.54-.4.03-.6-.26-.92-.46-.42-.27-.93-.25-1.33.04.08-.06-.24.18-.24.19,0,0,.46.05.11-.12-.24-.11-.48-.17-.74-.13-.36.06-.67.45-1.04.3-.26-.1-.7-.52-.77-.8v.4l.03-.1-.19.33c.17-.21.64-.35.9-.47.3-.14.6-.28.91-.39.64-.23,1.29-.33,1.96-.37,1.39-.08,2.76-.07,4.04-.68.37-.17.46-.7.27-1.03-.22-.37-.66-.44-1.03-.27h0Z"/>
    </g>
  </g>
</svg>