<?xml version="1.0" encoding="UTF-8"?>
<svg id="Layer_2" data-name="Layer 2" xmlns="http://www.w3.org/2000/svg" viewBox="0 0 37.89 29.66">
  <defs>
    <style>
      .cls-1 {
        fill: #1a1a1a;
      }
    </style>
  </defs>
  <g id="Layer_1-2" data-name="Layer 1">
    <g>
      <path class="cls-1" d="M18.86.2c-2.29-.42-4.96-.19-7.11.7-1.92.8-4.62,2.55-4.22,5,.07.45.24.89.54,1.24.5.59.38.78.24,1.57-.09.55-.05,1.12.12,1.65.04.13.32.57.29.68-.03.14-.3.18-.39.28-.26.29-.56,1.01-.86,1.2-.44.28-1.57.21-2.08.31-1.66.3-3.28.75-4.87,1.32-.57.21-.69.8-.33,1.25,1.46,1.88.98,4.57,1.31,6.79.13.83.36,1.57,1.15,1.98,1.1.58,1.48,1.54,2.3,2.43,1.35,1.47,3.35,2.29,5.34,1.95,1.47-.25,4.04-1.57,3.3-3.44-.21-.54-1.06-.82-1.37-.18-.99,2.02,1.34,2.78,2.55,3.82,1.01.88,2.78,1.53,3.56-.02l-.85.34c2.82.69,5.69.69,8.52.01l-.92-.52c.4,1.38,2.17,1.31,2.9.23.25-.37.34-.79.49-1.2.2-.54.52-.96.79-1.46.43-.8.49-1.52.11-2.34-.41-.88-1.69-.11-1.3.76.65,1.44,2.67,1.49,3.42.11.88-1.62-.49-3.07-2.06-3.27-.64-.08-1,.88-.53,1.28.93.79,1.96,1.19,3.2,1.15.47-.02.88-.47.72-.95-.51-1.59-1.14-3.13-1.91-4.62l-.27,1.03c.76-.56,1.21-1.21,1.43-2.14.19-.83.17-.76.94-1.18.47-.26.91-.55,1.33-.88,1.8-1.42,3.1-3.5,3.43-5.78.13-.87.33-1.93-.56-2.44s-2.29.2-2.95-.39c-.3-.27-.3-.69-.6-.97-.37-.34-.87-.27-1.28-.5-.85-.48-.19-1.19-.17-1.89.02-.44-.14-.69-.41-1.01-.2-.24-.65-.29-.91-.12-1.77,1.14-4.1.34-5.89,1.57l1.1.45-.82-2.07c-.24-.6-1-.75-1.37-.18-.04.06-.87-.75-.95-.82-.34-.26-.67-.42-1.08-.51-1.03-.23-2.18-.17-3.24-.23-.96-.06-.96,1.44,0,1.5.84.05,1.7.03,2.53.15.92.13,1.09.7,1.8,1.13.81.48,1.72.32,2.23-.46l-1.37-.18.82,2.07c.16.41.66.75,1.1.45,1.73-1.2,4.08-.41,5.89-1.57l-.91-.12s-.36.9-.37,1.08c-.02.35.05.66.2.98.17.35.45.66.77.89s.9.29,1.18.53c.2.17.24.57.42.8.21.27.51.46.83.58.93.34,2.13-.27,2.93.34l-.37-.65c.1,2.36-.96,4.57-2.77,6.08-.74.61-1.79.88-2.46,1.53-.8.77-.24,1.95-1.22,2.68-.34.25-.47.63-.27,1.03.7,1.38,1.29,2.79,1.76,4.26l.72-.95c-.83.03-1.5-.17-2.13-.71l-.53,1.28c.67.05.81.31.44.79-.07.62-.24.66-.51.12l-1.3.76c.3.64-.58,1.48-.83,2.03-.12.26-.19.53-.28.79-.03.07-.43.84-.44.79-.12-.4-.52-.62-.92-.52-2.57.62-5.15.61-7.72-.01-.31-.07-.7.04-.85.34-.36.72-1.59-.65-1.94-.9-.29-.21-1.83-.86-1.58-1.38l-1.37-.18c.43,1.08-2.13,1.61-2.7,1.63-.87.02-1.72-.27-2.44-.74-1.36-.89-1.82-2.51-3.19-3.36-.87-.54-.87-1.16-.94-2.16-.06-.88-.08-1.77-.17-2.65-.16-1.45-.54-2.71-1.44-3.87l-.33,1.25c1.37-.49,2.76-.9,4.19-1.19.99-.2,2.57-.08,3.4-.73.34-.27.45-.67.71-1,.28-.36.72-.52.94-.93.53-.98-.61-1.91-.34-2.98s.5-1.41-.24-2.26c-.61-.7-.81-1.23-.23-2.1.4-.61,1.06-1.07,1.67-1.45,2.09-1.3,5-1.76,7.43-1.31.94.17,1.35-1.27.4-1.45h0Z"/>
      <path class="cls-1" d="M28.04,7.38c.03-.07.14-.1-.04-.04h-.4s.19.12.24.17c.03.02.15.2.11.07.01.04-.06.36-.06.33-.01.17,0,.33.06.49.14.34.45.57.81.58.12,0,.25,0,.37-.04.09-.04.18-.08.27-.11.22-.08.12-.13-.3-.14-.04.03-.04,0-.08.16-.04.14-.1.28-.15.42-.12.36-.2.74-.13,1.12.11.62.61,1.21,1.27,1.24.31.02.6-.08.86-.27.11-.08.22-.17.31-.27.18-.23.03,0,0-.03.07.07-.23-.12-.14-.11-.03,0-.15.2-.21.28-.15.21-.32.41-.49.6-.39.43-.81.84-1.27,1.19-.4.31-1.11.84-1.48.94h.4c.18.24.23.26.15.05-.03-.09-.05-.19-.07-.28-.04-.19-.07-.38-.12-.57-.08-.32-.18-.65-.35-.93-.19-.31-.45-.6-.76-.79-.12-.07-.26-.13-.39-.17-.1-.03-.21-.05-.32-.05-.14-.03-.09.02.14.16.04-.02-.04-.71-.05-.82-.02-.39-.03-.78-.33-1.08-.24-.24-.59-.31-.92-.32-.26,0-.78,0-.91-.12l.19.33-.04-.09v.4c.02-.14.19-.37.28-.52.06-.11.18-.42.28-.48.09-.05.29.02.38.04.24.05.47.1.71.12.94.08,1.99-.45,2.15-1.45.06-.4-.1-.81-.52-.92-.35-.1-.86.12-.92.52-.09.59-.87.3-1.26.24-.84-.14-1.48.13-1.92.87-.36.6-.99,1.41-.35,2.05.26.26.68.39,1.03.46.21.04.43.07.65.07.09,0,.17,0,.26,0,.14,0,.14,0,0,0l-.27-.27c-.08-.1,0-.13,0,.03,0,.1,0,.19.01.29,0,.17.02.33.02.5.02.36.06.71.28,1.01.11.16.26.28.44.36s.36.07.53.13c.2.07.31.25.39.44.29.68.15,1.68.85,2.13s1.42-.14,1.98-.51c.61-.4,1.19-.86,1.71-1.37s1.07-1.07,1.4-1.7c.36-.69.24-1.55-.48-1.95-.3-.16-.67-.23-1-.14-.14.04-.28.1-.4.18-.06.04-.41.28-.42.37l-.04.04c.06-.04.12-.05.18-.01.27-.06.01.06.07-.06.06-.15.08-.35.14-.51.14-.41.29-.82.2-1.26s-.39-.83-.82-.97c-.19-.06-.41-.07-.6-.03-.1.02-.18.06-.27.1l-.1.04c-.13.06-.13.06.02,0l.38.1-.08-.04.27.27-.05-.08.1.38c-.02-.16.05-.31.05-.48,0-.2-.03-.39-.11-.57-.17-.4-.49-.69-.84-.94-.86-.61-1.57.03-1.91.85-.16.37.17.83.52.92.43.12.77-.15.92-.52h0Z"/>
      <path class="cls-1" d="M21.25,3.94l.14-.07h.4c.07.01.14.21-.01-.07-.04-.07-.09-.13-.13-.19-.11-.16-.23-.31-.35-.46-.27-.31-.59-.6-.96-.79-.83-.42-1.76-.26-2.55.2-.11.06-.47.24-.51.35-.06.18.12-.07.15.07-.01-.05-.1-.1-.13-.14-.22-.33-.6-.59-.97-.72-.74-.28-1.72-.24-2.48-.09-.39.08-.75.3-1.15.29-.43-.02-.78.02-1.14.29-.58.43-1.12,1.31-1.06,2.04.03.36.2.7.5.91.08.06.18.13.28.15.36.06-.27-.21-.15-.27-.07.03-.15.61-.16.7-.08.45-.11.9.06,1.32.06.16.2.3.26.46.07.19.03.39.14.58.57,1.01,1.81.32,2.35-.32.63-.74.81-1.72,1.39-2.48.25-.32.31-.75,0-1.06-.26-.26-.81-.32-1.06,0-.4.52-.66,1.07-.94,1.66-.11.24-.23.49-.39.71-.08.12-.18.24-.29.33-.09.08-.28.1-.15.15l.45.34c-.04-.05-.07-.35-.12-.46-.06-.16-.19-.28-.24-.44-.13-.35.08-.77.14-1.11s.12-.69-.06-1.01c-.09-.16-.24-.29-.4-.38-.37-.21-.09,0-.11.02.11-.19.23-.57.44-.66.11-.05.3.03.41.02.17,0,.35-.03.51-.07.41-.11.74-.28,1.18-.3.34-.02.73-.05,1.06.02.62.12.82.83,1.46.97.81.17,1.25-.61,1.97-.79.67-.16,1.11.42,1.45.91.41.59,1.21,1.2,1.83.45s-.44-1.81-1.06-1.06h0Z"/>
      <path class="cls-1" d="M8.19,14.82c-.73.47-1.56.72-2.44.67-.79-.04-1.68-.21-2.19.57-.55.85.01,1.74.13,2.62.05.42,0,.85.14,1.26s.45.73.64,1.13c.17.35.25.73.48,1.05.27.39.69.63.96,1.02.45.65.59,1.73,1.41,2.02.87.31,1.79-.21,2.2-.99s.39-1.89.1-2.73c-.18-.51-.47-.94-.75-1.39-.24-.39-.49-.83-.34-1.3s.47-.88.64-1.35.26-.99.35-1.5c.07-.4-.1-.81-.52-.92-.36-.1-.86.12-.92.52-.12.74-.28,1.41-.63,2.07-.38.71-.59,1.42-.34,2.22s.79,1.33,1.07,2.05c.19.48.34,1.47-.14,1.84-.05.03-.12.09-.18.08.13.02-.04-.22-.08-.3-.15-.33-.3-.66-.49-.97s-.4-.58-.65-.81c-.27-.25-.47-.4-.61-.75-.13-.32-.24-.63-.43-.92-.21-.3-.35-.51-.38-.88-.05-.76-.21-1.47-.39-2.21-.02-.07-.09-.02,0-.01.17.02.34.01.51.03.39.04.77.06,1.16.01.88-.09,1.71-.38,2.45-.86.81-.52.06-1.82-.76-1.3h0Z"/>
      <path class="cls-1" d="M25.64,18.6c.16.25.31.5.43.78.05.12.09.25.13.37l.04.14c.05.15.06.19.02.11l.19-.33c-.15.14-.56.13-.74.17-.26.06-.48.17-.64.41-.3.46-.22,1.09-.09,1.6.07.28.13.59.24.86l.03.14c.04-.09.07-.19.11-.28-.01,0-.12.06-.15.09-.5.34-.69.94-.32,1.45.21.3.59.43.33.84s-.82.5-1.26.52c-.28.01-.57-.01-.85.05s-.45.22-.69.35c-.46.26-1.12.29-1.63.41-.94.21-.54,1.66.4,1.45.42-.09.85-.18,1.27-.28.34-.08.57-.24.88-.39.27-.13.67-.07,1-.11.39-.05.76-.13,1.12-.3.65-.3,1.19-.91,1.32-1.62.15-.81-.24-1.34-.77-1.89l.19.33v.02c-.05.13-.08.25-.11.38-.15.11-.16.13-.05.05.05-.03.1-.06.16-.1.1-.07.2-.15.28-.23.22-.25.29-.56.25-.88s-.13-.64-.22-.96c-.04-.15-.21-.62-.14-.72l-.27.27c.08-.04.34-.04.45-.07.2-.05.41-.12.6-.21.38-.19.63-.54.63-.97,0-.75-.44-1.57-.84-2.18-.53-.81-1.82-.05-1.3.76h0Z"/>
      <path class="cls-1" d="M14.4,9.31c-.72.29-1.44.56-2.15.87-.56.25-1.06.67-1.11,1.33-.02.27.04.53.15.77.08.17.33.45.34.63,0,.14-.24.37-.36.53-.22.29-.44.57-.6.9-.31.64-.34,1.24-.19,1.92.16.75-.02,1.48,0,2.24.02.57.05,1.4.55,1.75.32.23,1.1.52.62,1.05-.64.72.42,1.78,1.06,1.06.5-.56.71-1.29.46-2.02-.11-.33-.31-.63-.56-.86s-.57-.33-.83-.53l.34.45c-.33-.93-.01-1.89-.1-2.84-.04-.46-.26-.92-.12-1.37s.54-.85.83-1.24c.56-.76.39-1.35,0-2.11-.04-.06-.07-.12-.1-.19-.03-.11-.03-.1,0,.02.11-.14.43-.21.58-.27.53-.21,1.05-.42,1.58-.64.88-.36.5-1.81-.4-1.45h0Z"/>
      <path class="cls-1" d="M15.16,24.75c.33.68,1.13,1.16,1.89.94.37-.1.71-.34.9-.68.11-.19.17-.39.18-.6,0-.07.01-.14,0-.21-.02-.38-.01-.06,0-.09l-.27.27c.13-.09.46.02.59.09.4.19.63.53,1.12.51.81-.02,1.54-.59,2.13-1.08.25-.21.5-.43.71-.68.28-.35.4-.74.5-1.17.18-.82.49-1.62.32-2.47-.16-.8-.79-1.5-1.63-1.58s-1.49.49-1.96,1.12c-.17.23-.33.5-.56.67-.28.21-.66.22-.99.21-.79-.03-1.66-.28-2.38.17-.82.51-1.06,1.46-1.08,2.36-.02.78,0,1.72.67,2.25.32.25.75.31,1.06,0,.26-.26.32-.81,0-1.06-.36-.28-.26-.99-.22-1.44.02-.23.06-.51.21-.7.18-.23.44-.19.71-.17.73.05,1.47.18,2.19-.05.79-.25,1.18-.82,1.67-1.44.22-.28.59-.68.81-.2.26.55-.12,1.32-.24,1.86-.06.29-.09.55-.3.77-.22.23-.48.45-.73.65-.22.17-.47.34-.74.43-.03.01-.22.05-.22.06.04-.1.37.23.15-.02-.13-.15-.35-.27-.53-.35-.69-.33-1.89-.49-2.33.31-.11.2-.15.43-.16.66,0,.03,0,.2,0,.21-.01-.01.05-.09.05-.09.03,0,.07.16-.07,0-.07-.08-.11-.13-.17-.24-.18-.36-.7-.46-1.03-.27-.37.22-.45.66-.27,1.03h0Z"/>
      <path class="cls-1" d="M20.4,7.56c-1.14-.53-2.22.09-3.09.85-.38.33-.68.79-.72,1.31-.02.26.04.5.14.74.07.18,0,.21.08,0-.08.17-.2.34-.3.5-.28.46-.55.91-.83,1.37-.33.54-.74,1.16-.41,1.8.45.89,1.78.86,2.6.59.46-.15.88-.41,1.19-.79.25-.31.41-.71.82-.84.94-.29,1.12.79,1.37,1.41.44,1.06,1.42,1.37,2.5,1.28,1.44-.12,1.37-1.65.92-2.68s-1.11-2.19-1.99-2.92c-.2-.16-.45-.3-.62-.5-.15-.18-.17-.41-.24-.63-.19-.6-.55-1.14-1.2-1.29-.94-.22-1.34,1.23-.4,1.45.18.04.22.53.28.69.15.43.39.78.74,1.06.64.52,1.1,1.03,1.52,1.74.19.33.4.67.55,1.02.07.16.13.34.15.52s-.1.31.14.14c.27-.19.02-.09-.11-.08-.24,0-.57.04-.74-.15-.2-.21-.24-.59-.34-.86-.28-.77-.8-1.37-1.6-1.63-.75-.24-1.59-.05-2.2.45-.29.24-.45.55-.68.84-.19.24-.45.35-.75.4-.13.02-.26.03-.4.02-.06,0-.13,0-.18,0-.25.01-.05-.08-.05.02l.05.12c.03.16.07.15.12,0,.06-.04.14-.23.17-.27.14-.23.28-.46.41-.68.46-.77,1.23-1.6.84-2.54-.15-.36.23-.56.5-.75.23-.16.68-.54.99-.4.37.17.81.1,1.03-.27.19-.32.1-.85-.27-1.03h0Z"/>
      <path class="cls-1" d="M14.2,17.8c1.03.99,2.09.57,3.25.09.64-.27,1.31-.49,1.97-.71.31-.1.53-.21.85-.14.23.06.46.22.69.29,1.12.35,2.43.46,3.58.19.98-.23,2.43-1.01,3.29-.12.67.69,1.73-.37,1.06-1.06-.76-.78-1.83-.94-2.87-.77-.64.11-1.25.36-1.89.5s-1.22.11-1.85,0c-.59-.09-1.06-.3-1.61-.49s-1.09-.04-1.64.14c-.66.22-1.32.45-1.97.71-.53.21-1.29.77-1.79.29-.7-.67-1.76.39-1.06,1.06h0Z"/>
    </g>
  </g>
</svg>