<?xml version="1.0" encoding="UTF-8"?>
<svg id="Layer_2" data-name="Layer 2" xmlns="http://www.w3.org/2000/svg" viewBox="0 0 41.03 31.22">
  <defs>
    <style>
      .cls-1 {
        fill: #1a1a1a;
      }
    </style>
  </defs>
  <g id="Layer_1-2" data-name="Layer 1">
    <g>
      <path class="cls-1" d="M18.05,1.32c-3.1-2.81-7.25-.58-10.01,1.58-1.66,1.31-2.58,2.76-3.19,4.76-.69,2.25-2.32,4.17-3.26,6.34C.83,15.76-.18,17.96.03,19.92s1.97,2.57,2.96,4.03c.82,1.2,1.16,2.89,2.77,3.3.96.24,1.7-.24,2.6-.39.69-.12.78.06,1.17.48.29.31.58.56.99.71.69.25,1.45.15,2.13-.07.26-.08.93-.53,1.15-.49.38.07.59.69.84.95,1.18,1.25,2.83.57,4.27,1.02.85.27,1.34,1.09,2.14,1.46.98.46,2.18.29,3.22.16,2.02-.25,3.97-.82,5.81-1.68,1.58-.74,3.66-1.78,4.39-3.49.31-.73.26-1.49.02-2.24-.14-.45-.5-1.01-.46-1.5.05-.78.83-.98,1.47-1.25,1.71-.72,3.41-1.58,4.48-3.16.99-1.45,1.31-3.36.85-5.05-.51-1.87-1.91-3.4-3.7-4.12-1.12-.45-2.32-.59-3.46-.96-1.36-.44-2.36-1.39-3.55-2.12-2.11-1.29-4.3-1.51-6.71-1.45-1.77.05-2.15-.91-3.25-2-.68-.67-1.46-.46-2.25-.86-.86-.44-1.62.85-.76,1.3.57.29,1.23.26,1.76.54.67.34,1.08,1.24,1.66,1.73,1.41,1.18,3.1.63,4.77.76,2.11.15,3.77,1.09,5.46,2.29,1.54,1.09,3.15,1.4,4.93,1.9,4.14,1.17,5.14,6.29,1.43,8.72-.73.48-1.54.83-2.34,1.17-.6.25-1.31.45-1.77.93-1.22,1.28-.02,2.64.1,4.02.17,1.92-2.87,3.15-4.32,3.77-1.77.76-3.69,1.24-5.61,1.36-.7.05-1.32.07-1.93-.37-.28-.2-.52-.48-.79-.7-.55-.42-1.13-.62-1.81-.71-.6-.08-1.2-.04-1.8-.1-.98-.09-1.16-.58-1.74-1.26-1.04-1.23-2.02-.15-3.24.08-1.11.21-1.23-.56-2.01-1.07-.52-.34-1.16-.34-1.75-.21-.97.22-1.97.87-2.73-.09-.46-.58-.68-1.31-1.07-1.93-.78-1.28-2.66-2.05-2.83-3.61-.13-1.14.4-2.4.78-3.46.4-1.14.89-2.25,1.45-3.32.94-1.8,2.06-3.33,2.66-5.29.69-2.26,2.45-3.65,4.4-4.85,1.82-1.12,4.35-2.06,6.17-.41.71.65,1.78-.41,1.06-1.06h0Z"/>
      <path class="cls-1" d="M33.9,12.13c.54-.18,1.16-.07,1.52.4.1.14.18.33.08.46-.1.14-.35.23-.48.35-.17.16-.29.35-.38.57-.13.35-.12.71-.1,1.08,0,.14.02.29-.01.43-.04.2-.15.38-.22.57-.14.37-.32.91-.27,1.31.04.28,0-.24.08-.05,0,0-.25.12-.27.13-.16.08-.41.22-.53.24h.4l-.08-.02.33.19-.05-.05.19.33c-.01.07-.02.05-.02-.04,0-.06-.02-.13-.03-.19-.03-.16-.07-.31-.15-.45-.12-.22-.29-.41-.5-.55s-.46-.23-.71-.25c-.1,0-.34-.05-.43,0-.11.06,0-.02.03.07.05.11-.03-.11-.01-.01-.02-.12-.03-.02.01-.16.05-.19.15-.35.24-.52.26-.51.46-1.11.14-1.65-.22-.37-.59-.56-.95-.77-.15-.09-.31-.21-.16-.35.08-.07.21-.06.37-.07.31-.02.58-.07.87-.2.46-.21.83-.56,1.17-.92.66-.7-.4-1.76-1.06-1.06-.22.23-.47.54-.78.65-.16.05-.32.03-.49.05-.27.02-.52.08-.76.21-.83.47-1.11,1.53-.62,2.35.19.32.5.53.82.7.1.05.33.16.32.2,0-.03-.23-.14-.06-.15.02,0-.1.25-.11.26-.39.75-.71,1.62-.12,2.37.3.39.73.52,1.21.52,0,0,.3,0,.24-.01,0,0,.01-.04.01-.04.04.05.02.3.04.37.16.63.81.82,1.35.58.39-.17.91-.35,1.21-.67.38-.4.28-.86.39-1.35.09-.44.34-.83.42-1.26.07-.38,0-.74.02-1.12,0-.09-.01-.1.03-.18-.04.08-.09.08.05,0,.21-.11.4-.27.55-.45.69-.84.36-2.04-.41-2.71s-1.81-.86-2.74-.55-.52,1.75.4,1.45h0Z"/>
      <path class="cls-1" d="M14.07,5.22c.97-.11,2.57-.12,3,.92.39.95.95,1.51,1.97,1.76,2.39.59,4.87-.62,7.18.5.52.25,1.06.55,1.52.9.22.17.38.21.29.48-.07.22-.44.42-.66.41-.46-.03-.98-.58-1.41-.76-.51-.21-1.05-.33-1.6-.4s-1.13-.1-1.68.06-.96.5-1.43.77c-1.02.57-2.21.69-3.35.79-.95.09-.96,1.59,0,1.5,1.02-.1,2.08-.18,3.05-.53,1.06-.37,1.87-1.23,3.04-1.13.57.05,1.16.17,1.67.44.42.23.75.56,1.22.68.87.23,1.82-.2,2.33-.92,1.39-1.97-1.5-3.36-2.98-3.93-1.04-.4-2.13-.45-3.23-.37-1.16.08-2.4.32-3.56.04-.62-.15-.8-.42-1.04-1-.18-.45-.43-.81-.83-1.08-.98-.64-2.36-.78-3.5-.65-.95.1-.96,1.61,0,1.5h0Z"/>
      <path class="cls-1" d="M22.98,27.76c-.1-.94-.39-1.85-1.07-2.55s-1.47-.83-2.4-.8c-.69.02-1.13-.1-1.6-.62-.28-.31-.5-.62-.83-.88-.67-.52-1.72-.94-2.57-.97-.98-.04-1.56.59-2.3,1.11-.64.45-.94.17-1.51-.19-.35-.22-.72-.39-1.13-.47-.88-.18-1.8.01-2.59.41s-1.37,1.22-2.17,1.58c-.88.4-.11,1.7.76,1.3,1.33-.61,2.27-2.44,4-1.72.65.27,1.12.84,1.87.89s1.39-.38,1.96-.84c.34-.28.67-.6,1.14-.56.37.04.82.23,1.16.39.71.33,1.02,1.04,1.63,1.5.73.55,1.44.56,2.32.57,1.12.01,1.69.75,1.81,1.86.1.95,1.6.96,1.5,0h0Z"/>
      <path class="cls-1" d="M9.6,6.51c-1.05.82-1.89,1.86-2.64,2.95s-1.5,2.26-1.66,3.6c-.15,1.2.43,2.58,1.74,2.79s2.33-.71,2.8-1.8c.3-.69.4-1.42.58-2.14.13-.54.32-1.17.8-1.5.33-.23.49-.66.27-1.03-.19-.33-.69-.5-1.03-.27-1.24.87-1.42,2.25-1.76,3.61-.13.51-.29,1.09-.73,1.43-.31.24-.77.37-1.03,0-.31-.46-.17-1.12,0-1.61.21-.63.58-1.2.94-1.76.77-1.2,1.65-2.33,2.78-3.21.32-.25.26-.8,0-1.06-.31-.31-.74-.25-1.06,0h0Z"/>
      <path class="cls-1" d="M31.55,24c.08-.47.15-.96,0-1.42-.08-.24-.22-.48-.41-.65-.18-.15,0,.15-.05-.07-.03-.12-.09-.26-.14-.37-.24-.49-.72-.79-1.26-.76s-1,.38-1.36.79h1.06c-.16-.17-.23-.43-.41-.6-.26-.26-.64-.39-1-.31-.61.13-1.06.78-1.37,1.28l1.18-.15c-.44-.38-1.02-.83-1.63-.81-.53.02-1.06.5-1.39.9-.17.21-.32.44-.39.7-.02.06-.03.13-.04.2-.03.12-.02.13.05,0,.1-.13.07-.12-.09.03-.07.06-.13.13-.18.21-.14.21-.22.46-.22.71,0,.13.03.25.07.37.04.11.16.27.18.36v-.4c-.07.33-.19.62-.16.98s.15.67.34.96c.13.2.19.44.32.65.23.35.57.44.96.48l-.38-.1.08.04-.27-.27.04.06-.1-.38c.02-.07.02-.05,0,.04-.02.1-.04.2-.05.3-.01.16,0,.33.05.49.09.31.27.6.53.8.32.24.75.31,1.11.09.15-.09.27-.23.4-.35l.18-.17c.1-.1.12-.12.07-.05l-.38.1h.07c-.13-.04-.25-.07-.38-.1-.01-.01-.02-.03-.03-.04-.04-.06,0-.01.11.14.06.07.12.13.2.19.18.14.39.23.62.27.55.09.94-.16,1.46-.26.39-.07.69.17,1.05.25.28.07.58.06.84-.07.17-.09.37-.33.46-.38.07-.04.42-.12.58-.19.18-.08.36-.2.5-.34.36-.36.5-.87.4-1.37-.09-.43-.37-.81-.71-1.08-.08-.07-.19-.17-.29-.21-.08-.06-.07-.04.02.06l-.02-.11c0-.21-.06-.43-.08-.64-.05-.4-.31-.75-.75-.75-.37,0-.8.35-.75.75.06.47.05,1.02.27,1.44.18.35.54.46.78.75.15.18-.07.18-.26.23-.24.07-.46.15-.65.32-.02.02-.23.2-.23.24l.23-.1s-.08-.03-.13-.04c-.36-.25-.93-.29-1.35-.25-.25.03-.47.09-.7.17-.08.03-.33.13-.38.13.04,0-.16-.2-.22-.25-.18-.17-.42-.25-.67-.25-.53.01-.77.56-1.1.71l.38-.1h-.11c.13.02.25.06.38.09-.04-.03.05-.33.05-.41,0-.2-.07-.4-.2-.56-.08-.1-.17-.17-.29-.23-.03-.02-.37-.14-.38-.1.01-.08.41.46.24.04-.07-.19-.19-.34-.29-.52-.15-.26-.02-.42.03-.69.05-.23.01-.47-.1-.68s-.15-.22-.14.06l-.07.08c.06-.05.13-.1.19-.15.07-.06.13-.14.18-.22.09-.14.12-.29.15-.45.05-.28.23-.37.42-.57,0,0,.11-.08.11-.09h-.19c.06.02.11.05.17.08.15.09.29.18.42.29.37.32.91.28,1.18-.15.07-.12.15-.24.24-.35.05-.06.11-.12.17-.18.13-.11.12-.12-.04-.02l-.38-.1c.05.02.09.12.13.19.08.15.18.28.3.4.27.28.8.3,1.06,0,.02-.02.39-.4.4-.36-.06-.07-.12-.09-.18-.06.01.01.02.03.02.05,0,.1.1.33.14.41.08.16.32.33.37.45.06.14,0,.37-.02.53-.07.4.11.81.52.92.36.1.85-.12.92-.52h0Z"/>
      <path class="cls-1" d="M13.76,14.62l.03-.17,1.03-.27c-.3-.18-.49-.4-.86-.45-.32-.05-.63.03-.9.19-.3.17-.5.44-.68.73-.06.09-.1.24-.18.31-.09.09-.32.14-.44.23-.27.21-.41.49-.56.79s-.31.3-.6.49c-.22.14-.4.49-.61.59-.29.14-.65.05-.96.25-.14.09-.44.49-.47.5-.2.08-.6-.07-.82-.06-.14,0-.29.04-.43.08-.6.19.18,0,.24.32-.05-.3-.62-.48-.86-.51-.64-.06-1.09.41-1.52.81-.5.47-1.16.94-1.34,1.65-.14.58.11,1.23.65,1.5.32.16.66.16,1,.1s.83-.32,1.18-.28c.22.02.42.23.63.34.26.13.53.19.82.13.15-.03.28-.1.42-.15.21-.08.28-.08.52-.09.39-.02.7-.13,1.04-.32.53-.3,1.28-.04,1.9-.15.34-.06.66-.16.97-.3.34-.16.6-.43.98-.36.32.05.6.17.94.15.17,0,.32-.06.48-.1.28-.08-.29-.23.15,0,.7.36,1.3.08,1.74-.54s.7-1.39.62-2.13c-.04-.35-.19-.69-.5-.88-.28-.17-.64-.05-.79-.39-.14-.3.1-.49.16-.83.06-.37-.02-.72-.23-1.03-.46-.68-1.28-.78-2.04-.75-.96.05-.97,1.55,0,1.5.15,0,.66-.09.76.05.04.06-.12.32-.17.46-.18.55,0,1.03.32,1.48.25.35.56.67.99.79.22.06.35.16.15-.11-.23-.31-.12-.06-.14.13-.04.3-.24.52-.3.79l-.11.15.36.04c0-.07-.27-.17-.33-.19-.24-.1-.48-.1-.74-.06-.28.05-.44.13-.73.08-.32-.06-.61-.17-.94-.14-.54.04-.91.41-1.39.6-.57.23-1.06.12-1.64.09-.28-.02-.51.03-.77.13-.2.08-.39.26-.59.33-.24.08-.51,0-.76.05-.14.03-.25.06-.38.12-.07.03-.14.07-.21.12-.13.07-.08.08.14.03-.22-.29-.83-.52-1.17-.53-.26-.01-.53.07-.78.13-.15.04-.31.08-.46.11-.13.03-.47.02-.35.18.11.15.34-.2.46-.31.18-.17.36-.33.54-.5.04-.04.28-.21.31-.29l.12-.1-.35-.14c-.07.19.54.43.65.45.29.05.46-.05.72-.13.21-.07.33-.05.56-.03.49.05.97-.02,1.33-.39.24-.24.2-.28.53-.32s.59-.12.84-.34c.18-.15.28-.37.48-.5.23-.15.48-.16.69-.35.22-.2.31-.47.43-.73.13-.3.18-.26.44-.41s.44-.42.6-.68c.22-.36.12-.29.48-.08s.81.07,1.03-.27c.12-.19.16-.37.17-.59.05-.96-1.45-.96-1.5,0h0Z"/>
      <path class="cls-1" d="M22.65,14.72c.78-.23,1.57-.28,2.38-.28.32,0,.65-.02.96.05.05,0,.1.02.13.05-.03-.04-.04-.08-.02-.14-.03,0-.18.36-.2.4-.19.38-.44.78-.32,1.23s.53.63.9.79c.48.21,1.46.41,1.64.98.16.49-.82.49-1.12.54-.75.12-1.51.19-2.26.34s-1.52.38-2.13.83c-.76.56-.68,1.32-.73,2.15l.1-.38-.05.11.27-.27c-.18.12-.56.09-.78.11-.31.03-.62.04-.94.05-.96.02-.97,1.53,0,1.5.7-.02,1.52-.02,2.19-.22.41-.13.67-.48.7-.9.02-.24-.09-.65.03-.87.1-.17.46-.29.64-.36.31-.12.63-.2.95-.28.65-.15,1.31-.22,1.97-.31.61-.08,1.29-.13,1.83-.45.59-.35.89-.98.82-1.65-.08-.71-.52-1.26-1.11-1.64-.55-.36-1.23-.47-1.78-.83l.27.27-.07-.09.1.38c0-.18.3-.58.37-.75.13-.29.21-.59.14-.91-.14-.64-.73-1.06-1.35-1.17s-1.26-.08-1.88-.05c-.7.03-1.41.12-2.09.32-.92.27-.53,1.72.4,1.45h0Z"/>
    </g>
  </g>
</svg>