<?xml version="1.0" encoding="UTF-8"?>
<svg id="Layer_2" data-name="Layer 2" xmlns="http://www.w3.org/2000/svg" viewBox="0 0 38.51 34.83">
  <defs>
    <style>
      .cls-1 {
        fill: #1a1a1a;
      }
    </style>
  </defs>
  <g id="Layer_1-2" data-name="Layer 1">
    <g>
      <path class="cls-1" d="M16.21.63C12.78-.66,8.27.06,5.5,2.53c-.72.65-1.21,1.49-1.85,2.21-.61.68-1.18,1.25-1.55,2.1-.87,2.01-1.51,4.29-1.87,6.44s-.31,4.14.3,6.19c.51,1.69.13,3.36,1.73,4.46.37.26.84.45,1.16.78.34.37.45.85.71,1.26.32.5.81.92,1.41,1,.88.11,1.28-.5,1.84-1.04.88-.84,2.16-.77,3.29-.73l-.53-1.28c-.82.67-1.17,1.82-.64,2.79.26.47.73.86,1.24,1.03.2.07.36.06.55.1.65.16.93.42,1.37.91.76.84,1.79.81,2.76,1.22,1.37.58.52,2.42,1.42,3.46.81.94,2.33.98,3.46,1.07,1.66.14,3.46-.31,5.04.18,1.16.36,2.15-.02,3.09-.73,1.24-.94,1.75-1.69,1.93-3.2.12-1.05.54-1.42,1.51-1.77.69-.25,1.41-.43,2.09-.7,1.26-.5,2.62-1.12,3.46-2.22,1.56-2.05,1.41-4.99-.23-6.9-.49-.57-1.21-1.12-1.44-1.87s.11-1.47.38-2.15c.66-1.65.63-2.9.49-4.64-.07-.85.06-1.54.21-2.38.08-.49.07-.98-.26-1.38-.26-.31-.62-.44-1.02-.49-.29-.04-.71.11-.98.01-.59-.21-.6-.89-.68-1.42-.18-1.18-.66-2.12-1.82-2.59-1.68-.67-3.52.22-5.15-.55-.68-.32-1.28-.79-2.02-1-.81-.23-1.61-.16-2.43-.02-2.15.36-4.12.47-6.27-.07-.94-.23-1.34,1.21-.4,1.45,1.22.31,2.46.49,3.72.48,1.52-.01,3.33-.77,4.79-.45,1.12.25,1.97,1.14,3.12,1.36,1.27.24,2.68-.31,3.91.13,1.33.48.9,1.91,1.42,2.96.18.36.41.67.75.9.49.33.86.15,1.38.31.46.14.31-.06.35.46.02.19-.12.59-.14.81-.07.64-.01,1.26.05,1.89.07.67.16,1.34.08,2.01-.09.78-.44,1.44-.71,2.17-.36.96-.51,1.92-.11,2.9s1.24,1.61,1.86,2.42c.93,1.2.92,2.91.25,4.24s-2.31,1.96-3.61,2.42c-1.85.65-3.81,1.03-4.04,3.31-.09.92-.19,1.4-.91,2.02-.56.49-1.2,1.03-1.99.89-.5-.09-.92-.34-1.44-.37-.76-.03-1.53.12-2.29.14-.94.02-1.88-.03-2.81-.16-1.09-.16-1.58-.42-1.67-1.57-.07-.93-.2-1.76-1.01-2.35-.95-.69-2.37-.48-3.13-1.42-.3-.37-.49-.81-.95-1.03-.2-.1-.41-.1-.61-.16-.15-.02-.3-.03-.44-.01-1-.42-1.15-.87-.44-1.37.54-.44.06-1.26-.53-1.28-1.37-.05-2.88-.03-4,.86-.61.48-.93,1.29-1.46.2-.28-.57-.54-.98-1.03-1.38-.71-.58-1.55-.73-1.75-1.76-.14-.74-.1-1.43-.32-2.18-.57-1.95-.77-3.76-.43-5.78.31-1.83.88-3.62,1.47-5.38.54-1.6,1.78-2.9,2.88-4.17,2.27-2.61,6.68-3.21,9.78-2.05.91.34,1.3-1.11.4-1.45h0Z"/>
      <path class="cls-1" d="M17.42,26.69c.87-1.52.54-3.49-.85-4.58-.62-.49-1.45-.82-2.25-.76-.5.03-.93.3-1.16.76s-.14.91-.3,1.34l.19-.33-.06.07.33-.19-.08.03h.4c.11.09.13.1.07.04-.02-.03-.05-.05-.07-.08-.06-.07-.12-.14-.19-.21-.15-.15-.32-.29-.49-.42-.32-.24-.68-.43-1.06-.56-.84-.28-1.76-.18-2.53.23-.85.46-.09,1.75.76,1.3.78-.42,1.68-.09,2.26.5.41.42.87.91,1.5.53.26-.15.4-.44.46-.73.05-.23.12-.57.11-.81,0-.04.09-.11-.03-.02-.13.1.09.03.17.04.17.02.35.07.51.13.35.14.68.39.91.69.49.66.5,1.57.1,2.27-.48.84.81,1.59,1.3.76h0Z"/>
      <path class="cls-1" d="M19.14,30.27c.69.23,1.41.02,2.02-.33.26-.15.51-.33.78-.45s.53-.11.81-.11c.7,0,1.32-.21,1.73-.8s.4-1.3.39-1.97c0-.35-.01-.7-.02-1.06,0-.02,0-.24,0-.24l-.1.15c-.14.13-.15.18-.02.13.11.04.36-.02.49-.02.54.02,1.1.22,1.44.66s.32.92.14,1.42-.43,1.11-.88,1.45c-.29.22-.57.41-.79.71-.12.16-.21.32-.28.51-.02.05-.18.4-.13.45-.1-.1.5-.2,0-.12-.1.02-.21.07-.31.1-.21.06-.42.13-.63.19-.42.13-.84.26-1.25.38-.92.28-.53,1.73.4,1.45.81-.25,1.66-.46,2.45-.75.35-.13.63-.37.75-.73.11-.33.12-.55.41-.79.27-.21.55-.38.77-.65.24-.29.41-.62.58-.96.34-.73.65-1.47.51-2.3-.24-1.51-1.67-2.44-3.12-2.51-.74-.04-1.73.07-1.91.94-.16.77.09,1.59-.02,2.37-.04.29-.12.48-.4.51-.44.04-.85-.03-1.28.1s-.78.37-1.16.59c-.31.18-.62.37-.98.25-.92-.31-1.31,1.14-.4,1.45h0Z"/>
      <path class="cls-1" d="M32.12,20.85c.32.08.49.14.76.29s.36.25.57.45c.14.13-.02-.05.09.1.06.09,0,.06.03.01.01-.02.03-.08.03-.1-.01.06-.04.06-.08.1-.23.2-.46.41-.65.66-.24.31-.4.67-.41,1.06,0,.17.03.35.08.52.02.04.03.07.04.11.03.09.03.05,0-.14-.02,0-.04.16-.04.18-.15.72.17,1.43.79,1.82.34.21.83.07,1.03-.27.21-.36.08-.81-.27-1.03-.07-.04-.08-.05-.04-.02.04.03.03.02-.03-.03.02.09,0,0-.02-.05-.02-.05-.02-.04,0,.02l-.02-.07c0,.07,0,.08,0,.03,0-.03,0-.07,0-.1,0,.14.02-.03.03-.08.02-.1.04-.2.04-.31,0-.2-.06-.34-.12-.53.03.09,0-.08,0-.03-.01.07.05-.12.01-.04.07-.15.09-.15.22-.27.24-.24.51-.44.69-.74.44-.74.03-1.53-.54-2.04-.52-.46-1.14-.8-1.81-.96-.39-.09-.81.12-.92.52s.13.83.52.92h0Z"/>
      <path class="cls-1" d="M34.22,6.66c-1.2-.28-2.5-.39-3.44.57-.72.73-1.15,2.04-2.42,1.75-.5-.11-.82-.47-1.04-.91-.31-.62-.72-.93-1.44-.93-1.27,0-2.57.47-3.63,1.15l1.13.65c0-.57.23-1.11.69-1.48.42-.34.99-.41,1.49-.56,1.29-.4,1.98-1.31,1.98-2.67,0-.97-1.5-.97-1.5,0,0,.64-.19.99-.81,1.2-.54.18-1.09.28-1.6.54-1.1.56-1.75,1.76-1.75,2.97,0,.55.65.96,1.13.65s1-.57,1.56-.73c.27-.08.56-.14.84-.18.33-.04.46-.11.62.15.58.93,1.33,1.6,2.47,1.68s2.06-.51,2.71-1.38c.27-.36.51-.85.93-1.06.51-.25,1.16-.08,1.68.05.94.22,1.34-1.23.4-1.45h0Z"/>
      <path class="cls-1" d="M13.21,2.92c-1.24-.5-2.92.72-3.85,1.42s-.85,1.66.28,2.07c1.39.5,3.22.33,4.61-.06.68-.19,1.3-.59,1.98-.77.85-.23,1.74.35,2.34.92,1.98,1.88.88,5.74,3.85,6.75.61.21,1.29.25,1.91.08s1.11-.6,1.73-.78c1.52-.43,3.84-.24,5.09.72.77.59,1.51-.72.76-1.3-.93-.71-2.04-.96-3.19-1.03s-2.5-.12-3.59.36c-.67.3-1.22.76-2.01.59-.72-.15-1.15-.72-1.37-1.38-.39-1.17-.39-2.4-.95-3.52-.88-1.74-3.06-3.52-5.11-2.8-1.4.49-2.58,1.03-4.12.99-.37-.01-.78-.14-1.14-.12-.4-.2-.49-.13-.26.2.04.36.19.38.44.06.64-.22,1.47-1.25,2.22-.95.89.36,1.28-1.09.4-1.45h0Z"/>
      <path class="cls-1" d="M4.34,19.38c-.69,1,.03,2.14,1.07,2.49,1.14.38,2.57.38,3.5-.48.46-.43.76-1,1.16-1.48.51-.62,1.2-.94,1.97-1.16.81-.23,1.79-.47,2.6-.18.72.26,1.42.69,2.03,1.14s1.2,1,1.7,1.59c.24.29.5.6.68.93.32.59.26.93.14,1.56-.19.97-.25,2.18.78,2.73,1.14.6,2.25-.33,2.93-1.16,1.1-1.33,2.24-2.26,3.97-2.65.94-.21.54-1.66-.4-1.45-1.17.26-2.26.76-3.2,1.52-.46.37-.85.79-1.22,1.24-.26.33-1.22,1.73-1.5.69-.13-.48.3-1.24.3-1.76,0-.55-.22-1.02-.5-1.49-.61-1.01-1.45-1.9-2.37-2.64s-1.88-1.32-2.95-1.71-2.31-.12-3.4.18-2,.77-2.7,1.61c-.37.44-.63,1.06-1.09,1.41-.41.32-.94.31-1.43.23-.18-.03-.99-.12-.77-.43.55-.8-.75-1.55-1.3-.76h0Z"/>
      <path class="cls-1" d="M7.47,7.24c-.77-.51-1.82-.54-2.59-.02-.35.23-.64.55-.82.93-.1.21-.16.42-.21.64-.06.25-.12.32-.29.5-.66.69-1.23,1.46-1.67,2.31s-.89,1.93.01,2.69c1.37,1.16,3.61,1.47,4.76-.15.24-.33.37-.73.4-1.13.01-.2-.02-.4-.03-.6s-.07-.21.12-.27c.42-.15.83-.38,1.24-.57s.84-.35,1.22-.59c.87-.56,1.31-1.55.76-2.51-.6-1.04-1.83-1.17-2.91-1.12-.96.04-.97,1.54,0,1.5.46-.02,1.36-.14,1.62.38.18.35-.38.56-.64.68-.66.31-1.34.58-1.99.9-.69.35-.96.97-.9,1.71.04.51-.05.88-.54,1.13s-1.04.12-1.5-.1c-.17-.08-.58-.25-.66-.42.02.05.01.05,0,0,0-.06.05-.18.08-.24.06-.16.15-.32.23-.48.3-.6.67-1.16,1.11-1.67.26-.3.58-.56.79-.9s.2-.7.36-1.03c.26-.53.86-.57,1.31-.28.81.54,1.56-.76.76-1.3h0Z"/>
      <path class="cls-1" d="M16.59,7.26c-.36-.2-.76-.38-1.18-.35s-.76.27-1.03.59c-.4.48-.9.81-1.42,1.14-.58.36-1.16.71-1.66,1.17-.25.23-.48.52-.58.86-.13.49.07,1.02.52,1.26.33.18.71.15,1.05.05.33-.1.61-.17.95-.2.37-.03.74-.08,1.09-.22.19-.08.38-.17.57-.26.04-.02.08-.04.12-.05-.02,0,.27-.07.15-.05.06,0,.17.04.08-.04-.07-.05.02.05.04.07.05.08.11.17.18.24.39.37.92.26,1.32-.03.57-.42,1.11-.9,1.45-1.53.4-.73.58-1.77-.02-2.45-.55-.63-1.43-.58-2.18-.45-.4.07-.62.56-.52.92.12.42.52.6.92.52.17-.03.19-.04.39-.04.15,0,.17,0,.27.03.05.02.01.03,0-.01.03.18,0,.3-.05.47-.17.57-.74,1.1-1.26,1.41l.38-.1h-.1c.13.05.25.08.38.12.13.15.15.17.09.06-.05-.08-.1-.15-.16-.22-.08-.08-.17-.16-.27-.23-.23-.14-.49-.22-.76-.23-.5-.03-.95.19-1.39.4-.38.18-.78.17-1.19.22-.27.03-.52.09-.78.18-.07.02-.18.04-.25.07.22-.1.58.42.44.5.13-.08.28-.29.42-.39.15-.12.32-.23.48-.33.35-.23.72-.44,1.07-.67.37-.24.74-.51,1.06-.83.15-.15.27-.35.43-.49-.01.01-.1.04-.1.04.1.05.21.09.32.15.84.48,1.6-.82.76-1.3h0Z"/>
      <path class="cls-1" d="M14.22,13.87c-.71-.52-1.57-.79-2.44-.59s-1.35.83-1.79,1.53l1.18-.15c-.73-.64-1.53-.88-2.33-.2-.63.53-.94,1.27-1.03,2.07l.75-.75c-.55-.03-.94.31-1.17.78-.04.08-.07.18-.13.25-.08.08-.13.03-.03.04-.21-.03-.44-.24-.68-.27-.31-.04-.21-.03-.49-.18-.22-.12-.47-.17-.72-.12-.57.11-.86.57-1,1.09l1.37-.18c-.38-.57-.84-.92-1.55-.81-.28.05-.65.13-.9.28-.23.14-.31.4-.51.55-.77.56-.02,1.87.76,1.3.2-.14.54-.36.62-.61.07-.08.05-.08-.04,0-.14.09-.11.1.1.01l.19-.05c-.08-.08-.06-.06.04.08.35.52,1.2.47,1.37-.18.11-.26-.04-.27-.44-.05.08.07.16.13.25.18.17.09.35.12.53.15.37.04.65.31,1.04.32.38,0,.72-.13,1.01-.37.15-.12.28-.26.38-.42.05-.08.1-.16.13-.25.11-.17.07-.19-.13-.04.44.02.71-.36.75-.75.03-.25.13-.49.28-.69.06-.08.17-.24.25-.27v-.06c.1.05.19.12.27.21.37.32.91.28,1.18-.15.22-.35.44-.74.87-.84.48-.1.93.16,1.3.44.78.57,1.53-.73.76-1.3h0Z"/>
      <path class="cls-1" d="M18.39,14.78c-.19-.07-.12-.09-.03.08.06.11.12.22.2.33.19.26.43.48.72.64.61.34,1.31.38,2,.4l-.65-1.13c-.21.47-.62.77-.95,1.17-.47.56-.72,1.19-.59,1.92.13.7.61,1.19.88,1.81.12.27.16.56.33.82.25.38.66.57,1.11.53.72-.06,1.2-.75,1.64-1.25.53-.61.54-1.41.65-2.17s.3-1.53.29-2.27c-.02-.81-.45-1.43-1.17-1.76-.38-.17-.77-.29-1.16-.41-.35-.11-.65-.27-.97-.44-.75-.38-1.69-.52-2.32.16s.4,1.77,1.06,1.06c.07-.07.06-.06.15-.05.24.03.46.19.67.29.48.25.98.4,1.49.57.33.11.75.19.77.58.03.51-.11,1.04-.18,1.54-.08.55-.1,1.13-.24,1.67-.05.21-.2.32-.34.47-.08.08-.15.16-.22.25-.06.07-.22.2-.24.28,0,0-.03.02-.03.02,0-.02.32.17.35.15-.01,0-.06-.14-.06-.15-.09-.26-.18-.52-.31-.77-.21-.39-.57-.78-.64-1.22-.06-.37.21-.61.46-.87.34-.36.7-.71.91-1.17.23-.51-.04-1.12-.65-1.13-.45,0-1.08.03-1.43-.33-.13-.14-.2-.33-.31-.49-.2-.28-.42-.45-.75-.57-.38-.14-.82.16-.92.52-.11.42.14.78.52.92h0Z"/>
      <path class="cls-1" d="M28.79,14.35c-.74.18-1.45.59-1.94,1.17-.24.28-.49.62-.6.98-.16.5.11.77.37,1.04l-.19-.33c-.05-.12.08-.24-.02-.04-.05.09-.1.21-.13.3-.07.21-.07.44-.03.66.07.39.26.74.45,1.09s.39.7.63,1.03c.2.27.56.54.67.85s.01.7-.01,1.02c-.04.4,0,.82.22,1.16.51.78,1.6.71,2.11-.03.44-.64.52-1.6.61-2.35.1-.81.02-1.63.13-2.44.1-.73.46-1.16,1.05-1.55.71-.47.91-1.31.5-2.07-.37-.68-1.15-1.08-1.91-1.1-.92-.02-1.73.48-2.37,1.1-.69.67.37,1.73,1.06,1.06.34-.33.8-.7,1.31-.66.15.01.32.06.44.15.06.05.09.1.14.15.07.08,0,.16.1.03-.12.16-.44.29-.6.42-.23.19-.43.41-.6.65-.37.52-.54,1.13-.61,1.75s-.04,1.29-.08,1.93c-.02.33-.06.66-.12.99s-.2.64-.22.96c-.01.16-.14.06.16.15.27.08.17-.02.19-.25.02-.3.07-.6.05-.9-.04-.7-.33-1.16-.79-1.67-.4-.45-.84-1.12-1.02-1.7-.03-.1-.03-.06-.03,0,0-.07.09-.17.12-.24.08-.17.12-.34.12-.53,0-.17-.05-.37-.14-.52-.04-.07-.1-.13-.15-.19-.03-.03-.24-.18-.16-.12l.19.33v-.08c-.01.13-.01.27-.01.4.21-.63.92-1.04,1.52-1.18.94-.22.54-1.67-.4-1.45h0Z"/>
    </g>
  </g>
</svg>