<?xml version="1.0" encoding="UTF-8"?>
<svg id="Layer_2" data-name="Layer 2" xmlns="http://www.w3.org/2000/svg" viewBox="0 0 41.2 34.22">
  <defs>
    <style>
      .cls-1 {
        fill: #1a1a1a;
      }
    </style>
  </defs>
  <g id="Layer_1-2" data-name="Layer 1">
    <g>
      <path class="cls-1" d="M20.7.84c-1.23-.47-2.56-.93-3.9-.82-1.19.1-2.44.61-3.53,1.08s-2.13,1.1-2.91,2.01c-.87,1.01-1.07,2.39-2.01,3.33-.99.99-2.14,1.72-3.04,2.81s-1.59,2.21-2.19,3.44c-1.2,2.43-2.12,5.11-2.78,7.73-.3,1.21-.49,2.49-.17,3.72.35,1.3,1.22,2.55,1.81,3.75,1.07,2.19,3.41,2.42,5.6,2.14.74-.09,1.52-.33,2.26-.19s1.49.66,2.17.99c1.46.72,2.9,1.48,4.41,2.1,1.3.53,2.64.94,4.05,1.05.65.05,1.3.02,1.94-.09.76-.12.97-.26,1.84.02.33.1.57.24.92.29.64.09,1.22-.11,1.81-.3,1.06-.34,1.67-.12,2.7.09,1.45.3,2.95.11,4.31-.42,2.87-1.12,4.81-3.59,6.36-6.14.2-.33.09-.84-.27-1.03-.77-.39.76-2.12.91-2.53.23-.6.27-1.25.11-1.87-.33-1.3-1.34-2.28-2.52-2.84-1.37-.65-3.19-.53-4.43-1.38-1.11-.76.08-1.37.63-1.94.4-.42.66-.89.73-1.47.15-1.27-.7-2.35-1.49-3.25-1.41-1.61-2.9-3.17-4.35-4.75-1.13-1.23-2.25-2.46-3.72-3.3-1.64-.93-3.5-1.54-5.25-2.25-.89-.36-1.28,1.09-.4,1.45,1.82.74,3.8,1.35,5.45,2.44s2.78,2.63,4.04,4,3.05,2.83,3.97,4.51-1.26,2.04-1.59,3.47c-.67,2.9,3.84,3.03,5.48,3.69.88.36,1.8,1.02,2.02,2.02.23,1.08-.68,1.66-1.07,2.53-.45,1-.31,2.23.74,2.76l-.27-1.03c-1.31,2.15-2.9,4.31-5.27,5.37-1.22.55-2.59.76-3.9.46s-2.02-.45-3.3-.04c-.74.24-1.23.27-1.95-.02-.43-.18-.8-.27-1.28-.24-.61.04-1.19.25-1.8.3-.81.06-1.61-.04-2.4-.23-2.81-.67-5.3-2.26-7.89-3.47-2.09-.97-4.06.22-6.2-.24-1.41-.3-1.69-1.33-2.26-2.49-.63-1.29-1.42-2.24-1.31-3.77.17-2.39,1.29-5.01,2.18-7.22s2.1-4.39,3.88-6.03c.93-.85,2.05-1.5,2.69-2.62.69-1.2.98-2.34,2.18-3.18,1.05-.73,2.28-1.15,3.49-1.51,1.54-.46,2.91,0,4.37.55.9.34,1.29-1.11.4-1.45h0Z"/>
      <path class="cls-1" d="M30.19,7.52c-.89-.94-2.18-1.39-3.45-1.17-.65.11-1.26.41-1.84.7-.45.22-1.28.84-1.66.31-.35-.49-.47-1.04-1.02-1.36-.52-.3-1.21-.39-1.8-.4-1.35-.04-2.62.45-3.66,1.29l1.25.33c-.08-.38-.13-.76-.15-1.15,0-.15,0-.38.03-.43.06-.11.25-.19.34-.28.44-.47.56-1.13.4-1.74-.25-.93-1.69-.54-1.45.4.09.32-.15.37-.36.56-.26.23-.39.5-.44.85-.1.72.04,1.51.18,2.21.13.61.85.65,1.25.33.85-.68,2-.98,3.08-.81.63.1.68.31.96.82.26.47.64.91,1.17,1.07,1.06.31,2.16-.48,3.08-.9,1.08-.49,2.18-.44,3.03.45.67.7,1.73-.36,1.06-1.06h0Z"/>
      <path class="cls-1" d="M18.21,3.02h-.02c.06.02.12.04.18.07-.01,0-.03-.01-.04-.02l.15.12s-.03-.03-.05-.05l.12.15s-.03-.05-.05-.08l.08.18c-.02-.05-.03-.11-.04-.17l.03.2c-.02-.16,0-.32,0-.48,0-.19,0-.37.01-.56,0-.5-.13-.98-.58-1.26-.34-.2-.84-.09-1.03.27s-.09.81.27,1.03c.02,0,.03.02.04.03l-.15-.12s.04.03.05.05l-.12-.15s.04.05.05.09l-.08-.18c.02.06.04.12.05.18l-.03-.2c.02.16.01.32,0,.48,0,.2,0,.4-.01.6s0,.39.06.57c.05.17.13.32.25.44.13.14.27.2.44.27s.43.01.58-.08.3-.27.34-.45c.04-.19.03-.41-.08-.58s-.26-.27-.45-.34h0Z"/>
      <path class="cls-1" d="M13.18,8.29c.02-.08.13-.12-.03-.03-.04.03-.08.07-.12.1-.13.13-.23.28-.28.46-.11.34-.09.69.04,1.02.24.63.79,1.04,1.41,1.24s1.34.13,1.99-.03,1.26-.46,1.91-.4c.52.05.8.31.84.84.05.72-.11,1.47-.22,2.18-.1.62-.18,1.36-.57,1.89-.34.46-1.15.45-1.66.38-.23-.03-.51-.12-.64-.34-.17-.28-.1-.69-.2-1-.26-.75-1.18-1.3-1.92-.81-.8.54-.05,1.84.76,1.3.33-.22-.33.08-.27-.02.01-.02.02.1.03.06-.02.11.05.31.07.42.05.38.16.72.4,1.02.47.6,1.2.84,1.93.88s1.6-.04,2.21-.49.93-1.16,1.11-1.86c.2-.75.29-1.53.39-2.3.09-.72.19-1.5-.08-2.2-.56-1.48-2.23-1.62-3.57-1.25-.65.18-1.43.55-2.11.3-.24-.09-.32-.2-.43-.4,0,.02,0,.1-.02.11-.09.06.12-.07.15-.1.17-.16.28-.34.34-.57.23-.94-1.22-1.34-1.45-.4h0Z"/>
      <path class="cls-1" d="M8.28,17.09c.39-.14.78-.23,1.19-.24.11,0,.37.06.47.02.02,0,.05.02.08.02-.08-.1-.08-.21.02-.36-.09-.02-.35.35-.38.41-.12.21-.16.46-.11.69.09.41.35.58.71.75.22.1.37.28.56.43.31.25.63.39,1,.51.28.09.35.09.45.39s.32.9.32,1.09l.1-.38c-.04.07-.2.21-.26.3-.12.18-.17.38-.27.57-.11.22-.4.3-.56.29l.38.1c.09.09.09.09.01-.02-.05-.09-.12-.16-.2-.23-.12-.11-.27-.19-.43-.25-.32-.1-.66-.08-.98,0-.71.19-1.31.61-1.87,1.06-.03.03-.07.06-.1.08-.12.06-.07.08.15.05.01-.01-.28-.45-.31-.5-.18-.29-.35-.64-.62-.86-.57-.48-1.35-.08-1.99-.28l.33.19c-.38-.3-.45-.85-.6-1.28.02-.16,0-.17-.05-.05l.08-.08c.11-.08.2-.2.27-.31.16-.22.25-.46.39-.7.48-.85,1.41-1.36,2.38-1.36s.97-1.5,0-1.5c-.86,0-1.72.25-2.42.75-.33.24-.63.51-.89.83-.13.17-.26.34-.36.53s-.18.43-.31.6c-.27.34-.52.55-.57,1.03s.08.91.24,1.33.37.85.68,1.18c.36.38.84.35,1.32.36.05,0,.78.03.78.01-.03.15-.39-.49-.18,0,.04.09.12.2.18.28.28.45.54,1.03,1.07,1.21.98.35,1.66-.66,2.47-1.02.06-.03.48-.15.48-.15-.02.07-.25-.28-.11-.03.04.07.12.17.18.23.38.37.92.28,1.37.13.43-.15.81-.39,1.05-.79.1-.16.13-.37.23-.53s.24-.25.34-.41c.28-.5-.01-1.09-.16-1.58-.15-.53-.3-1.05-.77-1.39-.37-.26-.85-.28-1.21-.54-.15-.11-.28-.25-.42-.36-.1-.08-.2-.16-.31-.22-.07-.04-.45-.29-.26-.1l.19.33-.03-.11v.4c-.03.1.13-.07.15-.09.07-.07.13-.16.18-.24.11-.19.15-.41.14-.63-.02-.47-.33-.89-.74-1.11-.82-.43-2-.22-2.83.07-.9.32-.51,1.77.4,1.45h0Z"/>
      <path class="cls-1" d="M13.55,29.94c.27-.54.72-.95,1.34-1.04.77-.12,1.26.38,1.92.66,1.15.48,2.96.41,3.99-.34.14-.1.25-.22.38-.32.14-.12.31-.18.46-.3.29-.21.46-.54.55-.88.19-.7.02-1.48-.61-1.9-.24-.16-.52-.26-.81-.31-.15-.02-.3-.04-.45-.04-.07,0-.13,0-.2,0-.17,0,.07.08-.03,0-.27-.2-.5-.44-.8-.61-.14-.08-.3-.15-.45-.21-.05-.02-.25-.13-.28-.11.14-.07.16.48.24.14s-.11-.84-.26-1.14c-.08-.16-.18-.31-.3-.46-.03-.04-.11-.1-.13-.15-.04-.11.02.02.02-.14.01-.43-.13-.85-.14-1.28,0-.49.08-.97.16-1.45.06-.4-.1-.81-.52-.92-.36-.1-.86.12-.92.52-.12.8-.28,1.6-.16,2.42.05.33.06.64.08.96.03.43.22.66.46.98.38.5.04,1.17.51,1.64.22.22.53.28.8.41.29.14.5.35.75.56.27.22.56.31.9.33.18,0,.52-.06.67.08.07.07.05.28-.06.39s-.3.18-.43.28-.23.23-.36.32c-.49.32-1.19.3-1.75.28-.75-.03-1.24-.51-1.92-.76-1.52-.54-3.23.2-3.94,1.62-.43.86.86,1.62,1.3.76h0Z"/>
      <path class="cls-1" d="M29.05,25.34c-.71-.27-1.5-.3-2.24-.11s-1.69.68-1.65,1.57c.01.27.14.52.33.71.05.05.17.13.21.16.13.09,0-.06-.05-.13v-.05c0,.06,0,.11,0,.17,0-.03-.02.25-.01.17-.03.16-.08.31-.15.43-.19.34-.44.59-.53.99-.09.44-.02.92.23,1.3.41.62,1.15.88,1.87.89s1.39-.32,2.05-.22c.43.07.81.23,1.26.14.36-.07.68-.28.94-.54.23-.23.45-.51.6-.8.12-.24.18-.52.1-.78-.05-.2-.25-.52-.48-.58l.18.26c-.01-.05-.03-.11-.04-.16-.03-.12-.06-.25-.08-.37,0-.06-.02-.31-.01-.35.04-.24.15-.43.15-.68,0-.28-.13-.56-.32-.76-.35-.36-.79-.4-1.25-.46-.21-.03-.4-.27-.56-.49-.24-.33-.65-.49-1.03-.27-.32.19-.51.7-.27,1.03.27.37.55.76.96.99.25.14.51.2.8.24.1.01.2,0,.29.04-.05-.04-.04-.03.04.02-.07-.03-.1-.1-.08-.2-.09-.33-.09-.09-.14.08-.04.14-.06.29-.07.43-.02.26.01.51.05.76.03.2.07.42.14.61.05.16.13.3.25.42.07.05.13.1.2.15.11.07.08.03-.08-.11l-.1-.38c0-.06.09-.16,0-.04-.04.05-.12.18-.13.19,0,0-.09.11-.13.15s-.08.08-.12.11c-.1.08.07-.04-.04.02-.01,0-.04.03-.05.03.08-.01-.09,0-.07,0,.03,0-.12-.03-.09-.02-.26-.06-.51-.13-.78-.16-.48-.04-.97.07-1.44.15-.21.04-.31.06-.47.06-.08,0-.15,0-.23,0-.04,0-.08,0-.11,0-.12-.01.15.05-.06-.01-.07-.02-.14-.04-.21-.06.11.04-.04-.03-.08-.05-.03-.02-.12-.05-.01,0-.01,0-.07-.09-.04-.03.04.07-.07-.14-.05-.09-.02-.07-.02-.1,0-.13-.04.08.05-.08.06-.1.12-.19.26-.36.36-.56.2-.43.33-.92.29-1.4-.02-.27-.09-.51-.25-.73-.07-.1-.15-.16-.24-.24-.05-.04-.12-.09-.12-.09.02-.02.09.44.09.45,0,.07-.1.08.02.02.06-.03.21-.11.22-.12.18-.07.44-.14.59-.16.41-.05.78,0,1.19.17.38.15.82-.16.92-.52.12-.42-.14-.78-.52-.92h0Z"/>
      <path class="cls-1" d="M23.12,17.19c-.72.33-2.17.86-2.32,1.77-.08.47.15.86.5,1.14.29.24.31.14.31.53,0,.25,0,.5.04.75.12.92.6,1.81,1.47,2.22.96.45,2.04.08,3.03-.06s2.2-.35,3.11.07c.41.19.55.55.84.86s.71.45,1.15.42c.47-.04.95-.26,1.38.05.34.24.53.69.68,1.06.35.88.57,1.74,1.24,2.46s1.72-.36,1.06-1.06c-.59-.63-.71-1.55-1.07-2.32-.31-.67-.78-1.29-1.47-1.6-.42-.19-.86-.23-1.31-.18-.13.01-.51.15-.61.11-.09-.04-.22-.33-.28-.39-.52-.63-1.27-.94-2.07-1.05-.93-.13-1.89-.03-2.81.09-.77.1-2.08.64-2.63-.15s.07-1.84-.59-2.56c-.1-.11-.3-.27-.43-.33-.24-.2-.33-.05-.25.45l.21-.14c.21-.06.44-.28.65-.39.29-.16.59-.31.9-.45.87-.41.11-1.7-.76-1.3h0Z"/>
      <path class="cls-1" d="M29.73,10.01c-.66-.23-1.39-.57-2.06-.16-.72.44-.75,1.37-.15,1.92.04.04.09.08.14.12.02.02.08.08.04.02.09.1.14.24.22.35.2.28.46.51.76.68s.6.27.92.35c.15.04.29.07.44.11.08.02.16.04.24.06l.1.03c.12.03.13.04.04.02l-.27-.27c-.04-.05-.04-.04,0,.06.03.09.06.18.1.26.05.11.1.21.17.31.14.21.29.41.44.62.18.25.34.51.6.68s.56.24.88.26c.55.04,1.31,0,1.61-.54.14-.25.15-.59.16-.87,0-.26-.01-.54-.09-.79-.08-.27-.22-.53-.42-.73-.11-.11-.24-.2-.37-.28-.04-.03-.24-.15-.21-.13-.35-.27-.61-.66-.92-.98-.75-.77-1.87-1.17-2.85-1.57-.37-.15-.82.17-.92.52-.12.43.15.77.52.92.48.2.95.41,1.41.65.43.22.74.48,1.06.85s.65.72,1.07.98c.03.02.19.15.13.08.05.05.07.13.08.2,0,.06,0,.22,0,.32,0,.06,0,.13-.01.19,0,.03,0,.06,0,.1-.02.16.02.07.12-.28l.33-.19c-.14.05-.25.06-.4.06-.13,0-.29.01-.35-.02.03.01.07.06.02,0-.05-.06-.09-.13-.14-.19-.11-.16-.22-.31-.34-.47-.07-.11-.2-.3-.22-.35-.09-.25-.12-.44-.34-.62-.31-.26-.78-.31-1.16-.41-.34-.09-.54-.13-.8-.31.08.06-.08-.07-.09-.09-.11-.11,0,.03-.08-.11-.09-.17-.21-.35-.34-.49-.04-.04-.09-.08-.14-.12-.03-.02-.06-.05-.08-.07-.06-.06-.07-.07-.04-.03.04.05.07.12.06.2l-.04.18c.06-.12-.18.21-.19.12,0-.02.36.08.43.11.19.07.37.13.56.2.38.14.82-.15.92-.52.11-.42-.14-.79-.52-.92h0Z"/>
      <path class="cls-1" d="M38.98,26.43c.07-.01-.11,0-.13,0-.02,0-.06,0-.06,0-.05-.01-.05-.01,0,0l.1.1s-.01,0,0-.05c0,.07,0-.08,0-.1,0-.07,0-.15-.02-.22-.02-.2-.06-.36-.14-.55-.13-.29-.35-.52-.53-.78-.09-.13-.18-.26-.26-.4-.04-.06-.07-.12-.11-.18-.03-.05-.05-.09-.07-.14-.03-.06-.03-.06,0-.02v.4c-.04.06-.04.05,0-.02.05-.09.09-.17.12-.26.05-.14.12-.32.11-.48.01-.09.01-.11,0-.06-.06.07-.04.02.06-.16.04-.14.08-.4.01-.54.04.16,0,.29-.08.39.03-.03.06-.07.09-.1.09-.09.18-.19.24-.31.2-.35.17-.76-.11-1.05-.09-.09-.33-.19-.37-.21-.11-.05-.2-.12-.31-.18-.29-.15-.59-.23-.91-.25-.16-.01-.32,0-.48.03-.06,0-.12.02-.18.03.42.2.53.22.33.06-.19-.22-.45-.41-.67-.61-.3-.27-.76-.3-1.06,0-.28.28-.3.79,0,1.06.24.22.47.43.72.65.31.27.61.38,1.02.3.19-.04.3-.06.5.02.21.09.46.25.7.34l-.45-.34.03.04-.08-.58c0-.05.11-.14.05-.1-.04.03-.08.08-.12.12-.13.14-.24.3-.3.48-.02.08-.04.17-.04.26s0,.46.05.11-.05.01-.08.12-.02.22-.04.33c-.01.05-.03.1-.07.18-.11.23-.18.46-.12.72.08.34.3.68.5.97.16.25.41.48.54.74.04.08.02.13.03.27,0,.16.02.34.07.49.11.41.42.73.82.88.36.13.72.08,1.09.03.4-.06.62-.57.52-.92-.12-.43-.52-.58-.92-.52h0Z"/>
      <path class="cls-1" d="M8.22,9.08c.15-.07.53.15.69.27.21.15.42.37.56.59.08.13.13.3.2.4.02.1.03.13.03.09,0-.12.06-.22.17-.32-.04,0-.17.09-.2.11-.31.17-.59.41-.81.68-.45.55-.71,1.2-1.12,1.77-.38.53-.95.92-1.56,1.11-.92.29-.53,1.73.4,1.45,1.02-.32,1.88-.95,2.48-1.83.25-.36.44-.76.67-1.13.09-.15.2-.32.28-.4.15-.17.22-.23.39-.33.24-.14.47-.25.63-.49.18-.28.22-.6.16-.91-.1-.52-.4-1-.73-1.4-.7-.85-1.9-1.46-2.97-.95-.36.18-.46.7-.27,1.03.22.37.66.45,1.03.27h0Z"/>
      <path class="cls-1" d="M26.49,11.71c-.4-.56-.83-1.11-1.49-1.36-.76-.3-1.47-.04-2.14.35-.58.33-1.27.81-1.07,1.58.07.26.19.49.23.77.05.35.05.71.15,1.04.21.67.73,1.06,1.41,1.15.52.07,1.21-.02,1.62.37.47.45.26,1.32.22,1.89-.05.68.17,1.29.79,1.64.69.4,1.6.56,2.36.78.38.11.79.17,1.16.29s.74.39,1.09.59c.46.26.92,0,1.1-.45.25-.62-.06-1.27-.34-1.82s-.68-1.05-1.21-1.43c-.79-.56-1.54.74-.76,1.3.27.19.45.48.6.76.13.23.36.55.26.79l1.1-.45c-.55-.32-1.07-.66-1.7-.8s-1.23-.32-1.84-.51c-.3-.09-.61-.17-.9-.28-.22-.08-.24-.05-.24-.29.02-.62.13-1.21,0-1.84-.25-1.22-1.26-1.84-2.42-1.98-.23-.03-.53.02-.75-.06-.16-.05-.14-.06-.18-.24-.05-.29-.06-.59-.11-.88s-.18-.53-.25-.81v.4c-.02.09.05-.02.11-.06.09-.06.18-.12.28-.17.18-.1.46-.29.68-.29.39,0,.7.49.9.77.24.33.65.49,1.03.27.32-.19.51-.7.27-1.03h0Z"/>
    </g>
  </g>
</svg>