<?xml version="1.0" encoding="UTF-8"?>
<svg id="Layer_2" data-name="Layer 2" xmlns="http://www.w3.org/2000/svg" viewBox="0 0 37.07 33.26">
  <defs>
    <style>
      .cls-1 {
        fill: #1a1a1a;
      }
    </style>
  </defs>
  <g id="Layer_1-2" data-name="Layer 1">
    <g>
      <path class="cls-1" d="M20.18.34c-1.83-.35-3.88-.68-5.56.36-.79.49-1.36,1.25-1.97,1.94-.72.81-1.49,1.57-2.33,2.26-1.75,1.45-3.72,2.47-5.81,3.34-.93.39-1.87.77-2.73,1.31-.59.37-1.49.89-1.73,1.58-.17.5.05,1,.52,1.24.1.05.26.04.34.11.23.18.51.55.52.96.01.58-.28,1.28-.36,1.86-.31,2.17-.2,4.38.31,6.51.27,1.11.83,2.18.95,3.32.1,1.03-.03,2.07.36,3.07.27.69.74,1.29,1.41,1.61.29.14.71.13.98.29.38.22.53.71.81,1.03,1.37,1.6,3.52,1.28,5.39,1.4,1.54.1,4.47,1.41,5.84.27.63-.52.26-1.22.65-1.76.47-.64,2.78-.55,3.55-.51,2.19.12,3.7,1.99,5.87,2.07,1.68.06,3.84-.85,5.17-1.87.59-.45,1.05-1,1.31-1.7.18-.47.2-.96.51-1.38s.8-.72,1.22-1.04c1.36-1.02,2.02-2.35,1.5-4.05-.28-.91-.81-1.66-1.32-2.45-.77-1.18-1.07-2.17-.97-3.59.16-2.26-.15-4.33-1.71-6.08-.75-.84-1.58-1.18-1.81-2.36-.16-.83-.21-1.67-.87-2.28-.28-.26-.6-.41-.96-.54-.13-.05-.3-.06-.43-.13-.56-.27-.49-.39-.66-.85-.28-.79-.47-1.2-1.38-1.37-1.35-.25-2.37-.54-3.6-1.19-.98-.52-1.95-1.03-3.01-1.37-.92-.29-1.32,1.16-.4,1.45,1.69.53,3.14,1.62,4.8,2.22.44.16,1.85.2,2.13.59.14.19.09.67.21.91.13.28.34.5.6.68.52.36,1.42.32,1.8.84.41.57.27,1.55.51,2.2.21.58.56.96,1.02,1.35.77.65,1.42,1.32,1.85,2.25.87,1.91.04,3.8.49,5.75.42,1.83,2.41,3.23,2.42,5.14,0,1.6-2.23,2.17-2.91,3.48-.36.69-.33,1.44-.89,2.05-.58.64-1.52,1-2.31,1.3-1.25.48-2.39.78-3.64.15-.78-.39-1.49-.91-2.31-1.22-1.65-.63-3.43-.46-5.14-.19-.59.09-1.27.14-1.73.56-.21.19-.34.41-.42.68s.04.84-.08,1.03c-.34.52-2.38-.14-2.9-.24-1.06-.21-2.07-.28-3.15-.29-.97,0-2.09.02-2.86-.65-.54-.47-.72-1.2-1.38-1.55-.3-.16-.63-.17-.94-.3-.72-.31-.94-.98-1.02-1.71-.1-.87,0-1.75-.2-2.62-.47-2.01-1.22-3.77-1.29-5.89-.04-1.13.03-2.25.24-3.36.15-.82.49-1.72.24-2.56-.13-.45-.69-1.41-1.3-1.32-.3.05-.13-.25-.18.31-.06.71.53-.12.8-.31.38-.27.8-.5,1.21-.71,1.89-.95,3.88-1.59,5.67-2.73,1.65-1.04,3.17-2.32,4.48-3.78.79-.88,1.47-1.91,2.67-2.23s2.39-.05,3.52.17c.94.18,1.35-1.26.4-1.45h0Z"/>
      <path class="cls-1" d="M16.29,5.3c.43-.53,1.04-.86,1.74-.77.75.1,1.08.69,1.69,1.04.74.42,1.68.17,2.49.12s1.53,0,2.18.46c.33.24.84.06,1.03-.27.22-.38.06-.79-.27-1.03-.75-.54-1.69-.7-2.6-.68-.5.01-1,.08-1.5.11-.2.01-.43.06-.62-.04-.14-.08-.26-.23-.37-.34-1.41-1.25-3.61-1.15-4.82.33-.26.31-.31.75,0,1.06.26.26.8.32,1.06,0h0Z"/>
      <path class="cls-1" d="M29.9,13.05c-.5.07-1.06.22-1.48.5-.28.19-.46.49-.45.83,0,.3.18.56.31.82.06.12.12.3.21.4,0,.07.02.11.06.1l.04-.23c-.06.01-.18.4-.19.46-.03.1-.05.21-.07.32-.09.57-.07,1.17,0,1.74.13,1,.6,2.05,1.56,2.52.46.23.97.33,1.47.17.56-.18.94-.63.96-1.22.02-.97-1.48-.97-1.5,0,0-.08.07-.14.1-.21.03-.07-.02.01-.01,0-.02,0-.06.01-.08,0-.12-.03-.31-.1-.44-.21-.38-.31-.54-.83-.59-1.33-.06-.58-.05-1.12.16-1.66.16-.39.06-.75-.12-1.12-.07-.13-.14-.26-.21-.4-.04-.08-.09-.17-.13-.25-.02-.03-.03-.07-.05-.1-.05-.1-.04-.06.02.11l-.1.38c-.15.11-.19.15-.1.1.04-.02.09-.05.13-.06.08-.03.16-.06.24-.08.22-.07.43-.11.66-.14.4-.06.62-.57.52-.92-.12-.43-.52-.58-.92-.52h0Z"/>
      <path class="cls-1" d="M6.26,27.38c.3.1.62.13.93.16.05,0,.05,0,0,0h.08c.06.03.13.04.19.05.04.01.16.06.07.02,0,0,.2.13.09.05.03.02.08.06.02.02.04.07.05.09.03.04-.01-.05,0-.03.02.05.05.12,0-.02.01.06,0,.07,0,.14,0,.21.03.47.26.86.7,1.04.29.12.66.13.97.06.08-.02-.01,0-.05-.02.17.1-.06-.08.08.05.09.09.18.17.27.26.24.22.5.37.78.51.14.07.28.13.4.22.06.05-.02-.06.06.06-.06-.09.05.12,0,0,.13.38.51.64.92.52.37-.1.66-.54.52-.92-.14-.41-.39-.71-.75-.96-.27-.18-.6-.27-.85-.47.07.05-.03-.04-.05-.06-.05-.05-.11-.1-.16-.16-.12-.12-.26-.24-.4-.33-.35-.22-.71-.22-1.11-.19-.04,0-.08,0-.12,0h.05c.08.04.12.1.14.19.08.19.11.22.1.08.02-.18-.01-.38-.06-.55-.1-.39-.35-.73-.67-.97-.26-.19-.57-.29-.88-.34-.2-.03-.39-.05-.59-.08.12.02-.1-.02-.11-.02-.08-.02-.15-.04-.22-.06-.38-.13-.82.15-.92.52-.11.41.14.79.52.92h0Z"/>
      <path class="cls-1" d="M8.23,11.13c-1.5.9-3.06,1.94-3.67,3.68-.35,1.01-.3,2.15-.34,3.2s.05,2.28-.34,3.31c-.34.9,1.11,1.29,1.45.4s.33-1.97.37-2.96-.01-2.05.18-3.03c.32-1.62,1.8-2.52,3.12-3.3.83-.5.07-1.79-.76-1.3h0Z"/>
      <path class="cls-1" d="M26.85,28.68c.14.6.77.85,1.32.67.39-.13.78-.39,1.1-.63.69-.52,1.27-1.2,1.42-2.07.08-.46.07-.92.06-1.39s0-.96-.03-1.43c-.05-.99-.41-1.89-1.39-2.26-.38-.14-.82.16-.92.52-.12.42.14.78.52.92.27.1.29.7.3,1.03.01.63.04,1.27.02,1.9-.01.48-.14.86-.47,1.21-.16.17-.33.31-.52.44-.11.07-.22.14-.34.2-.06.03-.11.06-.17.09-.22.09-.1.14.35.13l.19.33-.02-.07c-.09-.39-.54-.63-.92-.52-.4.11-.62.53-.52.92h0Z"/>
      <path class="cls-1" d="M23.56,8.12c-.95.59-1.96,1.41-1.83,2.66.11,1.02.9,1.86,1.81,2.26s1.91.4,2.81-.01c.46-.21.85-.56,1.31-.78.27-.13.57-.15.71-.01.68.69,1.74-.37,1.06-1.06s-1.71-.63-2.53-.22c-.41.2-.76.5-1.16.71-.27.14-.56.2-.88.18-.56-.02-1.21-.33-1.51-.85-.42-.74.41-1.23.97-1.57.82-.51.07-1.81-.76-1.3h0Z"/>
      <path class="cls-1" d="M12.72,14.03c-.65.11-1.21.45-1.71.85-.54.43-1.04,1.02-.87,1.76.04.17.11.33.22.47.05.06.1.13.16.19.17.14.01.03.03.01l-.05-.28c.03-.05.02-.03-.02.06-.02.06-.05.11-.08.17-.08.18-.16.37-.24.56-.22.57-.29,1.22-.07,1.8.28.73.9,1.12,1.67,1.18.68.06,1.47-.04,1.78-.73.24-.54.33-1.12.63-1.6.09-.14.2-.25.36-.34.13-.08.06-.03.03-.02.07-.02.14-.03.21-.05.19-.05.37-.12.51-.26.33-.32.3-.76.3-1.18,0-.38.02-.77-.04-1.14-.13-.83-.82-1.22-1.57-1.38-.4-.08-.81.12-.92.52-.1.37.13.84.52.92.1.02.2.04.3.07.04.01.08.02.11.04.12.04-.07-.05.03.02.14.08.05.08.03,0-.02-.09.02.04.02.05.06.2,0-.03.01.09.01.24,0,.48,0,.72,0,.13-.02.28,0,.41.02.15-.1.22.18-.11.23-.28.22-.23.05-.19-1.03.24-1.56,1.18-1.88,2.11-.07.22-.14.44-.22.65-.04.12,0,0,0,0l-.03.06.12-.12s.06-.04.07-.03c0,0-.2.01-.21.01-.22,0-.37.03-.54-.04.02,0-.05-.04-.05-.04-.09-.07.04.07-.02-.02-.01-.02-.08-.16-.04-.06-.02-.05-.03-.1-.04-.15,0,0-.02-.12-.01-.05,0,.06,0-.23,0-.19.01-.13.11-.43.17-.59.21-.52.55-1.04.22-1.62-.07-.11-.16-.23-.27-.32-.14-.11,0,.03.02.08v.04c0,.05,0,.05,0,0,0,0,.04-.06.08-.1.08-.07.16-.15.24-.22.33-.28.73-.49,1.19-.57.4-.07.62-.56.52-.92-.12-.42-.52-.59-.92-.52h0Z"/>
      <path class="cls-1" d="M13.52,8.99h.89c.08-.01.16-.01.24-.01-.05-.19-.12-.26-.22-.22-.03.02-.02.08-.04.11-.14.18-.22.48-.32.69-.12.25-.24.51-.31.78-.28,1.1.3,2,1.3,2.43.83.36,1.67.53,2.23,1.31.5.7.58,1.73.02,2.42-.26.31-.31.75,0,1.06.26.26.8.32,1.06,0,.85-1.04,1.06-2.43.52-3.68-.48-1.1-1.45-1.84-2.56-2.24-.32-.11-.98-.23-1.12-.59-.17-.42.35-1.11.51-1.48.24-.55.35-1.24-.1-1.73-.5-.55-1.43-.37-2.09-.36-.96.01-.97,1.51,0,1.5h0Z"/>
      <path class="cls-1" d="M24.91,19.11c.09-.09-.04,0-.09.02-.07.04.08.03,0,0-.03-.01-.06,0-.09-.02-.08-.04-.08-.1-.12-.17-.04-.07-.03.08,0,0,.01-.04.02-.08.04-.12.02-.04.1-.05.03-.03-.03,0-.07.04-.09.05-.07.04-.15.08-.22.12-.22.13-.43.3-.57.52-.3.49-.24,1.09,0,1.58.18.38.49.68.7,1.04.11.18.15.27.2.46.03.12.03.09.02.18,0,.04,0,.08,0,.11,0,.05,0,.05,0-.01l-.02.07s-.03.1-.05.14c0-.02.04-.08,0-.01,0,.01-.09.14-.05.08.04-.06-.03.03-.04.03.12-.07-.12.06-.07.04,0,0-.07,0-.08,0-.08-.02-.21-.07-.26-.11-.16-.13-.22-.24-.32-.43-.16-.31-.28-.83-.34-1.24s-.07-.9.02-1.26c.05-.19.12-.32.22-.43.03-.03.06-.06.09-.08-.07.06.05-.02.07-.04.08-.04.01,0,0,0,.08-.02.1-.02.05-.02-.05,0-.03,0,.05,0l-.65-1.13c-.3.4-.51.82-.69,1.28-.15.38.16.82.52.92.43.12.77-.15.92-.52.11-.29.33-.64.54-.93.34-.45-.12-1.15-.65-1.13-.7.03-1.3.42-1.66,1.01s-.41,1.28-.38,1.93c.06,1.23.41,2.9,1.66,3.47.66.3,1.42.25,1.97-.25.45-.41.67-1.07.61-1.66-.07-.68-.39-1.24-.79-1.77-.09-.11-.17-.23-.25-.35-.03-.04-.06-.1-.08-.15.04.11-.05-.14,0,0,0,0-.01-.16-.01-.03,0-.22.04,0,0-.01.03.01-.18.11,0,.01.06-.03.13-.07.19-.1.69-.37,1.07-1.17.65-1.9s-1.5-.84-2.08-.23c-.28.29-.29.77,0,1.06s.78.3,1.06,0h0Z"/>
      <path class="cls-1" d="M16.46,28.35c.09-.47-.03-.86-.33-1.23-.19-.23-.44-.38-.67-.56.14.11-.02-.03-.05-.06-.02-.02-.04-.04-.06-.06.05.07.06.08.04.04-.03-.05-.02-.03.02.05-.02-.08-.02-.07,0,.03v.08c.01-.08,0-.07-.03.02.14-.13-.11.11.03-.04.12-.13-.11.05.04-.04.05-.03.11-.06.16-.09-.13.06.09-.03.12-.04.07-.02.13-.04.2-.05.03,0,.07-.01.1-.02-.08.01-.08.01,0,0,.14,0,.28-.01.42,0,.07,0,.14.01.21.02.18.02-.08-.02.09.01.15.03.3.06.46.09s.3.08.45.13-.06-.04.09.03c.06.03.13.07.19.11.18.11-.09-.09.05.05.12.11-.03-.08.04.05.03.06.07.17.03.05.01.04.02.08.03.12-.01-.1-.02-.1-.02-.01,0,.39.35.77.75.75s.74-.33.75-.75c.02-.98-.8-1.62-1.66-1.88-.77-.23-1.61-.34-2.41-.18-.87.17-1.78.87-1.6,1.86.08.44.38.74.72,1,.06.05.13.1.19.14.06.05.06.04,0,0,.03.03.07.05.1.08.03.03.06.06.09.09-.05-.07-.05-.07,0,0-.03-.09-.03-.1,0-.02-.02-.06-.02-.11,0-.17-.08.38.11.83.52.92.37.08.84-.11.92-.52h0Z"/>
      <path class="cls-1" d="M8.27,22.4c.22.05.44.11.65.2l-.18-.08c.07.03.14.06.21.1.06.03.08.08-.05-.05.09.09-.1-.16-.04-.05l-.08-.18s.02.04.02.06l-.03-.2s0,.04,0,.07l.03-.2s-.01.04-.02.06l.08-.18c-.06.11.1-.12.05-.06s.16-.09.05-.04c-.05.03-.1.05-.16.08-.19.1-.38.24-.49.43-.26.42-.12.85-.06,1.29l-.03-.2c.01.1.02.2,0,.31l.03-.2c-.01.06-.03.11-.05.17l.08-.18s-.02.04-.03.06c-.05.1.1-.12.05-.06-.02.02-.09.08.01,0s.02-.02,0,0l.18-.08s-.06.02-.1.02c-.17.03-.36.2-.45.34-.09.16-.13.4-.08.58s.17.36.34.45c.19.1.37.11.58.08.45-.06.78-.49.9-.89s0-.8-.05-1.2l.03.2c0-.06,0-.11,0-.17l-.03.2s.01-.05.02-.08l-.08.18c.04-.07.01-.04-.06.07.05-.05.03-.03-.07.05.04-.02.08-.05.12-.07.14-.07.25-.13.37-.24.33-.28.44-.74.27-1.14-.13-.31-.4-.49-.7-.62-.27-.12-.54-.22-.82-.27-.38-.08-.83.11-.92.52-.09.37.11.84.52.92h0Z"/>
    </g>
  </g>
</svg>