<?xml version="1.0" encoding="UTF-8"?>
<svg id="Layer_2" data-name="Layer 2" xmlns="http://www.w3.org/2000/svg" viewBox="0 0 45.54 43.09">
  <defs>
    <style>
      .cls-1 {
        fill: #1a1a1a;
      }
    </style>
  </defs>
  <g id="Layer_1-2" data-name="Layer 1">
    <g>
      <path class="cls-1" d="M13.6,1.47c-2.65.5-5.24,1.34-7.64,2.57-.82.42-1.64.92-2.21,1.66-.74.95-.77,2.12-1.53,3.08-1.48,1.87-1.8,3.99-1.99,6.31-.2,2.56-.37,5.14-.03,7.7s1.15,4.63,2.62,6.59c.66.89,1.85,1.84,2.26,2.86.28.69-.07,1.33-.16,2.01-.07.5-.08,1,0,1.5.25,1.87,1.39,3.6,3.01,4.58.79.48,1.65.72,2.57.79.59.04,1.18-.02,1.77.04.9.09,1.34.57,2.02,1.1.79.61,1.67.76,2.64.69.58-.04,1.16-.16,1.75-.15.73.02,1.42.33,2.15.29,1.18-.07,2.29-.86,3.44-1.13,1.66-.38,2.96.05,4.58.2,1.14.1,2.27-.29,3.36-.58,1.6-.43,3.19-.85,4.79-1.29,1.12-.3,1.92-.6,2.64-1.53.79-1.02,1.67-1.97,2.23-3.15.96-2.02,1.15-4.31.94-6.52-.11-1.13-.34-2.24-.58-3.35s-.09-1.55.58-2.44c.4-.52.78-1.05,1.14-1.61,1.21-1.91,2.31-4,1.04-6.16s-3.52-3.48-5.51-4.83c-1.37-.93-1.75-2.16-2.58-3.49-.61-.98-1.42-1.83-2.35-2.51s-2.1-1.24-3.28-1.52-2.41-.16-3.64-.25c-.83-.06-1.32-.36-1.87-.94-.33-.35-.63-.67-1.09-.85-.7-.27-1.46-.07-2.17-.25-.66-.16-1.24-.56-1.9-.74-2.61-.69-4.95,1.13-7.44,1.53-.95.16-.55,1.6.4,1.45,2.08-.34,4.23-1.96,6.38-1.58.95.17,1.75.77,2.71.9.62.08,1.29-.06,1.83.34.42.31.66.8,1.12,1.08,1.61,1,3.7.33,5.46.79,2.05.53,3.83,1.91,4.84,3.77.46.85.79,1.74,1.46,2.45.73.77,1.69,1.28,2.57,1.87,2.03,1.35,5.06,3.55,3.8,6.29-.45.98-1.05,1.92-1.68,2.8-.57.8-1.36,1.53-1.46,2.56-.09.97.29,1.95.47,2.89.23,1.18.36,2.38.34,3.58-.04,2.42-.81,4.33-2.33,6.18-.39.47-.69.98-1.21,1.3-.58.37-1.31.48-1.97.66-1.36.36-2.71.73-4.07,1.09-.59.16-1.19.35-1.79.46-.8.15-1.49-.02-2.26-.17-1-.2-2.01-.22-3.02-.07-1.1.16-2.12.53-3.14.95-1.16.48-2.45-.08-3.7.04s-2.08.22-3.09-.63c-.78-.65-1.53-.99-2.54-1.07s-1.98.07-2.94-.31-1.78-1.12-2.31-2.02c-.48-.83-.75-1.79-.64-2.75.1-.9.53-1.69.23-2.61-.28-.82-1-1.53-1.54-2.18-.81-.98-1.6-1.97-2.18-3.11-1.23-2.41-1.43-5.18-1.37-7.84.05-2.41,0-5.26.88-7.52.44-1.11,1.41-1.85,1.86-2.93.23-.55.24-1.16.58-1.67.31-.46.8-.78,1.27-1.06,2.39-1.41,5.18-2.23,7.89-2.75.95-.18.55-1.62-.4-1.45h0Z"/>
      <path class="cls-1" d="M36.59,10.06c.39,1.29-.57,2.63-.74,3.9-.18,1.37.43,2.49,1.19,3.58.36.51.74,1.01.98,1.59.3.71.28,1.48.44,2.22.33,1.45,1.34,2.56,2.34,3.59.67.69,1.73-.37,1.06-1.06-1.03-1.06-1.85-2.05-2.06-3.55-.19-1.39-.68-2.4-1.48-3.54s-1.24-2.02-.83-3.38c.37-1.24.92-2.43.53-3.74-.28-.92-1.73-.53-1.45.4h0Z"/>
      <path class="cls-1" d="M19.47,2.97c-1.12-.15-2.23.19-3.23.69-.49.24-.95.56-1.32.97-.33.37-.56.85-.94,1.17-.8.68-2.14.42-3.11.54-1.02.12-2.01.39-2.92.87s-1.79,1.17-2.26,2.08c-.54,1.05-.57,2.32-1.01,3.42-.4.99-.65,1.98.2,2.82.79.79,1.91.83,2.97.77.96-.06.97-1.56,0-1.5-.65.04-2.35.14-2.02-.97.28-.95.69-1.81.89-2.8s.56-1.62,1.39-2.18c.72-.49,1.54-.78,2.39-.95,1.54-.3,3.29.13,4.55-1.04.63-.59.95-1.35,1.73-1.79.83-.46,1.75-.72,2.7-.59s.94-1.38,0-1.5h0Z"/>
      <path class="cls-1" d="M35.96,26.15c.81,1.68,1.02,3.67.3,5.42-.33.81-.85,1.55-1.52,2.11-.73.61-1.48.81-2.41.64-.36-.06-.87-.1-1.16-.35-.25-.21-.24-.57-.17-.86.1-.45.36-.84.57-1.24.23-.45.44-.92.62-1.39.72-1.84,1.06-3.81,1.38-5.75.16-.94-1.29-1.35-1.45-.4-.32,1.88-.64,3.78-1.31,5.57-.56,1.48-2.11,3.3-.93,4.87.53.7,1.42.89,2.24,1.03.95.16,1.82.09,2.68-.36,1.5-.79,2.57-2.35,3.06-3.94.63-2.04.29-4.21-.62-6.1-.42-.87-1.71-.11-1.3.76h0Z"/>
      <path class="cls-1" d="M13.96,40.33c.44-1.14.34-2.42-.16-3.53-.23-.51-.57-.99-.99-1.37-.46-.42-1.05-.69-1.45-1.18-.77-.95-.77-2.32-1.61-3.24-1.06-1.16-2.56-.61-3.67.15-.79.55-.04,1.85.76,1.3.38-.26.85-.63,1.34-.64.43,0,.65.41.8.76.43.97.64,2.01,1.39,2.81.36.39.83.65,1.24.99.34.28.61.62.81,1.01.4.8.41,1.72.09,2.54-.14.38.16.82.52.92.42.12.78-.14.92-.52h0Z"/>
      <path class="cls-1" d="M24.85,10c1.82.61,4.55,2.24,3.11,4.5-.42.66-.89,1.21-.96,2.02-.09,1.02.37,1.93.68,2.87.35,1.07.49,2.29,0,3.35-.4.88-1.12,1.56-1.5,2.45-.75,1.76-.03,3.56.07,5.36.03.5.07,1.52-.6,1.7-.52.14-1.23-.48-1.52-.83-.82-.97-.88-2.34-.92-3.55-.03-.84.04-1.72-.38-2.47-.39-.71-1.16-1.2-1.86-1.57-1.74-.93-3.71-1.18-5.52-1.9-2.28-.9-2.36-3.33-1.55-5.34.47-1.16,1.15-2.24,1.74-3.33.33-.61.77-1.57,1.59-1.61.5-.03,1.02.34,1.52.43.95.19,1.86-.13,2.69-.58,1.08-.59,2.16-1.74,3.5-1.42.94.22,1.34-1.22.4-1.45-2.7-.65-4.33,2.53-6.88,1.79-1.05-.3-1.91-.39-2.82.33s-1.43,2-2,3.03c-1.15,2.07-2.26,4.41-1.46,6.81s3.13,2.92,5.3,3.54c1.22.35,2.68.71,3.65,1.58s.52,3,.76,4.25c.36,1.9,1.92,4.12,4.13,3.76,2.38-.38,1.7-3.61,1.44-5.24-.23-1.46-.12-2.52.73-3.76.76-1.1,1.29-2.17,1.29-3.53,0-.6-.1-1.22-.26-1.8-.22-.79-.75-1.64-.76-2.48s.59-1.28.95-1.93c.25-.45.4-.95.42-1.47.11-2.7-2.36-4.21-4.61-4.95-.92-.31-1.31,1.14-.4,1.45h0Z"/>
      <path class="cls-1" d="M4.73,21.75c.19,2.14.87,4.24,3.34,4.44,1.16.09,2.49-.3,3.48.5s1.15,2.06,1.12,3.23c-.02,1.02-.23,2.08.62,2.84.89.8,2.29.44,3.12,1.28,1.71,1.73-.57,5.2,2.24,6.19.91.32,1.31-1.13.4-1.45-.65-.23-.48-1.22-.45-1.74.04-.6.06-1.19-.04-1.79-.15-.92-.56-1.81-1.27-2.44-.36-.32-.79-.54-1.25-.67-.52-.15-1.22-.09-1.66-.43-.42-.32-.23-1.02-.22-1.49.02-.6.01-1.19-.08-1.78-.28-1.84-1.57-3.47-3.48-3.72-.99-.13-2.15.21-3.1-.17-1.07-.43-1.19-1.83-1.28-2.81s-1.59-.96-1.5,0h0Z"/>
      <path class="cls-1" d="M26.83,7.36c.96.33,1.89.03,2.86-.11.35-.05.75-.09,1.09.04.29.12.44.38.58.64.37.69.64,1.4,1.32,1.85.82.54,1.83.41,2.74.26.4-.06.62-.56.52-.92-.12-.43-.52-.59-.92-.52-.62.1-1.39.23-1.81-.35s-.58-1.32-1.12-1.84c-.61-.6-1.47-.76-2.29-.67s-1.74.47-2.57.18c-.91-.32-1.31,1.13-.4,1.45h0Z"/>
      <path class="cls-1" d="M32.81,14.88c.08.86.14,1.74.35,2.58.19.79.61,1.46,1.16,2.05.94,1.01,2.42,1.78,2.7,3.24.08.4.55.63.92.52.42-.11.6-.52.52-.92-.3-1.53-1.57-2.47-2.65-3.46-.47-.44-.95-.93-1.14-1.56-.24-.78-.29-1.63-.36-2.44-.04-.4-.32-.75-.75-.75-.38,0-.79.34-.75.75h0Z"/>
      <path class="cls-1" d="M22.58,38.75c1.19-.43,2.46-.82,3.73-.97.65-.08,1.23.16,1.84.35.65.21,1.3.41,1.95.62.92.29,1.32-1.16.4-1.45-.67-.21-1.35-.43-2.02-.64-.72-.23-1.42-.46-2.18-.38-1.4.15-2.79.54-4.1,1.02-.38.14-.64.51-.52.92.1.37.54.66.92.52h0Z"/>
      <path class="cls-1" d="M22.76,13.93c.31-.08.64-.17.97-.14.25.03.35.13.45.38.34.83.49,1.69.53,2.57s.16,1.74.58,2.54c.39.74.99,1.35,1.7,1.79.82.51,1.58-.79.76-1.3-.62-.38-1.11-.97-1.34-1.67-.3-.93-.16-1.93-.35-2.88-.09-.46-.24-.9-.39-1.34-.17-.48-.38-.91-.8-1.22-.73-.54-1.69-.39-2.5-.18-.93.25-.54,1.69.4,1.45h0Z"/>
      <path class="cls-1" d="M7.45,20.49c.39.13.6.63.7,1.09.15.72-.02,1.62.38,2.27.34.56,1.04.77,1.53,1.16s.9.85,1.23,1.37c.51.81,1.81.06,1.3-.76-.39-.61-.86-1.18-1.43-1.65-.28-.23-.57-.45-.88-.64-.13-.08-.3-.14-.42-.24s-.04,0-.07-.14c-.09-.37-.06-.8-.1-1.18-.05-.4-.11-.8-.27-1.18-.3-.73-.81-1.31-1.57-1.57-.38-.13-.82.15-.92.52-.11.41.14.79.52.92h0Z"/>
    </g>
  </g>
</svg>