<?xml version="1.0" encoding="UTF-8"?>
<svg id="Layer_2" data-name="Layer 2" xmlns="http://www.w3.org/2000/svg" viewBox="0 0 43.64 41.17">
  <defs>
    <style>
      .cls-1 {
        fill: #1a1a1a;
      }
    </style>
  </defs>
  <g id="Layer_1-2" data-name="Layer 1">
    <g>
      <path class="cls-1" d="M18.32,1.71c-2.21.74-4.34,1.7-6.33,2.92-.58.36-.97.6-1.67.64-.43.02-.84.03-1.26.15-.81.23-1.52.76-2.06,1.39-1.12,1.3-1.92,3.21-1.91,4.93s1.18,3.35,3.02,3.26c.87-.04.99-1.18.2-1.47-2.03-.75-4.73-.75-6.13,1.18-1.06,1.45-.75,3.55.8,4.51l.18-1.37c-1.11.37-1.99,1.08-2.48,2.16-.65,1.41.05,2.45-.05,3.87-.05.71-.37,1.42-.48,2.13S.01,27.39,0,28.08c-.01,1.17-.03,1.75,1.05,2.25,1.37.64,1.26,2.33,1.26,3.62s.08,2.57.92,3.6,1.96,1.3,3.18,1.61c1.31.33,2.3,1.36,3.64,1.73,1.09.3,2.25.35,3.35.16.56-.09,1.09-.25,1.61-.47.32-.13.83-.5,1.18-.45.26.04.54.4.78.53,1.39.73,1.89-.47,3.19-.61,1.67-.18,3.52.31,5.2.34.65.01,1.2-.06,1.82-.27.89-.31,1.29-.38,2.21-.17,1.54.34,2.99.07,4.52-.18,1.65-.27,3.3-.54,4.95-.82,1.06-.17,3.32-.12,4.06-1.03.7-.86.66-2.82.7-3.86.06-1.54-.08-3.08-.38-4.59-.62-3.1-2.02-5.96-4.01-8.42v1.06c.16-.14,1.28.08,1.61-.06.38-.17.69-.46.9-.82.62-1.01.49-2.33.23-3.43-.09-.4-.84-1.66-.7-2.01.09-.24.9-.5,1.11-.75.74-.86.41-2.04-.25-2.83-.47-.56-1.07-.96-1.42-1.62s-.48-1.5-.71-2.23c-.34-1.07-.89-2.17-1.9-2.74-.52-.3-1.03-.34-1.61-.35s-.95-.1-1.43-.48c-.19-.15-.32-.35-.53-.49-.85-.58-1.9-.35-2.6.35l1.18.15c-.94-1.49-1.88-2.97-2.82-4.46-.25-.39-.84-.52-1.18-.15-.78.84-1.58,1.69-2.45,2.45-1.05.91-1.97-.02-3.01-.45-1.78-.75-3.65-.91-5.55-.61-.95.15-.55,1.59.4,1.45,1.28-.2,2.57-.12,3.8.26,1.06.33,2.01,1.23,3.09,1.39,1.89.29,3.67-2.23,4.78-3.42l-1.18-.15c.94,1.49,1.88,2.97,2.82,4.46.26.41.83.5,1.18.15.57-.58,1.76.96,2.43,1.08.54.09,1.11-.14,1.64,0,.61.16,1,.77,1.25,1.3.41.87.52,1.85.88,2.73s.97,1.33,1.53,2.07c1.09,1.42-.32,1.3-.83,2.23-.3.54-.11,1.07.12,1.59.34.78,1.28,3,.44,3.75-.4.36-1,.08-1.45.15-.37.06-.54.18-.82.42-.33.28-.24.77,0,1.06,1.61,1.99,2.76,4.3,3.4,6.77.3,1.17.48,2.36.54,3.57s.16,2.84-.26,3.99c-.23.65-.6.59-1.27.7-.71.12-1.41.23-2.12.35-1.41.23-2.83.47-4.24.7s-2.96.63-4.43.3c-1.28-.29-1.87-.19-3.1.2-1.32.41-2.84.09-4.2,0-1.08-.07-2.4-.39-3.42.05-.56.24-.83.75-1.47.52-.4-.14-.66-.52-1.1-.63-.99-.25-1.87.55-2.77.81-1.13.32-2.34.29-3.46-.06s-1.96-1.28-3.1-1.6c-1.35-.38-2.7-.42-3.21-2.02-.36-1.14-.06-2.41-.21-3.59-.12-.93-.42-1.89-1.1-2.57-.32-.33-.74-.41-1.07-.67-.21-.17-.16.6-.09-.39.03-.39,0-.79.02-1.19.06-1.35.71-2.69.58-4.04-.07-.74-.37-1.45-.23-2.19.18-.91.82-1.57,1.68-1.86.61-.21.75-1.02.18-1.37-1.21-.74-.67-2.35.36-2.95,1.18-.69,2.6-.44,3.81,0l.2-1.47c-2.35.12-1.37-3.28-.79-4.47.7-1.41,1.63-2.17,3.2-2.25,1.32-.07,2.27-.91,3.4-1.53,1.53-.85,3.14-1.53,4.8-2.09.91-.3.52-1.75-.4-1.45h0Z"/>
      <path class="cls-1" d="M36.38,26.5c-.96.62-1.96,1.59-2.15,2.77-.21,1.3.72,2.17,1.62,2.93.38.31.73.62.88,1.11.18.59.36,1.18.91,1.54s1.25.28,1.76-.12.72-1.02.85-1.64c.08-.4-.12-.81-.52-.92-.37-.1-.84.13-.92.52-.03.17-.1.82-.34.87-.12.03-.2-.36-.23-.47-.26-.87-.72-1.46-1.41-2.03-.43-.35-1.21-.86-1.13-1.51.08-.72.88-1.39,1.44-1.75.81-.52.06-1.82-.76-1.3h0Z"/>
      <path class="cls-1" d="M32.06,34.13c-.74.59-1.64,1.14-2.62,1.1-.55-.02-.92-.28-1.39-.52s-.93-.35-1.44-.38c-.95-.06-1.92.17-2.78.56-.43.2-.82.46-1.19.75-.28.22-.71.7-1.11.6-.94-.23-1.34,1.22-.4,1.45,1.15.28,1.85-.5,2.72-1.09s2.13-1.01,3.16-.7c.52.15.95.53,1.47.68s1.1.17,1.64.1c1.15-.16,2.11-.78,3-1.49.76-.6-.31-1.65-1.06-1.06h0Z"/>
      <path class="cls-1" d="M11.3,33.26c-.42-.27-.57-.98-.88-1.38-.41-.53-1.02-.83-1.68-.93-1.23-.19-3.06-.21-3.7,1.08-.33.66-.38,1.52-.22,2.24s.65,1.3,1.24,1.74,1.23.68,1.85,1.02,1.03.88,1.63,1.2c.77.4,1.63.41,2.47.27s1.67-.51,2.53-.59c.95-.09.96-1.59,0-1.5-.84.08-1.61.34-2.42.54-.63.15-1.37.27-1.95-.08-.32-.2-.58-.5-.88-.72-.28-.21-.57-.38-.88-.54-.61-.31-1.32-.57-1.8-1.08-.39-.43-.52-1.25-.24-1.78.26-.47,1.21-.36,1.66-.34.56.02,1.07.12,1.36.64.33.59.56,1.15,1.16,1.53.82.52,1.57-.78.76-1.3h0Z"/>
      <path class="cls-1" d="M8.54,16.9c-.47-.68-1.3-.97-2.09-.73-.39.12-.73.33-1.03.61s-.66.65-.75,1.03c-.14.63.32.96.77,1.26.35.23.7.47,1.04.7s.68.42,1.12.47c.14.02.28.01.43,0,.07,0,.14,0,.21,0,.03,0,.07,0,.1,0,.11,0-.1-.03,0,0,.09.03-.02-.01-.03-.02-.02-.03-.04-.05-.06-.08,0,0,.05.11.03.05-.02-.05.02.08.02.09.02.09,0,0,0-.01,0,.05,0,.1,0,.15,0,.04,0,.07,0,.11,0,.12.02-.1,0,.02-.02.09-.04.17-.07.25,0,0-.05.11-.02.05.02-.06-.04.07-.04.08-.02.03-.13.21-.07.13-.06.08-.13.15-.21.22-.3.27-.28.78,0,1.06.3.3.76.27,1.06,0,.9-.82,1.38-2.89-.03-3.49-.28-.12-.59-.14-.89-.13-.12,0-.24,0-.36,0,.15.01-.04-.01-.07-.03.09.04-.03-.03-.06-.05-.28-.18-.55-.37-.82-.55-.13-.09-.27-.18-.4-.27-.08-.05-.16-.11-.24-.16l-.08-.05c-.12-.09-.11-.07.05.06l.1.38c0,.07-.02.14-.06.19.04-.05.08-.1.12-.14.08-.09.16-.18.24-.26.04-.04.08-.07.12-.1-.05.04-.04.03.04-.02.03-.02.26-.13.17-.1.04-.01.31-.06.17-.05.05,0,.09,0,.14,0-.08-.02-.08-.01,0,0,.04.01.09.02.13.04-.07-.03-.07-.03,0,.01.07.05.08.05,0,0,.06.06.06.07.01,0,.23.33.66.48,1.03.27.33-.19.5-.69.27-1.03h0Z"/>
      <path class="cls-1" d="M10.37,12.02c.44-.46.92-.99,1.54-1.2.33-.11.66-.05,1-.07.45-.03.86-.18,1.19-.5.48-.45.65-1.08,1-1.62.39-.58.99-.82,1.54-1.22.64-.47,1.09-1.18.93-2s-.98-1.3-1.77-1.09c-.74.19-1.21.78-1.62,1.38-.16.23-.33.48-.55.65-.25.2-.59.25-.88.34-.78.24-1.5.67-2.03,1.3-.29.34-.52.69-.69,1.1-.11.26-.2.57-.4.66-.37.17-.46.7-.27,1.03.22.38.66.44,1.03.27.62-.29.79-.92,1.07-1.48.24-.48.6-.88,1.07-1.16.56-.33,1.23-.38,1.79-.72s.92-.89,1.29-1.41c.12-.17.26-.35.45-.45.06-.03.14-.07.14-.06,0,.03-.11-.13-.08-.11.06.03-.01.25-.04.29-.17.24-.47.38-.71.52-.61.37-1.13.81-1.53,1.41-.27.4-.43,1.03-.76,1.31.06-.05-.05.03-.05.03.04-.02-.11.03-.14.03-.2.02-.42-.01-.62,0-.42.02-.8.13-1.18.31-.67.32-1.22.86-1.73,1.39-.67.7.39,1.76,1.06,1.06h0Z"/>
      <path class="cls-1" d="M23.19,7.46c.73.31,1.24,1.04,2.1.94.91-.1,1.3-.83,1.8-1.49.15-.19.34-.41.58-.47.28-.07.57.09.81.23.34.2.64.45.98.65.18.1.37.19.56.27.08.03.15.05.23.08.06.01.12.03.17.04.22.07.15-.08-.19-.45l.19-.33-.05.05.33-.19c-.08.03-.41.04-.6.05-.25,0-.51.01-.75-.03-.43-.07-.74-.28-1.11-.52-.78-.51-1.99-.63-2.5.33-.45.85.84,1.61,1.3.76.1-.18-.03.05-.06.02.02.01.12-.02.16,0,.11.03.36.2.5.3.46.31.94.52,1.49.59s1.1.07,1.64.01c.69-.07,1.14-.67.88-1.35-.23-.59-.79-.59-1.28-.83s-.87-.62-1.35-.86c-1.09-.55-2.22-.33-3,.62-.2.24-.36.52-.55.76-.06.07-.13.16-.2.21s-.2.05-.1.08c-.24-.05-.47-.33-.67-.46-.28-.19-.59-.32-.9-.45-.37-.16-.83.17-.92.52-.12.43.15.76.52.92h0Z"/>
      <path class="cls-1" d="M15.12,16.63c-.89-.33-1.74.22-2.25.92-.23.32-.5.7-.52,1.11-.03.5.24.9.64,1.18,1.4.97,3.29.24,4.14-1.09.2-.31.31-.66.49-.98.17-.3.4-.49.69-.66.68-.39,1.47-.55,1.84-1.32.17-.36.23-.76.23-1.15,0-.47-.02-.97-.45-1.26-.6-.4-1.6-.28-2.24-.05-.82.3-1.46.86-1.88,1.62-.19.34-.35.72-.61,1.01s-.55.49-.9.65c-.37.17-.46.7-.27,1.03.22.37.66.44,1.03.27.48-.23.92-.56,1.27-.97.37-.44.59-.94.89-1.43.21-.34.52-.6.87-.74.18-.07.38-.12.54-.14s.45-.03.54.03l-.27-.27c-.04-.21-.05-.23-.03-.07,0,.05,0,.1,0,.15,0,.12.01.24,0,.35-.01.13-.03.26-.11.36-.22.27-.73.36-1.03.52-.42.21-.82.5-1.12.87-.32.39-.47.85-.71,1.29-.34.6-1,1.03-1.7.88-.12-.03-.3-.13-.38-.15-.11-.12-.1-.07.01.15-.03.11-.03.13,0,.06.08-.07.14-.24.2-.32.17-.26.39-.52.68-.41.38.14.82-.16.92-.52.11-.42-.14-.78-.52-.92h0Z"/>
      <path class="cls-1" d="M8.55,24.97c-.59-.48-1.17-1.01-1.66-1.6-.36-.43-.72-.99-.7-1.57.01-.44.13-.85-.22-1.21-.3-.32-.77-.36-1.16-.23-.63.22-1.3.62-1.68,1.18-.44.64-.37,1.38-.11,2.06.1.26.24.55.26.82.03.35-.12.71-.21,1.04-.1.4-.16.81-.2,1.22s-.09.86.11,1.22c.46.84,1.51.51,2.14.1.32-.22.6-.37.98-.46s.77-.14,1.14-.26c.78-.25,1.5-.77,1.72-1.6.24-.93-1.2-1.33-1.45-.4-.03.11-.07.19-.16.27-.1.09-.24.17-.39.24-.32.14-.74.19-1.1.27-.44.1-.88.24-1.26.49-.17.11-.32.23-.5.32-.05.03-.08.04-.13.06-.1.03.09.05-.06,0l.33.19c.07.05.04.38.08.18.02-.07,0-.17,0-.24,0-.17.02-.34.04-.51.04-.32.12-.64.21-.96.19-.68.26-1.32.01-2-.09-.25-.21-.5-.28-.76-.05-.2-.07-.31.04-.46.09-.13.27-.25.44-.35.12-.07.25-.13.37-.19.2-.1.08,0,0-.03l-.33-.19-.02-.02-.1-.38c.02.2-.04.43-.04.65,0,.25.04.52.11.76.12.45.35.89.62,1.27.57.82,1.31,1.51,2.08,2.14.31.26.75.31,1.06,0,.26-.26.32-.8,0-1.06h0Z"/>
      <path class="cls-1" d="M34.75,10.05c.16.06.34.17.49.27.06.04.4.38.38.39-.01,0,0-.09,0-.1.07-.11.02-.03-.05.03-.13.12-.27.23-.39.36-.4.43-.51,1.02-.23,1.55.25.47.72.67,1.14.95.05.04.08.05.09.07-.02-.1-.01,0-.01.05,0,.26-.05.53-.08.79-.01.12-.04.25-.04.37,0,.32.16-.2.38-.24.05,0,.1.06.03,0-.03-.03-.08-.04-.11-.07.07.06-.12-.16-.08-.09-.13-.18-.18-.41-.29-.6-.16-.26-.37-.47-.59-.67-.3-.28-.64-.59-.8-.96s-.11-.63.15-.91c.2-.22.38-.44.48-.73.04-.1.06-.21.08-.32,0-.04.02-.07.03-.11.02-.08.03-.09,0-.04-.04.11-.13.19-.27.22.38-.14.64-.51.52-.92-.1-.37-.54-.66-.92-.52s-.61.36-.74.73c-.04.11-.07.23-.09.35-.01.05-.02.1-.04.14.05-.12-.07.08,0,0-.2.22-.41.42-.55.68-.18.32-.26.71-.24,1.08.04.72.38,1.34.85,1.88.2.22.42.42.63.62.23.22.3.48.46.76.33.58,1.04,1.09,1.74.94.89-.19.87-1.14.95-1.87.04-.34.09-.69,0-1.03-.11-.37-.38-.65-.69-.87-.18-.12-.43-.23-.57-.34-.02-.02-.07-.08-.08-.08l-.02-.04c.04.06.05.12.04.19,0,.01-.05.12-.06.1,0,0,.14-.14.15-.15.22-.2.45-.38.59-.66.2-.4.18-.85-.01-1.25-.34-.71-1.1-1.16-1.81-1.44-.38-.15-.82.16-.92.52-.12.42.14.78.52.92h0Z"/>
      <path class="cls-1" d="M37.39,17.95c0-.08.06-.12,0-.05.1-.11-.1.09-.05.05.06-.04-.15.08-.09.05s-.05.02-.05.02c-.05.01-.09.03-.14.04-.37.07-.81-.01-1.21.03-.85.09-1.58.52-2.09,1.2s-.75,1.79-.1,2.51c.37.41.87.47,1.38.39.05,0,.09-.02.14-.02-.1.01.02,0,.03,0-.15-.05-.18-.15-.3-.26-.01-.01,0-.11,0-.02,0,.04,0,.08.01.12.02.15.04.29.08.43.3,1.01,1.44,1.75,2.43,1.13l-.91-.12c.11.1,0,0,0-.04.12.39.52.63.92.52s.64-.53.52-.92c-.07-.24-.19-.45-.38-.62-.24-.22-.62-.3-.91-.12-.08.05-.08.05-.02.02.08,0,.07,0-.02,0,.08.02.07.01-.02,0,.06.04.05.03-.03-.01-.07-.05-.08-.05-.03-.02-.06-.07-.07-.08-.03-.03-.01-.02-.1-.21-.06-.11-.01-.03-.08-.3-.06-.19-.02-.14-.02-.28-.06-.42-.07-.28-.25-.52-.5-.67-.23-.14-.52-.19-.78-.16-.13.01-.25.05-.38.06,0,0-.14,0,.01.01.03.01.05.03.07.06-.04-.08-.05-.09-.01-.02.01.08,0-.19,0-.15,0-.04.05-.17.08-.24-.05.11.08-.13.09-.16.03-.04.05-.08.08-.13-.04.05-.03.04.02-.02.05-.05.11-.11.16-.16.07-.06.08-.07.02-.03.04-.03.08-.06.12-.09.08-.05.17-.1.26-.15-.11.05.15-.04.17-.05.02,0,.21-.04.12-.03.26-.04.53,0,.79,0,1.05,0,2.08-.48,2.2-1.63.04-.4-.38-.75-.75-.75-.44,0-.71.35-.75.75h0Z"/>
      <path class="cls-1" d="M16.56,12.53c.78-.25,1.5-.67,2.07-1.26.34-.35.53-.74.56-1.23.01-.2,0-.4.01-.6,0-.12.04-.31.06-.38,0,0,.11-.19.06-.12,0,0,.17-.16.09-.09.1-.08.06-.03,0-.02.08-.01.09,0,.16.02.31.13.61.38.84.62.45.46.56,1.24.64,1.84.05.4.31.75.75.75.37,0,.8-.35.75-.75-.12-.96-.27-1.91-.89-2.69-.31-.39-.73-.73-1.16-.98-.46-.27-1.01-.42-1.53-.24-1.09.37-1.28,1.53-1.28,2.53,0,.1.02.07-.02.16.02-.05,0-.04-.04.04.03-.05.02-.04-.04.03-.12.11-.29.28-.37.35-.34.27-.69.44-1.07.56s-.63.52-.52.92c.1.38.54.65.92.52h0Z"/>
      <path class="cls-1" d="M28.04,13.44c.77-.15,1.27.55,1.47,1.19.13.43.33,1.37,0,1.77-.66.84-1.37-.54-1.52-1.01-.18-.59-.35-1.09-.74-1.58-.76-.96-1.48-1.38-2.65-.79-.97.49-1.79,1.26-2.39,2.15-.66.97-.86,2.05-1.17,3.16-.39,1.4-1.54,2.16-2.79,2.78-2.16,1.07-5.16-.05-6.61,2.4-.49.83.8,1.59,1.3.76.86-1.46,3.04-1.01,4.45-1.29s2.75-1.08,3.77-2c1.1-.98,1.27-2.29,1.67-3.63.2-.67.52-1.29.97-1.82.31-.36,1.27-1.42,1.83-1.29.3.07.69.84.78,1.07.14.36.2.76.36,1.12.23.53.59,1.02,1.1,1.33.97.59,2.34.4,2.94-.61s.38-2.6-.13-3.62c-.58-1.17-1.77-1.8-3.05-1.55-.95.18-.55,1.63.4,1.45h0Z"/>
      <path class="cls-1" d="M32.43,25.2c-1.47.69-3.07,1.67-3.18,3.47-.05.78.29,1.51.45,2.26.08.37-.02.68-.01,1.05,0,.44.24.84.63,1.05.64.36,1.72.27,2.28-.19.65-.54.74-1.41.56-2.19-.09-.37-.28-.74-.32-1.12-.02-.3.14-.49.35-.68.52-.46,1.13-.77,1.63-1.27.59-.6,1.06-1.35,1.72-1.88.3-.24.36-.13.6.18.31.39.56.76,1,1.01.84.47,1.6-.82.76-1.3-.54-.3-.75-.98-1.29-1.3-.59-.35-1.28-.28-1.83.11-.98.71-1.55,1.84-2.52,2.56-.91.67-1.96,1.27-1.92,2.57.02.64.47,1.25.41,1.88-.02.21-.08.3-.22.31-.13.02-.43.03-.49-.04l.19.33c-.09-.22.04-.57.02-.82-.02-.29-.07-.58-.14-.86-.14-.53-.42-1.1-.35-1.66.14-1.18,1.51-1.75,2.44-2.18.37-.17.46-.7.27-1.03-.22-.38-.66-.44-1.03-.27h0Z"/>
      <path class="cls-1" d="M9.65,28.76c.23.62.73,1.01,1.4,1.06s1.27-.34,1.76-.78.96-.89,1.37-1.39c.22-.26.42-.53.6-.82.08-.13.15-.26.21-.39.04-.08.26-.43.1-.33l-.38.1h.1c-.13-.04-.25-.07-.38-.11.3.14.6.68.75.98.17.35.27.75.2,1.14-.16.95-.99,1.72-1.34,2.61s-.4,2.16.48,2.76c.48.32.87.16,1.39.19.16,0,.41.22.15.32-.38.14-.64.51-.52.92.1.36.54.67.92.52,1.35-.51,1.67-2.37.29-3.08-.31-.16-.65-.2-.99-.17-.08,0-.17.03-.25.03-.07,0-.23-.05-.17.01.02.02-.03-.27-.03-.34-.02-.67.48-1.28.81-1.81.37-.58.69-1.19.77-1.89s-.1-1.42-.44-2.04c-.27-.52-.77-1.29-1.35-1.49-.79-.28-1.14.39-1.43.98-.33.67-.85,1.2-1.38,1.72-.25.24-.49.5-.77.7-.1.07-.22.15-.35.16-.07,0-.1-.05-.07.03-.33-.9-1.78-.51-1.45.4h0Z"/>
      <path class="cls-1" d="M20.76,25.34c-.28-.3-.73-.41-1.13-.3s-.66.41-.87.73c-.38.58-.58,1.27-.66,1.95s0,1.4.25,2.04c.15.39.41.7.83.8s.84-.06,1.19-.29c.54-.35,1.1-.75,1.51-1.25.25-.3.39-.6.55-.95.12-.26.32-.38.55-.56.55-.44.96-1.12.93-1.85s-.43-1.35-.91-1.89c-.27-.3-.56-.64-.96-.77-.51-.16-1,.08-1.28.51-.2.31-.32.7-.47,1.04-.17.39-.32.81-.53,1.18-.48.84.82,1.6,1.3.76.25-.44.43-.93.63-1.39.09-.22.23-.45.29-.67,0-.03.03-.07.03-.07.01.03-.46.04-.46.07,0,.03.16.16.2.2.25.26.53.57.63.88.09.27,0,.52-.23.76-.33.33-.72.53-.95.95-.21.38-.29.72-.61,1.03-.28.28-.62.52-.95.74-.02.02-.16.08-.17.1,0,0,.3.18.31.17.01,0-.01.13-.01-.03,0-.19-.13-.43-.16-.62-.06-.44-.01-.89.11-1.32.06-.21.14-.4.25-.6.04-.06.13-.22.14-.23.04-.08.11-.03,0-.02-.14,0-.26.1-.39-.05.66.71,1.72-.35,1.06-1.06h0Z"/>
      <path class="cls-1" d="M26.63,17.9c-.36-.31-.79-.69-1.29-.71-.61-.02-.93.44-1.22.9-.22.35-.5.71-.61,1.11-.07.27-.03.53-.07.8-.03.25-.12.48-.12.74,0,.46.31.78.4,1.21.09.39.05.8.19,1.19.18.51.48.77.88,1.11.12.1.16.21.24.35.16.26.37.45.65.58,1.01.46,1.87-.23,2.51-.94.12-.13.24-.27.37-.38s.12-.04.02-.06c.08.01.2.1.27.15.42.24.83.63,1.3.76,1.07.29,1.76-1.07,1.96-1.93.24-1.03-.42-2.02-1.33-2.47-.25-.12-.52-.21-.8-.22-.11,0-.21,0-.32.02-.08.01-.32-.02-.12.04-.28-.08-.7-.32-.84-.59-.1-.19-.13-.41-.25-.6-.15-.24-.39-.42-.66-.5-.34-.11-.76-.05-.99-.33-.25-.32-.8-.26-1.06,0-.31.31-.25.74,0,1.06.23.29.58.47.93.57.15.04.29.07.44.09.05,0,.1.02.14.02.06.02.06,0,0-.03-.03.02-.05-.06-.07-.06-.1.03.48.91.53.97.24.25.56.45.87.6.39.2.7.31,1.14.25.28-.03.44.04.65.25s.34.35.25.65c-.05.17-.13.34-.22.49-.04.07-.08.14-.13.21-.13.19-.09.09-.02.08h.4c-.24-.03-.47-.27-.68-.4-.24-.15-.49-.3-.76-.42-.65-.29-1.26-.09-1.77.37-.32.28-.61.85-1.03.98.07-.02-.17.03-.13,0-.08-.03-.06-.01.04.04-.03-.03-.06-.07-.07-.12-.12-.27-.33-.48-.56-.65-.13-.1-.28-.19-.36-.34-.1-.19-.1-.44-.12-.65-.02-.25-.04-.51-.13-.75-.06-.17-.26-.42-.28-.6-.01-.1.04-.2.06-.29.04-.19.06-.37.06-.56,0-.22.02-.31.14-.49.08-.13.16-.25.24-.38.06-.1.22-.26.24-.38.11-.13.05-.13-.17-.02-.25,0-.29.04-.13.11.06.09.24.18.33.25.31.26.76.3,1.06,0,.27-.27.31-.8,0-1.06h0Z"/>
      <path class="cls-1" d="M25.52,33.23c1.09.38,2.33-.77,2.8-1.66.53-.99.42-2.33-.53-3.03-.5-.37-1.11-.42-1.71-.44-.67-.02-1.35-.04-2.02,0-1.32.06-2.09,1.3-2.86,2.23-.47.57-.93,1.14-1.38,1.73s-.99,1.2-.99,2c0,.97,1.5.97,1.5,0,0-.24.18-.43.31-.62.18-.24.36-.48.54-.71.35-.45.71-.89,1.07-1.33.4-.48.8-.95,1.22-1.41.12-.13.24-.3.41-.36.22-.08.54-.02.76-.03.59,0,1.19-.03,1.78.03.38.03.63.16.7.56.06.35-.09.68-.31.95-.15.18-.66.75-.91.67-.91-.32-1.31,1.13-.4,1.45h0Z"/>
    </g>
  </g>
</svg>