<?xml version="1.0" encoding="UTF-8"?>
<svg id="Layer_2" data-name="Layer 2" xmlns="http://www.w3.org/2000/svg" viewBox="0 0 34.38 35.04">
  <defs>
    <style>
      .cls-1 {
        fill: #1a1a1a;
      }
    </style>
  </defs>
  <g id="Layer_1-2" data-name="Layer 1">
    <g>
      <path class="cls-1" d="M27.73,3.62c-.61-.39-.45-1.13-.71-1.72-.29-.66-.88-.96-1.53-1.2C23.68,0,21.48,0,19.56,0c-4.03,0-8.52.59-12.18,2.41-1.43.71-2.84,1.65-3,3.35-.22,2.24,0,4.3-1.54,6.15-.95,1.14-2.11,2.14-2.61,3.58-.67,1.94.37,3.73.57,5.64.09.84.02,1.65.35,2.44.29.7.8,1.27,1.32,1.82,1.27,1.36,1.95,2.86,2.74,4.52.66,1.38,1.48,2.67,2.79,3.5,1.45.91,3.23,1.13,4.91,1.11,2.29-.03,4.45-.37,6.71.18,1.8.44,3.47.55,5.23-.13,3.38-1.3,5.47-4.32,6.82-7.55,1.51-3.64,3.35-8.23,2.52-12.23-.21-.99-.62-1.89-1.19-2.73-.72-1.06-1.17-2.08-1.62-3.28-.74-1.97-1.88-3.66-3.48-5.04-.73-.63-1.79.43-1.06,1.06,1.33,1.15,2.36,2.53,3.02,4.17.3.76.51,1.55.87,2.29s.89,1.35,1.3,2.06c1.82,3.13.38,7.02-.66,10.17s-2.36,6.7-5.25,8.72c-1.32.92-2.93,1.52-4.56,1.36-.82-.08-1.61-.38-2.42-.53-.99-.19-2-.22-3-.19-3.36.11-7.08.78-9.06-2.62-.71-1.21-1.15-2.55-1.86-3.77s-2.3-2.25-2.74-3.63c-.23-.73-.12-1.56-.24-2.31-.14-.84-.43-1.65-.6-2.48-.38-1.94.47-3.05,1.7-4.41.82-.91,1.59-1.83,2-3.01.26-.73.37-1.51.44-2.28.1-1.06-.19-2.56.54-3.41,1.19-1.4,3.59-1.96,5.29-2.4,2.22-.58,4.5-.91,6.8-1,2.01-.07,4.29-.13,6.23.44,1.22.36.95.7,1.29,1.67.21.58.57.95,1.08,1.28.82.52,1.57-.78.76-1.3h0Z"/>
      <path class="cls-1" d="M22.4.28c-.66.33-1.27.75-1.78,1.29-.46.49-.74,1.2-1.24,1.64-.57.5-1.69.35-2.39.46-.75.12-1.47.32-2.17.61-1.23.51-2.39,1.33-2.15,2.84.2,1.22,1.2,2.03,2.36,2.29.69.15,1.37-.04,2.05.06.75.11,1.09.84,1.69,1.23.55.35,1.16.43,1.8.37.69-.07,1.54-.43,2.2-.1.6.31,1.09,1.09,1.49,1.6.54.69.91,1.42,1.34,2.17.36.62.95,1.19,1.12,1.9.24,1-.33,2.07-.77,2.93s.86,1.62,1.3.76c.63-1.25,1.28-2.66.92-4.09-.16-.66-.56-1.17-.93-1.72-.44-.66-.75-1.39-1.19-2.04-.69-1.03-1.59-2.41-2.76-2.92-.53-.23-1.09-.24-1.66-.16-.7.09-1.52.41-2.16-.05-.5-.36-.81-.88-1.39-1.15-.64-.3-1.3-.19-1.98-.19s-1.79-.17-1.94-1.03c-.16-.96,1.18-1.33,1.88-1.55,1.31-.41,3.04-.09,4.17-.96.5-.39.77-.96,1.15-1.46.48-.63,1.08-1.07,1.78-1.42.86-.43.1-1.73-.76-1.3h0Z"/>
      <path class="cls-1" d="M17.58,33.71c1.95-.78,4.29-2.03,4.19-4.49-.05-1.22-.75-2.03-1.95-2.14-1.44-.13-2.9-.06-4.34.04-.69.05-1.43.13-2.11-.08-.58-.18-.85-.51-1.23-.95-.76-.87-1.95-.16-2.88-.03-1.23.17-1.61-.6-1.94-1.61-.28-.87-.57-1.76-1.3-2.36s-1.8.44-1.06,1.06c1.2,1,.9,2.94,2.21,3.92.78.58,1.71.59,2.63.42.29-.05.57-.13.85-.2.12-.03.24-.06.36-.09.27-.04.32-.06.14-.06-.2-.15.26.45.31.5.15.15.33.29.51.4.88.56,1.94.67,2.95.63,1.24-.06,2.46-.16,3.71-.13.57.01,1.51-.14,1.63.58.09.5-.1,1.02-.38,1.43-.62.9-1.72,1.34-2.69,1.73-.89.35-.5,1.81.4,1.45h0Z"/>
      <path class="cls-1" d="M9.6,8.87c-1.25.02-1.99,1.04-2.46,2.08-.28.62-.16,1.29.42,1.68.53.36,1.15.28,1.74.14s1.1-.32,1.63-.54c.4-.17.96-.53,1.41-.38.41.14.76.58,1.03.89.36.41.68.84.98,1.29.52.81,1.82.06,1.3-.76s-1.1-1.58-1.81-2.21c-.79-.7-1.7-.93-2.7-.54-.45.17-.88.38-1.34.54-.21.07-.42.13-.63.19s-.51.06-.7.14c0,0-.07,0-.06-.01,0-.09.02,0,.07.26l.02-.06c.14-.14.22-.44.32-.61.18-.29.42-.6.79-.61.96-.01.97-1.51,0-1.5h0Z"/>
      <path class="cls-1" d="M25.24,30.13c2.03-.78,3.32-2.83,4.11-4.76.42-1.04.46-2.42-.46-3.22-.45-.39-1.03-.6-1.62-.51s-1.04.47-1.38.94c-.38.51-.6,1.14-.69,1.77-.04.26-.07.52-.13.78-.04.17-.09.37-.18.44-.33.24-.49.65-.27,1.03.19.32.7.51,1.03.27.48-.35.76-.81.88-1.39.11-.52.12-1.07.32-1.56.12-.29.38-.8.71-.81s.54.39.57.7c.06.53-.18,1.06-.42,1.52-.25.48-.51.96-.8,1.42-.51.79-1.17,1.58-2.08,1.93-.38.15-.64.5-.52.92.1.36.54.67.92.52h0Z"/>
      <path class="cls-1" d="M19.81,15.14c-.25-.41-.07-.92.35-1.14.46-.24,1.04-.13,1.47.11,1.06.61,1.67,1.96,1.81,3.14.16,1.38-.37,2.68-.76,3.97s-.63,2.72-.19,4.06c.3.91,1.75.52,1.45-.4-.61-1.82.4-3.62.81-5.37s.21-3.54-.74-5.05c-.84-1.33-2.31-2.42-3.95-2.01-1.49.37-2.37,2.09-1.54,3.45.5.82,1.8.07,1.3-.76h0Z"/>
      <path class="cls-1" d="M6.11,16.07c-1.5-.18-2.87,1.78-2.38,3.16.25.72.91,1.1,1.63,1.23.28.05.56.07.83.14.07.02.13.04.2.06.2.06-.1-.07.08.03.04.02.08.05.12.07.07.05.07.05,0,0,.03.03.06.06.09.09-.1-.11.02.04.03.07-.06-.12.03.11.03.11.06.18.12.36.23.52.23.35.59.58.99.68.67.18,1.69.22,2.11-.44.2-.31.22-.72.26-1.08s.04-.75,0-1.12c-.06-.73-.21-1.44-.49-2.12-.18-.45-.37-.96-.83-1.2-.36-.19-.9-.12-1.22-.16-.46-.07-.89-.28-1.36-.28s-.98.25-1.16.69c-.16.37-.11.8.27,1.03.32.18.87.11,1.03-.27.06-.13,0-.01-.04.01l-.03.02c-.08.03-.08.03,0,0,0,.05-.24-.05.02.01-.06-.02.08.03.07.02.29.09.58.17.88.21s.62.1.91.07h.08c-.08-.03-.16-.07-.24-.1l-.02-.03s.04.07.06.11c.03.06.06.13.1.19,0,.02.09.21.06.14.18.44.34,1.05.39,1.43.03.26.04.52.04.78,0,.24-.02.55-.05.7,0,.06-.03.13-.04.19v.04c.04-.13.11-.21.22-.26,0,0,.18,0,0,0-.05,0-.09,0-.14,0-.12,0-.23,0-.35-.01-.03,0-.14-.03,0,0-.07-.01-.13-.03-.2-.05-.2-.05.08.04-.03-.01l-.03-.02c-.07-.05-.07-.05,0,0-.01,0-.1-.13,0,0-.08-.11-.03-.07-.02-.03-.12-.31-.21-.6-.43-.86-.33-.39-.84-.62-1.34-.72-.21-.04-.42-.06-.63-.1-.09-.02-.19-.03-.28-.06-.06-.01-.11-.03-.17-.05-.03-.01-.07-.02-.1-.03.06.03.07.03.03,0-.05-.03-.1-.05-.14-.09.12.09-.06-.09.03.03-.03-.04-.06-.09-.08-.13.06.14-.01-.14,0,.03,0-.05,0-.1,0-.15,0-.15-.03.03.01-.1.02-.06.03-.12.05-.19.02-.05.02-.05,0,0,.02-.04.03-.07.05-.1.03-.06.06-.11.09-.17.01-.02.13-.19.06-.1.08-.1.17-.2.27-.27-.09.07.26-.12.12-.07,0,0,.22-.05.11-.04-.05,0-.04,0,.05,0,.05,0,.1,0,.15.01.39.05.77-.38.75-.75-.02-.45-.33-.7-.75-.75h0Z"/>
      <path class="cls-1" d="M10.62,3.87s-.01.1-.02.14c0-.01.02-.11,0-.02-.01.08-.03.17-.05.25-.02.09-.05.18-.08.28,0-.01.06-.11.02-.05-.03.04-.05.09-.07.13,0,.01-.07.09,0,.02.06-.08-.02.02-.04.03-.02.02-.04.04-.06.06.12-.11.04-.04.01-.02-.03.03-.11.03,0,0-.03,0-.06.02-.09.03-.08.02-.17.04-.25.06-.4.11-.75.33-1.04.62-.23.22-.42.47-.66.69-.11.1-.03.02,0,0-.04.02-.07.05-.11.07-.01,0-.11.06-.02.02s-.02,0-.04.01c-.18.05.09-.01-.05.01-.02,0-.11.03-.01,0,.12-.02-.05.02-.06-.02,0-.02.16.11.03.01,0,0,.1.1.05.04-.07-.08.07.11.01.02-.04-.07.02.04.02.05-.03-.16,0,.03,0,.03,0,0,0-.08,0-.09,0-.03.02-.15,0-.05-.02.11.02-.07.02-.08,0-.03.02-.06.03-.09.02-.1-.06.11,0,.01.03-.06.06-.12.1-.18.02-.03.03-.05.05-.08.01-.02.09-.12.03-.04-.06.07,0,0,.02-.02.03-.04.07-.08.1-.11.1-.1.21-.2.32-.29.02-.01.12-.09.05-.04-.07.05.01,0,.02-.02.08-.05.15-.11.23-.16.15-.1.29-.2.45-.28.04-.02.08-.04.12-.06.1-.05-.15.04.04-.01.03,0,.06-.02.1-.03.08-.02.13-.02.02,0,.21-.01.42-.02.62-.05.27-.04.49-.17.7-.34.31-.25.28-.81,0-1.06-.33-.3-.73-.26-1.06,0,0,0,.13-.07.13-.08-.01.02-.19.02-.07.02.11,0-.02,0-.05,0-.05,0-.1,0-.15,0-.24,0-.48.04-.7.12-.4.14-.76.38-1.11.63-.73.53-1.39,1.2-1.49,2.14-.06.54.16,1.08.62,1.38.38.25.91.3,1.34.15s.8-.45,1.11-.8c.13-.14.25-.28.38-.41.04-.04.08-.07.12-.11-.03.02-.11.07,0,0,.04-.02.08-.04.11-.06-.12.07.02,0,.06-.02.25-.07.5-.12.72-.25.25-.14.45-.35.6-.58.31-.46.37-1,.44-1.54.05-.39-.38-.77-.75-.75-.45.02-.7.33-.75.75h0Z"/>
      <path class="cls-1" d="M17.36,24.12c-.87.1-2.15-.12-2.25-1.21-.02-.29.04-.59.03-.89-.02-.32-.09-.63-.24-.92-.27-.53-.74-.89-1.2-1.24l.15,1.18c.33-.37.83-.42,1.3-.43.39,0,.83-.02.97.41.17.5.09,1.05.26,1.55.26.77.86,1.01,1.62,1.09,1.24.13,2.48-.34,3.16-1.41.34-.54.6-1.19.8-1.8.22-.68.29-1.41.06-2.09-.31-.91-1.76-.52-1.45.4.19.56.02,1.1-.18,1.63-.18.46-.39,1.06-.77,1.4-.33.29-.77.39-1.2.4-.13,0-.27,0-.4-.02-.1-.01-.32-.15-.18.03-.1-.13-.11-.38-.12-.54-.06-.53-.09-1.07-.37-1.55s-.8-.81-1.36-.92c-1.07-.2-2.44-.06-3.2.8-.35.4-.24.87.15,1.18.42.32.71.59.69,1.13-.03.68-.02,1.28.35,1.88.71,1.15,2.08,1.6,3.37,1.45.4-.05.75-.31.75-.75,0-.37-.34-.8-.75-.75h0Z"/>
      <path class="cls-1" d="M22.94,6.86c.87.01,1.73.22,2.49.66.34.19.59.43.79.76.21.35.37.73.61,1.06.93,1.3,2.79,1.7,4.16.84.82-.51.07-1.81-.76-1.3-.45.28-1,.33-1.5.14-.67-.26-.88-.94-1.22-1.5-.91-1.53-2.89-2.14-4.58-2.16-.97-.01-.97,1.49,0,1.5h0Z"/>
    </g>
  </g>
</svg>