<?xml version="1.0" encoding="UTF-8"?>
<svg id="Layer_2" data-name="Layer 2" xmlns="http://www.w3.org/2000/svg" viewBox="0 0 37.15 36.3">
  <defs>
    <style>
      .cls-1 {
        fill: #1a1a1a;
      }
    </style>
  </defs>
  <g id="Layer_1-2" data-name="Layer 1">
    <g>
      <path class="cls-1" d="M26.55,4.09c-1.96-1.3-2.77-3.63-5.33-4.03-1.99-.31-3.91.54-5.09,2.15l1.03-.27c-1.06-.53-2.15-.54-3.17.1-.69.43-1.12.84-1.98.91-.66.06-1.34-.04-2-.05-2.63-.04-5.17,1.43-7.03,3.21-.95.91-1.21,2.46-1.56,3.68-.44,1.57-.8,3.17-1.05,4.78-.16,1.03-.14,1.97.88,2.51.54.28,1.15.37,1.69.66.77.42,1.37,1.01,1.85,1.74l.45-1.1c-1.16.32-2.35.59-3.49.95-.72.23-1.38.54-1.62,1.33-.27.88-.04,2.02.15,2.9.14.67.53,1.39.49,2.08-.02.37-.18.6-.09.99.22.94,1.15,1.34.86,2.48-.19.75-.65,1.32-.16,2.08.84,1.31,3.08,1.98,4.51,1.63l-.85-.34c1.23,2.55,4.56,2.59,6.06.28.35-.54-.23-1.3-.85-1.1-1.23.41-2.06,1.87-1.31,3.08s2.42,1.19,3.34.26h-1.06c.67.8,1.64,1.26,2.68,1.31s1.76-.45,2.68-.9c.45-.22.88-.29,1.29-.62.15-.12.29-.36.44-.45.21-.11.86-.13,1.08-.18,1.53-.34,2.98-.89,4.39-1.57l-.91-.12c1.55,1.35,3.49,1.12,5.38.81,1.43-.24,2.87-.47,4.3-.73.78-.14,1.45-.41,1.63-1.26.1-.48-.02-.98.03-1.47.07-.69.33-1.32.68-1.93.58-1.01,1.73-1.81,2.15-2.9.54-1.42-.94-2.87-2.22-1.8l1.28.53c.16-2.25-.28-4.45-.69-6.65-.37-1.93-.79-3.86-1.58-5.66s-1.87-3.26-3.22-4.58c-1.23-1.21-2.67-2.84-4.52-2.84-.97,0-.97,1.5,0,1.5,1.53,0,3.23,2.1,4.2,3.17,1.2,1.32,2.07,2.87,2.64,4.56.52,1.53.83,3.11,1.12,4.69.36,1.93.7,3.85.56,5.82-.05.71.83.91,1.28.53-.96.8-1.91,2.12-2.48,3.23-.27.52-.49,1.08-.61,1.65-.1.46.1,1.45-.11,1.79-.19.32-1.59.36-1.97.42-.8.14-1.59.27-2.39.41-1.4.24-3.21.7-4.4-.34-.27-.24-.59-.27-.91-.12-1.16.56-2.35,1.01-3.6,1.32-.78.19-1.59.19-2.2.7-.54.45-.87.45-1.45.73-.28.14-.46.42-.74.56-.98.48-2.09.13-2.76-.67-.26-.31-.79-.27-1.06,0-.76.78-1.48-.53-.56-.83l-.85-1.1c-.93,1.43-2.76,1.18-3.47-.28-.15-.3-.54-.42-.85-.34-.76.19-1.77-.12-2.36-.66s-.19-.87-.08-1.56c.08-.49.04-1-.1-1.48-.15-.53-.65-.96-.73-1.46s.1-.98-.05-1.53c-.21-.79-.49-1.52-.58-2.35-.14-1.25.56-1.56,1.64-1.86.8-.22,1.6-.44,2.4-.65.45-.12.72-.69.45-1.1-.48-.73-1.05-1.37-1.76-1.88s-2.48-.82-2.51-1.8c-.03-1.18.47-2.59.76-3.72s.55-3.07,1.34-4.03c.65-.78,1.82-1.44,2.69-1.95,1.07-.62,2.16-.96,3.41-.94,1.05.02,2.12.18,3.14-.14,1.14-.36,1.96-1.66,3.26-1.02.39.19.77.08,1.03-.27,1.05-1.43,3.18-1.92,4.73-1.03,1.45.83,2.23,2.51,3.63,3.44.81.53,1.56-.76.76-1.3h0Z"/>
      <path class="cls-1" d="M8.24,6.91c-1.13.5-2.28,1.09-3.07,2.07-.74.92-1.13,2.17-.83,3.34.33,1.26,1.45,1.85,2.42,2.58s1.92,1.71,1.9,3.02c-.01.97,1.49.97,1.5,0,.02-1.2-.52-2.3-1.33-3.17s-1.82-1.32-2.62-2.11c-.72-.7-.54-1.8,0-2.56.65-.93,1.78-1.43,2.79-1.87.37-.16.45-.7.27-1.03-.22-.38-.66-.43-1.03-.27h0Z"/>
      <path class="cls-1" d="M5.82,21.7c-.66.28-1.47.57-1.94,1.15-.25.31-.39.68-.36,1.07.02.22.07.42.18.61.06.1.14.19.22.26.02.02.05.04.07.06.09.09.07.04-.08-.13v-.4c-.03.18-.11.34-.14.51-.04.24-.06.48-.04.73.04.43.13.87.27,1.28.18.53.58.83,1.11.97.4.1.88.17,1.29.13,1.01-.09,1.6-1.08,1.81-1.97.05-.21.08-.31.17-.46.11-.18.24-.33.36-.5.29-.42.46-.95.33-1.46s-.53-.87-.95-1.15c-.46-.31-.97-.49-1.52-.53-.39-.03-.77.37-.75.75.02.43.33.72.75.75.01,0,.14.02.04,0,.04,0,.08.02.12.03.05.01.1.03.16.05.08.03.03,0,.01,0,.2.09.39.2.56.33-.09-.07.07.07.1.1.07.07,0,0,0-.01,0,0,.12.13.02,0,0,0,.03.11.02.05,0-.04.03-.1,0-.02-.05.12-.02.08-.09.2-.23.38-.52.68-.68,1.12-.07.19-.1.4-.16.59-.01.05-.03.11-.05.16.01-.03.05-.1-.02.03-.05.09-.1.18-.16.26.06-.07-.09.09-.11.11-.03.03-.06.05-.09.08.08-.06-.03.01-.04.02.1-.03.09-.03-.02-.04s-.22-.01-.33-.02c-.2-.02-.24-.02-.46-.08-.12-.04-.12-.07-.04,0,0,0,.07.08.06.09,0,0-.04-.12-.04-.14-.05-.19-.1-.38-.14-.57-.01-.05-.02-.11-.03-.17,0,.04,0,.11,0-.05,0-.11-.01-.22,0-.33,0,0,.02-.13,0-.06-.02.08.03-.09.03-.1.02-.08.06-.16.08-.25.09-.33,0-.69-.24-.94-.03-.03-.06-.06-.09-.08-.06-.05-.07-.1-.03,0,0,.01.03.12.01.04-.02-.11.03.19,0-.01,0,.01-.03.12,0,.04.02-.05,0-.04-.02.03l.03-.05s-.06.07,0,0c.04-.05.08-.09.13-.13-.03.02-.1.06.02-.01.04-.03.08-.05.12-.08.09-.06.19-.11.29-.16.2-.11.47-.24.64-.31.36-.15.66-.5.52-.92-.11-.35-.54-.69-.92-.52h0Z"/>
      <path class="cls-1" d="M16.1,32.07c.34-.39.76-.63,1.21-.87.21-.11.47-.28.72-.3.28-.02.33.08.55.22,1.07.69,2.05-.15,3.05-.54.49-.19,1.07-.34,1.59-.16s.88.65,1.34.91c.93.53,2.02.53,2.98.94.38.16.8.11,1.03-.27.19-.31.1-.87-.27-1.03-1.11-.47-2.44-.48-3.41-1.24-1.06-.82-2.15-1.11-3.46-.67-.3.1-.6.23-.89.37s-.58.37-.89.43-.4-.13-.65-.27-.53-.21-.81-.21c-1.1-.02-2.46.82-3.16,1.62-.63.72.42,1.79,1.06,1.06h0Z"/>
      <path class="cls-1" d="M23.89,7.46c.25-1.25-.53-2.39-1.44-3.18-.49-.43-1.04-.71-1.7-.75-.6-.04-1.21.18-1.72.47-.99.57-1.98,1.56-2.14,2.74s.53,2.27,1.4,3.02,2.05,1.25,2.61,2.3c.46.85,1.75.09,1.3-.76-.55-1.03-1.54-1.64-2.46-2.3-.66-.48-1.63-1.32-1.32-2.24.16-.48.58-.89.98-1.19.36-.27.83-.57,1.3-.54s.8.39,1.1.72.74.83.65,1.32c-.08.4.11.81.52.92.37.1.84-.13.92-.52h0Z"/>
      <path class="cls-1" d="M25.64,11.41c.72.47,1.36,1.05,1.89,1.74.17.23.64.75.66,1.04l.09.08c-.07.06-.14.12-.21.18-.11.12-.25.21-.35.34-1.04,1.24-.3,2.92.75,3.86.61.55,1.31,1.02,2.02,1.42.37.21.78.36,1.15.57s.36.47.44.88c.31,1.77,1.01,3.47,2,4.97.53.8,1.83.05,1.3-.76s-.98-1.65-1.3-2.55-.45-1.8-.64-2.72c-.18-.84-.79-.99-1.49-1.33-.82-.39-1.62-.87-2.3-1.47-.56-.48-1.31-1.35-.64-2.04.53-.54.95-.96.68-1.79-.5-1.53-1.97-2.86-3.27-3.72-.81-.53-1.56.76-.76,1.3h0Z"/>
      <path class="cls-1" d="M22.95,15.13c-.15,1.04-.74,1.97-.53,3.05.09.44.29.86.63,1.16.18.16.38.27.6.35.28.1.63.08.89.22.49.27.48.66.35,1.13-.16.58-.28,1.19-.13,1.78.29,1.15,1.29,1.45,2.33,1.57.27.03.54.07.81.12.11.02.32.05.41.1.09.06-.21-.42.05.06.21.4.05,1.17-.3,1.45s-.94.19-1.33.15c-.59-.07-1.04-.32-1.46-.75-.35-.35-.7-.76-.86-1.23-.18-.57-.16-1.16-.39-1.72-.39-.95-1.13-1.72-2.07-2.13-.48-.21-1.31-.33-1.56-.85-.2-.41-.2-1.24.12-1.58.39-.42,1.02-.59,1.5-.89.26-.16.51-.36.71-.59.08-.09.15-.19.22-.28.1-.13.23-.17.06-.2.94.18,1.35-1.26.4-1.45-.66-.13-1.15.11-1.56.63-.44.56-.96.77-1.56,1.11-1.23.69-1.61,1.71-1.44,3.08.08.64.32,1.17.83,1.58.56.45,1.26.55,1.87.89.49.27.89.71,1.11,1.23.27.65.2,1.36.5,2.01.51,1.11,1.6,2.19,2.8,2.51s2.67.28,3.46-.78c.63-.85.84-2.65-.08-3.39-.49-.4-1.25-.46-1.85-.53-.51-.06-1.22.01-1.29-.65-.08-.8.51-1.48.25-2.31-.19-.58-.74-1.17-1.28-1.43s-1.26-.08-1.28-.87c-.02-.72.43-1.43.53-2.14.06-.4-.1-.8-.52-.92-.35-.1-.86.12-.92.52h0Z"/>
      <path class="cls-1" d="M15.48,7.44c-.34-1.15-.67-2.5-1.98-2.87s-2.21.62-2.42,1.82.23,2.31,1.07,3.19c.51.53.44,1.11.22,1.78s-.54,1.24-.78,1.87c-.43,1.12-.75,2.65-.05,3.73s2.16,1.33,3.29.79c.52-.24.91-.65,1.37-.99.57-.42,1.12-.24,1.77-.41,1.17-.3,1.84-1.53,1.51-2.68-.35-1.24-1.42-2.07-2.26-2.97-.88-.96-1.24-2.29-1.81-3.43-.43-.86-1.73-.1-1.3.76.4.8.71,1.64,1.11,2.44.36.74.96,1.33,1.53,1.9.47.47,1.41,1.26,1.31,2-.06.46-.46.54-.84.55-.49.02-.93.07-1.38.29-.73.37-1.31,1.28-2.18,1.32-1.23.06-1.09-1.34-.88-2.15.44-1.74,2.15-3.82.72-5.54-.3-.36-.65-.63-.83-1.08s-.21-.96-.04-1.4.5-.47.82-.1c.36.41.44,1.07.59,1.58.27.92,1.72.53,1.45-.4h0Z"/>
      <path class="cls-1" d="M9.04,30.57c.36-.21.66-.52.83-.9.17-.33.05-.28-.37.16h.06c.11.01.25-.02.36-.05.17-.04.33-.12.48-.21.11-.07.22-.15.33-.22.06-.04.12-.09.19-.13.05-.03.25-.11.06-.05l.05-.02c.08-.02.07-.02-.05,0,.03,0,.07,0,.1,0-.11-.02-.12-.01-.03,0-.09-.04-.1-.04-.03,0l-.06-.05s.06.05.08.08c-.05-.07-.06-.08,0,0,.16.28.27.62.49.84s.62.31.94.2c.11-.03.04-.03-.19-.02-.2-.14-.26-.17-.16-.08-.06-.08-.07-.08-.02-.01-.04-.09-.04-.09-.01-.01.01.06.03.13.04.19,0,.03.05.3.03.21.02.18.03.37.04.55.02.43.07.88.33,1.23.23.32.66.5,1.03.27.31-.2.51-.69.27-1.03-.03-.03-.11-.18-.05-.06-.03-.06-.03-.13-.05-.2.04.14,0-.04,0-.08,0-.07,0-.14-.01-.21-.02-.37-.06-.73-.13-1.09-.06-.32-.19-.64-.43-.87-.13-.13-.31-.22-.49-.27-.14-.04-.25-.03-.38-.01-.06,0-.11.01-.17.03-.09.03-.09.03,0,0l.38.1c.21.12.18.22.12.08-.02-.05-.04-.09-.06-.14-.04-.1-.09-.19-.14-.28-.15-.26-.34-.49-.59-.66-.49-.33-1.1-.28-1.59.01-.16.09-.31.21-.47.32-.04.03-.08.05-.12.07-.08.05-.08.04,0,0-.03.01-.1.02-.13.04-.06.04.15-.01,0,0-.2,0-.39.05-.56.15-.12.07-.24.2-.31.32-.03.05-.15.34-.09.21.04-.08-.05.09-.05.09-.06.11.03-.02-.02.03-.04.04-.08.08-.12.12.1-.08-.02,0-.07.03-.34.2-.49.69-.27,1.03s.66.48,1.03.27h0Z"/>
      <path class="cls-1" d="M15.39,24.18c.1-.1-.1.05-.03.02.14-.06-.04.01-.04.01,0,0,.19-.03.03-.01-.13.02.01,0,.03,0,.14,0-.11-.03-.02,0,.04.01.08.02.13.03.03.01.07.02.1.03.17.06-.14-.07,0,0,.06.03.13.06.19.1.03.02.07.04.1.06.03.02.14.07.04.02-.05-.04-.05-.04,0,0l.03.03s.05.06.08.08c.06.05-.09-.15-.02-.02.02.03.04.07.06.1.05.07-.06-.17-.01-.03,0,.03.02.06.03.09.01.04.02.08.03.12.02.12,0,.03,0-.03-.01.16.02.33.01.49,0,.18-.02.37-.03.55,0,.24.02.46.05.69.02.17.2.37.34.45.16.09.4.13.58.08s.36-.17.45-.34c.1-.19.1-.37.08-.58.03.2,0,.03,0-.02,0-.05,0-.11,0-.16,0-.11,0-.22.01-.33.01-.21.03-.42.02-.63-.02-.54-.16-1.03-.51-1.44-.3-.36-.75-.59-1.18-.74-.55-.19-1.19-.1-1.6.32-.28.28-.3.79,0,1.06s.77.3,1.06,0h0Z"/>
    </g>
  </g>
</svg>