<?xml version="1.0" encoding="UTF-8"?>
<svg id="Layer_2" data-name="Layer 2" xmlns="http://www.w3.org/2000/svg" viewBox="0 0 41.85 42.04">
  <defs>
    <style>
      .cls-1 {
        fill: #1a1a1a;
      }
    </style>
  </defs>
  <g id="Layer_1-2" data-name="Layer 1">
    <g>
      <path class="cls-1" d="M29.96,36.75c1.46.34,3.06.66,4.51.12.61-.23,1.1-.61,1.56-1.06.69-.67,1.4-1.24,2.19-1.8,1.2-.86,2.36-1.9,2.61-3.43.11-.64-.03-1.11-.19-1.71-.13-.47-.23-.55.07-.97.21-.3.48-.51.67-.84.74-1.32.5-2.84.14-4.23-.54-2.12-.55-3.9-.22-6.06.26-1.66.54-3.35.27-5.03-.16-.95-.46-1.75-.43-2.73.02-.69-.03-1.3-.31-1.94-.63-1.41-1.99-2.37-3.29-3.12-1.65-.94-3.39-1.8-5.31-1.89l.65.37c-.77-1.39-2.28-1.9-3.81-1.89-1.08,0-1.9.23-2.95-.18-.98-.38-1.98-.43-3.02-.3-1.15.15-2.26.49-3.42.61s-2.39-.05-3.59.03c-1.68.11-3.48.79-4.27,2.4-.74,1.52.01,3.15,1.27,4.12.33.25.83.43.87.91.04.44-.35,1.18-.49,1.59-.21.61-.43,1.56-.99,1.94-.39.27-1.03.32-1.48.43-3.59.87-7.67,1.68-10.23,4.58-1.17,1.32-1.04,3.06.9,3.42,1.17.21,2.85-.38,3.56.87.57,1,.42,2.65.51,3.77l.55-.72c-.95.27-2.06.17-2.87.81-.85.68-.93,1.9-1.15,2.89-.33,1.46-.65,2.93-.98,4.39-.22.99-.57,2.08-.29,3.09.19.7.69,1.23,1.43,1.34.77.12,1.38-.04,2.16.3.56.25,1.06.48,1.68.58.71.11,1.68.1,1.97-.71.27-.74-.33-1.36-1.03-1.37-.34,0-.62.24-.72.55-1.76,5.58,8.77,9.11,9.44,2.8l-1.4.38c1.55,2.37,5.09,2.06,7.39,1.1,2.43-1.01,5.23-4.17,8.06-3.42.93.25,1.33-1.2.4-1.45-2.48-.66-4.62.88-6.61,2.15-1.17.74-2.37,1.47-3.74,1.74s-3.35.43-4.2-.88c-.43-.66-1.32-.35-1.4.38-.41,3.9-7.63,1.2-6.49-2.4l-.72.55h.2c-.22-.12-.43-.24-.65-.37.25-.4.19-.58-.19-.53-.17,0-.33-.04-.48-.09-.4-.12-.73-.33-1.1-.51-.49-.25-.94-.42-1.5-.38-.68.05-1.07.19-1.09-.64-.01-.75.28-1.54.44-2.26.34-1.54.69-3.08,1.03-4.62.17-.75.21-1.44,1.06-1.65.58-.14,1.17-.15,1.75-.32.3-.08.58-.4.55-.72-.11-1.37-.05-2.93-.59-4.22-.58-1.39-1.78-1.83-3.21-1.86-.73-.02-2.62.17-1.49-1.05.45-.49.97-.92,1.52-1.29,1.4-.93,3-1.49,4.6-1.94,1.44-.41,2.94-.64,4.37-1.09s1.86-1.48,2.33-2.76c.38-1.05,1.17-2.56.38-3.59-.43-.57-1.18-.78-1.64-1.33-.92-1.1-.37-2.27.75-2.9,1.49-.84,3.34-.4,4.97-.49,1.92-.1,3.99-1.1,5.9-.6.75.2,1.37.62,2.17.62.7,0,1.38-.21,2.1-.17.8.05,1.49.26,2.04.87.49.55.41.56,1.21.66,1.68.21,3.34,1.13,4.75,2.03.66.42,1.34.91,1.78,1.56.61.88.37,1.63.42,2.61.05.88.46,1.69.55,2.57.07.69.04,1.4-.03,2.1-.17,1.84-.66,3.66-.63,5.52s1.39,4.17.73,6.03c-.26.71-.97.94-1.27,1.59-.28.6-.03,1.09.2,1.66.93,2.3-1.92,3.47-3.33,4.68-.85.73-1.41,1.58-2.62,1.72-.95.11-1.92-.13-2.84-.34s-1.34,1.23-.4,1.45h0Z"/>
      <path class="cls-1" d="M12.73,14.17c-2.06.4-4.11.9-6.12,1.51-.54.16-1.18.43-1.08,1.13.08.54.59.85,1.05,1.05.42.18.86.25,1.31.31.2.03.41.05.61.07.06,0,.13.02.19.03.23.03.02.05-.04-.08l-.1-.38c.01.19-.18.5-.25.69-.1.27-.18.55-.25.83-.13.62-.15,1.23-.01,1.84.09.4.55.63.92.52.41-.11.61-.53.52-.92-.14-.6.02-1.2.22-1.76.22-.66.63-1.37-.03-1.93-.44-.37-1.1-.33-1.64-.4-.41-.05-.92-.12-1.22-.42l.19.33-.03-.09v.4l.02-.08-.19.33c-.16.07-.16.08,0,.02.06-.02.12-.04.19-.06.15-.04.29-.09.44-.13.25-.07.5-.14.75-.21.54-.15,1.09-.3,1.63-.43,1.09-.27,2.19-.52,3.3-.73.4-.08.63-.55.52-.92-.11-.42-.52-.6-.92-.52h0Z"/>
      <path class="cls-1" d="M8.16,27.8c-.78.22-1.53.57-2.18,1.05-.69.51-1.41,1.13-1.59,2.01-.09.45-.12.92-.18,1.38-.05.43-.15.87.16,1.23.28.33.71.41,1.12.28.18-.06.36-.17.5-.3.07-.06.12-.14.17-.2.02-.03.05-.06.08-.09.09-.08.05-.07-.12.05l-.38-.1c.3.15.45.45.88.46.48,0,.77-.37,1.12-.63.61-.46,1.31-.75,2.06-.9l-.85-.34c.26.49.24.99.05,1.5-.23.61-.41,1.21-.05,1.82.71,1.22,2.54.82,2.82-.51.02-.11.03-.16.03-.15.06-.07.21-.12.29-.17.24-.16.48-.34.68-.54.41-.41.73-.92.93-1.47.43-1.17.19-2.52-.58-3.49-.44-.56-1.02-.97-1.6-1.37-.67-.45-1.34-.9-2-1.35-.8-.54-1.56.76-.76,1.3.58.39,1.17.78,1.75,1.18.49.33,1.01.66,1.4,1.12.68.81.64,2.03-.03,2.84-.35.43-.89.59-1.25,1-.2.23-.24.48-.32.76-.03.09-.05.15-.08.08s.11-.37.16-.51c.13-.33.22-.64.25-.99.05-.63-.1-1.24-.4-1.8-.16-.31-.53-.41-.85-.34-1.23.25-2.21.86-3.16,1.66l.33-.19h0c.13.05.25.08.38.12-.09-.04-.24-.23-.37-.31-.22-.14-.51-.19-.76-.13-.21.05-.4.15-.56.3-.06.06-.16.13-.2.21-.12.24-.13-.09.27.14l.27.27c.11.17.06,0,.07-.15l.04-.33c.03-.25.05-.5.09-.74.07-.44.26-.69.59-.98.62-.56,1.36-.96,2.16-1.18.93-.27.53-1.71-.4-1.45h0Z"/>
      <path class="cls-1" d="M16.91,35.2c-.08.47.05.9.42,1.22s.85.57,1.35.47c.4-.09.58-.37.86-.61-.09.08.06-.03.1-.05.07-.04.14-.07.21-.11.2-.13.37-.3.5-.5.38-.62.41-1.6.17-2.27-.16-.44-.42-.75-.74-1.08-.17-.17-.31-.48-.45-.76-.18-.34-.41-.7-.75-.9-.47-.28-.93-.11-1.35.17-.36.24-.68.5-.95.85-.23.31-.37.67-.49,1.03-.11.3-.22.57-.42.87-.17.26-.37.47-.59.73-.51.62-.93,1.46-.46,2.23.26.43.78.66,1.28.52.41-.11.65-.44.87-.78.02-.03.03-.05.05-.08.05-.07-.08.08.02-.01.1-.1-.12.04-.05.02.08-.03-.03,0-.04,0,.08,0,.06,0,0-.01.08,0,.16.03.24.05.41.11.82.2,1.24.09.39-.1.63-.54.52-.92s-.53-.63-.92-.52c-.21.05.1,0-.03,0-.04,0-.18-.03-.04,0-.09-.02-.18-.04-.27-.07-.26-.07-.53-.14-.8-.12-.64.04-.97.47-1.31.96.09-.13.03-.02,0,0-.08.05.14-.07.13-.07.17-.05.32.04.42.17-.11-.14.03.08,0-.02v-.03c0,.1,0,.1,0,.01,0,.02-.04.2,0,0,.03-.14-.02,0,.04-.11.23-.41.65-.78.95-1.23.33-.49.5-1.04.72-1.58-.04.09.03-.07.04-.09.03-.06.07-.12.1-.18.05-.07.05-.07.14-.16.18-.18.34-.23.57-.42.24-.2-.43.04-.43-.09,0-.01.17.19.08.08.06.08.11.17.16.26.12.23.22.47.36.69.17.25.37.45.58.67.13.14.2.3.23.55-.01-.1,0,.04,0,.05,0,.08,0,.17,0,.25,0-.03-.02.24-.01.15,0-.04,0-.02-.01.05,0,.05-.02.1-.03.14,0,.02-.05.14,0,.03-.01.03-.03.06-.05.09-.03.04-.02.04,0-.01.08-.07-.01,0-.03.02-.07.03-.14.07-.21.11-.15.08-.28.19-.4.31-.04.04-.07.08-.11.12l-.04.05c-.06.06-.06.06.01,0,.01,0,.24-.05.23-.04,0,0-.07-.05-.11-.07l-.06-.04s.05.04,0,0c-.04-.04-.04-.03,0,.02.03.09.04.18.02.27.07-.4-.11-.81-.52-.92-.36-.1-.85.12-.92.52h0Z"/>
      <path class="cls-1" d="M18.28,5.12l-1.33-.39-.57-.17-.38-.11c-.21-.05-.26-.07-.13-.05l.22.53v-.1c-.04.13-.08.25-.11.38.17-.23.68-.23.92-.17.39.11.72.4,1.1.55.87.34,1.55-.02,2.3-.48s1.58-.81,2.44-1.03c.45-.11.91-.2,1.38-.23.21-.02.46.01.67-.03.07,0,.14,0,.2.03-.06-.15-.1-.19-.09-.12-.06.02-.23.24-.31.28-.19.12-.41.22-.61.32-.41.21-.85.41-1.31.48-.81.13-1.61-.05-2.24.62-.43.45-.65,1.11-1.41.92-.34-.09-.52-.37-.76-.61-.29-.3-.61-.52-1.02-.63-.93-.25-1.33,1.19-.4,1.45.35.1.59.53.86.76.34.29.73.46,1.17.53.87.13,1.76-.18,2.3-.89.11-.14.21-.39.35-.5.15-.12.34-.1.53-.11.52-.02,1.02-.05,1.52-.22.85-.28,2.1-.75,2.58-1.56.52-.88.12-1.95-.89-2.19-.96-.22-2.16.05-3.09.31-1.01.27-1.96.71-2.84,1.27-.4.25-.59.36-1.02.13s-.82-.47-1.3-.55c-.86-.13-2.75.36-2.39,1.59.17.57.78.7,1.27.85l2,.59c.93.27,1.32-1.18.4-1.45h0Z"/>
      <path class="cls-1" d="M37.4,12.77c.1.57.36,1.3.34,1.88-.02.67-.6,1.3-.93,1.85-.59.99-1.13,2.05-1.43,3.18s-.38,2.34-.1,3.47c.13.54.39,1.02.59,1.53.28.7.32,1.43.25,2.18-.11,1.26-.57,2.88-1.79,3.5s-2.67.94-4.01,1.06c-1.02.09-1.92.29-2.75.92-.99.76-1.77,2.1-3.16,2.01-.96-.06-.96,1.44,0,1.5,1.33.08,2.32-.66,3.23-1.54.5-.48.99-1.01,1.67-1.22s1.4-.17,2.09-.27c1.3-.19,2.89-.61,4.01-1.34.99-.65,1.59-1.83,1.92-2.94.35-1.19.47-2.59.15-3.8-.18-.69-.59-1.29-.76-1.98-.21-.88-.13-1.81.1-2.68.38-1.47,1.24-2.69,2-3.97.72-1.2.25-2.43.01-3.73-.17-.95-1.62-.55-1.45.4h0Z"/>
      <path class="cls-1" d="M27.98,6.88c.7.25,1.24-.17,1.82-.48.16-.09.14-.14.25-.02.24.24.26.65.5.91.65.69,1.5.08,2.24-.08.25-.05.46-.06.59.18.06.11.1.26.12.38.01.06.01.13.02.19,0,.04,0,.08,0,.12,0,.08,0,.08-.02.02l.27-.27c-.24.18-.59.16-.84.39-.3.28-.45.67-.45,1.07,0,.8.62,1.35,1.28,1.69.37.19.77.37,1.19.29.45-.09.77-.41,1.12-.68.62-.48,1.38-.95,1.53-1.78.16-.89-.44-1.8-.88-2.53s-.89-1.38-1.57-1.85-1.63-.62-2.4-.26c-.28.13-.44.4-.71.17-.32-.27-.54-.62-.89-.86-1.61-1.11-3.8.2-3.7,2.11.05.96,1.55.97,1.5,0-.03-.55.33-1.08.94-1.02.67.07.98.85,1.53,1.16.36.2.78.29,1.18.19.36-.08.63-.41.99-.45.66-.08,1.19.57,1.51,1.06.21.31.39.63.57.95.14.26.49.73.45,1.04-.03.26-.43.47-.61.62-.17.13-.34.27-.52.4-.09.07-.29.3-.41.31.26-.02-.17-.2-.2-.22-.11-.06-.23-.12-.32-.21,0,0-.09-.12-.1-.13,0,0,0-.01,0-.01-.15.1-.18.13-.07.1.05-.01.11-.02.16-.03.85-.24,1.02-.98.91-1.76s-.54-1.54-1.34-1.81c-.42-.14-.89-.1-1.31.02-.33.09-.78.35-1.07.34l.38.1c.05.08.05.08.02.01-.02-.03-.03-.07-.05-.1-.04-.09-.08-.18-.12-.26-.1-.19-.21-.38-.35-.54-.28-.32-.68-.52-1.11-.52-.38,0-.75.16-1.07.35-.14.08-.29.2-.45.26-.12.05,0,.06-.13,0-.38-.14-.82.16-.92.52-.11.42.14.78.52.92h0Z"/>
      <path class="cls-1" d="M19.38,8.72c-1.41.49-3.04,1.87-2.93,3.51.02.38.16.73.35,1.05.12.2.51.6.49.85s-.37.5-.53.66c-.32.32-.66.62-1.01.89s-.72.52-1.1.74c-.34.2-.71.38-1,.66-.61.61-.54,1.52-.02,2.16,1.11,1.36,3.16.95,4.4.02,1.64-1.24,2.15-3.27,2.89-5.09.15-.38-.17-.82-.52-.92-.43-.12-.77.15-.92.52-.51,1.25-.85,2.69-1.75,3.74-.38.45-.88.84-1.45,1.01-.45.14-1.11.2-1.46-.19-.15-.17-.15-.17,0-.27.27-.19.59-.34.87-.52.62-.4,1.21-.85,1.76-1.35.47-.43,1.07-.93,1.26-1.55s-.01-1.17-.33-1.68c-.15-.24-.39-.5-.44-.78-.05-.3.15-.61.31-.86.36-.55.91-.96,1.52-1.17.91-.31.52-1.76-.4-1.45h0Z"/>
      <path class="cls-1" d="M13.91,21.38c-.95.14-1.97.51-2.43,1.44-.42.85-.19,1.97.7,2.42.12.06.62.26.74.18.16-.1-.07.3-.05-.06,0-.01.05.22.05.21.06.4.07.81.17,1.21.2.81.66,1.59,1.44,1.95.5.22,1.03.22,1.56.22.36,0,.67,0,.9.28.3.38.61.68,1.14.67.5,0,.99-.3,1.4-.55.79-.49,1.51-1.2,1.73-2.14.23-1.02-.12-1.94-.95-2.57-.98-.74-2.02-1.41-3.02-2.11-.94-.65-2.01-1.46-3.22-1.05-.91.31-.52,1.76.4,1.45.64-.22,1.29.37,1.79.71.74.52,1.49,1.03,2.23,1.55.45.31,1.28.67,1.34,1.29s-.38,1.11-.84,1.44c-.12.09-.25.16-.38.24-.08.04-.37.15-.42.22.01-.02-.17.13,0,.06.11-.05.04.09.02-.04-.03-.15-.28-.35-.39-.45-.64-.53-1.42-.46-2.19-.49-1.42-.04-1.01-1.77-1.4-2.67-.17-.4-.5-.69-.93-.8-.2-.05-.48.02-.55-.21-.18-.67,1.14-.87,1.54-.93s.62-.57.52-.92c-.12-.43-.52-.58-.92-.52h0Z"/>
      <path class="cls-1" d="M14.02,23.42c-.09-.04.03.01.04.02.05.02.1.04.14.07.08.04.16.08.24.13.18.1.36.22.53.34.1.08-.07-.05.04.03.03.02.06.05.09.08.08.07.16.14.24.21.15.15.3.3.43.46.08.1.08.1.13.16.05.08.11.15.16.23.12.18.22.36.32.55.15.3.27.64.36,1.04.02.1.04.21.06.31,0,0,.02.13,0,.06,0-.08,0,.08,0,.1.03.29.04.57.16.83.24.52.78.82,1.35.78s1.01-.36,1.4-.74.69-.8.78-1.33c.22-1.32-.7-2.34-1.87-2.79-.46-.17-.96.27-.95.72.02.86.22,1.68.6,2.46s1.62.23,1.37-.58c-.33-1.08-.68-2.16-1.18-3.18-.15-.29-.54-.43-.85-.34s-.59.4-.55.72c.07.58.17,1.16.34,1.73.07.24.16.48.23.73.03.1.04.2.05.26,0,.02,0,.14,0,.12,0-.06-.04.12-.01.06-.17.37-.11.81.27,1.03.32.19.86.1,1.03-.27.3-.66.22-1.29,0-1.96-.18-.55-.34-1.11-.4-1.69l-1.4.38c.45.9.74,1.86,1.03,2.82l1.37-.58c-.26-.54-.39-1.12-.4-1.7l-.95.72c.47.18.97.7.76,1.19-.05.11-.13.21-.21.29-.11.12-.29.29-.36.34-.05.03-.16.09-.17.1.05-.02-.06,0-.06,0,.04,0,.08,0,.02-.01-.09-.03.03.01.05.02.07.02-.02,0-.04-.02.02.02.07.07.09.09.1.1.02,0,.02,0-.03-1.43-.75-2.95-1.76-4-.61-.63-1.34-1.1-2.15-1.43-.37-.15-.82.17-.92.52-.12.43.15.77.52.92h0Z"/>
      <path class="cls-1" d="M25.33,13.39c.35.03.7.14.99.35.16.12.29.38.44.48-.05-.03.34-.19-.1-.06-.88.25-1.75.68-2.6,1.01-.61.24-1.23.5-1.67.99-.51.57-.52,1.15-.39,1.86.15.8-.49,1.66-.83,2.36-.3.62-.86,1.41-.69,2.14s.96,1.4,1.41,1.99c.51.67.95,1.45.69,2.32-.28.93,1.17,1.32,1.45.4.26-.86.12-1.73-.26-2.54-.2-.42-.47-.8-.76-1.16s-.81-.79-.97-1.2c-.14-.36.38-1.09.54-1.43.21-.45.43-.89.64-1.34.18-.39.34-.78.34-1.21,0-.34-.25-.82-.1-1.11s.61-.44.88-.56c.49-.21.99-.39,1.49-.58.7-.27,1.91-.49,2.33-1.18s-.07-1.57-.6-2.08c-.61-.59-1.38-.88-2.22-.94-.96-.07-.96,1.43,0,1.5h0Z"/>
      <path class="cls-1" d="M30.68,21.65c1.52-.91,2.65-2.43,3.05-4.16.34-1.48.31-4.01-1.77-4.01s-2.85,2.48-3.5,3.98c-.46,1.07-.92,2.14-1.39,3.21-.4.93-.94,1.89-1.09,2.9s.28,1.78,1.17,2.22c.79.39,1.92.64,1.63,1.79-.24.94,1.21,1.34,1.45.4.22-.88.04-1.83-.6-2.51-.55-.59-1.31-.66-1.94-1.09-.7-.49.27-2.03.52-2.61.46-1.07.92-2.14,1.39-3.21.4-.93.75-1.91,1.31-2.76.22-.32.59-.86,1.05-.84s.43.6.44.95c.05,1.8-.93,3.51-2.47,4.43-.83.49-.07,1.79.76,1.3h0Z"/>
      <path class="cls-1" d="M25.63,29.32c-.02-.8-.84-1.1-1.53-1.08-.56.02-1.12.22-1.59.52-.94.6-1.93,1.8-1.23,2.95.32.53.92.85,1.53.85.29,0,.56-.07.82-.18s.44-.29.68-.41c-.08.04.02,0,.04-.01.22-.06-.05,0,.08-.01.12,0,.25,0,.37,0,.3.01.6,0,.89-.09.54-.17,1.02-.54,1.42-.92.6-.58.59-1.49-.13-1.97-.29-.2-.65-.25-.99-.26-.15,0-.3.01-.44,0,.15.02,0-.02-.04-.02-.05-.02-.04-.01.03,0,.03.02.06.05.08.09-.23-.33-.65-.49-1.03-.27-.33.19-.5.69-.27,1.03.3.42.69.61,1.19.67.19.02.38,0,.57.01-.01,0,.13.02.08,0-.01,0,.08.07.03.01s-.1-.07-.12-.16c-.01-.07.02-.16.02-.23,0-.08-.06.05,0,0,.06-.05-.03.02-.04.03-.03.02-.05.05-.08.07-.07.06-.14.12-.22.18s-.04.04-.14.11c-.14.1-.28.17-.36.19,0,0-.12.03-.06.02.07-.02-.09,0-.1,0-.1,0-.19,0-.29,0-.44-.02-.89,0-1.28.24-.14.09-.27.19-.41.29,0,0-.13.07-.03.03-.04.02-.07.03-.11.04s-.08.02-.11.03c.08-.01,0,0-.03,0-.02,0-.14-.02-.03,0-.03,0-.07-.02-.1-.03-.08-.02,0,0,.02.01-.03-.02-.06-.03-.09-.05-.1-.06.09.06,0,0-.06-.04,0,0,0,.02-.02-.03-.04-.06-.05-.09-.05-.08.01.09,0-.01-.02-.13.02.1,0-.02-.01-.07,0-.01-.01.02,0-.03.05-.2.02-.1.07-.19.13-.25.24-.36.07-.08.15-.15.23-.22,0,0,.09-.07.05-.04-.02.02.12-.08.12-.09.08-.05.16-.1.25-.15.04-.02.07-.04.11-.06.22-.12-.04.01.08-.04.09-.03.18-.06.27-.08.05-.01.1-.03.16-.03-.08.01,0,0,.04,0,.04,0,.08,0,.12,0,.12,0-.09-.02.04,0,.05,0,.11.04.15.04.07.02.05.01-.04-.04-.05-.02-.1-.06-.14-.1l-.1-.38v.06c.01.39.34.77.75.75s.76-.33.75-.75h0Z"/>
      <path class="cls-1" d="M28.87,11.84c.79.66,1.79.36,2.46-.34.7-.74.75-1.8.09-2.59s-1.72-1.05-2.64-1.22c-.53-.1-1.02-.1-1.55-.06-.17.01-.4.06-.56-.02-.15-.07-.24-.27-.36-.39-.74-.75-1.96-.26-2.75.16s-1.72,1.03-2.18,1.87c-.42.78-.54,2,.31,2.55s1.82-.04,2.57-.51c.41-.26.83-.45,1.33-.41.17.01.44.04.59.15.17.12.26.38.4.53.84.89,2.01.6,3.09.69.96.08.96-1.42,0-1.5-.57-.05-1.36.17-1.88-.12-.23-.13-.33-.42-.51-.61-.22-.24-.51-.38-.82-.48-.63-.21-1.36-.21-1.99-.01s-1.11.66-1.72.92c-.09.04-.22.04-.3.08.06-.03.07.12.11.05,0-.01-.02-.05,0-.06.05-.1.03-.28.08-.4.06-.14.15-.28.25-.39.41-.5,1.08-.89,1.67-1.15.14-.06.29-.12.44-.16.06-.02.37-.08.3-.1-.05-.01.11.15.16.22.11.13.24.25.39.34.65.41,1.36.21,2.07.22.67.01,1.62.22,2.17.61.22.15.4.36.28.62-.05.11-.16.21-.26.28-.05.04-.12.06-.17.1-.09.09-.16-.05,0,.08-.74-.62-1.8.44-1.06,1.06h0Z"/>
      <path class="cls-1" d="M32.12,23.32c-.33.32-.5.79-.6,1.23-.06.28-.07.55,0,.84.04.2.14.38.2.57.01.04.02.09.04.13.02.06-.01.11,0,0,0,0,0,.1,0,.1-.04.01.05-.17,0-.05,0,0-.02.1-.03.1,0,0,.08-.14.01-.04-.05.08-.09.15-.14.22-.02.03-.04.06-.06.09.1-.14.04-.05.02-.02-.05.06-.11.13-.16.19-.13.16-.27.33-.38.5-.29.46-.5,1.23.12,1.55.49.26,1.06.03,1.53-.19.77-.35,1.41-.98,1.69-1.79.37-1.07-.13-2.17-.63-3.11-.19-.35-.69-.48-1.03-.27-.35.23-.47.66-.27,1.03.11.2.21.41.31.62.01.03.05.11.02.03.02.06.05.12.07.18.04.11.07.21.1.32.01.05.02.1.03.15.03.13,0-.02.01.06,0,.11.01.22,0,.33,0,.05-.02.1,0,.02-.01.05-.02.11-.04.16-.01.04-.03.08-.04.11-.03.1.08-.15,0,.01-.04.07-.08.14-.12.21-.1.16.06-.06,0,.02-.03.03-.05.06-.08.09-.06.07-.13.13-.2.19,0,0-.15.11-.07.06.07-.05-.04.02-.05.03-.16.1-.32.19-.49.27-.1.05.16-.06-.02,0-.04.01-.08.03-.12.04-.04.01-.09.03-.13.04-.14.04.05,0,.11.01l.33.19-.03-.03.19.33v-.04c0,.13,0,.27,0,.4,0-.04.02-.08.03-.12,0-.02.01-.03.02-.05.02-.05.01-.03-.02.06-.01-.04.1-.18.12-.21.03-.04.05-.07.08-.11-.03.04-.07.09-.02.02s.12-.14.18-.21c.27-.33.54-.67.63-1.1.06-.27.05-.53-.01-.8-.05-.21-.15-.4-.21-.61-.02-.07-.03-.14-.02-.03,0-.02,0-.2,0-.11s.03-.11.03-.11c.01-.05.03-.09.04-.13.02-.05.03-.1.05-.15.01-.04.07-.16,0-.03.02-.04.04-.07.06-.11.08-.16-.09.08.04-.04.28-.28.3-.79,0-1.06s-.76-.29-1.06,0h0Z"/>
    </g>
  </g>
</svg>