<?xml version="1.0" encoding="UTF-8"?>
<svg id="Layer_2" data-name="Layer 2" xmlns="http://www.w3.org/2000/svg" viewBox="0 0 38.86 41.08">
  <defs>
    <style>
      .cls-1 {
        fill: #1a1a1a;
      }
    </style>
  </defs>
  <g id="Layer_1-2" data-name="Layer 1">
    <g>
      <path class="cls-1" d="M6.95,38.94c1.47.37,2.96.68,4.44.96,2.24.43,4.67-.16,6.93-.24,1.3-.05,2.2.26,3.31.89.78.44,1.57.63,2.46.47,2.12-.39,3.17-2.33,4.94-3.32,2.16-1.21,4.31.29,6.49-.17,2.05-.44,2.38-2.67,2.23-4.42-.1-1.22-.1-2.32.11-3.53.2-1.13.45-2.27.42-3.42-.03-1.31-.48-2.66-.14-3.96.27-1.03.79-1.81.71-2.93-.15-1.91-1.2-4.15-2.21-5.76-.53-.84-1.18-1.54-1.94-2.16-.86-.7-1.47-1.47-2.18-2.31-.51-.59-1.88-1.04-2.06-1.79-.21-.85.22-1.67-.17-2.54-.25-.56-.68-.99-1.3-1.08-.07-.01-.37,0-.41-.01-.35-.18.09.28,0-.13-.1-.45-.04-.84-.23-1.29-1.8-4.25-7.63-1.21-10.31.1-1.72.84-3.74.55-5.49,1.44s-2.32,2.23-2.59,4c-.15.95-.2,1.97-.56,2.88-.5,1.24-1.66,2.1-2.51,3.1-.8.94-1.52,1.95-2.14,3.02-.27.47-.47,1.07-.81,1.49-.5.64-1.19.56-1.84.93-.77.44-1.32,1.26-1.57,2.11-.37,1.28.06,2.41.1,3.68.03,1.01-.59,1.92-.63,2.93-.02.43.06.87.26,1.25.31.58,1.13,1.03,1.01,1.78-.14.94,1.3,1.35,1.45.4.1-.7.05-1.28-.34-1.89-.21-.32-.52-.57-.7-.91-.28-.53-.12-.98.04-1.53.22-.72.45-1.43.39-2.19-.09-1.2-.56-2.45.06-3.59.53-.97,1.59-.82,2.38-1.43.67-.52.97-1.37,1.37-2.09,1.05-1.86,2.49-3.27,3.85-4.89,1.08-1.29,1.33-2.7,1.57-4.32.11-.74.19-1.56.56-2.23.55-.99,1.75-1.44,2.8-1.69,1.56-.37,2.98-.35,4.43-1.14,1.78-.96,4.24-2.26,6.34-1.76,1.2.29,1.47,1.07,1.59,2.14.07.56.24,1.09.82,1.3.33.12.73-.09.98.14.2.19.16.71.15.96-.02.81-.2,1.66.29,2.39.45.68,1.2.68,1.79,1.16.69.56,1.1,1.45,1.76,2.05.72.65,1.51,1.16,2.1,1.94.65.85,1.1,1.84,1.51,2.83.38.91.87,1.93.9,2.93s-.63,1.88-.78,2.87c-.16,1.05.05,2.07.15,3.11.11,1.2-.07,2.33-.28,3.51-.16.92-.32,1.84-.31,2.78.02,1.11.43,2.39-.04,3.45-.58,1.32-2.01.79-3.12.63-.88-.12-1.76-.2-2.65-.08-2.23.29-3.33,1.86-5.03,3.09-1.17.85-2.14.89-3.36.14-.87-.53-1.78-.78-2.79-.82-2.39-.1-4.91.7-7.28.32-1.51-.25-3.04-.61-4.53-.98-.94-.24-1.34,1.21-.4,1.45h0Z"/>
      <path class="cls-1" d="M7.52,37.57c-.8-.37-1.73-.44-2.59-.56-.79-.11-1.7-.07-2.4-.57-.41-.3-.74-.71-.58-1.22s.45-.92.56-1.43c.23-1.12.26-2.3.26-3.43,0-.97-1.5-.97-1.5,0,0,.62-.02,1.25-.07,1.87-.04.48-.06.99-.21,1.45-.19.62-.6,1.15-.6,1.84,0,.73.42,1.41.95,1.88.86.78,1.86.9,2.96,1.04.47.06.95.12,1.42.2.23.04.46.08.69.13.09.02.19.05.28.07.04.01.29.12.09.03.37.17.81.1,1.03-.27.19-.32.1-.85-.27-1.03h0Z"/>
      <path class="cls-1" d="M4.31,20.17c.22.09.19.52.13.7-.14.46-.56.81-.91,1.12s-.64.65-.77,1.09c-.14.51,0,.99.12,1.48s-.14.75-.35,1.16c-.24.47-.33.95-.37,1.47-.05.6-.14,1.02-.35,1.58-.19.52-.18,1,.05,1.51.4.88,1.69.12,1.3-.76-.07-.15.2-.58.25-.71.1-.26.15-.53.19-.81.07-.55.01-1.11.26-1.61s.55-.92.56-1.49c0-.25-.04-.5-.1-.75-.05-.2-.18-.47-.12-.69.1-.35.68-.69.92-.96.36-.4.67-.87.79-1.4.23-1.03-.25-2-1.22-2.4-.38-.16-.82.17-.92.52-.12.43.15.77.52.92h0Z"/>
      <path class="cls-1" d="M18.53,39.08c.91.92,2.25.47,3.25-.06.61-.32,1.18-.75,1.66-1.23s.84-1.11,1.31-1.64c1.01-1.14,2.54-1.79,3.94-.96.58.34,1.01.81,1.66,1.04s1.35.22,1.94.57c.83.49,1.59-.81.76-1.3-.57-.33-1.18-.44-1.81-.59s-1.05-.53-1.59-.9c-1.14-.77-2.69-.98-3.95-.39-.6.28-1.19.7-1.69,1.15-.54.48-.87,1.11-1.34,1.65-.42.48-.91.89-1.46,1.2-.34.2-1.26.75-1.61.39-.68-.69-1.74.37-1.06,1.06h0Z"/>
      <path class="cls-1" d="M18.57,3.55c.36.52.85.86,1.48.98.38.07.76.06,1.14,0,.36-.05.74-.2,1.1-.2.67,0,.81.72,1.3,1.02.27.17.55.21.86.15.22-.04.74-.3.95-.13.1.08.09.41.11.53.05.3.1.6.2.89.2.59.52,1.13,1.02,1.53.54.43,1.05.49,1.71.57.71.08,1.42.38,2.1.59.93.27,1.32-1.17.4-1.45-.65-.19-1.3-.43-1.96-.57-.54-.11-1.04,0-1.45-.42-.78-.81-.28-2.25-1.28-2.91-.48-.31-1.12-.33-1.66-.22-.02,0-.37.09-.24.12-.07-.02-.21-.29-.26-.35-.17-.2-.38-.38-.6-.52-.57-.34-1.19-.37-1.83-.24-.51.1-1.41.41-1.79-.12-.55-.78-1.85-.03-1.3.76h0Z"/>
      <path class="cls-1" d="M30.56,16.27c.98.64,1.87,1.46,2.53,2.43.32.47.58.93.46,1.52s-.41,1.07-.59,1.61c-.39,1.2-.07,2.36.24,3.53.21.8.52,2.12-.32,2.68s-.05,1.83.76,1.3c1.03-.69,1.38-1.88,1.27-3.08-.07-.72-.3-1.4-.47-2.09-.21-.83-.2-1.51.11-2.31.24-.63.52-1.23.54-1.91s-.27-1.34-.65-1.91c-.82-1.23-1.9-2.25-3.13-3.05-.81-.53-1.56.77-.76,1.3h0Z"/>
      <path class="cls-1" d="M6.45,35.86c1.16.44,2.34.87,3.59.91s2.49-.38,3.7-.7c1.04-.27,2.27-.51,3.25.05.92.51,1.35,1.61,1.73,2.53s1.81.5,1.45-.4c-.43-1.04-.88-2.15-1.73-2.92-.94-.85-2.2-1.13-3.44-1.01-1.34.13-2.58.65-3.9.88-1.49.25-2.88-.26-4.26-.78-.9-.34-1.29,1.11-.4,1.45h0Z"/>
      <path class="cls-1" d="M20.79,8.78c.88.53,2.55,1.33,2.7,2.48.07.54-.36.89-.57,1.35-.24.51-.26,1.09.01,1.59.24.45.66.8,1.1,1.04s1.11.4,1.36.89c.22.44.22,1.1.21,1.57,0,.58-.1,1.19-.42,1.67-.48.72-1.66,1.13-2.22.28-.26-.4-.38-.87-.6-1.3-.24-.48-.59-.88-1-1.22-.78-.63-1.9-1.03-2.43-1.92-.43-.73-.39-1.73.07-2.45.32-.5.88-.72,1.23-1.19.41-.55.36-1.16.35-1.82,0-.38.07-.77.03-1.15,0-.05-.02-.1,0-.06l.02-.08c-.02.09-.07.15-.15.18-.03.26-.13-.11-.02.04.05.07.43.12.51.15.91.32,1.31-1.13.4-1.45-1.01-.35-2.11-.2-2.24,1.04-.04.37-.04.76-.05,1.14,0,.28.1.69.02.95-.1.34-.51.5-.76.73-.91.81-1.31,2.1-1.16,3.29.17,1.36,1,2.25,2.1,2.98.52.34,1.13.65,1.53,1.15s.53,1.18.86,1.73c.69,1.13,2.02,1.48,3.24,1.01,1.33-.51,2.01-1.77,2.17-3.13s-.02-3.03-1.25-3.83c-.41-.27-1.77-.6-1.51-1.26.14-.35.43-.62.56-.98.14-.38.17-.77.11-1.17-.25-1.73-2.06-2.75-3.42-3.57-.83-.5-1.58.8-.76,1.3h0Z"/>
      <path class="cls-1" d="M12.74,18.93c1.37,0,3.66-.01,4.1,1.68.19.72-.04,1.49.1,2.22s.56,1.32,1.11,1.84c1.08,1.01,2.87,1.89,3.47,3.31.71,1.67-2.91,2.16-3.95,1.92-1.48-.34-2.83-1.19-4.41-.97-.81.11-1.39.52-2.03.98-.69.49-1.43.85-2.26,1.04-.6.13-1.66.34-2.23,0-.67-.4-.77-1.72-.13-2.16.48-.33,1.13-.42,1.65-.65.73-.31,1.35-.77,1.98-1.25.78-.6,1.55-1.2,2.33-1.8.6-.47,1.11-.97.95-1.8s-.9-1.25-1.22-1.97c-.42-.93-.15-1.97.75-2.49.84-.48.08-1.78-.76-1.3-1.57.9-2.07,2.79-1.34,4.41.18.39.42.72.69,1.05.53.66.17.79-.4,1.23-.88.68-1.74,1.42-2.67,2.04-1.31.88-3.43.92-3.84,2.76-.36,1.62.62,3.31,2.28,3.53,1.96.25,3.75-.5,5.32-1.6,1.92-1.34,3.84.42,5.87.55.94.06,1.85-.21,2.72-.55.76-.29,1.6-.6,2.04-1.34,1.04-1.75-.73-3.49-1.97-4.52-.76-.63-2.17-1.38-2.46-2.38s.14-2.1-.39-3.11c-1.02-1.95-3.35-2.16-5.31-2.16-.97,0-.97,1.5,0,1.5h0Z"/>
      <path class="cls-1" d="M27.33,28c.63.35,1.39.51,2.01.04.65-.49.58-1.36.43-2.07-.13-.63-.41-1.23-.71-1.79-.14-.27-.33-.54-.44-.81-.03-.08-.09-.27-.09-.32,0,.05,0-.13,0-.15-.02.1.06-.11.02-.02.18-.36.09-.81-.27-1.03-.33-.2-.84-.09-1.03.27-.3.6-.27,1.23-.01,1.83.22.51.53.98.76,1.48.17.37.33.89.35,1.28,0,.07,0,.15,0,.22.02.09-.02.02,0,0,.02-.01.04-.05.05-.06.05-.06.08,0,0,0,.09,0,.02,0-.02,0,.08.02-.01,0-.04-.01-.08-.02-.14-.05-.27-.12-.35-.2-.82-.08-1.03.27s-.08.83.27,1.03h0Z"/>
      <path class="cls-1" d="M15.92,7.54c-.53.62-1.05,1.24-1.58,1.86-.48.58-.94,1.18-1.2,1.89s-.2,1.44.11,2.11c.25.55.69,1.01.86,1.58.29.92,1.73.53,1.45-.4-.18-.57-.51-1.04-.81-1.55-.26-.44-.36-.85-.16-1.35s.59-.96.94-1.37c.48-.57.97-1.15,1.45-1.72.26-.31.3-.76,0-1.06-.27-.27-.8-.31-1.06,0h0Z"/>
      <path class="cls-1" d="M20.59,35.08c.8-.09,1.15-.57,1.63-1.17s.97-1.17,1.55-1.66c1.14-.98,2.6-1.46,4.05-.92,1.32.48,1.92,1.96,3.27,2.34,1.28.36,3.17-.38,3.76-1.59.42-.86-.87-1.63-1.3-.76-.28.57-1.07.88-1.68.92-.69.05-1.09-.52-1.53-.98-.93-.96-2.12-1.55-3.45-1.65s-2.58.36-3.61,1.13c-.54.4-1.03.86-1.49,1.36-.24.27-.47.55-.69.83-.11.13-.42.64-.5.65-.95.11-.96,1.61,0,1.5h0Z"/>
    </g>
  </g>
</svg>