<?xml version="1.0" encoding="UTF-8"?>
<svg id="Layer_2" data-name="Layer 2" xmlns="http://www.w3.org/2000/svg" viewBox="0 0 26.31 44.31">
  <defs>
    <style>
      .cls-1 {
        fill: #1a1a1a;
      }
    </style>
  </defs>
  <g id="Layer_1-2" data-name="Layer 1">
    <g>
      <path class="cls-1" d="M14.14,43.47c.29-6.42.4-12.84.31-19.27-.01-1.12-1.75-1.12-1.74,0,.08,6.42-.02,12.85-.31,19.27-.05,1.12,1.69,1.12,1.74,0h0Z"/>
      <path class="cls-1" d="M17.14,41.53c.05-5.62,1.79-11.02,3.75-16.23.39-1.05-1.29-1.5-1.68-.46-2.01,5.36-3.76,10.91-3.81,16.69,0,1.12,1.73,1.12,1.74,0h0Z"/>
      <path class="cls-1" d="M11.94,41.7c-.1-5.87.77-12.78-3.93-17.26-.81-.77-2.04.46-1.23,1.23,4.3,4.1,3.34,10.68,3.43,16.03.02,1.12,1.76,1.12,1.74,0h0Z"/>
      <path class="cls-1" d="M6.08,24.11c5.35-.26,10.7-.34,16.05-.25,1.12.02,1.12-1.72,0-1.74-5.35-.1-10.71-.01-16.05.25-1.11.05-1.12,1.79,0,1.74h0Z"/>
      <path class="cls-1" d="M2.23,21.61c1.69.81,3.75.35,5.55.27,2.11-.09,4.23-.11,6.35-.11s4.19.03,6.28.06c.91.01,1.82.04,2.73,0,.82-.03,1.78.02,2.06-.92.32-1.07-1.35-1.53-1.68-.46l-.04.12.4-.52c-.21.13-.89.05-1.14.05-.39,0-.79,0-1.18,0-.84,0-1.69-.02-2.53-.03-1.83-.02-3.66-.05-5.48-.04s-3.56.03-5.34.09c-.91.03-1.83.08-2.74.14-.77.05-1.65.19-2.37-.16-1.01-.48-1.89,1.02-.88,1.5h0Z"/>
      <path class="cls-1" d="M.29,18.73c1.53,1.26,3.93.87,5.78.87,2.31,0,4.61-.02,6.92-.08s4.61-.13,6.92-.24c1.08-.05,2.16-.09,3.23-.17.98-.07,1.93-.23,2.77-.77.94-.61.07-2.11-.88-1.5-.76.5-1.65.52-2.53.57-1.01.06-2.02.11-3.02.15-2.06.09-4.13.16-6.2.21s-4.04.08-6.05.08c-1.06,0-2.11,0-3.17,0-.75,0-1.9.16-2.53-.35-.86-.71-2.1.52-1.23,1.23H.29Z"/>
      <path class="cls-1" d="M5.01,17.42c1.29.32,2.69.06,4,0s2.64-.11,3.96-.14c2.74-.06,5.48-.05,8.22-.04,1.12,0,1.12-1.73,0-1.74-2.65,0-5.29-.02-7.94.03-1.32.03-2.64.07-3.96.13-1.21.06-2.64.38-3.82.08-1.09-.27-1.55,1.4-.46,1.68h0Z"/>
      <path class="cls-1" d="M10.84,15.07c1.92.04,3.85.01,5.77-.08.45-.02.89-.38.87-.87-.02-.45-.38-.89-.87-.87-1.92.09-3.85.12-5.77.08-.46,0-.89.41-.87.87s.38.86.87.87h0Z"/>
      <path class="cls-1" d="M11.98,12.86c.22.11.45.18.71.17.19,0,.37-.05.56-.08l-.23.03c.26-.03.53-.02.8-.03s.54,0,.8,0c.45,0,.89-.4.87-.87s-.38-.87-.87-.87c-.32,0-.64,0-.96,0-.16,0-.32,0-.47,0-.21.01-.42.05-.62.08l.23-.03c-.07,0-.14.01-.21,0l.23.03s-.09-.02-.13-.03l.21.09-.03-.02c-.21-.11-.44-.15-.67-.09-.2.06-.42.21-.52.4-.21.4-.12.97.31,1.19h0Z"/>
      <path class="cls-1" d="M14.31,10.05l.04-9.21c0-1.12-1.73-1.12-1.74,0l-.04,9.21c0,1.12,1.73,1.12,1.74,0h0Z"/>
    </g>
  </g>
</svg>