<?xml version="1.0" encoding="UTF-8"?>
<svg id="Layer_2" data-name="Layer 2" xmlns="http://www.w3.org/2000/svg" viewBox="0 0 28.31 46.31">
  <defs>
    <style>
      .cls-1 {
        fill: #1a1a1a;
      }
    </style>
  </defs>
  <g id="Layer_1-2" data-name="Layer 1">
    <g>
      <g>
        <path class="cls-1" d="M13.86,12.36s.02.02.03.02c-.04-.02-.09-.04-.13-.06.04.01.07.02.1.04Z"/>
        <path class="cls-1" d="M27.45,20.19c-.21.13-.42.25-.63.34.03.03.05.06.08.1.34.45.43,1.03.26,1.59-.37,1.23-1.39,1.51-2.21,1.59.02.07.02.14.02.22-.01,1.05-.79,1.84-1.82,1.84h-.23c.03.25-.01.52-.11.78-2.17,5.81-3.63,10.73-3.68,15.89-.01,1.04-.82,1.83-1.88,1.83-.4,0-.78-.12-1.1-.34-.01.16-.01.33-.02.49-.04,1.02-.86,1.79-1.9,1.79-.52,0-1.02-.2-1.36-.56-.31-.32-.48-.75-.47-1.23-.11.02-.21.03-.32.03-1.06,0-1.87-.79-1.89-1.83-.01-.89,0-1.81.02-2.76.07-4.64.15-9.44-3.13-12.56-.39-.38-.59-.87-.57-1.37-.74-.2-1.25-.86-1.27-1.69,0-.09,0-.18.02-.26-.96-.04-1.75-.22-2.46-.56-.78-.37-1.16-1.14-.97-1.96.03-.11.06-.23.11-.33-.45-.16-.89-.4-1.29-.73-.59-.48-.8-1.22-.55-1.92.27-.76,1.03-1.29,1.85-1.29.44,0,.85.15,1.2.44.07.05.28.15.9.15.11,0,.23,0,.34,0,0-.14,0-.3.01-.46.12-.98.89-1.69,1.83-1.69.16,0,.32.02.48.06.25.06.55.09.91.09.47,0,.99-.05,1.49-.1.32-.03.63-.07.93-.09-.04-.14-.06-.28-.07-.43-.03-.48.16-.96.51-1.33.29-.31.68-.51,1.1-.55-.06-.4.01-.8.2-1.16.17-.32.47-.6.82-.77-.02-.12-.03-.26-.03-.39l.03-9.21c.01-1.05.81-1.84,1.88-1.84.51,0,1,.2,1.34.55.34.33.52.8.52,1.3l-.03,9.21c0,.1-.01.2-.03.29.68.26,1.17.91,1.2,1.7,0,.07,0,.14-.01.2h.09c1.05,0,1.87.82,1.91,1.83.01.14,0,.28-.04.42.92,0,1.84,0,2.76,0,1.05,0,1.84.81,1.84,1.87.56-.04,1.05-.12,1.45-.38.31-.19.65-.3,1-.3.79,0,1.51.57,1.75,1.38.24.82-.07,1.64-.78,2.11Z"/>
        <path class="cls-1" d="M13.86,12.36s.02.02.03.02c-.04-.02-.09-.04-.13-.06.04.01.07.02.1.04Z"/>
      </g>
      <path class="cls-1" d="M13.86,12.36s.02.02.03.02c-.04-.02-.09-.04-.13-.06.04.01.07.02.1.04Z"/>
    </g>
  </g>
</svg>