<?xml version="1.0" encoding="UTF-8"?>
<svg id="Layer_2" data-name="Layer 2" xmlns="http://www.w3.org/2000/svg" viewBox="0 0 33.07 28.76">
  <defs>
    <style>
      .cls-1 {
        fill: #1a1a1a;
      }
    </style>
  </defs>
  <g id="Layer_1-2" data-name="Layer 1">
    <g>
      <path class="cls-1" d="M11.75.67c-1.82-.17-4.46-.53-5.94.84-.64.59-1.15,1.41-1.61,2.14-.27.43-.51.87-.7,1.35-.22.56-.24,1.25-.69,1.7-.55.56-.99.77-1.17,1.61-.24,1.15-.21,2.39-.32,3.56-.06.66-.17,1.11-.44,1.74-.14.33-.29.62-.34.97-.09.55.07.94.13,1.46.09.78-.25,1.09-.47,1.77-.26.79-.29,1.68-.07,2.49.12.45.36.82.56,1.23.26.56.35,1.16.61,1.71.67,1.46,2.31,2.14,3.77,2.51.9.23,1.82.36,2.71.63,1.11.33,1.62,1,2.53,1.6.67.45,1.47.42,2.25.29,1.35-.24,2.5-.61,3.9-.46.85.09,1.43.26,2.17.66.4.22.78.33,1.25.29s.87-.22,1.29-.38c.73-.27,1.43-.37,2.21-.46,1-.11,1.92-.31,2.85-.72,1.18-.52,2.28-1.24,3.61-1.29.37-.01.8-.33.75-.75-.25-2.14-.34-4.29-.22-6.44.07-1.19.06-2.3.79-3.27.46-.61.91-1.11,1.21-1.84.58-1.37.85-3.08.6-4.56-.3-1.78-1.79-2.44-2.57-3.93-.69-1.31-1.73-2.4-3.02-3.11-.69-.38-1.46-.66-2.24-.81-.72-.13-1.43,0-2.13-.09-1-.12-1.9-.87-2.92-1.04-.67-.11-1.34-.08-1.99.08-.89.22-1.68.74-2.58.93-1.2.25-2.42-.1-3.57-.41-.93-.25-1.33,1.2-.4,1.45,1.56.42,3.16.78,4.75.3.75-.22,1.44-.64,2.21-.83,1.05-.26,2,.07,2.94.53,1.41.68,2.9.27,4.37.8,1.65.6,2.68,1.8,3.47,3.3.38.72.82,1.04,1.4,1.6.76.72.91,1.57.87,2.58-.07,1.82-.74,2.97-1.78,4.38-.91,1.23-.85,2.94-.92,4.4-.08,1.99,0,3.98.24,5.96l.75-.75c-1.66.06-2.96.91-4.45,1.52-.93.38-1.85.45-2.84.57-.92.11-2.03.77-2.91.64-.45-.07-.73-.31-1.16-.47s-.88-.2-1.32-.26c-.95-.13-1.89-.23-2.84-.07-.9.14-2.16.82-3.02.45-.66-.28-1.15-1.01-1.83-1.35-1.36-.67-2.88-.8-4.32-1.21-.79-.22-1.66-.54-2.2-1.19-.36-.44-.36-.87-.53-1.38-.14-.44-.42-.8-.62-1.21-.53-1.1-.22-1.94.23-2.98.35-.8.12-1.3.04-2.14s.59-1.72.7-2.62c.13-1.07.17-2.15.26-3.22.07-.82.2-1.11.81-1.69.22-.2.41-.37.56-.64.45-.8.5-1.76.99-2.58.66-1.1,1.37-2.31,2.76-2.47,1.18-.14,2.42-.05,3.6.06.96.09.95-1.41,0-1.5h0Z"/>
      <path class="cls-1" d="M28.43,4.52c-.03.63-.8,1.17-1.14,1.67-.55.8-.49,1.59-.26,2.49.13.51.12.86-.05,1.36-.18.53-.32,1.08-.3,1.65.02.42.16.78.51,1.03.17.12.36.18.56.21.07.01.66.08.5,0l-.34-.45c.25.61.36,1.34.49,1.99.15.69.22,1.37.15,2.07-.1.96,1.4.95,1.5,0,.15-1.38-.23-2.81-.6-4.13-.16-.59-.53-1.05-1.22-.96-.05,0-.1,0-.15,0-.15-.01-.11.06.11.22,0,0,.01-.39.02-.42.04-.35.19-.68.3-1.02.19-.6.18-1.16.03-1.77-.13-.54-.31-.97.02-1.47.56-.84,1.33-1.39,1.39-2.49.05-.96-1.45-.96-1.5,0h0Z"/>
      <path class="cls-1" d="M1.42,17.1c.64.33,1.46.69,1.68,1.44.13.45.12.93.28,1.38.17.47.47.88.85,1.2,1.31,1.13,3.41,2.11,3.42,4.12,0,.96,1.5.97,1.5,0,0-1.09-.46-2.06-1.14-2.89s-1.66-1.47-2.54-2.15c-.37-.29-.64-.57-.74-1.04-.11-.52-.14-1.04-.38-1.53-.43-.88-1.33-1.4-2.17-1.83s-1.62.86-.76,1.3h0Z"/>
      <path class="cls-1" d="M4.14,7.24c.55.34,1.09.71,1.65,1.03s1.09.34,1.66.02c.5-.28.92-.68,1.27-1.14.14-.19.26-.4.46-.52s.45-.17.67-.25c1.03-.38,1.44-1.17,1.9-2.1.43-.88,1.16-1.5,2.18-1.53.96-.03.97-1.53,0-1.5-1.02.03-2,.43-2.72,1.16-.33.34-.58.74-.78,1.17-.18.37-.33.83-.63,1.13s-.8.36-1.19.54c-.5.23-.77.62-1.1,1.04-.15.19-.32.38-.51.53-.08.06-.27.21-.37.23l.06.03c-.07-.04-.15-.09-.22-.13-.53-.32-1.05-.66-1.58-.98-.82-.51-1.57.78-.76,1.3h0Z"/>
      <path class="cls-1" d="M25.45,17.98c.02.33.02.66,0,.99,0,.14-.02.27-.02.41,0,.04-.03.16.03.07-.1.15-.47.25-.64.33-.23.12-.45.24-.68.37-.45.26-1.01.53-1.36.92-.22.24-.33.59-.24.92.02.07.08.26.14.3.05.09.05.05,0-.12-.02.05-.05.09-.08.13-.17.14-.31.4-.41.6-.09.18-.09.43-.19.6-.18.32-.79.55-1.12.67-1.06.37-2.15,0-3.2.32-.92.27-.53,1.72.4,1.45.74-.22,1.56,0,2.33-.11.72-.11,1.43-.37,2.04-.78.29-.2.6-.41.79-.71.18-.28.19-.62.36-.89.2-.32.45-.55.53-.93.09-.42-.05-.73-.22-1.1l.1.38v-.1c-.03.13-.07.25-.1.38-.08.05-.08.05,0,0,.04-.03.09-.06.13-.09.11-.07.22-.14.33-.21.22-.14.44-.27.66-.4.39-.22.83-.4,1.2-.64.88-.57.75-1.83.7-2.75s-1.55-.97-1.5,0h0Z"/>
      <path class="cls-1" d="M24.66,6.23c-.07.03-.15.06-.23.09-.56.07-1.1.82-.53,1.28,1.42,1.16,2.63-1.03,2.53-2.27-.06-.77-.4-1.48-1.14-1.78s-1.65-.22-2.41-.14c-.4.04-.81.1-1.2.18-.14.03-.4.15-.54.12.16.03-.11-.15-.18-.21-.54-.48-1.2-.76-1.93-.82-1.62-.13-2.77,1.37-4.4,1.08-.94-.16-1.35,1.28-.4,1.45,1.21.21,2.24-.05,3.31-.61.45-.24.89-.47,1.41-.43s.85.32,1.23.65c.46.39.94.42,1.5.3.6-.12,1.19-.23,1.81-.26.41-.02,1.27-.17,1.41.33.06.22.05.45,0,.67-.03.1-.06.19-.11.28-.03.07-.08.14-.13.2-.13.12-.03.19.3.19l-.53,1.28c.22-.03.42-.06.63-.14.38-.15.64-.5.52-.92-.09-.36-.55-.68-.92-.52h0Z"/>
      <path class="cls-1" d="M4.79,10.65c-.56,1.05-1.57,3.26-.25,4.12.23.15.53.19.76.34.2.13.27.37.33.59.16.68.01,1.4.19,2.09.37,1.42,2.03,2.22,3.16,1.06.49-.5.82-1.22,1.03-1.88.24-.75.17-1.49-.03-2.23-.22-.82-.37-1.57-.23-2.42s.45-1.7.8-2.5c.16-.37.11-.81-.27-1.03-.32-.19-.86-.1-1.03.27-.68,1.54-1.25,3.17-1,4.88.11.72.49,1.46.41,2.2-.04.41-.23.8-.42,1.15-.1.19-.25.54-.47.62-.56.19-.58-1.07-.58-1.34-.02-.68-.05-1.37-.39-1.98-.18-.32-.45-.6-.77-.79-.13-.07-.27-.12-.41-.18-.06-.02-.11-.04-.17-.06-.12-.07-.14-.08-.05-.02-.08-.24.13-.74.19-.97.12-.41.29-.8.49-1.18.46-.85-.84-1.61-1.3-.76h0Z"/>
      <path class="cls-1" d="M11.86,21.77c-1.21.78-.23,2.13.93,2.19,1.34.06,2.49-.91,2.96-2.11.62-1.59-.02-3.04-.01-4.64,0-.84.48-1.32,1.02-1.9.57-.62,1.15-1.22,1.7-1.85.91-1.05,2.05-2.33,2.02-3.81s-1.36-2.39-2.75-2.49-2.66.41-2.98,1.86c-.14.63.02,1.38-.25,1.97-.31.67-1.16,1.17-1.64,1.73-1.2,1.37-1.61,2.82-1.23,4.59.21.98.24,1.88-.15,2.83-.32.77-.63,1.46-.38,2.3.28.92,1.73.53,1.45-.4-.15-.49.16-.97.34-1.41.23-.55.36-1.1.4-1.69.07-1.1-.47-2.19-.32-3.26.16-1.17,1.06-2.05,1.89-2.82s1.2-1.39,1.28-2.5c.03-.41-.04-.98.2-1.34.3-.45,1.1-.39,1.57-.31,1.59.28,1,1.72.36,2.62s-1.44,1.73-2.21,2.55c-.69.74-1.5,1.49-1.73,2.51-.27,1.21.22,2.41.24,3.62.01.66-.09,1.38-.54,1.9-.16.19-.37.37-.61.47-.1.04-.21.07-.31.09-.07.02-.14.02-.21.02-.27-.04-.36.16-.27.61.81-.52.06-1.82-.76-1.3h0Z"/>
      <path class="cls-1" d="M22.36,10.56c-.03.18-.08.35-.14.44-.09.17-.19.34-.29.51-.21.35-.4.72-.48,1.11-.1.46-.07.95.16,1.37.1.18.24.34.4.48.09.08.2.15.29.23.02.02.21.16.11.08.06.05.11.1.16.14.06.07.06.07.03.02.03.04.06.08.09.12.16.21.31.39.55.51s.49.17.74.17c.18,0,.37-.04.55-.02-.12-.01.06.02.08.03-.16-.05.08.05.11.07.13.08.25.18.38.27.31.22.68.37,1.07.35s.77-.33.75-.75c-.02-.38-.33-.78-.75-.75-.04,0-.08,0-.12,0h.08c-.14-.08.09.08-.05,0-.12-.08-.24-.15-.35-.23-.24-.18-.5-.35-.8-.43-.2-.05-.41-.06-.62-.05-.08,0-.16.01-.24.01-.03,0-.25.01-.1,0-.08,0-.08,0,0,.02l-.05-.05c.04.05.03.04-.02-.03-.11-.15-.22-.3-.37-.42s-.29-.23-.44-.34c-.17-.13.07.09-.07-.06,0,0-.16-.17-.07-.06-.09-.11,0,.04-.04-.09-.05-.17-.02.09,0-.09,0-.03.03-.22,0-.1.02-.08.04-.15.06-.22,0-.01.09-.22.04-.11.03-.07.07-.14.11-.21.08-.15.17-.29.25-.43.2-.34.38-.7.45-1.09s-.1-.83-.52-.92c-.37-.08-.85.11-.92.52h0Z"/>
      <path class="cls-1" d="M19.77,15.69c-.33.07-.67.27-.9.52-.27.31-.44.67-.47,1.08-.02.37.18.67.47.87.13.09.26.17.39.25.28.18.57.36.85.54.33.21.84.08,1.03-.27.2-.37.08-.8-.27-1.03-.41-.26-.84-.52-1.24-.79l.15.12s-.04-.03-.06-.06l.12.15s-.02-.03-.03-.05l.08.18v-.03c0,.07.01.13.02.2,0-.04,0-.08,0-.12l-.03.2c.01-.08.03-.16.06-.23l-.08.18c.04-.08.08-.16.13-.23l-.12.15c.06-.08.13-.15.21-.21l-.15.12c.06-.05.13-.09.21-.12l-.18.08c.07-.03.13-.05.2-.06.18-.04.36-.19.45-.34.09-.16.13-.4.08-.58s-.17-.36-.34-.45c-.19-.1-.37-.12-.58-.08h0Z"/>
      <path class="cls-1" d="M27.6,24.39c.69-.79.97-1.94.6-2.94-.07-.19-.17-.34-.34-.45-.16-.09-.4-.13-.58-.08-.36.12-.67.53-.52.92.05.15.09.3.11.46l-.03-.2c.03.2.02.4,0,.61l.03-.2c-.03.2-.08.4-.16.58l.08-.18c-.07.17-.16.32-.27.46l.12-.15s-.06.07-.09.1c-.13.15-.22.32-.22.53,0,.18.08.4.22.53.28.26.79.32,1.06,0h0Z"/>
      <path class="cls-1" d="M12.97,26.29c.06-.03.11-.05.17-.08l-.18.08c.45-.19.93-.32,1.41-.39l-.2.03s.08-.01.12-.02c.1,0,.2-.02.29-.06.09-.03.17-.08.24-.16.13-.13.23-.34.22-.53s-.07-.4-.22-.53c-.14-.13-.34-.24-.53-.22-.36.04-.72.1-1.07.2s-.69.23-1.01.38c-.16.07-.3.28-.34.45-.05.18-.03.42.08.58s.26.3.45.34l.2.03c.14,0,.26-.03.38-.1h0Z"/>
      <path class="cls-1" d="M13.08,6.33c-.22.12-.44.28-.61.46s-.33.38-.44.61c-.14.3-.22.6-.23.94s.08.65.22.95c.07.16.29.3.45.34.18.05.42.03.58-.08s.3-.26.34-.45l.03-.2c0-.14-.03-.26-.1-.38v-.03c.01.06.04.12.06.18-.04-.1-.07-.21-.09-.32l.03.2c-.02-.12-.02-.24,0-.36l-.03.2c.02-.13.05-.26.1-.38l-.08.18c.05-.12.12-.23.2-.34l-.12.15c.09-.12.2-.23.32-.32l-.15.12c.09-.07.18-.13.28-.18.35-.19.48-.69.27-1.03-.23-.35-.66-.47-1.03-.27h0Z"/>
    </g>
  </g>
</svg>