<?xml version="1.0" encoding="UTF-8"?>
<svg id="Layer_2" data-name="Layer 2" xmlns="http://www.w3.org/2000/svg" viewBox="0 0 27.96 26.15">
  <defs>
    <style>
      .cls-1 {
        fill: #1a1a1a;
      }
    </style>
  </defs>
  <g id="Layer_1-2" data-name="Layer 1">
    <g>
      <path class="cls-1" d="M11.3.09c-3.02-.33-6.26.18-8.61,2.24S-.25,7,.37,9.85c.4,1.87,0,3.51-.25,5.36-.19,1.35-.2,2.81.42,4.07,1.21,2.44,4.97,3.36,7.48,3.09.78-.08,1.43-.38,2.17-.6,1.05-.32,1.89-.16,2.83.4,1.38.81,2.38,2.14,3.8,2.91,2.52,1.36,6.04,1.37,8.72.46.96-.32,1.89-.9,2.26-1.9.57-1.55-.34-3.25-1.02-4.61-.78-1.57-1.86-3.41-1.29-5.22.43-1.37,1.66-2.28,1.7-3.81.07-3.62-3.79-4.83-6.6-5.57-.96-.25-1.94-.51-2.81-1.01-.81-.47-1.41-1.15-2.07-1.79C14.36.35,13.05.29,11.3.09c-.96-.11-.95,1.39,0,1.5.67.08,1.47.05,2.11.27.7.24,1.16.77,1.67,1.28.84.85,1.7,1.53,2.81,1.99,2.34.99,5.9.94,7.35,3.35.81,1.35.21,2.37-.54,3.55-.66,1.03-.95,2.15-.82,3.37s.58,2.31,1.11,3.39c.58,1.18,2.22,3.53,1.08,4.74-.83.88-2.64.96-3.75,1.04-1.38.1-2.8,0-4.1-.51-2.39-.95-3.79-3.58-6.47-3.96-1.15-.16-2.02.33-3.09.62-1.53.42-3.16.05-4.62-.48-3.48-1.25-2.37-4.54-2.01-7.37.18-1.43-.08-2.63-.33-4.02-.28-1.51.07-2.96.95-4.22,1.93-2.8,5.51-3.39,8.67-3.04.96.1.95-1.4,0-1.5h0Z"/>
      <path class="cls-1" d="M8.43,1.47c.03.2.1.33.03.45-.09.14-.55.2-.71.28-.39.18-.71.45-.97.79s-.45.73-.6,1.14c-.17.46-.17,1.09-.62,1.34-.86.49-1.67.81-2.18,1.73-.38.69-.69,1.92.07,2.47.64.45,1.91.31,2.58,0,.45-.21.71-.55,1.01-.93.35-.45.71-.58,1.26-.7.86-.19,1.62-.42,2.22-1.1.19-.22.43-.69.75-.71.35-.02.85.46,1.19.56.49.14.98.06,1.42-.17.57-.29.82-.56,1.49-.38,1.3.36,2.31.21,3.48-.47.84-.48.08-1.78-.76-1.3-.65.37-1.22.6-1.98.42-.6-.14-1.17-.37-1.8-.2-.44.12-.87.63-1.3.66s-.93-.46-1.36-.57c-1.06-.28-1.63.47-2.26,1.17-.68.74-1.86.58-2.71,1.07-.53.31-.73.97-1.23,1.27-.19.12-.43.13-.64.14-.15,0-.29,0-.44-.01.11.22.16.18.15-.1.19-.28.24-.56.51-.81.23-.22.5-.38.78-.51.46-.22.94-.32,1.24-.76.58-.84.31-2.16,1.37-2.68.52-.26,1.04-.33,1.39-.85s.16-1.02.06-1.59c-.16-.95-1.61-.55-1.45.4h0Z"/>
      <path class="cls-1" d="M1.63,13.97c.31.15.58.33.82.58.1.11.18.23.27.34l.06.1c.03-.18.02-.22-.03-.11-.05.06-.08.19-.11.25-.32.78-.15,1.65.23,2.38.18.33.41.63.66.91.17.19.31.33.25.56-.08.28-.25.55-.36.82-.14.37-.17.74-.08,1.13.22.94,1.67.54,1.45-.4-.03-.13.13-.42.22-.61.17-.36.32-.72.31-1.12-.02-.92-.85-1.38-1.19-2.15-.12-.27-.19-.58-.12-.86.05-.19.17-.36.22-.56.07-.27.06-.53-.05-.79-.32-.77-1.06-1.4-1.8-1.76-.36-.18-.81-.1-1.03.27-.19.33-.1.85.27,1.03h0Z"/>
      <path class="cls-1" d="M8.96,17.98c1.24-1.24,1.18-3.16.11-4.49-.24-.3-.52-.55-.83-.77-.17-.13-.67-.35-.68-.6-.04-.51,1.22-.8,1.54-.89.72-.21,1.44-.42,2.05-.88.19-.14.61-.73.84-.73.09,0,.29.14.37.18.23.1.44.16.69.19.86.1,1.7-.26,2.4-.72.11-.07.29-.26.42-.29-.01-.07,0-.08.03-.05.05.03.09.06.13.1.37.2.58.42,1.03.42.97,0,.97-1.49,0-1.5.1.05.09.04-.03-.03-.07-.04-.13-.09-.19-.14-.15-.11-.29-.21-.47-.27-.44-.16-.87-.06-1.26.18-.65.39-1.34,1.04-2.16.76-.47-.16-.85-.39-1.37-.26-.42.11-.73.4-1.02.69-.57.57-1.26.74-2.01.97s-1.55.53-2.06,1.18c-.54.69-.56,1.58.03,2.25.51.58,1.25.83,1.63,1.54s.32,1.55-.25,2.13c-.68.68.38,1.75,1.06,1.06h0Z"/>
      <path class="cls-1" d="M17.34,21.66c.86.7,1.81,1.39,2.98,1.24s1.74-1.09,2-2.16l-1.25.33c.5.41,1.08,1.11,1.76,1.16.58.05,1.02-.38,1.22-.88.51-1.27-.09-2.85-.78-3.93-.39-.61-.74-1.16-.85-1.9s-.09-1.47-.02-2.18.25-1.33.63-1.92.67-1.06.75-1.75c.12-.96-1.38-.95-1.5,0-.06.45-.47.85-.69,1.22-.27.47-.46.99-.56,1.52-.21,1.1-.24,2.3-.07,3.4.19,1.16.87,1.93,1.38,2.95.26.52.42,1.15.37,1.74,0,.1,0,.21-.05.3.44.04.52-.02.23-.18-.13-.23-.55-.45-.76-.62-.41-.34-1.11-.26-1.25.33-.13.53-.26,1.1-.91,1.08-.59-.01-1.12-.47-1.55-.82-.74-.6-1.81.45-1.06,1.06h0Z"/>
      <path class="cls-1" d="M17.1,12.54c-.04-.77-.73-1.28-1.48-1.13-.59.11-1.1.56-1.65.8-1.08.48-2.28,1.05-2.6,2.3-.16.63-.03,1.34.48,1.77.27.23.62.36.97.34.14,0,.25-.03.38-.08.04-.02.53-.3.51-.32-.22.01-.27.03-.16.06.07.03.13.07.19.11.1.07.19.15.27.25.15.19.25.42.39.62.4.6,1.08,1.03,1.82.79l-.73-.19c.13.11,0,0,0-.02.01.05.02.1.03.15.03.14.05.28.1.41.16.46.54.76,1.04.79.44.02.82.16,1.23-.1.38-.25.7-.67.94-1.05.08-.12.29-.39.29-.53.06-.09.01-.09-.13.02l.09-.02c.11-.02.21-.06.31-.12.46-.26.55-.77.54-1.25-.02-.92-.31-1.83-.83-2.59l-.65,1.13c.75-.09,1.39-.49,1.65-1.22.24-.66.03-1.45-.48-1.93-.26-.25-.59-.38-.91-.52-.36-.16-.74-.39-1.14-.44-.45-.07-.84.13-1.08.51-.15.24-.19.33-.49.38-.4.07-.62.56-.52.92.12.42.52.59.92.52.44-.07.84-.32,1.12-.66.05-.07.16-.16.18-.25.09-.12.04-.13-.13,0-.19.03-.24.06-.15.08.03.05.22.1.28.12.13.06.26.11.39.17.23.1.61.19.62.5,0,.11-.13.3-.26.32-.51.06-1,.61-.65,1.13.32.46.54.97.61,1.53.02.14,0,.29.02.44v.06c-.02.2.07.11.26-.26-.04,0-.1.03-.13.03-.35.07-.59.4-.74.7-.12.24-.24.47-.4.68-.08.1-.24.2-.29.32-.09.21.17-.14.19-.04-.01-.05-.32-.06-.36-.06-.46-.03.25.14.12.28.01-.01-.05-.22-.06-.26-.05-.23-.09-.45-.22-.66-.07-.12-.18-.23-.29-.31-.08-.06-.16-.11-.26-.13-.14-.04-.28.03-.4,0-.05-.01-.16-.16-.22-.25-.32-.53-.65-1-1.2-1.31-.29-.17-.61-.28-.95-.26-.18.01-.36.07-.52.17-.07.04-.14.09-.2.15-.2.17-.05.02-.01.03.19.05.07,0,.08-.16s.11-.33.21-.46c.36-.46.96-.69,1.48-.91.33-.14.65-.28.96-.47.12-.07.29-.14.38-.23-.05.05.08-.05.07-.03-.05.02-.09.01-.13-.01-.11-.06-.17-.17-.18-.32.05.96,1.55.97,1.5,0h0Z"/>
    </g>
  </g>
</svg>