<?xml version="1.0" encoding="UTF-8"?>
<svg id="Layer_2" data-name="Layer 2" xmlns="http://www.w3.org/2000/svg" viewBox="0 0 31.74 23.35">
  <defs>
    <style>
      .cls-1 {
        fill: #1a1a1a;
      }
    </style>
  </defs>
  <g id="Layer_1-2" data-name="Layer 1">
    <g>
      <path class="cls-1" d="M11.59.24c-1.47.06-2.89-.37-4.38-.21-1.19.13-2.36.5-3.35,1.19C1.69,2.74,1.53,5.32.4,7.51c-.43.84-.6,1.53-.07,2.38.79,1.24,1.05,2.66,1.44,4.08.62,2.25,1.03,5.06,3.89,5.25.9.06,1.79-.18,2.51-.71.77-.56,1.32-.74,2.25-.73.3,0,.6,0,.9,0,.3,0,.6,0,.9,0-.13-.03-.14.02-.04.16.27.33.36.87.64,1.24s.63.71,1.03.97c.48.31.97.43,1.52.59.66.19,1.15.52,1.76.83,1.18.6,2.59.85,3.87,1.16,1.01.24,2.65.95,3.66.4.49-.27.71-.76,1.24-1,.5-.22,1.06-.27,1.57-.49.92-.4,1.56-1.12,1.53-2.16-.04-1.24-.71-2.67-1.21-3.79-.14-.32-.29-.63-.45-.93-.08-.14-.68-.91-.68-1.04,0-.45.88-1.12,1.18-1.37.91-.78,2.37-.66,3.05-1.69.74-1.12.78-3.05.83-4.35.02-.44-.36-.71-.75-.75-2.05-.23-4.08-.6-6.07-1.12-.42-.11-.92-.18-1.32-.37-.75-.35-.75-.61-1.1-1.21-.32-.55-.75-1.02-1.31-1.33-.5-.29-1.09-.43-1.66-.44-1.1-.02-2.03-.08-3.13-.29-1.7-.33-3.53-.92-5.26-.49-.94.23-.54,1.68.4,1.45,1.88-.47,4.2.5,6.08.79.77.12,1.63-.1,2.38.1.93.25,1.15,1,1.6,1.72.78,1.25,2.49,1.43,3.81,1.74,1.84.44,3.71.74,5.59.95l-.75-.75c-.04.87.03,3.12-.79,3.69-.27.19-.8.19-1.13.32-.4.16-.75.37-1.09.63-.7.53-1.45,1.24-1.91,1.99s-.12,1.23.31,1.88c.66,1,1.09,2.09,1.47,3.21.19.56.68,1.54.12,2.07-.35.33-1.02.36-1.47.5-.39.12-.78.26-1.11.5-.37.26-.51.6-.97.69s-1.34-.29-1.81-.4c-.68-.16-1.35-.33-2.02-.5-1.03-.27-1.88-.62-2.8-1.14-1-.57-2.17-.44-2.95-1.41-.44-.55-.44-1.46-1.05-1.86-.72-.47-2.03-.21-2.83-.21-.84,0-1.59-.05-2.29.48-1.06.81-2.31,1.53-3.45.33-.79-.82-.95-2.44-1.24-3.52-.32-1.16-.52-2.44-1.01-3.53-.23-.52-.74-.99-.59-1.62.1-.44.49-.94.66-1.38.47-1.2.69-2.55,1.46-3.61.84-1.15,2.19-1.72,3.57-1.88,1.45-.17,2.84.27,4.28.21.96-.04.97-1.54,0-1.5h0Z"/>
      <path class="cls-1" d="M28.07,7.18c-.96-.59-2.12-.27-3.04.24-.51.28-.62.66-.66,1.21-.04.58-.08,1.21-.21,1.78l.19-.33c-.26.3-.53.49-.63.89s-.03.79.16,1.15l.65-1.13c-1.55.12-1.11,2.04-1.23,3.11l.37-.65-.09.05.38-.1s-.16-.16-.21-.25c-.1-.16-.16-.35-.21-.54-.12-.45-.14-.84-.08-1.3.16-1.05-.02-2.11.12-3.17.06-.49.28-.97.03-1.44-.24-.43-.73-.72-1.2-.81-.11-.02-.23-.03-.34-.04,0,0-.35-.01-.25.03.08.03-.03-.07-.05-.12-.04-.07-.07-.15-.11-.22-.26-.46-.62-.82-1.06-1.11-.81-.53-1.56.77-.76,1.3.49.32.59.89,1,1.27.25.23.55.34.88.35.2,0,.53-.07.63.16l-.1-.38c0,.22-.09.48-.12.7-.04.27-.07.53-.08.8-.03.53,0,1.06,0,1.6,0,.5-.11.98-.13,1.48s.09,1.03.24,1.5c.25.79.94,1.8,1.91,1.67.67-.09.75-.69.73-1.24s0-1.12.19-1.61l-.34.45h-.1c.58-.04.92-.59.65-1.12-.03-.06-.02.02.01-.04,0,.01.2-.15.23-.19.23-.26.24-.59.28-.93.04-.32.07-.63.11-.95.02-.16.04-.32.06-.49v-.14c.02-.17.02-.19.01-.07l-.27.27c.43-.32,1.2-.66,1.71-.35.82.51,1.58-.79.76-1.3h0Z"/>
      <path class="cls-1" d="M16.1,3.66c-1.18-.59-2.58-.85-3.79-.18-1.05.58-1.66,1.85-1.24,3.02.11.29.25.55.47.78.18.2.5.32.64.55.11.19.14.45.21.66.11.31.26.6.51.83.48.43,1.12.53,1.74.54.55.01,1.13,0,1.65-.19.34-.12.66-.31.91-.58.09-.1.26-.27.3-.41-.02.07.03-.06.04-.06h0c-.16.01-.19.04-.09.06.06.08.34.15.43.19.17.08.33.17.49.25.34.19.67.4,1,.62.8.55,1.55-.75.76-1.3-.61-.42-1.25-.78-1.93-1.07-.74-.32-1.4-.26-1.9.42-.12.17-.21.33-.4.42-.24.12-.54.13-.8.13-.35.01-1.04.11-1.25-.24-.13-.22-.15-.52-.25-.76-.13-.31-.3-.57-.56-.78-.2-.16-.43-.27-.53-.51-.09-.2-.08-.45,0-.66.42-1.15,2.03-.85,2.85-.43s1.62-.86.76-1.3h0Z"/>
      <path class="cls-1" d="M8.53,1.75c-.4-.06-.76-.04-1.13.11-.34.13-.65.31-.95.5-.55.34-1.16.69-1.64,1.13-.52.49-.68,1.25-.85,1.92-.08.31-.15.62-.19.93-.06.45-.15.96.2,1.32.45.46,1.44.38,1.97.13.27-.13.5-.34.64-.61,0-.01.16-.48.18-.48.01,0-.13.17-.02.04-.11.12,0,0,.04-.02.15-.11-.13.04.04-.02.05-.02.1-.04.15-.05.11-.04.22-.07.33-.12.3-.12.58-.27.8-.51.18-.2.31-.42.44-.65.05-.1.1-.2.16-.3.03-.06.07-.11.1-.17.08-.14-.07.05.04-.05.02-.02.17-.14.04-.05.06-.04.13-.08.2-.11-.15.07.18-.07.22-.09.07-.03.14-.06.21-.1.34-.2.6-.53.67-.93.1-.53-.17-1.01-.66-1.23-.33-.15-.71-.22-1.06-.32-.38-.1-.83.13-.92.52s.12.81.52.92c.23.06.46.13.7.19.05.01.1.03.15.04.17.04,0,.01,0,0l-.19-.26v-.22c-.02.07-.02.08,0,.03,0-.03.02-.06.04-.07-.04.09-.06.04-.01.01-.05.03-.09.05-.14.07-.06.03-.16.06-.29.12-.22.11-.43.26-.59.45-.27.31-.43.68-.63,1.04-.02.03-.1.15-.01.03-.03.03-.06.06-.09.1-.02.02-.11.09,0,0-.03.02-.07.04-.11.06-.02.02-.13.07,0,0-.04.02-.08.03-.12.04-.09.03-.18.06-.27.09-.45.16-.87.38-1.1.83-.07.13-.14.3-.17.45-.02.09,0,0,.01-.02.05-.09-.03.09,0,0l.03-.02c-.06.03-.07.04-.02.01.1,0-.05-.02-.06,0h-.03c.08,0,.09,0,.04,0-.06,0-.11,0-.17,0-.09,0-.18-.02-.27-.01-.29.03.5.34.43.46.02-.03.01-.15.01-.19.02-.22.08-.49.14-.73s.13-.49.2-.73c.03-.12.07-.23.11-.35.05-.16.01-.12.11-.26-.02.03-.08.07.04-.04.02-.02.14-.13.11-.1.05-.04.19-.13.27-.19.24-.17.49-.33.73-.49s.49-.31.74-.45c.12-.07.2-.11.29-.13.05-.02.11-.03.16-.04-.11.02.13,0,.01,0,.39.05.82-.09.92-.52.08-.35-.11-.86-.52-.92h0Z"/>
      <path class="cls-1" d="M6.44,11.56c-.97.07-1.8.66-2.11,1.6-.16.47-.11,1.02.2,1.4.33.41.81.51,1.31.55l-.65-1.13c-.3.54-.5,1.14-.22,1.73s.91.78,1.53.68c.54-.09,1.06-.27,1.6-.36.23-.04.49-.1.72-.08.12.01.38.16.57.2.6.12,1.19-.06,1.74-.3.28-.12.53-.29.68-.56.04-.07.05-.13.08-.17.08-.11.2-.19.29-.3.18-.23.28-.5.27-.79-.01-.36-.22-.52-.41-.78-.08-.11-.09-.25-.11-.38-.03-.33-.03-.66-.1-.98-.23-1-1.17-1.63-1.47-2.55-.17-.5-.65-.64-1.1-.45-.2.09-.37.23-.51.39-.08.1-.15.2-.2.31l-.08.18c-.03.1-.04.12-.02.05l.45-.34-.09.02h.4c-.22-.03.11.05.08.09.01-.01-.08-.3-.09-.33-.08-.28-.2-.57-.42-.78-.58-.56-1.33-.29-1.97-.02s-1.16.69-1.17,1.47c0,.31.08.64.24.92.04.07.01.1.03.03.02-.13-.02,0-.03,0-.08.04-.19.23-.26.3-.69.68.37,1.74,1.06,1.06.59-.59.89-1.24.54-2.04-.03-.06-.08-.21-.08-.22-.03-.13.03-.05,0-.03.1-.06.23-.1.34-.14.06-.02.42-.11.43-.15,0,0-.18-.12-.19-.11-.04,0,.02-.12,0,0-.01.08.08.29.1.38.11.34.29.69.6.89.34.22.81.26,1.14,0,.22-.16.21-.33.33-.53,0,0-.06.05,0-.02.04-.05.03-.01.12-.05l-1.1-.45c.15.46.39.85.68,1.24.26.34.57.69.73,1.1s.08.96.19,1.41c.07.28.21.54.4.76.3.34-.15-.26.08-.33-.07.02-.17.15-.22.21-.12.13-.19.33-.27.38-.17.11-.49.19-.69.19-.22,0-.39-.16-.6-.21-.28-.07-.58-.02-.87.01-.61.07-1.21.18-1.8.34-.11.03-.24.05-.35.09.04-.01,0-.01-.09,0,.07,0,.12.02.15.07.02,0,.05.06.07.06,0,0,.15-.31.15-.31.29-.53-.08-1.08-.65-1.13-.1,0-.06-.03-.16-.02-.09-.02-.11-.03-.06-.02l.09.08s.04.03.02.04c0,0,.07-.19.08-.21.13-.23.39-.4.62-.42.4-.03.75-.32.75-.75,0-.38-.34-.78-.75-.75h0Z"/>
      <path class="cls-1" d="M13.09,17.97c.25,0,.57-.03.81.09.23.11.39.32.61.44.55.29,1.12.17,1.63-.14.26-.16.32-.1.56.12.2.18.32.4.56.54.41.26,1.06.4,1.54.41.29,0,.5-.09.77-.18s.53-.11.79-.19c.49-.15.87-.49,1.07-.95s.21-.98-.02-1.42c-.12-.23-.29-.43-.48-.6-.08-.07-.16-.13-.24-.19-.09-.08-.26-.33-.17-.1l-.08.58c-.11.18-.22.13.02.1.15-.02.29-.07.43-.09.08,0,.36.04.18-.05-.19-.1.04.12.08.17.29.34.67.57,1.04.82.34.22.54.38.66.77.06.21.13.43.26.62.02.03.2.3.27.31.06.07.07.07.03-.02-.02-.11-.06-.1-.13.05-.65.71.41,1.78,1.06,1.06.3-.33.59-.73.58-1.2-.01-.51-.36-.67-.57-1.06s-.22-.79-.54-1.14c-.23-.26-.51-.45-.8-.64s-.57-.36-.8-.62c-.31-.35-.57-.56-1.06-.57-.73-.02-2.21.22-2.1,1.23.05.42.38.7.69.95.17.14.48.33.25.56-.09.09-.41.08-.52.11-.21.05-.44.21-.65.23-.31.03-.7-.15-.9-.35-.64-.64-1.54-1.21-2.42-.63-.26.17-.17.21-.43.11-.2-.08-.38-.29-.58-.38-.44-.2-.93-.22-1.41-.23-.97,0-.97,1.5,0,1.5h0Z"/>
      <path class="cls-1" d="M20.19,11.89c-.18-.38-.33-.82-.58-1.16-.18-.24-.43-.4-.74-.41-.11,0-.21.01-.31.04-.08.03-.16.06-.23.1-.12.07-.06.06.18-.03l.38.1c.09.07.1.09.05.04-.06-.05-.12-.09-.18-.14-.05-.04-.11-.07-.16-.09-.16-.08-.33-.14-.5-.17-.4-.06-.76-.01-1.13.16-.27.12-.53.29-.78.45-.14.1-.28.2-.42.31-.06.05-.16.1-.21.17.32-.11.41-.16.26-.16-.04,0-.07,0-.11,0-.68.02-1.37.39-1.71.99-.13.22-.18.47-.15.72,0,0,.06.27.07.26,0-.16,0-.19-.01-.1-.01.08-.03.16-.03.24-.02.17-.01.35.04.52.03.11.08.24.13.33.03.05.13.26.05.04v-.4c-.09.33-.1.66.07.97.06.11.14.22.23.31.06.06.15.13.23.17.04.02.08.04.12.05.12.05.12.05,0,.01l-.27-.27c-.11-.21.04.12.06.16.05.09.11.18.18.26.15.17.34.3.56.36s.46.08.68.02c.11-.03.22-.07.32-.12.03-.02.06-.04.09-.06.21-.15.2-.16-.03-.01h-.4l-.07-.04.18.08c.06.02.12.04.18.06.15.03.31.05.46.05.31-.02.61-.11.87-.28h-.76c.28.18.6.33.94.32.19,0,.38-.06.54-.14.08-.04.17-.11.24-.17.05-.05.28-.28.12-.14l-.33.19h-.1s.09.02.14.02c.08,0,.16.02.23.02.18,0,.35-.04.51-.1.36-.15.54-.44.68-.79.23-.59.32-1.18.35-1.81.02-.39-.36-.77-.75-.75-.42.02-.73.33-.75.75-.01.31-.02.51-.1.8-.04.15-.08.29-.13.44-.01.04-.11.2-.05.14.02-.02.22-.21.19-.17.03-.04.06,0-.05-.01-.09-.01-.19-.03-.28-.03-.21,0-.39.06-.56.18-.02.02-.26.24-.24.25.05-.09.13-.15.23-.15.1-.02.12-.03.06-.02-.09.01.03-.02.05.01-.05-.05-.15-.09-.2-.12-.21-.13-.55-.14-.76,0-.04.03-.08.06-.13.08.06-.03.05-.03-.03,0,.19,0-.24-.01-.05,0-.09-.03-.1-.03-.02,0l-.18-.08c-.17-.05-.34-.04-.51,0-.08.02-.16.06-.23.11-.17.13-.2.16-.1.08.06-.01.09-.03.16-.02.12.02.11.11.18.17-.02-.08-.05-.16-.09-.23-.04-.07-.08-.14-.14-.2-.04-.04-.3-.24-.37-.22.15-.03.21.19.24.28,0,.1,0,.1.02,0,.04-.13.04-.27,0-.4-.03-.09-.07-.19-.12-.26-.03-.04-.06-.11-.05-.06-.02-.1.03-.16.04-.34,0-.11,0-.26-.04-.37-.04-.16-.06-.11-.07.17.06-.09.06-.1.02-.04.03-.04.07-.07.11-.1-.05.04-.04.04.03-.01.03-.01.21-.09.09-.05.05-.02.1-.03.14-.04-.08,0-.07,0,.02,0,.15,0,.28.01.42-.02.1-.02.2-.05.29-.11-.03.02.28-.22.24-.19.16-.13.33-.24.5-.34.1-.06.2-.12.3-.18.02-.01.26-.14.18-.09l.07-.02c-.08,0-.07,0,.02,0,.09,0,.1,0,.02,0,.05,0,.1.02.14.04-.06-.03-.06-.02.02.02-.04-.03-.04-.04-.01-.02.16.1.2.18.39.23.16.04.34.04.5-.01.08-.02.16-.06.23-.1.11-.07.06-.06-.16.02l-.38-.1s-.06-.06-.08-.1c.03.05.05.1.07.15.04.09.08.18.12.26l.29.62c.17.37.7.46,1.03.27.38-.22.44-.66.27-1.03h0Z"/>
    </g>
  </g>
</svg>