<?xml version="1.0" encoding="UTF-8"?>
<svg id="Layer_2" data-name="Layer 2" xmlns="http://www.w3.org/2000/svg" viewBox="0 0 34.48 27.34">
  <defs>
    <style>
      .cls-1 {
        fill: #1a1a1a;
      }
    </style>
  </defs>
  <g id="Layer_1-2" data-name="Layer 1">
    <g>
      <path class="cls-1" d="M14.2.62c-1.75.4-3.36,1.17-4.98,1.93-1.41.67-3.44,1.21-4.55,2.34-.53.54-.91,1.25-1.43,1.82-.55.6-1.04,1.24-1.51,1.91C.91,9.8-.32,11.26.08,12.81c.15.58.23.66.13,1.32-.04.31-.08.6-.03.91.08.57.37,1.06.78,1.46.49.47,1.04.63,1.65.88.92.37.86,1.24.82,2.19-.05,1.46.11,2.77,1.58,3.45.2.09.66.14.81.25.38.3.22.57.41.91.26.48.55.71,1.12.72l-.75-.75c.07,1.28.54,2.56,1.83,3.04.54.2,1.08.2,1.63,0,.31-.11.59-.33.91-.41.46-.12,1.02-.02,1.49.02.87.07,1.77.22,2.65.22.71,0,1.09-.22,1.71-.47.72-.29,1.48-.09,2.21-.3.67-.19,1.2-.59,1.63-1.13l-1.18-.15c.48.75,1.2,1.05,2.07.81l-.95-.72c.09,1.01.95,1.73,1.99,1.53,1.79-.34,1.48-2.73,3-3.25.82-.28,1.88-.23,2.74-.33.98-.11,1.97-.21,2.91-.52,1.25-.42,2.44-1.24,2.97-2.49.46-1.07.34-2.39-.44-3.29-.43-.49-1.26-.68-1.45-1.24-.28-.82.09-2.33.14-3.21s.12-1.71.17-2.56.3-1.88.08-2.69c-.27-1.02-1.39-1.35-2.16-.66l.73-.19c-.59-.16-.77-1.13-1.11-1.59-.46-.63-1.07-.72-1.65-1.19-.63-.51-.89-1.06-1.7-1.34-.73-.25-1.51-.19-2.24-.39-.82-.23-1.52-.77-2.35-.98-.92-.24-1.94-.26-2.89-.35S17.27-.05,16.28,0c-.72.04-1.41.38-2.09.61-.91.31-.52,1.76.4,1.45,1.06-.36,1.73-.58,2.87-.47s2.19.21,3.28.32c1.25.13,2.11.75,3.27,1.1.79.25,1.82.09,2.54.5.49.28.75.81,1.2,1.13.33.24.78.33,1.08.61.45.42.57,1.13.96,1.61s.8.72,1.39.73.27-.51.09-.09-.08,1.25-.11,1.72c-.14,2.08-.62,4.48-.33,6.54.1.68.37,1.13.98,1.44,1.18.62,1.59,1.73.6,2.84-1.55,1.73-4.54,1.43-6.63,1.74-.71.11-1.38.3-1.89.84-.3.31-.48.7-.66,1.08-.09.22-.19.45-.29.67-.13.38-.41.6-.84.67-.04-.48-.45-.86-.95-.72l-.38-.12c-.24-.37-.86-.55-1.18-.15-.92,1.14-1.83.43-2.95.83-.24.09-.4.27-.62.38-.73.37-1.47.21-2.23.14-.91-.08-1.91-.29-2.82-.15-.46.07-.77.29-1.19.42-1.23.38-1.63-.52-1.68-1.54-.02-.41-.33-.74-.75-.75.48.01.15-.67-.03-.92-.28-.39-.66-.52-1.1-.66-.99-.32-1.33-.77-1.32-1.83,0-.63.09-1.24-.03-1.87-.18-1.04-.5-1.85-1.54-2.13-.69-.19-1.59-.38-1.69-1.26-.07-.64.17-1.23.05-1.9-.17-.88,0-1.38.47-2.14.42-.67.86-1.33,1.34-1.96.44-.58.95-1.08,1.42-1.63.4-.48.65-1.04,1.18-1.41,1.18-.83,2.79-1.33,4.1-1.94,1.43-.67,2.86-1.32,4.4-1.67.94-.21.54-1.66-.4-1.45h0Z"/>
      <path class="cls-1" d="M23.83,6.68c1.52.77,3.2,2.03,2.29,3.91-.37.76-.76,1.55-.5,2.41.11.38.35.68.63.95.31.29.66.46.74.91.15.79-.08,1.58.2,2.36s.82,1.33,1.43,1.82c.65.51,1.35,1.08,2.2,1.18s1.84,0,2.61-.32c.88-.37.49-1.82-.4-1.45-.68.29-1.78.49-2.47.13-.64-.33-1.4-.9-1.8-1.51s-.21-1.4-.27-2.12c-.06-.79-.38-1.37-.98-1.88-.33-.27-.55-.45-.46-.91.07-.39.32-.75.49-1.1.34-.75.45-1.51.26-2.32-.4-1.62-1.82-2.64-3.23-3.36-.86-.44-1.62.86-.76,1.3h0Z"/>
      <path class="cls-1" d="M24.11,18.76c.14.5-1.74.78-2.05.94-.5.25-.82.65-.96,1.19l1.1-.45c-.49-.22-.47-1.22-.91-1.6-.37-.32-.81-.37-1.22-.13-.55.32-.97,1.08-1.36,1.59-.56.74-1.1,1.5-1.62,2.27l.85-.34c-1.46-.44-2.99-.59-4.15.57l.73-.19c-.69-.22-1.36-.19-2.03.12-.19.11-.38.22-.57.33-.15.11-.23.05-.25-.17-.22-.18-.3-.56-.56-.75-.28-.22-.56-.32-.92-.27-.14,0-.26.03-.38.1-.27.12-.22.18.16.17-.12-.32-.19-.65-.21-1,0-.22,0-.45.01-.67,0-.34.01-.69-.09-1.02-.22-.72-.71-.84-1.31-1.13-.43-.21-.35-.31-.43-.81-.06-.35-.12-.69-.28-1.01-.29-.58-.77-.97-1.41-1.07-.92-.15-1.62.45-2.5.56-.94.12-.96,1.62,0,1.5.73-.09,2.22-1.04,2.63-.15.26.55.07,1.23.43,1.75s1.29.51,1.47,1.09c.12.37-.03.95.01,1.34.04.36.1.72.24,1.06.2.49.54.93,1.11.99.19.02.43-.12.59-.1.21-.12.23-.13.04-.05.07.15.13.29.2.43.27.45.7.77,1.24.78.92.02,1.44-.9,2.4-.59.25.08.55,0,.73-.19.76-.76,1.78-.46,2.69-.18.33.1.66-.07.85-.34.37-.55.75-1.1,1.14-1.63.41-.56.83-1.34,1.4-1.76l-.58.08c.06.02.29.94.36,1.05.19.31.41.52.74.68.43.19.97.06,1.1-.45.1-.4,1.04-.46,1.35-.58.36-.13.72-.32,1.02-.57.57-.47.84-1.06.64-1.79-.25-.93-1.7-.54-1.45.4h0Z"/>
      <path class="cls-1" d="M6.04,8.86c-.71.38-1.47.86-1.69,1.69-.21.78.06,1.5.72,1.96l-.15-1.18c-1.58,1.7,2.09,2.87,3.26,2.81l-.65-.37c.3.61.74.86,1.2,1.31.4.4.55.81,1.12,1.05s1.29.24,1.39.99c.09.64-.32,1.17-.04,1.83.41.99,2,1.26,2.92.89.61-.25.86-.78,1.28-1.24.38-.41.84-.7,1.01-1.27.15-.52-.02-.97-.24-1.44-.19-.39-.21-.5,0-.9.16-.32.42-.61.66-.88,1.06-1.16,2.42-1.57,3.8-2.2,1.29-.58,2.01-1.41,1.41-2.85-.46-1.11-1.35-1.99-2.44-2.47l.27,1.03c.35-.72.88-1.85.63-2.67-.22-.72-1.24-1.06-1.86-1.3-1.56-.61-3.75-.92-5.1.3-.65.58-.86,1.34-.84,2.18,0,.13.09.6-.02.7-.2.19-.27.03-.5-.06-.36-.13-.68-.14-1.04.01-.39.17-.72.49-1.01.8s-.47.74-.79.99c-.79.61-1.86.12-2.73.34-.94.23-.54,1.67.4,1.45.37-.09.76.05,1.13.04s.74-.05,1.08-.15c.6-.18,1.15-.47,1.53-.97.23-.31.41-.65.73-.89s.43-.02.81.07c.61.15,1.17-.09,1.54-.59.42-.58.35-1.19.37-1.87.04-1,.83-1.35,1.75-1.37.79-.01,1.61.18,2.34.49.22.09.44.2.64.31.29.16.11.16.1.07.04.39-.28,1.03-.45,1.37s-.12.85.27,1.03c.57.26,2.43,1.52,1.79,2.34-.29.37-1.24.58-1.66.75-.5.2-.99.4-1.46.67-1.43.82-3.7,2.8-2.84,4.63.05.11.29.44.28.56-.02.23-.3.4-.45.54-.3.29-.61.96-1,1.09-.17.06-.7,0-.85-.11-.13-.1-.06-.2-.02-.43.09-.51.15-.94,0-1.45-.27-.86-.96-1.35-1.78-1.61-.19-.06-.44-.08-.6-.22-.14-.12-.18-.4-.32-.55-.4-.43-.83-.51-1.11-1.09-.11-.22-.4-.38-.65-.37-.48.03-.89-.07-1.34-.27-.19-.08-.37-.18-.55-.27-.07-.04-.14-.07-.21-.11-.18-.13-.22,0-.1.4.35-.37.25-.9-.15-1.18-.46-.31.83-.99.97-1.06.85-.45.1-1.75-.76-1.3h0Z"/>
      <path class="cls-1" d="M22.56,12.86c-.59.11-1.04.53-1.38,1-.14.2-.26.42-.37.64-.16.31-.28.61-.31.96-.03.41.17.76.49,1,.21.15.43.28.65.41.14.08.28.16.43.22.21.07.45.05.66,0,.36-.09.64-.27.85-.58.02-.03.04-.06.06-.09.05-.09-.08.1-.02.04.05-.06-.05.05-.06.04,0,0,.08-.04.08-.05,0,0-.14.05-.07.03.03,0,.06-.02.09-.03.05-.02.11-.03.17-.04s.11-.02.17-.03c.08-.02-.08,0-.08,0,.03,0,.09,0,.12,0,.02,0,.06,0,.07,0-.04.01-.16-.04-.06,0,.02,0,.1.03,0,0-.11-.04.01.02.03.03.32.23.85.07,1.03-.27.32-.63.25-1.38-.17-1.94s-1.03-.87-1.68-1.1c-.37-.13-.84.15-.92.52-.1.42.13.78.52.92.09.03.21.06.3.11-.17-.1-.02,0,.01,0,.05.02.09.05.14.07s.09.05.14.08c.03.02.1.08.13.09-.08-.06-.09-.07-.05-.04.02.02.04.03.06.05.04.04.07.07.11.11.1.1-.08-.13,0,0,.02.04.05.08.07.12.08.12-.04-.15,0,0,.01.05.03.09.04.14.04.14,0-.17,0-.01,0,.04,0,.08,0,.12,0,.07.04-.18,0-.02-.05.18.07-.12,0,.01l1.03-.27c-.54-.39-1.35-.22-1.91.03-.15.07-.28.16-.39.27-.07.07-.13.15-.18.23-.02.03-.04.06-.06.09.03-.05.08-.09.13-.12-.13.08.14-.03,0,0-.06.01-.26.03-.05.03.24.08.3.1.18.04l-.05-.03c-.07-.04-.14-.08-.21-.13-.12-.07-.24-.15-.37-.23-.03-.02-.07-.04-.1-.07-.05-.04-.05-.03,0,0,.09.05.14.14.16.25-.02-.08-.02-.06,0,.06,0-.08,0-.06-.01.04,0-.04.02-.07.03-.11.01-.05.04-.21,0-.03.02-.12.12-.25.18-.36.06-.12.13-.23.2-.35.02-.03.04-.06.06-.09.05-.07.04-.06-.01.02.02-.04.07-.08.11-.12.03-.03.11-.13.15-.14-.08.06-.09.07-.03.03l.04-.03s.06-.03.09-.05c.07-.04.06-.03-.04.01,0-.02.17-.05.2-.05.39-.07.64-.56.52-.92-.13-.41-.51-.6-.92-.52h0Z"/>
      <path class="cls-1" d="M8.34,3.91c0,.09,0,.18,0,.28,0,.02,0,.03,0,.05,0,.06,0,.03.01-.07,0,0-.02.12-.02.12-.02.09-.04.18-.07.27-.01.04-.03.08-.04.12-.05.14.02.01,0-.02.01.03-.1.19-.11.22-.05.08-.1.15-.15.23s.1-.11,0-.01c-.03.03-.05.06-.08.09-.06.07-.13.14-.2.2-.04.03-.08.06-.12.1-.07.06.1-.07-.01,0-.08.06-.15.11-.23.17-.16.11-.32.22-.49.33s-.33.21-.51.27c.19-.06,0,0-.03,0-.03.01-.07.02-.1.03-.11.03-.21.06-.32.07-.39.07-.64.56-.52.92.14.42.51.59.92.52.47-.08.92-.29,1.32-.54s.84-.55,1.2-.87c.69-.63,1.08-1.58,1.06-2.5,0-.39-.34-.77-.75-.75s-.76.33-.75.75h0Z"/>
      <path class="cls-1" d="M31.62,10.61c-.13-.12-.25-.24-.37-.38-.06-.07-.11-.13-.17-.2.1.13-.06-.09-.08-.11-.1-.14-.19-.29-.28-.45-.04-.08-.08-.16-.12-.23-.02-.04-.04-.08-.06-.12.03.08.03.08,0,0-.07-.19-.13-.37-.18-.57-.02-.09-.02-.1,0-.02,0-.05,0-.1,0-.15,0-.04.04-.31,0-.12.02-.08.04-.16.06-.24-.06.17.04-.05.06-.09-.09.14.06-.05.09-.08-.13.11.09-.05.11-.07.33-.22.5-.67.27-1.03-.21-.33-.68-.5-1.03-.27-.47.31-.83.67-.99,1.22s-.09,1.1.09,1.6c.3.9.83,1.72,1.53,2.36.29.27.78.31,1.06,0,.27-.29.31-.78,0-1.06h0Z"/>
    </g>
  </g>
</svg>