<?xml version="1.0" encoding="UTF-8"?>
<svg id="Layer_2" data-name="Layer 2" xmlns="http://www.w3.org/2000/svg" viewBox="0 0 30.79 29.03">
  <defs>
    <style>
      .cls-1 {
        fill: #1a1a1a;
      }
    </style>
  </defs>
  <g id="Layer_1-2" data-name="Layer 1">
    <g>
      <path class="cls-1" d="M16.89.5c-3.54-1.28-6.92.1-10.02,1.86-1.59.9-3.1,1.95-4.51,3.1C1.26,6.35.22,7.46.03,8.91c-.21,1.62.74,2.99,1.42,4.38.97,2.01.7,4.19.33,6.32-.26,1.53-.84,3.39-.3,4.92.57,1.6,2.34,1.75,3.78,2.02.96.18,1.91.36,2.87.54,1.08.2,2.37.23,3.27.9,1.42,1.05,2.89.98,4.63,1.01,1.6.03,3.65.25,5.09-.64.5-.31.83-.76,1.14-1.25.27-.43.45-.75,1.08-.57.38.11.66.42,1.08.5,1.35.24,2.51-1.22,3.53-1.88,1.17-.76,2.05-1.78,2.51-3.1s.46-2.83-.09-4.14c-.66-1.58-2.02-2.68-2.85-4.16-.67-1.19-.7-2.21-.11-3.44.35-.74.79-1.46.87-2.3.14-1.46-.82-2.57-2.12-3.09-1.85-.74-4-.12-5.49-1.68-1.02-1.07-1.78-2.37-3.33-2.69-.94-.2-1.34,1.25-.4,1.45,1.24.26,1.86,1.46,2.67,2.31.89.94,1.93,1.39,3.2,1.56,1.17.16,2.88.01,3.7,1.05.93,1.18-.8,3.06-1.02,4.3-.53,2.96,2.23,4.65,3.37,7,.62,1.28.54,2.78-.14,4.03-.38.7-.9,1.17-1.55,1.61-.59.4-1.15.88-1.74,1.28-1.13.75-1.88-.64-3.11-.24s-1.26,1.97-2.44,2.39c-1.49.53-3.56.24-5.11.18-.95-.04-1.67-.05-2.45-.66-.54-.42-.98-.61-1.66-.76-1.58-.35-3.19-.6-4.78-.9-.77-.14-1.8-.16-2.47-.59-.97-.62-.62-1.98-.47-2.96.45-2.91,1.23-5.89-.05-8.71-.69-1.52-2.03-3.12-1-4.81.88-1.44,2.65-2.48,4.02-3.38,3.1-2.04,6.81-4.11,10.57-2.75.91.33,1.3-1.12.4-1.45h0Z"/>
      <path class="cls-1" d="M20.64,9.45c.4-.05,1.3-.24,1.54.23.13.25.07.65.03.91-.05.36-.15.72-.22,1.07-.17.76-.27,1.52-.09,2.29.17.71.58,1.38,1.14,1.85.31.26.76.3,1.06,0,.27-.27.31-.8,0-1.06-.51-.44-.81-1.01-.8-1.69,0-.77.29-1.52.39-2.27.11-.81.08-1.73-.59-2.31s-1.59-.61-2.45-.51c-.4.05-.75.31-.75.75,0,.37.35.8.75.75h0Z"/>
      <path class="cls-1" d="M25.58,18.95s.16-.24.11-.17c.1-.14.04,0-.02-.02-.05,0-.11,0-.16-.03,0-.04.01-.03.06.05-.03-.05.06.12.03.06.09.21.15.44.19.67.02.09.02.22.06.31v.09c.25-.3.29-.4.13-.29-.43.17-.71.65-.79,1.08-.07.41,0,.87-.03,1.24,0-.01-.05.11,0,.03-.06.06-.07.07-.02.02-.08.04-.09.05-.02.02-.02,0-.23.06-.1.04-.04,0-.3-.01-.19,0-.35-.07-.65-.31-.93-.53-.51-.4-1.01-.52-1.64-.35-.2.05-.35.11-.51.11-.17,0-.26-.03-.43-.12-.84-.48-1.6.82-.76,1.3.46.26.98.37,1.51.3.13-.02.26-.04.38-.08.1-.03.24-.1.34-.1.08,0,.16.09.26.17.79.62,1.76,1.07,2.74.57.46-.23.77-.68.84-1.19.04-.26.03-.51.01-.77,0-.1-.01-.19,0-.29,0-.04,0-.08,0-.12-.02.14.02-.06.03-.06v-.04s0,.03,0,.05c.01,0-.07.07-.07.06,0,0,.22-.12.23-.13.3-.2.5-.49.52-.86.03-.47-.11-1.02-.27-1.47-.23-.63-.68-1.23-1.41-1.26-.64-.03-1.08.42-1.39.92-.51.82.79,1.58,1.3.76h0Z"/>
      <path class="cls-1" d="M18.55,25.05c-.23.05-.35-.12-.31-.33.07-.36.39-.7.52-1.05.33-.87-.14-1.8-.07-2.69.07-.83.61-1.24,1.33-1.57.86-.39,1.71-.72,2.5-1.24s.05-1.83-.76-1.3c-.5.33-1.02.62-1.57.85-.51.22-1.05.4-1.52.7-1.04.66-1.52,1.72-1.48,2.94,0,.31.05.62.09.92.03.23.12.48.1.72-.03.46-.47.87-.59,1.32-.37,1.35.85,2.48,2.16,2.18.94-.22.54-1.66-.4-1.45h0Z"/>
      <path class="cls-1" d="M12.28,26.78c-.64-2.36-3.47-3.2-4-5.58-.32-1.44.64-2.71,1.08-4.01.39-1.15.61-2.61.28-3.8-.18-.66-.47-1.17-.28-1.87s.69-1.32,1.21-1.81c1.1-1.04,2.51-1.24,3.64-.1,1.97,1.99,1.06,5.79-.19,7.91-.78,1.34-1.62,2.47-1.6,4.1s.71,3.01,1.58,4.28c.55.79,1.85.04,1.3-.76-1-1.45-1.85-3.28-1.08-5.03.31-.7.81-1.3,1.18-1.96.39-.7.71-1.45.95-2.22.78-2.58.77-6.13-1.65-7.85s-5.43-.05-6.56,2.45c-.26.57-.39,1.19-.34,1.81.06.79.49,1.45.49,2.26,0,1.76-.91,3.07-1.38,4.69s-.03,3.1.95,4.37c.92,1.2,2.57,2.02,2.98,3.54.25.93,1.7.54,1.45-.4h0Z"/>
      <path class="cls-1" d="M16.16,2.47c-.78-.48-1.94-.28-2.58.35-.36.35-.46.84-.48,1.32,0,.24.02.5.15.71.04.07.25.35.35.34.07.05.05.02-.06-.09.03.05.06.09.1.14.16.23.34.41.57.57.08.06.55.24.56.28-.06-.03-.12-.07-.16-.12.02.05.04.1.07.14.04.07.09.14.14.2.07.09.17.18.23.27-.08-.12-.02.02,0,.08.28.96,1.41,1.69,2.28.95l-1.25-.33c.09.49.23.96.55,1.36.4.49,1.07.74,1.6.28.33-.29.62-.68.7-1.12.04-.24,0-.48.04-.72-.02.15.04-.07.05-.11.05-.13.07-.26.08-.4.04-.47-.13-.94-.39-1.33-.24-.36-.49-.6-.68-.96s-.3-.74-.59-1.06c-.31-.35-.75-.51-1.19-.63-.39-.11-.81.13-.92.52s.13.82.52.92c.11.03.21.06.32.09.02,0,.12.05.05.02.01,0,.11.06.05.02.13.09.19.25.28.46.09.2.17.4.28.58.15.24.34.45.51.68.07.1.2.31.24.43,0,.01.03.13.02.06,0,.02-.01.13,0,.06-.02.1-.08.19-.1.28-.06.24-.01.56-.05.76,0,.04-.03.09-.06.12,0,0-.07.07-.09.09-.03.03-.16.11-.06.06l.38-.1c.06,0,.11,0,.16.03-.06-.07-.08-.08-.04-.04-.01-.02-.1-.17-.08-.13-.09-.2-.12-.43-.16-.64-.11-.6-.86-.66-1.25-.33l.3-.12c.08.02.09.02.03,0-.08-.01.02,0,.03.02-.05-.07-.09-.07-.12-.14.03.09-.02-.06-.02-.08-.02-.06-.03-.12-.05-.18-.06-.19-.16-.35-.3-.5-.09-.1-.09-.07-.16-.21-.08-.14-.13-.27-.24-.39-.14-.15-.3-.22-.48-.29-.22-.09.05.03-.09-.04-.01,0-.14-.08-.1-.05-.23-.16-.29-.5-.59-.63-.24-.1.2.23.15.3.02-.02,0-.17,0-.2,0-.02.02-.18,0-.09,0-.01.03-.12,0-.05.03-.07.04-.06.12-.1.03-.01.11-.05.04-.02.06-.02.13-.04.19-.06.2-.05.33-.04.44.03.34.21.83.07,1.03-.27s.08-.81-.27-1.03h0Z"/>
      <path class="cls-1" d="M2.09,9.18c.4-.37.96-.57,1.51-.51.26.03.5.14.75.18.39.07.73-.03,1.08-.19.57-.27,1.08-.67,1.48-1.15.23-.28.19-.35.55-.34s.66,0,.99-.04c1.15-.16,2.68-.87,3.12-2.03.6-1.6-1.55-2.26-2.61-2.8-.86-.44-1.62.86-.76,1.3.58.3,1.18.58,1.76.9.1.05.19.1.27.19-.11-.13,0-.11-.14.01-.19.16-.35.34-.57.48-.42.27-.91.45-1.41.5-.55.05-1.1-.1-1.62.17-.48.25-.73.79-1.15,1.13-.16.13-.39.31-.59.36-.24.07-.42-.05-.67-.1-1.1-.22-2.22.12-3.04.88-.71.66.35,1.72,1.06,1.06h0Z"/>
      <path class="cls-1" d="M5.21,11.05c-.12.82-.43,1.59-.57,2.4-.15.88-.13,1.76.29,2.56.18.35.7.48,1.03.27.35-.23.46-.65.27-1.03-.02-.04-.04-.09-.06-.13.03.07.03.06,0-.02-.02-.07-.04-.14-.06-.21,0-.03-.05-.31-.03-.15,0-.07-.01-.14-.02-.22,0-.17,0-.34.02-.51.01-.09.01-.1,0-.02,0-.04.01-.07.02-.11.01-.08.03-.17.05-.25.16-.73.42-1.44.53-2.19.06-.39-.09-.82-.52-.92-.35-.08-.86.11-.92.52h0Z"/>
    </g>
  </g>
</svg>