<?xml version="1.0" encoding="UTF-8"?>
<svg id="Layer_2" data-name="Layer 2" xmlns="http://www.w3.org/2000/svg" viewBox="0 0 22.61 20.58">
  <defs>
    <style>
      .cls-1 {
        fill: #1a1a1a;
      }
    </style>
  </defs>
  <g id="Layer_1-2" data-name="Layer 1">
    <g>
      <path class="cls-1" d="M12.1.02c-2.51-.14-5,.34-7.28,1.39-1.03.47-1.99,1.06-2.88,1.76s-1.47,1.24-1.26,2.45c.23,1.36-.52,2.45-.65,3.78s.25,2.57.76,3.76,1.15,2.41,1.75,3.6c.54,1.08,1.01,2.3,2.03,3.04.77.55,1.72.79,2.66.78,1.36-.02,2.31-.79,3.59-1.03s2.43.6,3.63.7,2.43-.24,3.51-.79c1.14-.58,2.12-1.46,2.99-2.39.66-.69,1.66-1.53,1.68-2.56.02-.83-.59-1.4-1.05-2.01s-.23-.75.17-1.32c.36-.52.6-1.03.66-1.67.28-2.62-2.17-4.96-3.98-6.52-1.05-.9-2.25-1.33-3.42-2.01C14.02.42,13.25.04,12.1.02c-.97-.01-.97,1.49,0,1.5.88.01,1.41.33,2.13.75.84.49,1.77.78,2.58,1.35.86.61,1.58,1.41,2.3,2.18.76.82,1.59,1.72,1.77,2.86s-.58,1.58-.99,2.54c-.27.64-.14,1.27.22,1.84.39.61,1.29,1.12.76,1.86-.64.87-1.5,1.7-2.34,2.38s-1.89,1.26-3.01,1.43c-1.23.19-2.2-.33-3.37-.58-1.99-.43-3.47,1.16-5.42.93-2.18-.25-2.92-3.08-3.76-4.77-.5-1-1.02-2.01-1.29-3.1-.34-1.34.02-2.34.39-3.61.14-.49.25-1.01.22-1.53s-.27-.82.05-1.26c.6-.83,2.04-1.49,2.94-1.93,2.13-1.03,4.48-1.46,6.83-1.33.96.05.96-1.45,0-1.5h0Z"/>
      <path class="cls-1" d="M13.05.62c-1.6.34-3.85,1.18-4.73,2.68-.43.74-.27,1.58.31,2.19.3.31.71.48,1.01.78.42.42.22.82-.14,1.21-.65.68-1.48.88-2.3,1.27s-1.42,1.1-1.81,1.93-.66,1.69-.48,2.58c.22,1.11.58,1.95.29,3.1-.24.94,1.21,1.34,1.45.4.21-.85.25-1.69.08-2.55-.09-.46-.31-.89-.37-1.35s.14-1,.33-1.43c.41-.91.98-1.27,1.88-1.63.74-.29,1.43-.7,2-1.27,1.17-1.19,1.07-2.68-.28-3.65-.4-.29-.88-.5-.51-1.01.23-.32.69-.56,1.02-.76.83-.51,1.72-.84,2.67-1.04s.54-1.65-.4-1.45h0Z"/>
      <path class="cls-1" d="M20.84,11.42c-.56-.56-1.32-.7-1.95-1.15-.05-.03-.17-.15-.21-.23-.07-.17-.08-.34-.09-.52-.02-.48-.06-.96-.23-1.42-.37-.95-1.06-1.69-1.91-2.24-.42-.28-.88-.5-1.35-.7-.39-.17-.85-.3-1.15-.62-.66-.7-1.72.36-1.06,1.06s1.73.92,2.55,1.4c.73.43,1.4,1.05,1.6,1.91.1.45.04.92.14,1.37s.35.82.7,1.11c.56.46,1.43.64,1.89,1.11.68.69,1.74-.37,1.06-1.06h0Z"/>
      <path class="cls-1" d="M12.29,10.16c-.65.27-1.29.57-1.91.92-.29.17-.58.34-.86.52-.37.24-.72.51-.74.99,0,.11,0,.23.04.33.04.09.02,0,.02.08.01.12-.01.19-.05.36-.08.37-.13.72-.05,1.1.08.35.28.65.57.85.37.25.79.21,1.2.12h-.4.08c-.11-.05-.22-.12-.33-.18l-.08-.14s.03.08.05.13c.03.07.06.14.08.21.06.14.11.28.17.42.18.45.64.71,1.1.45-.1.03-.11.04-.03.01.07-.01.07-.02.01,0-.12,0,.11,0,.13,0,.16,0,.32-.01.48-.05.19-.05.38-.15.53-.29.03-.03.2-.2.2-.28,0,.07-.63.23-.26.2.83-.07,1.27-.76,1.55-1.47.14-.35.26-.7.39-1.05.14-.39.34-.78.31-1.2-.03-.45-.29-.84-.49-1.22-.22-.41-.51-.84-1.05-.81-.39.02-.77.33-.75.75.02.39.33.77.75.75-.33.02-.51-.41-.33-.09.03.05.06.11.09.16.08.14.16.29.23.43.01.03.09.16.04.08.03.06,0,.1.02.02-.01.07-.09.27-.14.39-.11.29-.22.58-.32.87-.05.15-.11.29-.16.44,0,.02-.09.21-.02.06-.02.05-.05.1-.07.15s-.06.1-.08.14c-.06.12.04-.03-.02.03-.03.04-.07.07-.11.11.14-.13-.06.02.04-.03.05-.02.05-.02-.02,0h.08c-.11,0-.21,0-.33.02-.19.04-.36.14-.49.29-.06.07-.13.15-.16.25-.03.1.15-.14.24-.17-.14.05.11,0,.02,0-.05,0-.1,0-.14,0-.31,0-.6.04-.87.2l1.1.45c-.13-.33-.24-.7-.41-1.01-.12-.23-.31-.39-.56-.46-.15-.04-.29-.03-.44,0-.04,0-.08.02-.12.03-.05.01-.05.01.01,0,.05.02.09.02.13.06s.1.14.04.04c.08.13.01,0,0-.05.02.1,0,.06,0-.02s0-.13,0-.02c.01-.09.03-.17.05-.26.04-.19.08-.39.1-.59.01-.18,0-.41-.05-.58-.09-.27,0,.42-.17.41-.05.04-.04.03.05-.03l.07-.05c.27-.18.54-.35.82-.51.51-.3,1.14-.61,1.62-.81.36-.15.66-.5.52-.92-.11-.35-.53-.68-.92-.52h0Z"/>
      <path class="cls-1" d="M16.83,13.63c.07.03.14.06.21.1.03.01.06.03.09.05.14.08-.08-.08-.03-.03.02.02.04.05.07.07-.07-.1-.09-.12-.06-.08.01.02.02.04.03.05l-.04-.1s.02.05.02.08c0,.04.02.08.02.13l-.03-.2c.02.17.03.34.05.51s.04.33.02.5l.03-.2s-.05.15,0,.04c.03-.06.03-.07,0-.02l.07-.09s-.05.05-.07.07c-.05.06.16-.11.04-.03s-.24.14-.36.2c-.05.02-.15.04.04-.01-.03,0-.06.02-.08.03-.07.03-.14.05-.21.07-.14.04-.29.07-.44.09l.2-.03c-.22.03-.45.03-.67.02-.39-.03-.77.37-.75.75.02.43.33.72.75.75.48.04.98-.02,1.44-.17.5-.17,1.1-.43,1.36-.92.15-.28.17-.59.14-.9-.03-.29-.05-.57-.09-.86-.08-.57-.49-.95-1-1.17-.19-.08-.37-.13-.58-.08-.17.05-.36.18-.45.34-.09.17-.14.38-.08.58.06.17.17.37.34.45h0Z"/>
      <path class="cls-1" d="M5.89,3.97c-.54.36-1.06.79-1.46,1.3-.26.32-.45.68-.45,1.11,0,.36.18.65.25.99.1.51-.16.9-.5,1.27-.47.52-.84,1.07-.99,1.76-.09.4.12.81.52.92.37.1.84-.13.92-.52.11-.52.39-.85.74-1.25.46-.53.77-1.09.82-1.8.02-.31-.01-.64-.11-.93-.05-.16-.17-.39-.14-.48.08-.21.35-.41.51-.57.2-.19.41-.36.65-.51.34-.22.48-.66.27-1.03-.2-.33-.69-.49-1.03-.27h0Z"/>
    </g>
  </g>
</svg>