<?xml version="1.0" encoding="UTF-8"?>
<svg id="Layer_2" data-name="Layer 2" xmlns="http://www.w3.org/2000/svg" viewBox="0 0 30.42 28.9">
  <defs>
    <style>
      .cls-1 {
        fill: #1a1a1a;
      }
    </style>
  </defs>
  <g id="Layer_1-2" data-name="Layer 1">
    <g>
      <path class="cls-1" d="M11.92.48c-1.52.22-2.89.89-4.11,1.83-1.45,1.12-1.83,2.37-2.36,4.03-.29.92-1.1,1.56-1.76,2.23-.72.72-1.43,1.44-2.05,2.25C.72,12.02.08,13.4,0,14.93s.56,2.92,1.75,3.96c1.35,1.17,1.63,2.44,2.36,4,.62,1.33,1.61,2.16,3.1,2.32.83.09,1.92-.1,2.65.37.63.4.73,1.26,1.22,1.79.4.43.91.62,1.49.53,1.07-.16,1.78-.8,2.96-.54,1.83.4,3.33,1.9,5.32,1.48.89-.19,1.56-.8,2.48-.89.7-.07,1.38-.06,1.96-.51.53-.41.54-1.01.92-1.49.4-.51,1.49-.49,2.07-1,.48-.42.8-.98.93-1.6.12-.57.06-1.1.3-1.64.17-.36.42-.68.59-1.05.7-1.53-.16-2.66-.71-4.06-.43-1.08.05-2.02.38-3.04.3-.94.52-1.92.62-2.9.19-1.78-1.64-2.54-2.43-3.98s-.7-3.15-2.74-3.01c-1.03.07-1.46.03-2.01-.9-.35-.59-.67-1.21-1.24-1.62-1.64-1.17-3.87.2-5.7-.33-.76-.22-1.09-.87-1.94-.8-.76.06-1.47.39-2.23.45-.96.08-.96,1.58,0,1.5.55-.04,1.08-.17,1.61-.29.19-.04.62-.23.81-.18.07.02.31.34.44.42,1.24.75,2.9.56,4.25.39.81-.1,1.59-.28,2.19.38.36.4.55.98.86,1.41.68.96,1.47,1.2,2.62,1.1,1.03-.09.97.31,1.29,1.17.21.54.46,1.07.78,1.55.4.61.9,1.08,1.37,1.62s.63.76.5,1.54c-.08.49-.19.98-.32,1.45-.39,1.41-1.12,2.73-.66,4.22.16.52.44.98.67,1.47.53,1.15.24,1.67-.3,2.72-.24.47-.34.92-.42,1.44-.1.64-.06,1.22-.72,1.59-.38.21-.86.15-1.25.31-.47.19-.73.55-.96.99-.07.14-.1.33-.18.46-.42.63-.81.67-1.53.73-.66.06-1.17.26-1.76.54-.96.44-1.71.45-2.67.09-1.59-.61-2.92-1.55-4.71-1.24-.68.12-1.53.75-2.05.15-.37-.42-.48-1-.92-1.4-1.12-1.01-2.6-.62-3.95-.9-1.48-.31-1.77-1.78-2.24-2.99-.51-1.31-1.19-2.06-2.2-2.99-3.36-3.11.99-6.84,3.08-9.1.52-.57.93-1.12,1.15-1.87.27-.91.39-1.72,1.02-2.48,1.07-1.28,2.77-2.1,4.4-2.34.95-.14.55-1.58-.4-1.45h0Z"/>
      <path class="cls-1" d="M12.31,4.15c-1.28-.34-2.32,1.09-3.08,1.95-.8.9-1.54,2-1.45,3.27.06.81.58,1.32-.21,1.93-.51.4-1.04.78-1.42,1.31-.58.81-.85,2.01-.17,2.85.72.9,1.97.48,2.85.09,1.21-.55,2.17-1.46,2.88-2.57,1.51-2.36,2.11-5.52,5.47-5.73.92-.06,1.84.13,2.7.45.78.3,1.49.84,2.32,1,.7.14,1.38,0,2.06-.19,1.06-.3,1.95-.49,3.05-.16.93.28,1.32-1.17.4-1.45-.76-.23-1.51-.32-2.3-.22s-1.5.46-2.28.55c-.87.1-1.55-.44-2.32-.77s-1.54-.56-2.36-.66c-2.89-.37-5.2,1.05-6.54,3.56-.64,1.19-1.11,2.53-2,3.56-.51.59-1.33,1.28-2.11,1.44-1.26.25-.3-1.06.16-1.46,1-.85,1.98-1.35,1.57-2.82-.27-.97-.23-1.57.37-2.41.27-.37,1.64-2.16,2.03-2.06.93.24,1.33-1.2.4-1.45h0Z"/>
      <path class="cls-1" d="M26.25,18.75c-.08.32-.15.65-.23.97-.06.26-.1.58-.26.8-.14.19-.29.16-.52.18-.38.03-.71.12-1.06.28-.56.25-1.14.61-1.44,1.15-.25.45-.25,1.06-.57,1.45-.26.32-.71.44-1.1.3s-.54-.33-.29-.67c.34-.48.92-.77,1.29-1.24.34-.44.55-1.05.98-1.42.2-.17.39-.13.65-.15.37-.02.73-.09,1.07-.22.36-.14.71-.32,1.04-.53.13-.08.26-.16.38-.25.21-.14.05.05-.09-.19.5.83,1.79.07,1.3-.76-.23-.39-.64-.62-1.1-.62-.43,0-.79.22-1.14.45-.28.18-.58.37-.9.49-.36.13-.7.11-1.08.15-.91.1-1.46.78-1.9,1.52-.17.28-.32.56-.55.79-.28.28-.62.5-.89.79-.58.6-.91,1.5-.48,2.28.38.71,1.26,1.11,2.05,1.13s1.56-.39,2.03-1.03c.22-.3.35-.64.45-.99.08-.3.13-.57.38-.77.27-.21.65-.41,1-.46.5-.08.93-.07,1.35-.4.78-.62.89-1.75,1.1-2.66s-1.23-1.34-1.45-.4h0Z"/>
      <path class="cls-1" d="M5.44,23.91c1.11.85,2.65,1.03,3.9.39.72-.37,1.28-1.06,2.08-1.27.91-.24,1.89,0,2.81-.19,1.23-.24,2.36-1.27,2.12-2.63-.1-.58-.48-1.04-1-1.29-.7-.34-1.34-.08-2.05-.19l.45.34c-.25-.38.45-1.71.59-2.11.29-.78.45-1.56.59-2.38.21-1.29.36-3.08,1.58-3.88,1.42-.93,2.86.27,4.23.61,1.49.36,2.93-.53,4.4-.24.94.18,1.35-1.26.4-1.45-1.53-.3-3.07.59-4.54.2s-2.66-1.26-4.26-.85c-3.15.81-2.87,4.53-3.63,6.98-.32,1.05-1.32,2.66-.72,3.77.26.49.71.5,1.19.49.27,0,.82-.14,1.06.03.34.24.25.55,0,.81-.55.57-1.67.36-2.38.38s-1.39.11-2.01.44c-.59.31-1.06.84-1.67,1.11-.84.37-1.69.15-2.39-.39-.76-.59-1.51.71-.76,1.3h0Z"/>
      <path class="cls-1" d="M24.89,12.56c-.15.08-.35.13-.49.14-.26.01-.52.02-.79.03-.59.02-1.2.08-1.78.25-1.01.3-2.51,1.24-2.17,2.5.15.55.73.98,1.21,1.23.58.3,1.24.37,1.79-.03.08-.06.16-.13.25-.19-.03.02-.08.07.04-.03.07-.05.1-.06.21-.08.09-.02.14-.02.28-.02.08,0,.15-.01.23,0-.02,0-.09-.04,0-.01.29.11.5.27.83.26s.64-.11.9-.29c1.09-.75,1.29-2.29.7-3.41-.19-.36-.69-.47-1.03-.27-.36.21-.46.67-.27,1.03.02.04.05.09.07.14,0-.02-.03-.08,0,0,.03.08.05.17.07.26-.02-.12,0,.1,0,.14s0,.08,0,.11c0,.22.02-.06,0,.06-.01.09-.04.17-.06.26,0,0-.04.12-.01.05.03-.07-.03.07-.04.08-.02.03-.12.21-.07.13-.02.03-.05.06-.08.09-.02.02-.13.11-.06.06-.03.02-.07.04-.1.06-.06.03.03.03-.03,0-.09-.03.11.01.11.03,0-.02-.17-.09-.2-.11-.14-.07-.27-.12-.42-.14-.49-.08-1.07-.03-1.53.17-.2.09-.43.28-.56.37.03-.02-.18.07-.09.05.07-.01.03.02-.04,0,.07.03-.02-.01-.04-.02-.07-.03-.3-.18-.42-.27,0,0-.11-.09-.05-.04.06.05-.06-.05-.07-.06-.09-.09-.07-.08-.03.03.03.07-.04.12.03.01.06-.08.03-.05.12-.14.16-.16.2-.19.39-.31.31-.18.61-.28,1.02-.36.94-.18,2.06.05,2.96-.46.35-.2.47-.68.27-1.03s-.67-.47-1.03-.27h0Z"/>
      <path class="cls-1" d="M9.55,16.51c-.88.36-1.75.85-2.41,1.54-.36.38-.63.84-.68,1.37-.04.47.12.95.45,1.29.36.38.9.49,1.4.38.36-.08.68-.28,1-.45.03-.01.05-.03.08-.04l.04-.02c.07-.03.05-.02-.06.02.06,0,.15-.05.2-.06.09-.02.02.04-.08,0,.02,0,.08,0,.1,0,.09-.01-.2-.04-.06,0,.13.03-.12-.06.02,0,.3.15.61.23.95.13s.58-.33.77-.6c.68-.93.27-2.12-.34-2.96-.23-.32-.66-.5-1.03-.27-.31.2-.52.69-.27,1.03.1.14.2.28.29.43.04.07.07.14.11.21.05.09-.04-.12,0-.01.02.05.03.09.05.14.02.06.07.18.05.23.02-.09,0-.13,0-.05,0,.04,0,.09,0,.13,0,.19.04-.13,0,.06,0,.03-.02.07-.03.1-.04.12-.03.02.01-.01-.03.02-.06.17-.1.17.03,0,.1-.12,0-.02-.03.03-.1.05-.02.02l.03-.03c-.08.04-.06.04.06,0l.11-.03c.1.02.12.02.07,0-.1-.03.12.06.03.01-.08-.04-.17-.08-.26-.11-.32-.13-.7-.11-1.02,0-.29.1-.56.26-.83.4-.03.02-.07.03-.1.05-.03.01-.12.06-.01,0,.12-.06-.07.02-.09.03-.03,0-.06.01-.08.02-.09.03.17,0,.08-.01-.03,0-.06,0-.08,0-.09,0,.18.04.06,0-.15-.04.13.05.03.02-.03-.01-.12-.04-.02,0,.08.03.03.02,0-.02-.07-.07.1.12.04.04-.04-.05-.02-.1-.01-.01,0,.1,0,.02,0-.02,0-.03-.01-.06-.02-.09-.01-.06,0-.03,0,.08,0-.02,0-.05,0-.07,0-.03,0-.06,0-.09,0-.1-.04.15,0,.06.01-.03.02-.07.03-.1.02-.1-.06.11-.01.02.04-.07.07-.13.11-.2.01-.02.09-.11.03-.04-.07.08.06-.06.07-.08.13-.14.27-.26.41-.38.02-.02.11-.09,0,0,.05-.04.1-.08.15-.11.08-.06.16-.11.23-.16.17-.11.34-.21.52-.31.09-.05.19-.1.28-.14.04-.02.08-.04.11-.05.03-.02.21-.09.05-.02.19-.08.34-.16.45-.34.09-.16.13-.4.08-.58-.11-.35-.53-.69-.92-.52h0Z"/>
    </g>
  </g>
</svg>