<?xml version="1.0" encoding="UTF-8"?>
<svg id="Layer_2" data-name="Layer 2" xmlns="http://www.w3.org/2000/svg" viewBox="0 0 23.23 19.61">
  <defs>
    <style>
      .cls-1 {
        fill: #1a1a1a;
      }
    </style>
  </defs>
  <g id="Layer_1-2" data-name="Layer 1">
    <g>
      <path class="cls-1" d="M13.83.49C11.52-.35,8.85-.03,6.59.82c-1.09.41-2.11.95-3,1.71-.94.81-1.55,1.91-2.44,2.76-1.62,1.56-1.28,4.52-.45,6.45.2.47.45.91.78,1.31.36.44.91.74,1.21,1.21s.39.95.74,1.38c.38.47.85.82,1.39,1.08l-.15-1.18c-.72.67-.55,1.73.24,2.28,1.02.71,2.63.8,3.83.76l-.65-1.13c-1.61,2.35,4.45,2.22,5.4,2.11s2.67-.07,3.22-1.02c.47-.8-.15-1.59-.95-1.68v1.5c.95-.05,2.7-.12,3.28-1.04s-.32-1.7-1.1-2.03l-.2,1.47c1.16,0,2.91.02,3.76-.95.67-.77.49-1.83-.32-2.4l-.18,1.37c.66-.24,1.79-.43,2.11-1.16s-.04-1.77-.32-2.42c-.36-.87-1.2-1.61-1.34-2.54-.11-.77-.03-1.49-.69-2.05-.23-.2-.51-.31-.79-.42-.52-.21-.7-.41-1.05-.85-.52-.67-1.18-1.01-1.92-1.39-1.07-.56-1.38-1.21-1.77-2.28-.28-.76-.8-1.18-1.6-1.22-.97-.04-.96,1.46,0,1.5.14,0,.66,1.52.8,1.73.29.46.69.86,1.14,1.17.48.33,1.02.53,1.51.83.58.36.78.96,1.29,1.38.36.3.85.31,1.2.57.56.41.33,1.31.54,1.91.47,1.36,1.76,2.17,1.57,3.78l.22-.53c-.25.25-.97.42-1.3.54-.63.23-.72.99-.18,1.37.19.14-1.15.46-1.21.47-.49.07-.97.08-1.47.08-.91,0-.94,1.17-.2,1.47l-.02-.19c-.19.06-.38.12-.58.16-.39.09-.78.13-1.18.15-.98.05-.94,1.39,0,1.5l.18.02-.53-.22c-.09-.38-.3-.48-.62-.3-.25.04-.5.09-.75.12-.56.08-1.12.14-1.68.17-.5.02-1,.02-1.49-.04-.1-.01-1.5-.18-1.53-.31l-.08.58.12-.18c.32-.47-.11-1.14-.65-1.13s-1.07,0-1.6-.09c-.15-.03-1.37-.43-1.42-.39.33-.31.28-.97-.15-1.18-1.04-.49-1.09-1.23-1.64-2.1-.47-.73-1.3-1.06-1.72-1.88-.49-.96-.59-2.06-.62-3.12-.01-.53-.07-1.05.21-1.5s.77-.77,1.11-1.18c.58-.69,1.05-1.45,1.74-2.04.77-.65,1.71-1.11,2.66-1.44,1.95-.67,4.15-.93,6.12-.21.91.33,1.3-1.12.4-1.45h0Z"/>
      <path class="cls-1" d="M10.01,3.96c.94-.02,1.65.58,1.91,1.46.2.65.54,1.03,1.2,1.24.5.16,1.05.19,1.57.22.47.03.98.02,1.42.21s.69.64,1.04.94c.88.76,2.06.85,3.1.39.37-.17.45-.7.27-1.03-.22-.38-.66-.43-1.03-.27-1.01.45-1.53-.55-2.2-1.06-.83-.64-1.89-.62-2.89-.69-.23-.02-.45-.04-.67-.09-.27-.06-.3-.05-.38-.32-.14-.49-.37-.92-.7-1.3-.65-.77-1.64-1.2-2.64-1.19s-.97,1.52,0,1.5h0Z"/>
      <path class="cls-1" d="M4.41,3.8c.3.48.38,1.06.16,1.59-.26.62-.92.96-1.26,1.54-.44.76-.31,1.59-.2,2.41.04.29.11.7-.04.98-.04.07-.22.24-.23.23-.37-.17-.81-.1-1.03.27-.19.33-.1.85.27,1.03.92.44,1.97-.02,2.37-.95.22-.52.22-1.07.15-1.62-.06-.45-.2-.97-.07-1.41.12-.38.49-.63.76-.9.33-.35.58-.74.74-1.19.31-.9.19-1.93-.31-2.74s-1.81-.06-1.3.76h0Z"/>
      <path class="cls-1" d="M6.82,13.05c.01.63.1,1.3.61,1.73.56.48,1.37.43,1.99.07.32-.19.39-.49.47-.82l.02-.06c-.03.08-.03.08,0,0l.03-.05c-.06.06-.05.06,0,0,.03-.03.06-.06.09-.09-.07.05-.07.06,0,0-.08.03-.08.03,0,0,.09-.05.05-.02-.01-.01.06,0,.13,0,.19,0-.21-.03.11.07-.07-.02.04.02.07.04.11.07-.15-.09,0,.01.03.04.03.03.06.05.09.08.17.14.34.25.56.31.75.21,1.41-.42,1.56-1.11.12-.54.16-1.17-.1-1.67-.31-.58-.97-.77-1.59-.61-.18.05-.34.12-.51.17-.01,0-.15.05-.15.04h.1s-.07-.01-.1-.02c.01-.03.19.05.19.05-.07-.04-.06-.03.02.02-.03-.02-.05-.05-.08-.08-.23-.23-.44-.43-.76-.51-.38-.09-.79.05-1.14.18-.72.28-1.37.84-1.35,1.68,0,.39.34.77.75.75s.76-.33.75-.75c0-.18,0,.01-.01.01,0,0,.04-.11-.01,0,0,0,.11-.17.04-.09-.05.07.04-.03.05-.05.06-.08-.09.05,0,0,.04-.03.08-.05.13-.08.01,0,.15-.07.08-.04-.07.03.1-.04.12-.04.09-.03.24-.05.32-.1.07-.04,0,0-.04-.02-.05-.02-.1-.04-.15-.06-.08-.03,0,0,.03.03.03.03.05.05.08.08.08.09.16.16.26.23.38.3.86.33,1.31.19.15-.05.29-.11.44-.15.03,0,.07-.02.1-.03.12-.04-.04.04-.05,0,0,0,.1-.01.1,0-.02.06-.29-.14-.14-.03-.02-.01-.12-.11-.04-.02-.02-.02-.1-.14-.03-.02-.11-.2.06.16-.02-.07.05.15,0,.36-.01.51.02-.16-.02.1-.03.13-.02.11-.03.01,0,.01l-.02.03s-.02.04.03-.02l-.04.04.05-.04c.06-.02.09-.04.15-.03.07,0,.1.02.16.04-.06-.04-.06-.04-.02,0,.04.04.04.03-.02-.02-.37-.34-.81-.56-1.32-.52-.56.04-1.02.33-1.35.78-.14.2-.27.46-.29.71v.03c-.03.15.05.06.22-.27l.07-.03s-.07.03-.11.04c-.05.02-.1.02-.14.04-.05.01-.05.01.02,0h-.07c.18.03-.1-.04.02.01.05.02.05.02-.01-.02l.06.04s-.06-.06,0,.02c-.04-.05-.06-.1-.09-.16.02.04.04.14,0,0,0-.03-.04-.24-.03-.1-.01-.13-.01-.26-.02-.39,0-.39-.34-.77-.75-.75s-.76.33-.75.75h0Z"/>
      <path class="cls-1" d="M13.12,17.36c.51-.34.98-.73,1.37-1.21.1-.13.21-.26.3-.4.05-.07.18-.22.18-.26.07-.06.03-.06-.12.01-.13.08-.18.09-.15.04,0,0,.12.06.14.07.13.08.26.17.39.24,1.11.61,2.46.64,3.69.78.4.05.75-.38.75-.75,0-.45-.35-.7-.75-.75-.62-.07-1.24-.12-1.86-.24-.3-.06-.61-.12-.89-.24-.25-.11-.47-.29-.71-.41-.36-.18-.75-.24-1.13-.09-.35.14-.54.42-.75.72-.32.47-.74.88-1.22,1.19-.34.22-.48.66-.27,1.03.2.34.69.49,1.03.27h0Z"/>
      <path class="cls-1" d="M18.05,10.73c-.56.35-.92.95-.94,1.61s.36,1.3.91,1.66c.27.17.69.12.91-.12.24-.26.27-.6.12-.91-.03-.07-.04-.15,0,.02,0-.04-.03-.08-.04-.13-.03-.09-.04-.17-.05-.26l.03.2c-.02-.15-.02-.29,0-.44l-.03.2c.01-.08.03-.16.05-.24.01-.04.02-.07.03-.11.04-.15-.08.15,0,0s.16-.3.23-.45c.22-.49.28-.99.02-1.48-.18-.35-.7-.48-1.03-.27-.35.23-.47.66-.27,1.03.04.07.03.05-.03-.06,0,.03.01.05.02.08l-.03-.2c0,.07,0,.14,0,.21l.03-.2c0,.06-.02.11-.04.17,0,.02-.01.04-.02.06-.02.05,0,.03.03-.07,0,0-.14.27-.16.3-.12.23-.23.48-.28.74-.11.58-.03,1.13.23,1.65l1.03-1.03s-.03-.02-.05-.03c-.05-.03-.02-.01.07.06-.01-.03-.05-.05-.07-.07-.02-.02-.04-.06-.07-.08.07.09.09.12.06.07-.01-.02-.02-.03-.03-.05-.02-.03-.03-.06-.05-.09-.05-.08.06.17.02.05-.03-.08-.05-.15-.06-.24l.03.2c-.01-.09-.01-.19,0-.28l-.03.2c.01-.08.03-.15.05-.23.04-.14-.08.16-.02.03.02-.03.04-.07.06-.1l.02-.03c.04-.06.03-.04-.05.06.03-.02.05-.06.08-.09.02-.02.05-.04.07-.07.04-.04.02-.02-.07.06.02-.01.04-.03.07-.04.33-.21.49-.68.27-1.03s-.67-.49-1.03-.27h0Z"/>
      <path class="cls-1" d="M8.56,5.38c-.48.05-.94.17-1.36.41s-.77.57-1.05.96c-.3.44-.45,1.03-.31,1.55.09.3.28.6.57.74.34.18.76.17,1.09-.05.53-.35.67-.97.9-1.52l-.08.18c.06-.14.13-.26.21-.38l-.12.15c.06-.08.13-.16.21-.22l-.15.12c.06-.05.13-.09.2-.12l-.18.08c.06-.02.12-.04.19-.05l-.2.03s.09,0,.13,0c.39.02.77-.36.75-.75-.02-.42-.33-.73-.75-.75-.54-.03-1.01.29-1.32.69-.28.37-.4.81-.58,1.23l.08-.18c-.05.12-.11.23-.18.33l.12-.15c-.04.06-.09.1-.14.15l.15-.12s-.05.03-.08.05l.18-.08s-.06.02-.09.03l.2-.03s-.04,0-.06,0l.2.03s-.06-.01-.09-.02l.18.08s-.04-.02-.05-.03l.15.12s-.05-.04-.07-.06l.12.15s-.06-.09-.08-.14l.08.18c-.02-.05-.03-.11-.04-.16l.03.2c-.01-.09,0-.17,0-.26l-.03.2c.02-.11.05-.22.09-.32l-.08.18c.06-.14.14-.27.23-.39l-.12.15c.12-.14.25-.27.39-.39l-.15.12c.17-.13.36-.25.56-.33l-.18.08c.2-.08.41-.14.63-.18l-.2.03s.07,0,.11-.01c.2-.02.38-.07.53-.22.13-.13.23-.34.22-.53s-.07-.4-.22-.53c-.14-.13-.34-.24-.53-.22h0Z"/>
      <path class="cls-1" d="M12.12,9.45c.2-.04.37-.06.6-.06.11,0,.22,0,.33.01.11,0,.13.01.05,0-.11-.06-.2-.15-.26-.26v-.4c.01-.08.19-.19.09-.15-.06.02-.14.09-.19.12-.11.06-.22.11-.32.18-.42.27-.56.79-.3,1.22.1.17.27.3.44.38,0,0,.43.19.45.16-.02.03-.15-.17-.02.04.04.06.07.12.11.19.04.08.03.05.05.1.05.12.08.25.11.37.04.16.03.14.04.31.03.38.12.68.34.99.17.24.35.49.57.69.11.1.15.25.16.46.03.4.32.75.75.75.38,0,.78-.34.75-.75-.04-.58-.19-1.09-.6-1.52-.17-.18-.23-.23-.36-.42-.14-.2-.11-.18-.13-.41-.06-.52-.2-1.02-.47-1.47-.15-.25-.33-.49-.59-.64-.12-.07-.25-.11-.38-.15-.05-.01-.09-.03-.14-.04.07.02.13.07.18.14l.1.38v-.06c-.03.13-.06.25-.1.38l.03-.05-.27.27c.27-.21.61-.32.86-.56.37-.36.41-.93.07-1.32-.53-.63-1.64-.47-2.35-.33-.4.08-.63.55-.52.92.11.41.52.6.92.52h0Z"/>
    </g>
  </g>
</svg>