<?xml version="1.0" encoding="UTF-8"?>
<svg id="Layer_2" data-name="Layer 2" xmlns="http://www.w3.org/2000/svg" viewBox="0 0 23.96 21.48">
  <defs>
    <style>
      .cls-1 {
        fill: #1a1a1a;
      }
    </style>
  </defs>
  <g id="Layer_1-2" data-name="Layer 1">
    <g>
      <path class="cls-1" d="M13.22,2.18C10.06-1.73,3.71.1,1.21,3.85c-.6.9-.89,1.99-.8,3.07.04.57.24,1.08.4,1.62.27.9.19,1.57-.11,2.45-.38,1.1-.83,2.15-.67,3.33s.86,2.3,1.58,3.25c.68.9,1.48,1.6,2.54,2,.6.23,1.24.35,1.85.55.72.24,1.27.67,1.94,1.01,2.35,1.18,4.51-1.11,6.89-.4,2.1.63,4.38.09,5.24-2.14.18-.46.27-.96.27-1.45,0-.96.16-1.36.9-2.02.92-.82,1.95-1.51,2.46-2.67,1.07-2.49-1.43-5.08-3.4-6.25-1.27-.75-2.81-.95-3.9-1.97s-1.89-2.17-3.55-2.12c-.96.03-.97,1.53,0,1.5,1.26-.04,1.91,1.2,2.76,1.94.69.6,1.49.92,2.34,1.24,1.01.37,1.94.84,2.75,1.56s1.98,2,1.74,3.21c-.38,1.9-3.04,2.41-3.58,4.27-.26.91.17,1.74-.37,2.62-.7,1.13-1.91,1.23-3.07.9-.86-.24-1.6-.42-2.5-.26-.95.17-1.81.62-2.75.83-1.12.24-1.68-.28-2.62-.78s-1.9-.6-2.84-.95c-1.89-.71-3.61-3.34-3.07-5.35.24-.88.66-1.69.81-2.59.18-1.06-.19-1.84-.44-2.84-.63-2.53,1.74-4.45,3.81-5.37,2.18-.97,4.78-.74,6.34,1.19.61.75,1.66-.32,1.06-1.06h0Z"/>
      <path class="cls-1" d="M7.47,2.67c-.99.11-1.95.44-2.72,1.09-.34.28-.62.66-.74,1.09-.07.25-.07.53,0,.78.06.22.21.41.27.62.12.38-.09.81-.23,1.16-.21.5-.41.97-.47,1.51-.05.45-.06.88-.16,1.32-.12.5-.27,1.03-.22,1.55.09,1.09,1.36,1.26,2.22,1,.9-.28,1.61-.97,2.06-1.78s.66-1.74,1-2.61c.15-.38.34-.77.6-1.08.29-.34.67-.57,1.01-.86.91-.8,1.01-1.97.33-2.97s-1.77-.59-2.76-.79-1.35,1.25-.4,1.45c.51.1,1.01.12,1.53.1.11,0,.27-.03.36.04.12.08.25.48.24.62-.04.39-.64.71-.91.93-.42.34-.75.76-1.01,1.22-.5.91-.69,1.94-1.12,2.87-.2.44-.46.88-.85,1.17-.16.12-.35.22-.54.27-.11.03-.2.05-.32.04h-.07c-.13-.02-.15-.03-.05-.03l.19.33c-.1-.31.09-.76.16-1.07.1-.42.15-.84.18-1.27.05-.82.51-1.46.69-2.24.09-.42.12-.87,0-1.28-.09-.31-.37-.52-.19-.79.38-.55,1.29-.83,1.92-.91.4-.05.75-.31.75-.75,0-.37-.34-.8-.75-.75h0Z"/>
      <path class="cls-1" d="M18.87,9.65s.08.04.11.06c.11.06-.01-.04.02.02,0,.01.1.11.05.05s.03.04.03.06c.03.05.05.1.08.15.03.06.02.07,0,0,.03.09.06.17.08.26,0,.02.04.2.03.11-.01-.09.03.11,0,.02,0-.02,0-.03.01-.05.01-.03,0-.03-.01,0,0,0,0,.01-.02.03-.16.21-.34.42-.51.63-.35.43-.79.85-.87,1.43s.15,1.09.44,1.58c.2.34.68.49,1.03.27s.48-.67.27-1.03c-.06-.1-.12-.21-.18-.31-.01-.03-.07-.17-.04-.08-.02-.05-.03-.1-.04-.15.03.1,0-.02,0-.06-.02-.07.01,0-.01.03-.03.04.15-.23.1-.15.35-.46.75-.88,1.09-1.36s.27-1.08.07-1.6c-.19-.49-.48-.96-.98-1.2-.35-.17-.83-.11-1.03.27-.18.34-.11.84.27,1.03h0Z"/>
      <path class="cls-1" d="M17.12,9c-.48-.51-.7-1.21-1.21-1.71s-1.23-.71-1.69-1.31c-.27-.35-.5-.65-1-.64s-.88.43-1.17.77c-.25.3-.48.63-.64.98-.15.32-.18.62-.51.78s-.65.24-.96.41c-.36.19-.7.46-.97.75-.32.35-.54.74-.59,1.21-.04.45.08.89.17,1.33.17.83.39,1.66,1.35,1.86.91.19,1.63-.37,2.42-.7.86-.36,1.74-.48,2.64-.65.49-.09.95-.27,1.33-.59.16-.13.31-.29.41-.47.08-.14.16-.46.25-.53l-.33.19h-.02c.97-.01.97-1.51,0-1.51-.4,0-.75.2-.96.54-.13.22-.14.49-.35.66-.46.35-1.24.31-1.79.42-.72.14-1.4.38-2.07.69-.22.1-1.05.67-1.26.47-.06-.05-.06-.23-.08-.3-.04-.19-.08-.37-.12-.56-.05-.22-.17-.55-.1-.79.15-.48.87-.78,1.29-.94.67-.26,1.16-.58,1.44-1.27.2-.48.48-1.15.99-1.37l-.38.1h.11c-.13-.03-.25-.06-.38-.1-.11-.12-.13-.14-.07-.05.03.05.07.1.11.14.06.08.13.17.19.24.14.17.29.32.46.46.34.28.74.46,1.09.72.25.19.41.48.56.74.22.38.45.74.75,1.06.67.7,1.73-.36,1.06-1.06h0Z"/>
      <path class="cls-1" d="M16.42,15.75c-.09,1.15-1.39,1.04-2.17.78-1.05-.36-1.97-.59-3.01-.07-.92.45-1.6,1-2.7.88-.46-.05-.9-.21-1.29-.46-.48-.3-.85-.66-1.42-.79-.94-.2-1.34,1.24-.4,1.45.57.12,1,.64,1.53.89s1.14.39,1.75.42,1.21-.07,1.76-.29c.59-.23,1.08-.67,1.67-.88s1.17.11,1.7.29c.58.2,1.18.32,1.79.23,1.28-.19,2.17-1.18,2.28-2.46.08-.96-1.42-.96-1.5,0h0Z"/>
      <path class="cls-1" d="M4.29,15.39c.29-.24.57-.46.93-.56.31-.08.72-.08,1.14-.07.06,0,.11,0,.17,0,.1.01.11,0,.05,0-.12-.1-.06-.01,0,.06.15.16.31.3.48.43.35.27.76.46,1.19.57.38.1.83-.13.92-.52s-.12-.82-.52-.92c-.11-.03-.22-.06-.32-.1-.12-.05.08.04-.03-.02-.04-.02-.09-.05-.13-.07-.1-.06-.2-.12-.29-.18.06.05,0,0-.03-.03-.05-.04-.09-.08-.14-.13-.2-.21-.39-.4-.67-.5-.26-.09-.58-.08-.86-.09-.51-.02-1.04,0-1.52.17-.55.19-.99.53-1.43.89-.3.25-.28.8,0,1.06.32.3.74.27,1.06,0h0Z"/>
    </g>
  </g>
</svg>