<?xml version="1.0" encoding="UTF-8"?>
<svg id="Layer_2" data-name="Layer 2" xmlns="http://www.w3.org/2000/svg" viewBox="0 0 25.11 23.01">
  <defs>
    <style>
      .cls-1 {
        fill: #1a1a1a;
      }
    </style>
  </defs>
  <g id="Layer_1-2" data-name="Layer 1">
    <g>
      <path class="cls-1" d="M16.33,2.12C15.32,1.37,14.08.02,12.73,0s-2.15,1.15-3.25,1.78c-1.17.67-2.63.27-3.74,1.14-.51.4-.77.97-1.21,1.43-.59.62-1.36.79-2.15,1.04C1.38,5.71.07,6.22,0,7.46c-.01.28.08.53.12.8.06.43,0,.84.03,1.27.03.63.21,1.22.47,1.79.27.62.82,1.2.72,1.84-.09.56-.37.86-.28,1.49.07.51.31.99.68,1.35.48.46,1.17.53,1.65.97l-.12-.91c-.73,1.15-.72,2.94-.18,4.18.23.53.66.99,1.25,1.11.24.05.57.06.78-.07.41-.23.06-.35.28.02.7,1.17,2.4.43,3.22-.2.94-.71.77-1.84-.47-2.01s-2.3.82-2.2,2.05c.11,1.41,1.44,1.88,2.67,1.86,1.76-.04,3.51-.52,5.09-1.28.53-.26,1.14-.71,1.75-.69.45.02.98.28,1.41.4.89.25,1.8.46,2.72.55,1.45.15,3.8.08,4.44-1.56.15-.37.07-.61.1-.98.02-.29.14-.53.18-.82.15-.89-.34-1.7-.85-2.39l-.85,1.1c.4.07.79.15,1.19.22.34.06.66-.04.85-.34.54-.87.19-1.95.34-2.92.13-.88.26-1.74-.25-2.53s-1.38-1.08-2.25-1.23c-.71-.13-1.26.02-1.25-.82.01-.56.19-1.07.11-1.64-.12-.84-.55-1.36-1.29-1.74-.79-.4-1.52-1.44-2.5-1.39-.16,0-.29.08-.44.11-.4.09-.17.25-.22.07-.02-.1.18-.77.2-1s.06-.45.05-.68c-.03-.71-.33-1.41-1.09-1.56-.94-.18-1.35,1.26-.4,1.45.27.05-.82,3.33,1.02,3.5.26.02.38-.08.62-.11.12-.08.24-.16.35-.26.23.16.44.34.62.56.67.57,1.65.68,1.61,1.73-.03.76-.45,1.72.02,2.44.38.57,1.22.63,1.83.73,1.15.19,2.03.44,1.85,1.8-.06.42-.16.83-.18,1.26s.21,1.08-.04,1.48l.85-.34c-.4-.07-.79-.15-1.19-.22-.56-.11-1.28.53-.85,1.1.48.65.64.99.5,1.8-.08.48-.09,1.18-.48,1.45-.94.66-2.89.23-3.87,0s-2.17-.81-3.22-.74-1.92.86-2.86,1.22c-1.03.4-2.12.66-3.22.74-.27.02-.7.11-.94,0-.3.04-.37-.12-.21-.47.04-.26.02-.52-.06-.77-.21-.44-.16-.23-.62-.02-.14.06-.5.22-.57.17-.12-.07-.25-.54-.48-.67-.26-.15-.52-.12-.8-.13-.13,0-.3.16-.41.15-.5-.07-.6-.66-.64-1.04-.08-.68-.1-1.29.28-1.89.17-.27.12-.69-.12-.91-.71-.66-2.36-.87-1.74-2.12.53-1.06.08-1.56-.46-2.55-.33-.59-.58-1.21-.61-1.89-.02-.47-.14-1.14-.09-1.6.12-.93,2.08-1.1,2.85-1.46.93-.44,1.28-1.17,1.96-1.87.85-.88,2.01-.66,3.09-.99s1.62-1.22,2.55-1.69c1.21-.61,2.63.97,3.57,1.67.78.58,1.52-.73.76-1.3h0Z"/>
      <path class="cls-1" d="M13.26,5.67c.15.11.29.34.28.49-.01.18-.28.47-.38.67-.35.74-.33,1.73.27,2.34.3.31.73.45,1.13.61.34.14.69.28,1.05.36.49.12.93.02,1.27-.37.26-.3.49-.64.66-1l-1.18.15c.32.3.59.61.82.99.26.43.6.79,1.14.81s.94-.36,1.3-.7.72-.67,1.09-1.01c.71-.66-.35-1.72-1.06-1.06-.27.25-.54.51-.82.76-.14.13-.27.25-.41.38-.04.04-.09.07-.12.11-.01.01-.03.02-.05.03-.14.07-.04.08.27.04,0,0,.04.02.04.03,0-.03-.07-.12-.09-.15-.09-.15-.18-.29-.28-.42-.23-.31-.48-.6-.77-.87-.33-.3-.96-.3-1.18.15-.11.24-.32.69-.54.79l.38-.1c-.25.01-.57-.15-.8-.24s-.47-.16-.68-.28c-.28-.16-.17-.57-.02-.81.32-.51.54-.98.42-1.6s-.52-1.04-.98-1.4c-.32-.25-.84-.05-1.03.27-.23.39-.05.78.27,1.03h0Z"/>
      <path class="cls-1" d="M8.14,20.53c.87-.05,1.63-.62,1.85-1.48l-.72.55c.28.02.54-.12.72-.32.1-.11.16-.22.22-.36.02-.05.04-.1.06-.15-.02.06-.02.05.02-.03,0,0,.14-.19.06-.1.07-.08.14-.14.21-.22.24-.28.29-.56.24-.92l-1.25.73c.08.09.15.19.23.28.38.47,1.09.15,1.25-.33s.24-1.03.2-1.56l-1.28.53c.12.14.32.48.38.63.25.63.96.71,1.37.18.13-.17.19-.4.18-.62l-1.47.2c.09.27.18.53.27.8.12.36.44.59.82.54.36-.05.66-.36.65-.74,0-.07,0-.14,0-.21,0-.04.03-.22,0-.09,0-.05.02-.09.03-.14l-.03.05c.04-.07.04-.08,0-.01l-.05.03c.09-.09,0-.01-.06,0,.09,0,.09,0,0,0l.07.02c.08.03.09.03.02,0l.06.04c-.06-.05-.05-.04.02.02-.08-.08-.09-.18-.05-.28.04-.28-.02-.08-.08.01-.05.08-.09.16-.13.25-.1.24-.12.48-.05.72.08.27.28.48.53.6s.45.08.7.04h-.4l.04.02-.45-.34c-.04-.08,0,.05,0,.07.01.08.04.16.06.24.03.12.06.25.08.37,0,.04.02.12,0,.03,0,.05,0,.1,0,.16.01.13.01,0,0,.06-.02.11.08-.12-.02.06-.2.35-.09.82.27,1.03s.83.09,1.03-.27c.29-.52.25-1.07.13-1.63-.06-.27-.1-.58-.23-.82-.11-.2-.27-.34-.5-.41-.11-.03-.21-.04-.32-.02-.04,0-.08.01-.13.02-.1.02-.03.01.21,0l.33.19c.12.16.14.32.06.49.02-.04.05-.09.08-.13.07-.12.14-.24.18-.38.08-.29.05-.6-.1-.86-.24-.43-.73-.7-1.2-.76-.53-.07-1.05.14-1.35.59-.25.37-.29.82-.28,1.26l1.47-.2c-.09-.27-.18-.53-.27-.8-.12-.36-.44-.59-.82-.54-.35.05-.66.36-.65.74.09-.2.1-.25.03-.14l1.37.18c-.2-.48-.43-.89-.77-1.3-.41-.5-1.32-.09-1.28.53.03.44-.01.75-.15,1.16l1.25-.33c-.08-.09-.15-.19-.23-.28-.21-.25-.64-.27-.91-.12-.31.18-.4.51-.34.85v.07c.01-.13.01-.27.01-.4.11-.16.12-.19.03-.1-.04.03-.07.07-.11.11-.09.1-.18.22-.26.34s-.13.25-.18.38c-.04.09-.04.1,0,.01.06-.06.06-.06,0,0l.33-.19h.09c-.32-.03-.65.23-.72.54-.01.05-.02.09-.04.14.03-.07.01-.03-.02.01-.03.04-.06.08,0,.02-.04.05-.08.09-.13.13-.09.07.08-.04-.02,0-.01,0-.14.07-.07.04s-.07.02-.08.02c-.11.03.16,0-.05,0-.39.02-.77.33-.75.75.02.39.33.77.75.75h0Z"/>
      <path class="cls-1" d="M10.41,3.97c-.57.43-1.08.8-1.81.84s-1.35.2-1.92.68c-.52.43-.67.97-.94,1.56-.13.27-.32.29-.6.35-.31.07-.62.16-.89.33-1.16.72-1.41,2.11-.88,3.3.11.24.25.47.32.73s-.06.37-.17.6c-.37.69-.25,1.37.39,1.83,1.06.76,2.69.6,3.39-.55.5-.83-.8-1.58-1.3-.76-.19.31-.61.33-.93.23-.05-.02-.3-.16-.32-.15-.06.02-.03.19.06.16.19-.07.35-.7.38-.87.13-.71-.24-1.28-.5-1.9-.19-.44-.16-.92.24-1.24.2-.16.44-.2.68-.25.34-.08.66-.18.93-.4.55-.44.55-1.1.95-1.62.43-.57,1.09-.45,1.72-.55.75-.12,1.37-.54,1.96-.99.32-.25.49-.65.27-1.03-.19-.32-.7-.52-1.03-.27h0Z"/>
      <path class="cls-1" d="M20.25,14.25c.07.05.08.05.01,0,.06.06.06.06.01,0,.02.03.08.2.04.07.01.04.03.09.03.13v-.06c-.02.09-.01.09,0,0,0,.04-.02.09-.03.13.04-.12-.05.03,0-.02-.07.07-.1.1-.12.12-.17.13-.35.24-.52.37-.75.59-.98,1.84-.01,2.36.11.06.23.1.35.13.03.01.29.1.21.06.07.03.14.07.2.12-.08-.06.07.08.09.09.06.07.07.08.03.03.03.04.06.09.09.13.01.02.09.21.06.11.03.07.05.15.06.23-.01-.11,0,.18,0,.21,0,.5.19.94.63,1.21.35.21.8.24,1.19.2s.75-.32.75-.75c0-.37-.34-.79-.75-.75-.08,0-.16.02-.25.02-.04,0-.27-.03-.12,0h-.07c-.08-.04-.09-.04,0-.01.02.03.08.12.11.14.01.06.01.04,0-.05,0-.04,0-.08,0-.13,0-.14-.02-.27-.04-.4-.03-.2-.09-.38-.17-.56-.17-.39-.45-.71-.79-.96-.17-.13-.35-.22-.56-.29-.09-.03-.19-.08-.28-.09-.14-.02-.05-.08.05.09.05.07.03.11.04.19.03-.08.03-.09,0-.02l.04-.06c-.08.09.08-.08.1-.1.02-.02.06-.04.14-.1.34-.23.69-.48.87-.87.39-.79.09-1.76-.66-2.21-.35-.21-.82-.08-1.03.27s-.08.82.27,1.03h0Z"/>
      <path class="cls-1" d="M18.78,14.18c-.04-.49-.18-.95-.52-1.32s-.88-.6-1.39-.53c-.47.06-.91.33-1.14.76-.04.07-.12.18-.1.25v.04c.07-.1.14-.2.22-.3-.05,0-.16.11-.2.14-.22.16-.4.35-.55.57-.05.07-.08.14-.12.22.01-.02-.12.27-.06.15.02-.03.08-.08.01-.03-.16.11-.29.32-.37.5-.1.23-.16.47-.16.72,0,.1.01.2.03.3.01.07.02.14.04.22.02.08,0,.18.04.03.04-.22-.01-.07-.06.04-.05.12-.1.24-.13.36-.06.24-.09.48-.11.73-.04.51-.09,1.09.27,1.51.2.23.5.39.81.37.12,0,.27-.02.38-.08.09-.05.19,0-.11-.06-.27-.06-.19-.04-.09.04.23.2.5.37.82.37.36,0,.56-.16.81-.37l-.53.22h.08c-.13-.04-.25-.07-.38-.1.61.26,1.35.6,2.04.41.83-.23.97-1.35.63-2.01-.14-.26-.26-.4-.31-.7,0-.05-.01-.25-.02-.36,0-.08,0-.16,0-.23,0-.02,0-.2,0-.09.01-.1.11-.22.16-.38s.09-.35.09-.52c.01-.35-.09-.71-.27-1-.5-.83-1.79-.07-1.3.76.07.11.05.08.03.04.02.04.04.11.04.16,0-.06-.02.06-.01.05-.02.12.04-.07-.01.05-.02.04-.04.08-.06.11-.08.17-.13.33-.15.52-.06.5-.04,1.08.11,1.56.08.26.23.47.35.71.02.04.02.13.03.08,0-.03,0-.04.02-.06-.21.23.55-.09.3-.14-.22-.04-.36-.03-.58-.1-.26-.08-.49-.25-.8-.24-.13,0-.26.04-.38.1-.02.01-.21.13-.21.16,0-.02.45-.09.46-.09.04-.03.08.09.03,0-.18-.28-.65-.39-.95-.36-.09,0-.24.02-.32.08l.39.13.1.22s0-.2,0-.19c0-.22,0-.48.04-.68.04-.24.15-.42.22-.65.09-.28,0-.59-.04-.8.01.06-.04-.23-.01-.1,0,0,0-.13,0-.04,0-.02.08-.11.01-.04.07-.09.16-.16.23-.25.04-.06.08-.1.11-.16.01-.02.14-.28.08-.17.1-.18.13-.2.32-.33.15-.1.26-.2.35-.36.04-.07.06-.15.09-.23,0,.01-.04.05-.04.06,0-.1.09-.06.03-.03-.08.04.07,0,.02,0-.08-.01.06.04.09.06,0,0,.05.07.07.12-.03-.07.02.06.02.06,0,.02.04.23.03.14.03.4.32.75.75.75.38,0,.78-.34.75-.75h0Z"/>
      <path class="cls-1" d="M10.9,8.34c-.65-.03-1.31.02-1.94.17-.6.14-1.22.36-1.5.95-.31.63-.01,1.25.48,1.68.35.3.6.61.7,1.07s-.1.92-.18,1.39c-.06.35-.09.69.1,1.01s.57.45.92.46c.31,0,.62-.1.89-.25.23-.13.44-.37.68-.46.2-.07.46,0,.68-.06.27-.08.58-.24.83-.35.28-.13.51-.33.7-.57.13-.16.32-.55.52-.64.03-.01.07,0,.12,0,.18,0,.34.01.52-.05.14-.05.27-.12.4-.2.04-.02.07-.05.1-.08.11-.08.23-.09,0-.06.4-.05.75-.31.75-.75,0-.36-.35-.8-.75-.75-.32.04-.56.13-.82.32-.03.02-.21.1-.09.08-.16.03-.33-.02-.51.01-.66.14-.97.65-1.36,1.13-.18.23-.39.25-.65.37-.06.02-.12.05-.18.09-.1.06-.1.06,0,0-.18,0-.35,0-.53.03-.32.07-.58.24-.84.43-.09.07-.3.16-.37.24-.04.06-.06-.03.03.04l.27.27-.04-.09.1.38c-.02-.28.09-.55.15-.82.07-.31.12-.63.1-.95-.04-.66-.27-1.28-.68-1.8-.18-.23-.39-.4-.6-.59-.02-.02-.09-.1-.1-.1.04,0,.01.19.01.19.05.08-.09.04.07.01.32-.05.63-.18.95-.22.35-.04.71-.04,1.07-.03.4.02.75-.36.75-.75,0-.42-.34-.73-.75-.75h0Z"/>
    </g>
  </g>
</svg>