<?xml version="1.0" encoding="UTF-8"?>
<svg id="Layer_2" data-name="Layer 2" xmlns="http://www.w3.org/2000/svg" viewBox="0 0 20.79 18.77">
  <defs>
    <style>
      .cls-1 {
        fill: #1a1a1a;
      }
    </style>
  </defs>
  <g id="Layer_1-2" data-name="Layer 1">
    <g>
      <path class="cls-1" d="M15.53,1.32c-2.1-1.56-5.1-1.78-7.38-.44-.48.28-.97.65-1.22,1.17-.07.14-.11.28-.14.43.04.17-.02.25-.18.22-.2.2-.56.33-.79.49-1.04.74-1.62,1.92-1,3.13l.45-1.1c-1.07.36-2.17,1.13-1.7,2.42l.52-.92c-.6.25-1.21.51-1.65,1.01-.2.22-.25.56-.43.77-.03.03-.34.16-.49.22-.57.23-1.18.54-1.42,1.14-.26.63.06.99.29,1.55.29.7.29,1.31.73,1.97.48.72.76,1.42,1.05,2.23.61,1.71,2.19.96,3.53,1.52l-.45-.34c.38.55.54,1.08,1.14,1.46.69.44,1.51.56,2.31.55.65-.01,1.46,0,2.03-.37.62-.38.67-1.06,1.07-1.6l-.85.34c.59.21,1.2.39,1.83.29.56-.09.82-.39,1.25-.7l-.58.08c.35.06.88.78,1.17,1,.39.28.84.58,1.34.53.43-.05.69-.3.94-.62.44-.54.68-1,1.31-1.36.93-.52,2.21-.65,2.52-1.88.12-.47-.02-.89-.21-1.31-.28-.62-.4-1.17-.51-1.84-.06-.34-.12-.69-.17-1.03-.03-.16-.22-.8-.15-.97.03-.08.4-.33.48-.43.13-.17.23-.35.29-.56.25-1.02-.45-1.74-1.07-2.42-.76-.83-.61-2.01-1.33-2.89s-1.72-1.37-2.72-1.78c-.89-.37-1.28,1.08-.4,1.45.94.39,1.99.96,2.29,1.99.28.98.45,1.64,1.19,2.39.15.15.4.34.48.54.17.43.09.3-.18.57s-.47.47-.53.86c-.14,1.03.3,2.35.49,3.36.09.46.3.85.42,1.29.13.46.02.66-.47.87-.22.09-.45.16-.68.25-.7.29-1.98,1.06-2.17,1.88-.16.16-.16.21,0,.16.19-.02.14-.07-.15-.18-.22-.19-.45-.33-.66-.54-.36-.36-.59-.71-1.12-.78-.37-.05-.56.07-.85.28-.58.43-.96.3-1.65.06-.34-.12-.66.09-.85.34s-.25.56-.42.82c-.28.44-.75.38-1.22.39-.98.03-1.61-.11-2.15-.93-.42-.65-.77-.79-1.57-.9-.34-.05-.85.04-1.17-.08-.51-.19-.51-.64-.68-1.06-.28-.71-.73-1.27-1.07-1.93-.22-.42-.18-.78-.31-1.22-.06-.2-.36-.52-.33-.72.08-.42,1.14-.46,1.47-.79.24-.24.23-.54.4-.8.22-.35.65-.52,1.01-.67s.68-.5.52-.92c.12-.33.34-.52.65-.57.48-.16.68-.66.45-1.1-.49-.97,1.43-1.49,1.86-2.02.25-.31.19-.7.43-1.01.25-.32.86-.56,1.22-.7,1.75-.66,3.67-.32,5.15.78.78.58,1.52-.73.76-1.3h0Z"/>
      <path class="cls-1" d="M15.66,8.99c-.07.72.14,1.4.25,2.1s-.09,1.12-.45,1.68l1.03-.27c-.31-.18-.66-.3-1.03-.31s-.64.12-.97.2h.4c.15.11.17.11.05-.01-.05-.06-.1-.11-.16-.16-.16-.13-.33-.24-.53-.3-.38-.12-.81-.03-1.15.16-.31.18-.52.44-.75.7-.1.11-.19.18-.3.27.04-.02.08-.01.12.02-.06-.03-.12-.07-.17-.11-.26-.18-.46-.37-.77-.46-.36-.1-.74-.03-1.06.16s-.52.47-.67.78c-.13.29-.16.7-.34.96l.27-.27c-.14.11-.31.16-.45.26-.21.15-.38.33-.51.56-.11.2-.18.41-.21.63-.02.19.04.42-.03.6-.16.37.17.82.52.92.43.12.77-.15.92-.52.09-.21.09-.44.07-.67,0-.12-.02-.19.06-.27.11-.11.32-.15.45-.27.22-.19.33-.43.41-.71.06-.19.12-.39.17-.58.04-.15.13-.09-.02-.13.11.03.24.18.33.24.17.13.36.24.57.3.49.13.97-.04,1.36-.34.19-.15.33-.32.48-.5.06-.07.13-.16.2-.22,0,0,.13-.09.13-.08-.04.09-.17-.15-.06.04.04.06.1.13.16.18.18.18.43.28.69.28.4,0,.65-.31,1.04-.08.36.21.81.07,1.03-.27.45-.7.75-1.41.68-2.26-.07-.77-.35-1.51-.28-2.28.04-.4-.37-.75-.75-.75-.44,0-.71.34-.75.75h0Z"/>
      <path class="cls-1" d="M5.39,10.14c-.17-.06-.33-.04-.5,0-.23.05-.4.23-.49.43-.1.24-.06.44.04.67-.03-.08-.08-.2-.05-.29.02-.06.07-.1,0-.03-.08.08-.16.16-.23.24-.21.24-.36.51-.47.81-.09.25-.13.54-.11.81,0,.12.03.24.05.36,0,.04,0,.12,0,.04,0,.2.02.37.1.56.26.62,1.21.7,1.8.7.02,0,.05,0,.07,0,.1,0,.05-.01-.15-.05.06-.02.2.09.26.11.19.05.39.05.58,0,.37-.1.61-.39.81-.7h-1.3c.27.41.53.94,1.1.94.29,0,.54-.15.73-.36.06-.07.13-.15.19-.22.04-.04.07-.08.11-.13.08-.09.07-.09-.04.01l-.58.08h.04c-.11-.05-.22-.12-.33-.18-.13-.15,0,.02.06.08s.12.11.19.15c.2.13.5.14.71.05.32-.13.49-.4.57-.73.12-.51.2-1.03.26-1.54.06-.49.1-1.06-.15-1.5-.22-.39-.73-.53-1.12-.31-.22.12-.41.35-.59.52l1.25.33c-.04-.23-.07-.47-.11-.7-.06-.4-.57-.63-.92-.52-.24.07-.42.21-.56.43h1.3c-.13-.31-.26-.61-.39-.92s-.55-.4-.85-.34c-.46.09-.94.24-1.26.6-.09.1-.18.21-.24.33-.05.09-.07.2-.12.29.04-.07-.03,0-.02.02.05-.06.05-.07.01-.03-.03.03-.03.03,0,0,.07-.06-.09.05-.09.05-.1.05-.2.1-.3.14-.36.16-.47.71-.27,1.03.24.38.64.44,1.03.27.23-.1.42-.21.61-.36.25-.2.32-.44.47-.71-.03.06,0,.02.02-.02-.02.05-.07.07,0,.02.13-.11-.08.03.01,0,.03-.01.07-.04.11-.06.07-.04-.11.03.02,0,.04-.01.08-.02.12-.04.1-.03.2-.05.3-.07l-.85-.34c.13.31.26.61.39.92.1.23.41.37.65.37.27,0,.51-.14.65-.37l.02-.04-.27.27-.1.03-.92-.52c.04.23.07.47.11.7.09.59.88.68,1.25.33.07-.06.13-.12.2-.18.02-.02.21-.19.09-.1l-.38.1h.05c-.18-.08-.35-.15-.53-.23-.11-.22-.14-.26-.1-.11.02.09.02.1,0,.03,0,.1,0,.21,0,.32,0,.08-.01.16-.02.24,0,.05-.01.11-.02.16-.01.09-.01.11,0,.05-.03.2-.06.39-.1.59-.02.11-.04.22-.07.33-.01.06-.02.11-.04.17-.06.2.01.13.21-.21l.58-.08h-.04c.11.06.22.12.33.19.07.1.07.11,0,0-.03-.04-.06-.08-.09-.11-.09-.09-.21-.15-.33-.19-.25-.08-.52-.02-.73.14-.11.09-.2.2-.29.31-.05.05-.09.11-.14.16l-.05.06c-.06.06-.06.06,0,0l.38-.1h-.06c.13.03.25.07.38.1.16.19.19.22.11.09-.03-.04-.06-.09-.09-.13-.06-.09-.12-.18-.17-.26-.31-.47-.98-.49-1.3,0-.03.04-.05.08-.08.12l.02-.04c.07-.06.15-.09.25-.08l.21.05c-.09,0-.2-.1-.3-.12-.13-.03-.25-.03-.38-.03-.08,0-.15,0-.23,0-.04,0-.08,0-.12,0,.06,0,.06,0,0,0-.08-.01-.15-.03-.23-.05-.04,0-.08-.02-.11-.03-.13-.04-.1-.02.09.07l.19.33c0,.09,0,.1,0,.04,0-.04,0-.08,0-.11,0-.09-.02-.19-.03-.28,0,0-.02-.24-.02-.12,0-.06,0-.12,0-.17,0-.08-.03.09,0-.04.01-.05.04-.11.05-.17.01-.07-.05.07.02-.04.03-.06.07-.12.11-.18-.06.09,0,0,.03-.03.04-.04.08-.08.12-.12.1-.11.21-.22.29-.35.23-.39.22-.79.04-1.19l-.45,1.1h.05c-.13-.01-.27-.01-.4-.01l.05.02c.37.12.84-.14.92-.52.09-.41-.12-.79-.52-.92h0Z"/>
      <path class="cls-1" d="M13.4,2.33c-1.25-.36-2.57-.08-3.57.76-.43.37-.77.84-.99,1.36-.12.29-.1.21-.41.35-.28.12-.55.29-.77.51-.23.23-.39.51-.4.84,0,.16.04.32.09.46.02.05.04.11.06.16.04.14.04.14,0,0-.29.64.05,1.32.63,1.65.53.31,1.24.37,1.81.16.26-.1.49-.24.71-.41.1-.08.19-.16.3-.23.07-.05.13-.09.21-.13.07-.03.06-.04-.03-.03l-.33-.19c.34.27.37.92.37,1.33,0,.3,0,.31-.17.51-.19.24-.3.51-.36.8-.13.66.09,1.19.77,1.37s1.24-.06,1.77-.42c.5-.33,1.01-.65,1.49-1,.54-.4.6-.86.67-1.49.05-.4.15-.84.48-1.11.48-.39.91-.7,1.19-1.27.18-.36.1-.81-.27-1.03-.33-.19-.85-.1-1.03.27-.26.54-.78.73-1.15,1.17s-.58,1-.67,1.58c-.02.15-.04.3-.05.45,0,0-.07.32,0,.21.07-.07.06-.06-.05.02l-.19.13c-.15.1-.3.2-.45.3-.26.17-.51.35-.77.52-.09.06-.2.15-.31.19-.13.05-.3-.02-.17.1l.19.33c.05.21.06-.16.05-.15.08-.15.25-.27.33-.42.19-.36.21-.79.2-1.19-.02-.7-.17-1.45-.59-2.02-.52-.72-1.37-.5-1.98-.04-.24.18-.48.44-.79.48-.12.01-.25,0-.36-.05-.13-.05-.07.05-.09-.1v.4c.03-.19.14-.35.15-.56,0-.14,0-.28-.03-.41-.02-.09-.08-.45-.14-.21-.06.21.12-.01.24-.07.29-.15.6-.21.83-.45.2-.2.27-.45.39-.7.51-1.07,1.65-1.58,2.79-1.26.93.26,1.33-1.18.4-1.45h0Z"/>
    </g>
  </g>
</svg>