<?xml version="1.0" encoding="UTF-8"?>
<svg id="Layer_2" data-name="Layer 2" xmlns="http://www.w3.org/2000/svg" viewBox="0 0 24.37 24.71">
  <defs>
    <style>
      .cls-1 {
        fill: #1a1a1a;
      }
    </style>
  </defs>
  <g id="Layer_1-2" data-name="Layer 1">
    <g>
      <path class="cls-1" d="M3.97,4.91c.13-1.77,1.54-2.2,3-2.59.6-.16,1.19-.32,1.79-.48.37-.1.98-.39,1.37-.22.15.06.28.36.42.46.71.54,1.58.25,2.37.07,1.4-.31,3.2-.65,4.54.02.55.28,1.02.69,1.58.95.74.35.71.29.82,1.2.14,1.18.33,1.93,1.09,2.86,1.58,1.94,1.98,5.07,1.92,7.53-.03,1.42-.58,2.4-1.12,3.66s-.7,2.39-1.91,3.25c-1.1.78-2.45,1.06-3.75,1.25s-2.82.44-4.19.32c-.56-.05-1.13-.16-1.54-.57-.34-.34-.46-.74-.92-.95-.42-.19-.81-.05-1.24-.13-.6-.12-.73-.67-1.2-.97-.39-.25-.8-.22-1.24-.21-.62.01-.91-.11-1.48-.37-.36-.17-.68-.26-1.06-.36-.57-.15-.08.38-.3-.19-.18-.47-.04-1.22.07-1.67.24-.97,1.02-2.02.14-2.92-.26-.27-.62-.39-.96-.52-.25-.1-.42-.09-.54-.31-.16-.3-.04-.94-.05-1.28-.02-.85-.03-1.7-.05-2.55-.02-.94-.17-1.74.51-2.5.95-1.05,1.71-1.9,2.21-3.27.33-.91-1.12-1.3-1.45-.4s-.78,1.57-1.42,2.23c-.44.45-.91.82-1.16,1.43C-.05,8.32,0,9.03.01,9.72c.02,1.08.04,2.16.07,3.25s-.05,2.04,1.02,2.57c.19.1.48.12.66.23.42.28.19.37.03.84-.28.84-.48,1.63-.43,2.53.06,1.02.27,1.81,1.34,1.99.64.11,1.05.34,1.66.57s1.51-.06,1.98.35c.4.34.5.76,1.07.92s1.06-.12,1.57.32c.42.37.65.74,1.18,1,.58.28,1.24.37,1.88.4,1.56.08,3.22-.18,4.76-.43,1.45-.23,2.87-.66,4.06-1.55.99-.75,1.61-1.69,1.98-2.87.45-1.44,1.27-2.65,1.46-4.18s-.03-3.01-.27-4.49c-.23-1.39-.46-2.86-1.23-4.07-.41-.64-1.09-1.13-1.31-1.87s-.06-1.52-.31-2.24c-.37-1.08-1.72-1.4-2.63-1.94-1.49-.88-3.11-.83-4.77-.59-.96.14-1.77.6-2.59.01-.48-.34-.63-.56-1.27-.48-.96.11-1.95.49-2.88.74-.82.22-1.72.36-2.47.77-1.28.69-1.97,1.98-2.08,3.39-.07.96,1.43.96,1.5,0h0Z"/>
      <path class="cls-1" d="M10.64,2.05c.39,1.18,1.49,2.03,2.74,2.05.59,0,1.15-.1,1.74.06s1.08.47,1.49.92.77.87,1.35,1.09c.55.2,1.13.23,1.66.49,1.02.51,1.75,1.42,2.31,2.39.48.84,1.77.08,1.3-.76-.54-.96-1.24-1.83-2.13-2.48-.46-.34-.97-.6-1.51-.78s-1.12-.16-1.54-.6c-.82-.87-1.65-1.58-2.87-1.79-1.04-.18-2.64.36-3.08-.98-.3-.91-1.75-.52-1.45.4h0Z"/>
      <path class="cls-1" d="M3.09,16.74c.33.07.49.5.68.75.35.47.74.7,1.28.91.39.15.59.42.81.77.31.51.74.77,1.34.78.37,0,.68-.06,1.02.12.28.14.52.39.64.68.17.44.07.97.15,1.44.09.54.32,1.05.54,1.55.16.37.71.46,1.03.27.38-.22.43-.65.27-1.03-.2-.46-.39-.93-.4-1.44-.02-.57-.05-1.09-.32-1.6-.46-.88-1.42-1.48-2.41-1.5-.17,0-.41.05-.57.02.06.01.09.16,0-.04-.04-.1-.11-.2-.17-.29-.33-.48-.76-.86-1.3-1.08-.17-.07-.37-.11-.51-.22-.17-.13-.28-.36-.4-.54-.32-.46-.7-.87-1.27-.99-.94-.21-1.34,1.24-.4,1.45h0Z"/>
      <path class="cls-1" d="M8.1,3.13c-.55,0-1.05.21-1.48.53-.37.27-.79.59-1.03.99-.27.44-.22.95-.36,1.43-.12.4-.37.72-.68,1-.41.36-.63.72-.68,1.27s-.07,1.07-.11,1.6c-.02.25-.04.7-.33.79.05-.02,0,.11,0-.08s.07-.37.14-.54c.15-.37-.17-.82-.52-.92-.43-.12-.77.15-.92.52-.24.59-.27,1.25.06,1.81s.95.79,1.55.67c1.34-.27,1.49-1.69,1.56-2.81.02-.29,0-.66.06-.95.05-.18.14-.21.29-.35.43-.38.74-.87.95-1.4.11-.29.17-.58.21-.89.02-.15.02-.3.1-.43.12-.18.4-.38.57-.5.19-.14.38-.25.62-.25.97,0,.97-1.5,0-1.5h0Z"/>
      <path class="cls-1" d="M20.43,13.15c.46.61.53,1.47-.02,2.06-.31.33-.67.62-.89,1.02-.25.45-.15.92-.32,1.37-.09.23-.21.44-.27.69-.06.27-.05.56-.17.81-.19.38-.56.75-.88,1.03-.65.56-1.55.66-2.13-.05l.19.33v-.06c-.04.13-.07.25-.11.38.19-.41.47-.76.8-1.06s.76-.52,1.06-.87c.66-.76.95-1.91,1.21-2.87s-1.19-1.33-1.45-.4c-.19.69-.38,1.51-.77,2.11-.36.55-1.07.84-1.5,1.35-.5.58-1.1,1.41-.5,2.13.43.52,1.07.84,1.73.93,1.48.2,2.68-.85,3.49-1.98.21-.3.35-.64.4-1s.17-.66.31-1.01c.12-.32.07-.66.16-.97.07-.24.31-.42.48-.59,1.1-1.08,1.46-2.8.47-4.1-.24-.32-.65-.49-1.03-.27-.32.19-.52.7-.27,1.03h0Z"/>
      <path class="cls-1" d="M12.8,18.22c-.15-.81-.36-1.64-.96-2.24s-1.46-.76-2.29-.54c-.5.13-1.1.49-1.48.03-.21-.26-.31-.59-.41-.9-.06-.19-.12-.38-.2-.56-.08-.21-.23-.43-.27-.65v.4c.03-.2.21-.42.27-.64.06-.21.12-.47.13-.69,0-.18.13,0-.06-.04-.08.05-.16.05-.25,0,.06.03.12.07.18.11.23.13.45.26.68.4.49.29.98.58,1.47.86.27.15.53.29.85.29.29,0,.51-.14.78-.19s.66-.02.75.29c.02.07-.04.23-.06.33-.07.32-.1.61-.05.94.07.43.32.81.31,1.25,0,.35-.13.7-.36.96-.27.3-.3.76,0,1.06.27.27.79.31,1.06,0,.55-.62.87-1.43.79-2.27-.04-.43-.21-.77-.3-1.18-.08-.36.12-.72.11-1.09-.03-.89-.75-1.62-1.6-1.77-.42-.07-.84-.04-1.24.1l-.11.04c-.16.03-.14.06.05.07,0,0-.23-.13-.21-.12-.23-.13-.45-.26-.68-.4-.38-.22-.75-.44-1.13-.66s-.76-.5-1.23-.47-.86.37-1.06.78c-.19.39-.15.82-.36,1.2-.26.47-.21.88.03,1.34.19.37.28.77.43,1.16.29.75.78,1.49,1.61,1.71.45.12.93.06,1.38-.07.33-.09.75-.31,1.09-.24.69.15.81,1.24.91,1.79.07.4.56.62.92.52.42-.12.6-.52.52-.92h0Z"/>
      <path class="cls-1" d="M9.69,6.42c.49.42,1.1.69,1.77.63.37-.03.69-.14,1.02-.31.16-.08.35-.24.54-.2.21.04.35.27.46.42.19.26.33.48.62.63s.6.15.92.19.63.14.92.27.57.29.85.44c.18.11.59.26.69.46.2.39-.1,1.1-.45,1.3-.21.12-.46.1-.7.14-.34.06-.63.2-.86.46-.18.2-.29.46-.36.72-.03.11-.05.23-.07.34-.02.08-.03.15-.06.22-.03.08.01.06.13-.06h.4c-.64-.13-.79-1.29-1.11-1.81-.24-.39-.58-.71-1.02-.85-.47-.16-.92-.05-1.41-.06-.38-.01-.68-.21-.97-.45-.32-.26-.69-.55-.92-.89-.11-.16-.25-.46-.12-.64.08-.12.32-.18.44-.26.22-.14.37-.31.52-.52.55-.79-.75-1.54-1.3-.76,0,0-.31.16-.4.22-.21.14-.39.31-.53.52-.28.43-.32.97-.22,1.46.21.97,1.13,1.72,1.9,2.27.4.29.86.49,1.36.53.39.04,1.04-.2,1.33.13.26.31.32.82.5,1.17.23.49.62.91,1.08,1.19.42.25.9.31,1.3-.02s.48-.76.58-1.22c.02-.09.07-.23.06-.22.16-.09.49-.04.67-.09.45-.12.85-.4,1.14-.76.6-.74.88-2.05.33-2.9-.28-.43-.75-.67-1.18-.92-.47-.27-.96-.52-1.47-.7-.31-.11-.63-.17-.96-.21-.29-.03-.27.04-.37-.13-.27-.46-.71-.85-1.21-1.02-.55-.2-1.07-.07-1.58.18-.41.2-.81.38-1.21.04-.73-.63-1.79.43-1.06,1.06h0Z"/>
      <path class="cls-1" d="M19.88,9.73c.02.07.04.15.05.22l-.03-.2c0,.06.01.13,0,.19l.03-.2s-.02.08-.03.11l.08-.18s-.04.07-.06.1l.12-.15c-.08.1-.17.18-.26.26-.07.07-.12.15-.16.24-.05.09-.07.19-.06.29,0,.1.02.2.06.29.03.09.08.17.16.24.14.13.33.23.53.22l.2-.03c.13-.04.24-.1.33-.19.07-.07.14-.13.21-.2.15-.15.25-.32.32-.53,0-.02.01-.04.01-.06.02-.08.03-.17.03-.25,0-.04,0-.09,0-.13-.02-.15-.04-.3-.08-.45-.02-.1-.07-.18-.13-.26-.05-.08-.12-.15-.21-.19-.09-.05-.18-.08-.28-.09-.1-.02-.2-.02-.3.01-.18.06-.36.17-.45.34s-.13.38-.08.58h0Z"/>
      <path class="cls-1" d="M13.02,21.28c-.06-.04-.13-.08-.18-.13l.15.12c-.11-.09-.21-.18-.31-.29-.07-.07-.15-.12-.24-.16-.09-.05-.19-.07-.29-.06-.1,0-.2.02-.29.06-.09.03-.17.08-.24.16l-.12.15c-.07.12-.1.24-.1.38l.03.2c.04.13.1.24.19.33.07.08.15.16.23.23s.18.14.27.21c.05.03.09.06.14.09.09.05.18.08.28.09.1.02.2.02.3-.01.1-.02.18-.07.26-.13.08-.05.15-.12.19-.21l.08-.18c.04-.13.04-.27,0-.4l-.08-.18c-.07-.11-.16-.2-.27-.27h0Z"/>
    </g>
  </g>
</svg>