<?xml version="1.0" encoding="UTF-8"?>
<svg id="Layer_2" data-name="Layer 2" xmlns="http://www.w3.org/2000/svg" viewBox="0 0 26.95 29.08">
  <defs>
    <style>
      .cls-1 {
        fill: #1a1a1a;
      }
    </style>
  </defs>
  <g id="Layer_1-2" data-name="Layer 1">
    <g>
      <path class="cls-1" d="M18.61,2.15C17.3,1.4,16.04.24,14.49.03c-1.43-.19-2.69.59-3.81,1.39-1.35.97-3.08,1.95-4.12,3.27-.45.58-.65,1.14-1.24,1.61-.5.4-.67.73-1.04,1.23-.88,1.19-3.03,1.02-4,2.28-.3.39-.37.86-.18,1.32.14.34.27.5.3.87.03.3-.04.6.02.91.14.74.65,1.27.88,1.96.33.98-.12,1.78-.25,2.75-.24,1.7.05,3.31.72,4.88.14.32.55.39.85.34.27-.04.88-.15,1.15-.02.29.14.41.59.56.84.23.37.46.72.91.84,1.12.3,1.28-.85,2.12-1.12l-.92-.92c-.22,1.32.49,3.29,2.12,3.3.31,0,.5-.1.76-.25.42-.23-.03-.19.16.34.23.66.89.87,1.51.75l-.92-.92c-.26,1.12.69,1.59.73,2.6.02.51.64,1.01,1.13.65.71-.53,1.29-1.12,1.81-1.84l-1.37-.18c.18.48.29.88.33,1.4.04.43.46.92.95.72.55-.22,1.07-.48,1.53-.87.55-.47.42-.41,1.1-.42,1.15,0,2-1.04,2.25-2.07.15-.62-.08-1.49.14-2.05s1.45-.85,1.95-1.1c.57-.29,1.13-.57,1.54-1.07.64-.78.99-1.46,2.11-1.6.35-.04.6-.21.72-.55.07-.2.06-.52.15-.69.15-.28.22-.24.53-.4s.57-.35.74-.66c.25-.44.22-.89.08-1.35-.16-.53-.73-1-.59-1.59.11-.47.45-.71.4-1.27-.02-.21-.09-.4-.16-.6-.03-.08-.07-.16-.12-.23-.11-.19-.11-.19,0-.02.1-.24.55-.45.69-.73.19-.35.25-.74.22-1.13-.06-.74-.48-1.35-1.16-1.64-.64-.27-1.03-.24-1-1.05.03-.6-.04-1.21-.21-1.79-.3-1.03-.87-2.06-1.86-2.55-1.33-.66-2.88-1.03-4.28-1.52-.91-.32-1.31,1.13-.4,1.45,1.2.42,2.57.72,3.7,1.3,1.33.68,1.57,1.96,1.53,3.32-.02.73-.01,1.38.67,1.83.72.47,2.03.31,1.07,1.36-.38.42-.71.7-.57,1.33.13.59.17.87.01,1.48-.08.32-.17.6-.13.93s.21.57.34.88c.27.28.33.62.18,1.01-.14.06-.29.12-.43.19-.23.22-.47.31-.63.62-.18.36-.11.78-.24,1.15l.72-.55c-1.14.14-2.14.58-2.86,1.51-.62.81-1.24,1.23-2.17,1.66-.54.24-1.38.4-1.77.88-.77.95.36,3.87-1.44,3.78-.44-.02-.68-.13-1.1.13-.63.38-.95.98-1.68,1.28l.95.72c-.05-.63-.16-1.2-.38-1.8-.23-.63-.99-.72-1.37-.18-.36.51-.77.93-1.27,1.31l1.13.65c-.01-.34-.06-.62-.2-.94s-.67-.88-.58-1.26c.13-.58-.35-1.04-.92-.92.57-.11-.54-1.38-1.06-1.4-.36-.02-.53.21-.84.3-.15.04-.1.15-.25.12-.47-.07-.61-1.01-.56-1.33.09-.53-.33-1.11-.92-.92-.5.16-.73.43-1.11.76-.34.3.01.54-.33-.04-.12-.2-.18-.41-.33-.6-.73-.91-1.94-.83-2.97-.66l.85.34c-.65-1.5-.79-3.16-.37-4.74.34-1.28.37-2.01-.28-3.21-.37-.69-.49-1.15-.49-1.94,0-.35-.37-.99-.26-1.28.06-.16,1.09-.56,1.24-.63.37-.16.74-.29,1.12-.44.44-.18.89-.32,1.22-.69.38-.44.48-.91.95-1.32.35-.3.69-.5.95-.89.37-.54.56-1.06,1.07-1.51.6-.53,1.27-.97,1.91-1.45,1.06-.78,2.36-2.06,3.74-2.15s2.8,1.27,3.96,1.94c.84.48,1.59-.81.76-1.3h0Z"/>
      <path class="cls-1" d="M7.11,20.9l1.21-2.26h-1.3c.09.17.13.34.16.53.05.28.36.51.62.54.31.04.57-.1.75-.36l.78-1.17h-1.3c.11.17.08.37.05.62-.03.33-.05.65.02.98.04.18.15.32.2.49-.04-.14-.02.14-.01.18.03.35.14.7.35.99.07.1.19.24.25.31.04.05.05.08.08.21.09.35.23.69.56.89.39.24.87.15,1.16-.2.23-.29.34-.73.43-1.08l-1.37.18c.47.86,1.23,1.91,2.36,1.61l-.85-.34c.07.14.16.32.18.47.05.32.04.58.32.81.27.21.63.24.93.07.28-.16.42-.49.52-.77.14-.38-.16-.82-.52-.92-.42-.11-.78.14-.92.52-.01.02,0,.02.02,0l.33-.19-.05.02.58.08-.05-.03.34.45c.06.17,0-.06-.01-.12-.02-.15-.04-.3-.09-.44-.07-.24-.18-.46-.29-.69-.14-.3-.54-.43-.85-.34.06-.02,0,0-.05-.05-.07-.06-.15-.13-.21-.2-.16-.2-.28-.44-.41-.67-.3-.56-1.22-.44-1.37.18-.05.22-.11.45-.22.65l.27-.27-.06.04.38-.1h-.07c.13.03.25.06.38.1.15.09.11.2.09.06,0-.09-.05-.2-.08-.29-.09-.25-.21-.42-.38-.62-.09-.11-.17-.19-.2-.34-.03-.15,0-.37-.04-.55-.04-.14-.16-.29-.19-.42-.05-.19.01-.43.03-.63.05-.48.01-.97-.26-1.38-.32-.49-.97-.48-1.3,0l-.78,1.17,1.37.18c-.05-.32-.16-.61-.31-.89-.26-.49-1.04-.49-1.3,0l-1.21,2.26c-.19.36-.09.82.27,1.03s.83.09,1.03-.27h0Z"/>
      <path class="cls-1" d="M19.36,10.87c.6.48,1.29,1.07,1.65,1.77l-.08-.58-.02.14.34-.45c-.08.05-.54.08-.73.13-.29.09-.57.21-.81.4-.53.4-.81.97-.74,1.63s.2,1.28.5,1.83c.06.11.45.57.44.64-.04.23-.41.41-.44.69l-.02.12c.25-.16.28-.21.1-.14-.13,0-.4.11-.51.15-.3.1-.6.21-.89.36-.5.26-.96.62-1.32,1.05-.42.48-.63.99-.91,1.55-.13.25-.35.4-.52.63-.21.27-.35.56-.45.89-.28.93,1.16,1.32,1.45.4.11-.37.35-.49.59-.75s.31-.64.46-.97c.28-.59.74-1.09,1.31-1.42.61-.35,1.58-.32,1.99-.94.15-.23.15-.45.32-.66.26-.32.38-.67.32-1.09-.05-.37-.23-.66-.43-.96-.23-.32-.34-.62-.42-1.01-.07-.34-.2-.63.13-.84.31-.2.71-.17,1.05-.26,1.92-.52-.66-2.86-1.3-3.37-.75-.6-1.81.46-1.06,1.06h0Z"/>
      <path class="cls-1" d="M19.1,6.87c-.52-1.01-1.24-1.92-2.12-2.64-.37-.3-.85-.76-1.37-.75-.74.02-.92.87-1.14,1.42l1.37-.18c-.56-.99-2.11-1.55-3.21-1.32-.7.15-1.06.67-1.15,1.34-.1.71-.5.87-1.1,1.17s-1.11.7-1.62,1.1-1.07.88-.93,1.6c.12.66.74,1.12,1.41.89.3-.1.57-.32.82-.5.2-.14.56-.54.79-.6h-.4c.34.08.62.47,1.06.48.36,0,.71-.19,1.02-.36s.6-.34.85-.58c.14-.13.28-.29.38-.46.05-.08.09-.16.13-.24.12-.24.1-.24-.08,0l-.38.1c.36-.03.47.45.62.69.28.43.69.67,1.21.71.47.03,1-.03,1.45-.13.55-.13.98-.35,1.57-.3.96.09.96-1.41,0-1.5-.58-.05-1.09.08-1.64.26-.23.08-.45.13-.69.15-.11,0-.54.08-.62.04-.05-.03-.14-.27-.19-.35-.11-.2-.23-.39-.39-.54-.35-.34-1.03-.63-1.52-.49s-.55.63-.86.96c-.15.15-.34.26-.53.36-.1.06-.21.1-.32.16.1-.05.17.08-.02-.07-.45-.33-.93-.48-1.43-.16-.43.28-.87.84-1.38.97h.4c.41.07.03.53.41.22.12-.1.25-.19.37-.29.29-.22.59-.43.9-.62.6-.36,1.25-.56,1.69-1.13.22-.28.37-.6.45-.94.02-.11,0-.46.06-.51-.09.08.23.04.21.04.46.05,1.12.18,1.37.61.34.61,1.15.39,1.37-.18.05-.12.09-.23.14-.35.12-.21.09-.23-.07-.07l-.38.1h.1c-.13-.03-.25-.06-.38-.09,1.08.58,1.92,1.67,2.47,2.74.44.86,1.74.1,1.3-.76h0Z"/>
      <path class="cls-1" d="M6.74,10.29l-1.27.25c-.38.07-.79.12-1.16.24-.93.29-1.19,1.3-.71,2.1.16.27.48.48.59.77s.03.69.08,1c.02.12.08.53.19.59.05.03,0,.05,0-.01,0-.08-.03.13-.03.14-.1.47-.08.87.26,1.23.24.26.61.26.91.12.93-.44,1.61-1.3,1.88-2.28l-.92.52c.93.33,1.94-.09,2.53-.83.26-.33.4-.68.59-1.05.06-.12.07-.16.15-.18.16-.05.38-.03.57-.02.4.02.75-.36.75-.75,0-.42-.34-.73-.75-.75-.45-.02-.92,0-1.32.22s-.63.58-.8.98c-.24.55-.63,1.19-1.31.95-.38-.14-.82.16-.92.52-.17.63-.58,1.1-1.19,1.39l.91.12s.15.28.11.31c.02-.01.04-.18.05-.21.03-.15.06-.3.06-.45,0-.33-.19-.58-.23-.84-.04-.3,0-.6-.06-.91-.06-.37-.24-.67-.47-.95-.08-.1-.18-.2-.26-.3-.04-.05-.09-.17-.09-.17-.08-.04.05-.03,0,.02,0,0-.09.15-.09.15.01.02.26-.05.3-.06.69-.14,1.39-.27,2.08-.41.4-.08.63-.55.52-.92-.11-.42-.52-.6-.92-.52h0Z"/>
      <path class="cls-1" d="M22.11,14.56c-.02.2-.03.4-.03.6,0,.22,0,.46.08.67.07.18.15.35.3.48s.31.23.49.27c.28.07.54.04.82-.01.17-.03.36-.2.45-.34.09-.16.13-.4.08-.58s-.17-.36-.34-.45l-.18-.08c-.13-.04-.27-.04-.4,0-.03,0-.06.01-.1.02l.2-.03c-.09.01-.18.02-.27,0l.2.03s-.08-.02-.12-.03l.18.08s-.05-.03-.08-.05l.15.12s-.05-.04-.07-.07l.12.15s-.04-.06-.06-.1l.08.18c-.02-.05-.03-.11-.04-.17l.03.2c-.04-.3-.01-.61.02-.91.02-.18-.1-.41-.22-.53-.13-.13-.34-.23-.53-.22s-.4.07-.53.22l-.12.15c-.07.12-.1.24-.1.38h0Z"/>
      <path class="cls-1" d="M16.33,10.45c-.86-.03-1.74.19-2.28.92-.24.33-.36.72-.35,1.13,0,.35.15.75.1,1.07-.09.59.32,1.03.92.92.29-.05.61.06.89.17.18.07.36.17.54.26.13.07.3.16.33.19-.04-.04.07.11.03.03,0,.01,0,.07,0,.1-.02.12-.08.21-.15.29-.23.29-.55.52-.86.72-.34.22-.48.66-.27,1.03.2.34.69.49,1.03.27.98-.65,2.32-1.88,1.53-3.18-.32-.51-.89-.78-1.43-1.01-.67-.29-1.31-.45-2.04-.32l.92.92c.06-.38.04-.7,0-1.08-.01-.11-.03-.22-.03-.34,0-.04,0-.11,0-.14,0,.02.04-.15.01-.07.07-.16.15-.23.33-.3.23-.1.52-.09.79-.09.41.01.75-.35.75-.75,0-.42-.34-.74-.75-.75h0Z"/>
      <path class="cls-1" d="M10.89,16.28c.1.08.2.16.31.22.02,0,.22.11.22.11l-.08-.08c-.09-.07-.14-.16-.13-.28,0,.02,0,.12,0,.13,0,.05-.04.12,0,0-.02.06-.03.13-.05.19-.12.41-.29.8-.28,1.23.01.49.23.89.53,1.26.1.12.21.24.31.36.02.03.05.06.07.09.08.08-.09-.15,0,0,.05.07.09.14.13.21.19.36.57.55.97.46.25-.06.47-.28.65-.46.39-.4.55-.89.54-1.44,0-.19-.02-.38,0-.56-.01.14,0,0,.01-.05.01-.05.02-.09.03-.14.03-.12.06-.23.08-.35.08-.5-.01-1-.19-1.47-.22-.6-.63-1.06-1.31-1.11-.24-.02-.49.03-.72.12-.14.06-.29.12-.42.19-.05.02-.1.05-.15.07.12-.05-.03,0-.07.02-.37.12-.65.52-.52.92.12.37.52.66.92.52.25-.08.49-.21.73-.32-.09.04-.02.01.03,0,.05-.02.1-.03.15-.04-.06.01-.1.02-.01.01-.09-.02-.1-.02-.05,0,.05.01.04,0-.04-.02-.04-.03-.09-.08-.02-.02.11.11-.03-.07,0,0,.03.08.05.09.01,0,.02.04.03.09.05.14.03.11.06.21.09.32.02.06.03.12.04.19v.07c0-.06,0-.06,0-.01,0,.03,0,.2.01.06,0,.05-.02.09-.03.14-.03.12-.06.23-.09.35-.06.28-.07.55-.06.83,0,.12,0,.23,0,.35,0,.08-.02.07,0,0,0,.03-.02.07-.03.1-.02.05-.01.04,0-.03-.05.04-.04.06,0,0-.03.04-.07.08-.11.12s-.08.07-.12.11c-.11.11.09-.04-.02.02l.38-.1h-.04c.18.07.35.15.53.22.06.05.06.08,0,0-.02-.03-.04-.06-.06-.1-.07-.11-.15-.21-.23-.31-.11-.14-.23-.27-.35-.41-.01-.01-.09-.1-.09-.11,0,0,.08.12.02.02-.02-.04-.05-.08-.07-.11,0-.02-.07-.13-.02-.03.05.1,0-.04-.02-.06-.03-.08,0-.03,0,.02,0-.05,0-.11,0-.16,0-.1-.04.16,0-.02.12-.42.29-.83.31-1.27.02-.32-.08-.67-.32-.89-.09-.08-.19-.16-.3-.22-.06-.03-.28-.16-.13-.04-.31-.25-.77-.32-1.06,0-.25.27-.33.8,0,1.06h0Z"/>
      <path class="cls-1" d="M2.74,18.66c.06-.02.11-.03.17-.03l-.2.03c.09,0,.17,0,.26,0l-.2-.03c.07.01.14.04.21.05-.1-.05-.13-.06-.08-.03.02,0,.04.02.06.03.03.02.06.04.09.06.08.05-.13-.11-.03-.02.03.02.05.05.08.07.06.05.11.11.17.17.05.05.1.1.15.16.02.03.05.05.07.08.06.07-.1-.14-.03-.03.04.06.08.13.12.2s-.05-.18-.02-.04c0,.04.02.08.03.12l-.03-.2c.01.1.01.2,0,.3l.03-.2c-.07.43-.26.82-.23,1.27.03.39.32.77.75.75.38-.02.78-.33.75-.75,0-.09,0-.17,0-.26l-.03.2c.06-.38.21-.73.23-1.12.03-.49-.2-.92-.5-1.28-.23-.28-.51-.56-.81-.75-.42-.26-.95-.32-1.42-.19-.38.1-.65.54-.52.92s.52.63.92.52h0Z"/>
      <path class="cls-1" d="M20.52,5.27c.19.28.36.57.5.88.04.08.09.21.12.36-.02-.1,0,.08,0,.11.02-.13-.04.08-.04.1.04-.11-.05.1-.06.11-.04.07-.08.14-.11.21-.08.15-.15.3-.22.46-.15.37-.24.74-.28,1.14-.04.35,0,.72.21,1.01.24.35.61.48,1,.58.68.17,1.43.3,2.09.03.36-.15.66-.51.52-.92-.11-.35-.53-.68-.92-.52-.07.03-.14.06-.22.08-.02,0-.2.04-.13.03s-.11,0-.13,0c-.08,0-.16,0-.23-.01h-.08c.06,0,.06,0,0,0-.07-.01-.13-.02-.2-.04-.13-.03-.26-.06-.39-.09-.07-.02-.13-.04-.2-.06l.06.03c-.08-.05-.08-.04.01.04.05.03.08.07.09.13l-.02-.07c.01.08.02.09.01.03,0-.03,0-.07,0-.1,0-.18.08-.48.16-.68.07-.19.26-.47.36-.7.16-.36.23-.7.18-1.08-.08-.63-.45-1.26-.8-1.77-.22-.32-.67-.5-1.03-.27-.32.21-.51.68-.27,1.03h0Z"/>
    </g>
  </g>
</svg>