<?xml version="1.0" encoding="UTF-8"?>
<svg id="Layer_2" data-name="Layer 2" xmlns="http://www.w3.org/2000/svg" viewBox="0 0 34.83 25.25">
  <defs>
    <style>
      .cls-1 {
        fill: #1a1a1a;
      }
    </style>
  </defs>
  <g id="Layer_1-2" data-name="Layer 1">
    <g>
      <path class="cls-1" d="M13.53.16c-1.73-.44-3.04.07-4.5.96-1.62.99-3.5.48-5.22,1.24-1.46.65-2.29,1.71-2.69,3.23-.27,1.01-.51,2.04-.76,3.06-.17.7-.53,1.58-.25,2.3.19.5.58.78,1.05.99s.87.33,1.17.73c.24.32.31.77.49,1.13.7,1.33,2.07,1.6,3.08,2.57.61.59.59,1.43.78,2.21.17.68.49,1.31.94,1.85.94,1.12,2.15,1.45,3.53,1.64.72.1,1.16.23,1.54.85.17.28.29.56.49.82.41.54.97.93,1.61,1.16,1.47.54,3.11.33,4.64.25,2.67-.15,7.01-.18,6.68-3.99-.07-.78-.46-1.72-.26-2.48s.93-1.19,1.49-1.69c.45-.4.85-.83,1.08-1.39.36-.89.09-2.08.78-2.82,1.13-1.2,3.27-.78,4.59-1.76,1.14-.85,1.35-2.14.59-3.32-1.98-3.06-5.89-4.14-9.27-4.63-1.15-.16-2.15-.4-3.17-.97-.74-.41-1.47-.85-2.29-1.07-1.98-.54-4.17-.08-6.1-.85-.9-.36-1.28,1.09-.4,1.45,1.15.46,2.56.51,3.79.6.85.06,1.72.04,2.54.31s1.48.77,2.22,1.14c1.35.67,2.75.77,4.21,1.03s2.87.64,4.18,1.29c1.04.52,2.71,1.48,3.13,2.64.67,1.81-3.05,1.89-4.06,2.39s-1.6,1.25-1.82,2.3c-.14.65-.06,1.38-.43,1.96s-1.08.96-1.57,1.46c-.78.79-1.08,1.69-.97,2.78.15,1.61.71,3.23-1.34,3.8-1.53.42-3.37.32-4.95.4-1.42.07-3.08.15-3.89-1.22-.65-1.09-1.17-1.67-2.48-1.87-1.58-.24-2.97-.54-3.52-2.27-.33-1.05-.28-2.09-1.1-2.95-.88-.91-2.34-1.21-2.95-2.37-.3-.57-.43-1.21-.89-1.69-.36-.38-1.38-.5-1.6-.83-.35-.53.4-2.36.54-2.9.21-.86.34-1.99.82-2.76,1.09-1.73,3.16-1.34,4.85-1.62,1.97-.33,3.15-2.17,5.31-1.63.94.24,1.34-1.21.4-1.45h0Z"/>
      <path class="cls-1" d="M23.18,7.98c1.17.08,2.31.29,3.43.63.13.04.69.3.75.25.17-.35.17-.46,0-.31-.08.06-.17.11-.27.15-.38.18-.8.28-1.18.45-.82.38-1.56,1.04-1.76,1.96s.62,1.91.12,2.79c-.4.7-1.25,1.07-1.82,1.6-.64.59-1.02,1.34-1.13,2.2-.22,1.85.93,3.44,2.47,4.33.84.48,1.59-.81.76-1.3-1.7-.98-2.47-3.07-.74-4.43.66-.52,1.39-.97,1.8-1.73.49-.91.28-1.73.06-2.67-.49-2.03,3.75-1.36,3.17-3.51-.25-.94-1.57-1.18-2.36-1.39-1.09-.29-2.2-.46-3.32-.54-.96-.07-.96,1.43,0,1.5h0Z"/>
      <path class="cls-1" d="M1.44,11.13c.76-.47,1.56-.85,2.41-1.11.23-.07.79-.31,1.03-.19s.45.78.57.99c.4.77.74,1.52,1.63,1.78.77.22,1.54.25,2.26.65.66.36,1.24.95,1.39,1.71.18.9-.19,1.83-.29,2.72-.08.71-.04,1.45.25,2.11.16.35.38.66.67.91.11.09.98.59.96.72-.14.94,1.31,1.35,1.45.4.08-.52,0-.96-.33-1.38-.3-.38-.75-.54-1.1-.86-.63-.57-.46-1.57-.32-2.32.2-1.08.42-2.16-.01-3.22-.34-.83-.97-1.5-1.73-1.97-.82-.5-1.71-.65-2.63-.86-.52-.12-.67-.7-.9-1.14s-.41-.91-.74-1.26c-.66-.69-1.63-.52-2.45-.27-1.01.3-1.98.74-2.87,1.29-.82.5-.07,1.8.76,1.3h0Z"/>
      <path class="cls-1" d="M10.77.86c-1.12.3-2.15.92-2.88,1.84s-.96,2.16.04,2.96c1.75,1.41,4.43.4,5.64-1.21l-1.18.15c.34.42.71,1.08,1.34,1.07.57-.01.91-.58,1.24-.96l-1.25-.33c.25.92.75,1.99,1.7,2.36s1.79-.12,2.33-.86c.28-.38.44-.81.65-1.23.04-.07.43-.63.43-.64,0-.02-.88-.2-.18.17.41.21.89.2,1.32.09.5-.14,1.1-.69,1.62-.52.92.3,1.31-1.14.4-1.45-.41-.14-.83-.13-1.24,0-.39.12-.77.46-1.18.52-.33.05-.51-.23-.85-.26-.39-.05-.76.2-1.02.47-.55.56-.68,1.33-1.13,1.95-.7.98-1.23-.32-1.41-.97-.14-.51-.88-.77-1.25-.33-.14.17-.35.54-.55.63l.58-.08c.26.08-.02-.1-.11-.21-.12-.15-.24-.3-.37-.44-.34-.41-.92-.2-1.18.15-.67.89-1.99,1.36-3.06.98-.82-.29-.28-.95.16-1.37.51-.49,1.12-.8,1.79-.98.93-.25.54-1.7-.4-1.45h0Z"/>
      <path class="cls-1" d="M19.44,9.83c-.69.28-1.31.68-1.78,1.26s-.92,1.48-.27,2.12c.15.15.34.24.53.3.05.02.12.05.16.05l-.3-.29c-.01-.08-.01-.07,0,.02.03.45.25.83.6,1.11.61.48,1.38.64,2.13.48.7-.14,1.3-.63,1.66-1.24.17-.29.29-.61.34-.94.03-.17.04-.33.05-.5,0-.08,0-.16,0-.24,0-.09,0-.11,0-.03.02-.09.03-.1,0-.03-.06.11.06-.06.07-.08.05-.06.11-.11.16-.17.13-.14.25-.3.35-.46.19-.29.33-.63.42-.96s.13-.7.11-1.05c-.02-.27-.04-.56-.25-.76-.16-.16-.4-.24-.62-.29-.87-.19-1.73.18-2.37.77-.31.29-.57.65-.81,1-.05.07-.1.14-.14.21-.03.04-.06.09-.09.13.04-.05.02-.04-.03.03,0,0-.19.16-.09.09-.08.05-.09.05-.02,0,.22.02.26,0,.13-.03-.38-.15-.82.16-.92.52-.12.42.15.77.52.92.52.2,1.08-.07,1.44-.45.15-.17.28-.35.41-.54.08-.12.24-.34.28-.4.24-.31.46-.52.77-.7.08-.04.09-.05.03-.02.05-.02.1-.04.15-.05.07-.02.15-.04.23-.05-.13.02.15,0,.18,0-.18-.02.2.07.06.01l-.34-.45c-.02-.12,0,.12,0,.15,0,.09,0,.18,0,.27,0,.02-.02.15,0,.03,0,.04-.01.08-.02.12-.02.1-.05.2-.08.3,0,.01-.06.16-.03.09.03-.06-.03.06-.03.05-.04.08-.08.16-.13.24-.1.16-.14.19-.3.36-.37.38-.52.8-.52,1.33,0,.09,0,.18,0,.27,0,.03-.02.14,0,.02,0,.04-.01.07-.02.11-.02.08-.04.17-.07.25.04-.11-.06.12-.08.15-.02.04-.05.08-.08.12,0-.01.06-.07,0,0s-.12.12-.18.19c-.01.01-.11.09-.02.02-.03.02-.06.04-.09.06s-.06.04-.1.06c-.18.11.05,0-.06.03-.08.03-.16.05-.25.07-.03,0-.14.01-.02,0-.04,0-.07,0-.11,0s-.27-.01-.13,0c-.1-.01-.19-.04-.29-.07-.02,0-.13-.06-.02,0-.03-.02-.07-.03-.1-.05s-.06-.04-.09-.06c.09.06,0,0-.02-.02-.01-.01-.1-.1-.1-.1,0,0,.04.05.04.06,0,.07,0-.04,0-.04.01.07.01.07,0,.02,0-.05,0-.09-.02-.14-.04-.29-.16-.55-.4-.73-.11-.09-.23-.15-.37-.19-.04-.01-.09-.03-.13-.04-.16-.03.06.04.1.08.07.08.1.17.12.27-.02-.08.02-.05,0,.01,0-.03.04-.14,0,0,.02-.04.04-.08.06-.12.11-.18.15-.23.32-.39.08-.09.17-.16.26-.24.06-.05.02-.02,0,0,.05-.04.11-.08.16-.11.09-.06.18-.11.27-.16.03-.02.07-.04.11-.06,0,0,.21-.1.11-.05.37-.15.64-.5.52-.92-.1-.35-.55-.68-.92-.52h0Z"/>
      <path class="cls-1" d="M20.35,20.53l-1.55-2.23c-.05-.07-.13-.25-.2-.29l-.05-.07v.35c.05.03.27-.54.27-.56.12-.43.04-.89-.15-1.29-.35-.73-1.14-1.11-1.87-1.35-.87-.28-1.77-.21-2.45.44-.53.51-1.04,1.22-1.25,1.93-.26.88.11,1.75.47,2.55.32.72.81,1.33,1.56,1.62.36.14.76.18,1.14.1.2-.04.39-.13.57-.23.02-.01.14-.08.15-.1-.07.01-.15.01-.22,0-.09-.05-.1-.05-.03,0-.12-.03-.04-.03.02.04.04.05.08.1.12.15.09.12.19.23.3.33.16.14.34.24.55.29.19.05.43,0,.59.02-.05,0,.4.16.26.11.13.04.28.07.42.07.29,0,.57-.12.78-.31.41-.36.51-.88.54-1.4.02-.4-.36-.75-.75-.75-.42,0-.73.34-.75.75,0,.02-.05.31-.05.32-.04-.1.3-.08.3-.09.01-.03-.49-.18-.54-.18-.08-.01-.48-.03-.48,0,0-.04.24.18.06-.02-.06-.06-.11-.13-.17-.2-.15-.19-.32-.36-.55-.48-.32-.16-.68-.16-1-.01-.14.06-.26.15-.39.22.07-.03-.04.02-.05.02-.1.03-.03.03-.13,0,.09.02-.04,0-.05,0,.02,0-.21-.07-.15-.05-.01,0-.21-.13-.2-.12-.21-.17-.33-.4-.46-.64-.21-.42-.53-1.06-.44-1.52s.5-.95.83-1.29.79-.22,1.25-.05c.16.06.42.18.55.29.17.14.24.29.24.42,0,.09,0,.01.01-.01-.03.08-.1.15-.15.22-.12.19-.17.4-.16.63.02.42.33.76.56,1.09l1.42,2.03c.23.33.66.49,1.03.27.33-.19.5-.69.27-1.03h0Z"/>
      <path class="cls-1" d="M19.72,5.87c-.89.45-1.8.94-2.52,1.65-.33.33-.61.71-.83,1.13-.18.34-.34.81-.66,1.03-.25.17-.74.18-1.06.23-.48.07-.95.23-1.31.56-.93.86-.66,2.22-.06,3.17.52.81,1.81.06,1.3-.76-.19-.3-.4-.66-.35-1.02.05-.33.26-.4.54-.46.39-.08.78-.08,1.18-.21.42-.14.8-.37,1.08-.72.51-.62.72-1.4,1.31-1.96s1.4-.97,2.14-1.34c.86-.44.1-1.73-.76-1.3h0Z"/>
      <path class="cls-1" d="M12.46,9.98c.06-.95-.58-1.83-1.46-2.15-.46-.17-.94-.13-1.4,0s-.8.25-1.26.1c-.9-.3-1.37-1.18-2-1.81-.7-.7-1.88-1.01-2.65-.21-.66.7.4,1.76,1.06,1.06.12-.12-.05-.04.04-.04.04,0,.05-.01.05-.01.12.04.21.05.32.14.27.21.47.52.69.78.55.64,1.18,1.2,1.98,1.5.36.13.77.2,1.15.17.42-.04.8-.21,1.21-.27.46-.07.8.31.77.76-.06.96,1.44.96,1.5,0h0Z"/>
    </g>
  </g>
</svg>