<?xml version="1.0" encoding="UTF-8"?>
<svg id="Layer_2" data-name="Layer 2" xmlns="http://www.w3.org/2000/svg" viewBox="0 0 17.36 17.67">
  <defs>
    <style>
      .cls-1 {
        fill: #1a1a1a;
      }
    </style>
  </defs>
  <g id="Layer_1-2" data-name="Layer 1">
    <g>
      <path class="cls-1" d="M5.44.26c-.75-.08-1.27.38-1.82.82-.65.51-1.34.98-1.94,1.54-.47.44-.85.98-.92,1.64-.03.28-.02.57.07.85.11.35.39.54.53.86l-.08-.58c-.07.29-.38.66-.51.93s-.25.58-.36.88C.14,7.97.01,8.8,0,9.61c-.02,1.38.3,3.28,1.37,4.26.51.47,1.21.59,1.84.83.83.32,1.57.83,2.36,1.22.65.32,1.33.59,2.05.69.79.11,1.83-.15,2.55.26.65.36.92.88,1.75.8.68-.06,1.25-.5,1.6-1.07.42-.66.45-1.58.96-2.18s1.32-.86,1.84-1.47c2.24-2.63.53-6.14-2.21-7.54-.88-.45-1.95-.61-2.73-1.24-.68-.55-1.1-1.36-1.61-2.06C8.69.61,7.39-.26,5.49.07c-.95.16-.55,1.61.4,1.45,1.68-.29,2.48,1.24,3.32,2.42.4.56.83,1.1,1.38,1.52.63.47,1.38.69,2.1.97,1.42.55,2.81,1.59,3.12,3.17.15.75-.01,1.53-.45,2.16s-1.2.91-1.77,1.44c-.47.44-.72.99-.93,1.59-.11.32-.19.68-.37.97-.06.1-.21.34-.35.38-.33.11-.42-.11-.66-.3-1.19-.93-2.6-.43-3.95-.8s-2.58-1.38-3.97-1.85c-.78-.27-1.18-.49-1.48-1.3-.27-.72-.4-1.49-.39-2.26.01-.87.2-1.74.56-2.53.24-.53.8-1.07.66-1.69-.08-.36-.48-.56-.5-.91-.02-.43.5-.8.8-1.05.36-.29.73-.57,1.09-.86.33-.26.87-.86,1.32-.81.96.1.95-1.4,0-1.5h0Z"/>
      <path class="cls-1" d="M6.52,8.42c-.01.07-.03.14-.05.21,0,.02-.05.14,0,.02-.06.15-.13.29-.19.44-.12.31-.13.63-.08.96.1.61.53,1.09,1.01,1.45.23.18.47.33.75.44.33.12.66.11.99.03.29-.06.61-.17.83-.38.1-.09.19-.2.25-.32.03-.05.04-.09.07-.14.01-.02.11-.18.02-.06.2-.25.41-.44.52-.74s.12-.62.07-.94c-.05-.29-.16-.55-.28-.82-.03-.06-.06-.13-.08-.19.04.09-.01-.03-.01-.04-.05-.14-.11-.29-.17-.43-.21-.52-.45-1.02-.9-1.38-.48-.38-1.11-.58-1.71-.37-.71.25-1.34,1.03-.91,1.79.07.12.17.24.27.34.02.02.05.05.07.07.08.07.07.09.01,0,.08.12-.13-.22-.03-.24-.02,0-.07.21-.08.22-.05.15-.11.29-.16.43-.14.37.16.84.52.92.43.1.77-.13.92-.52.17-.45.4-.92.2-1.4-.08-.18-.19-.33-.33-.47-.04-.04-.08-.09-.13-.12-.06-.04.04.05.04.06-.04-.08-.04-.05,0,.08.04.07.04.15,0,.22-.01.04-.1.16-.05.11.02-.02.12-.1.05-.05-.07.05.03,0,.03-.01-.15.11,0-.04,0,0,0-.02.18-.02,0,0,.03,0,.07,0,.1,0,.1-.01-.1-.04,0,0,.06.03.13.04.03,0,.04.02.08.04.11.06,0,0,.1.06.03.02-.07-.05.03.03.05.05.02.02.05.05.07.07.03.03.06.07.09.1-.09-.11-.01-.02,0,0,.05.09.1.17.15.27.02.05.04.09.07.14-.01-.03-.04-.11.01.03.03.08.07.17.1.25.09.23.19.46.28.69.05.12-.03-.08.02.05.02.04.03.08.04.12.03.1.07.2.08.3-.03-.17,0,.15,0,.05,0-.08,0,.02,0,.04-.02.07-.03.09,0,.04.02-.05.01-.04-.03.03,0,0,.09-.09.01-.03-.03.03-.06.06-.09.09-.08.09-.16.18-.23.27-.05.07-.09.14-.12.22-.01.02-.04.06-.04.08-.02.07.05-.04.08-.06.01-.01.15-.05,0,0-.03,0-.06.02-.09.03-.05.01-.09.03-.14.04-.02,0-.17.03-.09.02.08,0-.05,0-.05,0,.13.03-.01,0-.02-.02.02.02.11.06-.03-.02-.04-.03-.09-.05-.13-.08-.04-.03-.08-.05-.12-.08,0,0-.15-.11-.1-.07.06.05-.05-.05-.06-.06-.05-.04-.09-.08-.13-.13-.02-.03-.05-.05-.07-.08-.03-.04-.03-.04,0,0l-.04-.06s-.05-.08-.07-.13c.04.1,0-.02,0-.06-.03-.07,0,0,0,.02,0,0,.01-.19,0-.12-.02.09.1-.28.04-.13.1-.24.22-.46.26-.72.07-.39-.1-.83-.52-.92-.36-.08-.85.11-.92.52h0Z"/>
      <path class="cls-1" d="M2.74,9.29c-.16.58-.17,1.2-.01,1.79.08.31.22.61.45.84.21.22.5.33.78.43.04.01.08.03.12.04.18.07-.11-.07.06.03.04.02.08.05.12.07.17.1-.08-.09.07.05.09.08.17.16.24.24.03.03.06.07.09.1.14.16-.04-.06.03.04.3.46.6.94.96,1.36.26.3.8.28,1.06,0,.29-.32.27-.74,0-1.06-.01-.01-.13-.15-.09-.1.03.04-.05-.07-.05-.08-.07-.09-.13-.19-.19-.28-.12-.19-.24-.38-.38-.57-.29-.4-.62-.78-1.05-1.03-.2-.12-.42-.19-.64-.27-.07-.02-.12-.06-.03,0,0,0-.11-.06-.11-.06.03-.04.11.15.06.05,0-.01-.06-.14-.04-.07.03.08-.03-.1-.03-.12-.01-.05-.02-.1-.04-.15v-.08c0,.06,0,.06-.01,0,0-.05,0-.1-.01-.16,0-.12,0-.23.01-.35,0,.08,0,0,0-.03.02-.08.03-.15.06-.23.1-.38-.13-.83-.52-.92s-.81.12-.92.52h0Z"/>
      <path class="cls-1" d="M14.06,12.7c-.71-.27-1.46-.42-2.21-.46-.37-.02-.78-.04-1.14.1-.21.08-.39.21-.51.4-.07.11-.1.25-.17.37-.17.29-.43.56-.64.83-.17.22-.34.49-.61.6s-.61.06-.91.14-.69-.03-1.02-.01c-.4.02-.75.33-.75.75,0,.39.34.78.75.75.34-.02.68.06,1.02.04.19-.01.35-.1.53-.13.15-.02.31,0,.46-.03.77-.12,1.25-.61,1.7-1.2.23-.3.48-.6.7-.91.03-.05.25-.45.22-.46,0,0-.21.26-.21.26,0,0,.28,0,.31,0,.71,0,1.4.16,2.06.41.38.14.82-.16.92-.52.12-.42-.14-.78-.52-.92h0Z"/>
      <path class="cls-1" d="M13.05,8.7c.08.07.16.16.23.24l-.12-.15c.13.16.25.34.34.52l-.08-.18c.03.06.05.13.06.2l-.03-.2c0,.06,0,.11,0,.17l.03-.2c-.02.14-.08.28-.13.41-.08.19-.12.39-.13.59-.03.43.21.9.6,1.1.35.18.83.1,1.03-.27.18-.34.1-.84-.27-1.03-.02,0-.04-.02-.06-.03l.15.12s-.05-.04-.07-.06l.12.15s-.05-.07-.07-.11l.08.18s-.03-.08-.03-.13l.03.2c0-.06,0-.12,0-.18l-.03.2c.03-.2.13-.38.19-.58.08-.27.1-.59.02-.86-.07-.23-.19-.42-.32-.61s-.28-.4-.47-.56c-.29-.26-.78-.31-1.06,0-.26.29-.31.78,0,1.06h0Z"/>
      <path class="cls-1" d="M6.46,3.59s-.09,0-.13,0l.2.03c-.08-.01-.16-.03-.24-.07l.18.08c-.26-.11-.48-.31-.73-.43-.09-.05-.18-.08-.28-.09-.1-.02-.2-.02-.3.01-.17.05-.36.18-.45.34-.09.17-.14.38-.08.58.06.18.17.37.34.45.2.09.37.23.55.33.14.08.29.15.44.2.05.02.1.03.15.03.11.02.23.04.34.03.2-.01.39-.08.53-.22.13-.13.23-.34.22-.53s-.07-.4-.22-.53-.33-.23-.53-.22h0Z"/>
    </g>
  </g>
</svg>