<?xml version="1.0" encoding="UTF-8"?>
<svg id="Layer_2" data-name="Layer 2" xmlns="http://www.w3.org/2000/svg" viewBox="0 0 15.91 14.77">
  <defs>
    <style>
      .cls-1 {
        fill: #1a1a1a;
      }
    </style>
  </defs>
  <g id="Layer_1-2" data-name="Layer 1">
    <g>
      <path class="cls-1" d="M6.8.02c-1.56.36-3.26.89-4.55,1.88-.54.42-1.01.94-1.25,1.58-.18.48-.37,1.65.18,2.01l.06.08c.03-.29-.02-.31-.16-.07-.12.09-.22.29-.29.42-.18.3-.31.62-.42.95C.13,7.58.05,8.36,0,9.1c-.04.7.13,1.3.72,1.72.72.5,1.59.9,2.38,1.28.32.15.63.28.99.31.41.04.82-.06,1.2.14.66.35.84,1.25,1.46,1.68,1.21.85,3.12.56,4.37-.05.63-.3,1.24-.73,1.49-1.41.12-.32.1-.69.24-1,.18-.41.58-.66.96-.88,1.11-.63,2.7-1.34,1.87-2.93-.43-.82-1.3-1.46-1.91-2.15s-1.22-1.44-1.77-2.21-1.05-1.62-1.82-2.22c-.73-.56-1.58-.89-2.43-1.21-.9-.34-1.29,1.11-.4,1.45.58.22,1.17.45,1.7.79.63.41,1.01,1.03,1.43,1.64.76,1.08,1.59,2.12,2.48,3.1.39.43,1.11.92,1.34,1.45.14.31,0,.31-.31.49s-.64.33-.95.5c-.48.27-.94.61-1.27,1.06-.36.49-.33,1-.55,1.52-.42,1.01-2.64,1.34-3.51.87-.46-.25-.64-.88-.99-1.26-.41-.45-.98-.75-1.58-.84-.31-.05-.63,0-.93-.04s-.6-.24-.89-.39-.55-.29-.82-.44c-.24-.13-.85-.31-1-.56-.18-.31.08-1.29.15-1.63.13-.64.35-1.11.74-1.63s.42-.94.11-1.48c-.34-.61,0-1.12.49-1.56,1.11-.98,2.79-1.43,4.2-1.75.94-.22.54-1.66-.4-1.45h0Z"/>
      <path class="cls-1" d="M6.76,3.93c-.65.2-1.32.47-1.67,1.09s-.23,1.42.19,2c.1.14.23.27.33.41-.08-.11,0,.02,0,.02-.04,0-.01-.21-.02,0-.01.32-.03.62.03.94.11.6.49,1.2,1.04,1.5s1.32.36,1.95.26c.37-.06.65-.3.85-.61.05-.08.11-.17.15-.26.07-.16-.07.05,0-.02.04-.04.03-.03-.04.02-.09.03-.09.03,0,0,.21-.05.42-.06.62-.13.41-.14.7-.44.84-.85.18-.54.1-1.18-.11-1.69-.25-.62-.68-1.17-1.28-1.5-.32-.17-.67-.27-1.01-.4-.29-.11-.62-.29-.92-.47-.33-.21-.84-.08-1.03.27s-.09.81.27,1.03c.48.3.99.52,1.52.71.22.08.3.09.47.2.03.02.23.17.12.08.09.08.17.15.24.24.1.11.03.03,0,0,.03.05.06.09.09.14.02.04.05.08.07.12,0,.02.07.15.03.07-.04-.1.04.11.03.1.01.04.03.09.04.13s.02.09.03.13c.03.16.01-.1,0,.07,0,.09,0,.18,0,.27,0-.03.02-.15,0,0s-.02.03,0,0c.03-.03.07-.06.1-.09-.09.08-.03,0,.01,0-.1.02-.21.04-.31.06-.54.09-.9.37-1.17.84-.02.03-.04.07-.06.11-.02.05-.08.08.01,0-.13.11.1-.09.13-.04-.02-.04-.62,0-.7-.02.13.02-.22-.06-.17-.04.03,0-.23-.16-.13-.06-.04-.04-.17-.21-.1-.1-.02-.04-.05-.08-.07-.12-.1-.16.02.11-.03-.07-.03-.09-.05-.18-.07-.27.02.14,0-.09,0-.15,0-.28.05-.55-.03-.83-.09-.33-.31-.55-.51-.81.06.07-.02-.03-.02-.04-.04-.07-.09-.13-.12-.21.04.09,0-.03,0-.04-.04-.17-.03.07-.01-.1,0,.03-.03.13,0-.03-.03.12.02-.03.04-.07-.02.03-.08.08.02,0,.02-.02.18-.13.07-.06.21-.13.38-.18.66-.27.38-.11.65-.53.52-.92s-.52-.65-.92-.52h0Z"/>
      <path class="cls-1" d="M9.08,12.59s.02,0,.03,0l-.18-.08s.04.02.05.03c.04.03.09.04.13.06.04.02.07.04.12.04l.2.03s.01,0,.02,0l.2-.03s.01,0,.02,0c.07-.02.14-.05.2-.08.09-.05.17-.13.25-.19.04-.03.07-.06.11-.1.04-.04.07-.08.1-.12s.07-.09.1-.13c.05-.09.1-.2.12-.3.04-.16.05-.33.06-.49,0-.1-.02-.2-.06-.29-.03-.09-.08-.17-.16-.24-.07-.07-.15-.12-.24-.16-.09-.05-.19-.07-.29-.06l-.2.03c-.13.04-.24.1-.33.19l-.12.15c-.07.12-.1.24-.1.38,0,.06,0,.12-.01.18l.03-.2c0,.06-.02.12-.04.18l.08-.18s-.04.08-.06.11l.12-.15c-.06.08-.14.14-.22.21l.15-.12s-.02.02-.04.02l.18-.08s-.02,0-.03,0l.2-.03s-.01,0-.02,0l.2.03s-.02,0-.03,0l.18.08s-.04-.02-.06-.04c-.07-.04-.15-.09-.24-.1-.1-.03-.2-.04-.3-.01-.1,0-.19.03-.28.09-.09.05-.16.11-.21.19-.07.07-.11.16-.13.26l-.03.2c0,.14.03.26.1.38l.12.15c.09.09.2.16.33.19h0Z"/>
      <path class="cls-1" d="M2.69,7.4c-.03.35-.13.75-.01,1.1.08.22.2.42.37.58.14.14.31.24.47.36l-.15-.12c.07.06.14.12.2.19l-.12-.15c.09.12.14.25.2.38.08.19.19.34.32.49.12.14.36.22.53.22.18,0,.4-.08.53-.22s.23-.33.22-.53-.09-.37-.22-.53l-.02-.03.12.15c-.14-.19-.2-.41-.32-.61-.19-.31-.46-.5-.75-.71l.15.12c-.06-.05-.12-.1-.17-.17l.12.15s-.06-.09-.09-.14l.08.18s-.02-.06-.03-.1l.03.2c-.02-.13,0-.26.02-.39l.04-.43c.02-.18-.1-.41-.22-.53-.13-.13-.34-.23-.53-.22s-.4.07-.53.22c-.14.15-.2.32-.22.53h0Z"/>
      <path class="cls-1" d="M12.45,7.68s.02.05.04.08l-.08-.18c.06.15.1.29.12.45l-.03-.2c.02.14.02.28,0,.42l.03-.2c-.02.13-.05.25-.09.37-.05.13-.11.26-.14.4-.07.33-.02.65-.05.99-.02.18.09.41.22.53s.34.23.53.22c.43-.02.71-.33.75-.75.02-.24-.02-.48,0-.72l-.03.2c.03-.17.1-.32.16-.48.07-.2.1-.42.12-.63.03-.43-.08-.86-.27-1.24-.08-.16-.28-.3-.45-.34-.18-.05-.42-.03-.58.08-.37.24-.45.65-.27,1.03h0Z"/>
      <path class="cls-1" d="M8.49,1.59c-.16.11-.32.21-.49.31-.04.02-.09.05-.13.07-.07.03-.09.04-.04.02.05-.02.03-.01-.04.01-.04.02-.09.03-.14.04-.05.01-.09.02-.14.03.08-.01.08-.01-.02,0-.11,0-.21,0-.32-.02-.18-.02-.37-.03-.55-.02-.88.04-1.67.4-2.46.78-.36.17-.48.71-.27,1.03.24.36.65.45,1.03.27s.59-.29.98-.42c.2-.06.4-.12.61-.15-.13.02.09,0,.11,0,.1,0,.21,0,.31,0,.43.03.83.06,1.25-.08.38-.13.73-.34,1.07-.56s.5-.67.27-1.03c-.21-.33-.68-.5-1.03-.27h0Z"/>
    </g>
  </g>
</svg>