<?xml version="1.0" encoding="UTF-8"?>
<svg id="Layer_2" data-name="Layer 2" xmlns="http://www.w3.org/2000/svg" viewBox="0 0 9.79 7.94">
  <defs>
    <style>
      .cls-1 {
        fill: #1a1a1a;
      }
    </style>
  </defs>
  <g id="Layer_1-2" data-name="Layer 1">
    <g>
      <path class="cls-1" d="M4.08.18C3.05-.49,2.04.84,1.41,1.48.72,2.16.11,2.94.01,3.94c-.04.43.04.87.22,1.26.09.2.22.38.37.54s.41.25.53.42c-.05-.07.04.2.04.24.03.15.05.3.09.45.14.48.45.89.94,1.04.44.13.9,0,1.32-.15.51-.19,1.01-.43,1.46-.74.38-.26.73-.55,1.07-.86.13-.12.22-.23.4-.24s.37.09.53.13c.41.11.83.19,1.25.06.51-.16.84-.57,1.04-1.05.38-.86.65-1.86.41-2.8-.28-1.07-1.22-1.68-2.24-1.91-1.09-.24-2.33-.41-3.41-.1-.93.26-.53,1.71.4,1.45.7-.2,1.46-.09,2.17.02.5.08,1.16.17,1.49.6.35.47.18,1.15.02,1.65-.04.13-.16.63-.31.7-.11.06-.43-.09-.56-.12-.76-.22-1.42-.17-2.04.36-.57.48-1.07.93-1.75,1.25-.26.12-.56.16-.81.28,0,0,.13.06.11.09.02-.02-.09-.39-.1-.44-.05-.27-.13-.54-.28-.77-.19-.3-.53-.41-.74-.68-.34-.44-.02-1.09.26-1.47.23-.32.53-.59.81-.87.18-.17.35-.35.53-.52.07-.07.14-.15.21-.21.23-.19.08.04-.13-.1.81.53,1.56-.77.76-1.3h0Z"/>
      <path class="cls-1" d="M2.8,3.99c.22.19.48.32.78.29s.56-.13.77-.35c.13-.13.23-.29.31-.46.06-.13.11-.26.19-.37l-.12.15s.06-.07.1-.11l-.15.12c.14-.11.29-.17.42-.29.26-.25.36-.65.25-.99-.14-.44-.51-.78-.89-1.02-.33-.21-.84-.08-1.03.27-.2.37-.08.8.27,1.03.05.03.11.07.16.11l-.15-.12c.11.09.21.18.29.29l-.12-.15s.06.08.08.13l-.08-.18s.02.06.03.09l-.03-.2s0,.06,0,.09l.03-.2s0,.04-.02.06l.08-.18s-.01.03-.02.04l.12-.15s-.04.05-.07.07l.15-.12c-.07.05-.15.09-.22.14-.18.13-.32.27-.43.46-.11.18-.16.39-.28.55l.12-.15s-.06.07-.1.1l.15-.12s-.06.04-.09.05l.18-.08s-.06.02-.1.03l.2-.03s-.07,0-.1,0l.2.03s-.05,0-.07-.02l.18.08s-.04-.02-.06-.04l.15.12-.02-.02c-.15-.13-.32-.22-.53-.22-.18,0-.4.08-.53.22s-.23.33-.22.53c0,.19.07.4.22.53h0Z"/>
      <path class="cls-1" d="M7.29,4.46c-.01-.24,0-.48.03-.72l-.03.2s.01-.09.03-.13l-.08.18s.01-.02.02-.03l-.12.15s.02-.02.03-.02l-.15.12c.11-.08.24-.13.36-.2.22-.14.39-.3.54-.52.11-.15.12-.4.08-.58s-.18-.36-.34-.45c-.17-.09-.38-.14-.58-.08l-.18.08c-.11.07-.2.16-.27.27,0,.01-.02.02-.02.03l.12-.15c-.04.05-.09.1-.15.14l.15-.12c-.09.07-.19.12-.3.18-.05.03-.1.05-.15.08-.2.13-.34.3-.41.53-.04.11-.04.24-.06.36,0,.07-.02.15-.02.23,0,.15,0,.3,0,.45.01.2.08.39.22.53.13.13.34.23.53.22s.4-.07.53-.22.23-.33.22-.53h0Z"/>
      <path class="cls-1" d="M3.26,4.74l-.89.36c-.1.02-.18.07-.26.13-.08.05-.15.12-.19.21-.05.09-.08.18-.09.28-.02.1-.02.2.01.3.06.18.17.36.34.45l.18.08c.13.04.27.04.4,0l.89-.36c.1-.02.18-.07.26-.13.08-.05.15-.12.19-.21.05-.09.08-.18.09-.28.02-.1.02-.2-.01-.3-.06-.18-.17-.36-.34-.45l-.18-.08c-.13-.04-.27-.04-.4,0h0Z"/>
    </g>
  </g>
</svg>