<?xml version="1.0" encoding="UTF-8"?>
<svg id="Layer_2" data-name="Layer 2" xmlns="http://www.w3.org/2000/svg" viewBox="0 0 14.26 13.5">
  <defs>
    <style>
      .cls-1 {
        fill: #1a1a1a;
      }
    </style>
  </defs>
  <g id="Layer_1-2" data-name="Layer 1">
    <g>
      <path class="cls-1" d="M8.93,2C8.27.9,6.71-.37,5.33.1c-.33.11-.61.33-.87.55-.3.25-.5.61-.88.67-.71.11-1.34.29-1.89.77-.49.43-.77,1-1.01,1.6C.34,4.53.07,5.35.03,6.26c-.03.62-.11,1.45.27,1.98.2.29.49.28.72.48.26.22.37.61.63.85.23.22.51.39.8.53.24.12.6.19.8.37s.13.15.14.43c0,.13,0,.25.02.39.04.37.16.73.36,1.05.38.61,1.01,1.02,1.71,1.13.33.05.68.05,1.01-.04.38-.1.68-.34,1.09-.33.82.01,1.55.09,2.37-.05.76-.13,1.53-.4,2.19-.79.62-.36.88-.81,1.13-1.47.32-.83.79-1.6.94-2.49.27-1.67-.4-3.5-1.27-4.91-.39-.64-1.05-1.19-1.86-.98-.13.03-.34.23-.46.23-.07,0-.31-.12-.4-.15-.45-.18-.87-.42-1.27-.68-.81-.53-1.56.77-.76,1.3s2.05,1.31,3.06.92c-.17.07.25-.13.15-.16.11.03.18.2.24.28.16.24.28.52.4.77.29.6.54,1.24.66,1.89.25,1.32-.4,2.29-.84,3.48-.24.63-.66.82-1.28,1.05-.58.21-1.18.33-1.8.34s-1.18-.14-1.75-.02c-.52.1-.99.52-1.55.28-.59-.25-.57-.8-.6-1.33s-.26-1.02-.74-1.33c-.39-.25-.86-.36-1.24-.61-.44-.29-.57-.84-1.01-1.15-.1-.07-.2-.13-.32-.17-.36-.12-.02-.02-.02.04-.04-.29-.03-.6-.02-.89.01-.71.2-1.34.45-1.99.21-.54.41-1.12.93-1.43s1.14-.11,1.65-.42c.55-.34.87-1.24,1.62-1.06.62.15,1.14.65,1.46,1.19.5.83,1.79.07,1.3-.76h0Z"/>
      <path class="cls-1" d="M5.89,3.09c-.69.15-1.3.56-1.72,1.12-.25.34-.42.74-.3,1.17.05.19.19.4.33.53.07.06-.04-.18-.02,0,.01.08.03.18.05.26.35,1.5,1.98,2.39,3.44,1.9l-.92-.52c.21.55.45,1.09.73,1.6.15.28.33.53.63.68.28.14.61.17.92.16,1.18-.01,2.03-.81,2.09-2,.05-1.1-.72-2.01-1.38-2.81s-1.45-1.51-2.46-1.82c-.39-.12-.82.14-.92.52-.11.4.14.8.52.92.6.19,1.09.63,1.53,1.12s.98,1.06,1.17,1.7c.06.2.06.42,0,.6-.03.07-.04.11-.14.19.1-.08-.1.04-.04.02.03,0-.25.06-.16.05-.09.01-.19.01-.28,0-.05,0-.09,0-.14,0-.06,0-.06,0-.02,0,.04.02.07.05.1.08.03.02.01,0-.04-.08-.04-.09-.1-.19-.15-.28-.18-.34-.34-.7-.48-1.06s-.51-.66-.92-.52c-.37.12-.73.12-1.07-.09-.27-.16-.45-.44-.53-.77-.06-.24-.1-.47-.23-.68-.06-.07-.11-.14-.17-.22-.12-.16-.11-.06.02.29-.02,0,.13-.16.09-.11.25-.3.51-.44.89-.52.4-.09.63-.55.52-.92-.11-.41-.53-.61-.92-.52h0Z"/>
      <path class="cls-1" d="M11.64,9.76c-.45.1-1.01-.08-1.49-.12-.3-.02-.62,0-.91.08-.27.08-.5.24-.75.34-.49.18-1.05.07-1.56.13-.6.07-1.19.25-1.61.71-.66.71.4,1.77,1.06,1.06.14-.15.21-.18.4-.23s.36-.06.61-.06c.59-.01,1.18-.01,1.73-.25.21-.09.39-.23.61-.27.15-.03.38-.01.56,0,.6.07,1.15.19,1.75.06.4-.09.63-.55.52-.92-.11-.41-.53-.61-.92-.52h0Z"/>
      <path class="cls-1" d="M2.33,4.15c-.41.78-.67,1.75-.33,2.61.16.41.41.75.7,1.09.12.14.24.28.36.42.05.06.03.05,0,0,.02.03.05.06.07.1.02.03.06.17.04.07-.02-.07-.04-.13-.02-.21-.11.38.13.83.52.92s.81-.12.92-.52c.16-.56-.14-1-.47-1.41-.11-.14-.23-.27-.34-.4-.05-.06-.1-.13-.16-.19-.07-.08.06.1,0,0-.03-.04-.06-.08-.09-.12-.04-.07-.08-.14-.12-.21s-.01-.05,0,.01c-.01-.04-.03-.08-.04-.13-.01-.05-.02-.11-.04-.16-.03-.1,0,.11,0,0,0-.09,0-.17,0-.26,0-.04.03-.18,0-.03,0-.04.02-.09.02-.13.02-.09.04-.17.07-.26.01-.04.03-.09.04-.13,0-.02.07-.18.04-.1-.03.08.02-.05.03-.06.02-.05.05-.1.07-.15.18-.35.1-.83-.27-1.03-.34-.18-.83-.1-1.03.27h0Z"/>
    </g>
  </g>
</svg>