<?xml version="1.0" encoding="UTF-8"?>
<svg id="Layer_2" data-name="Layer 2" xmlns="http://www.w3.org/2000/svg" viewBox="0 0 15.09 12.9">
  <defs>
    <style>
      .cls-1 {
        fill: #1a1a1a;
      }
    </style>
  </defs>
  <g id="Layer_1-2" data-name="Layer 1">
    <g>
      <path class="cls-1" d="M6.74.51c-1.33-1.17-2.97-.06-4.18.75S-.31,3.13.08,4.83c.16.68.62,1.22.48,1.95C.38,7.71-.03,8.49,0,9.47c.05,1.56.8,2.93,2.42,3.24.76.15,1.5.06,2.25-.05.95-.14,1.81-.19,2.76-.04,1.51.24,3.04.55,4.48-.15.59-.29,1.1-.75,1.4-1.34.38-.75.4-1.58.84-2.31.37-.61.76-1.19.89-1.9.13-.78-.03-1.61-.44-2.28-.47-.76-1.22-1.16-1.99-1.56-.87-.46-1.71-.98-2.49-1.59-.68-.53-1.32-1.16-2.18-1.37-.78-.2-1.65,0-2.19.61-.64.72.42,1.79,1.06,1.06.77-.87,2.18.72,2.79,1.17.52.38,1.06.74,1.62,1.06s1.14.54,1.63.9c1.1.82.74,1.96.13,2.95-.29.47-.54.94-.69,1.47-.15.57-.2,1.18-.69,1.57-.84.67-2.06.54-3.05.39-1.3-.21-2.48-.36-3.78-.16-1,.15-2.6.5-3.09-.7-.53-1.28.25-2.43.4-3.67.08-.65-.1-1.18-.35-1.77-.27-.65-.22-1.01.31-1.49s1.19-.9,1.81-1.29c.36-.22,1.39-1.03,1.83-.64.72.64,1.79-.42,1.06-1.06h0Z"/>
      <path class="cls-1" d="M6.77,3.48c-.74.24-1.44.59-2.06,1.06-.39.3-.5.78-.15,1.18.03.04.07.08.1.12l-.02-.02c.04.08.05.09.03.05-.04.02.15-.41,0-.16-.17.27-.27.53-.31.85-.05.48.08,1.01.34,1.42.31.48.76.82,1.3,1,.5.17.99.07,1.5.1-.08,0,.06,0,.06,0,.12.01.21.03.33.03.19,0,.34-.05.51-.14.13-.06.23-.16.35-.24-.02.02-.11.08.01,0l.06-.03c-.2.04-.23.06-.09.05.57.1,1.19-.17,1.44-.7.08-.17.11-.31.13-.49,0,.05.04-.27.02-.14-.02.11.04-.13.03-.12.07-.23.16-.43.2-.67.08-.6-.03-1.16-.41-1.63-.19-.24-.45-.4-.74-.5-.14-.05-.29-.08-.44-.09-.07,0-.45.01-.45.04,0-.08.46.19.26.01-.06-.05-.13-.09-.2-.13-.11-.07-.23-.13-.34-.19-.27-.13-.55-.24-.84-.33-.37-.12-.83.14-.92.52-.09.41.12.8.52.92.36.11.6.22.96.45.21.14.44.25.7.22.09,0,.18-.03.26-.04-.01,0-.13,0-.04,0,.11.01-.12-.04-.01,0,.01,0,.14.04.06.01-.08-.03.14.12.03.01.03.03.06.06.09.09-.02-.02-.07-.11,0,0,0,0,.05.1.02.04-.03-.07.02.07.02.09.02.08,0,0,0-.01,0,.06,0,.13,0,.19,0,.09,0,.01,0,0,0,.05-.02.1-.03.15-.02.09-.05.17-.08.26-.09.23-.12.43-.15.68.02-.14,0,0,0,.01.03-.03.03-.06.07-.09.02-.02.05-.03.08-.04.03-.02.12,0,.04-.01-.2-.04-.51-.01-.7.05-.11.04-.23.09-.32.15-.05.04-.11.08-.16.12-.16.12-.06.04-.03.02,0,0-.11.07-.11.07,0-.01.18-.04.18-.04-.02.02-.35-.04-.45-.05-.2,0-.41.02-.61.02-.04,0-.09,0-.13,0-.13.01.09.02-.03,0-.1-.02-.19-.04-.28-.08-.11-.04.08.05-.02-.01-.03-.02-.06-.03-.1-.05-.04-.02-.08-.05-.12-.08.01.01.07.06.01,0-.02-.02-.17-.18-.1-.09-.03-.04-.05-.08-.08-.12,0-.02-.09-.18-.06-.11.03.07-.01-.04-.01-.05-.02-.06-.03-.12-.04-.18-.02-.09,0,0,0,.02,0-.06,0-.12,0-.18,0-.1-.04.08,0-.01.02-.03.08-.15.01-.05.05-.08.1-.15.15-.23.34-.62.03-1.24-.4-1.71l-.15,1.18c.27-.21.56-.4.86-.56.34-.18.48-.24.84-.35s.65-.53.52-.92c-.12-.37-.52-.65-.92-.52h0Z"/>
      <path class="cls-1" d="M12.32,8.19c-.08.06-.17.12-.26.16-.05.03-.1.05-.15.08.07-.03.05-.02,0,0-.21.08-.42.14-.64.21-.43.13-.88.21-1.31.34-.29.09-.57.26-.71.54-.09.17-.12.33-.14.52,0,.07-.05.13,0,.02-.04.08-.01.03.02-.01,0,0-.1.15-.04.07s-.06.06-.06.06c-.07.07-.15.14-.23.2-.1.08.07-.05-.03.02-.05.04-.1.07-.15.11-.1.07-.2.14-.31.21-.32.22-.5.67-.27,1.03.21.32.68.51,1.03.27.39-.26.82-.53,1.12-.89.17-.21.32-.43.37-.7.02-.1.03-.19.04-.29s.02-.03,0,.02c-.07.18-.1.17-.21.26-.06.05.03,0,.07,0,.44-.1.87-.21,1.3-.35.45-.14.92-.29,1.31-.57.32-.23.5-.66.27-1.03-.2-.31-.69-.52-1.03-.27h0Z"/>
      <path class="cls-1" d="M5.21,11.67c.26-.48.25-1.04,0-1.52s-.76-.68-1.28-.8c-.22-.05-.45-.11-.66-.18-.05-.02-.1-.04-.15-.05-.05-.02-.03-.01.06.03-.02-.01-.05-.02-.07-.03-.02-.01-.18-.08-.08-.04.05.04.05.04,0,0-.02-.02-.04-.03-.06-.05-.18-.17-.36-.35-.59-.47s-.49-.21-.74-.28c-.38-.1-.83.13-.92.52s.12.81.52.92c.08.02.17.05.25.07.04.01.11.05.15.05-.07,0-.12-.06-.01,0,.01,0,.11.05.11.07,0-.03-.12-.1-.01,0,.07.06.13.13.2.2.35.32.77.48,1.22.6.18.05.37.09.55.13.04,0,.08.02.13.03.03,0,.12.05.15.04-.05,0-.12-.07-.03,0,.06.05-.13-.14-.04-.03.02.02.1.11.02.01s-.01,0,0,.02c.07.1-.03-.11-.02-.05,0,.03.02.07.03.1.01.06.01.05,0-.02,0-.07-.01-.08,0-.02,0,.03-.01.16,0,.02s0,0-.01.02c-.03.13.08-.16.01-.03-.19.34-.1.83.27,1.03s.83.1,1.03-.27h0Z"/>
      <path class="cls-1" d="M2.99,3.43c-.09.09-.18.18-.27.29-.11.14-.23.28-.32.44-.13.26-.19.53-.13.82.05.23.2.38.34.56l-.12-.15s.03.04.04.07l-.08-.18s.01.04.01.06l-.03-.2s0,.04,0,.06l.03-.2c-.01.08-.04.15-.07.23l.08-.18c-.07.16-.16.31-.25.46-.2.34-.09.84.27,1.03s.81.09,1.03-.27c.14-.24.28-.49.36-.76.07-.2.08-.43.01-.63s-.19-.34-.32-.5l.12.15s-.03-.04-.04-.07l.08.18s-.01-.04-.02-.06l.03.2s0-.06,0-.09l-.03.2s.02-.08.04-.12l-.08.18c.05-.1.11-.19.18-.28l-.12.15c.09-.12.19-.22.3-.33.29-.27.29-.79,0-1.06s-.76-.29-1.06,0h0Z"/>
    </g>
  </g>
</svg>