<?xml version="1.0" encoding="UTF-8"?>
<svg id="Layer_2" data-name="Layer 2" xmlns="http://www.w3.org/2000/svg" viewBox="0 0 13.09 14.42">
  <defs>
    <style>
      .cls-1 {
        fill: #1a1a1a;
      }
    </style>
  </defs>
  <g id="Layer_1-2" data-name="Layer 1">
    <g>
      <path class="cls-1" d="M8.21.9c-.8-1.04-2.16-1.16-3.26-.48-.57.36-1.04.88-1.46,1.4-.19.24-.37.49-.45.79-.11.41-.05.59-.42.84C1.6,4.15.4,4.75.07,6.05c-.36,1.42.66,2.43,1.17,3.63.25.6.27,1.28.56,1.87.35.7.99,1.17,1.61,1.63,1.2.89,2.75,1.6,4.24,1.02,1.35-.52,2.05-1.9,2.78-3.05.42-.66.87-1.31,1.21-2.01.38-.77.61-1.6.84-2.43.43-1.56,1.21-3.25-.19-4.54C11.05,1.04,9.31.37,7.68.08c-.94-.17-1.35,1.28-.4,1.45,1.18.21,2.29.6,3.3,1.24.35.22.81.48.99.86.25.51-.17,1.37-.32,1.89-.33,1.2-.61,2.39-1.24,3.47-.6,1.01-1.2,2.1-1.93,3.02-.77.97-1.81,1.11-2.9.54-.99-.52-1.98-1.2-2.24-2.32-.24-1.05-.77-1.84-1.23-2.8s.02-1.61.83-2.16c.42-.28.9-.5,1.28-.84.2-.18.37-.39.49-.64s.08-.53.18-.78c.22-.54,1.79-2.18,2.42-1.36.25.32.64.49,1.03.27.32-.18.52-.71.27-1.03h0Z"/>
      <path class="cls-1" d="M6.92,2.48c.1.1-.04-.07,0,0,.04.07-.03-.16,0,0,.02.13,0-.03,0-.03.02,0-.02.2,0,.07.02-.12-.02.06-.02.07,0-.05.05-.11,0-.02-.08.16.06-.04-.01.03-.04.04-.07.08-.11.11-.09.09.04-.02-.02.02-.04.02-.07.05-.11.07-.05.03-.09.05-.14.07-.13.07.07-.01-.03.01-.24.07-.47.14-.7.21-.49.14-.93.36-1.35.64-.05.03-.1.07-.16.09.12-.05-.09.02,0,0,.08-.02-.1,0-.11,0-.05,0-.1,0-.14,0-.24,0-.48-.04-.73,0-.39.05-.77.31-.75.75.02.36.33.8.75.75.29-.04.58.01.87,0,.37,0,.71-.1,1.02-.3.12-.08.24-.16.37-.23.05-.03.11-.06.16-.09.02,0,.21-.09.09-.04.29-.11.59-.18.89-.27.59-.19,1.19-.51,1.51-1.07.34-.61.29-1.4-.22-1.91-.28-.28-.79-.3-1.06,0s-.3.76,0,1.06h0Z"/>
      <path class="cls-1" d="M5.92,7.17c-.54.18-1.06.41-1.48.8-.54.49-.82,1.23-.41,1.9.73,1.19,2.45,1.29,3.43.38.45-.41.72-1.03,1.01-1.55s.62-1.07.81-1.65c.2-.63.17-1.4-.42-1.81-.29-.2-.64-.21-.99-.22-.3-.01-.61-.02-.91,0-.51.03-.95.26-1.1.78-.04.16-.05.33-.05.5,0,.04,0,.08,0,.12,0,.04,0,.08,0,.13.01-.09.01-.1,0-.01-.01.05-.02.1-.04.15-.01.04-.1.24-.03.09-.03.06-.06.11-.09.17-.02.03-.13.18-.03.06-.08.1-.17.19-.27.27.13-.11-.03.02-.05.03-.03.02-.27.13-.1.06-.36.15-.66.51-.52.92.11.35.53.68.92.52.85-.34,1.54-1.07,1.68-2,.03-.21.04-.42.04-.63,0-.15,0,0,0,.02l-.12.19-.3.13s.36,0,.4,0c.23,0,.47,0,.7.01.05,0,.11,0,.16,0,.1,0-.04,0-.06-.02-.07-.02-.13-.07-.17-.13l-.03-.08c.02.07.02.07,0,0-.03-.09,0,0,0,.04,0,.03,0,.15,0,.04.01-.14-.02.1-.03.1-.01.05-.03.1-.04.14s-.03.09-.05.14c0,.02-.06.13-.01.03-.05.11-.11.23-.17.34-.22.41-.44.82-.67,1.22-.11.2-.22.4-.35.59,0,.01-.1.14-.05.08s-.05.06-.06.07c-.03.03-.07.06-.1.1-.04.03-.03.03.02,0-.03.02-.06.04-.09.06-.04.02-.08.04-.12.07-.09.05.09-.01-.01,0-.04,0-.09.03-.13.04s-.18.01-.04,0c-.05,0-.09,0-.14,0-.03,0-.14-.02,0,0-.05,0-.09-.02-.14-.03-.03,0-.21-.08-.08-.02-.04-.02-.08-.04-.12-.07-.02,0-.16-.12-.09-.06s-.04-.04-.05-.06c-.02-.02-.05-.05-.07-.08.04.05.05.06.02.01-.05-.08,0,.03.01.06,0,.01,0,.15-.02.14,0,0,.06-.1.07-.12-.08.13.02-.02.04-.05.03-.03.06-.06.09-.09.14-.14-.11.07.05-.04.09-.06.18-.12.28-.17.04-.02.08-.04.12-.06.13-.06-.05.01.03-.02.11-.04.23-.08.34-.12.37-.12.65-.52.52-.92-.12-.37-.52-.66-.92-.52h0Z"/>
      <path class="cls-1" d="M7.21,12.65c.02-.05.04-.11.06-.16l-.08.18c.08-.18.17-.35.29-.51l-.12.15c.1-.13.22-.25.35-.35l-.15.12s.08-.06.12-.09c.16-.11.29-.26.34-.45.03-.1.04-.2.01-.3,0-.1-.03-.19-.09-.28-.1-.16-.26-.3-.45-.34s-.41-.04-.58.08c-.15.1-.29.21-.42.33s-.24.27-.35.42c-.18.24-.3.53-.4.81-.03.1-.04.2-.01.3,0,.1.03.19.09.28.09.16.27.3.45.34.19.04.41.03.58-.08l.15-.12c.09-.09.16-.2.19-.33h0Z"/>
      <path class="cls-1" d="M9.54,2.11c-.3.4-.57.87-.56,1.38.02.56.36.94.64,1.39.05.09.1.18.15.28-.03-.07-.02-.04,0,.01.02.05.03.1.04.15.05.18.07.36.1.54.07.44.22.86.55,1.18.28.27.78.3,1.06,0s.3-.77,0-1.06c0,0-.08-.08-.08-.08.01,0,.08.13.03.02-.05-.1.02.01,0,.03,0-.01-.03-.09-.04-.1-.04-.14-.07-.29-.09-.44-.06-.39-.15-.74-.33-1.1-.09-.17-.19-.32-.29-.47-.05-.08-.11-.15-.16-.23-.02-.03-.04-.08-.07-.11-.05-.06,0,.07,0,0-.02-.11-.02.12,0,0,0-.02.02-.14,0-.06-.02.09.02-.04.03-.06.02-.09-.05.08,0,0,.11-.17.2-.34.32-.5.24-.31.06-.85-.27-1.03-.4-.21-.77-.07-1.03.27h0Z"/>
      <path class="cls-1" d="M2.86,6.39c-.38.51-.57,1.17-.56,1.8,0,.12.01.25.01.37,0,.03,0,.06,0,.09,0,.09.04-.14,0-.07-.05.11,0,.02.02-.03-.05.09.02-.02.04-.04-.05.03-.09.09-.13.13-.07.07.02-.02.04-.03-.03.02-.06.04-.09.07-.13.1-.26.2-.39.29-.16.12-.29.24-.34.45-.05.18-.03.42.08.58.2.31.69.52,1.03.27.27-.2.58-.4.82-.64.31-.31.43-.72.42-1.15,0-.13-.01-.26-.01-.4,0-.04,0-.08,0-.12,0-.02.02-.14,0-.02s0,0,0-.02c0-.04.02-.08.03-.12.02-.07.04-.14.06-.21.01-.03.02-.06.03-.09.03-.09-.07.13-.02.05.08-.14.14-.27.24-.39.11-.15.12-.41.08-.58s-.18-.36-.34-.45c-.17-.09-.38-.14-.58-.08s-.33.18-.45.34h0Z"/>
    </g>
  </g>
</svg>