<?xml version="1.0" encoding="UTF-8"?>
<svg id="Layer_2" data-name="Layer 2" xmlns="http://www.w3.org/2000/svg" viewBox="0 0 12.34 12.01">
  <defs>
    <style>
      .cls-1 {
        fill: #1a1a1a;
      }
    </style>
  </defs>
  <g id="Layer_1-2" data-name="Layer 1">
    <g>
      <path class="cls-1" d="M7.32.76c-.85-1.41-2.53-.51-3.66-.03S1.03,1.68.58,2.99c-.21.62-.15,1.28-.14,1.92.01.7-.21,1.29-.36,1.97-.13.62-.13,1.25.15,1.82.32.64.92,1.12,1.43,1.61s.98,1.08,1.59,1.41,1.3.25,1.94.26c.72,0,1.44.03,2.16.02.66,0,1.31-.09,1.86-.49.83-.61,1.07-1.58,1.47-2.47.2-.44.41-.74.8-1.02.58-.4.83-.92.84-1.62.02-1.46-.86-2.58-1.99-3.39-.95-.68-2.19-1.14-2.86-2.15-.53-.8-1.83-.05-1.3.76.5.75,1.18,1.29,1.94,1.77.68.43,1.43.81,2.01,1.39.3.3.53.66.63,1.08.05.2.13.58.05.77-.07.16-.36.29-.5.4-.65.52-.95,1.3-1.25,2.05-.28.7-.53,1.35-1.36,1.42-.5.04-1.01,0-1.51,0-.61,0-1.23.02-1.84-.02-.53-.04-.83-.44-1.19-.79-.42-.41-.86-.8-1.26-1.22-.34-.36-.47-.68-.37-1.17.11-.56.32-1.09.39-1.67s-.05-1.18,0-1.76.42-.88.93-1.14c.33-.17,2.99-1.5,3.17-1.2.5.83,1.79.07,1.3-.76h0Z"/>
      <path class="cls-1" d="M5.66,4.47c-.43-.06-.86.27-1.15.56-.3.3-.5.67-.55,1.09-.06.48.09.9.39,1.26.27.33.66.6,1.1.59.41,0,.72-.22,1.05-.43.06-.03.11-.06.17-.09.13-.07-.04.02-.04.02,0,0,.1-.04.12-.04.14-.05.29-.07.44-.1.41-.07.77-.26,1-.62.21-.32.27-.78.15-1.15-.13-.41-.44-.76-.83-.94-.48-.22-.97-.22-1.48-.11-.38.08-.64.55-.52.92.13.4.51.61.92.52.05,0,.11,0,.16-.03-.02.01-.18.01-.04,0,.03,0,.05,0,.08,0,.05,0,.11,0,.16,0,.08,0-.07,0-.07,0,.01.01.08.02.1.02.01,0,.06.03.08.03,0,0-.14-.07-.08-.03.03.02.07.04.11.06.06.03-.07-.05-.07-.05,0,.01.06.05.06.06.02.02.06.08,0-.01-.07-.1-.01-.01,0,0,0,.02.02.04.03.05,0,0-.05-.15-.04-.08.02.16,0-.15,0-.02,0,.02,0,.04,0,.06,0,.07,0-.1.01-.1,0,0-.02.05-.02.06-.01.07.07-.13.03-.07-.11.13.1-.1,0-.01,0,0,.13-.08.07-.06-.01,0-.05.02-.06.03,0,0,.15-.05.08-.04-.02,0-.04.01-.06.02-.06.01-.12.02-.17.03-.21.04-.4.08-.6.16-.25.1-.47.23-.7.38-.04.02-.08.04-.12.07-.06.04.07-.03.08-.03-.02,0-.07.04-.08.03,0,0,.17-.01.09-.01s.1.02.09.02c-.02,0-.11-.03,0,0,.12.03-.06-.06.04.02.09.07-.04-.04-.07-.07-.03-.03-.06-.08-.1-.1,0,0,.08.12.05.06,0-.02-.02-.04-.04-.06-.05-.07.02-.04.02.05,0-.01-.02-.08-.03-.09,0,0,0,.16.01.08,0-.03,0-.07,0-.09,0-.08,0,.08-.01.08.01,0,.02-.1.03-.12,0-.02.02-.05.02-.07,0,.04-.07.14-.02.05.02-.03.12-.17.05-.08s0,0,.02-.01c.02-.02.04-.05.07-.07.04-.04.09-.07.12-.11,0,0-.12.09-.06.05.03-.02.07-.04.1-.07.03-.02.09-.03,0,0-.04.01-.21.02-.1.04.18.02.41-.1.53-.22.13-.13.23-.34.22-.53s-.07-.4-.22-.53c-.16-.14-.32-.19-.53-.22h0Z"/>
      <path class="cls-1" d="M2.45,4.04s0,.05,0,.07l.03-.2c0,.07-.03.14-.06.2l.08-.18s-.02.05-.04.08c-.05.09-.08.18-.09.28-.02.1-.02.2.01.3.02.1.07.18.13.26.05.08.12.15.21.19l.18.08c.13.04.27.04.4,0l.18-.08c.11-.07.2-.16.27-.27.05-.08.08-.17.11-.26.01-.03.02-.06.03-.09s.02-.06.02-.09c.02-.1.03-.19.04-.29,0-.1-.02-.2-.06-.29-.03-.09-.08-.17-.16-.24-.07-.07-.15-.12-.24-.16-.09-.05-.19-.07-.29-.06l-.2.03c-.13.04-.24.1-.33.19l-.12.15c-.07.12-.1.24-.1.38h0Z"/>
      <path class="cls-1" d="M4.06,9.96c.3.15.61.29.87.5l-.15-.12c.06.05.11.09.15.15l-.12-.15s.07.1.09.15l-.08-.18c.04.1.06.21.07.32l-.03-.2s0,.04,0,.06c0,.1.02.2.06.29.03.09.08.17.16.24.13.13.34.23.53.22s.4-.07.53-.22l.12-.15c.07-.12.1-.24.1-.38-.02-.13-.03-.27-.06-.4s-.08-.25-.14-.37-.14-.22-.22-.32-.2-.18-.3-.26c-.26-.19-.56-.33-.85-.48-.18-.09-.38-.13-.58-.08-.17.05-.36.18-.45.34-.09.17-.14.38-.08.58.06.18.17.36.34.45h0Z"/>
      <path class="cls-1" d="M8.26,3.09c.06.65.41,1.1.62,1.7.1.27,0,.46-.07.73-.09.35-.13.73-.14,1.09-.02.68.09,1.38-.08,2.04-.15.59-.46,1.09-.9,1.5-.71.66.35,1.72,1.06,1.06.54-.5.94-1.12,1.19-1.82.27-.76.25-1.57.23-2.37,0-.37,0-.75.09-1.11s.21-.73.16-1.13c-.05-.35-.18-.66-.34-.98-.11-.22-.29-.47-.32-.72-.04-.4-.32-.75-.75-.75-.37,0-.79.34-.75.75h0Z"/>
      <path class="cls-1" d="M1.56,7.36s.06.01.09.02c.08.03.06.02-.05-.03.02.03.12.07.16.09.06.05.05.03-.04-.04.02.02.05.04.07.06.02.02.04.04.06.07.05.06.04.05-.03-.05,0,0,.09.15.09.16l-.04-.1s.03.07.04.11c.02.07.03.15.05.22.01.08.01.08,0-.02,0,.04,0,.08.01.12.07.67-.06,1.35.1,2.02.09.38.55.65.92.52.4-.13.62-.51.52-.92,0-.04-.02-.08-.03-.12-.04-.18,0,.1,0,0,0-.08-.01-.16-.01-.24,0-.18,0-.36.01-.55.01-.41-.02-.81-.09-1.21-.12-.75-.68-1.38-1.43-1.57-.38-.09-.83.12-.92.52s.12.82.52.92h0Z"/>
    </g>
  </g>
</svg>