<?xml version="1.0" encoding="UTF-8"?>
<svg id="Layer_2" data-name="Layer 2" xmlns="http://www.w3.org/2000/svg" viewBox="0 0 12.14 9.87">
  <defs>
    <style>
      .cls-1 {
        fill: #1a1a1a;
      }
    </style>
  </defs>
  <g id="Layer_1-2" data-name="Layer 1">
    <g>
      <path class="cls-1" d="M5.66.59c-.91-1.22-2.3-.28-3.26.38-.49.34-1.03.71-1.34,1.23s-.28,1.16-.43,1.75c-.3,1.14-1.02,2.49-.35,3.64.26.44.68.89,1.05,1.24.49.47,1.09.63,1.75.41.52-.17.92-.69,1.48-.45.59.26,1.1.67,1.71.9s1.22.22,1.85.12,1.25-.2,1.75-.57c.46-.34.68-.84.73-1.39.05-.47-.14-1.08.09-1.52s.73-.68,1.02-1.04c.38-.47.58-1.12.29-1.68-.32-.64-1.21-.87-1.81-1.16-.37-.18-.75-.35-1.12-.54-.28-.14-.44-.32-.68-.52C7.38.49,6.03.18,4.71.47c-.94.21-.54,1.65.4,1.45.76-.17,1.57,0,2.18.49.31.25.55.55.91.74.47.25.95.46,1.43.68.25.12.5.24.75.36.09.04.22.13.32.15l-.02-.08c-.01-.11-.03-.11-.05,0-.1.05-.24.27-.32.35-.17.15-.35.3-.5.46-.62.66-.69,1.4-.67,2.26,0,.31.05.62-.26.78-.36.18-.92.24-1.32.27-.94.05-1.64-.64-2.45-.99-.4-.17-.84-.26-1.27-.15-.23.06-.46.17-.67.28-.15.08-.46.36-.64.32-.25-.06-.56-.56-.73-.76-.29-.34-.3-.62-.21-1.06.11-.52.31-1.01.46-1.52.13-.45.09-1.01.27-1.44s.73-.72,1.09-.96c.21-.13.42-.26.63-.38.1-.06.21-.13.32-.18l.13-.07c.17-.02.13-.07-.11-.14.24.33.65.49,1.03.27.32-.18.51-.7.27-1.03h0Z"/>
      <path class="cls-1" d="M6.03,3.3c-.47-.32-1.06-.12-1.5.13s-.78.61-.95,1.09-.08,1.01.23,1.4c.33.42.83.54,1.33.59.89.08,1.85.22,2.64-.32.2-.14.39-.29.58-.44.23-.18.48-.34.56-.63.15-.56-.34-1.05-.73-1.39s-.89-.68-1.43-.79c-.61-.12-1.19.02-1.67.42-.3.25-.28.8,0,1.06.32.29.74.27,1.06,0-.13.11-.01.02.01,0,.06-.05-.12.03,0,0,.03,0,.06-.02.08-.02.06-.01.04-.01-.05,0,0-.01.1,0,.12,0,.05,0,.2.04.04,0,.04.01.09.02.13.03.02,0,.22.08.07.01.05.02.1.05.15.07.1.05.19.11.28.18.02.02.14.11.03.02.04.04.08.07.13.11.08.07.16.15.24.23.04.04.07.08.11.12l.04.05c-.07-.08-.1-.18-.1-.3l.1-.38c.15-.21.02-.06-.05-.01s-.12.09-.18.14-.12.09-.18.14c.08-.06.02-.02-.03.02-.09.07-.2.13-.29.19-.13.09.09-.01-.05.03-.07.02-.13.04-.2.05.16-.03-.05,0-.07,0-.07,0-.14,0-.21,0-.13,0-.25-.01-.38-.02-.26-.02-.52-.04-.78-.05-.16-.01.14.04-.02,0-.05-.01-.09-.02-.14-.03-.03,0-.05-.02-.08-.02.09.04.11.05.06.02-.06-.04.08.11,0,0,.06.09.07.1.02.03l.03.09s-.02-.05-.02-.07c-.01-.06-.01-.03,0,.07,0-.03,0-.05,0-.08,0-.06,0-.04-.01.07-.01-.02.03-.15.04-.16-.05.03-.04.13,0,0,.03-.05.02-.03-.03.03.02-.02.04-.04.06-.07.03-.04.07-.07.11-.1-.13.11,0,0,.04-.02.09-.06.21-.14.32-.17l-.08.04s.07-.02.11-.03l-.09.02c-.24-.09-.3-.11-.19-.04.32.22.85.07,1.03-.27.2-.38.08-.79-.27-1.03h0Z"/>
      <path class="cls-1" d="M8.16,6.46c-.42.12-.82.28-1.16.56-.06.05-.12.11-.17.17-.06.07-.12.15-.17.23l-.03.04c-.05.07-.04.06.03-.03l-.03.03c-.06.05-.04.04.05-.03-.02,0-.08.05-.09.06-.15.08.09-.03.02,0-.05.02-.1.04-.15.05l.73,1.25s.09-.09.14-.13c.02-.02.15-.1.15-.12-.09.07-.1.08-.04.03.03-.02.05-.04.08-.06.04-.03.08-.05.12-.08.2-.14.42-.26.64-.36.17-.08-.12.05.02,0,.06-.02.13-.05.19-.07.12-.04.25-.08.38-.12.26-.07.53-.13.79-.19.38-.09.64-.55.52-.92-.13-.4-.51-.62-.92-.52-.6.13-1.18.29-1.74.54-.51.23-.98.56-1.39.94-.23.22-.29.64-.12.91s.52.45.85.34c.21-.07.43-.15.62-.28.17-.12.28-.23.4-.4.03-.04.06-.08.08-.13.09-.14-.11.11-.01.01.03-.03.06-.06.09-.08.1-.09-.15.09-.02.02.07-.04.14-.08.22-.12.12-.06-.16.06-.02.01.03-.01.07-.02.1-.04.09-.03.17-.05.26-.08.38-.1.65-.54.52-.92s-.52-.64-.92-.52h0Z"/>
      <path class="cls-1" d="M1.48,5.94c.17.09.33.19.48.31l-.15-.12c.13.1.25.2.35.32l-.12-.15c.05.07.09.15.14.23.07.12.16.23.25.33.11.13.24.24.34.38l-.12-.15c.05.06.08.12.11.19l-.08-.18c.02.06.04.12.05.18l-.03-.2c0,.05,0,.1,0,.15l.03-.2s-.02.08-.03.11l.08-.18s-.03.05-.05.08l.12-.15-.02.02c-.13.15-.22.32-.22.53,0,.18.08.4.22.53s.33.23.53.22.4-.07.53-.22c.19-.23.31-.47.32-.77.01-.25-.06-.47-.17-.69-.14-.3-.42-.51-.62-.77l.12.15c-.07-.1-.12-.21-.19-.32-.1-.15-.22-.28-.36-.39-.24-.2-.49-.39-.77-.53-.35-.18-.83-.1-1.03.27-.18.35-.1.83.27,1.03h0Z"/>
      <path class="cls-1" d="M3.63,3.31c.28.16.62.2.92.1.27-.08.47-.22.68-.4.12-.1.22-.2.31-.32.13-.17.25-.33.35-.52.05-.09.08-.18.09-.28.02-.1.02-.2-.01-.3-.05-.17-.18-.36-.34-.45-.17-.09-.38-.14-.58-.08-.18.06-.36.17-.45.34-.06.13-.14.25-.22.36l.12-.15c-.11.14-.23.27-.37.37l.15-.12c-.07.05-.14.1-.22.13l.18-.08c-.05.02-.11.04-.17.05l.2-.03s-.07,0-.11,0l.2.03s-.06-.01-.09-.02l.18.08s-.03-.02-.05-.03c-.17-.1-.39-.13-.58-.08-.17.05-.36.18-.45.34-.09.17-.14.38-.08.58s.17.35.34.45h0Z"/>
    </g>
  </g>
</svg>