<?xml version="1.0" encoding="UTF-8"?>
<svg id="Layer_2" data-name="Layer 2" xmlns="http://www.w3.org/2000/svg" viewBox="0 0 11.68 11.64">
  <defs>
    <style>
      .cls-1 {
        fill: #1a1a1a;
      }
    </style>
  </defs>
  <g id="Layer_1-2" data-name="Layer 1">
    <g>
      <path class="cls-1" d="M6.03.45c-1.15-1-2.41-.09-3.47.55S.06,2.31,0,3.74c-.02.63.31,1,.6,1.51.28.48-.18,1.25-.23,1.78-.13,1.28.54,2.58,1.68,3.18.52.27,1.1.42,1.69.4.28,0,.6-.1.88-.02.24.07.45.27.64.42.5.39,1.01.62,1.66.64s1.38-.12,1.99-.31c1.16-.35,2.23-1.1,2.63-2.29.21-.62.13-1.24,0-1.86-.16-.74-.03-1.3.06-2.04.16-1.37-.64-2.69-2.08-2.87-.7-.09-1.29.08-1.93-.3-.55-.34-.98-.86-1.4-1.34-.63-.73-1.69.33-1.06,1.06s1.25,1.4,2.1,1.78c.46.21.93.29,1.43.29.42,0,.84-.08,1.18.23.3.28.32.66.27,1.05-.07.55-.22,1.09-.17,1.65.04.49.24.98.24,1.47,0,.46-.25.86-.59,1.16-.65.58-1.82.87-2.68.82-.39-.02-.64-.24-.94-.48-.42-.33-.85-.56-1.4-.6-.45-.03-.9.1-1.35,0s-.87-.4-1.12-.81c-.56-.95.1-1.77.08-2.74,0-.6-.3-.96-.59-1.44s.17-.82.54-1.06c.52-.34,1.06-.65,1.59-.97.2-.12.99-.75,1.24-.54.72.63,1.79-.42,1.06-1.06h0Z"/>
      <path class="cls-1" d="M4.34,5.67c-.39.97.33,2.11,1.33,2.27.53.09,1.16.11,1.63-.18s.64-.79.74-1.28c.13-.61.13-1.22-.29-1.73-.32-.39-.81-.58-1.26-.76-.05-.02-.09-.04-.14-.06-.04-.02-.17-.06-.02,0-.09-.03-.18-.08-.27-.13-.05-.03-.1-.06-.15-.09-.03-.02-.1-.09,0,0-.09-.08-.18-.16-.26-.26-.16-.17-.3-.36-.5-.48-.33-.2-.77-.17-1.09.05-.37.25-.5.63-.55,1.06-.03.29-.03.58.08.85.08.2.17.34.31.51.02.03.05.05.07.08.02.03.05.05.07.08.05.06.05.05-.01-.03.01,0,.06.09.06.09-.03-.09-.03-.09,0-.01.02.08.02.08,0-.02.01.02,0,.11,0,.12,0,.04,0,.08,0,.12.01-.1.01-.1,0-.02-.07.38.11.83.52.92.37.08.84-.11.92-.52.09-.47.1-.95-.15-1.38-.1-.16-.23-.3-.35-.44-.02-.03-.06-.11-.03-.03.05.12-.06-.07.01.03.05.08,0-.02-.01-.05-.03-.07,0,.13,0-.01,0-.04-.02-.21.01-.24-.03.03.01.15,0,.02,0-.05.07-.11-.02.01-.12.18-.42.2-.6.09-.03-.02-.11-.11-.04-.02.03.04.06.07.09.11.25.29.52.55.86.74.18.1.37.18.56.25.07.03.15.06.22.09.03.01.08.03.11.05-.09-.05-.06-.03.01,0,.1.05.32.12.38.21-.06-.1-.06-.06-.02-.01.01.01.07.06.08.08l-.05-.06.03.05c-.07-.18.02.04,0,.05,0,0,0-.2,0-.02,0,.04,0,.08,0,.12,0,.04,0,.14,0-.01,0,.04-.02.09-.02.12-.03.15-.07.29-.11.43-.03.13,0-.02.02-.03-.01.01-.04.07-.05.09-.05.11,0,0,.03-.03-.08.09.02,0,.04-.02-.13.09.02-.02.03,0,0,0-.09.04-.11.03.04.02.14,0,.03,0-.06,0-.11,0-.17,0-.08,0-.16,0-.25,0-.02,0-.1,0-.12,0,.09.01.1.02.05,0-.03,0-.06-.01-.09-.02-.02,0-.11-.03-.12-.04,0,0,.13.09.02,0-.08-.06.1.11.04.03,0,0-.09-.08-.08-.08.02-.02.09.14.03.04,0,0-.07-.12-.07-.13.02,0,.04.15.03.07,0-.04-.02-.08-.03-.12-.04-.13.02.05,0,.06,0,0,0-.14,0-.14.02.01-.05.19,0,.06.02-.05.03-.09.05-.14.15-.37-.16-.84-.52-.92-.43-.1-.77.13-.92.52h0Z"/>
      <path class="cls-1" d="M7.24,9.61c.28.31.78.34,1.12.13.1-.06.19-.14.27-.22.05-.05.1-.1.15-.15.2-.2.4-.4.59-.62.13-.15.22-.33.22-.53,0-.18-.08-.4-.22-.53s-.33-.23-.53-.22-.4.07-.53.22-.27.29-.41.43-.26.28-.41.4l.15-.12s-.05.03-.07.04l.18-.08s-.04.01-.06.02l.2-.03s-.03,0-.04,0l.2.03s-.03,0-.04-.01l.18.08s-.02,0-.02-.01l.15.12s-.01-.01-.02-.02c-.13-.14-.35-.22-.53-.22s-.4.08-.53.22-.23.33-.22.53.08.38.22.53h0Z"/>
      <path class="cls-1" d="M1.19,6.86c.19.1.34.13.55.15.07,0,.18.04-.02-.01.13.03-.15-.09-.03-.02l-.09-.07c.05.06.04.04-.04-.06.07.1-.05-.14-.02-.05.02.07,0-.2-.02-.04,0,.03,0,.06,0,.09,0,.5.35.87.84.91.09,0,.18,0,.26,0,.02,0,.05,0,.07,0-.12-.02-.14-.02-.09,0,.16.06-.09-.06-.02-.02.02.01.07.05.09.05-.09-.08-.11-.09-.05-.04l.03.03c.05.05.08.13,0-.02.02.04.05.07.07.11l.02.04c.03.07.03.06-.02-.04.01,0,.04.13.04.14.01.04.02.08.03.12,0,.02,0,.05.01.07-.01-.11-.02-.13-.01-.07.01.28.04.56.2.79.12.18.27.36.4.54.12.16.25.29.45.34.18.05.42.03.58-.08.31-.2.52-.69.27-1.03-.09-.12-.18-.24-.27-.36-.04-.06-.09-.15-.14-.19s.03.11.02.05c-.02-.08,0,.16.01.08,0-.18-.03-.37-.06-.55-.04-.19-.1-.36-.19-.54-.14-.3-.38-.56-.66-.72-.17-.1-.36-.17-.55-.19-.09-.01-.18-.02-.27-.03-.03,0-.07,0-.1,0-.02,0-.03,0-.05,0-.06,0-.03,0,.09,0l.33.19.17.42v-.03s0-.05,0-.07c0-.11,0-.21-.02-.31-.04-.21-.15-.41-.29-.56s-.33-.27-.52-.33c-.1-.03-.22-.04-.32-.05-.03,0-.06,0-.09,0-.04,0-.03,0,.03,0,.06,0,.11.02.15.05-.35-.18-.83-.1-1.03.27-.18.34-.1.83.27,1.03h0Z"/>
      <path class="cls-1" d="M8.04,4.18c.11.16.23.3.37.43.09.09.19.17.28.26.01.01.02.03.04.04.04.04.02.02-.06-.08,0,.03.03.05.05.08.05.07-.05-.18-.03-.06,0,.02.01.04.02.06.01.06,0,.03-.01-.09-.02.04,0,.18,0,.22,0,.08-.02.17-.03.25-.05.46.1.9.43,1.23.14.14.3.26.47.36.07.04.14.08.2.12.04.02.08.05.12.07.04.03.16.12,0,0,.16.13.31.22.53.22.18,0,.4-.08.53-.22s.23-.33.22-.53c0-.18-.07-.41-.22-.53-.17-.13-.34-.25-.52-.35-.07-.04-.13-.08-.2-.12-.03-.02-.05-.04-.08-.06.14.07.09.07.03.01-.02-.02-.04-.04-.06-.06.07.1.09.12.06.07-.01-.02-.02-.03-.03-.05-.07-.1.03.14.02.05-.02-.13-.02,0,0,.05-.03-.05,0-.17,0-.22,0-.08.02-.17.03-.25.05-.46-.09-.86-.38-1.2-.08-.1-.17-.18-.27-.26-.05-.05-.1-.09-.15-.14-.02-.02-.04-.05-.07-.07-.09-.09.1.15.02.03-.11-.16-.25-.29-.45-.34-.18-.05-.42-.03-.58.08-.32.2-.51.68-.27,1.03h0Z"/>
    </g>
  </g>
</svg>