<?xml version="1.0" encoding="UTF-8"?>
<svg id="Layer_2" data-name="Layer 2" xmlns="http://www.w3.org/2000/svg" viewBox="0 0 16.96 15.5">
  <defs>
    <style>
      .cls-1 {
        fill: #1a1a1a;
      }
    </style>
  </defs>
  <g id="Layer_1-2" data-name="Layer 1">
    <g>
      <path class="cls-1" d="M5.83.1c-1.69.93-3.42,2.04-4.79,3.42C.48,4.08.01,4.79,0,5.61c-.01.91.55,1.53,1.13,2.16.35.38.4.46.13.92-.17.3-.31.62-.38.97-.16.78-.02,1.63.4,2.31.38.62,1,1.07,1.69,1.29.33.1.69.15,1.04.15.45-.01.78-.21,1.2-.28.48-.09.63.2.89.58.21.31.41.64.66.93.63.71,1.44.87,2.34.87s1.92,0,2.85-.14,1.59-.83,2.09-1.58c.23-.34.42-.74.51-1.14.08-.36-.05-.76.02-1.09.08-.35.46-.45.75-.66.35-.26.66-.56.92-.91.96-1.31,1.04-3.27-.14-4.48-.77-.79-1.65-.68-2.66-.72s-1.77-.81-2.61-1.26c-.5-.26-.93-.53-1.27-.98-.29-.39-.51-.82-.83-1.2-.64-.75-1.48-1.15-2.46-.97s-.55,1.63.4,1.45c.73-.14,1.2.89,1.53,1.37.42.61.89,1.08,1.54,1.45,1.11.63,2.25,1.58,3.57,1.64.82.03,1.58-.19,2,.7.32.67.17,1.47-.24,2.06-.74,1.08-2.12,1.1-2,2.66.06.73-.19,1.33-.75,1.84-.66.59-1.78.45-2.63.47-.8.02-1.51.11-2.02-.6-.36-.51-.65-1.08-1.17-1.45s-1.06-.48-1.66-.28c-.67.22-1.24.41-1.89-.03-.5-.34-.73-.97-.64-1.56.1-.64.67-1.06.7-1.72.03-.7-.47-1.23-.92-1.71-.28-.29-.61-.59-.6-1.03s.32-.75.59-1.03c1.28-1.29,2.91-2.31,4.49-3.18.85-.47.09-1.76-.76-1.3h0Z"/>
      <path class="cls-1" d="M8.79,3.06c-.6.21-1.08.08-1.65-.14-.62-.24-1.22-.34-1.86-.14-.56.18-1.01.43-1.62.41-.66-.03-1.27-.13-1.93-.02-.4.07-.62.56-.52.92.12.42.52.59.92.52.58-.1,1.19.09,1.78.08.66-.01,1.16-.27,1.77-.46.55-.17.99.14,1.51.31.65.21,1.36.19,2-.03.91-.31.52-1.76-.4-1.45h0Z"/>
      <path class="cls-1" d="M2.65,9.79c.08,0,.15,0,.23,0,.16,0-.17-.04-.01,0,.04,0,.08.02.11.03.08.02.15.05.22.07.09.03-.15-.07-.03,0,.04.02.08.04.12.07.03.02.05.03.08.05.02.01.04.03.06.04.05.03.03.02-.06-.05,0,0,.17.16.17.16-.04.02-.1-.21-.11-.22,0-.07,0-.07,0,0v.05c-.01.1-.02.19-.03.29-.02.43.09.83.31,1.19.07.12.15.23.21.35.04.08.02.12,0-.04,0,.03.02.06.03.09.03.09-.03.05,0-.07,0,.03,0,.08,0,.12-.03.39.36.77.75.75.43-.02.72-.33.75-.75.03-.44-.19-.82-.42-1.18-.04-.07-.08-.14-.12-.22-.06-.12.04.17.01.03,0-.04-.02-.08-.03-.11-.01-.06,0-.03,0,.07,0-.03,0-.05,0-.08,0-.05,0-.11,0-.16,0-.1.02-.21.03-.31.04-.6-.43-1.06-.91-1.33-.41-.23-.89-.35-1.36-.34-.39.01-.77.33-.75.75.02.39.33.77.75.75h0Z"/>
      <path class="cls-1" d="M6.49,5.67c-.37.12-.73.26-1.08.41-.42.19-.82.43-.82.96s.43.79.81,1.04c.06.04.11.07.17.11l.09.05c.07.05.09.05.04.01-.23.14-.08-.44-.11-.19-.02.15.03.35.05.49.1.68.36,1.37.62,2,.3.74.98,1.15,1.78,1.09.69-.06,1.35-.41,1.69-1.03.17-.3.22-.62.27-.96s-.03.13.02-.14c.01-.08.03-.15.04-.23.01-.05.02-.1.04-.14-.03.06,0-.02.06-.05.51-.3,1.46-.5,1.46-1.35,0-.38-.21-.77-.36-1.11s-.32-.69-.57-.95c-.54-.54-1.43-.32-2.11-.24-.63.07-1.25.14-1.88.19-.4.03-.75.32-.75.75,0,.38.34.78.75.75.76-.05,1.52-.16,2.28-.23.17-.02.35-.03.52-.05.03,0,.28,0,.28-.02,0,0-.2-.1-.18-.12-.02.02.29.52.32.59.1.2.19.42.23.64v-.4c.24-.21.29-.27.15-.18-.05.03-.1.05-.15.07-.09.04-.18.09-.27.13-.18.08-.35.16-.52.27-.4.27-.65.66-.75,1.12-.02.08-.03.15-.04.23,0,.04-.05.34-.03.24-.01.09-.03.18-.05.27,0,.03-.07.26-.04.15l-.04.06s.04-.04-.02.02c-.02.02-.17.14-.08.07-.04.03-.09.05-.13.07.06-.02.05-.02-.03.01-.03,0-.23.05-.1.03-.07,0-.15,0-.23,0,.17,0-.16-.04-.09-.02.02,0-.09-.08-.01,0-.07-.09-.02-.03-.06-.13-.17-.41-.3-.84-.42-1.26-.06-.19-.11-.39-.12-.58-.02-.24-.01-.48-.13-.7-.12-.23-.32-.38-.54-.52-.08-.05-.17-.1-.25-.16-.06-.04-.11-.07-.16-.11-.11-.09-.11-.08,0,.02l.1.38v-.08c-.04.13-.07.25-.11.38-.18.15-.19.19-.05.11l.09-.04c.08-.04.16-.07.24-.11.2-.08.41-.15.62-.22.39-.12.63-.52.52-.92-.1-.38-.53-.65-.92-.52h0Z"/>
      <path class="cls-1" d="M9.69,12.89c.47.48,1.25.58,1.83.24s.76-1.04.74-1.69c0-.13-.01-.26-.01-.39,0-.06,0-.12,0-.18,0-.17-.04.13,0-.05.02-.06.04-.12.05-.18.03-.08.03-.08,0,0,.01-.03.03-.06.04-.09.06-.12.14-.24.22-.35-.09.13.03-.03.04-.05.04-.05.09-.1.13-.15.11-.12.23-.23.35-.34.22-.21.44-.41.65-.63.26-.29.31-.78,0-1.06-.29-.26-.78-.31-1.06,0-.75.82-1.75,1.49-1.91,2.67-.03.24-.03.48-.02.72,0,.11,0,.22,0,.32,0,.04,0,.08,0,.11v-.09s-.02.16-.03.16l.03-.08s-.03.07-.06.1l.05-.07s-.05.04,0,0c.05-.04.05-.04,0,0-.06.03-.06.03,0,0,.13-.06-.05.01-.05,0,.11-.01.14-.02.08-.01-.02,0-.05,0-.07,0-.16.01.17.03.01,0-.14-.02.14.07,0,0-.12-.07.11.11,0,0-.27-.28-.79-.3-1.06,0s-.29.76,0,1.06h0Z"/>
    </g>
  </g>
</svg>