<?xml version="1.0" encoding="UTF-8"?>
<svg id="Layer_1" xmlns="http://www.w3.org/2000/svg" version="1.1" viewBox="0 0 841.61 1080">
  <!-- Generator: Adobe Illustrator 29.8.1, SVG Export Plug-In . SVG Version: 2.1.1 Build 2)  -->
  <path fill="white" d="M46.21,27.55c-19.68,27.58-12.74,62.63-5.23,93.18,4.32,17.57,9.24,35.06,11.13,53.11,2.07,19.69,1.47,39.57-.12,59.27-3.28,40.84-9.12,81.3-10.83,122.29-1.69,40.66-.96,81.42,2.21,122,.82,10.47,1.8,20.93,2.94,31.37.92,8.41,2.68,17.57.21,25.86-2.19,7.35-8.51,11.85-13.58,17.17-5.45,5.71-9.03,12.17-9.25,20.23-.24,8.89,2.45,18.2,4.63,26.74,2.32,9.1,5.1,18.08,8,27.01,5.9,18.13,12.35,36.13,16.65,54.74,9.13,39.48,3.93,80.92,1.71,120.93-2.28,41.15-4.83,82.28-8.5,123.33-1.82,20.35-3.92,40.67-6.39,60.95-2.01,16.45-6.41,33.83-4.06,50.45,1.9,13.42,10.39,25.41,25.21,25.03,9.33-.24,18.23-4.74,26.62-8.4,8.77-3.83,17.39-7.99,25.85-12.46s16.73-9.28,24.84-14.36l-6.84-1.79c14.09,27.01,56.93,28.33,73.34,3.1l-7.85,1.01c19.81,17,45.3,22.67,70.62,25.5,30.89,3.45,62.09,5,93.12,6.63,64.77,3.39,129.65,4.47,194.5,3.23,32.45-.62,64.88-1.89,97.3-3.33,32.07-1.43,64.41-1.88,96.37-4.84,23.49-2.18,50.35-7.28,65.4-27.37,12.18-16.25,10.91-36.78,5.72-55.39-5.43-19.47-14.79-37.96-17.93-58.05-1.44-9.23-1.1-19.02,2.84-27.63,2.72-5.95,7.07-10.91,10.51-16.42s5.85-11.54,6.98-17.88c4.95-27.65-9.72-54.04-15.14-80.47-5.94-28.94-2.99-58.92,1.32-87.86,4.33-29.16,10.17-58.23,11.3-87.76,1.14-29.77-4.39-58.87-10.19-87.93-5.79-29-11.66-58.55-8.64-88.25s16.78-55.76,20.67-84.7c1.83-13.6,1.05-27.12-3.22-40.21s-10.56-24.46-14.15-37.3c-7.03-25.2,5.74-47.79,14.21-70.83,3.95-10.76,7.23-22.38,6.21-33.96-1.09-12.29-7.01-21.79-13.7-31.83-7.21-10.81-10.68-20.94-7.46-33.85,2.78-11.12,8.18-21.36,12.11-32.07s5.98-21.25,3.67-32.3c-.44-2.1-2.73-3.7-4.82-3.67-109.57,1.59-219.13,3.08-328.7,4.58-54.45.75-108.9,1.5-163.35,2.24-27.89.38-55.78.77-83.67,1.15-26.61.37-53.26.89-79.84-.85-21.33-1.4-41.78-6.68-62.89-9.64-15.51-2.17-38.05-4.87-49.05,9.31-3.9,5.02,3.13,12.15,7.07,7.07,9.1-11.73,29.35-8.25,41.98-6.35,17.79,2.68,35.24,7.3,53.19,8.87,26.16,2.29,52.45,2.08,78.69,1.73s53.71-.74,80.56-1.11c107.97-1.48,215.94-2.96,323.91-4.45,60.7-.84,121.39-1.69,182.09-2.57l-4.82-3.67c4.68,22.44-13.49,42.95-16.87,64.4-1.85,11.71.82,22.33,7.03,32.33s14.22,19.46,14.96,32c1.36,23.19-13.36,44.53-19.51,66.16-3.29,11.57-4.33,23.35-1.83,35.18,2.76,13.04,9.08,24.94,13.68,37.36,4.89,13.22,6.58,26.53,4.74,40.54s-6.41,27.93-10.62,41.55-8.13,27.16-9.88,41.29-1.46,28.66.02,42.93c3,28.92,10.39,57.12,14.99,85.78,4.7,29.31,4.06,58.22,0,87.57s-9.83,56.88-11.83,85.67c-.98,14.15-.97,28.39.79,42.48s5.33,26.56,9.38,39.61,8.28,25.86,8.58,39.33c.15,6.61-.76,13.28-3.4,19.38s-7.33,11.49-10.93,17.28c-10.67,17.19-8.51,37.26-3,55.82,5.63,18.98,14.94,37.37,17.4,57.17,1.11,8.88.51,18.2-3.55,26.32-5.2,10.4-14.72,17.34-25.29,21.64-11.95,4.86-24.9,6.68-37.67,7.78-15.58,1.34-31.25,1.77-46.87,2.49-31.74,1.46-63.47,2.99-95.22,4.12-63.51,2.27-127.07,2.5-190.58.43-31.75-1.04-63.48-2.63-95.17-4.77-27.27-1.85-55.85-2.28-82.29-9.87-11.94-3.43-23.28-8.7-32.75-16.83-2.51-2.16-6-1.84-7.85,1.01-12.53,19.26-45.61,16.94-56.07-3.1-1.22-2.34-4.63-3.18-6.84-1.79-15.96,10-32.6,18.87-49.84,26.45-7.8,3.43-18.38,9.46-27.14,6.84-5.91-1.76-8.74-7.14-10.06-12.79-3.56-15.13,1.15-32.17,3.04-47.22,2.45-19.62,4.55-39.28,6.37-58.97,3.71-40.05,6.3-80.19,8.58-120.35,1.11-19.7,2.23-39.39,3.19-59.1s1.26-39.02-1.63-58.37c-5.43-36.38-21.71-69.92-29.63-105.69-1.79-8.1-4.54-17.64.46-25.11,3.93-5.87,10.09-9.93,14.38-15.54,10.48-13.68,6.06-31.79,4.48-47.54-3.97-39.51-5.62-79.26-4.96-118.96.66-39.9,4.3-79.44,8.72-119.07,4.22-37.86,7.03-75.92-1.13-113.47-3.5-16.09-8.16-31.91-11.41-48.06-3.09-15.39-5.14-31.78-1.33-47.23,1.85-7.49,5.1-14.28,9.58-20.55,3.74-5.25-4.92-10.25-8.63-5.05h0Z"/>
</svg>