<?xml version="1.0" encoding="UTF-8"?>
<svg id="Layer_1" xmlns="http://www.w3.org/2000/svg" version="1.1" viewBox="0 0 841.61 1080">
  <!-- Generator: Adobe Illustrator 29.8.1, SVG Export Plug-In . SVG Version: 2.1.1 Build 2)  -->
  <path fill="white" d="M296.96,17.82c-34.52,1.92-69.26,3.85-103.75.31C160.53,14.77,128.41,1.65,95.32,3.09c-27.77,1.21-51.23,15.45-66.52,38.42S8.09,93.31,10.09,121c4.86,67.23,46.76,128.35,38.81,196.99-3.56,30.7-15.18,59.76-22.95,89.49s-10.63,58.65-2.43,88.04,22.9,53.97,31.49,82.03c8.51,27.79,6.72,55.21-.68,83.03-13.59,51.11-43.68,104.68-26.52,158.67,8.71,27.42,29.52,52.27,27.81,82.29s-22.78,54.17-34.07,80.74c-8.76,20.63-12.84,46.38-2.75,67.29,12.91,26.75,45.52,28.1,71.42,25.68,31.73-2.96,62.02-13.27,92.83-20.73,15.63-3.79,31.49-6.86,47.59-7.62s33.27.73,49.71,3.09c33.11,4.76,66.11,12.51,99.77,11.35s68.26-10.4,102.84-10.71c34.42-.31,67.72,9.31,101.3,15.52,33.85,6.26,68.13,7.61,102.46,5.85,17.53-.9,35.02-2.51,52.47-4.42,16.7-1.83,33.64-3.31,50.2-6.2,12.93-2.26,24.84-8.07,31.61-19.74,5.85-10.09,7.2-22.37,6.04-33.81-2.88-28.35-22.18-50.47-28.63-77.67-7.26-30.61,13.59-55.25,25.87-81.25,13.55-28.68,15.45-60.58,13.39-91.79-2.23-33.84-7.52-67.47-11.2-101.18s-6.59-70.05-5.44-105.19c.58-17.69,2.18-35.35,5.15-52.81s6.67-33.75,8.86-50.83,2.02-33.13-.51-49.73-6.71-31.36-11.09-46.78-9.1-31.56-12.01-47.73-3.87-34.14-3.31-51.29c1.14-34.62,7.99-68.7,14.5-102.62,3.2-16.68,6.48-33.39,8.75-50.23,2.06-15.29,2.99-31.15-1.16-46.19-13.75-49.85-74.02-58.18-117.25-48.21-29.99,6.92-57.7,21.29-87.3,29.53-14.83,4.13-30.03,6.63-45.46,5.9s-31.66-4.69-47.12-8.69-30.49-8-46.16-9.89-32.27-.58-48.24,2.56-32.5,8-48.93,11.17c-11.29,2.18-20.57,1.57-31.24-2.79-9.03-3.69-17.62-8.38-26.93-11.42-11.75-3.84-23.78-4.54-35.97-2.73-6.34.94-3.65,10.58,2.66,9.64,12.09-1.79,23.85,0,35.2,4.35,9.12,3.49,17.68,8.34,26.93,11.51,10.83,3.71,20.9,3.22,32.01,1.08,16.13-3.11,31.92-7.77,48.03-10.99s31.58-4.35,47.56-2.24c15.55,2.05,30.7,6.4,45.86,10.28s29.46,7.14,44.59,8.07c15.1.93,30.25-1.14,44.88-4.84,51.21-12.95,100.83-46.62,155.42-29.8,23.48,7.23,40.57,24.77,43.73,49.67,1.97,15.55-.53,31.36-3.1,46.69-2.81,16.73-6.12,33.36-9.29,50.02-6.19,32.54-11.97,65.45-12.12,98.66-.08,16.44,1.34,32.88,4.49,49.02,3.1,15.82,7.71,31.29,12.09,46.79s8.45,30.5,10.64,46.16c2.35,16.8,1.64,33.67-.9,50.41s-6.3,32.94-8.83,49.52-3.99,33.74-4.48,50.71c-.98,34.17,1.71,68.33,5.39,102.28s8.83,66.8,11.18,100.37c2.16,30.78.89,62.52-12.95,90.7-12.08,24.61-30.72,48.4-27.44,77.43s23.22,50.28,28.81,77.62c2.25,10.99,2.52,23.67-2.73,33.9-6.48,12.64-19.56,15.99-32.69,17.67-34.06,4.35-68.25,8.47-102.58,9.74-34.14,1.27-67.79-1.12-101.29-7.86-32.2-6.48-64.45-14.73-97.55-13.82-33.9.93-67.02,9.83-100.93,10.7-33.08.84-65.41-6.94-97.98-11.44-15.81-2.19-31.75-3.73-47.72-3.14-15.53.58-30.93,3.18-46.05,6.63-30.33,6.91-60,17.51-91,21.24-24.53,2.95-59.76,4.46-69.56-23.98-7.95-23.07.79-48.02,11.69-68.47,13.14-24.67,30.22-50.4,27.95-79.64s-21.29-51.96-29.01-79.11-2.78-52.85,4.54-78.22,18.01-51.5,24.44-78.02,7.6-53.46-.14-80.02c-8.06-27.68-22.66-52.9-31.05-80.46-8.83-29.02-6.29-57.65,1.28-86.63s18.61-57.49,22.71-87.47c4.41-32.26-1.74-63.95-10.94-94.84C30.63,171.66,1.4,105.91,35.15,50.16c6.43-10.62,14.98-20.11,25.55-26.72,12.57-7.87,27.06-10.77,41.77-10.4,16.13.4,31.92,4.23,47.59,7.74,16.16,3.62,32.36,6.49,48.87,7.9,32.62,2.78,65.4.97,98.02-.85,6.4-.36,6.44-10.36,0-10h0Z"/>
</svg>