<?xml version="1.0" encoding="UTF-8"?>
<svg id="Layer_1" xmlns="http://www.w3.org/2000/svg" version="1.1" viewBox="0 0 841.61 1080">
  <!-- Generator: Adobe Illustrator 29.8.1, SVG Export Plug-In . SVG Version: 2.1.1 Build 2)  -->
  <path fill="white" d="M86.3,28.97c-5.34-.33-9.96,2.51-12.85,6.91-3.79,5.77-3.59,12.25-2.58,18.81.88,5.68,1.86,10.82.06,16.41-1.54,4.79-4.6,9.09-7.78,12.94-6.35,7.69-13.78,14.56-19.09,23.08-6.75,10.84-7,22.25-4.42,34.49,1.61,7.65,3.49,15.11,4.1,22.93s.43,15.16-.19,22.72c-1.33,16.2-4.9,32.11-8.19,47.99-6.17,29.72-10.08,59.72-11.72,90.04-3.35,61.8,1.39,123.63,4.24,185.35,1.41,30.6,2.39,61.25,1.72,91.89-.68,30.87-4.09,61.28-7.49,91.93-1.77,16.01-3.13,32.13-2.53,48.26.56,14.98,3.12,29.7,6.52,44.28s7.48,29.08,10.22,43.84,4.14,29.97,4.25,45.09c.11,15.11-1.02,30.25-3.54,45.15s-6.8,28.76-10.74,43.1c-3.54,12.89-5.31,26.21-1.21,39.2,3.35,10.61,9.74,20.35,18.13,27.65,18.89,16.44,42.87,17.05,65.76,9.42,12.07-4.03,23.57-9.55,35.57-13.76,13.95-4.89,27.17-6.24,41.9-5.27,31.14,2.04,62.26,4.21,93.39,6.36,7.29.5,14.62.99,21.66,3.1s13.08,5.84,19.54,8.95c12.8,6.16,26.44,8.25,40.41,9.9,63.21,7.45,126.8,11.81,190.43,13.21,31.26.69,62.65,1.35,93.91.71,15.02-.31,29.55-2.24,43.66-7.56,12.53-4.72,24.58-11,37.67-14.09,5.78-1.36,11.85-2,17.76-1.07,7.12,1.12,13.57,5.18,20.86,5.38,13.21.37,20.42-13.14,26.45-22.88,6.78-10.94,12.7-23.03,13.89-36.01.56-6.07-.16-12.31-2.34-18.01-2.29-5.97-6.22-10.88-9.49-16.3s-4.23-10.21-.61-15.99,7.41-11.29,10.23-17.56c5.03-11.16,7.91-22.93,9.3-35.07,2.94-25.75-1.05-51.8-4.84-77.25-1.97-13.21-4.04-26.41-5.34-39.71-1.55-15.79-1.63-31.63-1.09-47.48,1.1-31.76,3.07-63.5,4.67-95.24,3.21-64.02,5.32-128.22,9.84-192.16,1.11-15.7,2.76-31.35,5.77-46.81,2.84-14.58,6.5-29.09,6.26-44.05s-3.69-30.26-5.88-45.32-2.74-31.69-2.57-47.58c.36-32.41,2.08-64.85,3.22-97.24.56-15.93,1.13-31.87,1.69-47.8.49-13.71,2.33-28.74-4.96-41.12-6.16-10.46-17.01-18.01-27.48-23.72-11.29-6.16-23.68-10.42-36.37-12.48s-25.54-2.12-38.27-.07c-13.63,2.2-25.49,8.48-38.61,12.24-6.95,1.99-13.68,2.28-20.34-.85-6.25-2.94-11.9-7.08-18.07-10.18-11.84-5.96-24.51-10.14-37.48-12.76-27.21-5.49-55.25-4.76-82.74-1.97-30.67,3.1-61.14,8.54-92.02,9.44-15.58.45-31.24-.24-46.59-3.12s-29.22-7.23-44-10.08-29.87-3.98-44.73-.73-27.27,9.48-41.21,13.27c-27.3,7.41-55.98,4.16-83.67,1.08-27.2-3.02-54.56-5.95-81.69-.71-6.31,1.22-3.64,10.86,2.66,9.64,54.92-10.61,110.74,14.45,165.36-.37,13.36-3.63,25.97-9.65,39.46-12.86,14.88-3.55,30.01-2.04,44.83,1.07s27.96,7.15,42.17,9.68c15.01,2.66,30.26,3.53,45.48,3.19,56.86-1.29,113.82-18.85,170.73-8.5,13.26,2.41,26.33,6.32,38.39,12.39,11.18,5.63,21.22,14.36,34.43,14,13.92-.38,26.26-8.3,39.44-11.87,12.38-3.35,25.29-4.27,38.05-3.02s24.46,4.62,35.52,10.03,23.18,12.66,28.86,23.64c3.1,6,3.43,12.8,3.35,19.43-.09,7.76-.51,15.53-.78,23.28-.56,15.93-1.13,31.87-1.69,47.8-1.1,31.04-2.85,62.14-2.97,93.21-.06,15.5.7,30.96,2.96,46.3s5.58,29.54,5.53,44.59-4.34,30.14-6.97,45.14-4.04,29.14-5.07,43.8c-2.21,31.21-3.34,62.51-4.9,93.75-3.14,62.57-6.76,125.13-9.38,187.73-.63,15.1-.91,30.24.17,45.33.93,13.02,2.76,25.97,4.66,38.87,3.75,25.4,8.27,51.05,6.97,76.83-.63,12.37-2.8,24.73-7.4,36.28-2.15,5.41-4.89,10.58-8.06,15.46s-7.02,9.8-7.42,16.03c-.82,12.69,10.77,20.76,14.06,32.1,3.56,12.28-1.48,25.26-7.28,36.01-3.19,5.91-6.85,11.58-10.71,17.08-1.47,2.09-2.99,4.38-5,6.01-3.63,2.94-7.46,2.3-11.64,1.03-5.87-1.78-11.25-3.91-17.43-4.46-6.48-.58-13.08.3-19.38,1.85-12.79,3.17-24.61,9.27-36.89,13.9-13.94,5.25-28.02,7.02-42.86,7.23-61.46.86-123.16-.72-184.48-4.89-30.77-2.09-61.49-4.89-92.13-8.39-14.72-1.68-29.36-3.3-42.81-9.98-5.62-2.8-11.1-5.86-17-8.05-6.57-2.44-13.57-3.41-20.52-4.04-30.27-2.76-60.71-4.19-91.04-6.25-14.18-.97-28.02-2.03-41.98,1.35-12.12,2.93-23.55,8.08-35.08,12.7-22.23,8.9-47.1,15.44-67.53-1.25-8.4-6.86-14.7-16.3-17.4-26.83-3.48-13.55.67-26.97,4.54-39.94,8.33-27.89,12.65-56.77,12.03-85.9-.63-29.55-7.58-57.45-14.35-86.03-3.55-14.96-6.23-29.96-6.65-45.37-.41-14.84.78-29.66,2.38-44.4,3.25-30.03,6.81-59.81,7.61-90.04,1.62-60.71-3.42-121.31-5.81-181.92-2.36-59.8-2.06-120.06,9.76-178.96,5.79-28.85,13.5-58.27,9.54-87.9-1.78-13.34-8.71-28.09-2.61-41.18,4.03-8.65,11.25-15.34,17.43-22.43s11.87-14.42,13.62-23.53c1.09-5.65.26-10.93-.61-16.54-.69-4.46-1.96-15.36,5.48-14.9,6.43.4,6.4-9.6,0-10h0Z"/>
</svg>