<?xml version="1.0" encoding="UTF-8"?>
<svg id="Layer_2" xmlns="http://www.w3.org/2000/svg" version="1.1" viewBox="0 0 1920 1080">
  <!-- Generator: Adobe Illustrator 29.8.1, SVG Export Plug-In . SVG Version: 2.1.1 Build 2)  -->
  <path d="M1693.91,300.02c-1.77-3.23-3.29-6.95-5.56-9.86s-5.42-3.29-8.94-3.29c-7.36,0-14.77,1.6-21.54,4.43-13.23,5.53-23.1,16.04-21.31,31.23,1.58,13.45,11.96,25.29,24.28,30.38s27.19,2.18,34.09-9.86c4.04-7.05,4.67-15.36,3.75-23.29s-2.52-17.14-6.39-24.54c-2.24-4.28-8.72-.49-6.48,3.79,3.12,5.95,4.33,13.36,5.26,19.97.99,6.99.92,14.8-2.99,20.96-8.25,13.01-25.59,7.99-34.81-.88s-14.03-25.24-2.77-34.9c5.42-4.64,12.76-7.42,19.66-8.82,2.96-.6,7.04-1.51,10.11-.93,3.66.69,5.5,6.39,7.17,9.44,2.32,4.23,8.8.45,6.48-3.79h0Z"/>
  <path d="M1663.02,291.65c-3.8-3.39-6.23-7.83-9.32-11.82-3.33-4.32-7.07-8.24-11.38-11.59-7.49-5.82-17.65-10.51-27.38-8.89-12.49,2.08-8.36,14.11-4.96,22.44,3.5,8.55,9.58,14.83,16.93,20.24s15.16,9.35,21.96,15.07c8.74,7.34,11.24,15.92,13.39,26.83,3.99,20.27,15.03,44.39,38.57,46.39,13.33,1.13,13.52-13.05,13.15-23.02-.48-12.74-4.48-25.12-11.39-35.81-2.61-4.04-9.11-.28-6.48,3.79,5.11,7.9,8.54,16.66,9.84,25.99.62,4.43.73,8.94.4,13.4-.13,1.72,0,4.99-.94,6.51-1.66,2.67-5.51,1.64-8.07.94-20.11-5.46-25.27-27.82-28.86-45.48-1.59-7.8-4.42-14.68-9.83-20.59-4.62-5.04-10.42-8.92-16.13-12.62s-11.86-7.34-16.96-12.09c-2.52-2.34-4.78-4.92-6.51-7.9-1.25-2.15-2.22-4.44-3.05-6.78-.68-1.93-2.72-5.84-2.4-7.86.66-4.24,10.14-1.7,12.81-.85,4.58,1.45,8.86,4.08,12.53,7.16,7.51,6.33,11.56,15.42,18.76,21.86,3.59,3.21,8.91-2.08,5.3-5.3h0Z"/>
  <path d="M1448.71,777.86c9.72,1.38,19.18-3.02,23.93-11.82,5.89-10.93-2.68-21.15.29-32.17,2.76-10.22,10.85-18.19,15.81-27.33,5.3-9.75,7.8-21,7.16-32.07-1.24-21.68-14.38-41.27-34.13-50.45-8.97-4.17-21.89-8.31-31.41-3.76-8.62,4.12-11.5,14.11-11.77,22.97-.36,11.74,2.5,23.85,7.05,34.6,2.24,5.29,5.65,10.38,6.98,16.01,1.7,7.22-2.71,10.15-8.27,13.53-21.09,12.81-43.81,22.94-61.78,40.29-16.82,16.22-30.92,36.8-42.48,57.04-4.98,8.72-7.44,20.77,1,28.35,7.66,6.88,21.56,4.26,30.34,1.22,11.48-3.97,21.07-11.41,27.92-21.43,7.56-11.04,11.33-24.72,20.83-34.41,4.24-4.32,9.65-8.04,15.86-8.45,6.71-.44,12.71,3.49,18.56,6.17,9.6,4.4,22.12,6.74,30.07-2.07,4.3-4.77-2.75-11.86-7.07-7.07-6.82,7.56-18.24.18-25.33-3.04-8.51-3.87-17.11-5.42-26-1.75-19.7,8.14-24.51,29.58-35.56,45.57-5.66,8.19-13.88,14.34-23.4,17.31-7.37,2.3-23.18,5.44-21.84-6.99.56-5.21,4.15-9.93,6.88-14.21,2.92-4.57,5.85-9.13,8.85-13.64,5.91-8.89,12.1-17.61,19.11-25.67,14.36-16.54,31.99-27.7,50.97-38.24,8.59-4.77,18.56-9.13,25.88-15.79,7.58-6.9,6.67-16.62,2.96-25.29-4.29-10.02-8.93-19.17-10.67-30.09-1.14-7.14-3.04-21.31,4.82-25.71,7.39-4.14,20.53,1.78,27.05,5.58,8.24,4.8,15.06,11.82,19.43,20.31,5.16,10.02,6.54,22.05,4.16,33.03-2.37,10.94-8.83,19.25-14.73,28.47s-9.31,18.32-7.14,29.02c1.07,5.28,3.53,10.58.66,15.72-2.35,4.2-7.42,7.33-12.32,6.63-6.29-.89-9.01,8.74-2.66,9.64h0Z"/>
  <path d="M1261.3,253.73c-1.71,8.91-5.07,17.21-10.2,24.71-2.49,3.64-5.41,6.97-8.61,10s-7.58,5.3-10.68,8.57c-7.24,7.64,2.15,14.42,6.21,20.72,5.44,8.44,8.72,17.84,10.14,27.76.82,5.74,9.68,4.09,9.82-1.33.21-7.92.68-16.26,4.55-23.37,1.72-3.16,4.01-5.97,7.03-7.96,2.76-1.82,5.78-2.78,7.79-5.58,4.05-5.62,1.88-15.49,1.02-21.81-1.18-8.68-3.39-17.07-6.59-25.23-2.32-5.92-12-3.34-9.64,2.66,3.25,8.27,5.64,16.9,6.63,25.75.38,3.33,1.41,7.9.62,11.18-.56,2.32-1.53,2.43-3.61,3.64-1.23.71-2.38,1.49-3.5,2.36-11.76,9.13-13.93,24.42-14.31,38.35l9.82-1.33c-1.3-9.09-4.21-17.87-8.64-25.93-2.18-3.97-4.76-7.68-7.6-11.2-.47-.59-1.41-2.23-2.11-2.5-.52-.87-.71-.82-.56.13-.21.95,0,1.01.65.19,1.5-.27,4.17-3.08,5.39-4.03,13.49-10.66,22.78-26.24,26.01-43.09,1.21-6.29-8.43-8.98-9.64-2.66h0Z"/>
  <path d="M641.75,878.43c-2.53-12.22-2.31-24.87.67-36.99,1.42-5.78,3.42-11.43,6.06-16.77,2.43-4.92,6.69-9.63,8.08-14.97s-.93-9.01-5.41-11.47c-5.16-2.83-10.26-5.47-15.01-8.98-9.6-7.1-17.51-16.22-23.54-26.48-2.77-4.71-11.23-1.59-9.14,3.85,3.81,9.95,7.46,20.46,6.56,31.28-.41,4.92-1.85,9.88-4.55,14.04s-6.61,7.14-7.02,12.24c-.38,4.74,2.23,9.38,4.18,13.56,2.18,4.66,4.62,9.18,7.31,13.56,5.46,8.87,11.95,17.1,19.19,24.59,4.48,4.64,11.55-2.44,7.07-7.07-6.87-7.11-12.94-14.84-18.08-23.29-2.52-4.15-4.81-8.43-6.86-12.83-.92-1.97-3.28-5.64-2.82-7.99.38-1.96,3.12-4.2,4.28-5.76,12.11-16.34,7.04-37.58.38-54.97-3.05,1.28-6.09,2.57-9.14,3.85,5.59,9.52,12.68,18.19,21.12,25.33,4.38,3.7,9.04,7.08,13.99,9.99,1.41.83,6.3,2.42,7.04,3.73,1.11,1.95-1.99,5.09-3.07,6.9-12.02,20.17-15.66,44.42-10.92,67.33,1.3,6.3,10.94,3.63,9.64-2.66h0Z"/>
  <path d="M1814.81,957.31c1.64,10.78,3.38,22.23.58,32.96s-10.32,18.23-17.73,25.73c-2.27,2.29-1.77,6.21,1.01,7.85,7.34,4.33,15.72,4.41,23.48,7.46,7.35,2.89,13.05,9.02,15.66,16.43,2.18,6.17,10.61,3.64,9.64-2.66-1.44-9.37-1.56-19.04-.24-28.44.6-4.25,1.54-8.43,2.64-12.57.92-3.46,1.73-6.44-.27-9.76s-5.1-5.91-7.41-8.8c-2.6-3.25-5-6.66-7.26-10.16-4.75-7.35-8.78-15.15-12.01-23.29-2.34-5.91-12.02-3.34-9.64,2.66,6.16,15.55,14.67,29.88,25.71,42.47,1.73,1.98,1.81,1.69,1.24,4.22-.55,2.39-1.22,4.74-1.71,7.14-.81,4.04-1.39,8.13-1.76,12.23-.82,9.03-.3,18.01,1.07,26.95l9.64-2.66c-2.99-8.49-8.52-15.77-16.31-20.43-8.52-5.1-18.98-4.46-27.42-9.43l1.01,7.85c8.63-8.73,17.11-17.95,20.3-30.14s1.35-25.66-.58-38.28c-.97-6.34-10.6-3.65-9.64,2.66h0Z"/>
  <path d="M1104.73,822.09c-1.7,6.65-3.89,13.13-6.85,19.33-1.38,2.89-2.88,5.72-4.52,8.48s-3.85,5.2-4.91,8.12c-1.92,5.26,1.78,8.68,5.84,11.22,5.42,3.39,9.4,8.46,10.27,14.96s9.27,6.49,10,0c.56-4.95,1.73-9.82,3.44-14.5s5.14-8.66,6.3-13.2c1.06-4.14-1.57-8.09-3.21-11.74-2.26-5.03-4.53-10.07-6.79-15.1-2.64-5.86-11.26-.78-8.63,5.05,2.01,4.48,4.03,8.95,6.04,13.43.61,1.36,3.2,5.2,2.96,6.63-.34-.99-.71-.66-1.12.99-.57.99-1.11,2-1.62,3.02-4.05,8.03-6.35,16.52-7.36,25.43h10c-.73-5.45-2.34-10.44-5.59-14.93-1.74-2.4-3.75-4.46-6.09-6.27-.94-.72-1.89-1.39-2.9-2.01-.59-.35-1.18-.7-1.78-1.03-.12,1.12.05,1.17.53.16,1.17-2.81,3.51-5.5,5-8.2s2.95-5.69,4.24-8.62c2.64-6.02,4.78-12.18,6.41-18.54s-8.05-8.9-9.64-2.66h0Z"/>
  <path d="M190.49,59.07c.42,12.24.2,23.75-6.97,34.19-2.99,4.36-6.64,8.22-10.15,12.15-2.95,3.3-7.99,7.44-8.3,12.13-.32,4.98,5.23,7.63,8.72,10.07,5,3.48,10.12,6.78,15,10.42,8.94,6.68,17.22,14.86,20.56,25.79,1.61,5.27,9.95,4.47,9.82-1.33-.21-9.88-.49-19.95,1.36-29.71.89-4.7,2.2-9.37,4.3-13.67s4.77-7.97,2.98-13.07c-1.59-4.54-5.08-8.62-7.56-12.71-2.66-4.39-5.21-8.86-7.62-13.39-5.21-9.75-9.8-19.81-13.79-30.11-2.3-5.94-11.97-3.36-9.64,2.66,3.65,9.42,7.71,18.68,12.29,27.68,2.33,4.58,4.78,9.09,7.36,13.53s5.87,8.59,8.09,13.11-1.6,8.72-3.21,12.99-2.7,8.98-3.39,13.61c-1.43,9.65-1.38,19.36-1.17,29.08l9.82-1.33c-3.02-9.85-9.14-18.18-16.76-25.01-4.03-3.62-8.42-6.84-12.85-9.94-2.5-1.74-5.03-3.44-7.54-5.16-1.82-1.25-6.44-3.45-7.55-5.36l.5,3.85c.28-2.08,3.24-4.36,4.59-5.88,1.91-2.15,3.85-4.26,5.73-6.43,3.47-4,6.87-8.18,9.47-12.81,6.13-10.9,6.31-23.17,5.89-35.34-.22-6.42-10.22-6.45-10,0h0Z"/>
  <path d="M494.32,320.28c.27,18.49-7.52,35.89-7.88,54.34-.36,18.59,8.76,31.76,20.81,44.96l2.21-8.36c-25.15,10.54-40.79,33.53-51.19,57.83l9.32,2.52c1.11-14.81,2.09-29.8-1.04-44.44-1.36-6.36-3.56-12.63-6.68-18.35-1.15-2.11-4.63-5.59-4.2-7.65.19-.9,2.94-3.4,3.55-4.1,1.2-1.36,2.4-2.7,3.61-4.05,17.93-19.93,37.8-41.47,37.65-70.03-.03-6.43-10.03-6.45-10,0,.16,29.27-23.79,49.92-41.3,70.41-4.52,5.29-5.68,8.92-1.48,14.86,3.95,5.59,6.7,11.7,8.44,18.31,3.84,14.68,2.57,30.09,1.46,45.04-.35,4.76,7.36,7.09,9.32,2.52,9.18-21.46,22.75-43.82,45.22-53.24,3.47-1.45,4.96-5.34,2.21-8.36-5.44-5.96-11.06-12.04-14.49-19.43s-3.82-15.69-3.09-23.7c1.5-16.58,7.82-32.29,7.58-49.1-.09-6.43-10.09-6.45-10,0h0Z"/>
  <path d="M1051,294.18c-6.99-12.07-8.35-26.38-14.99-38.62-6.64-12.25-17.57-17.57-30.33-21.75l2.24,5.51c12.26-15.96,13.67-36.94,11.57-56.26l-6.99,1.89c4.43,9.42,8.97,18.81,15.6,26.92,2.99,3.66,6.41,6.95,10.25,9.72,1.88,1.36,3.85,2.57,5.93,3.59,1.62.79,1.68.66,2.07,2.12.31,1.16-.71,3.5-.96,4.64-4.46,20.77-10.51,43.05.66,62.84,2.37,4.2,8.85.43,6.48-3.79-5.6-9.93-6.24-21.4-4.82-32.51.74-5.78,2.01-11.48,3.28-17.16,1.12-5,3.35-10.85,3.22-16.01-.11-4.25-3.63-5.3-6.83-6.96-4.33-2.24-8.09-5.31-11.41-8.86-7.58-8.11-12.3-18.41-16.98-28.34-1.54-3.28-7.39-1.77-6.99,1.89,1.98,18.17,1,37.45-10.55,52.48-1.56,2.04.2,4.84,2.24,5.51,6.24,2.05,12.84,4.11,18,8.36,4.5,3.7,7.57,8.82,9.86,14.11,4.91,11.32,6.72,23.67,12.97,34.46,2.42,4.17,8.9.4,6.48-3.79h0Z"/>
  <path d="M1462.51,944.08c4.37,8.4,4.92,18.2,9.33,26.62,4.45,8.49,12.11,12.37,20.75,15.58l-2.21-8.36c-9.11,11.19-11.08,25.23-10.12,39.27l9.32-2.52c-2.71-6.34-5.48-12.65-9.67-18.18-1.87-2.47-3.93-4.72-6.33-6.69-1.85-1.52-5.08-2.63-6.62-4.27l1.46,3.54c-.03-4.21,2.04-8.82,3.05-12.89,1.06-4.27,1.94-8.56,2.38-12.94.78-7.69-.33-15.2-3.82-22.12-2.9-5.75-11.53-.69-8.63,5.05,3.27,6.5,3.17,13.93,1.86,20.93-.75,4.01-1.83,7.94-2.86,11.89-.81,3.12-2.33,6.8-1.98,10.08.27,2.52,1.64,4.01,3.73,5.26,2.89,1.73,5.49,3.27,7.83,5.79,5.11,5.53,8.04,12.77,10.95,19.6,1.95,4.58,9.64,2.22,9.32-2.52-.76-11.05-.12-23.23,7.19-32.2,2.47-3.04,1.52-6.98-2.21-8.36-8.3-3.08-13.67-6.78-16.65-15.44-2.56-7.44-3.79-15.11-7.46-22.16-2.97-5.71-11.6-.66-8.63,5.05h0Z"/>
  <path d="M322.87,803.38c27.95,6.04,56.6,6.39,84.7,1.09l-6.15-6.15c-4.79,13.41-20.82,21.75-17.81,37.96.63,3.39,2.37,6.16,4.13,9.07,2.37,3.93,2.15,7.45.98,11.79-2.17,8.08-4.18,15.83-4.62,24.24-1.72,32.75,14.21,65.41,6.56,98.02-1.29,5.48-4.12,17.81-10.6,19.17-3.31.69-6.96-.7-10.3-.84-3.65-.16-7.18.62-10.3,2.56-2.59,1.61-4.65,3.86-7.03,5.73-1.16.91-3.14,2.55-4.76,2.23-2.07-.41-1.58-2.8-1.45-4.63.54-7.29-.15-12.64-3.98-19.02-1.99-3.32-4.34-6.44-5.59-10.14-1.36-4.03-1.8-8.28-2.23-12.48-.83-8.05-2.14-15.84-4.96-23.46-5.59-15.08-15.09-27.43-23.46-40.96-4.72-7.64-9-16.75-7.36-25.99,1.52-8.59,8.78-14.33,13.09-21.49,8.3-13.8,5.46-31.61,14.89-44.77,3.75-5.24-4.92-10.24-8.63-5.05-9.31,12.99-6.72,29.8-14.11,43.42-3.81,7.01-10.06,12.33-13.17,19.77s-2.87,16.31-.45,24.13c5.13,16.64,18.26,29.71,25.91,45.19,3.99,8.07,6.87,16.71,7.9,25.68.97,8.43,1.42,16.83,5.45,24.49,1.7,3.23,4.03,6.12,5.64,9.4,2.01,4.08,1.21,7.67,1.02,12.01-.31,6.88,3.16,13.64,10.79,13.96,3.48.14,7.02-1.21,9.86-3.13s5.16-5.07,8.29-6.64c3.63-1.82,7.98-.28,11.8.03s7.82-.35,11.07-2.69c6.06-4.37,9.19-12.97,11.27-19.86,2.36-7.83,3.27-16.13,3.32-24.29.1-17.88-4.1-35.33-6.72-52.91-1.57-10.57-2.52-21.38-1.38-32.04.99-9.25,6.19-18.52,5.11-27.89-.55-4.79-3.37-7.87-5.31-12.07-2.09-4.55-.31-9.3,2.1-13.34,4.7-7.86,11.55-13.67,14.71-22.5,1.39-3.89-2.73-6.8-6.15-6.15-26.26,4.95-53.26,4.55-79.38-1.09-6.27-1.36-8.96,8.28-2.66,9.64h0Z"/>
  <path d="M188.15,576.8c5.91,19.23-8.06,38.04-11.58,56.46-4.05,21.25,4.32,41.37,5.04,62.43.49,14.43-3.55,34.37-19.44,39.28-11.04,3.42-17.53-5.11-17.16-15.49.31-8.75,4.73-16.89,8.59-24.53s8.2-15.89,9.9-24.6c1.88-9.6.65-19.46-2.85-28.55-7.54-19.56-23.14-33.42-37.53-47.96s-24.67-29.79-31.51-48.34c-6.63-17.95-9.99-36.94-11.68-55.96s-1.84-38.52-1.7-57.79c.09-11.44.35-22.97,2.51-34.23,2-10.39,5.63-20.34,9.44-30.19,3.9-10.1,8.03-20.16,10.72-30.67,2.65-10.33,3.95-21,4.57-31.64,1.28-21.77-.39-43.62,1.3-65.38.38-4.92.93-9.83,1.78-14.69.46-2.65,1-5.28,1.63-7.89.45-1.88,2.78-6.77,2.43-8.66l.28-.86c-2.42-.63-2.76-.34-1.02.89.33.65,1.65,1.71,2.07,2.18,1.37,1.54,2.62,3.17,3.75,4.9,2.65,4.03,4.73,8.37,6.23,12.95,6.36,19.34,3.07,39.66-2.39,58.79-6.16,21.55-14.06,42.48-18.5,64.52-4.12,20.43-5.7,41.37-2.45,62.04,2.9,18.39,9.81,36.35,21.25,51.13,5.58,7.22,12.9,12.66,18.66,19.65,6.99,8.49,4.91,17.58-.83,26.14-9.83,14.67-30.13,29.75-22.16,49.96,6.27,15.92,25.71,18.23,40.55,17.09,9.68-.74,20.27-2.49,29.45,1.64,5.82,2.62,10.91-5.99,5.05-8.63-9.75-4.39-19.81-4.21-30.28-3.36-8.93.73-18.39,1.68-26.83-2.08-24.01-10.71,3.07-36.04,11.42-47.53,5.75-7.92,9.9-17.43,7.72-27.36-1.97-8.97-9.03-15.28-15.4-21.32-14.91-14.12-23.91-32.49-27.96-52.5-4.47-22.08-2.37-44.98,2.43-66.81,5.02-22.8,13.77-44.45,19.45-67.04,4.96-19.78,6.79-41.15-.8-60.53-3.2-8.17-8.3-17.76-15.68-22.93-9.86-6.91-13.81,6.18-15.63,13.33-5.57,21.83-5.01,44.56-4.96,66.91.05,23.35-1.15,46.02-9.03,68.21-3.83,10.78-8.45,21.27-11.97,32.17s-5.39,21.75-6.17,33c-1.46,21.07-.98,42.63.18,63.71,2.16,39.21,9.81,79.64,35,111.01,13.94,17.36,33.21,30.43,43.94,50.31,5.1,9.46,8.06,20.46,5.61,31.15-2.14,9.33-7.14,17.62-11.27,26.15-6.94,14.34-13.78,39.17,4.9,48.27,16.73,8.15,33.84-5.91,39.97-20.81,7.63-18.54,3.42-37.86.18-56.85-1.93-11.29-3.08-22.69-.24-33.93,2.56-10.17,7.09-19.69,9.97-29.76,2.64-9.23,3.57-18.76.71-28.05-1.89-6.13-11.54-3.52-9.64,2.66h0Z"/>
  <path d="M794.47,446.97c-18.23-8.18-36.26,5.68-48.14,18.68s-16.22,31.5-5.01,47.01,30.41,20.08,48.47,19c8.42-.5,17.85-1.82,23.62-8.67,5.77-6.84,7.45-17.19,8.45-25.79,2.3-19.86-4.81-42.13-24.17-50.94-5.81-2.65-10.9,5.97-5.05,8.63,17.06,7.77,21.76,27.34,18.88,44.52-1.52,9.08-3.35,18.76-13.47,21.19-8.62,2.07-18.76,1.77-27.34-.3-16.29-3.94-32.19-19.79-24.22-37.54,3.54-7.88,10.41-14.07,17.01-19.42,6.99-5.66,16.67-11.9,25.91-7.75,5.82,2.61,10.91-6,5.05-8.63h0Z"/>
  <path d="M739.17,475.44c-9.35,4.67-18.29,10.1-26.67,16.35-6,4.48-18.55,11.56-16.5,20.63,1.93,8.54,13.89,11.48,21.29,11.16,9.98-.42,18.58-5.33,27.4-9.49,20.06-9.47,43-5.54,63.7-12.75,17.41-6.06,39.81-14.17,46.22-33.4,3.01-9.03.66-19.62-10.69-18.95-11.52.68-23.25,5.15-33.42,10.37-5.73,2.94-.68,11.57,5.05,8.63,7.13-3.65,14.62-6.34,22.47-7.98,1.68-.35,3.38-.71,5.09-.9,2.08-.24,2.63-.52,2.87,1.63.34,3.07-1.9,6.99-3.5,9.44-4.21,6.44-10.98,10.5-17.78,13.73-7.51,3.58-15.46,6.93-23.47,9.23-15.38,4.41-31.69,3.1-47.18,6.97-7.59,1.89-14.42,5.44-21.43,8.79-6.37,3.05-13.6,5.89-20.77,4.28-1.65-.37-4.8-1.03-5.06-2.91-.22-1.61,2.41-3.11,3.6-4.12,3.44-2.91,7-5.67,10.68-8.28,7.35-5.2,15.1-9.77,23.15-13.8,5.76-2.88.7-11.51-5.05-8.63h0Z"/>
  <path d="M203.41,1017.36c-.45,5.28-3.18,9.87-6.35,13.98-2.55,3.32-7.44,7.02-7.31,11.57s4.15,6.56,6.95,9.27c3.81,3.69,6.94,7.86,9.61,12.42,2.41,4.12,9.61,2.55,9.32-2.52-.46-8,2.84-15.42,9.57-19.95,2.86-1.92,3.14-5.27,1.01-7.85-4.59-5.59-8.87-11.38-12.9-17.37-3.57-5.31-12.24-.31-8.63,5.05,4.51,6.7,9.34,13.16,14.47,19.4l1.01-7.85c-9.55,6.42-15.19,17-14.52,28.59l9.32-2.52c-2.23-3.8-4.77-7.4-7.66-10.73-1.49-1.71-3.08-3.35-4.76-4.88-.8-.73-1.9-1.4-2.58-2.23l.21,1.49c.56-.65,1.12-1.3,1.67-1.96,5.97-7.1,10.77-14.43,11.58-23.88.55-6.41-9.45-6.37-10,0h0Z"/>
  <path d="M390.65,126.22c-1.06,3.45-2.87,6.63-5.33,9.28-1.25,1.34-2.64,2.5-4.14,3.55s-3.2,1.95-4.48,3.23c-1.19,1.19-.63,2.63.51,3.59,1.31,1.1,2.55,2.22,3.58,3.61,2.11,2.84,3.38,6.25,3.61,9.77.09,1.37,2.06,1.75,2.46.33.74-2.67,2.54-4.78,4.71-6.44,1.09-.84,2.27-1.57,3.48-2.24s2.69-1.16,3.54-2.28c1.87-2.47-.44-5.73-1.3-8.12-1.16-3.2-1.82-6.54-2-9.94-.08-1.6-2.59-1.61-2.5,0,.17,3.24.73,6.46,1.73,9.55.47,1.45,1.06,2.83,1.67,4.22.27.63.69,1.46.62,2.17-.08.84-.86,1.11-1.52,1.45-4.65,2.38-9.34,5.68-10.82,10.97l2.46.33c-.22-3.32-1.18-6.55-2.88-9.42-.84-1.42-1.86-2.75-3.01-3.93-.52-.53-1.32-1.51-2.02-1.8-.12-.25-.26-.29-.39-.14-.19.14-.16.11.1-.1.43-.36.91-.68,1.36-1,2.97-2.09,5.89-4.08,8.2-6.94,2.17-2.69,3.79-5.73,4.81-9.04.48-1.54-1.94-2.2-2.41-.66h0Z"/>
  <path d="M1246.4,484.26c1.31,10.04,1.28,20.31-1.95,29.99-.78,2.35-1.83,4.73-2.26,7.18-.45,2.61.91,4.51,2.69,6.21,3.01,2.88,5.44,6.31,7.54,9.9,2.85,4.88,5.06,10.09,6.75,15.48.4,1.29,1.74,2.11,3.08,1.75,1.43-.39,1.94-1.73,1.75-3.08-1.1-7.47.32-14.87,3.75-21.55.93-1.82,1.52-3.56,1.28-5.64-.25-2.23-1.09-4.29-2.05-6.3-1.94-4.06-4.09-7.99-5.86-12.13-2.09-4.87-3.87-9.89-5.43-14.96-.94-3.07-5.77-1.76-4.82,1.33,2.76,9,6.29,17.76,10.68,26.09.93,1.76,1.87,3.54,2.35,5.48.41,1.66,0,2.68-.74,4.15-1.58,3.18-2.88,6.52-3.63,10-1.07,4.93-1.08,9.89-.35,14.86l4.82-1.33c-2.85-9.11-7.1-18.13-13.44-25.35-.61-.69-1.24-1.36-1.9-2.01-.49-.48-1.41-1.05-1.57-1.77s.51-2.01.73-2.7c.41-1.29.87-2.58,1.3-3.86,1.53-4.53,2.46-9.14,2.85-13.91.49-5.94.2-11.93-.57-17.84-.18-1.34-1.02-2.5-2.5-2.5-1.21,0-2.68,1.15-2.5,2.5h0Z"/>
  <path d="M537.29,661.54c5.73-7.46,12.67-14.4,21.09-18.76,2.4-1.24,4.92-2.29,7.24-3.69s3.1-3.47,3.05-5.99c-.09-4.33.5-8.55,1.59-12.74,1.43-5.55,3.57-10.87,6.22-15.94,1.52-2.91-2.43-5.06-4.32-2.52-4.43,5.95-10.52,10.18-17.52,12.49-2.03.67-3.82,1.4-5.2,3.11s-2.21,3.61-2.94,5.61c-1.52,4.18-2.73,8.46-4.37,12.61-2.01,5.09-4.35,10.05-6.92,14.89-1.51,2.84,2.81,5.37,4.32,2.52,4.51-8.49,8.2-17.35,11.07-26.52.56-1.8,1.15-3.6,2.16-5.21.95-1.51,2.19-1.84,3.79-2.39,3.28-1.13,6.47-2.58,9.38-4.47,4.15-2.7,7.61-6.16,10.56-10.13l-4.32-2.52c-4.52,8.63-8,18.27-8.47,28.08-.05.99-.05,1.97-.02,2.96.02.58.12,1.21-.29,1.67-.35.4-1.31.74-1.78.99-.56.3-1.13.58-1.7.87-1.2.6-2.41,1.17-3.61,1.78-4.22,2.15-8.05,4.9-11.61,8.02-4.35,3.82-8.18,8.17-11.71,12.76-.82,1.07-.16,2.8.9,3.42,1.29.75,2.6.18,3.42-.9h0Z"/>
  <path d="M1851.07,853.99c-.09,4.81-.18,9.26-3.76,12.87-2.33,2.35-5.85,3.84-6.98,7.17-1.24,3.65,1.01,6.07,2.88,8.97,2.46,3.8,4.21,7.84,5.47,12.18,1.51,5.21,10.34,4.48,9.82-1.33-.31-3.42.35-6.73,2.82-9.27,1.88-1.94,4.68-2.74,5.7-5.47,1.15-3.07-.49-6.76-1.3-9.75-1.12-4.13-2.25-8.26-3.37-12.4-1.69-6.2-11.34-3.57-9.64,2.66,1.12,4.13,2.25,8.26,3.37,12.4.05.17,1.45,6.84,2.48,2.14-.12.57-3.23,2.33-3.8,2.87-4.55,4.3-6.81,10.63-6.26,16.82l9.82-1.33c-.96-3.3-2.16-6.5-3.67-9.59-1.16-2.38-4.43-5.81-4.93-8.3l-.5,3.85c.68-1.54,3.27-2.87,4.55-4.02,1.94-1.73,3.58-3.69,4.74-6.03,2.22-4.48,2.47-9.53,2.56-14.44.12-6.44-9.88-6.44-10,0h0Z"/>
  <path d="M1740.46,25.74c-1.57,5.75-3.13,11.73-7.53,16.03-3.3,3.22-9.98,5.31-10.56,10.5s6.36,7.83,9.12,11.35c3.75,4.79,2.73,11.75,4.72,17.28,1.56,4.32,8.46,5.16,9.64,0,1.31-5.69,3.46-10.97,6.69-15.85s7.35-7.56,11.14-11.54c3.94-4.14.63-8.63-1.59-12.77-3.22-6.02-6.44-12.05-9.66-18.07-3.03-5.68-11.67-.63-8.63,5.05,2.05,3.83,4.1,7.67,6.14,11.5,1.91,3.58,4.81,7.42,5.93,11.3l.5-3.85c-.92,1.78-4.93,4.12-6.39,5.66-2.23,2.37-4.29,4.97-6.08,7.68-3.67,5.54-6.22,11.77-7.7,18.24h9.64c-1.91-5.28-1.47-11.07-3.77-16.24-.99-2.24-2.4-4.2-4.04-6.02-1.82-2.02-4.83-3.49-6.44-5.57l.5,3.85c-.44,1.38,2.79-1.35,2.87-1.4,1.04-.76,2.08-1.53,3.07-2.34,2.27-1.85,4.22-3.94,5.85-6.37,3.15-4.7,4.73-10.34,6.2-15.75,1.7-6.22-7.95-8.87-9.64-2.66h0Z"/>
  <path d="M159.86,357.85c-.12,6.76-.23,13.63-2.02,20.2s-5.46,11.54-9.78,16.51c-1.13,1.3-2.28,2.59-3.38,3.92-1.23,1.47-2.41,3.18-1.76,5.2.52,1.62,1.94,2.37,3.39,3s2.98,1.3,4.45,1.99c5.45,2.56,10.61,5.71,13.72,11.04,3.54,6.09,4.86,13.25,9.09,18.97.67.91,1.67,1.47,2.82,1.15,1.03-.28,1.87-1.32,1.84-2.41-.42-11.93,2.06-23.94,7.27-34.69,1.33-2.75,2.83-5.43,4.48-8,.75-1.17,1.54-2.32,2.35-3.44.93-1.28,2.06-2.47,2.92-3.8,2.36-3.62-1.53-6.57-3.76-9.02-2.46-2.71-4.93-5.42-7.39-8.13-5.49-6.03-10.98-12.07-16.46-18.1-2.17-2.39-5.7,1.16-3.54,3.54,4.76,5.23,9.52,10.46,14.28,15.7,2.41,2.65,4.82,5.29,7.22,7.94,1.12,1.23,2.24,2.46,3.36,3.69.56.62,1.12,1.23,1.68,1.85-.32-.35.44.5.46.49.09-.68.04-.85-.15-.49-.18.22-.35.43-.52.65-7.38,9.26-12.65,20.14-15.28,31.69-1.5,6.59-2.16,13.37-1.92,20.12l4.66-1.26c-3.67-4.96-5.17-11.02-7.81-16.52-2.79-5.83-7.22-10.12-12.83-13.26-2.72-1.52-5.57-2.77-8.42-4.01-.24-.11-1.09-.63-1.37-.6l.19,1.06c.09-.17.19-.33.29-.48.24-.35.56-.67.83-.99,1.12-1.31,2.26-2.61,3.39-3.91,4.37-5.07,8.15-10.35,10.14-16.82,2.25-7.34,2.42-15.16,2.55-22.77.06-3.22-4.94-3.22-5,0h0Z"/>
  <path d="M1551.28,551.62c-8.54,5.32-21.85,10.66-20.56,23.07.4,3.85,2.57,7.68,5.97,9.64,5.22,3.01,11.25.29,16.16-2.03s9.01-5.09,12.95-8.44,11.18-13.34,16.69-8.06c4.71,4.52.81,11.93-2.04,16.17-3.21,4.78-7.43,9.33-8.12,15.3-1.11,9.69,8.48,16.14,17.45,13.85,11.74-2.99,15.3-15.45,20.99-24.51,3.58-5.69,8.53-9.95,15.57-8.31,7.35,1.72,14.61,4.48,21.81,6.73,5.8,1.81,11.69,3.51,17.23,6.04,6.67,3.04,11.92,7.54,17.56,12.1,9.72,7.85,20.28,11.24,32.56,12.79,11.72,1.47,24.82,2.46,34.75-5.16,7.02-5.39,12.88-16.87,4.69-23.8-4.08-3.45-9.25-6.08-14.55-6.87-6.54-.98-11.68,1.98-17.81,3.63-13.79,3.7-27.35-4.55-39-10.82-10.76-5.79-20.99-9.63-33.24-10.52-5.97-.43-12.36-.67-17.3-4.47s-7.42-9.53-10.94-14.32c-6.79-9.24-16.95-15.5-27.25-20.18-11.75-5.33-25.34-8.39-37.1-1.44-2.97,1.75-5.54,3.95-8.97,4.77-3.63.87-7.42.3-11.01-.46-6.72-1.42-13.62-4.37-20.6-4.06-4.88.21-9.82,2.64-11.6,7.46-2.18,5.92,1.86,10.37,6.55,13.38,5.17,3.32,11.22,5.27,17.32,5.85,3.54.34,6.9-.03,10.4-.42,1.84-.2,3.88-.6,5.74-.32,1.14.17,7.93,3.44,3.8,4.7-4.6,1.41-2.64,8.65,1.99,7.23,8.2-2.51,8.27-13.13,1.36-17.32-4.61-2.79-9.71-2.08-14.79-1.54-6.08.65-12.02.17-17.68-2.31-1.81-.79-6.94-3.05-7.57-5.07-1.4-4.51,5.87-4.25,8.06-3.95,5.66.78,11.08,2.89,16.7,3.93,4.93.92,10.06,1.26,14.9-.33,5.15-1.69,9.02-5.76,14.21-7.34,11.22-3.41,23.83,2.78,33.34,8.25,4.62,2.66,9.04,5.65,12.77,9.49s6.46,9,9.77,13.48c6.27,8.47,14.44,11.39,24.67,12.24,5.14.42,10.22.61,15.22,2.01,6.17,1.73,11.87,4.69,17.48,7.72,9.79,5.27,19.67,10.88,30.88,12.33,4.95.64,9.94.43,14.75-.98,7.08-2.08,12.35-4.98,19.59-1.35,2.5,1.25,5.27,2.6,6,5.36s-.67,5.16-2.31,7.23c-3.8,4.81-9.95,6.87-15.85,7.38-11.45.99-25.75-.77-36.13-5.9-10.35-5.12-17.66-14.45-28.35-19.22s-22.02-7.62-33.06-11.06c-4.97-1.55-10.16-3.57-15.45-2.59-4.4.82-8.32,3.39-11.36,6.62-6.96,7.39-9,21.75-18.87,26.04-2.66,1.15-6.43,1.32-8.62-.99-2.57-2.71-.85-6.36.72-9.1,3.01-5.25,7.27-9.47,9.24-15.32,2.91-8.64-1.07-20.94-11.73-21.08-5.13-.06-9.37,3.12-13,6.4-4.59,4.15-8.83,8.2-14.33,11.2-2.67,1.46-8.41,4.96-11.47,3.49s-2.59-5.6-1.41-8.01c2.9-5.91,10.76-8.49,16-11.75,4.09-2.55.33-9.04-3.79-6.48h0Z"/>
  <path d="M1563.13,524.31c8.47-9.41,10.42-23.24,4.51-34.55-5.65-10.81-18.09-17.74-30.22-17.32s-23.16,8.79-26.77,20.85c-3.78,12.63,1.93,26.31,12.08,34.17,3.77,2.92,9.12-2.35,5.3-5.3-7.52-5.82-12.57-15.07-10.67-24.78s10.06-17.06,20.05-17.45c20.05-.77,34.79,23.08,20.4,39.07-3.22,3.58,2.07,8.9,5.3,5.3h0Z"/>
  <path d="M1554.88,573.53c-2.62,4.87-5.03,7.95-1.38,12.83,3.06,4.1,6.16,4.6,10.92,2.67,9.22-3.73,16.27-15.13,18.9-24.35,1.33-4.65-5.91-6.63-7.23-1.99s-13.47,26.22-17.83,17.12l.38,2.89c.57-1.83,1.81-3.71,2.72-5.39,2.29-4.25-4.18-8.04-6.48-3.79h0Z"/>
  <path d="M1562.55,492.42c10.32.03,14.68-14.68,7.09-21.18-6.89-5.9-21.69-4.66-26.88,2.81-2.76,3.97,3.74,7.73,6.48,3.79,2.22-3.19,8.46-2.76,11.76-2.18,2.18.38,3.81.78,4.54,2.95.82,2.43.22,6.32-2.99,6.31-4.83-.01-4.83,7.49,0,7.5h0Z"/>
  <path d="M1549.22,473.29c.54-4.25-4.31-10.21-7.01-13.21-3.04-3.38-7.36-5.57-11.95-4.69-11.35,2.19-14.59,16.08-15.21,25.74-.31,4.82,7.19,4.8,7.5,0,.37-5.83,1.37-12.96,6.27-16.9,3.44-2.77,6.53-.86,8.83,2.18.93,1.23,4.23,5.6,4.07,6.88-.61,4.78,6.9,4.73,7.5,0h0Z"/>
  <path d="M1511.04,491.45c-1.8,14.96-21.07,15.8-32.43,15.82-2.59,0-5.01,3.29-3.24,5.64,2,2.65,4.06,6.64,7.1,8.26s7.08.92,10.29.47c5.07-.71,9.51-1.84,14.66-.7s9.71,3.5,14.29,5.81c4.3,2.16,8.1-4.3,3.79-6.48-7.02-3.53-14.38-7.12-22.38-7.45-3.68-.15-7.13.78-10.73,1.35-1.49.23-4.1.91-5.52.43-2.13-.73-3.74-3.76-5.02-5.47l-3.24,5.64c16.43-.03,37.53-3.44,39.93-23.32.58-4.78-6.93-4.74-7.5,0h0Z"/>
  <path d="M1528.21,486.82c-2.39,2.88-5.24,5.48-6.75,8.97s-1.52,7.61,1.07,10.72c2.4,2.88,6.57,3.41,9.7,1.39s4.6-5.73,5.1-9.44c.3-2.21.65-4.52-.18-6.66s-2.2-3.69-3.7-5.27c-.93-.98-2.6-.94-3.54,0s-.93,2.55,0,3.54,1.68,1.76,2.29,2.87c.52.96.51,2.19.38,3.45s-.29,2.48-.67,3.78c-.33,1.13-.82,2.13-1.54,2.84-.45.45-.55.51-1.14.84-.31.18-.05.07-.4.16-.13.03-.26.07-.39.1-.41.1.29,0-.13.02-.14,0-.84-.07-.53,0-.1-.02-.68-.21-.36-.07-.23-.1-.45-.24-.66-.37.28.18-.05-.04-.09-.08-.12-.12-.24-.24-.36-.36-.11-.11-.5-.7-.61-.93.09.2-.07-.19-.07-.19-.04-.12-.08-.25-.12-.37s-.06-.25-.1-.38c-.11-.43-.02.05-.04-.26-.07-1.17.13-2.2.59-3.26,1.27-2.93,3.78-5.11,5.78-7.53.86-1.04,1.02-2.52,0-3.54-.89-.89-2.67-1.04-3.54,0h0Z"/>
  <path d="M1558.47,432.38c3.22,0,3.22-5,0-5s-3.22,5,0,5h0Z"/>
  <path d="M1572.57,394.4c-2.71-.95-5.73.84-6.9,3.32-1.4,2.96-.45,6.01.83,8.82.59,1.29,1.22,2.52,2.47,3.31s2.85.76,4.26.66c1.32-.09,2.69-.34,3.8-1.1,1.46-1.01,2.22-2.52,2.37-4.27.26-2.96-1.41-6.08-3.45-8.11-.93-.93-2.62-.99-3.54,0s-.99,2.55,0,3.54c.15.15.29.3.43.46.08.09.15.19.23.27.19.21-.11-.15-.11-.15.31.28.53.78.73,1.14.1.18.19.37.28.56.22.44-.05-.07-.04-.1-.01.03.08.22.1.25.15.42.26.84.36,1.27.11.49-.02-.16-.01-.15.02,0,.03.36.03.34,0,.17,0,.34,0,.51-.01.5,0-.17.03-.16,0,0-.08.35-.08.32-.02.07-.13.33.01.01.19-.43-.09.16-.1.14,0-.03.33-.35.14-.18-.08.07-.16.15-.23.23-.18.2.17-.17.19-.15,0,0-.3.17-.27.16-.36.21.51-.16-.07.01-.21.06-.43.1-.64.15-.27.07.25-.03.25-.03-.1,0-.23.02-.34.03-.2.02-.39.03-.59.03s-.39,0-.58.01c-.18,0-.63.08-.76-.02.02.02.6.12.1,0-.07-.02-.35-.04-.05,0,.4.05-.27-.16.11.05.26.14.08.06.01-.03.05.06.3.47.09.11-.04-.07-.09-.14-.13-.22-.11-.2-.21-.4-.31-.61-.2-.42-.39-.85-.59-1.28-.16-.34.14.38.01.03-.04-.1-.08-.19-.11-.29-.1-.25-.19-.51-.27-.77s-.15-.52-.21-.78c-.02-.1-.03-.2-.06-.29-.08-.3.01.17.01.17-.09-.16-.05-.61-.04-.79,0-.1,0-.2.01-.3,0-.07,0-.13.02-.2.02-.2.01-.13-.03.21.04-.05.16-.62.17-.61.02.01-.23.46-.09.23.07-.11.12-.24.19-.35.04-.07.16-.21.17-.27-.02.11-.34.38-.1.13.13-.13.35-.29.45-.44-.18.29-.36.25-.13.11.09-.05.18-.1.26-.16.35-.22-.12.08-.19.06.07.02.28-.09.35-.11.06-.02.17-.01.22-.05-.19.13-.56-.04-.15.06.28.06-.33-.07-.3-.05.1.06.33.08.44.12,1.24.43,2.79-.49,3.08-1.75.32-1.39-.42-2.61-1.75-3.08h0Z"/>
  <path d="M1595.09,357.39c-5.88-6.22-17.83,1.24-15.54,9.22.6,2.09,1.95,3.84,3.33,5.48,1.24,1.48,2.71,2.94,4.65,3.4,2.3.54,4.57-.57,6.44-1.82,1.72-1.14,3.22-2.56,4.34-4.3,2.47-3.84,2.35-9.09-.81-12.5-.89-.96-2.65-.97-3.54,0-.94,1.03-.95,2.51,0,3.54-.01-.01.45.53.23.25-.18-.24.08.13.12.19.17.27.33.56.46.86-.2-.46.06.27.11.43.04.14.06.29.1.43.15.56,0-.33.04.21.02.33.04.66.02,1,0,.19-.02.37-.04.55,0-.1.09-.48,0,0-.06.29-.12.58-.21.86-.04.14-.09.28-.14.42-.16.52.15-.22-.1.24-.16.31-.32.61-.5.91-.1.16-.21.32-.32.48-.04.07-.29.36-.03.04-.44.54-.93,1.04-1.46,1.49.03-.03-.56.45-.29.24.22-.17-.17.12-.22.15-.29.2-.58.39-.88.57-.27.16-.54.31-.82.46-.14.07-.28.14-.42.21-.42.21.03.05-.39.16.06-.02-.76.16-.44.11.28-.04-.42-.06-.04,0s-.3-.1-.31-.1c.12.04.38.22,0-.02-.13-.08-.25-.16-.38-.24.34.22.04.04-.04-.03-.29-.26-.57-.53-.84-.82-.49-.53-.95-1.09-1.4-1.65.07.09.23.31-.07-.09-.1-.14-.2-.27-.29-.41-.23-.34-.46-.69-.66-1.05-.08-.14-.15-.29-.22-.43-.34-.67.07.24-.07-.18-.11-.33-.22-.68-.26-1.03.06.48.03-.35.04-.52-.05.56.29-.85.1-.37.14-.34.34-.66.54-.96.05-.08.36-.5.12-.19.09-.12.19-.23.29-.34.18-.2.37-.39.57-.57.1-.09.2-.18.31-.27-.42.37.04-.03.15-.1.28-.19.58-.37.88-.53.15-.08.31-.15.46-.23.26-.13-.39.12.06-.02.32-.1.64-.21.97-.28.02,0,.66-.15.25-.06-.37.08.17-.01.25-.02.16,0,.32-.01.48-.01.08,0,.73.02.33,0-.36-.02.03,0,.13.03.18.05.36.09.54.15.1.03.42.21.13.04-.32-.19.21.14.28.18.08.04.39.29.13.08-.27-.23.27.28.32.33.9.95,2.64.98,3.54,0s.96-2.52,0-3.54h0Z"/>
  <path d="M1686.82,228.14c-5.48-10.75-12.38-23.43-24.91-26.93-4.97-1.39-10.54-1.29-15.34.69-2.48,1.02-4.8,2.49-6.56,4.53s-2.63,4.5-3.78,7.03c-.41.9-.9,1.94-1.94,2.16-1.48.32-3.3-.69-4.64-1.21-3.55-1.37-7.18-2.52-10.87-3.44-7.15-1.78-14.53-2.73-21.89-2.82s-14.53.45-21.43,2.27c-6.15,1.62-12.03,4.94-14.39,11.16s-.06,13.67,2.94,19.48,7.64,11.54,8.24,18.29-3.8,13.08-4.93,19.79.36,13.64,4.37,19.06,9.94,8.77,15.59,12.28c5.27,3.28,9.98,7.15,14.05,11.84,7.95,9.14,13.01,20.64,15.05,32.54.5,2.91.78,5.85.88,8.79.12,3.49-.22,6.98.01,10.46s1.04,6.74,3.02,9.54c1.76,2.49,4.07,4.47,6.68,6.03,5.48,3.28,11.77,4.46,17.73,6.54,2.77.97,5.57,2.19,7.85,4.07,2.52,2.07,4.21,4.8,5.69,7.67s2.72,5.81,4.36,8.57,3.6,5.18,5.88,7.33c4.65,4.36,10.3,7.47,16.09,10.05,6.33,2.82,12.86,5.5,19.53,7.41s14.24,2.95,21.11.78c11.93-3.77,17.59-15.37,23.95-25.11,3.01-4.61,6.5-8.67,10.64-12.29s8.73-6.88,13.16-10.24c8.74-6.63,17.66-14.26,20.69-25.27s-.84-23.69-9.18-31.49c-2.04-1.91-4.35-3.57-6.86-4.81-2.76-1.36-5.75-2.29-8.34-3.98-5.18-3.37-4.6-9.78-3.67-15.11,1.07-6.1,2.35-11.99,1.55-18.21s-2.79-11.7-5.83-16.9c-6.18-10.56-16.09-18.8-27.37-23.44-6.23-2.56-13-3.83-18.94-7.07s-9.97-9.05-14.79-13.87-10.91-8.65-17.71-7.82c-1.34.16-2.5,1.03-2.5,2.5,0,1.22,1.15,2.67,2.5,2.5,6.67-.82,12.01,3.9,16.2,8.49,4.54,4.97,8.74,10.02,14.88,13.09s12.53,4.35,18.69,6.85c5.31,2.16,10.29,5.3,14.58,9.09,8.22,7.26,14.65,17.37,15.5,28.52.45,5.97-1.16,11.57-1.97,17.43s-.48,12.75,4.63,16.98c4.46,3.69,10.47,4.62,14.91,8.38,3.89,3.3,6.8,7.69,8.37,12.55s1.89,10.28.44,15.3-4.2,9.02-7.58,12.63c-7.39,7.91-16.94,13.36-25.03,20.47-4.22,3.71-7.8,7.91-10.9,12.6-3.07,4.64-5.74,9.56-9.13,13.99-3.17,4.15-7.16,7.82-12.23,9.42-6.63,2.1-13.71.72-20.18-1.3-6.13-1.91-12.2-4.34-18.02-7.03-5.34-2.47-10.59-5.43-14.73-9.68-4.45-4.56-6.38-10.52-9.52-15.92-1.56-2.69-3.49-5.15-5.94-7.07-2.62-2.05-5.59-3.46-8.7-4.6-5.53-2.03-11.47-3.02-16.65-5.94-2.29-1.29-4.48-2.93-5.91-5.18-1.66-2.6-2-5.6-2.02-8.63-.02-3.27.17-6.52-.01-9.79s-.56-6.27-1.12-9.35c-1.09-5.97-2.96-11.75-5.46-17.27-5.03-11.08-12.98-20.83-23.11-27.62-5.09-3.41-10.81-6.11-15.08-10.6s-6.11-10.48-5.33-16.42c.89-6.79,5.1-12.66,5.24-19.64.13-6.98-3.57-13.19-6.95-19.03-2.93-5.07-6.38-11.34-5.04-17.42,1.26-5.7,6.62-8.31,11.82-9.63,6.68-1.7,13.78-2.14,20.65-1.99s14.12,1.16,20.98,2.97c3.53.93,6.96,2.11,10.36,3.42,3.21,1.23,6.85,1.76,9.55-.84,2.08-1.99,2.46-4.94,3.86-7.33,1.07-1.82,2.58-3.17,4.47-4.2,3.93-2.14,8.9-2.38,13.25-1.23,5.29,1.4,9.6,5.16,13.02,9.38,3.76,4.63,6.51,10.04,9.2,15.33,1.46,2.87,5.78.34,4.32-2.52h0Z"/>
  <path d="M1431.71,610.43c-10.67.64-20.47,8.33-23.57,18.58-.85,2.8-1.12,5.69-1.14,8.61-.02,3.23.05,6.41.62,9.6,1.2,6.76,3.88,13.14,6.52,19.44,1.47,3.51,2.94,7.02,4.41,10.53,1.33,3.19,2.83,6.36,3.8,9.68.21.72.39,1.46.53,2.2.08.44.15.89.2,1.33.32,3.03.31-3.51,0-.7-.15,1.45-.55,2.87-1.1,4.22-1.19,2.89-3.1,5.43-5.18,7.73-8.11,8.96-18.59,15.45-28.87,21.59-10.65,6.37-21.47,12.56-30.75,20.88-9.84,8.81-18.02,19.28-25.95,29.79-7.72,10.23-15.27,21.02-19.46,33.24-1.91,5.59-2.97,11.37-3.02,17.28s.09,11.73,2.67,17.05c2.67,5.51,7.67,8.56,13.55,9.73,5.64,1.12,11.62,1.09,17.36.95,11.1-.27,22.87-2.07,32.12-8.64,9.99-7.1,14.03-18.71,18.09-29.74,3.75-10.2,8.56-21.55,18.54-27.12s21.21-2.39,31.46-.04,22.06,4.38,30.95-3.12c4.31-3.64,7.28-8.71,8.89-14.07,1.88-6.23,1.98-12.78,1.83-19.24-.08-3.41-.42-6.78-.72-10.18-.08-.95-.16-1.9-.21-2.85-.03-.47-.11-.99-.06-1.46-.13,1.46,0,.53.03.22.19-1.86.39-3.68.88-5.49,1.54-5.69,4.85-10.68,8.16-15.48s6.7-9.51,8.96-14.9c2.09-4.98,3.29-10.31,3.68-15.7.8-11.18-.76-22.34-5.35-32.61-9.78-21.86-31.2-35.49-53.74-41.42-5.55-1.46-11.21-2.48-16.91-3.12.11.01-.17,3.73,0,3.75,22.83,2.56,46.09,11.6,61.24,29.51,7.08,8.37,11.92,18.66,13.91,29.44.52,2.8.84,5.65.94,8.5.02.67-.08,2.29.02-.45-.01.31-.01.62-.03.93-.03.84-.08,1.69-.15,2.53-.12,1.35-.28,2.7-.51,4.04-.89,5.4-2.68,10.64-5.34,15.43-5.51,9.92-14.65,18.53-15.71,30.39-.59,6.54.39,13.04.77,19.56.1,1.79.13,2.71.05,4.25-.09,1.82-.28,3.63-.57,5.43-.5,3.08-1.33,6.12-2.59,8.99-2.21,5.01-5.76,9.58-10.51,12.4-4.46,2.65-9.67,3.44-14.79,3.15-10.7-.61-20.81-5.15-31.57-5.24-5.22-.05-10.33,1.2-14.7,4.11s-7.81,7.23-10.48,11.79c-5.84,10-8.04,21.6-13.68,31.69-2.77,4.95-6.41,9.31-11.08,12.56s-9.61,5.14-14.89,6.41-10.98,1.85-16.54,2.01-11.42.18-16.96-.79-10.89-3.64-13.8-8.86c-1.38-2.47-2.2-5.22-2.67-8-.24-1.41-.38-2.84-.45-4.27l-.02-.42c-.02-.65-.02-.56,0,.26-.06-.16.03-.7.04-.83.05-.95.13-1.89.23-2.84,1.41-12.45,7.47-23.84,14.35-34.1,3.47-5.17,7.23-10.15,11.02-15.09,3.98-5.18,8.06-10.3,12.42-15.18,4.35-4.85,8.98-9.47,14.04-13.58,4.55-3.7,9.42-6.99,14.4-10.09,10.15-6.34,20.79-11.96,30.35-19.2,4.6-3.49,9.14-7.35,12.76-11.87,1.84-2.3,3.44-4.88,4.23-7.74.73-2.62.65-5.49.52-8.18-.16-3.22-1.31-6.26-2.53-9.21-1.38-3.34-2.79-6.67-4.18-10-2.63-6.29-5.48-12.55-7.42-19.1-.99-3.35-1.73-6.8-1.94-10.29l-.02-.45c-.03-.9-.03-.6-.01.9.08-.4.04-.88.08-1.29.08-.91.2-1.81.36-2.7.25-1.38.62-2.74,1.1-4.06,1.8-4.88,5.15-9.14,9.34-12.2,4.02-2.94,8.8-4.74,13.78-5.04.1,0-.05-3.75,0-3.75h0Z"/>
  <path d="M1243.45,479.62c.14,4.7.19,9.41,0,14.11-.15,3.87-.57,7.84-2.29,11.36-.85,1.73-2.02,3.29-2.81,5.06-.67,1.5-1.05,3.12-1.16,4.76-.22,3.23-.18,6.63.65,9.76,1.97,7.45,7.46,13.03,11.67,19.23,2.03,2.99,3.55,6.17,4.9,9.51s2.58,6.5,4.71,9.27c1.96,2.54,4.99,5.02,8.42,4.21,3.75-.89,3.78-4.68,3.77-7.81,0-3.67-.95-7.07-1.58-10.66-.09-.54-.18-1.09-.24-1.64s-.14-2.81-.13-.61.05.19.12-.34.14-1.05.24-1.57c.32-1.72.8-3.4,1.34-5.06,1.09-3.38,2.43-6.71,3.08-10.22.55-2.96.61-6.2.3-9.19-.37-3.66-2.18-6.89-4.08-9.97s-3.62-5.93-4.99-9.15c-2.69-6.32-4.35-13.06-7.38-19.24-1.82-3.72-8.56-15.21-12.89-7.89-.72,1.22-1.14,2.61-1.46,3.99-.27,1.19.27,2.57,0,3.75.54-2.34,1.59-5.82,4.36-6.32,3.18-.58,5.81,3.39,7.33,5.62,3.75,5.5,5.66,11.98,7.86,18.2,1.13,3.18,2.33,6.34,3.9,9.33s3.74,5.94,5.33,9.07c.8,1.58,1.46,3.24,1.81,4.99.08.39.14.79.18,1.18.03.28,0,.64.08.91.06.2.09-2.79,0-1.86-.1,1.02-.19,2.02-.39,3.03-.66,3.37-1.93,6.57-2.98,9.83s-1.76,6.26-1.79,9.56c-.02,1.59-.05,3.19.07,4.78.16,2.05.62,4.06,1.05,6.06.22,1.01.43,2.01.6,3.03.07.41.13.82.17,1.23.06.55.05,1.91.06-.52s0-.94-.1-.35c-.26,1.6-1.12,3.03-2.61,3.75-3.15,1.5-6.46-.47-8.56-2.8-4.64-5.12-5.81-12.44-9.42-18.21-3.89-6.22-9.34-11.5-11.96-18.46-.63-1.69-1.11-3.44-1.32-5.23-.03-.26-.05-.52-.07-.78-.15-1.38-.06,1.69-.04,1.62.14-.46.08-1.05.15-1.54.14-.93.38-1.85.71-2.74.65-1.74,1.72-3.25,2.62-4.86s1.51-3.26,1.93-5.02c.84-3.53.9-7.2.96-10.81.07-4.02.08-8.04.03-12.06-.02-1.97-.07-3.93-.12-5.9.03.9-.04,2.48,0,3.62h0Z"/>
  <path d="M1257.26,244.02c.32,1.32.56,2.67.68,4.02.01.15,0,.89.07,1.16v-1.57c0,.26-.02.52-.04.78-.06.8-.15,1.61-.28,2.4-.44,2.69-1.29,5.31-2.53,7.74-2.33,4.55-6.03,8.14-10.07,11.19s-8.23,5.52-12.26,8.4c-4.51,3.22-8.59,6.98-11.65,11.64-1.48,2.26-2.61,4.72-2.74,7.46-.11,2.35-.19,4.86.34,7.16,1.26,5.51,5.23,9.71,8.68,13.95,1.72,2.11,3.36,4.31,4.53,6.78s1.74,5.17,1.98,7.89c.07.78-.08,1.9.13,2.63-.04-.14.03-1.4,0-.31-.01.43-.02.85-.03,1.28-.03,1.35-.08,2.7-.09,4.04-.03,2.63-.07,5.27.11,7.9.36,5.08,1.96,9.92,5.76,13.48,3.46,3.24,8.49,5.33,13.26,4.42,2.26-.43,4.38-1.57,5.62-3.56,1.38-2.22,1.5-4.97,1.76-7.5.53-5.12,1.18-10.25,2.35-15.27s2.82-9.86,5.44-14.25c1.29-2.17,2.81-4.21,4.56-6.03,1.9-1.98,4.07-3.65,6.13-5.46,4.1-3.6,6.91-7.92,8.11-13.28,1.06-4.74,1.05-10.03.47-14.83-.73-6.01-2.8-11.75-5.1-17.31-2.44-5.89-5.01-11.72-7.52-17.57-1.29-3.01-2.59-6.03-3.88-9.04-1.03-2.4-2.06-4.93-3.93-6.81-3.02-3.03-9.31-3.11-9.72,2.17-.18,2.25-.12,4.63.26,6.85-.2-1.21.21-2.53,0-3.75-.05-.32-.11-.65-.15-.97-.18-1.34.45-.07-.07,1.2.22-.53.22-1.11.5-1.64.45-.86,1.19-1.5,2.08-1.87,1.81-.75,4.02-.43,5.66.59,2.08,1.3,3.36,3.56,4.37,5.72,1.25,2.67,2.35,5.42,3.51,8.13,2.48,5.78,4.97,11.56,7.44,17.34,2.29,5.35,4.54,10.77,5.81,16.48.3,1.33.54,2.68.71,4.04.09.7.16,1.4.2,2.11.02.33.03.66.05,1,.05.81.07-2.1-.03-.42-.15,2.61-.62,5.22-1.47,7.69-.81,2.35-1.97,4.58-3.5,6.53-1.65,2.11-3.71,3.84-5.75,5.56-3.88,3.27-7.17,6.82-9.58,11.32s-3.82,9.1-4.86,13.91-1.65,9.77-2.15,14.7c-.25,2.48-.45,5.15-1.92,7.25-1.26,1.79-3.28,2.83-5.4,3.23-4.53.86-9.29-.98-12.71-3.93-3.83-3.3-5.71-7.93-6.22-12.89-.07-.73-.12-1.46-.15-2.18-.02-.51.04-1.76-.03.02.01-.32,0-.64.02-.96.03-1.4.08-2.8.1-4.19.05-2.53.08-5.07-.03-7.59s-.41-4.95-1.18-7.32-2.13-4.71-3.67-6.8c-3.14-4.26-7.08-7.97-9.3-12.85-.52-1.15-.94-2.34-1.2-3.57-.07-.34-.13-.68-.18-1.02-.15-1.07.26-1.45-.11,1.43.1-.81.16-1.61.38-2.4.71-2.61,2.26-4.94,3.88-7.07,6.19-8.12,15.4-12.41,23.27-18.58,3.8-2.98,7.21-6.5,9.36-10.87,2.29-4.67,2.74-9.55,2.71-14.67-.02-2.37-.23-4.69-.79-6.99.29,1.17-.29,2.56,0,3.75h0Z"/>
  <path d="M1801.88,939.55c2.55,5.53,4.87,11.19,6.44,17.08.77,2.87,1.35,5.8,1.67,8.76.1.88.17,1.77.21,2.65.01.29-.01.63.04.91-.27-1.53,0-.8-.03-.2-.08,1.62-.26,3.23-.54,4.83-1.79,10.41-7.32,19.63-12.14,28.86-2.45,4.67-4.78,9.43-6.46,14.45-.45,1.35-.92,2.74-1.11,4.16-.17,1.22-.1,2.47-.1,3.7,0,2.41.45,4.4,2.25,6.14,4.08,3.94,10.54,3.41,15.65,4.94s9.6,4.07,13.5,7.49,6.34,7.39,9.44,11.2,6.92,7.03,12.1,7.27,11.59-1.24,14.35-6.31c2.43-4.46,2.12-10.22,1.73-15.12-.52-6.52-1.31-12.98-1.56-19.52-.25-6.8.22-13.52.38-20.3.06-2.6.14-5.26-.17-7.85-.35-2.92-1.44-5.6-2.85-8.15-2.88-5.19-6.38-10.06-9.87-14.86s-7.04-9.46-10.41-14.3c-3.17-4.55-5.88-9.35-8.85-14.02s-6.3-8.22-11.51-9.83c-3.54-1.1-11.97-3.72-12.42,2.38-.08,1.13-.02,2.29,0,3.42.01.9.15,1.61.83,2.27-.17-.17.02-1.61.02-1.88,0-.31.22-1.65-.02-1.88-.51-.5-.74-1.01-.82-1.72l.02.93v-.28c0,.94-.01,1.88-.02,2.82.51-5.96,8.69-3.44,12.2-2.38,5.03,1.52,8.48,4.95,11.3,9.25s5.39,9.02,8.37,13.37c3.2,4.68,6.62,9.21,9.98,13.78s6.75,9.3,9.74,14.2c1.46,2.38,2.87,4.83,3.68,7.52.44,1.46.6,2.93.75,4.44.13,1.26.06-.3.03-.37.11.27-.03.86-.05,1.16-.04.85-.09,1.7-.14,2.56-.65,11.72-.5,23.55.59,35.24.14,1.47.29,2.93.46,4.4.09.8.18,1.6.25,2.41.09.92-.02,1.94.19,2.83l-.02-1.21c-.02.38-.05.76-.09,1.13-.04.34-.08.68-.13,1.02-.08.52-.19,1.03-.32,1.54-.33,1.26-.8,2.49-1.46,3.62-2.79,4.77-8.75,6.15-13.93,5.98-10.2-.33-14.2-11.26-20.6-17.4-3.65-3.5-8.03-6.22-12.79-7.94-2.49-.9-5.05-1.46-7.66-1.87s-5.55-.83-7.96-2.25c-.95-.56-1.83-1.26-2.54-2.11-.35-.41-.65-.86-.9-1.34-.05-.09-.7-1.88-.63-1.87.21.02-.28,2.51.07,1.1.07-.29.12-.59.19-.88.17-.7.38-1.39.6-2.07.39-1.22.82-2.42,1.28-3.62,1.84-4.75,4.19-9.27,6.57-13.76,4.75-8.95,9.89-18.08,11.24-28.28,1.44-10.87-.62-21.73-4.56-31.86-1.06-2.73-2.24-5.42-3.46-8.08.19.4-.02,1.42-.02,1.88,0,.5-.19,1.41.02,1.88h0Z"/>
  <path d="M1862.14,816.61c-.15-4.83-1.36-9.58-3.67-13.83-.43-.79-.93-1.8-1.8-2.18-.99-.43-1.83.27-2.59.84-1.75,1.31-3.28,2.88-4.59,4.63-5.71,7.62-6.72,17.4-7.08,26.61-.21,5.26.07,10.81-1.45,15.9-1.25,4.19-3.82,7.8-6.41,11.26s-5.33,6.86-7,10.85c-.9,2.14-1.06,4.17-1.06,6.46,0,2.08.1,3.88,1.24,5.7,1.25,2,2.88,3.76,4.19,5.73s2.5,4.06,3.53,6.21c2.17,4.53,3.37,9.26,4.59,14.1s2.98,9.02,5.88,12.87c2.55,3.39,6.22,7.27,10.8,7.27,4.02,0,7.08-3.19,8.75-6.57,2.03-4.1,2.29-8.86,2.35-13.35.07-5.17-.34-10.43.71-15.54s3.63-9.12,5.73-13.6,3.34-9.35,3.63-14.32c.27-4.64.29-9.55-.96-14.06-1.34-4.86-3.99-9.31-6.05-13.89-2.21-4.93-4.23-9.94-6.18-14.97-.96-2.48-1.91-4.97-2.85-7.45.17.45-.02,1.38-.02,1.88,0,.53-.17,1.37.02,1.88,3.6,9.46,7.24,18.91,11.66,28.02,2.17,4.48,4.01,8.89,4.36,13.91,0,.12.1,1.62.06.54-.04-.93-.02.06-.03.3-.03.66-.09,1.33-.16,1.99-.13,1.29-.33,2.57-.6,3.84-.48,2.31-1.17,4.59-2.07,6.77-1.8,4.34-4.44,8.31-5.86,12.81-1.32,4.18-1.42,8.6-1.44,12.95-.02,4.96.26,9.97-.96,14.83-.89,3.54-2.8,7.18-6.02,9.12-8.06,4.84-15.7-6.03-18.51-12.26-1.98-4.4-2.65-9.18-4.06-13.76-1.32-4.28-3.21-8.38-5.6-12.17-1.21-1.93-2.6-3.7-3.97-5.52-.6-.79-1.17-1.61-1.57-2.53-.22-.51-.29-1.04-.47-1.55-.25-.7.07,1.34-.02,1.43.1-.09.21-1.11.25-1.26,1.03-3.96,3.65-7.47,6.06-10.7s5.12-6.58,6.88-10.36c1.94-4.15,2.27-8.66,2.44-13.17.36-9.44.29-19.3,4.56-27.98,1.79-3.63,4.31-6.96,7.62-9.32.69-.5,1.41-.99,2.28-.61s1.37,1.38,1.8,2.18c1.12,2.07,2,4.28,2.62,6.56s.97,4.72,1.04,7.14c-.03-.9.04-2.48,0-3.62h0Z"/>
  <path d="M750.02,465.86c-13.6.9-27,4.24-39.44,9.82-6.15,2.76-12.05,6.06-17.61,9.86-2.74,1.87-5.6,3.8-7.84,6.26s-3.39,5.37-3.97,8.57-.6,6.12-.59,9.2c.01,2.79.16,5.59.99,8.27,1.97,6.35,7.48,9.71,13.71,11.04,14.6,3.12,29.09-2.97,42.91-6.88s29.4-5.99,44.37-5.63,30.58,2.94,45.63-.73c6.74-1.64,13.31-4.18,19.5-7.3,5.47-2.76,10.7-6.11,15.17-10.32s8.24-9.6,10.4-15.58,2.98-12.87,2.96-19.49c-.02-5.95-.85-12.09-5.01-16.68-3.81-4.21-9.47-6.11-15-6.64-6.44-.62-12.98.53-19.16,2.3-6.82,1.95-13.33,4.82-19.68,7.94-3.12,1.54-6.21,3.14-9.3,4.74-.15.08-.02,1.68-.02,1.88s.15,1.8.02,1.88c12.08-6.29,24.53-12.75,38.19-14.67,10.6-1.49,23.79.46,28.24,11.69.51,1.28.88,2.61,1.15,3.96.15.78.27,1.57.36,2.36.04.39.07.78.1,1.17.02.26.04.51.05.77.02.67.03.54.01-.39.21.05-.37,4.5-.43,4.92-.24,1.79-.55,3.57-.96,5.33-1.44,6.19-4.15,11.95-8.22,16.84-7.81,9.37-19.29,15.24-30.62,19.22-6.7,2.36-13.61,3.81-20.7,4.19s-14.64-.14-21.94-.61-14.48-.75-21.73-.39-14.61,1.27-21.8,2.7-13.75,3.41-20.55,5.47-13.4,4-20.35,4.74c-6.4.68-13.46.4-19.35-2.46-2.75-1.33-5.11-3.32-6.62-6s-1.94-5.7-2.27-8.79c-.13-1.26,0,.88,0,.87-.09-.28.04-.87.06-1.17.06-.93.16-1.85.28-2.77.21-1.53.52-3.05,1.02-4.51,1.05-3.09,3.06-5.5,5.54-7.56,4.91-4.07,10.5-7.47,16.11-10.46,11.51-6.13,24.08-10.29,36.98-12.23,3.12-.47,6.26-.8,9.41-1,.11,0-.05-3.75,0-3.75h0Z"/>
  <path d="M1099.99,812.04c.16,1.22.28,2.45.34,3.68.09,1.88.09-1.79.02.14-.03.79-.08,1.58-.16,2.36-.22,2.28-.61,4.53-1.18,6.75-1.14,4.41-3,8.53-5.37,12.41s-4.98,7.38-7.32,11.16c-2.2,3.54-4.66,7.65-4.93,11.91-.11,1.77-.17,3.67.06,5.43.25,1.91,1.21,3.6,2.46,5.03,2.6,2.97,6.07,5.02,8.67,8s4.75,6.74,5.97,10.65c1.34,4.27,1.31,8.91,3.03,13.06,1.43,3.46,4.19,6.44,8.14,6.64,3.65.19,7.24-1.81,9.4-4.68,2.44-3.24,3.34-7.36,3.61-11.33.14-2.09.12-4.2.11-6.29,0-1.06-.02-2.12-.04-3.18-.01-.64-.03-1.29-.05-1.93,0-.29-.01-.58-.02-.87-.03-.71-.03-.9,0-.55.01.2.02.16.02-.12.24-4.78,1.37-9.41,3.6-13.65,2.1-4,5.41-7.34,7-11.6.72-1.93.86-3.82.87-5.86s.05-3.85-.71-5.69c-.87-2.12-2.35-3.98-3.58-5.9s-2.46-3.94-3.62-5.96c-2.39-4.17-4.56-8.46-6.5-12.85-1.87-4.24-3.43-8.68-5.95-12.59-1.99-3.08-5.45-6.47-9.47-5.67-3.29.66-4.68,3.86-4.7,6.88-.01,1.7-.19,3.5.48,5.1-.18-.43.02-1.4.02-1.88,0-.52.19-1.39-.02-1.88-.14-.34-.21-.69-.34-1.03-.16-.42-.09-1.57-.07.66s-.06,1.19.06.8c.25-.81.45-1.57.92-2.3.8-1.26,2.04-2.25,3.51-2.59,3.79-.88,7.18,2.14,9.2,5,2.51,3.57,4.03,7.75,5.74,11.74,1.8,4.2,3.8,8.31,6,12.31s4.67,7.68,7.07,11.5c.52.82,1,1.67,1.35,2.57.18.46.33.93.43,1.41.03.15.07.79.14.85-.15-.16.2-2.39-.07-1.16-.47,2.2-1.22,4.16-2.38,6.09-2.24,3.72-4.99,6.99-6.64,11.05s-2.28,8.13-2.36,12.39c-.13,7.81,1.49,17.22-4.28,23.6-2.24,2.47-5.67,4.11-9.04,3.81-3.72-.33-6.33-3.17-7.73-6.45-1.69-3.95-1.71-8.36-2.87-12.46-1.08-3.82-2.95-7.41-5.43-10.5s-5.54-5.11-8.31-7.75c-1.29-1.23-2.47-2.64-3.12-4.33-.16-.4-.28-.82-.37-1.24-.02-.08-.05-.6-.11-.64.13.09-.24,2.52.03,1.18.22-1.08.45-2.13.83-3.17,2.91-7.99,8.96-14.37,12.94-21.8,2.05-3.82,3.52-7.95,4.34-12.21.78-4.02.85-8.07.8-12.15-.02-1.91-.16-3.8-.41-5.69.16,1.22-.16,2.52,0,3.75h0Z"/>
  <path d="M616.62,744.87c3.39,11.44,7.47,23.75,18.05,30.52,5.28,3.37,11.31,5.26,17.01,7.74,5.32,2.31,10.24,5.25,14.02,9.72,3.49,4.12,5.92,9.11,7.13,14.37.3,1.32.53,2.65.67,3.99.08.73.05,1.49.16,2.21-.29-1.92.01-1.17-.03-.46-.03.56-.08,1.12-.15,1.68-.32,2.77-1.02,5.48-2.06,8.06-2.41,5.96-6.32,11.13-9.64,16.58-3.6,5.92-5.97,12.24-7.09,19.09-.54,3.27-.82,6.58-.97,9.9s.07,6.52-.23,9.74c-.24,2.61-.96,5.39-3.12,7.1-2.48,1.96-6.19,2.14-9.21,2.38-12.4,1-26.47-3.2-32.28-15.17-2.95-6.09-2.9-13.12-5.83-19.25-2.57-5.4-6.44-10.02-9.94-14.83s-6.8-10.12-7.88-16.17c-.18-1.01-.27-2.01-.37-3.03-.16-1.7-.15,2.2-.01.5.03-.42.06-.84.1-1.26.19-1.84.58-3.66,1.17-5.42,1.09-3.26,2.84-6.23,4.38-9.28s2.74-6.25,3.17-9.68c.38-3.01.33-6.12.21-9.15-.27-6.86-2.25-13.46-3.34-20.21-.25-1.54-.45-3.09-.58-4.64-.05-.65.1-1.68-.13-2.27v.91c0-.26.02-.51.03-.77.03-.61.09-1.22.16-1.83.33-2.83,1.05-5.64,2.37-8.18s3.2-5.06,5.84-6.2c3.13-1.35,6.31.56,9,2.1,2.88,1.65,5.52,3.65,7.92,5.94-.17-.16.02-1.61.02-1.88,0-.31.21-1.65-.02-1.88-2.61-2.48-5.51-4.63-8.68-6.36-2.97-1.62-6.06-3.13-9.24-1.16-5.05,3.13-6.99,9.87-7.36,15.44-.4,6.07.12,12.13,1.32,18.08.76,3.75,1.61,7.49,2.16,11.28.12.84.23,1.69.31,2.54.06.59.11,1.18.15,1.77l.03.46c.03.75.04.61.03-.41.11.1-.11,1.75-.11,1.75-.04.45-.1.9-.16,1.36-.15,1.06-.36,2.1-.65,3.13-1.87,6.83-6.72,12.37-7.84,19.48-.48,3.08-.46,6.35-.27,9.45.2,3.29,1.01,6.51,2.33,9.53,2.5,5.71,6.54,10.55,10.19,15.54,1.85,2.52,3.63,5.11,5.08,7.89,1.55,2.97,2.54,6.1,3.26,9.36.78,3.51,1.37,7.1,2.84,10.4,1.21,2.73,2.98,5.19,5.1,7.28,4.61,4.55,10.71,7.24,17.06,8.23,3.75.59,7.57.62,11.34.25,3.09-.3,6.82-.58,9.06-3,1.87-2.01,2.3-4.91,2.44-7.55.18-3.35.04-6.71.23-10.07.4-7.25,1.62-14.56,4.61-21.22,2.81-6.26,7.12-11.67,10.47-17.64,2.92-5.21,4.72-10.7,4.82-16.69s-.31-11.21-2.44-16.56-5.43-9.96-9.83-13.48c-5.05-4.04-11.26-6.18-17.17-8.58s-11.54-5.21-15.83-9.99c-4.17-4.65-6.85-10.41-8.94-16.23-1.07-2.97-1.98-5.99-2.88-9.01.34,1.14-.34,2.59,0,3.75h0Z"/>
  <path d="M349.21,886.2c-.73.08-1.04-.65-1.54-1.05-.77-.62-1.7-.16-2.13.63-.46.85-.53,2.02-.59,2.98-.09,1.26-.05,2.53-.03,3.79,0,.85.03,1.71.45,2.48.46.83,1.27,1.32,2.06,1.8s1.54.93,2.07,1.68c.57.82.83,1.8.96,2.78.05.38-.16,2.22.62,2.08.85-.16,1.11-2.07,1.27-2.73.5-2.11.65-4.33,1.6-6.31.85-1.79,2.44-3.19,3.09-5.08.26-.75.26-1.51.26-2.3,0-1.15.1-2.37-.05-3.52-.28-2.13-2.27-3.17-4.17-2.02-1.02.62-1.69,1.68-2.29,2.68-.69,1.16-1.29,2.36-1.83,3.59-.2.45-.02,1.38-.02,1.88,0,.44,0,.88,0,1.33,0,.14.06.43.01.55.76-1.75,1.63-3.59,2.83-5.09.98-1.22,2.78-2.31,4.28-1.29.51.35.85.88,1.03,1.47.05.14.07.29.11.44l.04.23v-2.59c-.12.37-.15.75-.29,1.11-.65,1.65-1.96,2.92-2.8,4.46s-1.16,3.42-1.49,5.19c-.11.56-.88,5.01-1.95,4.19-.34-.26-.2-1.56-.26-2-.11-.89-.34-1.78-.81-2.55-.86-1.41-2.47-1.81-3.62-2.88-.33-.31-.6-.67-.79-1.08-.07-.17-.14-.35-.18-.53-.29-1.15.41-1.14-.09,1.72.17-.96.13-2.12.73-2.95.45-.62,1.24-.87,1.89-.42.55.38.85,1.19,1.62,1.11.16-.02-.1-3.74,0-3.75h0Z"/>
  <path d="M411.31,777.15c-20.44,8.91-44.32,9.24-65.04,1.02-2.62-1.04-5.17-2.23-7.67-3.52-2.65-1.36-5.31-2.79-8.18-3.61-4.94-1.42-9.8-.21-12.98,3.92-2.79,3.62-3.95,8.28-4.57,12.72-.81,5.8-.99,11.66-1.19,17.51-.39,11.58-1,23.34-6.44,33.82-4.79,9.23-12.03,16.83-17.82,25.4-2.86,4.23-5.36,8.73-6.94,13.6-1.71,5.27-2.14,10.68-2.13,16.19.02,11.51,3.07,22.5,8.02,32.85,5.25,10.97,12.09,21.06,18.13,31.59s10.86,21.58,14.01,33.29c1.59,5.91,2.76,11.92,3.52,17.99.58,4.59,1.04,9.51,3.4,13.61,2.56,4.44,7.27,6.42,12.29,5.77,5.57-.72,10.11-4.2,14.31-7.68,8.51-7.05,18.05-13.87,29.58-13.87,5.9,0,11.87,1.33,17.49-1.14,4.67-2.06,8.29-5.94,11.15-10.07,6.28-9.08,10.75-20.22,11-31.34.13-5.76-.23-11.4-1.52-17.03-1.37-6-3.47-11.8-5.6-17.57-8.55-23.19-15.9-48.08-12.18-73.02.9-6.05,2.82-11.98,3.08-18.12.11-2.62.11-5.29-.13-7.9-.29-3.09-.94-6.14-1.34-9.22-.1-.76-.19-1.53-.25-2.3-.03-.42,0-.91-.08-1.31v1.31c.02-.36.04-.72.08-1.09.15-1.48.46-2.94.88-4.37.81-2.73,2.02-5.31,3.28-7.86,2.37-4.8,4.91-9.59,5.47-15,.48-4.56.48-9.75-2.14-13.69.19.29-.02,1.51-.02,1.88,0,.42-.22,1.51.02,1.88.68,1.02,1.22,2.1,1.58,3.26.17.54.31,1.1.41,1.66.06.31.1.63.14.94.04.3.06.59.08.89.05,1.07.05.51,0-1.67-.3,2.67-.76,5.18-1.68,7.72-1.89,5.18-4.98,9.83-6.77,15.04-1.69,4.93-1.73,10.39-1.13,15.54.34,2.93.94,5.82,1.31,8.75.11.9.17,1.8.25,2.71.12,1.37.03-.7.02-.79.07.59-.07,1.25-.13,1.84-.16,1.59-.42,3.17-.72,4.74-1.16,6.02-2.49,11.92-2.98,18.04-.44,5.42-.47,10.9-.28,16.34.41,11.87,2.58,23.63,5.74,35.05,1.62,5.84,3.5,11.6,5.57,17.29s4.24,11.25,5.97,17c.86,2.85,1.6,5.74,2.14,8.66.26,1.42.48,2.84.63,4.27.09.81.16,1.61.2,2.42.02.38.05.76.05,1.14-.02-.89-.02.17-.04.48-.34,5.88-1.89,11.62-4.15,17.04-2.07,4.98-4.66,9.88-7.92,14.19-2.91,3.85-6.6,7.33-11.22,8.98-5.66,2.02-11.62.46-17.45.68-5.41.2-10.63,1.99-15.37,4.54s-9.12,6.07-13.37,9.58-8.67,6.78-14.17,7.43c-4.95.58-9.58-1.42-12.09-5.8-2.29-3.99-2.8-8.77-3.36-13.26-1.46-11.73-4.43-23.25-8.92-34.19s-10.77-21.07-16.89-31.21-11.93-20.3-15.21-31.62c-.8-2.75-1.45-5.54-1.9-8.37-.22-1.36-.4-2.74-.53-4.11-.07-.77-.13-1.54-.17-2.32,0-.13-.11-1.05-.04-1.08v.83c0-.37,0-.74.03-1.1.25-5.6,1.53-11.09,3.85-16.19,4.17-9.16,11.04-16.69,16.88-24.77,2.9-4.01,5.6-8.21,7.57-12.76,2.27-5.23,3.45-10.84,4.09-16.49,1.28-11.36.26-23.01,2.47-34.26.83-4.22,2.36-8.7,5.55-11.73,3.97-3.77,9.31-3.42,14.09-1.48,2.61,1.06,5.07,2.46,7.59,3.7s4.96,2.28,7.52,3.23c5.12,1.9,10.42,3.28,15.8,4.15,10.71,1.73,21.74,1.44,32.33-.91,5.19-1.15,10.26-2.81,15.14-4.94.13-.06.02-1.69.02-1.88s-.13-1.82-.02-1.88h0Z"/>
  <path d="M223.02,1013.54c-2.12-6.8-4.8-14.66-12.13-17.37-3.1-1.14-6.5-.89-9.25,1.01-2.59,1.8-4.28,4.66-5.37,7.57-1.32,3.55-1.69,7.36-2.43,11.06s-2.06,7.37-4.41,10.55-5.02,5.65-7.07,8.82-2.89,6.32-2.89,10.02c0,1.63-.06,3.29.41,4.87.54,1.78,1.63,3.3,2.77,4.74,2.75,3.46,5.58,6.85,8.38,10.27,2.46,3.02,4.82,6.18,7.6,8.92,2.39,2.35,5.28,4.46,8.69,4.89,7.28.92,12.39-5.83,15.11-11.67,1.62-3.47,2.88-7.11,4.79-10.44,1.74-3.04,4.15-5.47,6.57-7.97,2.15-2.22,4.37-4.59,5.44-7.55.5-1.38.64-2.76.65-4.22.02-1.67.11-3.39-.2-5.04-.7-3.8-3.2-7.04-5.69-9.88-2.62-2.98-5.46-5.77-8.5-8.32-1.52-1.28-3.09-2.49-4.7-3.65.14.1-.02,1.66-.02,1.88,0,.26-.19,1.72.02,1.88,5.93,4.28,11.79,9.43,15.99,15.47,1.03,1.48,1.94,3.08,2.5,4.81.24.72.21,1.72.53,2.38.03.06.17-3,.02-1.7-.03.23-.04.46-.08.69-.06.39-.15.78-.26,1.16-.79,2.84-2.72,5.19-4.7,7.31-2.15,2.3-4.51,4.45-6.32,7.05-2.07,2.97-3.41,6.36-4.82,9.67-2.45,5.75-5.91,12.46-12.51,14.16s-12.12-3.84-16.02-8.57c-2.61-3.17-5.19-6.36-7.79-9.54-1.34-1.64-2.68-3.28-4.02-4.93-1.08-1.32-2.17-2.66-2.9-4.21-.39-.82-.57-1.63-.79-2.5-.07-.31-.05-1.07-.06.3s-.02.6.05.29c.1-.46.16-.92.28-1.38.44-1.73,1.21-3.38,2.15-4.9,1.86-3.04,4.43-5.57,6.64-8.35s3.88-6.03,4.76-9.63,1.19-7.23,2.14-10.77c1.51-5.58,5.37-11.75,11.89-11.49,7.16.29,11.54,6.83,13.81,12.88.64,1.71,1.19,3.45,1.73,5.2-.35-1.13.36-2.6,0-3.75h0Z"/>
  <path d="M157.19,349.34c.04.5.08,1.01.11,1.51,0,.15.02,1.11.03.45,0-.78-.05.69-.05.67-.03.43-.06.86-.09,1.28-.12,1.35-.3,2.69-.53,4.03-.48,2.76-1.19,5.47-2.08,8.12-1.73,5.16-4.15,10.05-6.94,14.72s-6.02,9.24-9.3,13.66c-1.36,1.84-2.74,3.71-2.81,6.08-.06,2.12-.32,4.49.92,6.33s3.39,3.24,5.32,4.39c2.03,1.21,4.15,2.23,6.17,3.44,3.84,2.29,6.69,5.32,8.38,9.49,3.15,7.79,2.47,16.94,7.17,24.15,2.39,3.67,6.18,6.24,10.42,7.28,3.91.96,9.88.93,12.67-2.49,1.35-1.66,1.71-3.89,1.84-5.96.16-2.53.1-5.09.04-7.62-.03-1.3-.09-2.59-.16-3.88-.04-.74-.08-1.48-.11-2.22-.03-.67-.32-1.83-.1-2.46-.07.19-.05,1.53,0-.11,0-.29.02-.59.04-.88.04-.78.09-1.57.17-2.35.13-1.39.31-2.77.54-4.14.87-5.2,2.46-10.29,4.72-15.06s5.74-8.98,8.02-13.79c1.03-2.18,1.68-4.49,1.74-6.91s.22-4.81-.47-7.05c-1.46-4.67-6.3-7.33-9.85-10.27-4.11-3.4-7.95-7.13-11.47-11.13s-6.6-8.35-9.69-12.7c-1.56-2.19-3.14-4.37-4.84-6.45-.8-.98-1.64-1.94-2.5-2.86-.71-.76-1.76-2.12-2.97-1.92-1.07.17-1.66,1.69-2.1,2.52-.6,1.12-1.1,2.29-1.52,3.49-.79,2.29-1.22,4.7-1.3,7.12-.08,2.2-.09,4.44.09,6.64-.1-1.24.1-2.51,0-3.75-.02-.27,0-.87-.08-1.2.53,2.46-.05,2.35.04,1.11.04-.62.11-1.24.2-1.86.19-1.26.47-2.5.85-3.71.36-1.15.8-2.26,1.33-3.34.45-.93,1.01-2.35,1.87-3,1.78-1.35,4.29,2.38,5.22,3.47,1.75,2.04,3.36,4.2,4.92,6.38,2.99,4.16,5.87,8.39,9.19,12.3s6.8,7.46,10.59,10.78c1.88,1.65,3.84,3.21,5.82,4.74,1.79,1.38,3.59,2.83,4.89,4.71.61.88,1.08,1.84,1.38,2.87.08.27.14.54.2.82.06.29.12,1.62.14.23.02-1.29-.02-.29-.07.04-.05.36-.11.71-.19,1.06-.54,2.52-1.69,4.83-3.02,7.02-2.65,4.39-5.5,8.51-7.49,13.27s-3.32,9.74-3.97,14.83-.58,9.78-.36,14.64c.06,1.31.14,2.63.2,3.94.03.66.06,1.31.08,1.97l.02.8c0-.53,0-.63-.02-.29-.04.41-.04.83-.08,1.24-.21,2.12-.78,4.34-2.42,5.81-3.08,2.76-8.44,2.75-12.21,1.78-4.11-1.05-7.79-3.54-10.15-7.09-4.57-6.87-4.16-15.62-6.84-23.18-1.39-3.93-3.7-7.2-7.16-9.56-3.76-2.57-8.2-4.12-11.62-7.19-.74-.67-1.45-1.43-1.9-2.33-.34-.67-.48-2.49-.46-.32s.18.27.49-.44c1-2.29,2.81-4.25,4.26-6.26,3.1-4.28,6.07-8.66,8.65-13.27,5.02-8.96,8.31-18.71,8.38-29.05.02-2.3.01-4.59-.19-6.88.11,1.24-.11,2.51,0,3.75h0Z"/>
  <path d="M183.38,44.13c.8,13.04.1,26.63-5.71,38.58-5.4,11.1-16.07,19.1-20.18,30.88-1.02,2.91-1.23,5.77-1.22,8.82s.31,5.62,1.91,8.16c1.72,2.72,4.25,4.96,6.6,7.14,2.22,2.06,4.52,4.04,6.81,6.02,4.65,4.03,9.33,8.08,13.3,12.8,4.19,4.98,7.12,10.67,9.64,16.63s4.4,11.79,7.77,17.01c1.59,2.46,3.64,4.72,6.33,5.98s6.03,1.41,9.06.97,6.03-1.17,8.55-2.73c2.65-1.64,3.9-4.19,4.45-7.18s.56-6.11.55-9.18c-.02-3.24-.27-6.44-.7-9.64-.46-3.38-1.05-6.75-1.5-10.13-.24-1.82-.45-3.64-.56-5.47-.03-.46-.06-.92-.07-1.39,0,.2-.04.91.01-.04.06-1.07.14-2.14.27-3.21.77-6.49,2.83-12.73,5.02-18.87s4.79-12.56,6.07-19.12c.54-2.76.63-5.84.3-8.63-.39-3.33-2.5-5.98-4.45-8.57-8.28-11.03-15.78-22.63-22.44-34.7-2.94-5.33-5.44-11.22-9.66-15.71-3.54-3.77-8.62-6.13-13.85-5.01-2.29.49-4.29,1.69-5.67,3.59-.22.3-.02,1.5-.02,1.88s.24,1.57.02,1.88c2.97-4.08,8.59-4.6,13.06-3.01,5.31,1.88,8.77,6.81,11.44,11.51,3.23,5.68,6.18,11.49,9.52,17.1,3.53,5.92,7.26,11.72,11.19,17.38,1.99,2.86,4.03,5.69,6.12,8.48,1.88,2.52,4.03,5.08,4.62,8.26.09.46.11,1.96.14,0,.03-2.12-.04-.1-.11.42-.11.86-.29,1.7-.48,2.54-.38,1.66-.84,3.31-1.34,4.95-.94,3.12-2.03,6.19-3.13,9.25-2.19,6.08-4.46,12.18-5.72,18.54s-1.28,12.36-.68,18.47c.33,3.4.9,6.77,1.41,10.14.25,1.61.48,3.21.67,4.83.1.84.19,1.68.26,2.52.03.32.45,2.87.19,3.14v-.87c0,.31-.02.61-.04.91-.02.44-.06.87-.1,1.3-.08.9-.2,1.81-.37,2.7-.28,1.52-.7,3.05-1.53,4.37-1.49,2.37-4.1,3.65-6.69,4.45-5.83,1.82-12.54,2.25-17.26-2.27-4.32-4.12-6.44-10.34-8.65-15.73-2.44-5.93-4.83-11.95-8.45-17.28-3.42-5.04-7.79-9.33-12.32-13.37s-9.34-7.93-13.68-12.26c-2.22-2.21-4.44-4.57-5.32-7.66-.19-.66-.32-1.35-.4-2.03-.32-2.76-.29,3.2,0,.41.04-.35.09-.7.14-1.05.27-1.62.74-3.2,1.34-4.72,4.55-11.52,14.97-19.46,20.17-30.64s5.86-23.76,5.71-35.97c-.04-3.07-.17-6.14-.35-9.21.05.89-.08,2.48,0,3.62h0Z"/>
  <path d="M382.69,118.23c-1.17,4.72-3.59,9.07-6.98,12.56-1.65,1.69-3.51,3.18-5.54,4.39-.98.58-2.23.97-3.12,1.67s-.6,1.94-.6,2.91-.08,1.95.27,2.88c.46,1.22,1.05,2.4,1.64,3.55,1.18,2.29,2.52,4.48,3.86,6.67,2.59,4.24,5.28,8.55,6.62,13.38.43,1.54.63,3.08.8,4.67.15,1.37.04-.63.03-.74.06.54-.05,1.14-.08,1.68-.05.88-.12,1.76-.17,2.64-.2,3.1-.28,6.27-.06,9.37v.07c5.44-10.87,14.12-20.03,24.74-25.96,1.17-.65,2.74-1.09,2.89-2.6.13-1.32.08-2.74-.01-4.07-.24-3.52-.97-7.08-1.57-10.55-.64-3.67-1.37-7.33-2.19-10.97-.74-3.27-1.35-6.84-3.31-9.64-4.11-5.88-12.73-6.09-17.35-.75-.21.25-.02,1.54-.02,1.88s.23,1.63.02,1.88c2.55-2.95,6.52-4.49,10.39-3.74,4.09.79,7.1,3.75,8.53,7.57,1.63,4.35,2.36,9.16,3.23,13.71.46,2.39.88,4.78,1.26,7.19s.92,4.97,1.02,7.44v-3.68c-.15,1.51-1.73,1.95-2.88,2.6-1.27.71-2.51,1.46-3.72,2.26-2.31,1.52-4.52,3.2-6.6,5.03-4.22,3.69-7.93,7.96-10.98,12.66-.75,1.16-1.47,2.35-2.14,3.56-.3.54-.54,1.29-.93,1.75l-.18.35c-.21.01-.28-.09-.22-.3-.03-.65-.03-.32-.02.98.01-.32.02-.64.04-.96.15-3.17.38-6.32.37-9.5,0-2.76-.23-5.44-1.03-8.1s-2-5.16-3.34-7.57c-1.53-2.76-3.25-5.42-4.86-8.14-.77-1.3-1.52-2.62-2.21-3.97s-1.65-2.9-1.81-4.39v3.75c.16-1.09,1.21-1.37,2.08-1.81,1-.5,1.97-1.07,2.89-1.7,1.85-1.25,3.55-2.74,5.04-4.4,3-3.34,5.14-7.38,6.22-11.74.29-1.18-.29-2.58,0-3.75h0Z"/>
</svg>