<?xml version="1.0" encoding="UTF-8"?>
<svg id="Layer_1" data-name="Layer 1" xmlns="http://www.w3.org/2000/svg" viewBox="0 0 1225.61 303">
  <defs>
    <style>
      .cls-1 {
        stroke-width: 0px;
      }
    </style>
  </defs>
  <g>
    <path class="cls-1" d="M0,148.35C0,68.25,62.11,3.99,148.22,3.99s143.08,59.97,143.08,139.65c0,46.69-20.56,87.39-54.4,113.52l35.13,45.84h-69.4l-15.85-20.99c-13.71,3.43-28.27,5.57-43.69,5.57C57.83,287.57,0,228.46,0,148.35ZM179.06,182.19l30.41,39.41c9-18.85,14.14-42.84,14.14-70.25,0-71.11-30.41-124.23-78.82-124.23s-76.68,46.69-76.68,112.66c0,71.97,30.41,125.09,78.39,125.09,8.57,0,16.71-1.71,23.99-4.28l-59.54-78.39h68.11ZM418.52,84.52v-.86h63.83c-.86,15.42-1.29,30.41-1.29,45.84v113.09c0,18.85,1.71,29.99,8.57,38.13v.86h-63.4v-27.42c-6.43,14.56-23.99,31.7-53.12,31.7-39.84,0-59.54-24.85-59.54-71.11v-64.68c0-42.84-2.57-56.55-7.71-65.54v-.86h62.97v46.26l-.43,78.39c0,28.27,9,43.27,28.27,43.27,17.56,0,29.56-13.71,29.56-42.41v-60.83c0-42.84-3-55.26-7.71-63.83ZM606.57,281.58c0-5.14-1.29-15.42-1.29-23.99-6.43,12.85-21.42,28.27-47.55,28.27-32.13,0-55.26-21.42-55.26-52.26s21.42-41.12,59.54-56.55l29.99-11.99c14.14-5.57,14.56-6.43,14.56-29.56,0-26.13-10.28-34.27-26.13-34.27-9.85,0-12.85,1.71-16.28,13.28l-2.57,8.57c-6,20.13-15.42,25.7-30.84,25.7-16.28,0-23.56-11.99-23.56-22.7,0-31.7,49.69-46.26,88.67-46.26,41.98,0,66.4,14.99,65.11,67.25v95.53c0,18.85,1.71,29.99,8.57,38.13v.86h-62.97ZM606.14,181.34c-4.28,1.71-9.85,3.86-19.28,7.71-26.13,10.71-29.99,18.42-29.99,31.7,0,17.99,8.57,33.84,23.99,33.84s24.42-14.14,24.85-35.13l.43-38.13ZM756.93,286.72c-46.69,0-75.82-36.41-75.82-95.53,0-78.82,48.41-111.38,102.81-111.38,11.14,0,23.99,1.71,30.84,3.86,0-48.83-2.14-61.69-7.71-74.54l62.97-7.71v241.18c0,18.85,1.71,29.99,8.57,38.13v.86h-63.4v-21.42c-9,9.85-30.84,26.56-58.26,26.56ZM741.51,177.91c0,46.69,13.71,75.39,41.55,75.39,20.13,0,32.13-17.56,32.13-40.27v-62.97c0-33.41-11.14-49.26-32.13-49.26-23.56,0-41.55,24.42-41.55,77.11Z"/>
    <path class="cls-1" d="M1108.5,45.05l32.01,44.74h29.77s-41.24-58.93-41.24-58.93c39.88-15.66,69.28,17.51,69.24,45.95-.05,28.44-22.6,52.71-50.76,52.66-28.14-.03-51.4-24.22-51.37-52.66.03-12.72,4.79-22.78,12.36-31.76M1058.2,238.44l-32.08-44.07h-30.22s42.03,58.48,42.03,58.48c-4.43,2.38-14.06,4.2-19.74,4.11-27.72-.44-49.77-22.3-49.73-50.45.05-28.16,22.32-50,49.93-50.52,28.14-.55,52.38,22.38,52.35,50.54-.02,12.59-5.73,25.97-12.55,31.91M1224.82,194.38l-85.56-.02-15.25,23.05h73.66c-5.33,21.96-25.69,39.68-49.91,39.09-28.73-.71-50.93-22.36-50.9-50.52.06-28.16,21.79-51.01,50.9-50.97,22.3.03,40.61,13.38,48.08,32.57h28.03c-4.69-19.89-16.47-35.93-32.32-45.58,21.38-13.72,33.04-37.67,33.08-64.66C1224.7,34.88,1189.58.06,1147.51,0c-10.86-.02-23.5,1.68-34.25,7.82l-4.67-6.41h-30.51s14.7,20.91,14.7,20.91c-3.82,3.02-7.04,6.75-9.73,10.96-13.48-20.44-37.69-32.69-64.5-32.43-41.65.41-75.07,37.34-75.97,75.94-.09,4.14.56,9.02,1.2,12.97l83.59.02,15.88-23.46h-72.92c5.4-22.22,24.34-38.96,48.42-39.36,26.84-.44,51.93,21.92,51.88,50.36-.03,28.44-23.4,51.58-52.13,51.54-22.18-.05-38.77-13.3-46.82-30.99h-26.57c6.1,21.25,16.74,35.86,32.04,44.48-20.89,13.45-34.88,36.71-34.92,63.62-.07,42.06,33.18,76.71,75.25,76.78,10.88,0,26.58-1.7,36.7-8.04l4.57,6.8h30.06s-14.22-20.74-14.22-20.74c3.81-3.7,6.91-7.77,9.44-12.08,13.65,20.31,37.42,33.3,63.74,33.34,41.85.07,77.76-34.7,77.83-75.53,0-4.1-.15-8.2-.78-12.13"/>
  </g>
  <path class="cls-1" d="M1213.87,281.01c-.43-.08-.85-.19-1.26-.34-.42-.15-.81-.32-1.18-.54-.37-.21-.72-.45-1.04-.72-.33-.27-.62-.56-.89-.87-.27-.31-.51-.66-.72-1.03-.21-.37-.4-.76-.55-1.16-.16-.4-.28-.82-.35-1.26s-.12-.89-.12-1.36.04-.89.12-1.33.19-.86.34-1.28.33-.81.56-1.18c.22-.37.47-.72.74-1.04.27-.32.57-.62.89-.89.32-.27.67-.51,1.04-.72s.76-.4,1.16-.56c.4-.16.82-.27,1.26-.35.44-.08.89-.12,1.36-.12s.93.04,1.38.12c.45.08.87.19,1.28.34.4.15.79.33,1.16.56s.72.47,1.04.74c.32.27.62.57.89.89.27.33.51.67.72,1.03.21.36.39.75.54,1.16.15.41.26.83.34,1.26.08.43.12.87.12,1.34s-.04.93-.12,1.36c-.08.44-.19.86-.34,1.26-.15.4-.33.79-.55,1.16-.22.37-.47.72-.74,1.04-.27.33-.57.62-.89.89-.33.27-.67.51-1.04.72-.37.21-.76.39-1.16.54-.4.15-.82.26-1.26.34s-.89.12-1.36.12-.92-.04-1.34-.12ZM1219.57,278.17c1.18-1.16,1.77-2.66,1.77-4.47s-.58-3.31-1.73-4.47c-1.16-1.16-2.62-1.75-4.39-1.75s-3.23.59-4.39,1.77-1.73,2.67-1.73,4.49c0,.47.04.91.12,1.33s.2.81.35,1.19c.16.38.34.73.55,1.06.21.33.46.62.74.89.28.27.58.51.91.72.32.21.67.39,1.04.54.37.15.76.26,1.16.34.4.08.82.12,1.24.12,1.73,0,3.18-.58,4.35-1.75ZM1212.66,269.93h2.59c.85,0,1.54.18,2.05.54.52.36.77.92.77,1.68v.03c0,.56-.15,1-.44,1.31s-.65.54-1.08.67l1.95,3.13h-1.68l-1.78-2.86h-.77v2.86h-1.61v-7.36ZM1215.22,273.32c.43,0,.75-.09.96-.27s.32-.45.32-.81v-.03c0-.38-.11-.65-.34-.81-.22-.16-.54-.23-.94-.23h-.94v2.15h.94Z"/>
</svg>