<svg width="364" height="100" xmlns="http://www.w3.org/2000/svg">

 <g>
  <title>Layer 1</title>
  <path d="m37.77549,76.24982c0.55555,0 2.39951,-0.85715 5.27774,-3.05553c3.28169,-2.50655 8.30335,-8.39281 11.94436,-12.77769c4.18801,-5.04364 8.92934,-11.9193 11.66658,-16.38878c2.53775,-4.14374 3.88886,-7.22217 5.55552,-10.55548c0.27778,-0.55555 0.55556,-1.11111 0.27778,-1.11111c-0.55555,0 -0.82355,2.50294 -1.66666,5.27774c-1.09838,3.61498 -3.10059,7.03791 -5.55552,16.111c-1.47973,5.46889 -2.08311,8.59952 -2.22221,11.11103c-0.15361,2.77351 -0.33511,4.75623 0,6.38885c0.42535,2.07228 0.58274,2.45122 1.11111,2.77776c0.94516,0.58414 2.58759,0.43463 4.99996,-0.27778c2.97847,-0.87959 8.33327,-6.66663 11.66659,-11.94436c3.33331,-5.27774 7.42028,-13.55349 8.0555,-16.111c0.40729,-1.63982 0.47419,-2.85912 0.27777,-3.05553c-0.19641,-0.19641 -0.61672,-0.05698 -1.38888,0.83333c-2.72999,3.1477 -5.56361,10.20186 -6.38885,13.88879c-0.85804,3.83349 -0.83332,9.44438 -0.83332,12.22214c0,1.38888 0.07668,2.55915 2.22221,3.61109c2.60393,1.2767 5.5192,1.87532 9.72215,1.94443c2.79124,0.04589 5.96043,-1.23867 8.61105,-3.61108c1.75627,-1.57194 2.77412,-2.7103 3.05553,-4.44442c0.35596,-2.19351 0,-3.33331 0,-4.44441c0,-0.27777 -0.19262,-0.15033 -0.55555,0c-0.25663,0.1063 -0.92864,0.52113 -1.38888,1.94444c-0.35237,1.08974 -0.27778,3.61108 -0.27778,4.72219c0,0.55555 1.93576,2.0832 5.27774,2.22221c4.44057,0.18471 10.16267,-1.07396 13.61102,-3.05553c2.93986,-1.68938 4.57318,-3.53472 6.38884,-4.72219c0.51983,-0.33998 1.3466,-0.89851 0.83334,-1.11111c-0.36294,-0.15033 -1.13268,2.09944 -2.22221,3.61109c-0.22969,0.31868 -0.66301,1.08821 -1.38888,1.38888c-0.25663,0.1063 -1.42886,0.40037 -2.22221,-0.55556c-1.29147,-1.55613 -1.24618,-3.28435 -1.38888,-3.88886c-0.12764,-0.54069 0.02114,-0.93962 0.27777,-0.83333c0.72587,0.30066 3.99774,2.06044 7.77773,4.72219c3.72501,2.62302 4.34712,3.71881 5.83328,3.88886c3.6299,0.41535 7.77773,-1.94443 11.11104,-4.16663l3.33331,-1.94444l0.83333,-0.55555l0.27777,0" id="svg_21" stroke="#000" fill="none"/>
  <path d="m195.27441,49.02779c0,0.83332 0,3.05553 0,4.99997c0,1.1111 -0.1382,3.86825 -0.27777,5.27774c-0.08211,0.82927 0,1.38888 0,1.94443c0,0.27777 -0.27777,0.83332 -0.55556,1.66666c-0.27777,0.83332 0.11507,1.27382 -0.27777,1.66666c-0.19641,0.19641 -0.63692,0.19641 -0.83333,0c-0.19643,-0.19642 -0.683,-1.30373 -0.83333,-1.66666c-0.2126,-0.51326 -0.38179,-2.50161 -0.27777,-5.83329c0.13895,-4.45092 0.55554,-8.0555 0.55554,-9.16661c0,-0.27777 -0.10059,-0.84248 0.27779,-4.44441c0.43915,-4.18051 1.49623,-8.65467 2.49998,-12.22214c0.23792,-0.84557 0.233,-1.13897 1.1111,-2.49998c2.38109,-3.69057 4.83562,-6.28832 7.77773,-9.72216c0.65164,-0.76055 0.76476,-1.20352 1.1111,-1.38888c1.24879,-0.66834 2.7921,-0.73353 3.88887,-0.55555c2.60118,0.42211 4.72031,2.6095 6.66661,6.11107c3.26128,5.86731 3.8437,10.28443 4.44443,14.16657c0.51675,3.33954 0.66666,8.34664 0.27777,11.11103c-0.43263,3.07535 -1.42216,8.32065 -2.77776,11.94436c-1.13918,3.04519 -2.75439,7.2412 -3.88887,8.61105c-1.63347,1.97239 -3.98792,4.51505 -8.61105,6.66662c-2.1517,1.00139 -3.88885,1.11111 -4.72218,1.11111c-0.55556,0 -1.09865,0.12524 -1.38889,-0.83333c-0.48297,-1.59515 -0.11815,-3.89306 0,-5.55552c0.13924,-1.95923 0.51106,-2.78134 0.55556,-3.05553c0.1407,-0.86706 1.65094,-1.42992 3.05553,-1.94443c2.47443,-0.9064 3.95944,-1.01187 5.55553,-0.27778c1.47151,0.6768 3.3877,2.12466 4.44441,2.77776c1.18144,0.73018 1.8924,2.00188 2.49998,2.49998c0.77454,0.63496 1.94443,1.1111 2.49998,1.66666c0.27777,0.27778 0.55833,0.35654 1.66666,0.27778c1.95923,-0.13924 3.65152,-1.0455 6.38884,-2.77776c0.84631,-0.53557 1.25328,-0.94181 1.94443,-1.66666c1.11772,-1.17223 1.02594,-2.37254 1.38889,-2.22221c0.25664,0.1063 -0.04808,0.79242 -0.27779,1.11111c-0.36317,0.50388 -0.27777,0.83333 -0.27777,1.1111c0,0.27778 0.27777,0.27778 0.55556,0.27778c2.2222,0 6.00789,-0.09663 9.44438,-1.66666c4.76711,-2.17793 20.58138,-17.22572 30.83311,-28.88869c4.29694,-4.88845 5.5827,-6.99318 6.11108,-6.66662c0.70886,0.43811 -0.36029,1.63658 -1.94443,6.11107c-0.5863,1.65609 -1.51184,4.06584 -3.05554,7.22218c-5.28027,10.79635 -13.479,19.55128 -17.77766,24.72205c-1.88766,2.27063 -3.37038,2.99564 -6.66663,2.49998c-7.47231,-1.1236 -12.68309,-4.76777 -15.55545,-7.22218c-2.09056,-1.78638 -3.19394,-3.87163 -3.3333,-5.55552c-0.18329,-2.21463 1.47136,-7.39268 2.2222,-8.0555c0.46565,-0.41106 1.68468,-0.76759 8.33328,-0.27777c7.56131,0.55706 18.85632,3.58804 47.22189,3.88886c20.00647,0.21217 36.11087,-3.88886 47.22189,-6.9444l3.61111,-0.83333l1.11108,-0.27777l0.55554,0" id="svg_30" stroke="#000" fill="none"/>
  <path d="m55.55314,55.97218c0.55555,0.27777 2.50083,0.63651 6.38885,0.55555c6.67096,-0.13892 14.74875,-1.45418 26.66648,-3.05553c16.43069,-2.20775 25.55538,-3.61109 31.66645,-5.27774l4.16664,-1.38888" id="svg_31" stroke="#000" fill="none"/>
 </g>
</svg>