<?xml version="1.0" encoding="UTF-8"?>
<svg id="Layer_2" data-name="Layer 2" xmlns="http://www.w3.org/2000/svg" viewBox="0 0 565.74 478.86">
  <defs>
    <style>
      .cls-1 {
        fill: none;
      }

      .cls-2 {
        fill: #1a1a1a;
      }
    </style>
  </defs>
  <g id="Layer_1-2" data-name="Layer 1">
    <g>
      <path class="cls-1" d="M539.24,31.79s.05,0,.08,0c.04-.02.07-.04.11-.06-.09.02-.16.04-.19.05Z"/>
      <path class="cls-1" d="M539.28,31.82c.05,0,.11,0,.17-.01-.04,0-.08,0-.13-.01-.01,0-.03.01-.04.02Z"/>
      <path class="cls-1" d="M539.74,31.66c.14-.11.15-.19-.24.03-.02.01-.05.03-.07.04.1-.02.21-.05.31-.07Z"/>
      <path class="cls-1" d="M539.98,31.6s-.11.03-.24.06c-.07.05-.18.11-.29.14.29.02.51-.02.53-.2Z"/>
      <path class="cls-1" d="M351.36,42.01s.02,0,.04,0c-.01,0-.03,0-.04,0Z"/>
      <path class="cls-1" d="M406.56,33.65c-.14.11-.2.16,0,0h0Z"/>
      <path class="cls-1" d="M307.74,72.07c-.27.22-.14.12,0,0h0Z"/>
      <path class="cls-1" d="M436.95,5.57c-.21-.28-.57-.68-.14-.17.05.06.1.12.14.17Z"/>
      <path class="cls-1" d="M497.52,333.47s.01-.02.02-.03c0,0,0,0,0-.01,0,.01-.02.03-.03.05Z"/>
      <path class="cls-1" d="M553.91,62.09c.05-.19.11-.39.1-.36-.04.09-.08.17-.11.25,0,.03,0,.07.01.12Z"/>
      <path class="cls-1" d="M479.12,384.36s.03-.02.05-.04c.01-.01.02-.02.03-.03-.02.02-.05.04-.08.07Z"/>
      <path class="cls-1" d="M497.55,333.42c.12-.17.23-.36.32-.56-.06.06-.21.27-.3.49,0,.02-.02.04-.03.07Z"/>
      <path class="cls-1" d="M553.83,62.3s.02-.05.04-.07c0-.06.01-.11.02-.19,0-.01,0-.02,0-.03-.04.1-.06.18-.08.25.01.02.02.02.03.04Z"/>
      <path class="cls-1" d="M551.27,78.39s.02-.02.03-.03c.03-.07.06-.14.1-.22-.03.09-.09.17-.13.26Z"/>
      <path class="cls-1" d="M551.14,78.52c-.24.23-.23.38-.12.28.09-.14.17-.27.24-.41-.04.04-.08.09-.13.13Z"/>
      <path class="cls-1" d="M111.78,447.51c.07.12.06.09,0,0h0Z"/>
      <path class="cls-1" d="M71.17,292.17c.03-.05.05-.11.08-.16.44-.93,0-.1-.08.16Z"/>
      <path class="cls-1" d="M59,303.32s.01,0,.02-.01c-.01,0-.02.01-.02.01Z"/>
      <path class="cls-1" d="M68.86,296.19c.26-.3.16-.19,0,0h0Z"/>
      <path class="cls-1" d="M59.3,303.18s.03-.01.05-.02c.71-.27.29-.12-.05.02Z"/>
      <path class="cls-1" d="M16.27,320.04s-.01,0-.03.04c0-.01.02-.02.03-.04Z"/>
      <path class="cls-1" d="M31.05,405.46s-.06-.04-.07-.03c0,0,.03,0,.07.03Z"/>
      <path class="cls-1" d="M31.13,405.52s.03.05.03.07c0-.02-.01-.04-.02-.06,0,0,0,0-.01-.01Z"/>
      <path class="cls-1" d="M478.95,384.47c-.11.08-.19.16-.24.23.15-.11.28-.23.4-.35-.05.04-.11.08-.16.12Z"/>
      <path class="cls-1" d="M170.45,69.34c-.27-.41-.16-.24,0,0h0Z"/>
      <path class="cls-1" d="M119.52,47.44c-.04-.05-.07-.11-.1-.16-.14-.13-.29-.27-.39-.4.21.28.36.45.49.57Z"/>
      <path class="cls-1" d="M183.96,67.9s-.09-.07-.2-.15c.1.09.18.16.2.15Z"/>
      <path class="cls-1" d="M11.51,47.46c-.02.21-.03.31,0,0h0Z"/>
      <path class="cls-1" d="M11.54,47.18c.01-.08.02-.16.04-.24-.01.06-.03.15-.04.24Z"/>
      <path class="cls-1" d="M80.24,185.43c0-.1-.02-.2-.04-.3.01.1.03.21.04.3Z"/>
      <path class="cls-1" d="M307.99,71.9s0,.01,0,.02c0,0,0-.01.01-.02,0,0,0,0,0,0Z"/>
      <path class="cls-1" d="M232.05,63.47c.09-.07.18-.15.27-.22-.17.06-.36.19-.55.34-.04.08.05.08.28-.11Z"/>
      <path class="cls-1" d="M232.39,63.21s-.04.01-.05.02c0,0-.01.01-.02.02.02,0,.05-.03.08-.04Z"/>
      <path class="cls-1" d="M226.32,66.82s-.06.01-.1.02c-.01,0-.02.01-.04.02.05-.01.09-.03.14-.04Z"/>
      <path class="cls-1" d="M225.89,67c.1-.05.2-.09.29-.14-.19.06-.39.15-.58.23.07,0,.17-.04.29-.09Z"/>
      <path class="cls-1" d="M184.41,68c-.07-.04-.15-.07-.22-.11-.18-.05-.23-.04.22.11Z"/>
      <path class="cls-1" d="M137.42,52.03c.2.1.38.13.39.1-.2-.08-.41-.14-.61-.21.07.04.15.07.22.11Z"/>
      <path class="cls-1" d="M236.76,58.76s-.05.05-.07.08c-.03.04-.05.07-.08.12.04-.07.1-.14.15-.2Z"/>
      <path class="cls-1" d="M184.41,68c.16.08.28.15.28.16,0-.03-.03-.06-.08-.09-.03,0-.06-.02-.09-.03-.04-.01-.07-.02-.11-.04Z"/>
      <path class="cls-1" d="M395.49,38.46c.15,0,.23-.03.28-.04-.1.01-.3.03-.48.06.07,0,.13,0,.2-.01Z"/>
      <path class="cls-1" d="M236.78,58.73c.06-.07.12-.16.17-.24-.07.09-.13.18-.19.26,0,0,.01-.02.02-.02Z"/>
      <path class="cls-1" d="M395.29,38.48s-.09,0-.14,0c-.03.02-.06.03-.09.05.03-.02.12-.04.22-.06Z"/>
      <path class="cls-1" d="M237.12,427.53c.06,0,.13-.01.19-.02.05-.01.08-.02.13-.03-.1.02-.21.03-.32.05Z"/>
      <path class="cls-1" d="M308.3,71.24s0-.01,0-.02c0,.02-.02.04-.03.06-.1.26-.14.47.02-.04Z"/>
      <path class="cls-1" d="M308.47,70.92c-.05.06-.1.16-.15.26,0,.02,0,.03-.01.05.07-.15.13-.27.16-.31Z"/>
      <path class="cls-1" d="M87.42,425.76s.02.03.03.04c0,0,.01,0,.02.01-.02-.02-.04-.04-.05-.05Z"/>
      <path class="cls-1" d="M5.81,61.37c-.06.06-.12.14-.19.22,0,0,0,.01-.01.02.06-.08.13-.16.2-.24Z"/>
      <path class="cls-1" d="M5.61,61.62s0-.01.01-.02c0,0-.01.01-.02.02-.18.24-.31.45,0,0Z"/>
      <path class="cls-1" d="M87.67,425.96c-.07-.05-.14-.1-.21-.15.13.15.29.3.46.43.01-.03-.06-.15-.26-.28Z"/>
      <path class="cls-1" d="M237.06,427.54c-.06,0-.14.02-.2.03.09-.01.18-.03.27-.04-.02,0-.04,0-.06,0Z"/>
      <path class="cls-1" d="M137.2,51.92s-.06-.03-.09-.05c-.07-.02-.14-.04-.22-.06.11.03.21.07.32.11Z"/>
      <path class="cls-1" d="M187.73,445.91s-.06-.01-.08-.02c-.19-.05-.3-.04-.35-.02.03,0,.07,0,.1,0,.1,0,.22.03.34.04Z"/>
      <path class="cls-1" d="M187.73,445.91s.09.02.13.03c.05,0,.09-.01.15-.02-.08.02-.18,0-.28,0Z"/>
      <path class="cls-1" d="M37.3,53.97s-.02-.03-.03-.04c-.05-.05-.09-.09-.16-.14.06.06.12.12.18.19Z"/>
      <path class="cls-1" d="M135.41,51.02c-.11-.11-.19-.19-.28-.26-.05-.03-.1-.06-.15-.09.14.12.29.23.42.36Z"/>
      <path class="cls-1" d="M133.96,49.77c-.04-.08-.07-.14-.11-.21-.03-.03-.05-.06-.08-.09.07.1.14.2.19.3Z"/>
      <path class="cls-1" d="M134.95,50.64s.02.01.03.02c-.06-.05-.11-.09-.17-.14-.06-.05-.11-.11-.17-.17-.04,0,.12.17.31.29Z"/>
      <path class="cls-1" d="M133.78,49.48c-.11-.15-.22-.3-.31-.45.01.07.1.23.26.39.02.02.04.04.05.06Z"/>
      <path class="cls-1" d="M37.44,54.17c.12.18.25.28.28.27-.13-.17-.27-.32-.41-.47.04.07.09.13.13.2Z"/>
      <path class="cls-1" d="M511.74,310.5s0-.01.01-.02c0-.02-.01-.04-.02-.06,0,0,0,0,0,.01,0,.02,0,.04.01.06Z"/>
      <path class="cls-1" d="M16.05,320.61s.02-.01.03-.02c0-.02.01-.03.02-.05-.03.04-.05.07-.05.07Z"/>
      <path class="cls-1" d="M31.12,405.5s0,0,.01,0c-.01-.04-.02-.07-.03-.11-.06-.06-.12-.11-.18-.17.06.08.14.18.2.27Z"/>
      <path class="cls-1" d="M196.46,435.85s.06-.01.1-.01c0,0-.01,0-.02,0-.03,0-.06,0-.08.02Z"/>
      <path class="cls-1" d="M16.27,320.1s-.03.04-.05.05c-.02.05-.04.12-.07.22-.02.05-.03.11-.05.16.03-.04.06-.1.1-.17.03-.1.06-.2.07-.27Z"/>
      <path class="cls-1" d="M168.87,67.87s.07.08.1.12c.01,0,.02.02.04.02-.05-.05-.1-.1-.13-.15Z"/>
      <path class="cls-1" d="M166.72,66.73c-.24-.12-.38-.11-.34-.05.23.09.45.17.68.22-.11-.05-.22-.11-.34-.17Z"/>
      <path class="cls-1" d="M167.22,66.94c-.05,0-.11-.03-.17-.04.01,0,.02.01.03.02.05,0,.08.02.14.03Z"/>
      <path class="cls-1" d="M511.74,310.38s0,0,0,0c0,.01,0,.02-.01.04,0,0,0,0,0,.01,0-.01,0-.03.01-.04Z"/>
      <path class="cls-1" d="M511.78,310.43s0,0,0,0c0-.09,0-.11.01-.08,0-.05,0-.09-.01-.12,0,.02-.01.02-.02.04-.01.04-.02.08-.03.12.01.01.02.02.04.05Z"/>
      <path class="cls-1" d="M511.65,310.79s0,0,0,0c.01-.06.03-.13.05-.22,0,0,0,.01-.01.02-.01.06-.02.13-.04.2Z"/>
      <path class="cls-1" d="M511.73,310.44s0-.01,0-.02c-.01.04-.02.07-.03.12,0,0,0,0,0,0,0-.04.02-.07.03-.11Z"/>
      <path class="cls-1" d="M511.71,310.56s0,0,0,0c0,0,0,.01,0,.02,0,0,0,0,0-.01Z"/>
      <path class="cls-1" d="M553.79,62.35s0-.01,0-.02c-.04-.06-.09-.14-.14-.22-.08-.09-.16-.18-.25-.27-.79-.86-1.67-1.64-2.5-2.46-4.03-4.05-7.42-8.91-9.71-14.16-1.22-2.79-2.29-5.62-2.99-8.58-.3-1.26-.51-2.54-.72-3.82-.24.14-.49.27-.74.4-3.17,1.61-6.4,2.39-9.92,2.74-6.02.59-12.15-.8-18.02-1.98-5.23-1.05-10.46-2.11-15.69-3.17-.79.39-1.66.6-2.53.54-5.71-.4-11.43-.46-17.14-.7-9.42-.4-19.07-1.3-27.86-4.92-5.02-2.07-9.74-4.81-13.72-8.37-3.39,7.94-7.46,15.63-13.63,21.79-6.7,6.69-15.61,11.33-25.22,11.34-9.48,0-18.04-4.16-26.92-6.87-2.14-.65-4.31-1.21-6.52-1.59-.08-.01-.32-.05-.52-.08-.45-.04-.89-.09-1.34-.12-.95-.06-1.89-.09-2.84-.07-.94.02-1.88.07-2.81.17-.12.01-.26.03-.4.05-.38.06-.76.13-1.14.2-1.78.35-3.53.84-5.24,1.44-.41.15-.82.31-1.23.47-.16.07-.32.13-.45.19-.81.37-1.6.76-2.38,1.18-1.68.9-3.29,1.91-4.84,3.02-.14.1-.28.2-.42.31-.45.53-.61.58-.54.46-.18.13-.37.26-.53.4-.69.58-1.37,1.18-2.03,1.8-1.41,1.33-2.75,2.74-4,4.22-.31.37-.6.77-.92,1.13-.06.08-.12.16-.18.24-.54.74-1.06,1.49-1.56,2.25-1.07,1.63-2.04,3.32-2.91,5.06-.24.49-.48.98-.71,1.48-.07.15-.14.31-.21.46-.31.77-.61,1.54-.88,2.33-.66,1.9-1.06,3.88-1.71,5.78-1.05,3.05-2.7,5.71-5.47,7.48-2.19,1.4-4.94,2.01-7.51,1.93-4.75-.15-9.15-2.12-13.29-4.3-7.18-3.78-13.75-8.97-19.18-14.99-7.06-7.82-12.43-17.04-15.66-26.97-.43,1.23-.84,2.47-1.25,3.7-1.73,5.22-3.46,10.42-5.74,15.44-2.16,4.76-5.04,9.27-8.75,12.98-4.18,4.17-9.27,7.13-14.79,9.14-10.15,3.7-21.48,3.61-32.11,2.71-2.65-.23-5.29-.51-7.92-.82-3.52-.42-6.96-.86-10.11-2.61-3.11-1.73-4.95-4.58-6.76-7.52-.19-.3-.39-.6-.58-.9-.36-.25-.73-.86-1.04-1.15-.03-.03-.06-.05-.09-.08-.02.05-.24-.06-.55-.45-.35-.23-.7-.46-1.07-.67-.27-.15-.54-.28-.82-.41-.45-.08-.66-.18-.71-.24-.26-.1-.51-.21-.75-.29-1.1-.33-2.23-.58-3.37-.76-.04,0-.08-.01-.11-.02-.26-.03-.51-.06-.77-.08-.6-.06-1.19-.1-1.79-.13-1.2-.06-2.41-.08-3.62-.08-5.04.02-9.96.38-14.99-.29-5.46-.73-10.86-2.52-14.92-6.4-1.91-1.82-3.25-4.03-4.28-6.43-.46-1.06-.89-2.13-1.4-3.17-1.56,1.73-3.07,3.5-4.62,5.24-4.06,4.58-8.37,8.94-13.49,12.36-10.68,7.13-23.92,7.72-36.35,7.36-10.46-.3-22.13-.66-31.21-6.54-4.69-3.04-7.82-7.18-10.32-12.1-.55-1.09-1.15-2.14-1.75-3.18-1.32,6.06-3.92,11.79-7.67,16.72,2.89,2.17,5.63,4.56,8.16,7.12,15.86,16.03,23.87,37.69,29.29,59.14.14.56.2,1.12.19,1.67,3.6,1.81,7.2,3.61,10.78,5.46,4.45,2.3,8.71,4.85,12.53,8.12,13.45,11.51,16.69,30.27,16.97,47.02.15,9.24-.14,18.5-.27,27.74-.06,4.72-.13,9.43-.19,14.15-.06,4.77.22,9.71-.88,14.39-.2.86-.6,1.6-1.13,2.22-.15,1.05-.3,2.09-.46,3.14-1.42,9.37-2.95,18.76-4.92,28.03-.94,4.45-2.26,8.88-4.48,12.87-2.21,3.96-5.34,7.16-8.95,9.85-6.98,5.21-15.7,7.35-24.24,8.01-4.74.37-9.49.22-14.23,0-3.77-.18-7.56-.53-11.33-.15-.04,0-.07,0-.11.01-.38.06-.76.13-1.14.22-.75.17-1.47.4-2.2.63t0,0s-.02.01-.04.02c-.32.16-.64.34-.95.53-.06.04-.12.08-.18.13-.18.16-.37.31-.52.47-.05.05-.1.12-.15.18-.09.15-.21.37-.31.53-.03.1-.08.19-.12.22-.04.13-.08.26-.12.4-.05.2-.09.4-.14.6.06.95-.16,2.03-.14,2.97.02,1.07.07,2.14.12,3.21.11,2.28.28,4.56.49,6.83.12,1.25.25,2.51.4,3.76.06.48.12.95.18,1.43.03.24.07.49.1.73.66,4.52,1.51,9.01,2.57,13.45,1.06,4.44,2.31,8.84,3.76,13.17,1.43,4.27,3.18,8.42,4.58,12.7,1.47,4.47,2.36,9.13,2.26,13.84-.04,1.78-.15,3.56-.19,5.34-.02.91-.02,1.81.03,2.72.02.35.05.69.08,1.04,0,.04.02.08.03.14.09.44.19.87.32,1.3.01.04.02.07.04.11.11.17.21.38.3.59.09.05.24.21.34.49.08.07.15.15.22.22.29.18.67.44.77.49.03.01.05.03.07.04.02,0,.03,0,.05.01.43.11.84.25,1.27.35.11.03.58.11.9.17.28.03.64.07.75.08.9.07,1.8.1,2.69.12,2.39.07,4.79.13,7.18.19,9.66.25,19.31.51,28.97.76,2.05.05,3.76,1.04,4.82,2.56,1.4.07,2.8.24,4.19.51,8.96,1.74,16.4,8.42,20.91,16.1,2.34,3.98,4.05,8.38,5.38,12.79.57,1.9,1,3.85,1.58,5.75.1.32.35.77.43,1.13.03.07.07.14.11.2.03.05.07.11.1.16.02,0,.04.02.06.03.09.02.17.04.23.06.11.01.22.02.28.02.95.05,1.9.04,2.84,0,1.01-.04,2.02-.21,3.03-.26-1.74.08,0-.02.42-.09.4-.07.8-.15,1.2-.23,4.03-.82,7.93-2.14,11.79-3.53,8.06-2.91,16.06-6.03,24.73-6.47,4.66-.23,9.3.56,13.96.53.63,0,1.26-.02,1.89-.06.31-.02.63-.06.94-.08.22-.01.33,0,.37.01.4-.08.88-.25,1.04-.28.5-.12,1-.25,1.5-.39,2.13-.6,4.21-1.37,6.38-1.81,2.91-.58,5.56-.63,8.48-.11,2.01.36,3.93,1.06,5.93,1.45.21-.04.47,0,.58.05.17,0,.34,0,.5,0,.04-.01.08-.02.12-.03.08-.05.16-.1.24-.14,1.32-1.28,2.57-2.62,3.9-3.88,6.41-6.03,14.08-10.55,22.39-13.4,7.65-2.63,16.23-3.87,24.28-2.81,8.64,1.13,17.35,4.75,21.75,12.75,2.32,4.22,3.39,9.05,4.7,13.65,1.34,4.71,2.68,9.43,4.02,14.14.38,1.32.25,2.63-.24,3.78-.05.44-.13,1.17-.15,1.47-.05.71-.07,1.43-.06,2.14,0,.55.07,1.11.11,1.66,0,.04.02.09.02.13.07.35.16.7.27,1.05.01.05.03.09.05.14.08.16.16.31.24.47.04.02.06.04.1.07.02,0,.03,0,.05,0,.08-.02.16-.03.21-.05.1-.03.19-.06.28-.09.26-.22.85-.44,1.07-.59.04-.03.09-.07.13-.1.29-.29.61-.56.89-.86.18-.2.36-.4.54-.6.02-.02.04-.05.06-.08.17-.25.41-.57.45-.65.45-.67.86-1.37,1.25-2.08,1.72-3.16,3-6.54,4.76-9.69,1.81-3.25,4-6.26,6.36-9.13,9.03-10.96,21.99-18.53,35.49-22.6,7.15-2.15,14.85-3.52,22.33-3.35,4.09.09,8.31.63,12.18,1.99,4.1,1.44,7.46,3.74,11.12,5.99.84.52,1.71.95,2.58,1.41.2.08.41.16.46.18.41.15.83.28,1.25.4,1.9.56,3.85.92,5.8,1.26,3.75.66,7.43,1.45,11.05,2.67,7.43,2.49,14.44,6.08,21.3,9.82,6.59,3.6,13.11,7.36,20,10.36.06.02.21.09.34.15.43.18.87.35,1.3.52.61.24,1.22.46,1.83.68,1.87-2.77,4.19-4.88,6.89-6.89,1.12-.84,2.29-1.62,3.45-2.4.6-.4,1.19-.81,1.78-1.22.25-.17.49-.35.73-.53.88-.81,1.74-1.62,2.59-2.45,0,0,0,0,0-.01.15-.23.29-.47.43-.71.02-.03.03-.06.05-.09.05-.14.11-.28.15-.41.02-.08.04-.17.06-.25-.01-.35.09-.84.08-1.13,0-.21-.04-.43-.04-.65-.08-.4-.15-.81-.24-1.21-.48-2.15-1.05-4.27-1.58-6.41-1.08-4.33-2.17-8.66-3.24-13-1.21-4.92-1.72-9.76-.14-14.67,1.26-3.9,3.12-7.72,5.31-11.19,4.31-6.82,9.93-12.31,16.53-16.89.74-.51,1.49-1.02,2.22-1.54.37-.26.73-.52,1.1-.79.15-.11.31-.23.46-.34.52-.38-.46.34-.45.35.09.08,1.82-1.56,2-1.74.32-.3.62-.62.91-.94.07-.08.28-.33.42-.5.07-.1.13-.18.15-.2.1-.16.2-.32.3-.48.17-.29.32-.6.49-.89.07-.17.16-.36.19-.47.13-.4.25-.8.35-1.21.06-.24.1-.48.16-.73.02-.34.09-.69.11-1.02.06-.93.06-1.86.03-2.78-.12-3.96-.83-7.88-.83-11.85,0-4.46.62-9.01,1.85-13.3,1.12-3.92,2.68-7.98,5.13-11.27,2.94-3.95,6.59-6.6,11.33-8.04,1.79-.54,3.62-.9,5.43-1.37.47-.12.93-.25,1.4-.39.34-.1.86-.38,1.24-.44.02-.01.04-.02.06-.03.34-.18.66-.37.98-.57.03-.02.15-.1.28-.19,0,0,.02-.02.03-.02.27-.26.53-.53.8-.79.01-.01.02-.02.03-.03.02-.02.03-.04.04-.07.06-.09.11-.18.16-.27,0-.01,0-.03,0-.04-.22-.24-.43-.5-.63-.69-.03-.02-.04-.04-.06-.06-.74-.51-1.49-1-2.25-1.48-1.7-1.07-3.44-2.08-5.17-3.09-3.79-2.21-7.46-4.51-10.89-7.26-6.37-5.11-11.21-12.74-11.23-21.1,0-.28.03-.56.06-.83-.38-1.14-.47-2.39-.21-3.57.15-.7.29-1.4.41-2.1,0-.03.02-.13.04-.26.03-.23.08-.64.09-.7.13-1.27.22-2.55.25-3.83.34-11.38-2.7-22.57-2.25-33.95.24-6.11,1.52-11.89,4.01-17.46,2.09-4.67,5.13-8.82,8.33-12.78,2.96-3.65,6.19-7.07,9.33-10.56,1.61-1.79,3.2-3.6,4.72-5.47.38-.46.74-.94,1.12-1.41-1.19,1.47.14-.2.36-.51.63-.86,1.24-1.74,1.83-2.64,1.3-1.99,2.42-4.07,3.41-6.22.01-.03.02-.05.03-.09.12-.33.25-.65.37-.98.22-.59.42-1.19.61-1.79.4-1.26.73-2.55,1.02-3.84.17-.75.32-1.5.45-2.26.1-.58.41-1.49.33-2.07.02.13-.17,1.44-.04.33.04-.35.08-.7.12-1.05.07-.63.13-1.26.19-1.89.25-2.83.36-5.68.43-8.52.29-11.35-.12-23.31,4.2-34.04,2.16-5.35,5.17-10.11,8.28-14.94,1.42-2.2,2.81-4.41,4.05-6.72.34-.65.68-1.3.99-1.96.11-.24.23-.48.34-.72.11-.24.22-.48.32-.73-.1.23-.2.46-.29.69.31-.21.51-1.33.63-1.68.2-.57.38-1.14.54-1.72,1.37-4.89,1.57-10,3.56-14.73,1.14-2.7,2.71-5.2,5-7.09,2.46-2.03,5.28-3.22,7.97-4.87.07-.04.31-.19.54-.33.08-.08.2-.19.29-.27.19-.19.38-.37.57-.56.16-.35.28-.46.31-.43Z"/>
      <path class="cls-1" d="M553.56,62.7s.02-.02.03-.03c.1-.09.16-.17.19-.23,0-.02,0-.03,0-.05-.06.1-.14.21-.22.31Z"/>
      <path class="cls-1" d="M552.68,63.56c.21-.13.39-.26.38-.28-.01-.03-.07,0-.15.06-.05.05-.1.1-.15.15-.04.04-.05.05-.08.08Z"/>
      <path class="cls-1" d="M511.79,310.21c-.03-.16-.1-.08-.07.18,0-.02,0-.02.02,0,.01-.04.02-.08.03-.11,0-.02.01-.04.01-.06Z"/>
      <path class="cls-1" d="M335.66,49.02c-.13.09-.21.18-.24.24.19-.14.37-.28.52-.44-.09.07-.19.14-.28.2Z"/>
      <path class="cls-1" d="M553.84,62.4s-.01.02-.02.04c0,0,0-.02,0-.05,0-.01-.01-.02-.03-.04,0,0,0,0,0,0,0,0,0,0,0,0,0,.02,0,.04-.02.08,0,.12.03.12.06-.04,0,0,0,0,0,0Z"/>
      <path class="cls-1" d="M553.82,62.32s-.02-.02-.02-.03c0,.01,0,.03,0,.04,0,0,0,.01.01.02,0-.01.01-.02.02-.03Z"/>
      <path class="cls-1" d="M196.56,435.83s.07.02.1.02c.51.1.58.06.46.02-.03,0-.05,0-.08,0-.12,0-.33-.05-.48-.05Z"/>
      <path class="cls-1" d="M336.01,48.75s-.05.05-.07.07c0,0,.02-.01.02-.02.02-.02.03-.03.05-.05Z"/>
      <path class="cls-1" d="M169.53,68.45s-.05-.13-.24-.25c-.09-.06-.19-.12-.28-.18.16.15.35.29.52.43Z"/>
      <path class="cls-1" d="M30.76,404.91c-.11-.06-.14.03.09.26.02.02.05.04.07.07-.01-.02-.03-.04-.04-.05-.04-.08-.08-.17-.13-.27Z"/>
      <path class="cls-1" d="M154.15,448.6c-.28,0-.65.01-.73.1,0,.01.58-.08.73-.1Z"/>
      <path class="cls-1" d="M399.72,444.52s-.08-.03-.13-.05c.06.02.11.04.13.05Z"/>
      <path class="cls-1" d="M444.32,453.2c.09,0,.12,0,0,0h0Z"/>
      <path class="cls-1" d="M441.44,454.12s.03-.04.05-.06c0,0,0-.01,0-.02-.02.03-.04.05-.06.07Z"/>
      <path class="cls-1" d="M378.96,426.5c-.09-.04-.17-.07-.18-.06,0,0,.08.02.18.06Z"/>
      <path class="cls-1" d="M399.59,444.47s-.1-.04-.15-.06c-.81-.35-.17-.07.15.06Z"/>
      <path class="cls-1" d="M511.79,310.65s0,0-.01-.01c0,.01,0,.03.01.04,0,0,0-.02,0-.03Z"/>
      <path class="cls-1" d="M501.81,327.33s-.16.1-.28.22c.16-.11.31-.21.28-.22Z"/>
      <path class="cls-1" d="M511.73,310.4s0,.01,0,.02c0,0,0,0,0,0,0,0,0-.01,0-.02Z"/>
      <path class="cls-1" d="M278.94,466.92s.01,0,.04.02c-.02,0-.04-.02-.04-.02Z"/>
      <path class="cls-1" d="M197.87,435.8s0,0,.01-.01c-.02,0-.04.02-.07.03.02,0,.04-.01.05-.02Z"/>
      <path class="cls-1" d="M197.43,436.03c-.19.11-.27.16,0,0h0Z"/>
      <path class="cls-1" d="M197.19,435.97s.04,0,.13-.02c-.06,0-.12.01-.13.02Z"/>
      <path class="cls-1" d="M278.75,460s0,.02,0,.02c-.02.13-.03.26-.05.39.02-.17.04-.3.06-.42Z"/>
      <path class="cls-1" d="M279.63,467.11s-.02,0-.04-.01c.01,0,.03,0,.04.01Z"/>
      <path class="cls-1" d="M260.51,435.31c.14.32.39.76,0,.01,0,0,0,0,0-.01Z"/>
      <path class="cls-1" d="M511.81,310.67s0,.03,0,.05c.03.09.07.18.12.29-.03-.07-.07-.19-.09-.31,0,0-.01-.02-.02-.02Z"/>
      <path class="cls-1" d="M511.64,310.85s0,.01,0,.02c0,0,0-.02,0-.02t0,0Z"/>
      <path class="cls-1" d="M553.39,62.98c.03-.09.1-.19.18-.29-.03.03-.06.06-.09.09-.03.06-.06.12-.09.2Z"/>
      <path class="cls-1" d="M549.88,80.73c-.09.19-.07.14,0,0h0Z"/>
      <path class="cls-1" d="M496.44,284.94s.04.06.07.09c.47.66.15.19-.07-.09Z"/>
      <path class="cls-1" d="M552.68,63.56s-.04.03-.06.04c-.11.12-.14.16.06-.04Z"/>
      <path class="cls-1" d="M511.86,310.29c.08-.16.07-.26.03-.23,0,.05-.01.14-.03.23Z"/>
      <path class="cls-2" d="M236.96,58.49c.2-.3.3-.52-.26.34.02-.03.05-.05.07-.08.06-.09.13-.18.19-.26Z"/>
      <path class="cls-2" d="M335.97,48.8s-.02.01-.02.02c-.15.16-.33.3-.52.44-.07.12.09.07.54-.46Z"/>
      <path class="cls-2" d="M133.86,49.56c-.28-.54-.42-.64-.4-.54.09.14.2.3.31.45.03.03.06.06.08.09Z"/>
      <path class="cls-2" d="M134.98,50.66s.1.06.15.09c-.31-.29-.46-.4-.48-.4.06.05.11.11.17.17.05.05.11.09.17.14Z"/>
      <path class="cls-2" d="M215.46,69.65s.03,0,.04,0c.5-.06,1.45-.43-.04,0Z"/>
      <path class="cls-2" d="M241.91,49.53c-.59,1.28-.17.39,0,0h0Z"/>
      <path class="cls-2" d="M81.5,61.62c.39-.09.73-.18,0,0h0Z"/>
      <path class="cls-2" d="M137.8,52.14s-.18-.11-.7-.26c.03.02.06.03.09.05.2.07.41.13.61.21Z"/>
      <path class="cls-2" d="M37.71,54.44s-.07-.17-.44-.51c0,.01.02.03.03.04.14.15.28.31.41.47Z"/>
      <path class="cls-2" d="M308.32,71.18s-.03.07-.04.1c0-.02.02-.04.03-.06,0-.02,0-.03.01-.05Z"/>
      <path class="cls-2" d="M232.34,63.23c-.33.11-.53.27-.57.36.19-.15.38-.27.55-.34,0,0,.01-.01.02-.02Z"/>
      <path class="cls-2" d="M395.77,38.42c.19-.07-.23-.16-.61.07.05,0,.09,0,.14,0,.17-.03.37-.05.48-.06Z"/>
      <path class="cls-2" d="M184.52,68.04s.06.02.09.03c-.11-.07-.3-.14-.43-.17.07.04.15.07.22.11.04.01.07.02.11.04Z"/>
      <path class="cls-2" d="M169.53,68.45c-.16-.14-.36-.28-.52-.43-.01,0-.02-.02-.04-.02.31.39.53.5.55.45Z"/>
      <path class="cls-2" d="M167.08,66.91s-.02-.01-.03-.02c-.22-.05-.45-.13-.68-.22.04.06.26.16.71.24Z"/>
      <path class="cls-2" d="M226.22,66.84c-.72.14-.81.28-.62.25.19-.09.39-.18.58-.23.01,0,.02-.01.04-.02Z"/>
      <path class="cls-2" d="M539.32,31.79s.09,0,.13.01c.11-.03.22-.09.29-.14-.1.02-.21.05-.31.07-.04.02-.07.04-.11.06Z"/>
      <path class="cls-2" d="M552.62,63.6s.04-.03.06-.04c.03-.03.04-.04.08-.08.05-.05.1-.1.15-.15-.09.07-.21.18-.29.27Z"/>
      <path class="cls-2" d="M551.03,78.8c.06-.06.16-.19.28-.44-.01.01-.02.02-.03.03-.07.14-.15.27-.24.41Z"/>
      <path class="cls-2" d="M553.8,62.36s0,0,0,0c0,0,0,0,0,0,0,0,0-.01-.01-.02,0,0,0,.02,0,.02-.03-.03-.15.08-.31.43.03-.03.06-.06.09-.09.08-.11.16-.22.22-.31,0,.02,0,.04,0,.05.02-.03.02-.06.02-.08Z"/>
      <path class="cls-2" d="M564.48,57.07c-1.3-2.69-3.71-4.58-5.73-6.69-.85-.89-1.64-1.82-2.42-2.77,0,0,0,0,0-.01-.02-.03-.03-.05-.06-.08-.16-.22-.32-.44-.48-.66-.47-.67-.93-1.35-1.36-2.04-.65-1.04-1.26-2.11-1.82-3.2-.31-.61-.61-1.22-.89-1.84-.05-.1-.54-1.35-.19-.41.35.93-.25-.65-.3-.81-.96-2.55-1.66-5.19-2.11-7.88-.49-2.96-1.23-5.91-3.43-8.11-3.46-3.47-8.32-3.14-12.39-1.05-.56.29-1.11.62-1.66.93-.36.2-.74.39-1.1.59-.09.05-.18.12-.24.17-.47.18-1.04.29-1.42.4-.69.19-1.38.32-2.07.45-.27.02-.54.05-.81.07-.7.05-1.4.06-2.09.06-1.5,0-2.97-.16-4.46-.3-.01,0-.02,0-.03,0-.24-.04-.49-.07-.73-.11-.71-.11-1.41-.23-2.12-.36-1.46-.27-2.91-.56-4.36-.86-3.21-.65-6.41-1.29-9.62-1.94-3.21-.65-6.41-1.29-9.62-1.94-1.55-.31-3.22-.08-4.59.65-4.09-.23-8.19-.33-12.29-.47-2.41-.08-4.82-.18-7.23-.34-1.12-.08-2.24-.16-3.36-.27-.56-.05-1.12-.11-1.68-.17-.24-.03-.48-.05-.72-.08-.03,0-1.54-.15-.64-.08.83.06-.2-.03-.4-.06-.24-.04-.48-.07-.71-.11-.63-.1-1.27-.21-1.9-.33-.97-.18-1.93-.39-2.89-.62-1.86-.45-3.7-.99-5.5-1.63-.42-.15-.84-.31-1.26-.47-.09-.03-.31-.12-.52-.21-.23-.1-.75-.33-.88-.39-.46-.21-.92-.43-1.37-.66-1.69-.85-3.32-1.82-4.87-2.9-.21-.14-.41-.29-.61-.44-.01-.01-.04-.03-.06-.05-.07-.06-.17-.13-.21-.17-.24-.2-.48-.4-.71-.6-.8-.69-1.56-1.42-2.29-2.19-.34-.36-.67-.73-1-1.11-.1-.12-.2-.24-.3-.36-.53-.93-1.25-1.78-1.79-2.71-1.2-2.07-3.6-3.16-5.93-2.84-2.49.33-4.08,1.99-4.95,4.26-.82,2.13-1.63,4.27-2.49,6.38-.19.48-.39.96-.59,1.43-.03.06-.04.1-.06.14-.07.16-.13.31-.2.47-.47,1.08-.95,2.16-1.45,3.22-1.89,4.01-4.09,7.81-6.69,11.39-.13.15-.25.31-.38.46-.29.35-.59.7-.9,1.05-.7.79-1.42,1.55-2.18,2.28-.71.69-1.44,1.35-2.2,1.98-.11.09-.23.19-.34.28-.44.27-.85.63-1.27.92-1.61,1.09-3.31,1.9-5.02,2.78-.15.05-.29.11-.44.16-.42.15-.85.29-1.28.43-.99.3-1.99.54-3.01.72,0,0-.04,0-.07,0-.05.02-.13.04-.28.04-.07,0-.13,0-.2.01-.1.02-.19.04-.22.06.03-.02.06-.03.09-.05-.37.03-.74.06-1.11.07-1.1.04-2.19.02-3.29-.07-.27-.02-.54-.05-.82-.07-.03,0-.07,0-.11-.01-.28-.04-.78-.12-.94-.15-1.08-.2-2.16-.44-3.22-.71-4.22-1.08-8.28-2.66-12.39-4.09-4.45-1.54-8.89-2.75-13.57-3.34-4.07-.51-8.16-.22-12.18.55-15.54,2.97-29,15.29-35.37,29.49-.93,2.07-1.79,4.17-2.48,6.33-.26.81-.49,1.64-.71,2.46-.14.51-.27,1.02-.42,1.53-.07.23-.15.46-.22.69.05-.11.1-.21.15-.26-.04.04-.09.16-.16.31,0,0,0,.01,0,.02-.16.51-.12.3-.02.04-.06.14-.14.3-.21.46,0,0-.02,0-.03,0,.04-.15.03-.2-.08.02-.2.04-.41.09-.52.13-.2.01-.39.02-.46.02-.3,0-.65-.08-.97-.1-.16-.03-.32-.07-.48-.11-.48-.11-.95-.25-1.42-.4-.44-.14-.86-.3-1.29-.46-.05-.02-.09-.04-.16-.07-.89-.41-1.77-.83-2.65-1.28-1.69-.87-3.33-1.81-4.93-2.83-1.55-.99-3.01-2.09-4.51-3.15,1.44,1.02.07.04-.24-.2-.33-.27-.66-.54-.99-.82-.75-.63-1.48-1.28-2.2-1.94-1.4-1.29-2.74-2.63-4.02-4.03-.62-.68-1.23-1.37-1.82-2.07-.28-.33-.55-.66-.82-.99-.15-.19-.31-.38-.46-.57-.01-.01-.03-.04-.05-.06-.11-.15-.48-.64-.59-.78-.29-.39-.58-.79-.86-1.19-.56-.8-1.11-1.62-1.64-2.44-.99-1.55-1.93-3.13-2.79-4.75-.88-1.64-1.67-3.32-2.42-5.02-.03-.07-.06-.14-.09-.21-.18-.45-.36-.91-.53-1.37-.35-.92-.67-1.84-.98-2.77-1.17-3.57-1.87-7.19-2.54-10.88,0-.08-.02-.16-.03-.24-.05-.43-.09-.85-.13-1.28-.09-.98-.15-1.95-.2-2.93-.12-2.53-1.76-5.15-4.37-5.74-2.79-.64-5.07.52-6.72,2.74-6.27,8.4-8.88,18.84-12.3,28.58-.4,1.15-.81,2.29-1.25,3.42-.19.51-.39,1.01-.6,1.51,0,.02-.02.04-.03.06.02-.05.05-.1.07-.16-.15.33-.29.66-.43.99-1.02,2.27-2.17,4.48-3.52,6.57-.32.49-.65.98-1,1.46-.03.04-.05.07-.08.11-.06.08-.12.17-.17.24,0,0-.01.02-.02.02-.05.07-.1.13-.15.2.03-.05.05-.08.08-.12-.76.94-1.57,1.83-2.44,2.68-.44.43-.9.85-1.36,1.25-.18.16-.37.31-.56.46.02,0,.03-.01.05-.02-.02,0-.05.03-.08.04-.09.07-.18.15-.27.22-.24.2-.33.19-.28.11-.31.24-.62.52-.85.67-.6.4-1.21.78-1.83,1.13-.93.53-1.89,1-2.87,1.46.04,0,.06-.01.1-.02-.04,0-.09.02-.14.04-.1.05-.2.1-.29.14-.12.06-.22.08-.29.09-.1.04-.19.09-.28.12-.56.21-1.13.41-1.7.6-2.44.79-4.95,1.36-7.48,1.75-.22.03-.51.04-.74.11.02,0,.04-.01.06-.02-.61.07-1.22.13-1.83.19-1.32.11-2.65.19-3.97.24-2.62.09-5.25.05-7.87-.07-2.69-.12-5.37-.33-8.05-.59-1.2-.12-2.39-.24-3.59-.38-.62-.07-1.24-.14-1.86-.21-.24-.03-.66-.16-.9-.12,0,0-.02,0-.02,0-.64-.11-1.29-.23-1.92-.39-.28-.07-.56-.15-.84-.24.05.03.08.06.08.09,0-.01-.13-.08-.28-.16-.45-.15-.4-.16-.22-.11-.16-.08-.3-.15-.34-.17-.13-.08-.23-.13-.29-.17-.14-.14-.27-.28-.31-.32-.07-.08-.13-.13-.18-.18-1.51-2.42-2.94-4.97-5.03-6.95-4.44-4.2-10.21-5.8-16.14-6.43-4.83-.51-9.63,0-14.46-.06-1.15-.01-2.3-.06-3.44-.15-.47-.04-.93-.09-1.4-.14-.31-.05-.62-.1-.93-.16-1.1-.2-2.18-.47-3.25-.81-.2-.06-.41-.15-.61-.23,0,.03-.19,0-.39-.1-.07-.04-.15-.07-.22-.11-.11-.04-.21-.08-.32-.11.09.02.15.04.22.06-.28-.13-.55-.27-.82-.41-.4-.22-.77-.47-1.15-.71.08.08.17.16.28.26-.13-.13-.28-.24-.42-.36-.01,0-.02-.01-.03-.02-.19-.12-.34-.29-.31-.29-.27-.26-.53-.52-.79-.79.03.07.07.13.11.21-.05-.1-.12-.2-.19-.3-.02-.02-.04-.04-.05-.06-.16-.16-.24-.32-.26-.39,0-.01-.02-.03-.03-.04-1.17-1.88-1.83-4.04-2.79-6.02-1.18-2.41-2.86-4.63-5.2-6.02-3.83-2.26-8.4-1.09-11.58,1.68-2.05,1.79-3.75,4.09-5.55,6.13-1.86,2.12-3.75,4.23-5.74,6.22-.97.97-1.96,1.91-2.99,2.81-.51.45-1.04.88-1.56,1.31-.71.59-.07.09.17-.11-.35.34-.85.62-1.24.89-1.06.74-2.16,1.43-3.29,2.05-.56.31-1.13.6-1.71.87-.3.14-.62.3-.93.43-.15.05-.31.1-.38.13-2.78,1.05-5.68,1.75-8.61,2.21-.27.04-.58.06-.84.13.13-.03.23-.06.32-.08-.16.04-.33.07-.44.08-.64.07-1.28.13-1.92.19-1.51.12-3.02.2-4.53.24-5.53.16-11.11-.01-16.63-.39-1.2-.08-2.39-.19-3.58-.32-.51-.06-2.46-.47-.56-.05-.69-.15-1.42-.21-2.12-.34-2.36-.42-4.7-.99-6.95-1.81-.23-.08-.46-.17-.69-.26-.39-.18-.78-.35-1.16-.55-1.06-.54-2.05-1.17-3.04-1.84-.15-.12-.3-.25-.44-.37-.42-.37-.82-.75-1.2-1.15-.18-.19-.34-.4-.51-.61-.03.01-.16-.09-.28-.27-.04-.07-.09-.13-.13-.2-.06-.06-.12-.13-.18-.19.06.06.1.1.16.14-.19-.29-.39-.57-.57-.86-2.52-4.07-4.05-8.7-7.49-12.17-1.91-1.92-4.48-3.48-7.18-3.89-1.65-.24-3.09-.27-4.59.6-1.04.61-2.04,1.72-2.52,2.9-1.89.98-3.12,2.88-3.27,5.24-.03.52-.08,1.04-.13,1.55-.02.15-.04.29-.06.43-.19,1.12-.43,2.22-.72,3.31-.27,1.03-.6,2.04-.96,3.04-.09.25-.19.5-.28.75-.01.04-.04.11-.08.19-.04.09-.08.18-.1.22-.14.3-.28.6-.43.9-.93,1.91-2.05,3.7-3.27,5.43.06-.08.13-.16.19-.22-.07.07-.13.15-.2.24,0,0,0,.01-.01.02-.32.45-.19.24,0,0-.1.12-.19.25-.29.37-.38.46-.77.92-1.18,1.36-.76.84-1.57,1.63-2.4,2.39-2.89,2.63-1.95,7.45,1.2,9.35,1.04.63,2.07,1.28,3.07,1.96.45.3.89.61,1.33.93.22.16.44.32.65.48.08.06.15.12.23.17,1.78,1.56,3.64,3,5.34,4.65,1.37,1.32,2.66,2.71,3.92,4.13.03.91.28,1.83.8,2.68,1.5,2.44,2.9,4.94,4.2,7.49.58,1.14,1.14,2.29,1.68,3.46.28.62.56,1.23.84,1.85.12.27.26.55.36.83-.09-.24-.14-.4-.17-.49.07.2.21.59.27.74,2.11,5.16,3.76,10.48,5.09,15.89,2.63,10.75,5.13,22.21,13.64,30.02,4.7,4.31,10.65,7.2,17.12,7.13.94,0,1.87-.26,2.7-.7.65.41,1.29.83,1.92,1.27.18.13,1.22.96.64.45-.61-.54.1.09.26.21.17.14.34.28.51.42.73.62,1.44,1.27,2.12,1.95.61.61,1.19,1.24,1.76,1.9.24.28.81.73.89,1.07,0,.01-.71-.96-.32-.42.15.22.32.43.47.64,1.05,1.46,1.99,2.99,2.84,4.57.44.82.86,1.66,1.25,2.51.12.26.23.54.35.8.1.25.2.49.29.74,1.33,3.48,2.27,7.1,2.91,10.77.1.55.19,1.11.27,1.66,0,.06.02.13.04.19,0,.04,0,.07.01.13.13,1.11.26,2.23.36,3.34.19,2.16.31,4.32.37,6.49.28,8.88-.05,17.79-.17,26.67-.07,5.05-.14,10.09-.21,15.14l-.1,7.69c-.01.73-.02,1.47-.03,2.2-.47.59-.8,1.28-.91,2.09-1.37,9.77-2.97,19.52-4.8,29.21-.81,4.31-1.56,8.67-3.02,12.82-.06.18-.55,1.11-.53,1.37-.06.13-.12.26-.18.39-.49,1.01-1.04,2-1.67,2.94-.07.11-.51.68-.69.94-.07.09-.15.17-.22.26-.66.76-1.37,1.48-2.11,2.15-.33.3-.66.58-1,.86-.01.01-.02.02-.03.03-.04.03-.07.05-.11.08-.77.56-1.57,1.08-2.39,1.56-.82.49-1.67.94-2.53,1.35-.13.06-.9.38-1.14.51-.15.06-.29.11-.44.17-1.8.67-3.65,1.21-5.53,1.63-1,.22-2.01.39-3.02.56-.12.02-.2.03-.27.04-.18.02-.36.03-.53.05-.64.07-1.28.13-1.91.18-4.82.37-9.65.22-14.47-.01-3.8-.18-7.63-.53-11.42-.1-4.52.51-8.75,1.66-12.32,4.62-3.87,3.23-5.32,8.17-5.38,13.06-.06,4.64.39,9.34.92,13.95.58,5.07,1.34,10.11,2.36,15.11,1.89,9.19,4.78,18,8.05,26.78.78,2.09,1.52,4.19,2.11,6.34.3,1.1.57,2.22.77,3.34.04.22.08.45.12.67.17.95.07.24,0-.09.14.51.09,1.17.12,1.69.17,3.67-.38,7.34-.11,11.01.33,4.55,1.67,9.27,5.35,12.29,3.98,3.27,8.77,4.06,13.79,4.21,9.76.31,19.53.51,29.29.77,1.51.04,3.01.08,4.51.12,1.06,1.66,2.81,2.86,4.88,2.67.91-.08,1.83-.12,2.74-.07.16,0,.65.06.91.08,0,0,.02,0,.02,0,.26.05.51.1.77.16.89.2,1.77.46,2.63.78.11.04.19.07.26.09.52.25,1.04.5,1.55.78.81.45,1.6.94,2.36,1.47.09.06.18.13.26.19-.01-.02-.02-.03-.03-.04.01.02.04.04.05.05.07.05.14.1.21.15.19.14.27.25.26.28.24.19.5.37.7.55.69.62,1.34,1.28,1.97,1.97.26.28.5.58.75.87.15.24.39.49.54.7,1.19,1.67,2.23,3.44,3.13,5.28.22.44.43.89.64,1.35.06.12.11.25.17.37.01.37.41,1.01.54,1.36.23.6.44,1.2.65,1.81,1.35,3.94,1.97,8.18,3.86,11.92,1.08,2.14,2.92,4.11,5.09,5.16,2.49,1.21,5.19,1.52,7.93,1.49,4.38-.05,8.78-.86,12.98-2.04,7.75-2.19,15.08-5.7,22.93-7.58.93-.22,1.86-.42,2.8-.59.47-.08.94-.15,1.41-.23.08-.01.14-.02.17-.03.12,0,.23,0,.27,0,2.18-.21,4.36-.19,6.54-.07,5.02.28,9.87.75,14.87-.06,2.22-.36,4.34-1.09,6.48-1.73.98-.29,1.97-.57,2.98-.77.12-.02.25-.05.37-.07.54,0,1.08-.05,1.62-.03.05-.02.17-.02.35.02.03,0,.06.01.08.02.1.01.21.02.28,0-.06.01-.1.01-.15.02.4.09.8.17,1.2.27,1.01.25,2.02.55,3.03.81,2.73.69,5.48,1,8.25.43,4.69-.97,7.49-5.02,10.84-8.03.7-.63,1.42-1.24,2.15-1.83.09-.08.19-.15.28-.23.42-.3.83-.61,1.25-.91,1.59-1.13,3.25-2.17,4.95-3.12.82-.46,1.66-.9,2.5-1.31.42-.21.85-.41,1.28-.61.39-.18,2.2-.79.61-.29,1.86-.58,3.64-1.4,5.52-1.95,1.87-.55,3.77-1.01,5.7-1.36.46-.08.93-.16,1.39-.23,0,0,0,0,.01,0,.07-.01.14-.03.2-.03.02,0,.04,0,.06,0,.11-.01.21-.02.32-.05-.05.01-.08.02-.13.03.92-.1,1.84-.19,2.76-.25,1.85-.12,3.71-.14,5.57-.03.86.05,1.7.16,2.55.24-1.88-.16-.2-.01.23.07.48.09.96.18,1.44.29.83.19,1.65.41,2.46.67.4.13.8.27,1.2.41.1.04.17.06.23.08,0,0,0,0,0,0,.75.34,1.49.73,2.19,1.16.35.21.7.43,1.03.67.06.04.12.09.18.13,0,0,0,0,0,0,.6.56,1.21,1.09,1.75,1.71.07.08.14.17.21.26.23.35.48.7.69,1.07.24.41.45.83.66,1.25.06.16.17.36.21.45.39,1.01.72,2.05,1.03,3.09,1.35,4.55,2.6,9.13,3.9,13.69.51,1.8,1.02,3.6,1.53,5.4-.91,7.11-.62,16.4,6.93,19.83,5.34,2.43,10.89.82,15.22-2.84,3.1-2.63,5.16-6.38,6.86-10.01,1.51-3.23,2.99-6.43,4.94-9.44.44-.67.89-1.34,1.35-1.99.25-.35.51-.7.76-1.04.01-.01.02-.02.03-.03.02-.03.04-.05.06-.08,1.07-1.35,2.21-2.65,3.4-3.89,1.19-1.25,2.44-2.44,3.74-3.58.6-.53,1.22-1.05,1.84-1.56.29-.23.59-.45.87-.7-1.29,1.11-.07.06.28-.2,2.76-2.04,5.68-3.85,8.71-5.46,1.55-.82,3.13-1.58,4.74-2.29.1-.04.17-.08.23-.1.32-.13.63-.26.95-.38.82-.32,1.64-.63,2.47-.93,3.31-1.18,6.7-2.13,10.14-2.84.8-.17,1.59-.32,2.4-.46.37-.06.74-.13,1.11-.19.25-.04.49-.08.74-.11.09-.01.38-.05.5-.07.19-.02.39-.05.58-.07.43-.05.85-.09,1.28-.13,1.07-.1,2.14-.17,3.21-.21,1.92-.07,3.85-.03,5.76.15.21.02.43.04.64.07.11.01.24.03.3.04.28.05.55.09.83.15.96.18,1.92.41,2.86.69.4.12.8.24,1.2.38.27.09.53.19.79.28.07.02.24.1.33.14.19.09.38.17.56.27.51.25,1.01.52,1.51.81,1.68.97,3.27,2.1,4.91,3.14,3.76,2.36,7.86,3.7,12.21,4.49,3.84.7,7.63,1.4,11.35,2.6,1.83.59,3.63,1.26,5.41,1.98.14.06.29.13.44.18.33.14.66.29.98.43.88.39,1.76.8,2.63,1.21,6.96,3.32,13.6,7.27,20.42,10.87,3.38,1.78,6.8,3.47,10.32,4.96,2.13.9,4.27,1.84,6.47,2.55,3.34,1.06,6.68.45,9.32-1.85.85-.74,1.54-1.73,2.15-2.67.23-.35.44-.71.66-1.06.06-.1.24-.35.39-.56.05-.06.1-.12.13-.15.23-.26.47-.51.72-.76.5-.5,1.03-.97,1.58-1.42.03-.03.07-.06.1-.08.22-.16.44-.32.66-.48.59-.42,1.19-.83,1.79-1.24,1.15-.78,2.31-1.54,3.43-2.36,2.79-2.04,5.49-4.26,7.22-7.32,2.44-4.31,2.29-9.02,1.17-13.72-1.05-4.41-2.19-8.8-3.28-13.2-.54-2.15-1.09-4.3-1.6-6.45-.13-.54-.25-1.09-.36-1.63-.05-.23-.09-.47-.13-.7-.04-.22-.08-.32-.1-.36-.04-.77.11-2.1.12-2.57.04-.2.08-.41.13-.61.11-.44.23-.88.37-1.32.16-.51.33-1.01.52-1.51.08-.21.17-.42.25-.64,0,0,0,0,0-.02.74-1.65,1.55-3.26,2.45-4.83.96-1.65,2.04-3.19,3.13-4.74,0,0,0,0,0-.01.02-.02.03-.04.05-.07.3-.37.6-.74.9-1.1.61-.72,1.25-1.43,1.9-2.11,1.31-1.37,2.69-2.67,4.15-3.88.14-.12.31-.23.47-.35.05-.07.13-.15.24-.23.05-.04.11-.08.16-.12.02-.02.06-.04.08-.07-.01.01-.02.02-.03.03.09-.07.18-.13.27-.2.72-.53,1.46-1.04,2.2-1.55,3.2-2.22,6.61-4.44,9.07-7.5,3.18-3.95,4.72-8.41,4.95-13.48.18-4-.54-7.96-.76-11.94-.11-2.05-.08-4.1.11-6.14.03-.3.06-.61.09-.91,0-.02,0-.06.01-.11,0-.05.01-.09.02-.12.05-.3.1-.6.15-.9.19-1.05.41-2.09.68-3.12.25-.96.53-1.91.84-2.84.17-.51.35-1.01.53-1.51.07-.19.14-.37.22-.56,0,.01-.01.02-.02.03.01-.01.02-.03.03-.05,0-.02.02-.04.03-.07.09-.22.23-.43.3-.49.28-.56.51-1.19.8-1.71.19-.35.4-.69.61-1.03.14-.22.29-.44.44-.66.03-.05.12-.16.19-.26.16-.18.31-.36.47-.53.27-.29.55-.56.83-.82,0,0,.08-.07.17-.16t0,0c.47-.26.91-.58,1.39-.83.09-.05.33-.12.47-.2.32-.11.63-.23.96-.33.92-.29,1.86-.52,2.79-.74,4.44-1.06,8.59-2.28,12.07-5.39,3.57-3.18,5.76-8.52,4.08-13.21-1.71-4.81-5.93-7.47-10.1-9.98-3.5-2.11-7.1-4.06-10.47-6.38-.43-.3-.85-.6-1.27-.9-.06-.05-.11-.08-.15-.11-.02-.02-.03-.03-.05-.04-.73-.6-1.44-1.2-2.12-1.85-.67-.64-1.32-1.31-1.93-2.01-.22-.25-.44-.62-.7-.85-.11-.15-.21-.3-.32-.45-.48-.7-.92-1.43-1.32-2.18-.17-.33-.32-.8-.54-1.13-.01-.04-.03-.07-.04-.11-.31-.85-.5-1.72-.71-2.6,0,0,0-.01,0-.02-.03-.5-.06-.99-.06-1.48,0-.71-.15-1.41-.41-2.08,2.29-11.58-.07-23.02-.97-34.62-.22-2.84-.33-5.68-.22-8.53.05-1.27.03-2.71.3-3.97-.06.37-.14.92.01.1.06-.35.12-.69.18-1.04.14-.76.31-1.52.5-2.27.31-1.21.68-2.4,1.11-3.56.06-.16.12-.32.18-.48.34-.53.56-1.26.84-1.82,1.05-2.1,2.29-4.1,3.64-6.02.34-.48.69-.96,1.04-1.44.1-.13.2-.26.3-.39.77-.96,1.55-1.92,2.35-2.86,1.56-1.84,3.18-3.62,4.8-5.41,3.51-3.86,6.98-7.72,10.14-11.88,3.21-4.22,5.79-8.75,7.63-13.73,2.06-5.55,2.87-11.53,3.29-17.41.41-5.7.35-11.42.53-17.13.09-2.77.23-5.53.52-8.29.05-.44.15-2.69.09-.93.02-.68.21-1.41.32-2.08.24-1.38.53-2.74.87-4.1.35-1.35.75-2.69,1.23-4.01.1-.26.19-.53.29-.79.05-.13.1-.26.15-.39.25-.61.21-.52-.12.27.09-.6.58-1.28.84-1.82,1.19-2.42,2.58-4.72,4.02-6.99,2.87-4.52,5.96-8.94,8.11-13.88,1.2-2.75,2.16-5.51,2.75-8.45.49-2.44.82-4.91,1.4-7.33.14-.59.29-1.18.47-1.76.13-.43.52-1.11.56-1.57.05-.1.1-.2.15-.3.19-.36.49-.74.74-1.12-.12.1-.12-.05.12-.28.04-.04.08-.09.13-.13.05-.09.1-.17.13-.26-.03.09-.07.15-.1.22.2-.2.41-.4.6-.6.05-.05.09-.11.14-.17.15-.1.32-.18.45-.27,1.21-.79,2.52-1.42,3.79-2.1,3.02-1.6,5.72-3.65,7.6-6.54,2.3-3.54,2.42-7.87.6-11.61ZM553.89,62.04c0,.08-.01.13-.02.19-.01.02-.02.05-.04.07,0-.01-.01-.02-.03-.04.02-.07.04-.16.08-.25,0,.01,0,.02,0,.03ZM553.91,62.09s0-.08-.01-.12c.03-.08.06-.16.11-.25.01-.03-.04.17-.1.36ZM539.74,31.66c.13-.03.24-.05.24-.06-.02.18-.24.23-.53.2-.06.02-.12.02-.17.01.01,0,.03-.01.04-.02-.03,0-.05,0-.08,0,.04-.01.11-.03.19-.05.02-.01.05-.02.07-.04.39-.22.38-.14.24-.03ZM436.95,5.57c-.05-.06-.1-.12-.14-.17-.42-.51-.06-.11.14.17ZM406.56,33.65c-.2.16-.14.11,0,0h0ZM351.39,42.01s-.03,0-.04,0c.01,0,.03,0,.04,0ZM307.74,72.07c-.14.12-.27.22,0,0h0ZM307.99,71.9s0,0,0,0c0,0,0,.01-.01.02,0,0,0-.01,0-.02ZM183.96,67.9s-.1-.05-.2-.15c.11.08.2.14.2.15ZM170.45,69.34c-.16-.24-.27-.41,0,0h0ZM119.42,47.27c.03.05.07.11.1.16-.13-.11-.28-.29-.49-.57.1.13.25.27.39.4ZM11.58,46.95c-.02.08-.03.16-.04.24.01-.09.03-.18.04-.24ZM11.51,47.46c-.03.31-.02.21,0,0h0ZM80.2,185.14c.02.1.03.2.04.3-.01-.09-.02-.2-.04-.3ZM71.24,292.01c-.03.05-.05.11-.08.16.08-.26.52-1.1.08-.16ZM68.86,296.19c.16-.19.26-.3,0,0h0ZM59.35,303.16s-.03.01-.05.02c.34-.14.76-.29.05-.02ZM59.02,303.31s-.02.01-.02.01c0,0,0,0,.02-.01ZM16.27,320.04s-.02.02-.03.04c.01-.03.02-.04.03-.04ZM31.13,405.52s0,0,.01.01c0,.02.01.04.02.06,0-.02-.02-.05-.03-.07ZM30.98,405.43s.04,0,.07.03c-.04-.02-.07-.03-.07-.03ZM111.78,447.51c.06.09.07.12,0,0h0ZM153.42,448.7c.08-.09.45-.1.73-.1-.15.02-.74.12-.73.1ZM197.19,435.97s.06-.01.13-.02c-.08.02-.14.03-.13.02ZM197.87,435.8s-.03,0-.05.02c.03-.01.05-.02.07-.03,0,0,0,0-.01.01ZM197.43,436.03c-.27.16-.19.11,0,0h0ZM260.51,435.31s0,0,0,.01c.39.75.13.31,0-.01ZM278.75,460c-.02.11-.04.25-.06.42.02-.13.03-.26.05-.39,0,0,0-.02,0-.02ZM279.59,467.1s.03,0,.04.01c0,0-.03,0-.04-.01ZM278.99,466.94s-.05-.02-.04-.02c0,0,.02,0,.04.02ZM378.78,426.44s.08.02.18.06c-.1-.04-.17-.06-.18-.06ZM399.44,444.41s.1.04.15.06c-.32-.13-.96-.42-.15-.06ZM399.6,444.48s.08.04.13.05c-.02,0-.07-.03-.13-.05ZM441.44,454.12s.04-.05.06-.07c0,0,0,.01,0,.02-.01.02-.04.04-.05.06ZM444.32,453.2c.12,0,.09,0,0,0h0ZM501.53,327.55c.13-.12.26-.23.28-.22.03,0-.13.11-.28.22ZM511.64,310.85s0,0,0,0c0,0,0,.02,0,.02,0,0,0-.01,0-.02ZM511.79,310.65s0,.02,0,.03c0-.01,0-.03-.01-.04,0,0,0,0,.01.01ZM511.8,310.71s0-.03,0-.05c0,0,.01.02.02.02.03.12.06.24.09.31-.05-.1-.09-.2-.12-.29ZM511.86,310.29c.01-.09.02-.18.03-.23.05-.03.05.07-.03.23ZM496.51,285.04s-.04-.06-.07-.09c.22.28.53.75.07.09ZM549.88,80.73c-.07.14-.09.19,0,0h0ZM553.78,62.44c-.03.06-.09.14-.19.23,0,0-.02.02-.03.03-.07.1-.14.2-.18.29.03-.08.06-.14.09-.2-.19.18-.38.37-.57.56.07-.06.13-.09.15-.06.01.03-.17.15-.38.28-.2.2-.18.16-.06.04-.23.14-.47.29-.54.33-2.69,1.65-5.51,2.84-7.97,4.87-2.29,1.89-3.86,4.39-5,7.09-1.99,4.72-2.19,9.83-3.56,14.73-.16.58-.34,1.15-.54,1.72-.12.35-.32,1.47-.63,1.68.1-.23.2-.46.29-.69-.1.24-.21.49-.32.73-.11.24-.22.48-.34.72-.32.66-.65,1.31-.99,1.96-1.23,2.31-2.63,4.52-4.05,6.72-3.11,4.83-6.12,9.59-8.28,14.94-4.32,10.73-3.92,22.68-4.2,34.04-.07,2.84-.19,5.69-.43,8.52-.06.63-.12,1.26-.19,1.89-.04.35-.08.7-.12,1.05-.13,1.1.06-.2.04-.33.07.58-.23,1.5-.33,2.07-.14.76-.29,1.51-.45,2.26-.29,1.29-.63,2.58-1.02,3.84-.19.6-.39,1.2-.61,1.79-.12.33-.25.66-.37.98-.01.04-.02.06-.03.09-.99,2.16-2.12,4.23-3.41,6.22-.58.9-1.19,1.78-1.83,2.64-.23.31-1.55,1.98-.36.51-.38.47-.74.94-1.12,1.41-1.52,1.87-3.11,3.68-4.72,5.47-3.14,3.49-6.37,6.91-9.33,10.56-3.21,3.96-6.25,8.11-8.33,12.78-2.49,5.57-3.77,11.35-4.01,17.46-.45,11.38,2.58,22.57,2.25,33.95-.04,1.28-.12,2.56-.25,3.83,0,.06-.06.47-.09.7-.02.13-.04.23-.04.26-.12.7-.26,1.4-.41,2.1-.26,1.18-.17,2.43.21,3.57-.04.27-.06.54-.06.83.02,8.36,4.86,15.99,11.23,21.1,3.43,2.75,7.1,5.05,10.89,7.26,1.73,1.01,3.47,2.02,5.17,3.09.76.48,1.51.97,2.25,1.48.02.02.04.04.06.06.2.19.41.45.63.69.01-.05.02-.08.03-.12,0,0,0-.02,0-.02,0,0,0,.01,0,.02,0-.01,0-.03.01-.04-.01-.01-.02-.01-.02,0-.03-.26.03-.34.07-.18,0,.02,0,.04-.01.06,0-.02.01-.03.02-.04,0,.03,0,.08.01.12-.02-.04-.02-.02-.01.08,0,0,0,0,0,0-.02-.02-.03-.04-.04-.05,0,.01,0,.03-.01.04,0,.01.01.03.02.06,0,0,0,.01-.01.02,0-.02,0-.04-.01-.06,0,.04-.02.08-.03.11,0,0,0,0,0,0,0,0,0,0,0,.01-.02.09-.04.16-.05.22,0,0,0,0,0,0,.01-.07.02-.14.04-.2-.05.09-.11.18-.16.27-.02.03-.03.05-.04.07-.01.01-.02.02-.03.03-.27.26-.53.53-.8.79,0,0-.02.02-.03.02-.13.09-.25.18-.28.19-.32.21-.65.4-.98.57-.02.01-.04.02-.06.03-.38.06-.9.34-1.24.44-.46.14-.93.27-1.4.39-1.81.47-3.64.82-5.43,1.37-4.74,1.44-8.39,4.09-11.33,8.04-2.45,3.29-4.01,7.35-5.13,11.27-1.23,4.29-1.86,8.84-1.85,13.3,0,3.97.71,7.89.83,11.85.03.93.03,1.86-.03,2.78-.02.32-.1.68-.11,1.02-.05.24-.1.49-.16.73-.1.41-.21.81-.35,1.21-.04.11-.12.29-.19.47-.17.29-.31.6-.49.89-.1.16-.2.32-.3.48-.02.02-.08.11-.15.2-.15.17-.35.42-.42.5-.29.32-.6.64-.91.94-.19.18-1.91,1.82-2,1.74-.01,0,.97-.73.45-.35-.16.11-.31.23-.46.34-.36.27-.73.53-1.1.79-.74.52-1.48,1.03-2.22,1.54-6.6,4.58-12.23,10.07-16.53,16.89-2.19,3.47-4.05,7.29-5.31,11.19-1.58,4.91-1.07,9.75.14,14.67,1.07,4.34,2.16,8.67,3.24,13,.53,2.13,1.1,4.26,1.58,6.41.09.4.16.8.24,1.21,0,.21.03.43.04.65,0,.29-.1.78-.08,1.13-.02.09-.04.17-.06.25-.04.14-.1.27-.15.41-.02.03-.03.06-.05.09-.13.24-.27.48-.43.71,0,0,0,0,0,.01-.85.83-1.71,1.64-2.59,2.45-.24.18-.49.35-.73.53-.59.41-1.19.82-1.78,1.22-1.16.78-2.32,1.56-3.45,2.4-2.7,2.02-5.02,4.12-6.89,6.89-.61-.22-1.22-.45-1.83-.68-.44-.17-.87-.35-1.3-.52-.13-.06-.29-.12-.34-.15-6.89-3-13.41-6.76-20-10.36-6.86-3.75-13.87-7.33-21.3-9.82-3.62-1.21-7.3-2.01-11.05-2.67-1.95-.34-3.9-.7-5.8-1.26-.42-.12-.84-.26-1.25-.4-.05-.02-.27-.1-.46-.18-.86-.47-1.74-.9-2.58-1.41-3.66-2.25-7.02-4.55-11.12-5.99-3.87-1.36-8.09-1.9-12.18-1.99-7.48-.16-15.18,1.2-22.33,3.35-13.49,4.06-26.46,11.63-35.49,22.6-2.36,2.87-4.55,5.89-6.36,9.13-1.76,3.15-3.04,6.53-4.76,9.69-.39.71-.8,1.41-1.25,2.08-.05.07-.28.4-.45.65-.02.03-.05.06-.06.08-.18.2-.35.4-.54.6-.28.3-.6.57-.89.86-.05.04-.09.08-.13.1-.22.15-.81.37-1.07.59-.09.03-.19.06-.28.09-.05.01-.13.03-.21.05-.02,0-.03,0-.05,0-.04-.02-.06-.04-.1-.07-.08-.15-.16-.31-.24-.47-.02-.05-.03-.09-.05-.14-.1-.34-.19-.69-.27-1.05,0-.04-.02-.08-.02-.13-.04-.55-.1-1.11-.11-1.66-.01-.71,0-1.43.06-2.14.02-.3.1-1.03.15-1.47.49-1.15.61-2.46.24-3.78-1.34-4.71-2.68-9.43-4.02-14.14-1.31-4.6-2.38-9.43-4.7-13.65-4.4-8-13.11-11.62-21.75-12.75-8.06-1.05-16.63.19-24.28,2.81-8.32,2.85-15.98,7.37-22.39,13.4-1.34,1.26-2.59,2.6-3.9,3.88-.08.05-.16.09-.24.14-.04.01-.08.02-.12.03-.17,0-.34,0-.5,0,.12.04.06.08-.46-.02-.03,0-.07-.02-.1-.02-.04,0-.07,0-.1.01.03,0,.06-.01.08-.02-2-.39-3.92-1.09-5.93-1.45-2.91-.52-5.57-.47-8.48.11-2.17.43-4.25,1.21-6.38,1.81-.5.14-1,.27-1.5.39-.16.04-.64.2-1.04.28-.04-.02-.15-.02-.37-.01-.31.02-.63.06-.94.08-.63.04-1.26.06-1.89.06-4.66.04-9.29-.76-13.96-.53-8.67.43-16.67,3.55-24.73,6.47-3.86,1.39-7.76,2.72-11.79,3.53-.4.08-.8.16-1.2.23-.43.07-2.16.17-.42.09-1.01.05-2.02.21-3.03.26-.95.04-1.9.05-2.84,0-.06,0-.17-.01-.28-.02-.06-.01-.14-.03-.23-.06-.02,0-.04-.02-.06-.03-.03-.05-.07-.11-.1-.16-.04-.07-.07-.13-.11-.2-.08-.36-.33-.81-.43-1.13-.58-1.9-1.01-3.85-1.58-5.75-1.33-4.41-3.04-8.81-5.38-12.79-4.51-7.68-11.95-14.35-20.91-16.1-1.38-.27-2.78-.45-4.19-.51-1.06-1.51-2.77-2.5-4.82-2.56-9.66-.25-19.31-.51-28.97-.76-2.39-.06-4.79-.12-7.18-.19-.9-.02-1.8-.05-2.69-.12-.11,0-.47-.05-.75-.08-.32-.06-.79-.14-.9-.17-.43-.1-.85-.24-1.27-.35-.02,0-.03,0-.05-.01-.03-.01-.04-.02-.07-.04-.09-.05-.48-.3-.77-.49-.07-.07-.14-.15-.22-.22.01.03.02.07.03.11,0,0,0,0-.01,0-.05-.09-.14-.18-.2-.27-.02-.02-.05-.04-.07-.07-.24-.23-.21-.32-.09-.26-.09-.2-.19-.42-.3-.59-.01-.04-.02-.07-.04-.11-.13-.43-.24-.86-.32-1.3-.01-.06-.02-.1-.03-.14-.03-.35-.06-.69-.08-1.04-.05-.91-.05-1.81-.03-2.72.04-1.78.15-3.56.19-5.34.09-4.71-.8-9.38-2.26-13.84-1.41-4.28-3.15-8.43-4.58-12.7-1.45-4.33-2.7-8.73-3.76-13.17-1.06-4.44-1.91-8.93-2.57-13.45-.03-.24-.07-.49-.1-.73-.06-.48-.12-.95-.18-1.43-.15-1.25-.28-2.5-.4-3.76-.22-2.27-.38-4.55-.49-6.83-.05-1.07-.1-2.14-.12-3.21-.02-.94.2-2.03.14-2.97.05-.2.08-.4.14-.6.04-.13.08-.27.12-.4-.01,0-.02.02-.03.02,0,0,.02-.03.05-.07.02-.05.03-.11.05-.16.03-.1.05-.17.07-.22.02-.02.03-.04.05-.05-.01.07-.04.16-.07.27.1-.17.22-.38.31-.53.05-.06.1-.13.15-.18.16-.16.35-.31.52-.47.06-.04.12-.09.18-.13.31-.19.63-.37.95-.53.01,0,.02-.01.04-.02t0,0c.73-.22,1.45-.46,2.2-.63.38-.08.76-.15,1.14-.22.04,0,.07,0,.11-.01,3.77-.38,7.56-.03,11.33.15,4.74.22,9.49.37,14.23,0,8.54-.66,17.27-2.81,24.24-8.01,3.61-2.69,6.74-5.89,8.95-9.85,2.22-3.99,3.54-8.42,4.48-12.87,1.97-9.27,3.5-18.66,4.92-28.03.16-1.05.3-2.09.46-3.14.53-.62.93-1.36,1.13-2.22,1.1-4.67.82-9.62.88-14.39.06-4.72.13-9.43.19-14.15.13-9.24.42-18.5.27-27.74-.28-16.76-3.52-35.52-16.97-47.02-3.82-3.27-8.08-5.82-12.53-8.12-3.58-1.85-7.18-3.65-10.78-5.46.01-.54-.04-1.1-.19-1.67-5.42-21.46-13.43-43.11-29.29-59.14-2.53-2.56-5.27-4.95-8.16-7.12,3.76-4.92,6.36-10.66,7.67-16.72.61,1.04,1.2,2.09,1.75,3.18,2.5,4.92,5.63,9.06,10.32,12.1,9.08,5.88,20.75,6.24,31.21,6.54,12.43.36,25.66-.24,36.35-7.36,5.12-3.41,9.42-7.78,13.49-12.36,1.54-1.74,3.06-3.52,4.62-5.24.5,1.04.94,2.11,1.4,3.17,1.03,2.4,2.37,4.61,4.28,6.43,4.06,3.89,9.46,5.67,14.92,6.4,5.02.67,9.95.32,14.99.29,1.21,0,2.41.01,3.62.08.6.03,1.2.07,1.79.13.26.02.51.05.77.08.04,0,.08.01.11.02,1.14.19,2.27.43,3.37.76.24.07.5.18.75.29-.04-.06.1-.07.34.05.11.06.22.11.34.17.06.01.11.03.17.04-.05,0-.09-.02-.14-.03.27.13.55.26.82.41.37.21.72.44,1.07.67-.03-.04-.06-.08-.1-.12.04.05.09.1.13.15.09.06.19.12.28.18.18.12.25.21.24.25.03.03.07.05.09.08.31.29.68.9,1.04,1.15.2.3.39.59.58.9,1.81,2.94,3.65,5.8,6.76,7.52,3.15,1.75,6.59,2.19,10.11,2.61,2.64.31,5.28.6,7.92.82,10.62.91,21.96.99,32.11-2.71,5.52-2.01,10.62-4.97,14.79-9.14,3.71-3.71,6.59-8.22,8.75-12.98,2.28-5.01,4.02-10.22,5.74-15.44.41-1.24.82-2.47,1.25-3.7,3.23,9.93,8.6,19.15,15.66,26.97,5.43,6.02,12,11.21,19.18,14.99,4.14,2.18,8.54,4.15,13.29,4.3,2.57.08,5.32-.53,7.51-1.93,2.77-1.77,4.42-4.43,5.47-7.48.66-1.9,1.06-3.88,1.71-5.78.27-.79.58-1.56.88-2.33.07-.15.14-.31.21-.46.23-.5.46-.99.71-1.48.87-1.74,1.84-3.43,2.91-5.06.5-.76,1.02-1.51,1.56-2.25.06-.08.12-.16.18-.24.32-.37.61-.76.92-1.13,1.25-1.48,2.58-2.9,4-4.22.66-.62,1.34-1.22,2.03-1.8.16-.13.35-.26.53-.4.03-.06.11-.14.24-.24.09-.07.19-.14.28-.2.02-.02.05-.05.07-.07-.02.02-.03.03-.05.05.14-.1.28-.21.42-.31,1.55-1.11,3.16-2.12,4.84-3.02.78-.42,1.57-.81,2.38-1.18.12-.06.29-.12.45-.19.41-.16.82-.32,1.23-.47,1.71-.61,3.46-1.09,5.24-1.44.38-.07.76-.14,1.14-.2.14-.02.27-.04.4-.05.93-.1,1.87-.15,2.81-.17.95-.02,1.9,0,2.84.07.45.03.9.08,1.34.12.2.03.44.07.52.08,2.21.37,4.38.93,6.52,1.59,8.88,2.71,17.44,6.88,26.92,6.87,9.61,0,18.53-4.65,25.22-11.34,6.17-6.16,10.24-13.86,13.63-21.79,3.98,3.57,8.7,6.31,13.72,8.37,8.79,3.62,18.44,4.52,27.86,4.92,5.71.24,11.43.3,17.14.7.88.06,1.74-.15,2.53-.54,5.23,1.06,10.46,2.11,15.69,3.17,5.87,1.18,12,2.58,18.02,1.98,3.52-.35,6.75-1.13,9.92-2.74.25-.13.49-.26.74-.4.22,1.28.42,2.56.72,3.82.7,2.97,1.78,5.79,2.99,8.58,2.29,5.24,5.67,10.1,9.71,14.16.82.83,1.7,1.61,2.5,2.46.08.09.16.18.25.27.05.08.1.16.14.22,0-.01,0-.03,0-.04,0,0,.02.02.02.03,0,.01-.01.02-.02.03.01.02.02.03.03.04,0,.03-.01.04,0,.05,0-.01.01-.02.02-.04,0,0,0,0,0,0-.03.15-.07.15-.06.04Z"/>
      <path class="cls-2" d="M511.7,310.57s0-.01,0-.02c0,0,0,0,0,0,0,.01,0,.03,0,.04,0,0,0-.01.01-.02Z"/>
      <path class="cls-2" d="M511.77,310.27s-.02.07-.03.11c0,0,0,0,0,0,.01-.04.02-.08.03-.12Z"/>
      <path class="cls-2" d="M497.54,333.44c.37-.53.4-.65.33-.57-.1.2-.21.39-.32.56,0,0,0,0,0,.01Z"/>
      <path class="cls-2" d="M478.71,384.7c-.12.15-.04.17.45-.38-.02.01-.03.02-.05.04-.12.12-.25.24-.4.35Z"/>
      <path class="cls-2" d="M511.73,310.43s0,0,0-.01c0,0,0,0,0,0,0,0,0,.01,0,.02,0,0,0,0,0-.01Z"/>
      <path class="cls-2" d="M236.85,427.57c-.32.07-.55.17.46-.06-.06,0-.13.01-.19.02-.09.01-.18.03-.27.04Z"/>
      <path class="cls-2" d="M87.47,425.81s-.01,0-.02-.01c.29.38.46.48.48.44-.17-.14-.34-.28-.46-.43Z"/>
      <path class="cls-2" d="M187.39,445.87s-.07,0-.1,0c-.11.04.07.14.57.07-.04-.01-.09-.02-.13-.03-.12-.02-.24-.04-.34-.04Z"/>
      <path class="cls-2" d="M196.54,435.83s.01,0,.02,0c.15,0,.37.04.48.05.03,0,.05,0,.08,0-.11-.04-.37-.09-.58-.05Z"/>
      <path class="cls-2" d="M16.2,320.36c-.04.07-.08.13-.1.17,0,.02-.01.03-.02.05.04-.03.08-.12.12-.22Z"/>
      <path class="cls-2" d="M30.76,404.91c.04.1.09.19.13.27,0,.02.02.04.04.05.06.06.12.11.18.17-.1-.28-.25-.44-.34-.49Z"/>
      <path class="cls-2" d="M5.63,61.59s-.02.02-.03.04c0,0,.01-.01.02-.02,0,0,0-.01.01-.02Z"/>
    </g>
  </g>
</svg>