<?xml version="1.0" encoding="UTF-8"?>
<svg id="Layer_2" data-name="Layer 2" xmlns="http://www.w3.org/2000/svg" viewBox="0 0 12.19 24.06">
  <defs>
    <style>
      .cls-1 {
        fill: #1a1a1a;
      }
    </style>
  </defs>
  <g id="Layer_1-2" data-name="Layer 1">
    <path class="cls-1" d="M5.43,1.98c-.27,3.66-1.62,7.19-3.8,10.13-.55.74-1.28,1.4-1.53,2.32-.32,1.18.2,2.15.85,3.08,1.3,1.87,2.61,3.73,3.91,5.6,1.03,1.48,2.99,1.14,3.63-.47.69-1.73,1.37-3.47,2.06-5.2.62-1.57,1.3-3.12,1.55-4.8.52-3.51-1.07-6.68-2.77-9.65-1.27-2.22-4.7-.22-3.43,2s2.85,4.87,2.17,7.62c-.35,1.42-.96,2.78-1.5,4.14-.64,1.61-1.27,3.22-1.91,4.83l3.63-.47c-.78-1.12-1.56-2.24-2.35-3.36-.37-.53-.74-1.07-1.12-1.6-.19-.27-.37-.53-.56-.8l-.22-.32c-.2-.3-.21-.32-.05-.07l-.27,1c.46-1.06,1.45-1.96,2.08-2.95.71-1.11,1.3-2.27,1.8-3.48,1.02-2.42,1.59-4.94,1.79-7.55.08-1.07-.97-1.98-1.98-1.98-1.14,0-1.9.91-1.98,1.98h0Z"/>
  </g>
</svg>