<?xml version="1.0" encoding="UTF-8"?>
<svg id="Layer_2" data-name="Layer 2" xmlns="http://www.w3.org/2000/svg" viewBox="0 0 16.42 52.58">
  <defs>
    <style>
      .cls-1 {
        fill: #1a1a1a;
      }
    </style>
  </defs>
  <g id="Layer_1-2" data-name="Layer 1">
    <path class="cls-1" d="M7.96,1.91c.46,11.01-2.2,21.95-7.7,31.5-.47.82-.27,1.72.31,2.41,3.7,4.36,5.96,9.7,6.74,15.34.27,1.95,3.46,1.84,3.83,0,.77-3.88,1.74-7.72,2.94-11.5.62-1.94,1.44-3.84,1.96-5.81s.4-3.84.23-5.81c-.72-8.26-1.44-16.52-2.16-24.78-.22-2.53-4.19-2.55-3.97,0,.7,8.1,1.41,16.19,2.11,24.29.17,1.95.4,3.79-.17,5.69s-1.26,3.56-1.83,5.36c-1.2,3.77-2.18,7.61-2.94,11.5h3.83c-.88-6.34-3.63-12.22-7.76-17.09l.31,2.41C9.52,25.29,12.42,13.6,11.93,1.91c-.11-2.55-4.08-2.56-3.97,0h0Z"/>
  </g>
</svg>