<?xml version="1.0" encoding="UTF-8"?>
<svg id="Layer_2" data-name="Layer 2" xmlns="http://www.w3.org/2000/svg" viewBox="0 0 15.49 30.65">
  <defs>
    <style>
      .cls-1 {
        fill: #1a1a1a;
      }
    </style>
  </defs>
  <g id="Layer_1-2" data-name="Layer 1">
    <path class="cls-1" d="M7.6,1.98c.51,5-1.37,9.84-4.5,13.7-.77.95-1.71,1.77-2.47,2.73-1,1.29-.73,2.63.16,3.88,1.76,2.49,3.57,4.95,5.36,7.42,1.01,1.4,3.04,1.21,3.63-.47.84-2.42,2.02-4.7,3.52-6.78.69-.96,1.63-1.83,2.01-2.98.42-1.27.06-2.5-.52-3.65-.5-.99-.91-1.85-1.01-2.98-.11-1.24-.04-2.5-.1-3.75-.14-2.83-.93-5.52-2.26-8.02-1.21-2.25-4.64-.25-3.43,2,1.15,2.14,1.7,4.42,1.75,6.84s0,4.69,1.07,6.87c.37.75.95,1.18.43,1.89-.7.95-1.44,1.85-2.08,2.84-1.34,2.07-2.38,4.33-3.19,6.66l3.63-.47c-.99-1.37-1.97-2.73-2.96-4.1-.47-.65-.94-1.3-1.41-1.95-.37-.52-1.18-1.31-1.37-1.92v1.06c.09-.46,1.36-1.46,1.68-1.83.55-.65,1.08-1.32,1.58-2.01,1.04-1.43,1.94-2.96,2.65-4.58,1.44-3.27,2.2-6.81,1.83-10.39-.11-1.07-.83-1.98-1.98-1.98-.99,0-2.1.91-1.98,1.98h0Z"/>
  </g>
</svg>