<?xml version="1.0" encoding="UTF-8"?>
<svg id="Layer_2" data-name="Layer 2" xmlns="http://www.w3.org/2000/svg" viewBox="0 0 16.67 25.99">
  <defs>
    <style>
      .cls-1 {
        fill: #1a1a1a;
      }
    </style>
  </defs>
  <g id="Layer_1-2" data-name="Layer 1">
    <path class="cls-1" d="M3.5,3.1c.26,2.07-.67,3.81-1.6,5.6-1,1.9-3.01,4.9-1.11,6.83.7.71,1.7,1.1,2.48,1.72.86.68,1.63,1.49,2.34,2.33,1.41,1.68,2.53,3.59,3.65,5.46,1.01,1.68,3.7.98,3.7-1,0-4.12-.04-8.67,2.28-12.27.63-.98,1.46-1.75,1.43-3.01-.03-1.35-1.02-2.17-1.98-2.96-2.14-1.75-4.28-3.5-6.42-5.25-.83-.68-2-.81-2.81,0-.7.7-.83,2.12,0,2.81,1.35,1.11,2.7,2.21,4.06,3.32.68.55,1.35,1.11,2.03,1.66.45.37,1.17.76,1.41,1.29l-.27-1c.21-.33.19-.32-.07.03l-.31.4c-.2.27-.4.56-.58.85-.36.58-.66,1.18-.93,1.81-.55,1.26-.95,2.56-1.21,3.92-.52,2.77-.59,5.59-.59,8.4l3.7-1c-1.24-2.07-2.52-4.12-4.05-5.99-.7-.86-1.46-1.66-2.3-2.38-.48-.41-.98-.8-1.5-1.16-.24-.17-.48-.32-.73-.48l-.3-.18c-.31-.17-.36-.2-.12-.1l.27,1c0-.71.65-1.65.96-2.27.46-.89.94-1.76,1.36-2.67.83-1.8,1.45-3.71,1.2-5.71-.14-1.06-.82-1.98-1.98-1.98-.97,0-2.12.91-1.98,1.98h0Z"/>
  </g>
</svg>