<?xml version="1.0" encoding="UTF-8"?>
<svg id="Layer_2" data-name="Layer 2" xmlns="http://www.w3.org/2000/svg" viewBox="0 0 12.82 15.57">
  <defs>
    <style>
      .cls-1 {
        fill: #1a1a1a;
      }
    </style>
  </defs>
  <g id="Layer_1-2" data-name="Layer 1">
    <path class="cls-1" d="M6.62.96c-.36.65-.76,1.27-1.2,1.86.2-.27-.1.12-.15.18-.1.12-.2.24-.3.35-.24.28-.5.55-.76.81-.24.24-.49.47-.75.69-.14.12-.28.24-.43.36-.46.38.3-.21-.19.14-.6.43-1.23.83-1.88,1.18-1.37.74-1.2,2.65,0,3.43.23.15.46.31.69.47.17.12-.16-.14.11.09.09.08.19.16.28.24.44.38.86.8,1.25,1.24.08.09.16.19.24.28.04.05.29.38.09.11.17.22.32.45.48.68.32.49.6,1,.85,1.53.61,1.29,2.82,1.31,3.43,0,.45-.96.9-1.92,1.46-2.82.14-.23.3-.45.46-.67-.12.16-.08.1.02-.02.08-.09.15-.18.23-.27.18-.2.37-.38.57-.56.03-.02.31-.25.14-.13-.18.13.22-.15.22-.15.75-.56,1.36-1.28,1.33-2.27-.01-.62-.27-1.17-.68-1.63-.08-.09-.16-.17-.25-.26-.12-.12-.13-.17-.02,0-.08-.12-.16-.24-.24-.37-.02-.03-.2-.35-.1-.16s-.05-.13-.06-.17c-.05-.14-.08-.28-.12-.42-.05-.19-.04-.19-.02,0-.01-.12-.02-.23-.02-.35,0-.15.01-.29.01-.44,0-.3-.09.44.02-.08.21-1.01-.29-2.19-1.39-2.44-.99-.23-2.22.3-2.44,1.39s-.23,2.23.1,3.32c.15.49.36.99.63,1.44.18.29.39.57.61.84.06.07.45.62.25.28l-.27-1c0-.42.15-.73.44-.94.1-.07.1-.07,0,0-.22.14-.42.31-.62.47-.23.18-.46.38-.67.59-.5.5-.93,1.06-1.33,1.64-.69,1-1.2,2.1-1.71,3.2h3.43c-1.19-2.49-3.1-4.57-5.41-6.06v3.43c2.96-1.59,5.44-4.06,7.08-6.99.5-.91.25-2.21-.71-2.72S7.16,0,6.62.96h0Z"/>
  </g>
</svg>