<?xml version="1.0" encoding="UTF-8"?>
<svg id="Layer_2" data-name="Layer 2" xmlns="http://www.w3.org/2000/svg" viewBox="0 0 16.25 23.59">
  <defs>
    <style>
      .cls-1 {
        fill: #1a1a1a;
      }
    </style>
  </defs>
  <g id="Layer_1-2" data-name="Layer 1">
    <path class="cls-1" d="M4.75,1.45c-.34,1.98-.92,3.91-1.84,5.7-.46.89-.98,1.75-1.56,2.57C.7,10.63-.04,11.39,0,12.58s.82,1.93,1.64,2.61c.71.59,1.38,1.25,1.95,1.98,1.13,1.46,1.87,3.15,2.28,4.94.31,1.35,2.39,2.05,3.32.88.85-1.08,1.15-2.13,1.28-3.48.08-.79.1-1.48.59-2.13,1.15-1.52,3.13-2.12,4.43-3.46,2.33-2.39-1.29-4.51-2.73-6.03-1.58-1.67-2.81-3.61-3.76-5.71-.44-.98-1.86-1.21-2.72-.71-1.01.59-1.15,1.73-.71,2.72.82,1.82,1.88,3.49,3.12,5.05.57.71,1.17,1.39,1.82,2.03.34.34.7.66,1.06.98.28.24.8.53.93.84l-.27-1v.25c.08-.33.17-.67.26-1,.28-.45-.01-.04-.24.12-.19.13-.37.26-.56.39-.42.29-.84.57-1.25.86-.82.59-1.63,1.21-2.28,1.98-.7.83-1.23,1.78-1.45,2.85-.11.55-.15,1.13-.2,1.69-.02.2,0,.79-.14.97l3.32.88c-.41-1.82-1.15-3.6-2.17-5.16-.51-.79-1.1-1.54-1.74-2.23-.31-.34-.65-.67-.99-.98-.12-.1-.89-.88-1.01-.86.21-.05-.18,1.04.17.96.14-.03.41-.53.51-.67.3-.4.59-.82.86-1.24.51-.8.97-1.63,1.37-2.49.88-1.88,1.52-3.84,1.88-5.89.18-1.05-.28-2.14-1.39-2.44-.96-.26-2.26.32-2.44,1.39h0Z"/>
  </g>
</svg>