<?xml version="1.0" encoding="UTF-8"?>
<svg id="Layer_2" data-name="Layer 2" xmlns="http://www.w3.org/2000/svg" viewBox="0 0 53.25 87.94">
  <defs>
    <style>
      .cls-1 {
        fill: #1a1a1a;
      }
    </style>
  </defs>
  <g id="Layer_1-2" data-name="Layer 1">
    <path class="cls-1" d="M27.57,1.92c-.36,14.07-7.14,27.16-16.57,37.33-2.38,2.57-4.94,4.98-7.65,7.22-1.36,1.13-2.82,2.32-3.24,4.13s.34,3.51,1.58,4.78c1.15,1.18,2.64,2.02,4,2.93,1.49,1,2.96,2.02,4.42,3.07,2.84,2.04,5.6,4.18,8.21,6.5,5.82,5.17,10.97,11.28,13.71,18.66.7,1.87,3.13,1.88,3.83,0,2.28-6.17,2.43-12.77,3.35-19.22.73-5.11,2.1-10.62,5.57-14.61.83-.96,1.76-1.84,2.81-2.54s2.33-1.25,3.4-2.04c2.84-2.12,2.54-5.12,1.55-8.18-2.03-6.29-5.53-11.97-8.85-17.64-4.1-7-8.2-14.01-12.3-21.01-1.29-2.2-4.72-.21-3.43,2,3.51,6,7.03,12.01,10.54,18.01,3.26,5.58,6.89,11.12,9.28,17.14.55,1.39,1.09,2.82,1.43,4.28s-.18,2.03-1.44,2.75c-2.27,1.3-4.35,2.66-6.05,4.7-3.39,4.07-5.19,9.21-6.09,14.38-1.21,6.99-1.14,14.21-3.62,20.93h3.83c-5-13.46-16.46-22.69-28-30.49-1.17-.79-2.91-1.58-3.69-2.81-.73-1.16,1.22-2.27,1.99-2.91,2.7-2.23,5.26-4.64,7.65-7.22,4.78-5.15,8.92-10.96,11.99-17.29,3.46-7.15,5.54-14.89,5.74-22.84.06-2.56-3.9-2.55-3.97,0h0Z"/>
  </g>
</svg>