<?xml version="1.0" encoding="UTF-8"?>
<svg id="Layer_2" data-name="Layer 2" xmlns="http://www.w3.org/2000/svg" viewBox="0 0 33.68 46.69">
  <defs>
    <style>
      .cls-1 {
        fill: #1a1a1a;
      }
    </style>
  </defs>
  <g id="Layer_1-2" data-name="Layer 1">
    <path class="cls-1" d="M16.5,1.27c-2.34,3.77-4.93,7.39-7.8,10.78-1.44,1.7-2.94,3.35-4.5,4.95-1.38,1.41-3.58,2.86-4.09,4.86-.58,2.24,1.44,4.19,2.59,5.88,1.27,1.86,2.47,3.76,3.61,5.7,2.32,3.95,4.36,8.04,6.14,12.26.72,1.7,3.15.97,3.63-.47,2.09-6.35,4.27-12.78,7.9-18.44,1.77-2.75,3.91-5.29,6.5-7.31,1.39-1.09,3.06-1.99,3.2-3.97s-1.13-3.37-2.4-4.63c-3.48-3.44-6.98-6.87-10.47-10.3-1.82-1.79-4.63,1.01-2.81,2.81s3.72,3.66,5.58,5.49,3.78,3.52,5.5,5.42c.81.89.79.72-.1,1.37s-1.68,1.27-2.46,1.97c-1.47,1.31-2.77,2.77-3.97,4.32-5.03,6.52-7.75,14.47-10.3,22.21l3.63-.47c-1.63-3.87-3.49-7.64-5.58-11.29-1.04-1.82-2.14-3.61-3.3-5.36-.58-.88-1.17-1.74-1.77-2.6-.3-.42-.62-1.1-1.02-1.43-.14-.43-.25-.46-.31-.08.05-.1.11-.19.2-.26,3.08-2.65,5.84-5.87,8.41-9.01,2.7-3.3,5.18-6.76,7.43-10.38,1.35-2.18-2.08-4.17-3.43-2h0Z"/>
  </g>
</svg>