<?xml version="1.0" encoding="UTF-8"?>
<svg id="Layer_2" data-name="Layer 2" xmlns="http://www.w3.org/2000/svg" viewBox="0 0 39.03 91.06">
  <defs>
    <style>
      .cls-1 {
        fill: #1a1a1a;
      }
    </style>
  </defs>
  <g id="Layer_1-2" data-name="Layer 1">
    <path class="cls-1" d="M11.91,2.5c1.81,12.34-.18,25.29-5.51,36.56-1.38,2.91-2.98,5.72-4.77,8.39C.81,48.66,0,49.9,0,51.41c0,1.72,1.07,3.01,2.2,4.18,4.33,4.43,8.12,9.27,11.23,14.63,3.51,6.07,6.1,12.6,7.72,19.41.44,1.85,3.45,1.94,3.83,0,2.34-11.91,4.89-24.81,13.46-33.99.56-.6.83-1.68.31-2.41C28.05,38.22,21.06,20.81,18.37,2.57c-.16-1.06-1.5-1.65-2.44-1.39-1.14.31-1.54,1.38-1.39,2.44,2.13,14.44,6.95,28.46,14.13,41.18,2.03,3.6,4.26,7.08,6.66,10.45l.31-2.41c-9.08,9.74-11.99,23.08-14.48,35.74h3.83c-2.9-12.14-8.84-23.48-17.14-32.8-1-1.13-2.07-2.2-3.11-3.28-.38-.39-.79-.75-.73-1.3.08-.7.9-1.52,1.28-2.09,1.7-2.57,3.22-5.26,4.54-8.04,2.71-5.73,4.66-11.81,5.71-18.06,1.2-7.16,1.26-14.38.2-21.56-.16-1.06-1.5-1.65-2.44-1.39-1.14.31-1.54,1.38-1.39,2.44h0Z"/>
  </g>
</svg>