<?xml version="1.0" encoding="UTF-8"?>
<svg id="Layer_2" data-name="Layer 2" xmlns="http://www.w3.org/2000/svg" viewBox="0 0 49.86 89.48">
  <defs>
    <style>
      .cls-1 {
        fill: #1a1a1a;
      }
    </style>
  </defs>
  <g id="Layer_1-2" data-name="Layer 1">
    <g>
      <path class="cls-1" d="M22.75,1.92v34.62c0,2.55,3.97,2.56,3.97,0V1.92c0-2.55-3.97-2.56-3.97,0h0Z"/>
      <path class="cls-1" d="M11.65,37.7c1.09.54,2.11,1.19,3.08,1.92l-.4-.31c.99.76,1.89,1.62,2.71,2.56.68.79,2.12.75,2.81,0,.77-.84.73-1.97,0-2.81-1.72-1.97-3.85-3.62-6.19-4.79-.48-.24-1-.35-1.53-.2-.46.13-.96.48-1.19.91-.48.9-.28,2.22.71,2.72h0Z"/>
      <path class="cls-1" d="M32.02,34.66c-1.57,2.1-3.14,4.21-4.7,6.31-.29.39-.32,1.09-.2,1.53s.48.96.91,1.19c.46.24,1.02.37,1.53.2s.86-.47,1.19-.91c1.57-2.1,3.14-4.21,4.7-6.31.29-.39.32-1.09.2-1.53s-.48-.96-.91-1.19c-.46-.24-1.02-.37-1.53-.2s-.86.47-1.19.91h0Z"/>
      <path class="cls-1" d="M16.06,57.13c1.2-1.55,2.6-2.95,4.15-4.16.37-.29.58-.96.58-1.4,0-.49-.22-1.07-.58-1.4s-.87-.6-1.4-.58l-.53.07c-.34.09-.63.26-.88.51-1.55,1.21-2.94,2.61-4.15,4.16-.19.18-.33.39-.41.64-.12.24-.18.49-.17.76,0,.49.22,1.07.58,1.4s.87.6,1.4.58c.49-.02,1.09-.18,1.4-.58h0Z"/>
      <path class="cls-1" d="M34.8,55.56c-1.35-1.13-2.58-2.41-3.66-3.81l.31.4c-.35-.46-.69-.93-1.01-1.41-.29-.43-.68-.77-1.19-.91-.48-.13-1.11-.07-1.53.2-.86.55-1.33,1.79-.71,2.72,1.39,2.09,3.06,4,4.98,5.62.41.35.85.58,1.4.58.49,0,1.07-.22,1.4-.58s.6-.87.58-1.4c-.02-.5-.18-1.07-.58-1.4h0Z"/>
      <path class="cls-1" d="M22.64,59.87c.14,9.23.08,18.46-.17,27.69-.07,2.56,3.9,2.55,3.97,0,.25-9.23.31-18.46.17-27.69-.04-2.55-4.01-2.56-3.97,0h0Z"/>
      <path class="cls-1" d="M1.98,48.61c.25,0,.3,0,.14-.02.23.08.28.09.16.03.29.1.55.29.82.43.57.29,1.16.55,1.78.73,1.18.35,2.46.45,3.69.41,2.6-.08,5.22-.6,7.79-.99,1.06-.16,1.65-1.5,1.39-2.44-.31-1.13-1.38-1.55-2.44-1.39-2.4.37-4.61.82-6.98.86-1.06.02-1.9-.04-2.82-.41-1.13-.45-2.16-1.23-3.53-1.18-1.07.04-1.98.88-1.98,1.98,0,1.04.91,2.03,1.98,1.98h0Z"/>
      <path class="cls-1" d="M34.83,48.37c4.35-.28,8.69-.57,13.04-.85,1.03-.07,2.03-.86,1.98-1.98-.05-1.02-.88-2.06-1.98-1.98-4.35.28-8.69.57-13.04.85-1.03.07-2.03.86-1.98,1.98.05,1.02.88,2.06,1.98,1.98h0Z"/>
    </g>
  </g>
</svg>