<?xml version="1.0" encoding="UTF-8"?>
<svg id="Layer_2" data-name="Layer 2" xmlns="http://www.w3.org/2000/svg" viewBox="0 0 33.35 66.99">
  <defs>
    <style>
      .cls-1 {
        fill: #1a1a1a;
      }
    </style>
  </defs>
  <g id="Layer_1-2" data-name="Layer 1">
    <path class="cls-1" d="M17.07,4.9C14.34,15.38,8.59,24.83.58,32.11c-.73.66-.81,2.16,0,2.81,2.44,1.94,4.89,3.89,7.26,5.91,2,1.71,4.17,3.5,5.06,6.07s1.06,5.59,1.42,8.35c.42,3.26.85,6.52,1.27,9.79.27,2.11,3.2,2.83,3.9.53,2.48-8.19,5.04-16.86,10.52-23.62,1.32-1.63,3.51-3.12,3.33-5.43-.09-1.08-.56-2.16-.91-3.18-.41-1.19-.84-2.37-1.3-3.54-1.72-4.44-3.7-8.78-5.56-13.17-2.09-4.94-3.99-9.97-5.16-15.21-.56-2.49-4.38-1.44-3.83,1.06,2.04,9.13,6.3,17.5,9.81,26.11.87,2.12,1.69,4.27,2.41,6.44.16.49.29,1,.48,1.48.31.79.02.33.15.13-.13.19-.36.37-.52.54-.74.78-1.44,1.6-2.11,2.45-2.65,3.38-4.7,7.13-6.38,11.07-1.91,4.5-3.37,9.15-4.79,13.82l3.9.53c-.45-3.42-.89-6.85-1.34-10.27-.4-3.08-.55-6.38-1.64-9.31s-3.02-4.89-5.23-6.82c-2.59-2.25-5.28-4.38-7.96-6.52v2.81c8.49-7.71,14.62-17.87,17.51-28.96.64-2.47-3.18-3.53-3.83-1.06h0Z"/>
  </g>
</svg>