<?xml version="1.0" encoding="UTF-8"?>
<svg id="Layer_2" data-name="Layer 2" xmlns="http://www.w3.org/2000/svg" viewBox="0 0 45.33 53.37">
  <defs>
    <style>
      .cls-1 {
        fill: #1a1a1a;
      }
    </style>
  </defs>
  <g id="Layer_1-2" data-name="Layer 1">
    <path class="cls-1" d="M11.25,2.48c2.18,9.83-2.04,20.76-10.31,26.52-1.37.95-1.25,3.13.47,3.63,2.94.84,6.03.37,8.97,1.11,2.56.64,4.95,1.94,6.97,3.63,4.51,3.8,7.26,9.16,9.42,14.55.33.83.97,1.46,1.91,1.46.82,0,1.76-.61,1.91-1.46.42-2.35.85-4.7,1.27-7.05.36-1.98.5-4.34,1.59-6.08.94-1.5,2.59-2.34,4.16-3.04,2.01-.9,4.11-1.64,6.21-2.33,1.11-.37,1.97-1.81,1.19-2.92-4-5.59-10.05-8.71-15.57-12.53S19.37,8.59,17.19,1.94c-.79-2.42-4.62-1.38-3.83,1.06,2.29,6.99,6.65,12.9,12.53,17.28,5.27,3.93,11.78,6.73,15.7,12.21l1.19-2.92c-2.36.78-4.7,1.65-6.98,2.65-2.02.89-3.93,2.06-5.28,3.85-1.48,1.98-1.88,4.41-2.31,6.78-.48,2.66-.96,5.33-1.44,7.99h3.83c-2.41-6-5.4-12.06-10.44-16.3-2.35-1.97-5.01-3.56-7.96-4.44-3.19-.96-6.57-.41-9.74-1.32l.47,3.63C12.74,25.6,17.66,13.1,15.08,1.42c-.55-2.49-4.38-1.44-3.83,1.06h0Z"/>
  </g>
</svg>