<?xml version="1.0" encoding="UTF-8"?>
<svg id="Layer_2" data-name="Layer 2" xmlns="http://www.w3.org/2000/svg" viewBox="0 0 50.75 86.02">
  <defs>
    <style>
      .cls-1 {
        fill: #1a1a1a;
      }
    </style>
  </defs>
  <g id="Layer_1-2" data-name="Layer 1">
    <g>
      <path class="cls-1" d="M27.79,1.43c-2.42,10.6-5.86,20.96-10.34,30.88-.44.98-.28,2.13.71,2.72.85.5,2.27.27,2.72-.71,4.62-10.23,8.24-20.88,10.74-31.83.57-2.49-3.26-3.55-3.83-1.06h0Z"/>
      <path class="cls-1" d="M28.24,2.48c.7,3.11.64,6.44.62,9.61s-.17,6.25-.23,9.37c-.12,6.24.13,12.58,2.18,18.53.83,2.4,4.66,1.37,3.83-1.06-2.05-5.93-2.17-12.17-2.02-18.39s.84-12.95-.55-19.13c-.56-2.49-4.39-1.44-3.83,1.06h0Z"/>
      <path class="cls-1" d="M16.82,49.81c6.15,9.94,6.54,21.99,6.86,33.34.07,2.55,4.04,2.56,3.97,0-.33-12.05-.87-24.8-7.4-35.35-1.34-2.17-4.78-.18-3.43,2h0Z"/>
      <path class="cls-1" d="M31.64,48.63c-3.11,11.53-5.79,23.17-8.02,34.9-.47,2.5,3.35,3.57,3.83,1.06,2.23-11.73,4.91-23.37,8.02-34.9.67-2.47-3.16-3.52-3.83-1.06h0Z"/>
      <path class="cls-1" d="M15.73,39.14c-4.79.28-9.56.86-14.28,1.72-1.06.19-1.65,1.47-1.39,2.44.31,1.11,1.38,1.58,2.44,1.39,4.37-.8,8.79-1.32,13.22-1.58,1.07-.06,1.98-.87,1.98-1.98,0-1.03-.91-2.05-1.98-1.98h0Z"/>
      <path class="cls-1" d="M39.25,44.97c.09-.07.18-.12.29-.17-.19.08-.22.1-.08.05.19-.02.39-.1.58-.13.39-.07.78-.13,1.17-.18.05,0,.62-.09.28-.04.23-.03.47-.06.7-.09.44-.05.87-.1,1.31-.14,1.75-.17,3.51-.26,5.27-.28,1.04-.01,2.03-.9,1.98-1.98s-.87-2-1.98-1.98c-1.9.02-3.79.13-5.67.32-1.05.11-2.1.25-3.15.4-.94.14-1.88.26-2.7.8-.86.57-1.32,1.78-.71,2.72.55.86,1.79,1.33,2.72.71h0Z"/>
    </g>
  </g>
</svg>