<?xml version="1.0" encoding="UTF-8"?>
<svg id="Layer_2" data-name="Layer 2" xmlns="http://www.w3.org/2000/svg" viewBox="0 0 33.98 85.14">
  <defs>
    <style>
      .cls-1 {
        fill: #1a1a1a;
      }
    </style>
  </defs>
  <g id="Layer_1-2" data-name="Layer 1">
    <path class="cls-1" d="M17.72,3.66c-1.91,10.82-6.05,21.13-12.22,30.23-1.5,2.22-3.38,4.21-4.83,6.45-1.77,2.73.39,5.4,1.79,7.74s2.9,4.94,3.79,7.65,1.19,5.54,1.26,8.39c.16,6.55-.67,13.16,1.03,19.59.48,1.82,3.42,1.96,3.83,0,1.28-6.2,2.56-12.4,4.08-18.55.75-3.03,1.57-6.05,2.47-9.04.84-2.79,1.65-5.7,2.98-8.31,1.25-2.44,3.03-4.27,5.33-5.75,1.12-.72,2.28-1.35,3.45-1.99s2.38-1.29,3-2.58c.68-1.44.14-2.88-.56-4.19s-1.42-2.63-2.07-3.97c-1.26-2.61-2.35-5.28-3.28-8.02-2.14-6.28-3.44-12.81-3.84-19.43-.15-2.54-4.12-2.56-3.97,0,.72,11.85,4.18,22.98,9.74,33.43-.03-.05.31.72.36.55.02-.06.01,0-.32.21-.52.31-1.07.59-1.61.88-1.22.67-2.44,1.36-3.59,2.15-2.31,1.59-4.27,3.52-5.66,5.97s-2.29,5.23-3.14,7.93c-.94,2.98-1.79,5.98-2.58,9.01-1.77,6.83-3.19,13.74-4.62,20.64h3.83c-1.47-5.55-.86-11.31-.87-16.97,0-2.83-.17-5.67-.75-8.45s-1.67-5.39-3-7.89c-.66-1.24-1.38-2.45-2.09-3.66-.3-.51-.61-1.02-.91-1.53-.23-.38-.85-1.14-.79-1.6.05-.39.66-.88.9-1.18.46-.57.91-1.15,1.35-1.73.86-1.12,1.69-2.26,2.48-3.42,3.03-4.42,5.58-9.14,7.67-14.07,2.38-5.61,4.13-11.46,5.18-17.46.19-1.05-.28-2.14-1.39-2.44-.96-.26-2.25.32-2.44,1.39h0Z"/>
  </g>
</svg>