<?xml version="1.0" encoding="UTF-8"?>
<svg id="Layer_2" data-name="Layer 2" xmlns="http://www.w3.org/2000/svg" viewBox="0 0 37.39 68.13">
  <defs>
    <style>
      .cls-1 {
        fill: #1a1a1a;
      }
    </style>
  </defs>
  <g id="Layer_1-2" data-name="Layer 1">
    <g>
      <path class="cls-1" d="M20.14,1.91c.39,9.83-.35,19.65-2.27,29.3-.5,2.49,3.33,3.56,3.83,1.06,1.99-9.99,2.82-20.18,2.42-30.36-.1-2.55-4.07-2.56-3.97,0h0Z"/>
      <path class="cls-1" d="M1.44,42.45c3.31.69,6.74.59,9.99-.39.99-.3,1.72-1.41,1.39-2.44s-1.38-1.71-2.44-1.39c-.68.2-1.37.37-2.07.5-.22.04-.43.08-.65.1l.2-.03c-.11.01-.22.03-.33.04-.35.04-.71.06-1.06.08-.71.03-1.42.02-2.13-.03-.19-.01-.38-.03-.57-.05-.11-.01-.61-.05-.12-.01-.38-.03-.76-.13-1.13-.2-1.01-.21-2.19.3-2.44,1.39-.23.99.3,2.22,1.39,2.44h0Z"/>
      <path class="cls-1" d="M22.69,65.71c-2.09-6.16-1.69-12.71-1.29-19.1.07-1.07-.96-1.98-1.98-1.98-1.13,0-1.92.91-1.98,1.98-.42,6.73-.77,13.67,1.43,20.16.82,2.41,4.65,1.37,3.83-1.06h0Z"/>
      <path class="cls-1" d="M26.3,42.56c3.03.15,6.07.18,9.1.09,1.04-.03,2.03-.89,1.98-1.98s-.87-2.02-1.98-1.98c-3.03.09-6.07.06-9.1-.09-1.04-.05-2.03.95-1.98,1.98.05,1.12.87,1.93,1.98,1.98h0Z"/>
    </g>
  </g>
</svg>