<?xml version="1.0" encoding="UTF-8"?>
<svg id="Layer_2" data-name="Layer 2" xmlns="http://www.w3.org/2000/svg" viewBox="0 0 33.98 60.63">
  <defs>
    <style>
      .cls-1 {
        fill: #1a1a1a;
      }
    </style>
  </defs>
  <g id="Layer_1-2" data-name="Layer 1">
    <path class="cls-1" d="M15.26,2.43c.48,5.57-.62,11.18-3.26,16.11-1.3,2.42-2.92,4.62-4.86,6.57-2.21,2.22-4.68,4.17-6.6,6.66-.96,1.25-.61,2.73.88,3.32,10.39,4.13,18.45,13.36,21.35,24.12.5,1.85,3.37,1.93,3.83,0,1.82-7.74,1.35-15.86,3.51-23.53.53-1.88,1.22-3.69,2.17-5.39s2.13-3.5,1.55-5.62c-.51-1.87-1.99-3.39-3.08-4.94-1.25-1.77-2.43-3.57-3.56-5.42-2.51-4.11-4.74-8.41-6.6-12.86-.41-.99-1.31-1.7-2.44-1.39-.93.26-1.8,1.45-1.39,2.44,3.22,7.68,7.32,14.83,12.25,21.54.4.54,1.07,1.27,1,1.99-.07.79-.78,1.57-1.16,2.25-.95,1.69-1.7,3.51-2.28,5.36-1.17,3.73-1.65,7.64-2.04,11.51-.44,4.35-.75,8.72-1.76,12.99h3.83c-3.29-12.2-12.42-22.24-24.13-26.89l.88,3.32c2.02-2.61,4.62-4.62,6.91-6.97,2.13-2.19,3.95-4.71,5.36-7.42,2.83-5.44,4.14-11.64,3.62-17.76-.22-2.53-4.19-2.55-3.97,0h0Z"/>
  </g>
</svg>