<?xml version="1.0" encoding="UTF-8"?>
<svg id="Layer_2" data-name="Layer 2" xmlns="http://www.w3.org/2000/svg" viewBox="0 0 41.23 77.91">
  <defs>
    <style>
      .cls-1 {
        fill: #1a1a1a;
      }
    </style>
  </defs>
  <g id="Layer_1-2" data-name="Layer 1">
    <path class="cls-1" d="M17.5,2.5c1.65,10.47-2.78,21-9.19,29.1-1.65,2.09-3.45,4.05-5.36,5.9-2.06,1.98-3.81,4.18-2.5,7.14.56,1.26,1.47,2.28,2.32,3.35.9,1.14,1.77,2.32,2.61,3.5,1.66,2.35,3.22,4.78,4.67,7.27,3.32,5.67,6.12,11.62,8.53,17.73.69,1.73,3.25,2.03,3.83,0,2.69-9.42,5.84-19.72,14.62-25.18,2.18-1.35,4.26-3.07,4.19-5.88s-2.5-5.49-3.91-7.87c-3.02-5.09-5.46-10.5-7.28-16.14-2.04-6.32-3.31-12.86-3.74-19.49-.17-2.54-4.14-2.55-3.97,0,.77,11.79,3.98,23.35,9.45,33.83,1.35,2.58,2.87,5.03,4.43,7.48.6.94,1.5,2.13.74,3.2-.57.8-1.68,1.28-2.48,1.78-4.22,2.66-7.44,6.54-9.8,10.9-2.76,5.11-4.48,10.72-6.07,16.29h3.83c-4.33-10.93-9.76-21.38-17.11-30.6-.5-.63-1.53-1.62-1.34-2.5.23-1.05,1.95-2.17,2.67-2.89,1.91-1.91,3.67-3.95,5.31-6.09,3.29-4.29,5.97-9.05,7.74-14.16,1.99-5.72,2.59-11.77,1.65-17.75-.17-1.06-1.49-1.65-2.44-1.39-1.13.31-1.55,1.38-1.39,2.44h0Z"/>
  </g>
</svg>