<?xml version="1.0" encoding="UTF-8"?>
<svg id="Layer_2" data-name="Layer 2" xmlns="http://www.w3.org/2000/svg" viewBox="0 0 33.96 63.95">
  <defs>
    <style>
      .cls-1 {
        fill: #1a1a1a;
      }
    </style>
  </defs>
  <g id="Layer_1-2" data-name="Layer 1">
    <path class="cls-1" d="M18.07,1.91c.61,7.77,1.06,15.68-2.37,22.92S6.08,37.37.56,42.95c-1.01,1.02-.61,2.99.88,3.32,2.31.51,4.62,1.01,6.9,1.64,2.04.56,4.43,1.08,6.18,2.33s2.23,3.6,2.93,5.43c.88,2.29,1.76,4.58,2.64,6.88.69,1.79,3.2,1.97,3.83,0,1.13-3.57,2.16-7.23,3.63-10.69,1.18-2.76,2.76-5.42,5.47-6.88,1.02-.55,1.12-1.76.71-2.72-2.67-6.21-4.29-12.72-5.45-19.36s-2.18-12.91-4.89-18.94c-.44-.98-1.86-1.21-2.72-.71-1.01.59-1.15,1.73-.71,2.72,2.67,5.95,3.52,12.52,4.64,18.88,1.19,6.71,3,13.17,5.69,19.43l.71-2.72c-3.18,1.72-5.3,4.72-6.74,7.96-1.73,3.86-2.91,7.96-4.18,11.98h3.83c-.97-2.51-1.93-5.03-2.9-7.54-.91-2.36-1.7-4.91-3.74-6.56-1.92-1.56-4.41-2.3-6.75-2.99-2.65-.78-5.35-1.37-8.04-1.96l.88,3.32c5.85-5.91,12.42-11.62,15.94-19.32s3.39-16.11,2.73-24.53c-.2-2.53-4.17-2.55-3.97,0h0Z"/>
  </g>
</svg>