<svg version="1.2" xmlns="http://www.w3.org/2000/svg" viewBox="0 0 162 36" width="162" height="36">
	<defs>
		<clipPath clipPathUnits="userSpaceOnUse" id="cp1">
			<path d="m0 0h31.3v36h-31.3z"/>
		</clipPath>
		<clipPath clipPathUnits="userSpaceOnUse" id="cp2">
			<path d="m3.68 11v13.78l11.93 6.89 11.94-6.89v-13.78l-11.94-6.89z"/>
		</clipPath>
		<linearGradient id="g1" x2="1" gradientUnits="userSpaceOnUse" gradientTransform="matrix(0,36.094,-31.259,0,-0.018,-0.159)">
			<stop offset="0" stop-color="#e7ddfd"/>
			<stop offset="1" stop-color="#c9b1ff"/>
		</linearGradient>
		<clipPath clipPathUnits="userSpaceOnUse" id="cp3">
			<path d="m15.61 17.91v13.76l11.94-6.89v-13.78z"/>
		</clipPath>
		<linearGradient id="g2" x2="1" gradientUnits="userSpaceOnUse" gradientTransform="matrix(0,20.679,-11.939,0,15.61,10.997)">
			<stop offset="0" stop-color="#e7ddfd"/>
			<stop offset="1" stop-color="#c1a5ff"/>
		</linearGradient>
		<clipPath clipPathUnits="userSpaceOnUse" id="cp4">
			<path d="m3.68 11v13.78l11.93 6.89v-13.76z"/>
		</clipPath>
		<linearGradient id="g3" x2="1" gradientUnits="userSpaceOnUse" gradientTransform="matrix(0,20.679,-11.939,0,3.674,10.997)">
			<stop offset="0" stop-color="#e7ddfd"/>
			<stop offset="1" stop-color="#c1a5ff"/>
		</linearGradient>
	</defs>
	<style>
		.s0 { fill: #e7ddfd } 
		.s1 { fill: url(#g1) } 
		.s2 { fill: url(#g2) } 
		.s3 { fill: url(#g3) } 
		.s4 { fill: #111111 } 
		.s5 { fill: #ffffff } 
	</style>
	<g id="Layer 1">
		<g id="Clip-Path" clip-path="url(#cp1)">
			<g>
				<path fill-rule="evenodd" class="s0" d="m15.2 0.12l-14.75 8.52c-0.28 0.16-0.45 0.46-0.45 0.78v17.03c0 0.32 0.17 0.62 0.45 0.78l14.75 8.52c0.28 0.16 0.62 0.16 0.9 0l5.84-3.37 4.67 2.01c0.29 0.13 0.62-0.09 0.62-0.41l-0.02-4.65 3.65-2.1c0.27-0.16 0.44-0.46 0.44-0.78v-17.03c0-0.32-0.17-0.62-0.44-0.78l-14.76-8.52c-0.28-0.16-0.62-0.16-0.9 0z"/>
			</g>
		</g>
		<g id="Clip-Path" clip-path="url(#cp2)">
			<g>
				<path fill-rule="evenodd" class="s1" d="m3.68 11v13.78l11.93 6.89 11.94-6.89v-13.78l-11.94-6.89z"/>
			</g>
		</g>
		<g id="Clip-Path" clip-path="url(#cp3)">
			<g>
				<path fill-rule="evenodd" class="s2" d="m15.61 17.91v13.76l11.94-6.89v-13.78z"/>
			</g>
		</g>
		<g id="Clip-Path" clip-path="url(#cp4)">
			<g>
				<path fill-rule="evenodd" class="s3" d="m3.68 11v13.78l11.93 6.89v-13.76z"/>
			</g>
		</g>
		<path fill-rule="evenodd" class="s4" d="m19.83 24.45c1.47 0.12 2.96-0.75 4.5-2.65 0.14-0.18 0.27 0 0.27 0.22 0 0.21-0.13 0.38-0.27 0.54q-2.33 2.66-4.5 2.65c-0.13 0-0.27-0.01-0.27-0.22 0-0.21 0.14-0.55 0.27-0.54z"/>
		<path fill-rule="evenodd" class="s4" d="m21.04 19.82c0 0.73-0.51 1.63-1.15 2-0.64 0.38-1.15 0.09-1.15-0.64 0-0.72 0.51-1.62 1.15-1.99 0.64-0.38 1.15-0.1 1.15 0.63z"/>
		<path fill-rule="evenodd" class="s5" d="m20.78 19.54c0 0.28-0.2 0.62-0.44 0.77-0.25 0.14-0.45 0.03-0.45-0.25 0-0.28 0.2-0.62 0.45-0.77 0.24-0.15 0.44-0.03 0.44 0.25z"/>
		<path fill-rule="evenodd" class="s4" d="m25.43 17.23c0 0.73-0.52 1.62-1.15 2-0.64 0.38-1.16 0.09-1.16-0.64 0-0.72 0.52-1.62 1.16-2 0.63-0.37 1.15-0.08 1.15 0.64z"/>
		<path fill-rule="evenodd" class="s5" d="m25.17 16.95c0 0.28-0.2 0.62-0.45 0.77-0.24 0.14-0.44 0.03-0.44-0.25 0-0.28 0.2-0.62 0.44-0.77 0.25-0.14 0.45-0.03 0.45 0.25z"/>
		<path fill-rule="evenodd" class="s4" d="m19.26 8.81c-0.26 1.66-1.81 2.94-3.68 2.94-1.87 0-3.42-1.28-3.68-2.94q-0.09 0.38-0.09 0.78c0 1.94 1.69 3.51 3.77 3.51 2.09 0 3.78-1.57 3.78-3.51q-0.01-0.4-0.1-0.78z"/>
		<path fill-rule="evenodd" class="s0" d="m156.84 27.62l-7.9-7.05 5.36-4.97c0.73-0.67 0.77-1.81 0.09-2.54l-0.52-0.57c-0.68-0.73-1.82-0.77-2.55-0.1l-5.43 5.04v-10.43c0-1-0.8-1.8-1.8-1.8h-0.78c-0.99 0-1.8 0.8-1.8 1.8v21.68c0 0.99 0.81 1.8 1.8 1.8h0.78c1 0 1.8-0.81 1.8-1.8v-4.96l8.04 7.17c0.74 0.66 1.88 0.59 2.54-0.15l0.52-0.58c0.66-0.74 0.59-1.88-0.15-2.54z"/>
		<path fill-rule="evenodd" class="s0" d="m122.54 28.68v-7.83c0-3.95 3.2-7.14 7.15-7.14h2.55c3.94 0 7.14 3.19 7.14 7.14v7.83c0 1-0.8 1.81-1.8 1.81h-0.77c-1 0-1.81-0.81-1.81-1.81v-7.83c0-1.53-1.23-2.77-2.76-2.77h-2.55c-1.53 0-2.77 1.24-2.77 2.77v7.83c0 1-0.8 1.81-1.8 1.81h-0.78c-0.99 0-1.8-0.81-1.8-1.81z"/>
		<path fill-rule="evenodd" class="s0" d="m118.6 30.49h-0.77c-1 0-1.8-0.81-1.8-1.81v-13.15c0-1 0.8-1.8 1.8-1.8h0.77c1 0 1.81 0.8 1.81 1.8v13.15c0 1-0.81 1.81-1.81 1.81z"/>
		<path fill-rule="evenodd" class="s0" d="m118.6 12.41h-0.77c-1 0-1.8-0.8-1.8-1.8v-0.77c0-1 0.8-1.8 1.8-1.8h0.77c1 0 1.81 0.8 1.81 1.8v0.77c0 1-0.81 1.8-1.81 1.8z"/>
		<path fill-rule="evenodd" class="s0" d="m112.53 30.46c-3.95 0-7.14-3.2-7.14-7.14v-15.11c0-0.89 0.72-1.61 1.61-1.61h1.15c0.89 0 1.61 0.72 1.61 1.61v15.11c0 1.53 1.24 2.76 2.77 2.76 0.89 0 1.62 0.72 1.62 1.62v1.15c0 0.89-0.73 1.61-1.62 1.61z"/>
		<path fill-rule="evenodd" class="s0" d="m103.61 27.59l-7.9-7.05 5.36-4.97c0.73-0.68 0.77-1.81 0.09-2.54l-0.52-0.57c-0.68-0.73-1.82-0.77-2.55-0.1l-5.43 5.04v-10.43c0-1-0.8-1.8-1.8-1.8h-0.77c-1 0-1.81 0.8-1.81 1.8v21.68c0 0.99 0.81 1.8 1.81 1.8h0.77c1 0 1.8-0.81 1.8-1.8v-4.96l8.04 7.17c0.74 0.66 1.88 0.59 2.54-0.15l0.52-0.58c0.66-0.74 0.59-1.88-0.15-2.54z"/>
		<path fill-rule="evenodd" class="s0" d="m84.34 30.49h-3.82c-3.95 0-7.15-3.2-7.15-7.14v-2.5c0-3.94 3.2-7.14 7.15-7.14h3.82c0.99 0 1.8 0.81 1.8 1.8v0.78c0 0.99-0.81 1.8-1.8 1.8h-3.82c-1.53 0-2.77 1.24-2.77 2.76v2.5c0 1.52 1.24 2.76 2.77 2.76h3.82c0.99 0 1.8 0.81 1.8 1.8v0.78c0 0.99-0.81 1.8-1.8 1.8z"/>
		<path fill-rule="evenodd" class="s0" d="m69.44 30.49h-0.78c-0.99 0-1.8-0.81-1.8-1.81v-13.15c0-1 0.81-1.8 1.8-1.8h0.78c1 0 1.8 0.8 1.8 1.8v13.15c0 1-0.8 1.81-1.8 1.81z"/>
		<path fill-rule="evenodd" class="s0" d="m69.44 12.41h-0.78c-0.99 0-1.8-0.8-1.8-1.8v-0.77c0-1 0.81-1.8 1.8-1.8h0.78c0.99 0 1.8 0.8 1.8 1.8v0.77c0 1-0.81 1.8-1.8 1.8z"/>
		<path fill-rule="evenodd" class="s0" d="m58.1 30.48h-0.78c-0.99 0-1.8-0.8-1.8-1.8v-7.8c0-3.94 3.2-7.14 7.15-7.14h0.3c1 0 1.81 0.81 1.81 1.8v0.78c0 0.99-0.81 1.8-1.81 1.8h-0.3c-1.53 0-2.77 1.24-2.77 2.76v7.8c0 1-0.81 1.8-1.8 1.8z"/>
		<path fill-rule="evenodd" class="s0" d="m46.25 13.72h-2.48q-1.47 0.01-2.76 0.55v-4.4c0-0.99-0.8-1.8-1.8-1.8h-0.77c-1 0-1.81 0.81-1.81 1.8v13.46c0 3.94 3.2 7.14 7.14 7.14h2.48c3.94 0 7.14-3.2 7.14-7.14v-2.47c0-3.94-3.2-7.14-7.14-7.14zm-5.24 6.98c0.08-1.45 1.29-2.6 2.76-2.6h2.48c1.52 0 2.76 1.23 2.76 2.76v2.47c0 1.53-1.24 2.77-2.76 2.77h-2.48c-1.52 0-2.76-1.24-2.76-2.77z"/>
		<path class="s0" d="m161.64 15.68c0 1.67-1.25 2.99-2.85 2.99-1.6 0-2.88-1.33-2.88-2.99 0-1.66 1.27-3.01 2.88-3.01 1.61 0 2.85 1.32 2.85 3.01zm-0.62-0.01c0-1.37-0.97-2.39-2.23-2.39-1.26 0-2.24 1.03-2.24 2.39 0 1.36 0.96 2.4 2.24 2.4 1.28 0 2.23-1.02 2.23-2.4zm-1.6 0.35l0.76 1.18h-0.74l-0.68-1.03h-0.39v1.03h-0.67v-3.04h1.09c0.65 0 1.1 0.39 1.1 1.01q-0.02 0.6-0.48 0.86zm-1.04-0.45h0.42c0.25 0 0.41-0.17 0.41-0.4 0-0.25-0.17-0.41-0.41-0.41h-0.42z"/>
	</g>
</svg>